<svg style="width: 100%; height: auto;" viewBox="0 0 1441 468" fill="none" xmlns="http://www.w3.org/2000/svg">
<g clip-path="url(#clip0_4261_791)">
<path d="M329.801 466.778C278.11 466.788 226.418 466.664 174.726 466.933C167.501 466.969 163.629 464.4 160.117 458.167C144.064 429.7 127.536 401.501 110.988 373.317C108.095 368.39 107.456 364.315 110.772 359.151C117.037 349.385 122.601 339.17 128.439 329.13C131.44 323.966 134.292 323.094 137.669 328.96C152.5 354.719 167.44 380.411 182.343 406.123C184.503 409.853 186.855 413.485 188.866 417.293C191.151 421.626 195.106 420.925 198.814 420.93C222.901 420.955 246.988 420.93 271.076 420.93C333.865 420.935 396.654 420.868 459.443 421.074C466.127 421.095 470.061 419.294 473.521 413.057C488.193 386.617 503.575 360.574 518.721 334.403C519.804 332.535 521.046 330.75 522.284 328.975C525.053 325.008 528.096 325.044 530.483 329.084C537.208 340.47 543.69 352.005 550.26 363.484C551.987 366.502 550.842 369.195 549.301 371.878C532.453 401.135 515.554 430.36 498.852 459.7C495.804 465.055 491.838 466.917 485.697 466.891C433.737 466.68 381.772 466.773 329.807 466.783L329.801 466.778Z" stroke="#D9D9D9" stroke-opacity="0.15" stroke-miterlimit="10"/>
<path d="M328.925 397.487C290.507 397.487 252.084 397.374 213.665 397.606C207.57 397.642 203.687 395.945 200.593 390.466C187.185 366.724 173.401 343.194 159.756 319.586C157.601 315.856 155.904 311.739 153.186 308.484C146.575 300.57 147.684 293.476 153.315 285.444C158.869 277.514 163.289 268.78 168.09 260.335C171.333 254.629 174.469 255.176 177.506 260.345C186.113 275.012 194.673 289.7 203.182 304.424C211.293 318.456 219.41 332.489 227.331 346.63C229.584 350.659 232.498 352.238 237.119 352.227C298.536 352.124 359.959 352.088 421.376 352.294C426.724 352.31 429.106 349.653 431.355 345.747C445.087 321.877 458.861 298.032 472.614 274.176C475.445 269.265 478.173 264.292 481.066 259.417C483.748 254.897 486.78 253.468 489.977 258.973C496.485 270.178 502.817 281.487 509.47 292.61C512.162 297.108 509.63 300.441 507.67 303.841C492.029 330.967 475.713 357.727 460.862 385.271C455.494 395.228 449.187 397.91 438.512 397.73C401.997 397.1 365.461 397.487 328.935 397.492L328.925 397.487Z" stroke="#D9D9D9" stroke-opacity="0.15" stroke-miterlimit="10"/>
<path d="M329.075 327.263C303.909 327.263 278.749 327.108 253.584 327.371C247.654 327.433 244.188 325.261 241.301 320.195C225.273 292.027 209.189 263.889 192.626 236.036C188.609 229.278 188.449 223.907 192.631 217.402C198.174 208.776 202.836 199.593 208.148 190.812C212.34 183.878 214.867 183.95 218.863 190.848C234.695 218.201 250.578 245.523 266.156 273.021C269.426 278.789 273.098 281.528 280.137 281.445C312.872 281.069 345.612 281.157 378.353 281.378C384.747 281.42 388.357 279.49 391.673 273.532C406.891 246.142 422.758 219.109 438.564 192.055C444.149 182.496 446 182.712 451.683 192.535C456.819 201.419 461.842 210.38 467.303 219.068C470.453 224.082 470.103 228.158 467.117 233.25C450.321 261.898 433.799 290.706 417.374 319.571C414.229 325.096 410.392 327.526 403.755 327.423C378.869 327.046 353.972 327.273 329.08 327.268L329.075 327.263Z" stroke="#D9D9D9" stroke-opacity="0.15" stroke-miterlimit="10"/>
<path d="M329.636 69.9103C343.977 69.9103 358.324 70.0548 372.66 69.8381C377.574 69.7659 380.534 71.4942 383.009 75.8484C397.046 100.498 411.263 125.05 425.677 149.483C428.931 154.998 429.204 159.687 425.785 165.223C420.107 174.401 414.873 183.863 409.691 193.335C407.22 197.849 404.034 199.912 398.67 199.67C389.491 199.257 380.276 199.618 371.076 199.536C361.377 199.448 360.17 197.359 364.862 189.223C369.849 180.576 374.712 171.852 379.817 163.278C382.086 159.466 382.623 156.179 380.111 152.047C373.237 140.738 366.636 129.254 360.278 117.647C357.751 113.029 354.57 111.115 349.284 111.229C336.304 111.518 323.304 111.482 310.324 111.244C305.214 111.151 301.96 112.498 299.345 117.399C293.25 128.816 286.5 139.887 279.739 150.933C277.016 155.38 276.965 159.218 279.646 163.706C284.906 172.497 289.95 181.428 294.725 190.487C298.216 197.116 296.808 199.386 289.413 199.515C279.136 199.69 268.848 199.494 258.565 199.603C254.62 199.644 252.021 198.112 250.103 194.593C244.41 184.172 238.614 173.803 232.58 163.572C230.115 159.399 229.914 155.963 232.467 151.588C246.633 127.33 260.628 102.974 274.371 78.4743C277.95 72.0926 282.292 69.3429 289.872 69.7195C303.1 70.385 316.383 69.9052 329.642 69.9103H329.636Z" stroke="#D9D9D9" stroke-opacity="0.15" stroke-miterlimit="10"/>
</g>
<g clip-path="url(#clip1_4261_791)">
<path d="M-45.2132 1.22191C-96.905 1.21159 -148.597 1.33542 -200.289 1.06715C-207.513 1.03103 -211.386 3.60022 -214.898 9.83231C-230.951 38.2997 -247.478 66.4989 -264.027 94.6826C-266.92 99.6095 -267.559 103.685 -264.243 108.849C-257.978 118.615 -252.413 128.83 -246.576 138.87C-243.575 144.034 -240.723 144.906 -237.345 139.04C-222.514 113.281 -207.575 87.589 -192.672 61.8764C-190.511 58.1465 -188.16 54.5145 -186.149 50.7072C-183.864 46.3736 -179.909 47.0752 -176.201 47.0701C-152.114 47.0443 -128.026 47.0701 -103.939 47.0701C-41.1497 47.0649 21.6395 47.132 84.4287 46.9256C91.1119 46.905 95.0465 48.7055 98.5068 54.9427C113.178 81.3827 128.561 107.425 143.706 133.597C144.789 135.465 146.032 137.25 147.269 139.024C150.039 142.992 153.081 142.955 155.469 138.916C162.193 127.53 168.675 115.994 175.245 104.516C176.973 101.498 175.828 98.8046 174.286 96.122C157.439 66.8652 140.54 37.6394 123.837 8.30009C120.789 2.94504 116.824 1.08263 110.682 1.10843C58.722 1.31995 6.75697 1.22707 -45.2081 1.21675L-45.2132 1.22191Z" stroke="#D9D9D9" stroke-opacity="0.15" stroke-miterlimit="10"/>
<path d="M-46.0896 70.5125C-84.5078 70.5125 -122.931 70.626 -161.349 70.3939C-167.445 70.3578 -171.328 72.0551 -174.422 77.5339C-187.829 101.276 -201.614 124.806 -215.258 148.414C-217.414 152.144 -219.111 156.26 -221.828 159.516C-228.439 167.43 -227.33 174.523 -221.699 182.556C-216.145 190.485 -211.726 199.22 -206.925 207.665C-203.681 213.371 -200.546 212.824 -197.509 207.655C-188.902 192.987 -180.342 178.3 -171.833 163.576C-163.721 149.543 -155.605 135.511 -147.684 121.37C-145.43 117.341 -142.517 115.762 -137.896 115.773C-76.4786 115.876 -15.056 115.912 46.3615 115.705C51.7091 115.69 54.0915 118.347 56.3399 122.252C70.0725 146.123 83.8463 169.968 97.5995 193.823C100.431 198.735 103.158 203.708 106.051 208.583C108.733 213.102 111.765 214.532 114.962 209.027C121.47 197.821 127.803 186.513 134.455 175.39C137.147 170.891 134.615 167.559 132.655 164.159C117.015 137.033 100.699 110.273 85.8471 82.7291C80.4789 72.7722 74.1721 70.0895 63.4975 70.2701C26.9822 70.8995 -9.55368 70.5125 -46.0793 70.5074L-46.0896 70.5125Z" stroke="#D9D9D9" stroke-opacity="0.15" stroke-miterlimit="10"/>
<path d="M-45.9401 140.737C-71.1053 140.737 -96.2653 140.892 -121.43 140.629C-127.361 140.567 -130.826 142.739 -133.714 147.805C-149.741 175.973 -165.825 204.11 -182.389 231.964C-186.406 238.722 -186.566 244.093 -182.384 250.598C-176.84 259.224 -172.179 268.407 -166.867 277.188C-162.675 284.122 -160.148 284.049 -156.151 277.152C-140.32 249.799 -124.437 222.476 -108.858 194.979C-105.589 189.211 -101.917 186.472 -94.8781 186.554C-62.1427 186.931 -29.4022 186.843 3.33829 186.621C9.73272 186.58 13.3425 188.51 16.6583 194.468C31.876 221.857 47.7435 248.891 63.549 275.944C69.1339 285.504 70.9852 285.287 76.6679 275.465C81.8041 266.581 86.8269 257.62 92.2879 248.932C95.4387 243.917 95.0881 239.842 92.1023 234.75C75.3066 206.102 58.7842 177.294 42.3598 148.429C39.2141 142.904 35.3775 140.474 28.7407 140.577C3.85394 140.954 -21.0431 140.727 -45.9349 140.732L-45.9401 140.737Z" stroke="#D9D9D9" stroke-opacity="0.15" stroke-miterlimit="10"/>
<path d="M-45.3782 398.089C-31.0372 398.089 -16.691 397.945 -2.35508 398.162C2.55935 398.234 5.51936 396.506 7.99462 392.151C22.0314 367.502 36.2487 342.95 50.662 318.517C53.9159 313.002 54.1892 308.312 50.7703 302.777C45.0926 293.599 39.8585 284.137 34.6759 274.665C32.2058 270.151 29.0189 268.087 23.6558 268.33C14.4767 268.743 5.26153 268.382 -3.9382 268.464C-13.6381 268.552 -14.8448 270.641 -10.1522 278.777C-5.16553 287.423 -0.302667 296.147 4.80256 304.722C7.07156 308.534 7.60787 311.82 5.09651 315.953C-1.77751 327.261 -8.37821 338.745 -14.7365 350.353C-17.2634 354.97 -20.4451 356.884 -25.7308 356.771C-38.7105 356.482 -51.7108 356.518 -64.6904 356.755C-69.8008 356.848 -73.0548 355.502 -75.6693 350.601C-81.7646 339.184 -88.5149 328.113 -95.2754 317.067C-97.9982 312.62 -98.0498 308.782 -95.3683 304.293C-90.1083 295.502 -85.065 286.572 -80.2898 277.513C-76.7986 270.884 -78.2064 268.614 -85.6013 268.485C-95.8788 268.309 -106.167 268.505 -116.449 268.397C-120.394 268.356 -122.993 269.888 -124.912 273.406C-130.605 283.828 -136.401 294.197 -142.434 304.428C-144.899 308.601 -145.1 312.037 -142.548 316.412C-128.382 340.67 -114.387 365.025 -100.644 389.525C-97.0648 395.907 -92.7228 398.657 -85.1423 398.28C-71.9151 397.615 -58.6312 398.095 -45.3731 398.089H-45.3782Z" stroke="#D9D9D9" stroke-opacity="0.15" stroke-miterlimit="10"/>
</g>
<g clip-path="url(#clip2_4261_791)">
<path d="M1454.84 1.22191C1403.15 1.21159 1351.46 1.33542 1299.77 1.06715C1292.54 1.03103 1288.67 3.60022 1285.16 9.83231C1269.11 38.2997 1252.58 66.4989 1236.03 94.6826C1233.14 99.6095 1232.5 103.685 1235.81 108.849C1242.08 118.615 1247.64 128.83 1253.48 138.87C1256.48 144.034 1259.33 144.906 1262.71 139.04C1277.54 113.281 1292.48 87.589 1307.39 61.8764C1309.55 58.1465 1311.9 54.5145 1313.91 50.7072C1316.19 46.3736 1320.15 47.0752 1323.86 47.0701C1347.94 47.0443 1372.03 47.0701 1396.12 47.0701C1458.91 47.0649 1521.7 47.132 1584.49 46.9256C1591.17 46.905 1595.1 48.7055 1598.56 54.9427C1613.24 81.3827 1628.62 107.425 1643.76 133.597C1644.85 135.465 1646.09 137.25 1647.33 139.024C1650.1 142.992 1653.14 142.955 1655.53 138.916C1662.25 127.53 1668.73 115.994 1675.3 104.516C1677.03 101.498 1675.89 98.8046 1674.34 96.122C1657.5 66.8652 1640.6 37.6394 1623.89 8.30009C1620.85 2.94504 1616.88 1.08263 1610.74 1.10843C1558.78 1.31995 1506.81 1.22707 1454.85 1.21675L1454.84 1.22191Z" stroke="#D9D9D9" stroke-opacity="0.15" stroke-miterlimit="10"/>
<path d="M1453.97 70.5125C1415.55 70.5125 1377.13 70.626 1338.71 70.3939C1332.61 70.3578 1328.73 72.0551 1325.64 77.5339C1312.23 101.276 1298.44 124.806 1284.8 148.414C1282.64 152.144 1280.95 156.26 1278.23 159.516C1271.62 167.43 1272.73 174.523 1278.36 182.556C1283.91 190.485 1288.33 199.22 1293.13 207.665C1296.38 213.371 1299.51 212.824 1302.55 207.655C1311.16 192.987 1319.72 178.3 1328.22 163.576C1336.34 149.543 1344.45 135.511 1352.37 121.37C1354.63 117.341 1357.54 115.762 1362.16 115.773C1423.58 115.876 1485 115.912 1546.42 115.705C1551.77 115.69 1554.15 118.347 1556.4 122.252C1570.13 146.123 1583.9 169.968 1597.66 193.823C1600.49 198.735 1603.22 203.708 1606.11 208.583C1608.79 213.102 1611.82 214.532 1615.02 209.027C1621.53 197.821 1627.86 186.513 1634.51 175.39C1637.2 170.891 1634.67 167.559 1632.71 164.159C1617.07 137.033 1600.76 110.273 1585.9 82.7291C1580.54 72.7722 1574.23 70.0895 1563.56 70.2701C1527.04 70.8995 1490.5 70.5125 1453.98 70.5074L1453.97 70.5125Z" stroke="#D9D9D9" stroke-opacity="0.15" stroke-miterlimit="10"/>
<path d="M1454.12 140.737C1428.95 140.737 1403.79 140.892 1378.63 140.629C1372.7 140.567 1369.23 142.739 1366.34 147.805C1350.32 175.973 1334.23 204.11 1317.67 231.964C1313.65 238.722 1313.49 244.093 1317.67 250.598C1323.22 259.224 1327.88 268.407 1333.19 277.188C1337.38 284.122 1339.91 284.049 1343.91 277.152C1359.74 249.799 1375.62 222.476 1391.2 194.979C1394.47 189.211 1398.14 186.472 1405.18 186.554C1437.91 186.931 1470.66 186.843 1503.4 186.621C1509.79 186.58 1513.4 188.51 1516.72 194.468C1531.93 221.857 1547.8 248.891 1563.61 275.944C1569.19 285.504 1571.04 285.287 1576.73 275.465C1581.86 266.581 1586.88 257.62 1592.35 248.932C1595.5 243.917 1595.15 239.842 1592.16 234.75C1575.36 206.102 1558.84 177.294 1542.42 148.429C1539.27 142.904 1535.44 140.474 1528.8 140.577C1503.91 140.954 1479.01 140.727 1454.12 140.732L1454.12 140.737Z" stroke="#D9D9D9" stroke-opacity="0.15" stroke-miterlimit="10"/>
<path d="M1454.68 398.089C1469.02 398.089 1483.37 397.945 1497.7 398.162C1502.62 398.234 1505.58 396.506 1508.05 392.151C1522.09 367.502 1536.31 342.95 1550.72 318.517C1553.97 313.002 1554.25 308.312 1550.83 302.777C1545.15 293.599 1539.92 284.137 1534.73 274.665C1532.26 270.151 1529.08 268.087 1523.71 268.33C1514.53 268.743 1505.32 268.382 1496.12 268.464C1486.42 268.552 1485.21 270.641 1489.91 278.777C1494.89 287.423 1499.75 296.147 1504.86 304.722C1507.13 308.534 1507.67 311.82 1505.15 315.953C1498.28 327.261 1491.68 338.745 1485.32 350.353C1482.79 354.97 1479.61 356.884 1474.33 356.771C1461.35 356.482 1448.35 356.518 1435.37 356.755C1430.26 356.848 1427 355.502 1424.39 350.601C1418.29 339.184 1411.54 328.113 1404.78 317.067C1402.06 312.62 1402.01 308.782 1404.69 304.293C1409.95 295.502 1414.99 286.572 1419.77 277.513C1423.26 270.884 1421.85 268.614 1414.46 268.485C1404.18 268.309 1393.89 268.505 1383.61 268.397C1379.66 268.356 1377.06 269.888 1375.15 273.406C1369.45 283.828 1363.66 294.197 1357.62 304.428C1355.16 308.601 1354.96 312.037 1357.51 316.412C1371.68 340.67 1385.67 365.025 1399.41 389.525C1402.99 395.907 1407.33 398.657 1414.92 398.28C1428.14 397.615 1441.43 398.095 1454.68 398.089H1454.68Z" stroke="#D9D9D9" stroke-opacity="0.15" stroke-miterlimit="10"/>
</g>
<g clip-path="url(#clip3_4261_791)">
<path d="M1079.83 466.778C1028.14 466.788 976.446 466.664 924.754 466.933C917.53 466.969 913.657 464.4 910.145 458.167C894.092 429.7 877.565 401.501 861.016 373.317C858.123 368.39 857.484 364.315 860.8 359.151C867.065 349.385 872.63 339.17 878.467 329.13C881.468 323.966 884.32 323.094 887.698 328.96C902.529 354.719 917.468 380.411 932.371 406.123C934.532 409.853 936.883 413.485 938.894 417.293C941.179 421.626 945.134 420.925 948.842 420.93C972.929 420.955 997.017 420.93 1021.1 420.93C1083.89 420.935 1146.68 420.868 1209.47 421.074C1216.15 421.095 1220.09 419.294 1223.55 413.057C1238.22 386.617 1253.6 360.574 1268.75 334.403C1269.83 332.535 1271.07 330.75 1272.31 328.975C1275.08 325.008 1278.12 325.044 1280.51 329.084C1287.24 340.47 1293.72 352.005 1300.29 363.484C1302.02 366.502 1300.87 369.195 1299.33 371.878C1282.48 401.135 1265.58 430.36 1248.88 459.7C1245.83 465.055 1241.87 466.917 1235.72 466.891C1183.77 466.68 1131.8 466.773 1079.83 466.783L1079.83 466.778Z" stroke="#D9D9D9" stroke-opacity="0.15" stroke-miterlimit="10"/>
<path d="M1078.95 397.487C1040.54 397.487 1002.11 397.374 963.694 397.606C957.598 397.642 953.715 395.945 950.621 390.466C937.214 366.724 923.429 343.194 909.785 319.586C907.629 315.856 905.932 311.739 903.215 308.484C896.604 300.57 897.713 293.476 903.344 285.444C908.898 277.514 913.317 268.78 918.118 260.335C921.362 254.629 924.497 255.176 927.534 260.345C936.141 275.012 944.701 289.7 953.21 304.424C961.322 318.456 969.438 332.489 977.359 346.63C979.613 350.659 982.526 352.238 987.147 352.227C1048.56 352.124 1109.99 352.088 1171.4 352.294C1176.75 352.31 1179.13 349.653 1181.38 345.747C1195.12 321.877 1208.89 298.032 1222.64 274.176C1225.47 269.265 1228.2 264.292 1231.09 259.417C1233.78 254.897 1236.81 253.468 1240.01 258.973C1246.51 270.178 1252.85 281.487 1259.5 292.61C1262.19 297.108 1259.66 300.441 1257.7 303.841C1242.06 330.967 1225.74 357.727 1210.89 385.271C1205.52 395.228 1199.22 397.91 1188.54 397.73C1152.03 397.1 1115.49 397.487 1078.96 397.492L1078.95 397.487Z" stroke="#D9D9D9" stroke-opacity="0.15" stroke-miterlimit="10"/>
<path d="M1079.1 327.263C1053.94 327.263 1028.78 327.108 1003.61 327.371C997.682 327.433 994.217 325.261 991.329 320.195C975.302 292.027 959.218 263.889 942.654 236.036C938.637 229.278 938.477 223.907 942.659 217.402C948.203 208.776 952.864 199.593 958.176 190.812C962.368 183.878 964.895 183.95 968.892 190.848C984.723 218.201 1000.61 245.523 1016.18 273.021C1019.45 278.789 1023.13 281.528 1030.16 281.445C1062.9 281.069 1095.64 281.157 1128.38 281.378C1134.78 281.42 1138.39 279.49 1141.7 273.532C1156.92 246.142 1172.79 219.109 1188.59 192.055C1194.18 182.496 1196.03 182.712 1201.71 192.535C1206.85 201.419 1211.87 210.38 1217.33 219.068C1220.48 224.082 1220.13 228.158 1217.15 233.25C1200.35 261.898 1183.83 290.706 1167.4 319.571C1164.26 325.096 1160.42 327.526 1153.78 327.423C1128.9 327.046 1104 327.273 1079.11 327.268L1079.1 327.263Z" stroke="#D9D9D9" stroke-opacity="0.15" stroke-miterlimit="10"/>
<path d="M1079.66 69.9103C1094.01 69.9103 1108.35 70.0548 1122.69 69.8381C1127.6 69.7659 1130.56 71.4942 1133.04 75.8484C1147.07 100.498 1161.29 125.05 1175.7 149.483C1178.96 154.998 1179.23 159.687 1175.81 165.223C1170.14 174.401 1164.9 183.863 1159.72 193.335C1157.25 197.849 1154.06 199.912 1148.7 199.67C1139.52 199.257 1130.3 199.618 1121.1 199.536C1111.4 199.448 1110.2 197.359 1114.89 189.223C1119.88 180.576 1124.74 171.852 1129.85 163.278C1132.11 159.466 1132.65 156.179 1130.14 152.047C1123.27 140.738 1116.66 129.254 1110.31 117.647C1107.78 113.029 1104.6 111.115 1099.31 111.229C1086.33 111.518 1073.33 111.482 1060.35 111.244C1055.24 111.151 1051.99 112.498 1049.37 117.399C1043.28 128.816 1036.53 139.887 1029.77 150.933C1027.04 155.38 1026.99 159.218 1029.67 163.706C1034.93 172.497 1039.98 181.428 1044.75 190.487C1048.24 197.116 1046.84 199.386 1039.44 199.515C1029.16 199.69 1018.88 199.494 1008.59 199.603C1004.65 199.644 1002.05 198.112 1000.13 194.593C994.438 184.172 988.642 173.803 982.609 163.572C980.144 159.399 979.943 155.963 982.495 151.588C996.661 127.33 1010.66 102.974 1024.4 78.4743C1027.98 72.0926 1032.32 69.3429 1039.9 69.7195C1053.13 70.385 1066.41 69.9052 1079.67 69.9103H1079.66Z" stroke="#D9D9D9" stroke-opacity="0.15" stroke-miterlimit="10"/>
</g>
<defs>
<clipPath id="clip0_4261_791">
<rect width="443.093" height="397.76" fill="white" transform="translate(108.286 69.4307)"/>
</clipPath>
<clipPath id="clip1_4261_791">
<rect width="443.093" height="397.76" fill="white" transform="matrix(1 0 0 -1 -266.729 398.569)"/>
</clipPath>
<clipPath id="clip2_4261_791">
<rect width="443.093" height="397.76" fill="white" transform="matrix(1 0 0 -1 1233.33 398.569)"/>
</clipPath>
<clipPath id="clip3_4261_791">
<rect width="443.093" height="397.76" fill="white" transform="translate(858.314 69.4307)"/>
</clipPath>
</defs>
</svg>
