<?xml version="1.0" encoding="utf-8"?><svg xmlns="http://www.w3.org/2000/svg" xmlns:xlink="http://www.w3.org/1999/xlink"><symbol viewBox="0 0 128 128" id="icon-car-accident" xmlns="http://www.w3.org/2000/svg"><path d="M28.357 65.882a2 2 0 10-2.973 2.677l4.303 4.779c.573.637 1.39 1 2.247 1h10.808a2 2 0 100-4H32.369zm15.409 13.669a2 2 0 100 4l21.063-.019c.19-.026.371-.079.54-.155l10.084-4.192 8.934 4.178a2 2 0 001.695-3.624l-9.735-4.551a2 2 0 00-1.615-.035l-10.579 4.398zm60.464-9.003a2 2 0 01.075 2.828l-4.558 4.806a3 3 0 01-2.177.936H86.983a2 2 0 010-4H97.14l4.263-4.495a2 2 0 012.827-.075z" data-original="#000000"/><path clip-rule="evenodd" d="M39.897 34c-.427 0-.889.09-1.332.314-2.896 1.464-7.909 5.855-9.701 13.641a3.06 3.06 0 00-2.718-1.671H16.12c-3.932 0-7.12 3.401-7.12 7.333a7.119 7.119 0 006.037 7.035l5.757.886-1.704 2.384a10.187 10.187 0 00-1.899 5.923v12.218c0 2.61.982 4.99 2.595 6.792l-.035 8.05A6.095 6.095 0 0025.847 103h13.31a6.095 6.095 0 006.097-6.095v-.511a2 2 0 10-4 0v.511A2.095 2.095 0 0139.158 99H25.847a2.095 2.095 0 01-2.096-2.095v-5.319c1.128.43 2.353.666 3.632.666l51.927-.024a1.99 1.99 0 00.757-.284l5.434-3.27c1.314.386 4.407 1.284 6.34 1.782 1.928.497 4.014.987 5.895 1.326 1.813.326 3.661.556 5.002.409a10.139 10.139 0 002.511-.606v5.32A2.095 2.095 0 01103.153 99h-13.31c-.93 0-2.096-.977-2.096-2.607a2 2 0 00-4 0c0 3.353 2.5 6.607 6.095 6.607h13.311a6.095 6.095 0 006.096-6.095l-.035-8.05a10.146 10.146 0 002.595-6.792V69.844c0-2.123-.664-4.194-1.899-5.922l-1.842-2.579 2.567-.828A7.119 7.119 0 00116 53.617c0-4.045-3.125-7.334-7.12-7.334 0 0-6.604-.022-6.902.025a1.993 1.993 0 00-1.393.93c-.076.188-.324.711-.408.893-1.758-7.896-6.824-12.342-9.742-13.817a2.003 2.003 0 00-.945-.215 1.9 1.9 0 00-1.017.3c-.071.043-.54.386-1.07.803-.529.417-2.706 2.166-3.394 2.719l-3.841-3.148a3 3 0 00-1.881-.68L64.77 34h-.014zm.253 4c-2.21 1.226-6.658 5.211-7.716 12.614a1.997 1.997 0 01-1.035 1.48c2.363 2.61 5.309 3.686 6.87 3.914 0 0 26.231-.008 26.746.043 4.136.905 10.351 3.22 10.351 3.22l5.305-2.416a2 2 0 011.88.119l5.139 3.174 1.301-2.602a3.076 3.076 0 011.978-1.59c1.647-.433 4.276-1.746 6.472-3.958a1.995 1.995 0 01-.875-1.384c-.94-6.578-4.557-10.458-6.902-12.1-.482.38-1.074.855-1.67 1.332-.65.535-2.236 1.835-2.734 2.207l-8.31 4.397 3.9 3.576a2 2 0 01-2.702 2.948l-5.879-5.388-8.368-2.391-7.207 5.37a2 2 0 11-2.39-3.207l8-5.962a2 2 0 011.744-.319l9.408 2.688 6.938-3.634-2.49-2.04L64.757 38zm24.148 22.008l-26.412-.016c-3.076-.384-9.328-2.862-12.37-9.709H16.12c-1.724 0-3.12 1.612-3.12 3.334a3.119 3.119 0 002.645 3.082l7.325 1.126c2.227.343 3.311 2.913 2.001 4.746l-2.627 3.677a6.187 6.187 0 00-1.153 3.597v12.218a6.19 6.19 0 006.192 6.189h51.061l5.76-3.466a2 2 0 011.631-.194 154.663 154.663 0 007.004 1.99c1.882.486 3.861.95 5.605 1.263 1.812.326 3.15.447 3.858.37a6.191 6.191 0 005.507-6.152V69.844c0-1.29-.403-2.547-1.153-3.597l-2.627-3.676c-.748-1.046-.601-2.236-.203-3.034a3.255 3.255 0 012.032-1.684l3.759-1.206a3.118 3.118 0 002.383-3.03c0-1.963-1.459-3.334-3.12-3.334h-5.302c-2.732 5.423-7.974 8.457-11.198 9.43l-2.091 4.181a2 2 0 01-2.84.807l-6.092-3.763-5.028 2.29a2 2 0 01-1.425.09z" fill-rule="evenodd" data-original="#000000"/></symbol></svg>