<?xml version="1.0" encoding="utf-8"?><svg xmlns="http://www.w3.org/2000/svg" xmlns:xlink="http://www.w3.org/1999/xlink"><symbol viewBox="0 0 451.85 451.85" id="arrow-down" xmlns="http://www.w3.org/2000/svg"><path d="M225.923 354.706c-8.098 0-16.195-3.092-22.369-9.263L9.27 151.157c-12.359-12.359-12.359-32.397 0-44.751 12.354-12.354 32.388-12.354 44.748 0l171.905 171.915 171.906-171.909c12.359-12.354 32.391-12.354 44.744 0 12.365 12.354 12.365 32.392 0 44.751L248.292 345.449c-6.177 6.172-14.274 9.257-22.369 9.257z" data-original="#000000" xmlns="http://www.w3.org/2000/svg"/></symbol><symbol viewBox="0 0 311 311.1" id="close" xmlns="http://www.w3.org/2000/svg"><path d="M16.043 311.098c-4.094 0-8.191-1.555-11.305-4.692-6.25-6.25-6.25-16.386 0-22.636L283.797 4.71c6.254-6.253 16.387-6.253 22.637 0 6.25 6.25 6.25 16.384 0 22.634L27.37 306.406a15.952 15.952 0 01-11.328 4.692zm0 0"/><path d="M295.125 311.098c-4.094 0-8.191-1.555-11.305-4.692L4.738 27.324c-6.25-6.254-6.25-16.386 0-22.636s16.383-6.25 22.633 0L306.434 283.77c6.25 6.25 6.25 16.386 0 22.636a15.94 15.94 0 01-11.309 4.692zm0 0"/></symbol><symbol viewBox="0 0 155.14 155.14" id="facebook" xmlns="http://www.w3.org/2000/svg"><path d="M89.584 155.139V84.378h23.742l3.562-27.585H89.584V39.184c0-7.984 2.208-13.425 13.67-13.425l14.595-.006V1.08C115.325.752 106.661 0 96.577 0 75.52 0 61.104 12.853 61.104 36.452v20.341H37.29v27.585h23.814v70.761h28.48z" data-original="#010002" xmlns="http://www.w3.org/2000/svg"/></symbol><symbol viewBox="0 0 409.61 409.61" id="instagram" xmlns="http://www.w3.org/2000/svg"><path d="M307.205 0h-204.8C46.09 0 .005 46.085.005 102.4v204.81c0 56.3 46.085 102.4 102.4 102.4h204.8c56.315 0 102.4-46.1 102.4-102.4V102.4c0-56.315-46.085-102.4-102.4-102.4zm68.265 307.21c0 37.632-30.612 68.265-68.265 68.265h-204.8c-37.637 0-68.265-30.633-68.265-68.265V102.4c0-37.642 30.628-68.265 68.265-68.265h204.8c37.653 0 68.265 30.623 68.265 68.265v204.81z" data-original="#000000" xmlns="http://www.w3.org/2000/svg"/><circle cx="315.75" cy="93.86" r="25.6" data-original="#000000" xmlns="http://www.w3.org/2000/svg"/><path d="M204.805 102.4c-56.566 0-102.4 45.839-102.4 102.4 0 56.54 45.834 102.41 102.4 102.41 56.55 0 102.4-45.87 102.4-102.41 0-56.561-45.85-102.4-102.4-102.4zm0 170.675c-37.699 0-68.265-30.566-68.265-68.275s30.566-68.265 68.265-68.265 68.265 30.556 68.265 68.265-30.566 68.275-68.265 68.275z" data-original="#000000" xmlns="http://www.w3.org/2000/svg"/></symbol><symbol viewBox="0 0 24 24" id="linkedin" xmlns="http://www.w3.org/2000/svg"><path xmlns="http://www.w3.org/2000/svg" d="M23.994 24v-.001H24v-8.802c0-4.306-.927-7.623-5.961-7.623-2.42 0-4.044 1.328-4.707 2.587h-.07V7.976H8.489v16.023h4.97v-7.934c0-2.089.396-4.109 2.983-4.109 2.549 0 2.587 2.384 2.587 4.243V24zM.396 7.977h4.976V24H.396zM2.882 0C1.291 0 0 1.291 0 2.882s1.291 2.909 2.882 2.909 2.882-1.318 2.882-2.909A2.884 2.884 0 002.882 0z" data-original="#000000"/></symbol><symbol viewBox="0 -53 384 384" id="menu" xmlns="http://www.w3.org/2000/svg"><path d="M368 154.668H16c-8.832 0-16-7.168-16-16s7.168-16 16-16h352c8.832 0 16 7.168 16 16s-7.168 16-16 16zM368 32H16C7.168 32 0 24.832 0 16S7.168 0 16 0h352c8.832 0 16 7.168 16 16s-7.168 16-16 16zm0 245.332H16c-8.832 0-16-7.168-16-16s7.168-16 16-16h352c8.832 0 16 7.168 16 16s-7.168 16-16 16zm0 0"/></symbol><symbol viewBox="0 0 25.63 25.63" id="phone" xmlns="http://www.w3.org/2000/svg"><path d="M22.079 17.835c-1.548-1.324-3.119-2.126-4.648-.804l-.913.799c-.668.58-1.91 3.29-6.712-2.234-4.801-5.517-1.944-6.376-1.275-6.951l.918-.8c1.521-1.325.947-2.993-.15-4.71l-.662-1.04C7.535.382 6.335-.743 4.81.58l-.824.72c-.674.491-2.558 2.087-3.015 5.119-.55 3.638 1.185 7.804 5.16 12.375 3.97 4.573 7.857 6.87 11.539 6.83 3.06-.033 4.908-1.675 5.486-2.272l.827-.721c1.521-1.322.576-2.668-.973-3.995l-.931-.801z" data-original="#030104" xmlns="http://www.w3.org/2000/svg"/></symbol><symbol viewBox="0 0 511.98 511.98" id="pinterest" xmlns="http://www.w3.org/2000/svg"><path d="M262.948 0C122.628 0 48.004 89.92 48.004 187.968c0 45.472 25.408 102.176 66.08 120.16 6.176 2.784 9.536 1.6 10.912-4.128 1.216-4.352 6.56-25.312 9.152-35.2.8-3.168.384-5.92-2.176-8.896-13.504-15.616-24.224-44.064-24.224-70.752 0-68.384 54.368-134.784 146.88-134.784 80 0 135.968 51.968 135.968 126.304 0 84-44.448 142.112-102.208 142.112-31.968 0-55.776-25.088-48.224-56.128 9.12-36.96 27.008-76.704 27.008-103.36 0-23.904-13.504-43.68-41.088-43.68-32.544 0-58.944 32.224-58.944 75.488 0 27.488 9.728 46.048 9.728 46.048S144.676 371.2 138.692 395.488c-10.112 41.12 1.376 107.712 2.368 113.44.608 3.168 4.16 4.16 6.144 1.568 3.168-4.16 42.08-59.68 52.992-99.808 3.968-14.624 20.256-73.92 20.256-73.92 10.72 19.36 41.664 35.584 74.624 35.584 98.048 0 168.896-86.176 168.896-193.12C463.62 76.704 375.876 0 262.948 0z" data-original="#000000" xmlns="http://www.w3.org/2000/svg"/></symbol><symbol clip-rule="evenodd" fill-rule="evenodd" stroke-linejoin="round" stroke-miterlimit="2" viewBox="0 0 24 24" id="search" xmlns="http://www.w3.org/2000/svg"><path d="M15.97 17.031a8.482 8.482 0 01-5.461 1.985C5.812 19.016 2 15.204 2 10.508S5.812 2 10.509 2c4.695 0 8.508 3.812 8.508 8.508a8.476 8.476 0 01-1.985 5.461l4.749 4.75a.748.748 0 01.219.531c0 .587-.537.75-.75.75a.748.748 0 01-.531-.22zm-5.461-13.53c-3.868 0-7.007 3.14-7.007 7.007s3.139 7.007 7.007 7.007c3.866 0 7.007-3.14 7.007-7.007s-3.141-7.007-7.007-7.007z" fill-rule="nonzero"/></symbol><symbol viewBox="0 0 165 27" id="stars" xmlns="http://www.w3.org/2000/svg"><path d="M15.507.933l3.419 6.931 7.648 1.115c1.372.2 1.922 1.89.927 2.859l-5.534 5.392 1.31 7.617c.235 1.377-1.216 2.409-2.43 1.765l-6.843-3.597-6.842 3.597c-1.215.638-2.665-.388-2.43-1.765l1.31-7.617-5.534-5.392c-.995-.969-.445-2.66.927-2.859l7.648-1.115L12.502.933c.612-1.236 2.387-1.252 3.005 0zm34 0l3.419 6.931 7.648 1.115c1.372.2 1.922 1.89.927 2.859l-5.534 5.392 1.31 7.617c.235 1.377-1.215 2.409-2.43 1.765l-6.843-3.597-6.842 3.597c-1.215.638-2.665-.388-2.43-1.765l1.31-7.617-5.534-5.392c-.995-.969-.445-2.66.926-2.859l7.65-1.115L46.501.933c.612-1.236 2.387-1.252 3.005 0zm34 0l3.419 6.931 7.648 1.115c1.372.2 1.922 1.89.927 2.859l-5.534 5.392 1.31 7.617c.235 1.377-1.216 2.409-2.43 1.765l-6.843-3.597-6.842 3.597c-1.215.638-2.665-.388-2.43-1.765l1.31-7.617-5.534-5.392c-.995-.969-.445-2.66.927-2.859l7.648-1.115L80.502.933c.612-1.236 2.387-1.252 3.005 0zm34 0l3.419 6.931 7.648 1.115c1.372.2 1.922 1.89.927 2.859l-5.534 5.392 1.309 7.617c.236 1.377-1.215 2.409-2.429 1.765l-6.843-3.597-6.842 3.597c-1.215.638-2.665-.388-2.429-1.765l1.309-7.617-5.534-5.392c-.995-.969-.445-2.66.927-2.859l7.648-1.115 3.419-6.931c.612-1.236 2.387-1.252 3.005 0zm34 0l3.419 6.931 7.648 1.115c1.372.2 1.922 1.89.927 2.859l-5.534 5.392 1.309 7.617c.236 1.377-1.215 2.409-2.429 1.765l-6.843-3.597-6.842 3.597c-1.215.638-2.665-.388-2.429-1.765l1.309-7.617-5.534-5.392c-.995-.969-.445-2.66.927-2.859l7.648-1.115 3.419-6.931c.612-1.236 2.387-1.252 3.005 0z"/></symbol><symbol viewBox="0 0 100 100" id="twitter" xmlns="http://www.w3.org/2000/svg"><path xmlns="http://www.w3.org/2000/svg" d="M89.9 25.2c-3 1.3-6.1 2.2-9.4 2.6 3.4-2 6-5.2 7.2-9.1-3.2 1.9-6.7 3.2-10.4 4-3-3.2-7.3-5.2-12-5.2-9.1 0-16.4 7.4-16.4 16.4 0 1.3.1 2.5.4 3.7-13.6-.6-25.6-7.2-33.7-17.1-5.8 10.4.7 19 5 21.9-2.6 0-5.2-.8-7.4-2 0 8.1 5.7 14.8 13.1 16.3-1.6.5-5.2.8-7.4.3 2.1 6.5 8.2 11.3 15.3 11.4-5.6 4.4-13.8 7.9-24.3 6.8 7.3 4.7 15.9 7.4 25.2 7.4 30.2 0 46.6-25 46.6-46.6 0-.7 0-1.4-.1-2.1 3.4-2.5 6.2-5.4 8.3-8.7z" data-original="#000000"/></symbol><symbol viewBox="0 0 24 24" id="youtube" xmlns="http://www.w3.org/2000/svg"><path d="M19.615 3.184c-3.604-.246-11.631-.245-15.23 0C.488 3.45.029 5.804 0 12c.029 6.185.484 8.549 4.385 8.816 3.6.245 11.626.246 15.23 0C23.512 20.55 23.971 18.196 24 12c-.029-6.185-.484-8.549-4.385-8.816zM9 16V8l8 3.993L9 16z"/></symbol></svg>