<?xml version="1.0" standalone="no"?>
<!DOCTYPE svg PUBLIC "-//W3C//DTD SVG 20010904//EN"
 "http://www.w3.org/TR/2001/REC-SVG-20010904/DTD/svg10.dtd">
<svg version="1.0" xmlns="http://www.w3.org/2000/svg"
 width="192.000000pt" height="192.000000pt" viewBox="0 0 192.000000 192.000000"
 preserveAspectRatio="xMidYMid meet">
<metadata>
Created by potrace 1.14, written by Peter Selinger 2001-2017
</metadata>
<g transform="translate(0.000000,192.000000) scale(0.100000,-0.100000)"
fill="#000000" stroke="none">
<path d="M199 1783 c-1 -5 -1 -11 0 -15 0 -4 -8 -10 -19 -13 -11 -4 -18 -10
-15 -15 3 -5 -5 -16 -17 -24 -12 -9 -17 -16 -10 -16 7 0 10 -4 7 -10 -8 -14
25 -80 40 -80 7 0 20 -11 29 -24 8 -14 25 -27 36 -31 11 -4 18 -10 15 -15 -3
-4 6 -11 19 -14 13 -3 26 -15 29 -27 3 -12 9 -19 14 -16 10 6 34 -19 26 -27
-4 -3 -1 -6 6 -6 16 0 42 -26 34 -33 -3 -3 4 -5 16 -4 11 1 37 18 57 39 20 21
40 36 45 32 5 -3 9 0 9 6 0 6 5 8 10 5 6 -3 10 -2 10 3 0 6 18 9 39 8 22 0 37
2 34 7 -5 8 34 4 43 -5 3 -4 16 -4 28 0 27 9 58 8 74 -1 6 -5 12 -4 12 1 0 10
36 9 46 0 3 -4 16 -4 28 0 27 9 58 8 74 -1 6 -5 12 -5 12 0 0 4 11 9 25 9 14
1 22 -2 19 -7 -3 -5 2 -6 10 -3 24 9 138 11 169 3 16 -5 25 -4 22 2 -7 10 24
7 43 -4 6 -5 12 -4 12 0 0 10 72 9 88 -1 7 -4 12 -3 12 1 0 12 73 10 82 -2 5
-6 8 -6 8 1 0 7 13 10 30 9 30 -3 56 -15 31 -15 -7 0 -10 -4 -6 -9 3 -6 -4
-15 -15 -21 -11 -6 -18 -15 -15 -21 4 -5 1 -9 -4 -9 -6 0 -11 -7 -11 -15 0 -8
-4 -15 -10 -15 -5 0 -10 -7 -10 -16 0 -9 -5 -12 -12 -8 -6 4 -8 3 -4 -4 3 -6
-1 -17 -9 -25 -8 -9 -15 -21 -15 -27 0 -6 -7 -13 -15 -16 -8 -4 -13 -10 -10
-14 3 -4 -2 -11 -11 -14 -8 -3 -12 -10 -9 -16 3 -5 1 -10 -5 -10 -6 0 -9 -4
-6 -8 3 -5 -4 -14 -14 -22 -10 -8 -17 -17 -14 -22 3 -4 0 -8 -5 -8 -6 0 -11
-7 -11 -15 0 -9 -7 -18 -15 -21 -8 -4 -13 -10 -10 -14 2 -4 -4 -15 -14 -24
-11 -10 -25 -31 -31 -47 -7 -16 -17 -29 -22 -29 -5 0 -6 -4 -3 -10 3 -5 2 -10
-3 -10 -5 0 -15 -11 -22 -25 -7 -13 -18 -22 -23 -18 -6 3 -7 1 -3 -6 4 -6 -6
-27 -23 -48 -16 -20 -28 -40 -26 -44 3 -4 -2 -10 -11 -13 -8 -3 -13 -10 -10
-15 3 -5 -1 -12 -10 -15 -8 -3 -12 -10 -9 -16 3 -5 1 -10 -5 -10 -6 0 -14 -8
-17 -17 -4 -10 -13 -24 -20 -31 -7 -8 -10 -18 -7 -24 4 -6 2 -8 -3 -5 -6 4
-16 -7 -23 -23 -7 -16 -15 -28 -19 -26 -12 8 -29 -42 -19 -56 7 -9 8 -7 4 7
-6 20 -6 20 9 1 9 -12 15 -15 15 -7 0 11 3 11 17 0 9 -8 14 -9 10 -3 -4 7 2
12 18 12 14 0 25 -6 25 -12 0 -6 5 -4 10 4 8 12 11 13 19 1 7 -11 9 -11 14 0
5 12 7 12 15 0 8 -11 10 -11 15 0 5 12 7 12 15 0 8 -11 10 -11 15 0 4 12 7 11
16 -1 7 -10 11 -11 11 -2 0 8 9 11 24 8 18 -3 23 -1 20 9 -3 7 1 13 8 12 32
-1 49 4 43 13 -3 5 0 7 8 4 8 -3 17 2 21 11 3 9 10 13 16 10 5 -3 10 1 10 10
0 9 5 13 10 10 6 -3 10 1 10 9 0 9 5 16 10 16 6 0 10 7 10 15 0 8 4 15 10 15
5 0 9 6 7 13 -1 6 3 11 10 10 7 -2 10 3 7 11 -3 8 3 20 13 27 10 8 19 21 21
29 2 8 8 17 13 18 5 2 9 10 9 18 0 8 7 17 15 20 8 4 12 10 9 15 -3 5 2 12 10
15 9 3 14 10 11 14 -3 5 5 16 17 24 13 9 17 16 9 16 -8 0 -2 11 15 26 16 15
22 23 14 18 -12 -6 -13 -5 -3 8 7 8 9 19 5 23 -4 5 -2 5 5 2 7 -4 17 5 25 23
9 20 18 28 28 25 12 -5 12 -3 3 6 -9 9 -6 17 12 37 13 14 22 29 19 34 -3 4 3
8 13 8 15 0 16 2 3 10 -8 5 -10 10 -4 10 6 0 17 11 24 25 7 13 17 22 21 19 5
-3 6 2 3 10 -3 9 -1 16 5 16 6 0 11 7 11 15 0 8 4 15 9 15 5 0 14 14 20 30 5
17 15 30 22 30 7 0 10 3 6 6 -3 3 1 13 9 22 8 10 14 21 13 25 0 5 10 17 22 28
12 10 18 19 13 19 -5 0 -2 6 7 13 16 12 19 18 19 38 0 5 5 7 12 3 8 -5 9 -2 5
9 -4 11 -1 17 8 17 8 0 14 3 14 8 -4 21 2 32 13 26 8 -5 9 -2 5 10 -4 10 -1
19 6 22 17 6 19 44 4 63 -10 12 -9 13 3 6 8 -5 -3 9 -25 31 -35 34 -46 39 -85
39 -25 0 -51 -4 -57 -8 -7 -5 -13 -4 -13 1 0 12 -89 10 -107 -1 -7 -5 -13 -4
-13 0 0 11 -151 10 -167 0 -8 -5 -13 -4 -13 2 0 15 -33 14 -48 -1 -8 -8 -12
-8 -12 -1 0 12 -88 12 -107 0 -7 -5 -13 -4 -13 1 0 12 -89 10 -107 -1 -7 -5
-13 -4 -13 0 0 11 -151 10 -167 0 -8 -5 -13 -4 -13 2 0 15 -33 14 -48 -1 -8
-8 -12 -8 -12 -1 0 12 -88 12 -107 0 -7 -5 -13 -4 -13 1 0 12 -89 10 -107 -1
-7 -5 -13 -4 -13 0 0 11 -151 10 -167 0 -8 -5 -13 -4 -13 2 0 15 -33 14 -48
-1 -8 -8 -12 -8 -12 -1 0 12 -88 12 -107 0 -8 -5 -13 -4 -13 2 0 6 -7 11 -15
11 -8 0 -15 -5 -15 -11 0 -5 5 -7 12 -3 7 5 8 3 3 -6 -6 -10 -11 -9 -22 5 -9
14 -13 15 -13 4 0 -8 -3 -10 -8 -4 -9 12 -32 18 -33 8z m171 -9 c0 -8 -19 -13
-24 -6 -3 5 1 9 9 9 8 0 15 -2 15 -3z m360 0 c0 -8 -19 -13 -24 -6 -3 5 1 9 9
9 8 0 15 -2 15 -3z m120 0 c0 -8 -19 -13 -24 -6 -3 5 1 9 9 9 8 0 15 -2 15 -3z
m85 -4 c-3 -5 -12 -10 -18 -10 -7 0 -6 4 3 10 19 12 23 12 15 0z m275 4 c0 -8
-19 -13 -24 -6 -3 5 1 9 9 9 8 0 15 -2 15 -3z m120 0 c0 -8 -19 -13 -24 -6 -3
5 1 9 9 9 8 0 15 -2 15 -3z m360 0 c0 -8 -19 -13 -24 -6 -3 5 1 9 9 9 8 0 15
-2 15 -3z m120 0 c0 -8 -19 -13 -24 -6 -3 5 1 9 9 9 8 0 15 -2 15 -3z"/>
<path d="M825 1280 c-6 -9 -16 -11 -82 -10 -17 0 -38 -6 -46 -14 -8 -8 -17
-12 -21 -9 -3 4 -6 1 -6 -6 0 -8 -7 -11 -15 -7 -9 3 -15 0 -15 -10 0 -8 -3
-13 -7 -11 -5 2 -16 -4 -25 -15 -10 -10 -15 -18 -10 -18 4 0 -1 -5 -10 -11
-10 -5 -18 -17 -18 -24 0 -8 -4 -15 -9 -15 -5 0 -11 -9 -14 -21 -3 -12 -10
-18 -16 -14 -6 3 -9 0 -5 -8 3 -8 -3 -23 -13 -32 -10 -10 -18 -22 -18 -26 0
-4 -10 -17 -22 -29 -27 -25 -31 -38 -5 -19 9 7 4 -2 -13 -21 -16 -19 -33 -36
-37 -38 -4 -2 -4 -10 -1 -19 4 -11 2 -14 -5 -9 -8 5 -12 0 -12 -14 0 -12 -4
-19 -9 -15 -5 3 -13 -5 -17 -17 -3 -12 -21 -43 -40 -69 -18 -26 -30 -50 -27
-53 4 -3 -1 -6 -10 -6 -10 0 -14 -5 -11 -15 4 -8 2 -15 -4 -15 -5 0 -12 -9
-15 -21 -4 -13 -10 -18 -18 -13 -8 4 -10 3 -5 -4 4 -7 1 -12 -6 -12 -9 0 -9
-3 2 -10 13 -8 12 -10 -3 -10 -10 0 -15 -4 -12 -10 3 -5 1 -10 -5 -10 -6 0 -9
-4 -6 -8 3 -5 -4 -14 -14 -22 -10 -8 -17 -17 -14 -22 3 -4 0 -8 -6 -8 -6 0 -9
-4 -5 -9 3 -5 -4 -16 -15 -24 -11 -7 -17 -17 -13 -20 3 -4 1 -7 -5 -7 -6 0 -9
-7 -5 -17 4 -9 2 -14 -3 -11 -10 7 -27 -11 -32 -32 -2 -8 -8 -16 -13 -18 -5
-2 -9 -10 -9 -18 0 -8 -5 -14 -11 -14 -5 0 -8 -4 -5 -9 3 -5 -1 -12 -10 -15
-8 -3 -12 -10 -9 -16 3 -6 -1 -13 -9 -16 -9 -3 -14 -10 -11 -14 3 -4 -2 -10
-10 -14 -22 -8 -21 -96 1 -96 8 0 12 -4 9 -10 -3 -5 -1 -10 5 -10 6 0 8 -5 4
-11 -5 -8 1 -10 19 -5 14 3 29 2 32 -4 3 -5 0 -7 -8 -4 -8 3 -17 1 -20 -3 -3
-5 10 -10 29 -11 23 -2 33 1 29 8 -3 5 -1 10 4 10 6 0 11 -4 11 -10 0 -5 12
-10 26 -10 14 0 23 4 19 10 -3 6 -1 10 4 10 6 0 11 -4 11 -10 0 -5 7 -10 15
-10 8 0 15 6 15 13 0 9 3 8 9 -2 7 -11 9 -11 14 0 5 12 6 12 6 0 1 -11 4 -11
18 0 11 10 14 10 9 2 -4 -8 -1 -13 9 -13 9 0 13 5 10 10 -3 6 -1 10 4 10 6 0
11 -4 11 -10 0 -5 9 -10 21 -10 11 0 18 4 15 8 -3 5 1 9 9 9 8 0 12 -4 9 -9
-3 -4 2 -8 11 -8 9 0 14 4 11 8 -3 5 1 9 9 9 8 0 12 -4 9 -9 -3 -4 2 -8 11 -8
9 0 14 4 11 8 -3 5 1 9 9 9 8 0 12 -4 9 -9 -3 -4 2 -8 11 -8 9 0 13 5 10 11
-4 6 3 5 14 -3 18 -11 23 -11 31 2 6 10 10 11 10 3 0 -7 5 -13 11 -13 5 0 7 5
4 10 -3 6 -1 10 4 10 6 0 11 -4 11 -10 0 -5 7 -10 15 -10 8 0 15 6 15 13 0 9
3 8 9 -2 7 -11 9 -11 14 0 5 12 6 12 6 0 1 -11 4 -11 18 0 11 10 14 10 9 2 -4
-8 -1 -13 9 -13 9 0 13 5 10 10 -3 6 -1 10 4 10 6 0 11 -4 11 -10 0 -5 7 -10
15 -10 8 0 15 6 15 13 0 9 3 8 9 -2 7 -11 9 -11 14 0 5 12 6 12 6 0 1 -11 4
-11 18 0 11 10 14 10 9 2 -4 -8 -1 -13 9 -13 9 0 13 5 10 10 -3 6 -1 10 4 10
6 0 11 -4 11 -10 0 -5 9 -10 21 -10 11 0 18 4 15 8 -3 5 1 9 9 9 8 0 12 -4 9
-9 -3 -4 2 -8 11 -8 9 0 14 4 11 8 -3 5 1 9 9 9 8 0 12 -4 9 -9 -3 -4 2 -8 11
-8 9 0 14 4 11 8 -3 5 1 9 9 9 8 0 12 -4 9 -9 -3 -4 2 -8 11 -8 9 0 13 5 10
11 -4 6 3 5 14 -3 18 -11 23 -11 31 2 6 10 10 11 10 3 0 -7 5 -13 11 -13 5 0
7 5 4 10 -3 6 -1 10 4 10 6 0 11 -4 11 -10 0 -5 7 -10 15 -10 8 0 15 6 15 13
0 9 3 8 9 -2 7 -11 9 -11 14 0 5 12 6 12 6 0 1 -11 4 -11 18 0 11 10 14 10 9
2 -4 -8 -1 -13 9 -13 9 0 13 5 10 10 -3 6 -1 10 4 10 6 0 11 -4 11 -10 0 -5 7
-10 15 -10 8 0 15 6 15 13 0 9 3 8 9 -2 7 -11 9 -11 14 0 5 12 6 12 6 0 1 -11
4 -11 18 0 11 10 14 10 9 2 -4 -8 -1 -13 9 -13 9 0 13 5 10 10 -3 6 -1 10 4
10 6 0 11 -4 11 -10 0 -14 37 -12 43 3 4 9 6 9 6 0 1 -7 6 -13 12 -13 5 0 7 5
4 10 -3 6 -1 10 4 10 6 0 11 -4 11 -10 0 -5 7 -10 15 -10 8 0 15 6 15 13 0 9
3 8 9 -2 7 -11 9 -11 14 0 5 12 6 12 6 0 1 -11 4 -11 18 0 11 10 14 10 9 2 -4
-8 -1 -13 9 -13 9 0 13 5 10 10 -3 6 -1 10 4 10 6 0 11 -4 11 -10 0 -5 7 -10
15 -10 8 0 15 6 15 13 0 9 3 8 9 -2 7 -11 9 -11 14 0 5 12 6 12 6 0 1 -11 4
-11 18 0 11 10 14 10 9 2 -4 -8 -1 -13 9 -13 9 0 13 5 10 10 -3 6 -1 10 4 10
6 0 11 -4 11 -10 0 -5 9 -10 21 -10 11 0 18 4 15 8 -2 4 5 9 17 9 17 2 19 0 7
-8 -11 -7 -5 -9 22 -7 33 2 79 33 78 53 -1 3 5 12 13 19 15 15 11 80 -4 70 -5
-3 -9 -1 -9 4 0 5 -11 21 -25 36 -14 15 -25 24 -25 20 0 -4 -13 7 -28 24 -16
18 -32 32 -36 32 -4 0 -28 20 -53 45 -24 25 -50 42 -55 39 -6 -4 -9 -3 -6 2 3
5 0 14 -7 21 -10 9 -18 8 -34 -6 -11 -10 -17 -22 -13 -26 4 -5 2 -5 -4 -2 -6
3 -21 -3 -33 -14 -12 -12 -28 -18 -36 -15 -8 3 -14 0 -12 -7 1 -7 -6 -11 -15
-11 -10 1 -18 -2 -18 -7 0 -5 -7 -6 -15 -3 -9 4 -15 0 -15 -7 0 -11 -2 -11 -9
0 -5 8 -17 16 -25 17 -9 1 -14 -2 -11 -6 3 -5 -11 -7 -30 -5 -27 4 -34 2 -29
-7 6 -10 5 -10 -7 -1 -8 6 -27 10 -42 9 -15 -2 -30 1 -33 5 -3 5 -11 9 -17 9
-7 0 -6 -4 3 -10 11 -7 2 -9 -28 -5 -33 4 -41 2 -36 -8 6 -9 5 -9 -7 -1 -8 7
-25 11 -39 10 -14 -1 -31 3 -39 8 -11 8 -13 8 -8 0 4 -7 -2 -14 -13 -17 -11
-3 -22 -2 -25 3 -3 4 -28 7 -57 6 -29 -1 -61 2 -72 7 -13 6 -16 6 -12 -2 9
-14 0 -14 -26 0 -12 6 -18 7 -14 1 3 -5 -1 -12 -9 -16 -8 -3 -17 0 -21 5 -3 6
-17 8 -31 4 -16 -4 -22 -2 -18 5 10 17 -7 11 -22 -7 -8 -10 -12 -12 -8 -6 4 9
-3 12 -24 9 -17 -2 -33 -1 -36 2 -10 10 -35 11 -29 1 7 -12 -3 -11 -28 2 -15
8 -19 8 -14 0 4 -6 4 -11 -1 -12 -4 0 -15 -2 -24 -4 -20 -4 -59 25 -41 32 6 3
12 11 12 19 0 8 7 14 15 14 8 0 14 6 12 13 -1 6 4 11 12 9 12 -3 12 0 2 12
-10 11 -9 16 2 23 8 4 28 29 44 55 17 26 34 44 38 40 5 -4 5 -2 2 5 -4 6 -1
18 7 25 7 8 21 28 30 46 9 18 21 32 26 32 6 0 9 3 8 8 -2 12 16 51 27 54 5 2
8 9 7 17 -2 7 1 10 7 6 6 -3 11 -1 11 4 0 6 0 13 0 16 0 2 12 16 25 31 14 15
22 30 20 34 -3 4 2 10 10 14 8 3 15 12 15 21 0 8 7 15 16 15 8 0 12 4 9 10 -3
5 3 17 15 27 11 10 20 23 20 30 0 7 5 13 12 13 6 0 8 3 5 6 -4 4 6 23 22 43
28 35 31 41 31 61 0 6 7 10 16 10 8 0 12 5 9 10 -3 6 1 13 9 16 9 3 14 10 11
14 -3 4 2 11 11 14 8 3 12 10 9 16 -3 6 1 13 10 16 9 4 14 13 11 20 -3 9 1 14
12 14 12 0 10 4 -8 13 -20 11 -27 11 -39 0 -10 -11 -16 -11 -27 -2 -10 8 -14
8 -14 0 0 -6 -5 -11 -11 -11 -5 0 -8 4 -4 9 3 5 1 12 -5 16 -5 3 -10 1 -10 -5
0 -7 -7 -10 -15 -6 -8 3 -15 1 -15 -4 0 -6 -4 -10 -10 -10 -5 0 -7 7 -4 15 7
17 -1 20 -11 5z"/>
<path d="M930 409 c0 -5 5 -7 10 -4 6 3 10 8 10 11 0 2 -4 4 -10 4 -5 0 -10
-5 -10 -11z"/>
</g>
</svg>
