<svg width="101" height="31" fill="none" xmlns="http://www.w3.org/2000/svg">
    <path d="M63.04 8.622c-.513 0-.864-.351-.864-.819 0-.396.247-.715.639-.715a.56.56 0 01.58.558c0 .297-.207.522-.504.522a.492.492 0 01-.508-.41c0 .369.247.639.648.639.567 0 .814-.481 1.003-.99l.203-.544a.53.53 0 00.04-.19c0-.121-.072-.202-.283-.202h-.176L62.41 2.556h-.482v-.234h2.205v.234h-.553l1.11 3.114.666-1.768c.1-.261.149-.509.149-.72 0-.37-.153-.626-.46-.626h-.085v-.234h1.791v.234h-.04c-.41 0-.779.468-1.18 1.535l-1.268 3.366c-.212.553-.504 1.165-1.224 1.165zm-3.836-6.417c1.035 0 1.831.823 1.831 2.16 0 1.363-.832 2.223-1.89 2.223-.68 0-1.07-.356-1.21-.657a.936.936 0 00-.306.54H56.12v-.234h.68V.405h-.68V.171c.626 0 1.197-.023 1.814-.144v2.871c.126-.31.549-.693 1.269-.693zm.612 2.182c0-1.147-.374-1.836-1-1.836-.512 0-.81.468-.877.815-.027.144-.04.459-.04.81 0 .522.031 1.134.103 1.413.095.36.374.675.806.675.68 0 1.008-.792 1.008-1.877zm-8.429 1.121l.17.13a2.1 2.1 0 01-1.768.95c-1.201 0-2.223-.913-2.223-2.196 0-1.251.963-2.187 2.2-2.187 1.364 0 1.8 1.067 1.765 2.03h-2.745c0 1.192.342 2.034 1.31 2.034.589 0 1.003-.338 1.29-.761zm-2.592-1.507h1.53c.022-.797-.153-1.566-.72-1.566-.522 0-.774.634-.81 1.566zM46.37 5.814l.184.126c-.243.378-.59.648-1.166.648-.953 0-1.192-.765-1.192-1.548V2.556h-.616v-.234h.616v-.661c.36-.086.878-.423 1.134-.752v1.413h1.093v.234H45.33v3.029c0 .495.194.657.446.657.26 0 .463-.207.593-.428zM42.053.877c0 .32-.248.572-.572.572a.56.56 0 01-.567-.572c0-.315.243-.567.567-.567.324 0 .572.252.572.567zm-.01 5.36h.68v.234H40.23v-.234h.68V2.556h-.68v-.234c.626 0 1.202-.023 1.814-.144v4.059zM36.235.234c-.733 0-1.16.329-1.16.873 0 .585.49.864 1.768 1.395 1.25.522 2.101.981 2.101 2.169 0 1.22-.972 1.971-2.155 1.971-.734 0-1.305-.297-1.643-.648-.238.054-.472.306-.558.621h-.216l-.103-2.421.234-.009c.121 1.359 1.13 2.219 2.263 2.219.765 0 1.31-.423 1.31-1.085 0-.742-.558-1.013-1.832-1.503-1.093-.418-1.894-.931-1.894-2.011C34.35.752 35.137 0 36.28 0c.662 0 1.143.261 1.517.599.279-.054.486-.32.558-.599h.211l.081 2.353-.225.01c-.126-1.13-.931-2.129-2.187-2.129z" fill="white" fill-opacity=".6"/>
    <g clip-path="url(#clip0_11_374)">
        <path d="M72.334 28.963v.16H71.16a.5.5 0 00-.23-.348 1.046 1.046 0 01-.874.432c-.697 0-1.265-.592-1.265-1.56 0-.97.526-1.492 1.25-1.492a.92.92 0 01.896.467v-1.721h-.439v-.16c.467.007.933-.027 1.394-.102v4.324h.442zm-1.93-2.522c-.348 0-.592.348-.592 1.24 0 .819.191 1.272.578 1.272a.523.523 0 00.495-.4 5.13 5.13 0 00.077-1.011 5.392 5.392 0 00-.028-.603.579.579 0 00-.53-.498zm3.92 2.522v.16h-1.83v-.16h.44V26.4h-.44v-.164c.467.008.934-.026 1.394-.1v2.828h.436zm-.906-3.285a.45.45 0 11.45-.453.442.442 0 01-.45.453zm4.258 3.78c0 .697-.697 1.164-1.718 1.164-.92 0-1.435-.3-1.435-.721 0-.268.205-.415.477-.481a.696.696 0 01-.415-.645.752.752 0 01.617-.717.958.958 0 01-.467-.826c0-.561.467-1.077 1.349-1.077.286-.006.57.057.825.185a.505.505 0 00.502-.544.348.348 0 01-.376.303.38.38 0 01-.394-.386.42.42 0 01.44-.412.515.515 0 01.49.548.62.62 0 01-.48.606.944.944 0 01.386.76c0 .567-.487 1.069-1.369 1.069-.246.006-.49-.04-.718-.132-.268.055-.46.16-.46.348 0 .188.112.206.404.206.224 0 1.021-.039 1.28-.039.602-.01 1.062.255 1.062.791zm-.484.349c0-.22-.185-.303-.429-.303-.16 0-.868.03-1.105.03a2.033 2.033 0 01-.348-.027.349.349 0 00-.3.383c0 .349.297.572.962.572.767.01 1.22-.286 1.22-.645v-.01zm-1.513-2.596c0 .61.115.902.418.902.304 0 .415-.292.415-.902 0-.61-.115-.906-.415-.906s-.418.3-.418.916v-.01zm4.018 1.752v.16h-1.843v-.16h.442V26.4h-.442v-.164c.466.008.933-.026 1.393-.1v2.828h.45zm-.91-3.285a.45.45 0 110-.9.45.45 0 010 .9zm3.115 3.045a1 1 0 01-.895.484c-.697 0-.913-.55-.913-1.17v-1.638h-.397v-.164h.397v-.45a2.09 2.09 0 00.958-.56v1h.739v.164h-.739v2.09c0 .349.13.443.303.443a.53.53 0 00.422-.3l.125.101zm3.485.105a.978.978 0 01-.802.38.634.634 0 01-.697-.467 1.01 1.01 0 01-.898.466.766.766 0 01-.85-.752c0-.481.327-.59.933-.697.328-.066.822-.185.822-.742a.644.644 0 00-.731-.67c-.432 0-.697.23-.715.523a.39.39 0 01.764.13.419.419 0 01-.436.42.473.473 0 01-.474-.515c0-.47.429-.738 1.133-.738.929 0 1.393.464 1.393 1.393v1.154c0 .122.042.18.143.18a.37.37 0 00.293-.19l.122.125zm-2.22-.952a1.16 1.16 0 00-.076.457c0 .373.156.547.348.547.254 0 .408-.275.432-.394v-.993a1.046 1.046 0 01-.704.383zm4.157 1.087v.16h-1.84v-.16h.443v-4.062h-.443v-.16c.467.007.933-.026 1.394-.102v4.324h.446z" fill="#00B5E2"/>
        <path d="M13.53 7.186v14.098h2.17v.565H9.188v-.565h2.122V14.43H4.415v6.854h2.122v.565H.02v-.565h2.174V7.186H.021v-.564h6.516v.564H4.415v6.68h6.895v-6.68H9.188v-.564H15.7v.564h-2.17zm11.78 12.781a4.765 4.765 0 01-3.948 2.164c-2.568 0-4.965-2.154-4.965-5.307 0-3.077 2.293-5.275 4.927-5.275 2.707 0 3.902 2.198 3.902 4.53v.39H18.45c-.056 3.184 1.083 4.99 3.292 4.99a3.777 3.777 0 003.157-1.806l.411.314zM23.146 15.9c.077-1.927-.543-3.798-2.143-3.798-1.533 0-2.393 1.665-2.522 3.798h4.665zm15.098 5.384v.565h-5.307v-.565h1.63v-6.787c0-1.523-.65-2.154-1.609-2.154-1.881 0-2.742 2.467-2.742 3.742v5.199h1.655v.565H26.52v-.565h1.805v-8.899H26.52v-.564a16.183 16.183 0 003.676-.32v2.598c.446-1.174 1.394-2.533 3.307-2.533s2.947 1.262 2.947 3.579v6.139h1.795zm12.401 0v.565h-5.307v-.565h1.63v-6.787c0-1.523-.651-2.154-1.61-2.154-1.88 0-2.741 2.467-2.741 3.742v5.199h1.655v.565H38.92v-.565h1.805v-8.899H38.92v-.564a16.183 16.183 0 003.676-.349v2.6c.446-1.175 1.394-2.534 3.306-2.534 1.913 0 2.948 1.262 2.948 3.579v6.167h1.795zm9.561-1.317a4.765 4.765 0 01-3.948 2.164c-2.565 0-4.969-2.154-4.969-5.307 0-3.077 2.293-5.275 4.927-5.275 2.707 0 3.902 2.198 3.902 4.53v.39h-6.787c-.056 3.188 1.087 4.993 3.296 4.993a3.778 3.778 0 003.154-1.805l.425.31zM58.041 15.9c.076-1.927-.544-3.798-2.143-3.798-1.533 0-2.39 1.665-2.523 3.798h4.666zm7.137-3.808c-1.14 0-1.913.641-1.913 1.513 0 1.087 1.122 1.564 2.805 2.143 1.683.578 3.306 1.184 3.306 3.188 0 1.913-1.446 3.195-3.338 3.195a3.965 3.965 0 01-2.787-1.154 1.422 1.422 0 00-.739 1.025h-.435l-.195-3.579.533-.034c.247 1.414 1.512 3.198 3.533 3.198 1.306 0 2.164-.697 2.164-1.794 0-1.216-1.046-1.61-2.847-2.22-1.938-.662-3.136-1.533-3.136-3.22 0-1.846 1.435-2.787 3.014-2.787a3.508 3.508 0 012.439.958 1.22 1.22 0 00.753-.958h.425l.17 3.404-.53.021a3.359 3.359 0 00-3.222-2.899zm9.181 0c-1.14 0-1.913.641-1.913 1.513 0 1.087 1.118 1.564 2.787 2.143 1.67.578 3.307 1.184 3.307 3.188 0 1.913-1.446 3.195-3.338 3.195a3.965 3.965 0 01-2.787-1.154 1.422 1.422 0 00-.74 1.025h-.435l-.195-3.579.533-.034c.248 1.414 1.51 3.198 3.534 3.198 1.306 0 2.163-.697 2.163-1.794 0-1.216-1.045-1.61-2.85-2.22-1.934-.662-3.136-1.533-3.136-3.22 0-1.846 1.436-2.787 3.014-2.787a3.509 3.509 0 012.44.958 1.22 1.22 0 00.752-.958h.421l.175 3.404-.533.021a3.356 3.356 0 00-3.2-2.899zm14.651 7.875a4.765 4.765 0 01-3.947 2.164c-2.565 0-4.969-2.154-4.969-5.307 0-3.077 2.293-5.275 4.927-5.275 2.707 0 3.902 2.198 3.902 4.53v.39H82.15c-.056 3.188 1.087 4.993 3.292 4.993a3.777 3.777 0 003.157-1.805l.411.31zM86.847 15.9c.076-1.927-.544-3.798-2.143-3.798-1.533 0-2.394 1.665-2.523 3.798h4.666zm10.063-4.08v.565h.195c.738 0 1.121.446 1.121 1.286a5.775 5.775 0 01-.425 1.902l-1.805 4.84-2.808-8.014h1.502v-.578h-4.795v.564h1.338l3.338 9.464.425 1.24-1.247 3.345c-.446 1.184-.99 2.348-2.296 2.348a1.331 1.331 0 01-1.446-1.393.999.999 0 01.038-.234.76.76 0 11.513.923c.134.06.28.091.428.091a.973.973 0 001-1.01 1.135 1.135 0 00-1.195-1.119c-.784 0-1.296.652-1.296 1.477 0 1.01.784 1.805 1.968 1.805 1.61 0 2.318-1.358 2.85-2.787l3.913-10.505c1.14-3.056 1.718-3.655 2.687-3.655H101v-.554h-4.09z" fill="white"/>
    </g>
    <defs>
        <clipPath id="clip0_11_374">
            <path fill="white" transform="translate(.02 6.622)" d="M0 0h100.98v24H0z"/>
        </clipPath>
    </defs>
</svg>
