<svg data-name="Layer 1" xmlns="http://www.w3.org/2000/svg" viewBox="0 0 289.81 68.88">
    <path class="cls-1" d="M207.54 64.12v.46h-3.37a1.44 1.44 0 00-.66-1 3 3 0 01-2.51 1.24c-2 0-3.63-1.7-3.63-4.48s1.51-4.28 3.59-4.28a2.64 2.64 0 012.57 1.34v-4.94h-1.26V52a22.64 22.64 0 004-.29v12.41zM202 56.88c-1 0-1.7 1-1.7 3.56 0 2.35.55 3.65 1.66 3.65a1.5 1.5 0 001.42-1.15 14.71 14.71 0 00.22-2.9 15.42 15.42 0 00-.08-1.73 1.66 1.66 0 00-1.52-1.43zM213.25 64.12v.46H208v-.46h1.26v-7.36H208v-.47a22.67 22.67 0 004-.29v8.12zm-2.6-9.43a1.29 1.29 0 111.29-1.3 1.27 1.27 0 01-1.29 1.3zM222.87 65.54c0 2-2 3.34-4.93 3.34-2.64 0-4.12-.86-4.12-2.07 0-.77.59-1.19 1.37-1.38a2 2 0 01-1.19-1.85 2.16 2.16 0 011.77-2.06 2.75 2.75 0 01-1.34-2.37c0-1.61 1.34-3.09 3.87-3.09a5.06 5.06 0 012.37.53 1.45 1.45 0 001.44-1.41.76.76 0 000-.15 1 1 0 01-1.08.87 1.09 1.09 0 01-1.13-1.11 1.21 1.21 0 011.26-1.18 1.48 1.48 0 011.41 1.57 1.78 1.78 0 01-1.38 1.74 2.71 2.71 0 011.11 2.18c0 1.63-1.4 3.07-3.93 3.07a5.15 5.15 0 01-2.06-.38c-.77.16-1.32.46-1.32 1s.32.59 1.16.59c.64 0 2.93-.11 3.67-.11 1.73-.03 3.05.73 3.05 2.27zm-1.39 1c0-.63-.53-.87-1.23-.87-.46 0-2.49.09-3.17.09a6.18 6.18 0 01-1-.08 1 1 0 00-.86 1.1c0 1 .85 1.64 2.76 1.64 2.2.03 3.5-.82 3.5-1.85zm-4.34-7.45c0 1.75.33 2.59 1.2 2.59s1.19-.84 1.19-2.59-.33-2.6-1.19-2.6-1.2.86-1.2 2.63zM228.67 64.12v.46h-5.29v-.46h1.27v-7.36h-1.27v-.47a22.6 22.6 0 004-.29v8.12zm-2.61-9.43a1.29 1.29 0 110-2.58 1.29 1.29 0 110 2.58zM235 63.43a2.87 2.87 0 01-2.57 1.39c-2 0-2.62-1.58-2.62-3.36v-4.7h-1.14v-.47h1.14V55a6 6 0 002.75-1.61v2.87h2.12v.47h-2.12v6c0 1 .37 1.27.87 1.27a1.52 1.52 0 001.21-.86zM245 63.73a2.81 2.81 0 01-2.3 1.09 1.82 1.82 0 01-2-1.34 2.9 2.9 0 01-2.58 1.34 2.2 2.2 0 01-2.44-2.16c0-1.38.94-1.69 2.68-2 .94-.19 2.36-.53 2.36-2.13a1.85 1.85 0 00-2.1-1.92c-1.24 0-2 .66-2.05 1.5a1.12 1.12 0 012.19.37 1.2 1.2 0 01-1.25 1.21 1.36 1.36 0 01-1.36-1.48c0-1.35 1.23-2.12 3.25-2.12q4 0 4 4v3.31c0 .35.12.52.41.52a1.06 1.06 0 00.84-.55zM238.63 61a3.33 3.33 0 00-.22 1.31c0 1.07.45 1.57 1 1.57.73 0 1.17-.79 1.24-1.13V59.9a3 3 0 01-2.02 1.1zM250.56 64.12v.46h-5.28v-.46h1.27V52.46h-1.27V52a22.53 22.53 0 004-.29v12.41zM38.77 1.62v40.46H45v1.62H26.31v-1.62h6.09V22.41H12.61v19.67h6.09v1.62H0v-1.62h6.24V1.62H0V0h18.7v1.62h-6.09v19.17H32.4V1.62h-6.09V0H45v1.62zM72.58 38.3a13.68 13.68 0 01-11.33 6.21C53.88 44.51 47 38.33 47 29.28c0-8.83 6.58-15.14 14.14-15.14 7.77 0 11.2 6.31 11.2 13v1.12H52.89c-.16 9.14 3.11 14.32 9.45 14.32a10.84 10.84 0 009.06-5.18zm-6.21-11.67c.22-5.53-1.56-10.9-6.15-10.9-4.4 0-6.87 4.78-7.24 10.9zM109.7 42.08v1.62H94.47v-1.62h4.68V22.6c0-4.37-1.87-6.18-4.62-6.18-5.4 0-7.87 7.08-7.87 10.74v14.92h4.75v1.62H76.05v-1.62h5.18V16.54h-5.18v-1.62A46.45 46.45 0 0086.6 14v7.46c1.28-3.37 4-7.27 9.49-7.27s8.46 3.62 8.46 10.27v17.62zM145.29 42.08v1.62h-15.23v-1.62h4.68V22.6c0-4.37-1.87-6.18-4.62-6.18-5.4 0-7.87 7.08-7.87 10.74v14.92H127v1.62h-15.36v-1.62h5.18V16.54h-5.18v-1.62a46.45 46.45 0 0010.55-1v7.46c1.28-3.37 4-7.27 9.49-7.27s8.46 3.62 8.46 10.27v17.7zM172.73 38.3a13.68 13.68 0 01-11.33 6.21c-7.36 0-14.26-6.18-14.26-15.23 0-8.83 6.58-15.14 14.14-15.14 7.77 0 11.2 6.31 11.2 13v1.12H153c-.16 9.15 3.12 14.33 9.46 14.33a10.84 10.84 0 009.05-5.18zm-6.21-11.67c.22-5.53-1.56-10.9-6.15-10.9-4.4 0-6.86 4.78-7.24 10.9zM187 15.7c-3.27 0-5.49 1.84-5.49 4.34 0 3.12 3.22 4.49 8.05 6.15s9.49 3.4 9.49 9.15c0 5.49-4.15 9.17-9.58 9.17a11.38 11.38 0 01-8-3.31 4.08 4.08 0 00-2.12 2.94h-1.25l-.56-10.27 1.53-.1c.71 4.06 4.34 9.18 10.14 9.18 3.75 0 6.21-2 6.21-5.15 0-3.49-3-4.62-8.17-6.37-5.56-1.9-9-4.4-9-9.24 0-5.3 4.12-8 8.65-8a10.07 10.07 0 017 2.75 3.5 3.5 0 002.16-2.75h1.22l.49 9.77-1.52.06A9.64 9.64 0 00187 15.7zM213.35 15.7c-3.27 0-5.49 1.84-5.49 4.34 0 3.12 3.21 4.49 8 6.15s9.49 3.4 9.49 9.15c0 5.49-4.15 9.17-9.58 9.17a11.38 11.38 0 01-8-3.31 4.08 4.08 0 00-2.12 2.94h-1.25l-.56-10.27 1.53-.1c.71 4.06 4.33 9.18 10.14 9.18 3.75 0 6.21-2 6.21-5.15 0-3.49-3-4.62-8.18-6.37-5.55-1.9-9-4.4-9-9.24 0-5.3 4.12-8 8.65-8a10.07 10.07 0 017 2.75 3.5 3.5 0 002.16-2.75h1.21l.5 9.77-1.53.06a9.63 9.63 0 00-9.18-8.32zM255.4 38.3a13.68 13.68 0 01-11.33 6.21c-7.36 0-14.26-6.18-14.26-15.23 0-8.83 6.58-15.14 14.14-15.14 7.77 0 11.2 6.31 11.2 13v1.12h-19.44c-.16 9.15 3.12 14.33 9.45 14.33a10.84 10.84 0 009.06-5.18zm-6.21-11.67c.22-5.53-1.56-10.9-6.15-10.9-4.4 0-6.87 4.78-7.24 10.9zM278.07 14.92v1.62h.56c2.12 0 3.22 1.28 3.22 3.69a16.57 16.57 0 01-1.22 5.46l-5.18 13.89-8.06-23h4.31v-1.66h-13.76v1.62h3.84l9.58 27.16 1.22 3.56-3.58 9.6c-1.28 3.4-2.84 6.74-6.59 6.74a3.82 3.82 0 01-4.15-4 2.87 2.87 0 01.11-.67 2.18 2.18 0 111.47 2.65 3 3 0 001.23.26 2.79 2.79 0 002.87-2.9 3.26 3.26 0 00-3.43-3.21c-2.25 0-3.72 1.87-3.72 4.24 0 2.9 2.25 5.18 5.65 5.18 4.62 0 6.65-3.9 8.18-8L281.85 27c3.27-8.77 4.93-10.49 7.71-10.49h.25v-1.59z"/>
</svg>
