<svg width="51" height="39" viewBox="0 0 51 39" fill="none" xmlns="http://www.w3.org/2000/svg">
<path d="M39.4085 15.5531C39.9754 15.5531 40.5195 15.6417 41.0611 15.7224C40.8856 15.118 40.7051 14.5032 40.4153 13.9509C40.1254 13.1485 39.6729 12.4529 39.2229 11.7521C38.8466 10.994 38.183 10.4808 37.6949 9.83206C37.1838 9.2016 36.4872 8.78216 35.9355 8.25852C35.394 7.71142 34.6846 7.43787 34.1202 7.0523C33.5304 6.70581 33.0168 6.32285 32.4676 6.14048L31.0973 5.56212L29.8921 5.0489L31.1252 0L32.6431 0.375149C33.1287 0.500199 33.7211 0.646091 34.3948 0.82064C35.0838 0.950901 35.8186 1.30782 36.6372 1.63347C37.4457 2.00341 38.3813 2.25351 39.2508 2.84749C40.1254 3.41543 41.1348 3.88958 42.0246 4.6503C42.8865 5.43447 43.9264 6.11443 44.6942 7.11222C45.5332 8.04489 46.362 9.02445 47.0053 10.1395C47.7502 11.2024 48.2561 12.3695 48.79 13.5236C49.2731 14.6778 49.6621 15.8579 49.9799 17.0042C50.5825 19.302 50.852 21.4852 50.9562 23.3531C51.0426 25.2236 50.9918 26.779 50.885 27.9044C50.8469 28.4359 50.7757 28.9517 50.7248 29.3086L50.6613 29.7463L50.5952 29.7307C50.143 31.8951 49.102 33.8842 47.5927 35.4678C46.0833 37.0514 44.1673 38.1647 42.0662 38.6791C39.9652 39.1935 37.7649 39.0878 35.72 38.3743C33.6751 37.6608 31.8691 36.3687 30.511 34.6474C29.1528 32.9261 28.2979 30.846 28.0453 28.6477C27.7926 26.4493 28.1525 24.2226 29.0833 22.2251C30.0141 20.2276 31.4778 18.5409 33.305 17.3602C35.1322 16.1795 37.2483 15.553 39.4085 15.5531ZM11.4417 15.5531C12.0087 15.5531 12.5528 15.6417 13.0943 15.7224C12.9189 15.118 12.7384 14.5032 12.4485 13.9509C12.1587 13.1485 11.7061 12.4529 11.2561 11.7521C10.8798 10.994 10.2163 10.4808 9.72812 9.83206C9.21709 9.2016 8.52047 8.78216 7.96876 8.25852C7.42722 7.71142 6.71788 7.43787 6.15346 7.0523C5.56362 6.70581 5.05005 6.32285 4.50088 6.14048L3.13051 5.56212L1.9254 5.0489L3.15847 0L4.67631 0.375149C5.16191 0.500199 5.7543 0.646091 6.42804 0.82064C7.11704 0.950901 7.8518 1.30782 8.67047 1.63347C9.47642 2.00601 10.4146 2.25351 11.2841 2.8501C12.1587 3.41804 13.168 3.89218 14.0579 4.6529C14.9198 5.43707 15.9596 6.11703 16.7274 7.11222C17.5664 8.04489 18.3953 9.02445 19.0385 10.1395C19.7834 11.2024 20.2894 12.3695 20.8233 13.5236C21.3064 14.6778 21.6953 15.8579 22.0132 17.0042C22.6157 19.302 22.8852 21.4852 22.9894 23.3531C23.0759 25.2236 23.025 26.779 22.9183 27.9044C22.8801 28.4359 22.8089 28.9517 22.7581 29.3086L22.6945 29.7463L22.6284 29.7307C22.1762 31.8951 21.1352 33.8842 19.6259 35.4678C18.1166 37.0514 16.2005 38.1647 14.0995 38.6791C11.9984 39.1935 9.79817 39.0878 7.75327 38.3743C5.70837 37.6608 3.90238 36.3687 2.5442 34.6474C1.18603 32.9261 0.33117 30.846 0.0785255 28.6477C-0.174119 26.4493 0.185774 24.2226 1.11657 22.2251C2.04736 20.2276 3.51101 18.5409 5.33822 17.3602C7.16543 16.1795 9.28153 15.553 11.4417 15.5531Z" fill="#EEEFFF"/>
</svg>
