<svg width="51" height="39" viewBox="0 0 51 39" fill="none" xmlns="http://www.w3.org/2000/svg">
<path d="M11.5915 15.5531C11.0246 15.5531 10.4805 15.6417 9.93895 15.7224C10.1144 15.118 10.2949 14.5032 10.5847 13.9509C10.8746 13.1485 11.3271 12.4529 11.7771 11.7521C12.1534 10.994 12.817 10.4808 13.3051 9.83206C13.8162 9.2016 14.5128 8.78216 15.0645 8.25852C15.606 7.71142 16.3154 7.43787 16.8798 7.0523C17.4696 6.70581 17.9832 6.32284 18.5324 6.14048L19.9027 5.56212L21.1079 5.0489L19.8748 0L18.3569 0.375149C17.8713 0.500199 17.2789 0.646091 16.6052 0.82064C15.9162 0.950901 15.1814 1.30782 14.3628 1.63347C13.5543 2.00341 12.6187 2.25351 11.7492 2.84749C10.8746 3.41543 9.86522 3.88958 8.97536 4.6503C8.11348 5.43447 7.07362 6.11443 6.30581 7.11222C5.46681 8.04489 4.63797 9.02445 3.99474 10.1395C3.24981 11.2024 2.74386 12.3695 2.20995 13.5236C1.72689 14.6778 1.3379 15.8579 1.02009 17.0042C0.417537 19.302 0.148039 21.4852 0.0437991 23.3531C-0.0426436 25.2236 0.00820507 26.779 0.114987 27.9044C0.153124 28.4359 0.224312 28.9517 0.275161 29.3086L0.338721 29.7463L0.404824 29.7307C0.857024 31.8951 1.898 33.8842 3.40734 35.4678C4.91668 37.0514 6.83271 38.1647 8.93377 38.6791C11.0348 39.1935 13.2351 39.0878 15.28 38.3743C17.3249 37.6608 19.1309 36.3687 20.489 34.6474C21.8472 32.9261 22.7021 30.846 22.9547 28.6477C23.2074 26.4493 22.8475 24.2226 21.9167 22.2251C20.9859 20.2276 19.5222 18.5409 17.695 17.3602C15.8678 16.1795 13.7517 15.553 11.5915 15.5531ZM39.5583 15.5531C38.9913 15.5531 38.4472 15.6417 37.9057 15.7224C38.0811 15.118 38.2616 14.5032 38.5515 13.9509C38.8413 13.1485 39.2939 12.4529 39.7439 11.7521C40.1202 10.994 40.7837 10.4808 41.2719 9.83206C41.7829 9.2016 42.4795 8.78216 43.0312 8.25852C43.5728 7.71142 44.2821 7.43787 44.8465 7.0523C45.4364 6.70581 45.95 6.32284 46.4991 6.14048L47.8695 5.56212L49.0746 5.0489L47.8415 0L46.3237 0.375149C45.8381 0.500199 45.2457 0.646091 44.572 0.82064C43.883 0.950901 43.1482 1.30782 42.3295 1.63347C41.5236 2.00601 40.5854 2.25351 39.7159 2.8501C38.8413 3.41804 37.832 3.89218 36.9421 4.6529C36.0802 5.43707 35.0404 6.11703 34.2726 7.11222C33.4336 8.04489 32.6047 9.02445 31.9615 10.1395C31.2166 11.2024 30.7106 12.3695 30.1767 13.5236C29.6936 14.6778 29.3047 15.8579 28.9868 17.0042C28.3843 19.302 28.1148 21.4852 28.0106 23.3531C27.9241 25.2236 27.975 26.779 28.0817 27.9044C28.1199 28.4359 28.1911 28.9517 28.2419 29.3086L28.3055 29.7463L28.3716 29.7307C28.8238 31.8951 29.8648 33.8842 31.3741 35.4678C32.8834 37.0514 34.7995 38.1647 36.9005 38.6791C39.0016 39.1935 41.2018 39.0878 43.2467 38.3743C45.2916 37.6608 47.0976 36.3687 48.4558 34.6474C49.814 32.9261 50.6688 30.846 50.9215 28.6477C51.1741 26.4493 50.8142 24.2226 49.8834 22.2251C48.9526 20.2276 47.489 18.5409 45.6618 17.3602C43.8346 16.1795 41.7185 15.553 39.5583 15.5531Z" fill="#EEEFFF"/>
</svg>
