<svg xmlns="http://www.w3.org/2000/svg" width="41" height="34">
    <path fill-rule="evenodd" fill="rgb(32, 85, 127)" d="M13.925 30.888c1.49-1.656 2.221-3.559 2.221-5.712 0-1.986-.646-3.78-1.939-5.352-1.293-1.601-2.84-2.373-4.695-2.373.394-2.677 1.35-4.884 2.839-6.65 1.49-1.766 3.43-3.476 5.819-5.187L15.134.344C11.115 2.441 7.685 5.807 4.846 10.387 2.035 14.967.602 19.548.602 24.073c0 2.787.787 5.022 2.304 6.732 1.547 1.683 3.374 2.539 5.454 2.539 2.22 0 4.076-.828 5.565-2.456zm22.516 0c1.546-1.656 2.305-3.559 2.305-5.712 0-1.986-.646-3.78-1.939-5.352-1.293-1.601-2.867-2.373-4.695-2.373.394-2.677 1.35-4.884 2.811-6.65 1.49-1.766 3.374-3.476 5.679-5.187L37.734.344c-4.104 2.097-7.589 5.463-10.428 10.043-2.811 4.58-4.245 9.161-4.245 13.686 0 2.787.787 5.022 2.305 6.732 1.518 1.683 3.345 2.539 5.453 2.539 2.221 0 4.104-.828 5.622-2.456z"/>
</svg>
