<svg style="width: 100%; height: auto; display: block;" viewBox="0 0 1440 147" fill="none" xmlns="http://www.w3.org/2000/svg" preserveAspectRatio="none">
<rect x="0" y="0" width="1440" height="147" fill="#fbf6f0"/>
<rect width="1440" height="97.2622" transform="matrix(-1 0 0 1 1440 49.4814)" fill="#fbf6f0"/>
<path d="M1440 0.935059V132.698C1440 132.698 1387.34 106.966 1380.01 103.342C1276.61 52.1746 1162.52 29.6776 1047.35 32.2481C946.548 34.4999 847.668 54.0176 748.857 72.1219C648.274 90.5518 548.3 114.913 446.394 124.238C344.315 133.578 241.134 130.855 139.685 116.16C92.9736 109.397 46.0886 100.383 0 91.5911V0.935059H1440Z" fill="#24418F"/>
<mask id="mask0_4175_4125" style="mask-type:alpha" maskUnits="userSpaceOnUse" x="0" y="0" width="1440" height="147">
<rect y="0.180176" width="1440" height="146.564" fill="#24418F"/>
</mask>
<g mask="url(#mask0_4175_4125)">
<path d="M1109.03 508.473L1104.34 512.272C1194.09 510.705 1270.49 496.779 1332.46 474.671C1216.73 505.376 1109.03 508.473 1109.03 508.473ZM-32.8469 77.9949C-32.9652 77.9268 -33.0595 77.8666 -33.1779 77.7985C-33.1804 77.8347 -33.0738 77.8952 -32.8469 77.9949ZM281.183 114.101C129.738 124.167 -24.8287 81.4715 -32.8469 77.9949C165.509 196.524 593.914 119.413 781.781 66.0913C541.821 85.436 436.363 103.784 281.183 114.101ZM803.506 60.2206C796.65 62.3083 789.468 63.9078 781.781 66.0913C831.009 62.1233 885.796 58.6324 947.944 54.5857C1584.65 13.1254 1659.65 357.954 1332.46 474.671C1464.32 439.681 1606.62 368.837 1611.88 225.866C1617.48 73.7518 1443.86 10.56 1234 5.48144C1073.51 1.59763 879.058 37.18 803.506 60.2206Z" fill="#00589F"/>
</g>
</svg>