<svg style="width: 100%; height: auto;" viewBox="0 0 1440 189" fill="none" xmlns="http://www.w3.org/2000/svg">
<mask id="mask0_4175_4077" style="mask-type:alpha" maskUnits="userSpaceOnUse" x="0" y="-1" width="1440" height="190">
<rect y="-0.00927734" width="1440" height="188.313" fill="#EBF6FF"/>
</mask>
<g mask="url(#mask0_4175_4077)">
<path d="M1109.03 541.033L1104.34 544.832C1194.09 543.265 1270.49 529.339 1332.46 507.231C1216.73 537.936 1109.03 541.033 1109.03 541.033ZM-32.8468 110.555C-32.9652 110.487 -33.0595 110.426 -33.1778 110.358C-33.1803 110.395 -33.0738 110.455 -32.8468 110.555ZM281.183 146.661C129.738 156.727 -24.8287 114.031 -32.8468 110.555C165.509 229.084 593.818 152.516 781.685 99.1943C541.725 118.539 436.364 136.344 281.183 146.661ZM803.506 92.7805C796.65 94.8682 789.372 97.0109 781.685 99.1943C830.913 95.2263 885.796 91.1923 947.944 87.1456C1584.65 45.6853 1659.65 390.514 1332.46 507.231C1464.32 472.241 1606.62 401.397 1611.88 258.426C1617.48 106.312 1413.14 56.3245 1203.28 51.2459C1042.79 47.3621 879.058 69.7399 803.506 92.7805Z" fill="#FBF6F0"/>
</g>
</svg>
