<svg style="width: 100%; height: auto;" viewBox="0 0 1440 138" fill="none" xmlns="http://www.w3.org/2000/svg">
<path d="M1139.14 490.419L1134.45 494.218C1224.19 492.651 1300.6 478.725 1362.57 456.616C1246.84 487.322 1139.14 490.419 1139.14 490.419ZM-2.73794 59.9407C-2.85629 59.8726 -2.95058 59.8124 -3.06894 59.7443C-3.07146 59.7805 -2.96489 59.841 -2.73794 59.9407ZM311.292 96.0466C159.847 106.113 5.2802 63.4173 -2.73794 59.9407C195.618 178.47 623.927 101.902 811.794 48.5802C571.834 67.9249 466.472 85.7298 311.292 96.0466ZM833.615 42.1664C826.759 44.2541 819.481 46.3967 811.794 48.5802C861.022 44.6122 915.905 40.5782 978.052 36.5315C1614.76 -4.92883 1689.76 339.9 1362.57 456.616C1494.43 421.627 1636.73 350.783 1641.99 207.812C1647.59 55.6976 1443.25 5.71039 1233.39 0.631806C1072.9 -3.252 909.167 19.1258 833.615 42.1664Z" fill="#FBF6F0"/>
</svg>
