<svg style="width: 100%; height: auto;" viewBox="0 0 1440 189" fill="none" xmlns="http://www.w3.org/2000/svg">
<mask id="mask0_4175_4126" style="mask-type:alpha" maskUnits="userSpaceOnUse" x="0" y="0" width="1440" height="189">
<rect width="1440" height="188.313" transform="matrix(-1 0 0 1 1440 0.369629)" fill="#EBF6FF"/>
</mask>
<g mask="url(#mask0_4175_4126)">
<path d="M330.966 550.412L335.663 554.211C245.914 552.644 169.509 538.718 107.54 516.61C223.27 547.315 330.966 550.412 330.966 550.412ZM1472.85 119.934C1472.97 119.866 1473.06 119.806 1473.18 119.737C1473.18 119.774 1473.07 119.834 1472.85 119.934ZM1158.82 156.04C1310.26 166.106 1464.83 123.41 1472.85 119.934C1274.49 238.463 846.182 161.895 658.315 108.573C898.275 127.918 1003.64 145.723 1158.82 156.04ZM636.494 102.16C643.35 104.247 650.628 106.39 658.315 108.573C609.087 104.605 554.204 100.571 492.056 96.5247C-144.646 55.0643 -219.653 399.893 107.54 516.61C-24.3224 481.62 -166.618 410.776 -171.878 267.805C-177.481 115.691 -3.86344 52.499 206 47.4204C366.492 43.5366 560.942 79.1189 636.494 102.16Z" fill="#F0CC12"/>
</g>
</svg>
