<svg class="m-0 p-0" style="width: 100%; height: auto; display: block; vertical-align: top;" viewBox="0 0 1440 148" fill="none" xmlns="http://www.w3.org/2000/svg" preserveAspectRatio="xMidYMid slice">
<rect x="0" y="0" width="1440" height="148" fill="#fbf6f0"/>
<rect y="49.918" width="1440" height="97.2622" fill="#24418F"/>
<g clip-path="url(#clip0_4175_4097)">
<path d="M0 18.1348V133.135C0 133.135 52.66 107.402 59.986 103.779C163.395 52.6112 277.481 30.1142 392.647 32.6847C493.452 34.9365 592.332 54.4542 691.143 72.5585C791.726 90.9884 891.7 115.349 993.606 124.675C1095.69 134.015 1198.87 131.292 1300.31 116.596C1347.03 109.834 1393.91 100.82 1440 92.0277V18.1348H0Z" fill="#fbf6f0"/>
</g>
<mask id="mask0_4175_4097" style="mask-type:alpha" maskUnits="userSpaceOnUse" x="0" y="0" width="1440" height="148">
<rect width="1440" height="146.564" transform="matrix(-1 0 0 1 1440 0.616699)" fill="#EBF6FF"/>
</mask>
<g mask="url(#mask0_4175_4097)">
<path d="M330.966 508.91L335.663 512.709C245.914 511.142 169.509 497.216 107.54 475.107C223.27 505.813 330.966 508.91 330.966 508.91ZM1472.85 78.4314C1472.97 78.3633 1473.06 78.3031 1473.18 78.235C1473.18 78.2712 1473.07 78.3317 1472.85 78.4314ZM1158.82 114.537C1310.26 124.604 1464.83 81.908 1472.85 78.4314C1274.49 196.961 846.182 120.393 658.315 67.0709C898.275 86.4156 1003.64 104.22 1158.82 114.537ZM636.494 60.6571C643.35 62.7448 650.628 64.8875 658.315 67.0709C609.087 63.1029 554.204 59.0689 492.056 55.0222C-144.646 13.5619 -219.653 358.39 107.54 475.107C-24.3224 440.118 -166.618 369.273 -171.878 226.303C-177.481 74.1883 -3.86344 10.9965 206 5.91797C366.492 2.03416 560.942 37.6165 636.494 60.6571Z" fill="#00589F"/>
</g>
<defs>
<clipPath id="clip0_4175_4097">
<rect width="1440" height="115" transform="matrix(-1 0 0 1 1440 18.1348)"/>
</clipPath>
</defs>
</svg>