<svg style="width: 100%; height: auto;" viewBox="0 0 1440 189" fill="none" xmlns="http://www.w3.org/2000/svg">
<mask id="mask0_4175_4157" style="mask-type:alpha" maskUnits="userSpaceOnUse" x="0" y="0" width="1440" height="189">
<rect width="1440" height="188.313" transform="matrix(-1 0 0 1 1440 0.303711)" fill="#EBF6FF"/>
</mask>
<g mask="url(#mask0_4175_4157)">
<path d="M300.857 541.346L305.554 545.145C215.805 543.578 139.4 529.652 77.431 507.544C193.161 538.249 300.857 541.346 300.857 541.346ZM1442.74 110.868C1442.86 110.8 1442.95 110.739 1443.07 110.671C1443.07 110.708 1442.96 110.768 1442.74 110.868ZM1128.71 146.974C1280.15 157.04 1434.72 114.344 1442.74 110.868C1244.38 229.397 816.073 152.829 628.206 99.5073C868.166 118.852 973.528 136.657 1128.71 146.974ZM606.385 93.0935C613.241 95.1812 620.519 97.3239 628.206 99.5073C578.979 95.5393 524.095 91.5053 461.948 87.4586C-174.755 45.9983 -249.762 390.827 77.431 507.544C-54.4313 472.554 -196.727 401.71 -201.987 258.739C-207.59 106.625 -3.25185 56.6375 206.612 51.5589C367.103 47.6751 530.833 70.0529 606.385 93.0935Z" fill="#FBF6F0"/>
</g>
</svg>
