<?xml version="1.0" encoding="UTF-8"?><svg xmlns="http://www.w3.org/2000/svg" viewBox="0 0 33 33"><defs><style>.d{fill:#8ebf6b;}</style></defs><g id="a"/><g id="b"><g id="c"><path class="d" d="M16.48,0C7.38,0,0,7.39,0,16.5s7.38,16.5,16.48,16.5,16.52-7.39,16.52-16.5S25.61,0,16.48,0Zm11.43,9.9h-4.87c-.52-2.04-1.28-4.02-2.28-5.87,3.01,1.04,5.55,3.12,7.14,5.87ZM16.5,3.37c1.37,1.98,2.44,4.17,3.15,6.53h-6.3c.71-2.36,1.78-4.55,3.15-6.53ZM3.73,19.8c-.26-1.06-.43-2.16-.43-3.3s.16-2.24,.43-3.3h5.58c-.13,1.09-.23,2.18-.23,3.3s.1,2.21,.23,3.3H3.73Zm1.35,3.3h4.87c.53,2.06,1.29,4.04,2.28,5.87-3.01-1.03-5.55-3.12-7.14-5.87Zm4.87-13.2H5.08c1.59-2.76,4.13-4.84,7.14-5.87-1,1.86-1.76,3.83-2.28,5.87Zm6.55,19.73c-1.37-1.98-2.44-4.17-3.15-6.53h6.3c-.71,2.36-1.78,4.55-3.15,6.53Zm3.86-9.83h-7.72c-.15-1.09-.26-2.18-.26-3.3s.12-2.23,.26-3.3h7.72c.15,1.07,.26,2.18,.26,3.3s-.12,2.21-.26,3.3Zm.41,9.17c.99-1.83,1.75-3.81,2.28-5.87h4.87c-1.6,2.75-4.13,4.84-7.14,5.87Zm2.92-9.17c.13-1.09,.23-2.18,.23-3.3s-.1-2.21-.23-3.3h5.58c.26,1.06,.43,2.16,.43,3.3s-.17,2.24-.43,3.3h-5.58Z"/></g></g></svg>