<?xml version="1.0" encoding="UTF-8"?><svg xmlns="http://www.w3.org/2000/svg" viewBox="0 0 176.21 176.2"><defs><style>.d{fill:#8ebf6b;}</style></defs><g id="a"/><g id="b"><g id="c"><path class="d" d="M120.41,95.44H55.8c-4.05,0-7.34-3.29-7.34-7.34s3.29-7.34,7.34-7.34H120.41c4.05,0,7.34,3.29,7.34,7.34s-3.28,7.34-7.34,7.34Z"/><path class="d" d="M88.1,176.2C39.52,176.2,0,136.68,0,88.1S39.52,0,88.1,0s88.11,39.52,88.11,88.1-39.53,88.1-88.11,88.1Zm0-161.52C47.62,14.68,14.68,47.62,14.68,88.1s32.93,73.42,73.42,73.42,73.42-32.93,73.42-73.42S128.59,14.68,88.1,14.68Z"/></g></g></svg>