<?xml version="1.0" encoding="UTF-8"?><svg xmlns="http://www.w3.org/2000/svg" viewBox="0 0 176.2 176.2"><defs><style>.d{fill:#f1bd48;}</style></defs><g id="a"/><g id="b"><g id="c"><path class="d" d="M124.29,81.81h-29.89v-29.89c0-.87-.71-1.57-1.57-1.57h-9.44c-.87,0-1.57,.71-1.57,1.57v29.89h-29.89c-.87,0-1.57,.71-1.57,1.57v9.44c0,.87,.71,1.57,1.57,1.57h29.89v29.89c0,.87,.71,1.57,1.57,1.57h9.44c.87,0,1.57-.71,1.57-1.57v-29.89h29.89c.87,0,1.57-.71,1.57-1.57v-9.44c0-.87-.71-1.57-1.57-1.57Z"/><path class="d" d="M88.1,0C39.45,0,0,39.45,0,88.1s39.45,88.1,88.1,88.1,88.1-39.45,88.1-88.1S136.75,0,88.1,0Zm0,161.26c-40.39,0-73.16-32.76-73.16-73.16S47.71,14.95,88.1,14.95s73.16,32.76,73.16,73.16-32.76,73.16-73.16,73.16Z"/><path class="d" d="M88.63,72.87l2.47,2.47-5.25,5.25,1.06,1.06,5.25-5.25,2.47,2.47v-6h-6Z"/><path class="d" d="M93.13,84.87h-10.5v-10.5h5.25l-1.5-1.5h-3.75c-.83,0-1.5,.67-1.5,1.5v10.5c0,.83,.67,1.5,1.5,1.5h10.5c.83,0,1.5-.67,1.5-1.5v-3.75l-1.5-1.5v5.25Z"/></g></g></svg>