<?xml version="1.0" standalone="no"?>
<!DOCTYPE svg PUBLIC "-//W3C//DTD SVG 1.1//EN" "http://www.w3.org/Graphics/SVG/1.1/DTD/svg11.dtd" >
<svg xmlns="http://www.w3.org/2000/svg" xmlns:xlink="http://www.w3.org/1999/xlink" version="1.1">
<metadata>
Created by FontForge 20170731 at Sat Jan  9 23:06:49 2016
 By Aleksey,,,
Copyright (c) 2004-2010, Joshua Darden &#38; Phil's Fonts, Inc. All rights reserved. Published by Garagefonts USA 301-879-9222 www.garagefonts.com
</metadata>
<defs>
<font id="FreightSansProBook-Regular" horiz-adv-x="500" >
  <font-face 
    font-family="FreightSansProBook-Regular"
    font-weight="400"
    font-stretch="normal"
    units-per-em="1000"
    panose-1="2 0 6 6 3 0 0 2 0 4"
    ascent="800"
    descent="-200"
    x-height="458"
    cap-height="625"
    bbox="-197 -260 1165 993"
    underline-thickness="20"
    underline-position="-193"
    unicode-range="U+0020-FB04"
  />
<missing-glyph 
 />
    <glyph glyph-name="ff" unicode="ff" horiz-adv-x="601" 
d="M146 400v-400h-61v400l-74 5l4 38l69 16l1 62q3 165 138 165q42 0 84 -20l-3 -14q-4 -15 -8 -28l-4 -14q-40 19 -70 19q-76 0 -76 -107v-66h241l1 75q3 165 138 165q43 0 85 -20l-3 -14q-4 -15 -8 -28l-4 -14q-40 19 -71 19q-75 0 -75 -107v-76h143l-3 -56h-140v-400h-62
v400h-242z" />
    <glyph glyph-name="fi" unicode="fi" horiz-adv-x="499" 
d="M438 609q0 -19 -11.5 -32.5t-30.5 -13.5q-20 0 -31 13.5t-11 32.5q0 18 11 31t31 13q19 0 30.5 -13t11.5 -31zM307 676l-3 -14q-4 -15 -8 -28l-4 -14q-40 19 -70 19q-76 0 -76 -107v-76h144l-3 -55h-141v-401h-61v399l-74 5l4 39l69 16l1 72q3 165 138 165q42 0 84 -20z
M427 0h-62v458l62 13v-471z" />
    <glyph glyph-name="fl" unicode="fl" horiz-adv-x="499" 
d="M307 676l-3 -14q-4 -15 -8 -28l-4 -14q-40 19 -70 19q-76 0 -76 -107v-76h144l-3 -56h-141v-400h-61v400l-74 5l4 38l69 16l1 72q3 165 138 165q42 0 84 -20zM427 0h-62v674l62 13v-687z" />
    <glyph glyph-name="ffi" unicode="ffi" horiz-adv-x="802" 
d="M741 609q0 -19 -11 -32.5t-31 -13.5q-19 0 -30 13.5t-11 32.5q0 18 11 31t30 13q20 0 31 -13t11 -31zM146 400v-400h-61v400l-74 5l4 38l69 16l1 62q1 165 138 165q42 0 84 -20l-3 -14q-4 -15 -8 -28l-4 -14q-40 19 -70 19q-76 0 -76 -107v-66h241l1 75q3 165 138 165
q43 0 85 -20l-3 -14q-4 -15 -8 -28l-4 -14q-40 19 -71 19q-75 0 -75 -107v-76h143l-3 -55l-140 -1v-400h-62v400h-242zM730 0h-61v458l61 13v-471z" />
    <glyph glyph-name="ffl" unicode="ffl" horiz-adv-x="802" 
d="M146 400v-400h-61v400l-74 5l4 38l69 16l1 62q3 165 138 165q42 0 84 -20l-3 -14q-4 -15 -8 -28l-4 -14q-40 19 -70 19q-76 0 -76 -107v-66h241l1 75q3 165 138 165q43 0 85 -20l-3 -14q-4 -15 -8 -28l-4 -14q-40 19 -71 19q-75 0 -75 -107v-76h143l-3 -56h-140v-400h-62
v400h-242zM730 0h-61v674l61 13v-687z" />
    <glyph glyph-name=".notdef" 
 />
    <glyph glyph-name=".null" horiz-adv-x="0" 
 />
    <glyph glyph-name="nonmarkingreturn" horiz-adv-x="333" 
 />
    <glyph glyph-name="space" unicode=" " horiz-adv-x="228" 
 />
    <glyph glyph-name="exclam" unicode="!" horiz-adv-x="260" 
d="M114 186l-21 464h75l-19 -464h-35zM180 39q0 -21 -14 -36.5t-35 -15.5q-22 0 -36.5 15.5t-14.5 36.5t14.5 35.5t36.5 14.5q21 0 35 -14.5t14 -35.5z" />
    <glyph glyph-name="quotedbl" unicode="&#x22;" horiz-adv-x="303" 
d="M179 398h-34l127 248l60 -29zM30 398h-33l127 248l60 -29z" />
    <glyph glyph-name="numbersign" unicode="#" horiz-adv-x="563" 
d="M165 370h-126v46h138l60 226h49l-61 -226h172l60 226h48l-60 -226h90v-46h-103l-42 -158h125v-46h-138l-64 -240h-48l64 240h-171l-65 -240h-48l65 240h-91v46h103zM384 370h-172l-42 -158h172z" />
    <glyph glyph-name="dollar" unicode="$" horiz-adv-x="491" 
d="M258 283l-32 -239h10q65 0 106.5 34t41.5 84q0 46 -30.5 73t-95.5 48zM268 637l12 93h43l-13 -98q66 -12 123 -48l-23 -56q-49 34 -108 46l-31 -228q81 -25 127.5 -64.5t46.5 -114.5q0 -78 -59 -129t-152 -51h-15l-15 -110h-43l15 115q-76 10 -142 53l23 57
q62 -42 127 -54l34 248q-38 11 -64 23t-53 31.5t-41 49t-14 68.5q0 74 55.5 122t143.5 48q15 0 23 -1zM230 358l30 222h-15q-67 0 -102 -30.5t-35 -76.5q0 -44 29.5 -68.5t92.5 -46.5z" />
    <glyph glyph-name="percent" unicode="%" horiz-adv-x="743" 
d="M347 482q0 -69 -45.5 -117t-120.5 -48q-74 0 -120 48t-46 117q0 70 45.5 118.5t120.5 48.5t120.5 -48t45.5 -119zM652 639l-506 -654h-55l507 654h54zM727 142q0 -70 -45.5 -118.5t-120.5 -48.5t-120.5 48t-45.5 119q0 69 45.5 117t120.5 48q74 0 120 -48t46 -117z
M302 482q0 53 -33 88.5t-88 35.5t-87.5 -35.5t-32.5 -88.5q0 -51 33 -86.5t87 -35.5q55 0 88 35.5t33 86.5zM682 142q0 51 -33 86.5t-88 35.5q-54 0 -87 -35.5t-33 -86.5q0 -53 32.5 -88.5t87.5 -35.5t88 35.5t33 88.5z" />
    <glyph glyph-name="ampersand" unicode="&#x26;" horiz-adv-x="624" 
d="M251 356q107 46 107 128q0 42 -30.5 70.5t-76.5 28.5q-49 0 -78.5 -29t-29.5 -70q0 -82 108 -128zM406 169q-92 110 -182 143q-131 -58 -131 -151q0 -49 35 -84t94 -35q96 0 184 127zM434 135q-96 -148 -220 -148q-84 0 -134 50t-50 121q0 62 43 107.5t112 67.5
q-106 55 -106 147q0 62 49.5 109.5t127.5 47.5q73 0 118 -43.5t45 -104.5q0 -50 -34 -89.5t-92 -62.5q74 -37 147 -124l106 168h74l-150 -202l142 -175l-61 -18z" />
    <glyph glyph-name="quotesingle" unicode="'" horiz-adv-x="163" 
d="M30 398h-33l127 248l60 -29z" />
    <glyph glyph-name="parenleft" unicode="(" horiz-adv-x="350" 
d="M337 -241q-45 23 -90 64.5t-86 99t-67 137.5t-26 166t26 166t67 138t86 99.5t90 64.5l29 -44q-93 -49 -167.5 -163.5t-74.5 -260.5q0 -76 22.5 -147t59 -124t77.5 -91.5t83 -60.5z" />
    <glyph glyph-name="parenright" unicode=")" horiz-adv-x="350" 
d="M13 -241l-29 44q93 49 167 163t74 260q0 147 -74 261t-167 163l29 44q45 -23 90 -64.5t86 -99.5t67 -138t26 -166t-26 -166t-67 -137.5t-86 -99t-90 -64.5z" />
    <glyph glyph-name="asterisk" unicode="*" horiz-adv-x="339" 
d="M161 456l-108 -106l-40 53l134 71v5l-132 72l38 53l108 -108l4 1l28 148l62 -20l-69 -135l3 -3l145 21v-65l-145 21l-3 -3l67 -136l-61 -19l-28 149z" />
    <glyph glyph-name="plus" unicode="+" horiz-adv-x="486" 
d="M446 207h-174v-179h-55v179h-176l3 55h173v178h55v-178h171z" />
    <glyph glyph-name="comma" unicode="," horiz-adv-x="187" 
d="M37 46q2 20 16.5 34.5t37.5 14.5q28 0 49.5 -22.5t21.5 -56.5q0 -91 -124 -173l-27 27q88 63 88 119q0 19 -14 31.5t-48 25.5z" />
    <glyph glyph-name="hyphen" unicode="-" horiz-adv-x="292" 
d="M260 214h-226v58h226v-58z" />
    <glyph glyph-name="period" unicode="." horiz-adv-x="187" 
d="M144 39q0 -21 -14.5 -36.5t-35.5 -15.5t-35.5 15.5t-14.5 36.5t14.5 35.5t35.5 14.5t35.5 -14.5t14.5 -35.5z" />
    <glyph glyph-name="slash" unicode="/" horiz-adv-x="207" 
d="M241 702l-244 -901h-49l243 901h50z" />
    <glyph glyph-name="zero" unicode="0" horiz-adv-x="578" 
d="M530 236q0 -109 -69 -179t-173 -70q-103 0 -171.5 70t-68.5 179t68.5 179t171.5 70q104 0 173 -70t69 -179zM468 236q0 82 -50.5 136t-129.5 54q-78 0 -128 -54t-50 -136t50 -136t128 -54q79 0 129.5 54t50.5 136z" />
    <glyph glyph-name="one" unicode="1" horiz-adv-x="326" 
d="M162 0v406l-116 -44l-3 57l180 66v-485h-61z" />
    <glyph glyph-name="two" unicode="2" horiz-adv-x="440" 
d="M405 0h-358v57q158 119 194 152q76 69 76 124q0 41 -28.5 67.5t-76.5 26.5q-67 0 -142 -58l-22 53q80 63 170 63q73 0 118.5 -40t45.5 -104q0 -18 -3.5 -34.5t-12.5 -33.5t-17.5 -30.5t-26.5 -30.5l-28 -29q-11 -11 -35.5 -30.5t-37.5 -29t-42.5 -32t-43.5 -32.5h270v-59
z" />
    <glyph glyph-name="three" unicode="3" horiz-adv-x="419" 
d="M239 167q73 -6 116.5 -51.5t43.5 -107.5q0 -86 -63 -139.5t-155 -53.5q-98 0 -161 39l16 57q63 -39 147 -39q67 0 109 35t42 96q0 55 -38.5 86.5t-101.5 33.5q-43 0 -91 -9v51q207 50 207 158q0 50 -32 77t-88 27q-72 0 -148 -60l-23 52q82 66 177 66q82 0 131 -43
t49 -111q0 -55 -39 -98.5t-98 -65.5z" />
    <glyph glyph-name="four" unicode="4" horiz-adv-x="501" 
d="M488 15h-98v-199h-60v199h-307l-8 43l321 430h54v-414h95zM330 74v315l-235 -315h235z" />
    <glyph glyph-name="five" unicode="5" horiz-adv-x="419" 
d="M105 208q38 10 84 10q94 0 151 -53t57 -137q0 -93 -62.5 -153t-155.5 -60q-89 0 -160 41l12 61q78 -43 150 -43q67 0 110 41.5t43 109.5q0 59 -41 99t-110 40q-62 0 -119 -19l-21 20l40 308h297l3 -60h-249z" />
    <glyph glyph-name="six" unicode="6" horiz-adv-x="503" 
d="M44 238q0 134 90 247.5t258 152.5l18 -58q-123 -29 -200 -100.5t-99 -169.5l2 -1q75 70 168 70q75 0 128 -50t53 -136q0 -90 -56.5 -148t-148.5 -58q-99 0 -156 71.5t-57 179.5zM109 225q0 -75 40.5 -128t109.5 -53q64 0 102 40.5t38 105.5q0 61 -37 97.5t-93 36.5
q-88 0 -157 -66q-3 -15 -3 -33z" />
    <glyph glyph-name="seven" unicode="7" horiz-adv-x="439" 
d="M349 412h-331l3 61h395v-50l-283 -607h-63z" />
    <glyph glyph-name="eight" unicode="8" horiz-adv-x="490" 
d="M271 333q101 41 101 125q0 52 -35.5 85.5t-89.5 33.5q-60 0 -94.5 -32.5t-34.5 -78.5q0 -25 11 -44.5t38 -37t45 -26t59 -25.5zM225 292q-51 -18 -84 -51.5t-33 -79.5q0 -54 37 -86.5t102 -32.5q66 0 100.5 30t34.5 80q0 26 -11.5 47t-34.5 36.5t-45.5 27t-55.5 25.5
q-7 3 -10 4zM318 311q60 -28 93.5 -62.5t33.5 -87.5q0 -73 -52 -123.5t-148 -50.5q-98 0 -149 47.5t-51 118.5q0 60 41 101.5t91 58.5q-58 26 -90 59.5t-32 86.5q0 76 54 124t140 48q85 0 135.5 -46t50.5 -119q0 -55 -35 -94.5t-82 -60.5z" />
    <glyph glyph-name="nine" unicode="9" horiz-adv-x="503" 
d="M459 234q0 -134 -89.5 -247.5t-258.5 -152.5l-18 58q123 29 200 100.5t99 169.5l-2 1q-75 -70 -168 -70q-75 0 -128 50t-53 136q0 90 56.5 148t149.5 58q98 0 155 -71.5t57 -179.5zM394 247q0 77 -40.5 129t-109.5 52q-64 0 -102 -40.5t-38 -105.5q0 -61 37 -97.5
t93 -36.5q88 0 157 66q3 15 3 33z" />
    <glyph glyph-name="colon" unicode=":" horiz-adv-x="187" 
d="M144 358q0 -21 -14.5 -36.5t-35.5 -15.5t-35.5 15.5t-14.5 36.5q0 20 14.5 34.5t35.5 14.5t35.5 -14.5t14.5 -34.5zM144 39q0 -21 -14.5 -36.5t-35.5 -15.5t-35.5 15.5t-14.5 36.5t14.5 35.5t35.5 14.5t35.5 -14.5t14.5 -35.5z" />
    <glyph glyph-name="semicolon" unicode=";" horiz-adv-x="187" 
d="M144 358q0 -21 -14.5 -36.5t-35.5 -15.5t-35.5 15.5t-14.5 36.5q0 20 14.5 34.5t35.5 14.5t35.5 -14.5t14.5 -34.5zM37 46q2 20 16.5 34.5t37.5 14.5q28 0 49.5 -22.5t21.5 -56.5q0 -91 -124 -173l-27 27q88 63 88 119q0 19 -14 31.5t-48 25.5z" />
    <glyph glyph-name="less" unicode="&#x3c;" horiz-adv-x="456" 
d="M416 78v-60l-382 190v54l381 191v-61l-311 -152v-10z" />
    <glyph glyph-name="equal" unicode="=" horiz-adv-x="446" 
d="M409 295h-370l-4 55h378zM413 119h-378l4 55h370z" />
    <glyph glyph-name="greater" unicode="&#x3e;" horiz-adv-x="456" 
d="M420 208l-382 -190v60l312 152v10l-311 152v61l381 -191v-54z" />
    <glyph glyph-name="question" unicode="?" horiz-adv-x="349" 
d="M309 476q0 -39 -17 -67.5t-36.5 -40.5t-51.5 -26q-43 -19 -60.5 -32t-17.5 -36q0 -39 60 -85l-33 -11q-77 45 -77 104q0 40 25 63t72 43q43 17 64 35.5t21 51.5q0 44 -37 75.5t-100 31.5q-24 0 -69 -9v57q32 9 72 9q82 0 133.5 -49.5t51.5 -113.5zM198 39
q0 -21 -14.5 -36.5t-35.5 -15.5q-22 0 -36.5 15.5t-14.5 36.5t14.5 35.5t36.5 14.5q21 0 35.5 -14.5t14.5 -35.5z" />
    <glyph glyph-name="at" unicode="@" horiz-adv-x="831" 
d="M543 207q-11 -55 6.5 -85t61.5 -30q59 0 101 57t42 157q0 130 -97.5 213t-228.5 83q-144 0 -245.5 -106.5t-101.5 -252.5q0 -140 90 -236t228 -96q56 0 123 20l9 -33q-68 -21 -134 -21q-153 0 -253.5 105t-100.5 260q0 162 112 277.5t273 115.5q151 0 257.5 -91
t106.5 -238q0 -119 -55.5 -188.5t-132.5 -69.5q-41 0 -71 20.5t-42 53.5q-55 -66 -122 -66q-63 0 -103 47t-40 117q0 94 62 162.5t147 68.5q48 0 99 -30l58 26zM480 154l43 211q-39 41 -94 41q-61 0 -104 -55.5t-43 -126.5q0 -53 28.5 -87t73.5 -34q51 0 96 51z" />
    <glyph glyph-name="A" unicode="A" horiz-adv-x="575" 
d="M327 625l233 -625h-65l-66 179h-283l-66 -179h-65l237 625h75zM407 237l-119 325l-120 -325h239z" />
    <glyph glyph-name="B" unicode="B" horiz-adv-x="550" 
d="M368 320q68 -13 104 -51.5t36 -94.5q0 -80 -55.5 -127t-169.5 -47h-203v625h195q108 0 160.5 -44t52.5 -119q0 -49 -30.5 -88t-89.5 -54zM424 457q0 52 -37 81t-109 29h-134v-225h124q72 0 114 30t42 85zM444 174q0 110 -172 110h-128v-226h144q156 0 156 116z" />
    <glyph glyph-name="C" unicode="C" horiz-adv-x="586" 
d="M542 587l-20 -57q-78 50 -174 50q-105 0 -170.5 -71t-65.5 -196q0 -123 65 -195.5t173 -72.5q100 0 175 56l12 -63q-78 -51 -188 -51q-136 0 -219 88t-83 236t84.5 237.5t217.5 89.5q109 0 193 -51z" />
    <glyph glyph-name="D" unicode="D" horiz-adv-x="628" 
d="M581 317q0 -148 -88.5 -232.5t-247.5 -84.5h-165v625h170q152 0 241.5 -84.5t89.5 -223.5zM517 312q0 119 -71.5 186.5t-199.5 67.5h-102v-507h104q124 0 196.5 64t72.5 189z" />
    <glyph glyph-name="E" unicode="E" horiz-adv-x="507" 
d="M458 0h-378v625h378v-59h-314v-224h262v-58h-262v-225h314v-59z" />
    <glyph glyph-name="F" unicode="F" horiz-adv-x="479" 
d="M80 0v625h368v-60h-304v-233h252v-59h-252v-273h-64z" />
    <glyph glyph-name="G" unicode="G" horiz-adv-x="625" 
d="M562 49q-92 -62 -213 -62q-136 0 -219 88t-83 236t84.5 237.5t217.5 89.5q113 0 198 -52l-21 -58q-81 52 -178 52q-105 0 -170.5 -71t-65.5 -196q0 -123 65 -195.5t173 -72.5q81 0 150 38v170h-181v58h243v-262z" />
    <glyph glyph-name="H" unicode="H" horiz-adv-x="654" 
d="M574 0h-64v285h-366v-285h-64v625h64v-282h366v282h64v-625z" />
    <glyph glyph-name="I" unicode="I" horiz-adv-x="228" 
d="M145 0h-63v625h63v-625z" />
    <glyph glyph-name="J" unicode="J" horiz-adv-x="414" 
d="M341 192q0 -96 -46.5 -150.5t-141.5 -54.5q-77 0 -139 39l11 62q69 -43 129 -43q124 0 124 149v431h63v-433z" />
    <glyph glyph-name="K" unicode="K" horiz-adv-x="537" 
d="M144 325h1l289 300h82l-309 -310l314 -315h-83l-293 299h-1v-299h-64v625h64v-300z" />
    <glyph glyph-name="L" unicode="L" horiz-adv-x="478" 
d="M453 0h-373v625h64v-565h309v-60z" />
    <glyph glyph-name="M" unicode="M" horiz-adv-x="761" 
d="M631 0l-10 546l-205 -542h-70l-207 543l-11 -547h-63l21 625h86l211 -552l208 552h85l20 -625h-65z" />
    <glyph glyph-name="N" unicode="N" horiz-adv-x="650" 
d="M507 89v536h62v-631h-69l-358 541v-535h-62v625h72z" />
    <glyph glyph-name="O" unicode="O" horiz-adv-x="709" 
d="M662 315q0 -143 -87 -235.5t-221 -92.5q-132 0 -219.5 90.5t-87.5 233.5t87 235t221 92q132 0 219.5 -90t87.5 -233zM597 311q0 120 -68.5 195t-175.5 75q-106 0 -173.5 -74t-67.5 -192q0 -120 69 -195.5t176 -75.5q105 0 172.5 74.5t67.5 192.5z" />
    <glyph glyph-name="P" unicode="P" horiz-adv-x="519" 
d="M481 430q0 -101 -66.5 -154t-185.5 -55l-85 -1v-220h-64v625h157q120 0 182 -53t62 -142zM415 427q0 67 -46.5 103t-133.5 36h-91v-287l89 2q182 3 182 146z" />
    <glyph glyph-name="Q" unicode="Q" horiz-adv-x="709" 
d="M476 13l205 -104l-28 -55l-256 137q-28 -4 -43 -4q-132 0 -219.5 90.5t-87.5 233.5t87 235t221 92q132 0 219.5 -90t87.5 -233q0 -106 -50.5 -186t-135.5 -116zM597 311q0 120 -68.5 195t-175.5 75q-106 0 -173.5 -74t-67.5 -192q0 -120 69 -195.5t176 -75.5
q105 0 172.5 74.5t67.5 192.5z" />
    <glyph glyph-name="R" unicode="R" horiz-adv-x="529" 
d="M144 250v-250h-64v625h168q113 0 170 -48t57 -132q0 -67 -40 -111.5t-105 -64.5l173 -269h-74l-160 258zM144 307l112 4q66 2 110.5 37t44.5 94q0 61 -44 93t-126 32h-97v-260z" />
    <glyph glyph-name="S" unicode="S" horiz-adv-x="490" 
d="M239 44q65 0 106.5 34t41.5 84q0 51 -38 79t-120 52q-39 12 -66.5 23.5t-56.5 31.5t-44 50t-15 70q0 74 56.5 122t143.5 48q104 0 188 -54l-23 -56q-76 52 -164 52q-67 0 -103 -30.5t-36 -76.5q0 -48 37.5 -73.5t120.5 -51.5q39 -12 67 -24.5t56.5 -33t43 -52t14.5 -71.5
q0 -78 -59 -129t-152 -51q-109 0 -201 58l23 57q85 -58 180 -58z" />
    <glyph glyph-name="T" unicode="T" horiz-adv-x="550" 
d="M527 565h-220v-565h-64v565h-220v60h504v-60z" />
    <glyph glyph-name="U" unicode="U" horiz-adv-x="616" 
d="M544 239q0 -118 -61 -185t-176 -67q-111 0 -172.5 65t-61.5 177v396h62v-388q0 -91 44.5 -141t130.5 -50q83 0 127 49t44 143v1v1v1v1v1v1v1v1v1v1v1v1v1v1v1v1v1v1v1v1v1v1v1v1v1v1v1v1v1v1v1v1v1v1v1v1v1v1v1v1v1v1v1v1v1v1v1v1v1v1v1v1v1v1v1v1v1v1v1v1v1v1v1v1v1v1v1
v1v1v1v2v1v1v1v1v1v1v1v1v1v1v2v1v1v1v1v1v1v2v1v1v1v1v1v2v1v1v1v1v2v1v1v1v2v1v1v1v2v1v1v1v2v1v1v1v2v1v1v2v1v1v2v1v1v2v1v1v2v1v1v2v1v1v2v1v2v1v1v2v1v2v1v1v2v1v2v1v1v2v1v2v1v2v1v2v1v1v2v1v2v1v2v1v2v1v2v1v2v1v2v1v2v1v2v1v2v2v1v2v1v2v1v2v1v2v2v1v2v1v2v2v1v2v1
v2v2v1v2v1v2v2v1v2v2v1v2v1v2v2v1v2v2v1v2v2v1v2v2v2v1v2v2v1v2v2v2v1v2v2v1v2v2v2v1v2v2v2v1v2v2v2v1v2v2v2v2v1v2v2v2v2v1v2v2v2v2v1v2v2v2v2v2v1v2v2v2v2v2v2v1v2v2v2v2v9h63v-386z" />
    <glyph glyph-name="V" unicode="V" horiz-adv-x="555" 
d="M545 625l-231 -625h-75l-229 625h65l203 -559l202 559h65z" />
    <glyph glyph-name="W" unicode="W" horiz-adv-x="895" 
d="M449 550l-169 -550h-61l-178 625h66l146 -534l159 534h76l162 -534l140 534h64l-175 -625h-62z" />
    <glyph glyph-name="X" unicode="X" horiz-adv-x="562" 
d="M279 277l-191 -277h-75l229 318l-217 307h76l180 -261l181 261h75l-219 -304l230 -321h-78z" />
    <glyph glyph-name="Y" unicode="Y" horiz-adv-x="524" 
d="M512 625l-218 -374v-251h-64v251l-218 374h72l180 -311l177 311h71z" />
    <glyph glyph-name="Z" unicode="Z" horiz-adv-x="510" 
d="M474 0h-450v47l371 520h-360v58h440v-48l-371 -519h370v-58z" />
    <glyph glyph-name="bracketleft" unicode="[" horiz-adv-x="387" 
d="M358 -222h-260v897h260v-51h-203v-795h203v-51z" />
    <glyph glyph-name="backslash" unicode="\" horiz-adv-x="207" 
d="M-33 702h50l243 -901h-49z" />
    <glyph glyph-name="bracketright" unicode="]" horiz-adv-x="387" 
d="M30 -222v51h203v795h-203v51h259v-897h-259z" />
    <glyph glyph-name="asciicircum" unicode="^" horiz-adv-x="377" 
d="M348 518h-47l-100 135h-1l-101 -135h-47l113 182h70z" />
    <glyph glyph-name="underscore" unicode="_" horiz-adv-x="445" 
d="M456 -49h-467v49h467v-49z" />
    <glyph glyph-name="grave" unicode="`" horiz-adv-x="396" 
d="M269 518h-46l-152 179h80z" />
    <glyph glyph-name="a" unicode="a" horiz-adv-x="439" 
d="M311 101v134q-115 -13 -164 -40t-49 -74q0 -36 26.5 -58t67.5 -22q66 0 119 60zM315 55h-3q-55 -68 -134 -68q-63 0 -104 36t-41 91q0 147 278 163v27q0 109 -108 109q-36 0 -77.5 -16t-72.5 -39l-14 58q33 23 80 39t90 16q165 0 164 -164v-220q0 -27 9 -37t37 -9l-4 -51
q-89 -6 -100 65z" />
    <glyph glyph-name="b" unicode="b" horiz-adv-x="511" 
d="M472 235q0 -108 -63.5 -178t-162.5 -70q-58 0 -112 25l-62 -27v689l62 13v-277q62 58 138 58q90 0 145 -65t55 -168zM408 232q0 79 -40.5 129t-107.5 50q-70 0 -126 -51v-1v-1v-1v-1v-1v-1v-1v-1v-1v-1v-1v-1v-1v-1v-1v-1v-1v-1v-1v-1v-1v-1v-1v-1v-1v-1v-1v-1v-1v-1v-1
v-1v-1v-1v-1v-1v-1v-1v-1v-1v-1v-1v-1v-1v-1v-1v-1v-1v-1v-2v-1v-1v-1v-1v-1v-1v-1v-1v-1v-1v-2v-1v-1v-1v-1v-1v-2v-1v-1v-1v-1v-2v-1v-1v-1v-1v-2v-1v-1v-1v-2v-1v-1v-2v-1v-1v-1v-2v-1v-1v-2v-1v-1v-2v-1v-2v-1v-1v-2v-1v-1v-2v-1v-2v-1v-1v-2v-1v-2v-1v-2v-1v-2v-1v-2
v-1v-1v-2v-1v-2v-1v-2v-1v-2v-2v-1v-2v-1v-2v-1v-2v-1v-2v-1v-2v-2v-1v-2v-1v-2v-2v-1v-2v-1v-2v-2v-1v-2v-2v-1v-2v-2v-1v-2v-2v-1v-2v-2v-1v-2v-2v-1v-2v-2v-1v-2v-2v-2v-1v-2v-2v-2v-1v-2v-2v-2v-1v-2v-2v-2v-2v-1v-2v-2v-2v-2v-1v-2v-2v-2v-2v-2v-1v-2v-2v-2v-2v-2v-8
q46 -36 115 -36q73 0 116 52.5t43 136.5z" />
    <glyph glyph-name="c" unicode="c" horiz-adv-x="451" 
d="M408 26q-63 -39 -142 -39q-102 0 -163 66.5t-61 174.5q0 107 63.5 175t161.5 68q82 0 143 -39l-16 -56q-56 37 -127 37q-74 0 -117.5 -50.5t-43.5 -132.5q0 -84 44.5 -134.5t117.5 -50.5q69 0 127 38z" />
    <glyph glyph-name="d" unicode="d" horiz-adv-x="514" 
d="M380 443v231l62 13v-687h-62v43q-60 -56 -133 -56q-92 0 -148.5 66.5t-56.5 171.5q0 106 64 174.5t163 68.5q57 0 111 -25zM380 377q-45 35 -114 35q-73 0 -116.5 -52t-43.5 -134q0 -80 41.5 -131t110.5 -51q68 0 122 51v1v1v1v1v1v1v1v1v1v1v1v1v1v1v1v1v1v1v1v1v1v1v1
v1v1v1v1v1v1v1v1v1v1v1v1v1v1v1v1v1v1v1v1v1v1v1v1v1v1v1v1v1v1v1v1v1v1v2v1v1v1v1v1v1v1v2v1v1v1v1v2v1v1v1v1v2v1v1v1v2v1v1v1v2v1v1v2v1v1v2v1v1v2v1v1v2v1v1v2v1v1v2v1v2v1v1v2v1v2v1v2v1v2v1v1v2v1v2v1v2v1v2v1v2v1v2v1v2v2v1v2v1v2v1v2v1v2v2v1v2v1v2v2v1v2v1v2v2v1v2
v2v1v2v2v1v2v2v1v2v2v1v2v2v1v2v2v2v1v2v2v2v1v2v2v2v1v2v2v2v1v2v2v2v2v1v2v2v2v2v1v2v2v2v2v2v2v1v2v2v9z" />
    <glyph glyph-name="e" unicode="e" horiz-adv-x="470" 
d="M105 227v-5q2 -78 45.5 -127.5t114.5 -49.5q75 0 133 38l12 -57q-63 -39 -147 -39q-98 0 -159.5 66.5t-61.5 171.5q0 108 61.5 177t154.5 69q76 0 121.5 -46t45.5 -123q0 -40 -10 -73zM109 276l254 1q1 5 1 20q0 54 -28.5 86t-81.5 32q-59 0 -98 -39.5t-47 -99.5z" />
    <glyph glyph-name="f" unicode="f" horiz-adv-x="298" 
d="M307 676l-3 -14q-4 -15 -8 -28l-4 -14q-40 19 -70 19q-76 0 -76 -107v-76h144l-3 -55h-141v-401h-61v399l-74 5l4 39l69 16l1 72q3 165 138 165q42 0 84 -20z" />
    <glyph glyph-name="g" unicode="g" horiz-adv-x="468" 
d="M107 298q0 -51 32 -84t86 -33q52 0 83 33.5t31 86.5t-30.5 86t-86.5 33q-53 0 -84 -34t-31 -88zM161 -13q-41 -11 -67 -36t-26 -54q0 -41 42.5 -67.5t113.5 -26.5q72 0 122 31t50 77q0 39 -34 56t-105 17q-57 0 -96 3zM107 -1q-62 22 -62 73q0 28 21 51.5t54 35.5
q-74 45 -74 140q0 74 50 123t130 49q60 0 108 -27l127 10l3 -62l-101 10q16 -16 26.5 -45.5t10.5 -57.5q0 -73 -50.5 -120.5t-127.5 -47.5q-31 0 -68 13q-51 -21 -51 -55q0 -23 23 -35t81 -12h1h1h1h1h1h1h1h1h1h1h2h1h1h1h2h1h1h2h1h2h1h2h2h1h2h2h1h2h2h2h2h2h2h2h10
q190 0 190 -120q0 -74 -71 -122t-170 -48q-92 0 -149.5 37t-57.5 97q0 39 27.5 70.5t71.5 42.5z" />
    <glyph glyph-name="h" unicode="h" horiz-adv-x="505" 
d="M436 0h-62v296q0 116 -98 116q-77 0 -142 -65v-347h-62v674l62 13v-289q73 73 159 73q67 0 105 -41t38 -116v-314z" />
    <glyph glyph-name="i" unicode="i" horiz-adv-x="209" 
d="M146 609q0 -19 -11 -32.5t-31 -13.5t-31 13.5t-11 32.5q0 18 11 31t31 13t31 -13t11 -31zM135 0h-62v458l62 13v-471z" />
    <glyph glyph-name="j" unicode="j" horiz-adv-x="207" 
d="M146 609q0 -19 -11 -32.5t-31 -13.5t-31 13.5t-11 32.5q0 18 11 31t31 13t31 -13t11 -31zM27 -250l-42 44q50 26 69 63.5t19 110.5v1v1v1v1v1v1v1v1v1v1v1v1v1v1v1v1v1v1v1v1v1v1v1v1v1v1v1v1v1v1v1v1v1v1v1v1v1v1v1v1v1v1v1v1v1v1v1v1v1v1v1v1v1v1v1v1v1v1v1v1v1v1v1v1
v1v1v1v1v1v1v1v1v1v1v1v1v1v1v1v1v1v1v1v1v1v1v1v1v1v1v1v1v2v1v1v1v1v1v1v1v1v1v1v2v1v1v1v1v1v1v2v1v1v1v1v1v2v1v1v1v1v2v1v1v1v1v2v1v1v1v1v2v1v1v1v2v1v1v1v2v1v1v2v1v1v1v2v1v1v2v1v1v2v1v1v1v2v1v1v2v1v1v2v1v2v1v1v2v1v1v2v1v1v2v1v2v1v1v2v1v2v1v1v2v1v2v1v2v1v1v2
v1v2v1v2v1v2v1v2v1v1v2v1v2v1v2v1v2v1v2v1v2v1v2v1v2v1v2v1v2v2v1v2v1v2v1v2v1v2v1v2v2v1v2v1v2v1v2v2v1v2v1v2v2v1v2v1v2v2v1v2v1v2v2v1v2v2v1v2v2v1v2v2v1v2v1v2v2v1v2v2v2v1v2v2v1v2v2v1v2v2v1v2v2v2v1v2v2v1v2v2v2v1v2v2v2v1v2v2v2v1v2v2v2v1v2v2v2v2v1v2v2v2v2v1v2v2v2
v2v1v2v2v2v2v1v2v2v2v2v2v1v2v2v2v2v2v2v1v2v2v2v2v2v2v2v1v2v2v10l62 13v-1v-1v-1v-1v-1v-1v-1v-1v-1v-1v-1v-1v-1v-1v-1v-1v-1v-1v-1v-1v-1v-1v-1v-1v-1v-1v-1v-1v-1v-1v-1v-1v-1v-1v-1v-1v-1v-1v-1v-1v-1v-1v-1v-1v-1v-1v-1v-1v-1v-1v-1v-1v-1v-1v-1v-1v-1v-1v-1v-1v-1
v-1v-1v-1v-1v-1v-1v-1v-1v-1v-1v-1v-1v-1v-1v-1v-1v-1v-1v-1v-1v-1v-1v-1v-1v-1v-1v-1v-2v-1v-1v-1v-1v-1v-1v-1v-1v-1v-1v-1v-2v-1v-1v-1v-1v-1v-1v-1v-2v-1v-1v-1v-1v-1v-1v-2v-1v-1v-1v-1v-2v-1v-1v-1v-1v-2v-1v-1v-1v-1v-2v-1v-1v-1v-2v-1v-1v-1v-2v-1v-1v-1v-2v-1v-1
v-2v-1v-1v-1v-2v-1v-1v-2v-1v-1v-2v-1v-1v-2v-1v-1v-2v-1v-1v-2v-1v-1v-2v-1v-2v-1v-1v-2v-1v-1v-2v-1v-2v-1v-1v-2v-1v-2v-1v-2v-1v-1v-2v-1v-2v-1v-2v-1v-1v-2v-1v-2v-1v-2v-1v-2v-1v-2v-1v-2v-1v-2v-1v-2v-1v-2v-1v-2v-1v-2v-1v-2v-1v-2v-1v-2v-1v-2v-1v-2v-2v-1v-2v-1
v-2v-1v-2v-1v-2v-2v-1v-2v-1v-2v-2v-1v-2v-1v-2v-2v-1v-2v-1v-2v-2v-1v-2v-1v-2v-2v-1v-2v-2v-1v-2v-2v-1v-2v-2v-1v-2v-2v-1v-2v-2v-1v-2v-2v-1v-2v-2v-1v-2v-2v-2v-1v-2v-2v-1v-2v-2v-2v-1v-2v-2v-2v-1v-2v-2v-2v-1v-2v-2v-2v-1v-2v-2v-2v-2v-1v-2v-2v-2v-1v-2v-2v-2v-2
v-2v-1v-2v-2v-2v-2v-1v-2v-2v-2v-2v-2v-2v-1v-2v-2v-2v-2v-2v-2v-2v-1v-2v-2v-2v-2v-2v-2v-2v-2v-2v-2v-1v-2v-2v-2v-2v-2v-2v-2v-2v-9q0 -88 -24.5 -137t-83.5 -81z" />
    <glyph glyph-name="k" unicode="k" horiz-adv-x="434" 
d="M136 228h-2v-228h-62v674l62 13v-440h2l206 211h78l-220 -218l221 -240h-79z" />
    <glyph glyph-name="l" unicode="l" horiz-adv-x="206" 
d="M134 0h-62v674l62 13v-687z" />
    <glyph glyph-name="m" unicode="m" horiz-adv-x="775" 
d="M706 0h-62v295q0 117 -97 117q-66 0 -129 -59q2 -12 2 -41v-312h-62v295q0 117 -97 117q-67 0 -127 -53v-359h-62v458l62 13v-63q69 63 145 63q91 0 124 -76q76 76 162 76q66 0 103.5 -41.5t37.5 -116.5v-313z" />
    <glyph glyph-name="n" unicode="n" horiz-adv-x="505" 
d="M436 0h-62v296q0 60 -24.5 88t-76.5 28q-74 0 -139 -65v-347h-62v458l62 13v-75q75 75 156 75q69 0 107.5 -41t38.5 -116v-314z" />
    <glyph glyph-name="o" unicode="o" horiz-adv-x="531" 
d="M488 230q0 -108 -64 -175.5t-161 -67.5t-159 66t-62 175q0 108 64.5 175.5t161.5 67.5t158.5 -66t61.5 -175zM427 228q0 84 -44.5 135.5t-117.5 51.5q-72 0 -116.5 -51.5t-44.5 -133.5q0 -84 44.5 -135.5t117.5 -51.5q72 0 116.5 51.5t44.5 133.5z" />
    <glyph glyph-name="p" unicode="p" horiz-adv-x="515" 
d="M134 412q60 56 133 56q92 0 148.5 -66t56.5 -171q0 -107 -63.5 -175.5t-162.5 -68.5q-61 0 -112 24v-244h-62v693l62 13v-61zM134 360v-1v-1v-1v-1v-1v-1v-1v-1v-1v-1v-1v-1v-1v-1v-1v-1v-1v-1v-1v-1v-1v-1v-1v-1v-1v-1v-1v-1v-1v-1v-1v-1v-1v-1v-1v-1v-1v-1v-1v-1v-1v-1
v-1v-1v-1v-1v-1v-1v-1v-2v-1v-1v-1v-1v-1v-1v-1v-1v-1v-1v-2v-1v-1v-1v-1v-1v-2v-1v-1v-1v-1v-2v-1v-1v-1v-1v-2v-1v-1v-1v-2v-1v-1v-2v-1v-1v-1v-2v-1v-1v-2v-1v-1v-2v-1v-2v-1v-1v-2v-1v-1v-2v-1v-2v-1v-1v-2v-1v-2v-1v-2v-1v-2v-1v-2v-1v-1v-2v-1v-2v-1v-2v-1v-2v-2v-1
v-2v-1v-2v-1v-2v-1v-2v-1v-2v-2v-1v-2v-1v-2v-2v-1v-2v-1v-2v-2v-1v-2v-2v-1v-2v-2v-1v-2v-2v-1v-2v-2v-1v-2v-2v-1v-2v-2v-1v-2v-2v-2v-1v-2v-2v-2v-1v-2v-2v-2v-1v-2v-2v-2v-2v-1v-2v-2v-2v-2v-1v-2v-2v-2v-2v-2v-1v-2v-2v-2v-2v-2v-8q46 -36 115 -36q72 0 115.5 52.5
t43.5 134.5q0 80 -41 130.5t-110 50.5q-67 0 -123 -51z" />
    <glyph glyph-name="q" unicode="q" horiz-adv-x="514" 
d="M442 -233h-62v276q-60 -56 -133 -56q-92 0 -148.5 66.5t-56.5 171.5q0 106 64 174.5t163 68.5q65 0 121 -26l52 29v-704zM380 377q-46 36 -114 36q-73 0 -116.5 -52.5t-43.5 -134.5q0 -81 41.5 -132t110.5 -51q67 0 122 52v1v1v1v1v1v1v1v1v1v1v1v1v1v1v1v1v1v1v1v1v1v1
v1v1v1v1v1v1v1v1v1v1v1v1v1v1v1v1v1v1v1v1v1v1v1v1v1v1v1v1v1v1v1v1v1v1v1v2v1v1v1v1v1v1v1v2v1v1v1v1v2v1v1v1v1v2v1v1v1v2v1v1v1v2v1v1v2v1v1v2v1v1v2v1v1v2v1v1v2v1v1v2v1v2v1v1v2v1v2v1v2v1v2v1v1v2v1v2v1v2v1v2v1v2v1v2v1v2v2v1v2v1v2v1v2v1v2v2v1v2v1v2v2v1v2v1v2v2v1
v2v2v1v2v2v1v2v2v1v2v2v1v2v2v1v2v2v2v1v2v2v2v1v2v2v2v1v2v2v2v1v2v2v2v2v1v2v2v2v2v1v2v2v2v2v2v2v1v2v2v9z" />
    <glyph glyph-name="r" unicode="r" horiz-adv-x="356" 
d="M134 294v-294h-62v458l62 13v-98q50 98 135 98q43 0 80 -21l-16 -58q-33 20 -70 20q-77 0 -129 -118z" />
    <glyph glyph-name="s" unicode="s" horiz-adv-x="387" 
d="M347 125q0 -62 -47 -100t-117 -38q-86 0 -150 41l17 57q63 -42 135 -42q43 0 73 20.5t30 56.5q0 16 -7.5 29t-15.5 20.5t-28 16.5t-29 12t-35 11q-60 18 -96.5 47t-36.5 83q0 61 44 96.5t111 35.5q73 0 139 -34l-18 -56q-62 34 -125 34q-42 0 -67 -18.5t-25 -51.5
q0 -15 7 -27.5t15 -20t26.5 -15.5t29.5 -12t35 -11q62 -18 98.5 -47.5t36.5 -86.5z" />
    <glyph glyph-name="t" unicode="t" horiz-adv-x="329" 
d="M300 9q-51 -24 -102 -24q-128 0 -123 144l7 271l-70 4l3 39l69 16l3 104h59l-3 -107h153l-3 -55h-152l-7 -274q-3 -86 67 -86q37 0 88 22z" />
    <glyph glyph-name="u" unicode="u" horiz-adv-x="504" 
d="M68 458h62v-296q0 -116 99 -116q78 0 141 65v347h62v-458l-62 -13v74q-72 -74 -158 -74q-67 0 -105.5 41.5t-38.5 115.5v314z" />
    <glyph glyph-name="v" unicode="v" horiz-adv-x="424" 
d="M420 458l-180 -459h-56l-181 459h67l145 -378l140 378h65z" />
    <glyph glyph-name="w" unicode="w" horiz-adv-x="662" 
d="M209 -2h-54l-140 460h66l106 -365l119 364h56l125 -366l95 367h68l-136 -460h-55l-125 370z" />
    <glyph glyph-name="x" unicode="x" horiz-adv-x="394" 
d="M390 0h-69l-124 193l-123 -193h-70l158 235l-148 223h69l114 -178l112 178h69l-146 -221z" />
    <glyph glyph-name="y" unicode="y" horiz-adv-x="424" 
d="M420 458l-178 -453l-37 -99q-30 -81 -64.5 -112.5t-83.5 -31.5q-40 0 -89 21l19 57q37 -20 70 -20q28 0 49.5 22t44.5 84l31 81l-179 451h67l144 -378l141 378h65z" />
    <glyph glyph-name="z" unicode="z" horiz-adv-x="392" 
d="M368 0h-347v49l273 354h-264v55h338v-48l-273 -355h273v-55z" />
    <glyph glyph-name="braceleft" unicode="{" horiz-adv-x="332" 
d="M316 -229q-109 5 -163 34.5t-54 92.5q0 44 25 111.5t25 97.5q0 45 -28.5 65t-98.5 26l-3 33l3 34q70 5 98.5 25t28.5 66q0 30 -25 97.5t-25 110.5q0 63 54 93t163 35v-46q-86 -7 -122.5 -25t-36.5 -52q0 -31 25.5 -99.5t25.5 -103.5q0 -55 -35 -91.5t-103 -40.5v-6
q68 -4 103 -41t35 -92q0 -35 -25.5 -102.5t-25.5 -96.5q0 -36 36 -54.5t123 -25.5v-45z" />
    <glyph glyph-name="bar" unicode="|" horiz-adv-x="268" 
d="M106 -199v901h55v-901h-55z" />
    <glyph glyph-name="braceright" unicode="}" horiz-adv-x="332" 
d="M313 231l-3 -34q-70 -5 -99 -25t-29 -66q0 -30 25.5 -97.5t25.5 -110.5q0 -63 -54 -92.5t-163 -34.5v45q86 6 122.5 24.5t36.5 53.5q0 30 -25.5 98t-25.5 103q0 55 34.5 92t103.5 41v6q-69 4 -103.5 40t-34.5 92q0 35 25.5 103.5t25.5 98.5q0 35 -36.5 53t-122.5 25v46
q109 -6 163 -35.5t54 -92.5q0 -44 -25.5 -111.5t-25.5 -97.5q0 -46 29 -66t99 -25z" />
    <glyph glyph-name="asciitilde" unicode="~" horiz-adv-x="377" 
d="M362 292q-16 -115 -89 -115q-32 0 -83 35.5t-67 35.5q-15 0 -25.5 -14t-19.5 -51h-1h-1h-1h-1h-1h-1h-1h-1h-1h-1h-1h-2h-1h-1h-2h-1h-2h-2h-1h-2h-2h-2h-1h-2h-9q16 115 89 115q32 0 84 -36t67 -36t25 14.5t19 51.5h1h1h1h1h1h1h2h1h1h1h1h2h1h2h1h2h1h2h1h2h2h1h2h10z
" />
    <glyph glyph-name="nbspace" unicode="&#xa0;" horiz-adv-x="137" 
 />
    <glyph glyph-name="exclamdown" unicode="&#xa1;" horiz-adv-x="260" 
d="M80 585q0 21 14 36.5t36 15.5q21 0 35.5 -15.5t14.5 -36.5q0 -20 -14.5 -34.5t-35.5 -14.5q-22 0 -36 14.5t-14 34.5zM147 439l20 -464h-75l20 464h35z" />
    <glyph glyph-name="cent" unicode="&#xa2;" horiz-adv-x="445" 
d="M319 466q50 -9 91 -34l-16 -56q-36 24 -83 33l-49 -364h6q69 0 127 38l13 -57q-63 -39 -141 -39h-13l-14 -110h-43l16 116q-78 17 -124.5 80.5t-46.5 154.5q0 107 63 175t161 68h11l12 91h43q-13 -95 -13 -96zM269 413h-3q-74 0 -117 -50t-43 -133q0 -69 30.5 -116.5
t83.5 -62.5z" />
    <glyph glyph-name="sterling" unicode="&#xa3;" horiz-adv-x="495" 
d="M127 323q-3 59 -3 106q0 102 50 156.5t138 54.5q74 0 137 -37l-16 -55q-61 36 -123 36q-64 0 -94.5 -39.5t-30.5 -106.5q0 -25 4 -115h196l-3 -46h-191q2 -66 2 -100q0 -40 -7 -68q33 -29 76 -48.5t72 -19.5q83 0 106 108l46 -10q-7 -73 -47.5 -113.5t-97.5 -40.5
q-86 0 -173 80q-35 -55 -135 -82q0 1 -0.5 2.5t-1.5 6t-2.5 8.5t-2.5 9t-2.5 9.5t-2.5 8.5t-1 5l-1 2q66 20 89.5 50t23.5 87q0 51 -3 106h-94l-3 46h95z" />
    <glyph glyph-name="currency" unicode="&#xa4;" horiz-adv-x="433" 
d="M396 501l-57 -57q24 -39 24 -85q0 -48 -25 -85l63 -63l-36 -36l-62 62q-37 -26 -86 -26t-86 25l-57 -57l-35 35l57 57q-26 41 -26 88q0 51 25 86l-59 59l36 36l59 -59q37 26 86 26q52 0 88 -27l56 56zM318 359q0 44 -27.5 74t-73.5 30t-74 -30t-28 -74q0 -43 28 -73.5
t74 -30.5t73.5 30.5t27.5 73.5z" />
    <glyph glyph-name="yen" unicode="&#xa5;" horiz-adv-x="545" 
d="M232 264h-175l-3 46h157l-198 315h71l180 -299l178 299h69l-197 -315h156l-3 -46h-174v-88h174l3 -45h-177v-131h-62v131h-177l3 45h175v88z" />
    <glyph glyph-name="brokenbar" unicode="&#xa6;" horiz-adv-x="268" 
d="M106 307v335h55v-335h-55zM106 -139v335h55v-335h-55z" />
    <glyph glyph-name="section" unicode="&#xa7;" horiz-adv-x="470" 
d="M451 289q0 -45 -30.5 -77.5t-80.5 -48.5q52 -35 52 -91q0 -62 -47.5 -100t-118.5 -38q-83 0 -150 41l18 56q62 -41 134 -41q44 0 74.5 20.5t30.5 55.5q0 15 -9 28t-19 21t-33.5 17.5t-36.5 13.5t-43 13q-31 9 -49.5 15t-44 18t-39.5 25t-24.5 32.5t-10.5 43.5q0 45 33 79
t84 48q-59 34 -59 90q0 62 45 97.5t112 35.5q73 0 139 -34l-18 -55q-63 33 -125 33q-43 0 -68.5 -18.5t-25.5 -51.5q0 -16 9 -29t29 -22.5t38 -15.5t48 -15q9 -3 14 -4q39 -11 63 -20.5t52.5 -26t42.5 -40.5t14 -55zM393 277q0 27 -22.5 47t-49 29.5t-73 24t-70.5 24.5
q-97 -43 -97 -96q0 -33 32 -52.5t98.5 -39.5t93.5 -32q88 40 88 95z" />
    <glyph glyph-name="dieresis" unicode="&#xa8;" horiz-adv-x="397" 
d="M344 593q0 -21 -13 -35.5t-34 -14.5t-35 14.5t-14 35.5q0 20 14 34.5t35 14.5q20 0 33.5 -14.5t13.5 -34.5zM151 593q0 -21 -13.5 -35.5t-34.5 -14.5t-34 14.5t-13 35.5q0 20 13.5 34.5t33.5 14.5q21 0 34.5 -14.5t13.5 -34.5z" />
    <glyph glyph-name="copyright" unicode="&#xa9;" horiz-adv-x="729" 
d="M365 -16q-136 0 -231.5 96t-95.5 231q0 136 95.5 232t231.5 96t231.5 -96t95.5 -232q0 -135 -95.5 -231t-231.5 -96zM663 311q0 123 -87.5 212t-210.5 89t-210.5 -89t-87.5 -212t87.5 -211t210.5 -88t210.5 88t87.5 211zM491 467l-17 -45q-43 28 -95 28q-57 0 -91.5 -37
t-34.5 -101t34.5 -102t92.5 -38q56 0 98 32l10 -49q-45 -29 -110 -29q-79 0 -128 50t-49 134t49.5 135t128.5 51q67 0 112 -29z" />
    <glyph glyph-name="ordfeminine" unicode="&#xaa;" horiz-adv-x="340" 
d="M324 262l-54 -12q-20 20 -30 54h-1q-50 -54 -112 -54q-47 0 -75.5 29t-28.5 73q0 120 212 131v24q0 81 -76 81q-57 0 -113 -44l-21 43q69 51 138 51q123 0 123 -128v-1v-1v-1v-1v-1v-1v-1v-1v-1v-1v-1v-1v-1v-1v-1v-1v-1v-1v-1v-1v-1v-1v-1v-1v-1v-1v-1v-1v-1v-1v-1v-2
v-1v-1v-1v-1v-1v-2v-1v-1v-1v-2v-1v-1v-1v-2v-1v-1v-2v-1v-1v-2v-1v-2v-1v-1v-2v-1v-2v-1v-2v-1v-2v-1v-2v-1v-2v-1v-2v-1v-2v-1v-2v-2v-1v-2v-2v-1v-2v-2v-1v-2v-2v-1v-2v-2v-1v-2v-2v-2v-1v-2v-2v-2v-2v-1v-2v-2v-2v-2v-2v-1v-2v-2v-9q0 -54 38 -96zM235 339v104
q-162 -10 -162 -85q0 -29 19 -45t47 -16q57 0 96 42z" />
    <glyph glyph-name="guillemotleft" unicode="&#xab;" horiz-adv-x="573" 
d="M539 74l-7 -48l-246 175v66l246 175l7 -48l-196 -159v-2zM267 83l-8 -46l-234 166v62l234 166l8 -46l-187 -150v-2z" />
    <glyph glyph-name="logicalnot" unicode="&#xac;" horiz-adv-x="486" 
d="M445 304v-207h-55v152h-349l3 55h401z" />
    <glyph glyph-name="uni00AD" unicode="&#xad;" horiz-adv-x="292" 
d="M260 214h-226v58h226v-58z" />
    <glyph glyph-name="registered" unicode="&#xae;" horiz-adv-x="729" 
d="M365 -16q-136 0 -231.5 96t-95.5 231q0 136 95.5 232t231.5 96t231.5 -96t95.5 -232q0 -135 -95.5 -231t-231.5 -96zM663 311q0 123 -87.5 212t-210.5 89t-210.5 -89t-87.5 -212t87.5 -211t210.5 -88t210.5 88t87.5 211zM297 265v-127h-50v354h114q66 0 100.5 -28.5
t34.5 -80.5q0 -75 -70 -102l89 -143h-58l-81 131zM296 308l63 2q87 2 87 70q0 67 -90 67h-60v-139z" />
    <glyph glyph-name="macron" unicode="&#xaf;" horiz-adv-x="397" 
d="M328 536h-255l3 45h248z" />
    <glyph glyph-name="degree" unicode="&#xb0;" horiz-adv-x="356" 
d="M326 490q0 -62 -40.5 -105t-107.5 -43q-66 0 -107 43.5t-41 104.5q0 63 41 106.5t107 43.5q67 0 107.5 -43.5t40.5 -106.5zM283 490q0 46 -28.5 77t-76.5 31t-76.5 -31t-28.5 -77q0 -45 28.5 -75.5t76.5 -30.5t76.5 30.5t28.5 75.5z" />
    <glyph glyph-name="plusminus" unicode="&#xb1;" horiz-adv-x="486" 
d="M446 227h-175v-144h-55v144h-175l3 55h172v159h55v-159h172zM446 9h-405l3 54h399z" />
    <glyph glyph-name="twosuperior" unicode="&#xb2;" horiz-adv-x="330" 
d="M295 273h-265l-2 45q20 18 51 44.5t46 39.5t35.5 32.5t30 31t20 26t14 27t3.5 26.5q0 32 -22 50.5t-58 18.5q-50 0 -97 -40l-19 41q50 43 123 43q57 0 91.5 -30t34.5 -80q0 -53 -61 -114q-23 -23 -133 -117h51h104h51z" />
    <glyph glyph-name="threesuperior" unicode="&#xb3;" horiz-adv-x="330" 
d="M174 472q58 0 89.5 -26.5t31.5 -65.5q0 -53 -43 -84t-107 -31q-67 0 -112 25l10 43q50 -25 104 -25q40 0 67.5 18t27.5 51q0 29 -25.5 47.5t-70.5 18.5q-35 -2 -58 -6v39q69 15 104 35t35 50q0 25 -20.5 39.5t-55.5 14.5q-52 0 -98 -36l-20 41q54 38 121 38
q58 0 92 -24.5t34 -66.5q0 -68 -106 -95z" />
    <glyph glyph-name="acute" unicode="&#xb4;" horiz-adv-x="396" 
d="M329 697l-152 -179h-46l118 179h80z" />
    <glyph glyph-name="mu" unicode="&#xb5;" horiz-adv-x="508" 
d="M134 458v-292q0 -60 35.5 -90t87.5 -30q47 0 82 28.5t35 90.5v293h62v-458h-62v54q-43 -66 -118 -66q-77 0 -122 65v-286h-62v691h62z" />
    <glyph glyph-name="mu" unicode="&#x3bc;" horiz-adv-x="508" 
d="M134 458v-292q0 -60 35.5 -90t87.5 -30q47 0 82 28.5t35 90.5v293h62v-458h-62v54q-43 -66 -118 -66q-77 0 -122 65v-286h-62v691h62z" />
    <glyph glyph-name="paragraph" unicode="&#xb6;" horiz-adv-x="501" 
d="M354 263q-36 -9 -75 -9q-114 0 -173.5 50.5t-59.5 131.5q0 91 63.5 140t168.5 49h-1h1h1h1h1h1h1h1h1h1h1h1h1h1h1h1h1h1h1h1h1h1h1h2h1h1h1h1h1h1h1h1h2h1h1h1h2h1h1h1h2h1h1h2h1h1h2h1h1h2h1h2h1h2h1h2h1h2h1h2h1h2h1h2h1h2h2h1h2h1h2h2h1h2h2h1h2h2h2h1h2h2h2h1h2h2h2
h1h2h2h10v-689h-54v327z" />
    <glyph glyph-name="periodcentered" unicode="&#xb7;" horiz-adv-x="187" 
d="M144 229q0 -21 -14.5 -36.5t-35.5 -15.5t-35.5 15.5t-14.5 36.5t14.5 35.5t35.5 14.5t35.5 -14.5t14.5 -35.5z" />
    <glyph glyph-name="cedilla" unicode="&#xb8;" horiz-adv-x="397" 
d="M190 -68q55 2 88.5 -19.5t33.5 -62.5q0 -43 -40.5 -72t-119.5 -38l-5 42q115 6 115 63q0 32 -35 43t-96 -1l-6 30l115 113h50z" />
    <glyph glyph-name="onesuperior" unicode="&#xb9;" horiz-adv-x="330" 
d="M165 273v323l-100 -25l-2 45l154 39v-382h-52z" />
    <glyph glyph-name="ordmasculine" unicode="&#xba;" horiz-adv-x="423" 
d="M390 445q0 -87 -51 -140.5t-129 -53.5t-127.5 53t-49.5 140t51.5 140.5t129.5 53.5t127 -53t49 -140zM340 443q0 67 -35 108t-93 41t-93 -41t-35 -106q0 -66 35 -107t93 -41t93 41t35 105z" />
    <glyph glyph-name="guillemotright" unicode="&#xbb;" horiz-adv-x="576" 
d="M551 203l-234 -166l-8 46l187 150v2l-187 150l8 46l234 -166v-62zM290 201l-245 -175l-8 48l196 159v2l-196 159l8 48l245 -175v-66z" />
    <glyph glyph-name="onequarter" unicode="&#xbc;" horiz-adv-x="715" 
d="M706 -48h-62v-96h-48v96h-190l-5 35l185 250h58v-244h60zM596 -7v191l-141 -191h141zM673 625l-536 -741h-55l537 741h54zM165 273v323l-100 -25l-2 45l154 39v-382h-52z" />
    <glyph glyph-name="onehalf" unicode="&#xbd;" horiz-adv-x="715" 
d="M658 625l-536 -741h-55l537 741h54zM165 273v323l-100 -25l-2 45l154 39v-382h-52zM680 -143h-265l-2 45q20 18 51 44.5t46 39.5t35.5 32.5t30 31t20 26t14 27t3.5 26.5q0 32 -22 50.5t-58 18.5q-50 0 -97 -40l-19 41q50 43 123 43q58 0 92 -30t34 -80q0 -53 -61 -114
q-23 -23 -133 -117h52h102h52z" />
    <glyph glyph-name="threequarters" unicode="&#xbe;" horiz-adv-x="715" 
d="M706 -48h-62v-96h-48v96h-190l-5 35l185 250h58v-244h60zM596 -7v191l-141 -191h141zM673 625l-536 -741h-55l537 741h54zM174 472q58 0 89.5 -26.5t31.5 -65.5q0 -53 -43 -84t-107 -31q-67 0 -112 25l10 43q50 -25 104 -25q40 0 67.5 18t27.5 51q0 29 -25.5 47.5
t-70.5 18.5q-35 -2 -58 -6v39q69 15 104 35t35 50q0 25 -20.5 39.5t-55.5 14.5q-52 0 -98 -36l-20 41q54 38 121 38q58 0 92 -24.5t34 -66.5q0 -68 -106 -95z" />
    <glyph glyph-name="questiondown" unicode="&#xbf;" horiz-adv-x="349" 
d="M39 148q0 30 8.5 52.5t25.5 38t32.5 24.5t39.5 19q42 18 59.5 31.5t17.5 36.5q0 38 -59 85l32 11q77 -45 77 -104q0 -40 -24.5 -63t-71.5 -43q-43 -17 -64 -35.5t-21 -51.5q0 -44 36.5 -75.5t99.5 -31.5q24 0 69 9v-57q-32 -9 -71 -9q-83 0 -134.5 49t-51.5 114zM151 585
q0 21 14 36.5t36 15.5q21 0 35.5 -15.5t14.5 -36.5t-14.5 -35.5t-35.5 -14.5q-22 0 -36 14.5t-14 35.5z" />
    <glyph glyph-name="Agrave" unicode="&#xc0;" horiz-adv-x="575" 
d="M327 625l233 -625h-65l-66 179h-283l-66 -179h-65l237 625h75zM407 237l-119 325l-120 -325h239zM308 685h-46l-152 179h80z" />
    <glyph glyph-name="Aacute" unicode="&#xc1;" horiz-adv-x="575" 
d="M327 625l233 -625h-65l-66 179h-283l-66 -179h-65l237 625h75zM407 237l-119 325l-120 -325h239zM458 864l-152 -179h-46l118 179h80z" />
    <glyph glyph-name="Acircumflex" unicode="&#xc2;" horiz-adv-x="575" 
d="M327 625l233 -625h-65l-66 179h-283l-66 -179h-65l237 625h75zM407 237l-119 325l-120 -325h239zM437 685h-47l-100 135h-1l-101 -135h-47l113 182h70z" />
    <glyph glyph-name="Atilde" unicode="&#xc3;" horiz-adv-x="575" 
d="M327 625l233 -625h-65l-66 179h-283l-66 -179h-65l237 625h75zM407 237l-119 325l-120 -325h239zM451 804q-16 -115 -89 -115q-32 0 -83 35.5t-67 35.5q-15 0 -25.5 -14t-19.5 -51h-1h-1h-1h-1h-1h-1h-1h-1h-1h-1h-1h-2h-1h-1h-2h-1h-2h-2h-1h-2h-2h-2h-1h-2h-9
q16 115 89 115q32 0 84 -36t67 -36t25 14.5t19 51.5h1h1h1h1h1h1h2h1h1h1h1h2h1h2h1h2h1h2h1h2h2h1h2h10z" />
    <glyph glyph-name="Adieresis" unicode="&#xc4;" horiz-adv-x="575" 
d="M327 625l233 -625h-65l-66 179h-283l-66 -179h-65l237 625h75zM407 237l-119 325l-120 -325h239zM431 760q0 -21 -13 -35.5t-34 -14.5t-35 14.5t-14 35.5q0 20 14 34.5t35 14.5q20 0 33.5 -14.5t13.5 -34.5zM238 760q0 -21 -13.5 -35.5t-34.5 -14.5t-34 14.5t-13 35.5
q0 20 13.5 34.5t33.5 14.5q21 0 34.5 -14.5t13.5 -34.5z" />
    <glyph glyph-name="Aring" unicode="&#xc5;" horiz-adv-x="575" 
d="M408 237l-119 325l-121 -325h240zM239 593q-31 12 -49.5 37t-18.5 57q0 44 32.5 74t85.5 30t85 -30t33 -74q0 -32 -18 -57t-50 -37l221 -593h-65l-66 179h-282l-67 -179h-65zM364 686q0 29 -20.5 49t-54.5 20q-33 0 -53.5 -19.5t-20.5 -47.5q0 -29 20.5 -48.5t53.5 -19.5
q34 0 54.5 19t20.5 47z" />
    <glyph glyph-name="AE" unicode="&#xc6;" horiz-adv-x="818" 
d="M202 233h192v336zM168 174l-99 -174h-68l358 625h413v-59h-314v-223h262v-59h-262v-225h314v-59h-378v174h-226z" />
    <glyph glyph-name="Ccedilla" unicode="&#xc7;" horiz-adv-x="586" 
d="M319 -12q-124 10 -198 97t-74 226q0 148 84.5 237.5t217.5 89.5q109 0 193 -51l-20 -57q-78 50 -174 50q-105 0 -170.5 -71t-65.5 -196q0 -123 65 -195.5t173 -72.5q100 0 175 56l12 -63q-71 -46 -168 -50l-57 -56q55 2 88.5 -19.5t33.5 -62.5q0 -43 -40.5 -72
t-119.5 -38l-5 42q115 6 115 63q0 32 -35 43t-96 -1l-6 30z" />
    <glyph glyph-name="Egrave" unicode="&#xc8;" horiz-adv-x="507" 
d="M458 0h-378v625h378v-59h-314v-224h262v-58h-262v-225h314v-59zM302 685h-46l-152 179h80z" />
    <glyph glyph-name="Eacute" unicode="&#xc9;" horiz-adv-x="507" 
d="M458 0h-378v625h378v-59h-314v-224h262v-58h-262v-225h314v-59zM417 864l-152 -179h-46l118 179h80z" />
    <glyph glyph-name="Ecircumflex" unicode="&#xca;" horiz-adv-x="507" 
d="M458 0h-378v625h378v-59h-314v-224h262v-58h-262v-225h314v-59zM418 685h-47l-100 135h-1l-101 -135h-47l113 182h70z" />
    <glyph glyph-name="Edieresis" unicode="&#xcb;" horiz-adv-x="507" 
d="M458 0h-378v625h378v-59h-314v-224h262v-58h-262v-225h314v-59zM409 760q0 -21 -13 -35.5t-34 -14.5t-35 14.5t-14 35.5q0 20 14 34.5t35 14.5q20 0 33.5 -14.5t13.5 -34.5zM216 760q0 -21 -13.5 -35.5t-34.5 -14.5t-34 14.5t-13 35.5q0 20 13.5 34.5t33.5 14.5
q21 0 34.5 -14.5t13.5 -34.5z" />
    <glyph glyph-name="Igrave" unicode="&#xcc;" horiz-adv-x="228" 
d="M145 0h-63v625h63v-625zM143 685h-46l-152 179h80z" />
    <glyph glyph-name="Iacute" unicode="&#xcd;" horiz-adv-x="228" 
d="M145 0h-63v625h63v-625zM286 864l-152 -179h-46l118 179h80z" />
    <glyph glyph-name="Icircumflex" unicode="&#xce;" horiz-adv-x="228" 
d="M145 0h-63v625h63v-625zM263 685h-47l-100 135h-1l-101 -135h-47l113 182h70z" />
    <glyph glyph-name="Idieresis" unicode="&#xcf;" horiz-adv-x="228" 
d="M145 0h-63v625h63v-625zM259 760q0 -21 -13 -35.5t-34 -14.5t-35 14.5t-14 35.5q0 20 14 34.5t35 14.5q20 0 33.5 -14.5t13.5 -34.5zM66 760q0 -21 -13.5 -35.5t-34.5 -14.5t-34 14.5t-13 35.5q0 20 13.5 34.5t33.5 14.5q21 0 34.5 -14.5t13.5 -34.5z" />
    <glyph glyph-name="Eth" unicode="&#xd0;" horiz-adv-x="646" 
d="M164 343h175v-56h-175v-228h104q124 0 196.5 64t72.5 189q0 119 -71.5 186.5t-199.5 67.5h-102v-223zM100 287h-84v56h84v282h170q152 0 241.5 -84.5t89.5 -223.5q0 -148 -88.5 -232.5t-247.5 -84.5h-165v287z" />
    <glyph glyph-name="Ntilde" unicode="&#xd1;" horiz-adv-x="650" 
d="M507 89v536h62v-631h-69l-358 541v-535h-62v625h72zM488 804q-16 -115 -89 -115q-32 0 -83 35.5t-67 35.5q-15 0 -25.5 -14t-19.5 -51h-1h-1h-1h-1h-1h-1h-1h-1h-1h-1h-1h-2h-1h-1h-2h-1h-2h-2h-1h-2h-2h-2h-1h-2h-9q16 115 89 115q32 0 84 -36t67 -36t25 14.5t19 51.5h1
h1h1h1h1h1h2h1h1h1h1h2h1h2h1h2h1h2h1h2h2h1h2h10z" />
    <glyph glyph-name="Ograve" unicode="&#xd2;" horiz-adv-x="709" 
d="M662 315q0 -143 -87 -235.5t-221 -92.5q-132 0 -219.5 90.5t-87.5 233.5t87 235t221 92q132 0 219.5 -90t87.5 -233zM597 311q0 120 -68.5 195t-175.5 75q-106 0 -173.5 -74t-67.5 -192q0 -120 69 -195.5t176 -75.5q105 0 172.5 74.5t67.5 192.5zM387 685h-46l-152 179
h80z" />
    <glyph glyph-name="Oacute" unicode="&#xd3;" horiz-adv-x="709" 
d="M662 315q0 -143 -87 -235.5t-221 -92.5q-132 0 -219.5 90.5t-87.5 233.5t87 235t221 92q132 0 219.5 -90t87.5 -233zM597 311q0 120 -68.5 195t-175.5 75q-106 0 -173.5 -74t-67.5 -192q0 -120 69 -195.5t176 -75.5q105 0 172.5 74.5t67.5 192.5zM523 864l-152 -179h-46
l118 179h80z" />
    <glyph glyph-name="Ocircumflex" unicode="&#xd4;" horiz-adv-x="709" 
d="M662 315q0 -143 -87 -235.5t-221 -92.5q-132 0 -219.5 90.5t-87.5 233.5t87 235t221 92q132 0 219.5 -90t87.5 -233zM597 311q0 120 -68.5 195t-175.5 75q-106 0 -173.5 -74t-67.5 -192q0 -120 69 -195.5t176 -75.5q105 0 172.5 74.5t67.5 192.5zM504 685h-47l-100 135
h-1l-101 -135h-47l113 182h70z" />
    <glyph glyph-name="Otilde" unicode="&#xd5;" horiz-adv-x="709" 
d="M662 315q0 -143 -87 -235.5t-221 -92.5q-132 0 -219.5 90.5t-87.5 233.5t87 235t221 92q132 0 219.5 -90t87.5 -233zM597 311q0 120 -68.5 195t-175.5 75q-106 0 -173.5 -74t-67.5 -192q0 -120 69 -195.5t176 -75.5q105 0 172.5 74.5t67.5 192.5zM518 804
q-16 -115 -89 -115q-32 0 -83 35.5t-67 35.5q-15 0 -25.5 -14t-19.5 -51h-1h-1h-1h-1h-1h-1h-1h-1h-1h-1h-1h-2h-1h-1h-2h-1h-2h-2h-1h-2h-2h-2h-1h-2h-9q16 115 89 115q32 0 84 -36t67 -36t25 14.5t19 51.5h1h1h1h1h1h1h2h1h1h1h1h2h1h2h1h2h1h2h1h2h2h1h2h10z" />
    <glyph glyph-name="Odieresis" unicode="&#xd6;" horiz-adv-x="709" 
d="M662 315q0 -143 -87 -235.5t-221 -92.5q-132 0 -219.5 90.5t-87.5 233.5t87 235t221 92q132 0 219.5 -90t87.5 -233zM597 311q0 120 -68.5 195t-175.5 75q-106 0 -173.5 -74t-67.5 -192q0 -120 69 -195.5t176 -75.5q105 0 172.5 74.5t67.5 192.5zM500 760
q0 -21 -13 -35.5t-34 -14.5t-35 14.5t-14 35.5q0 20 14 34.5t35 14.5q20 0 33.5 -14.5t13.5 -34.5zM307 760q0 -21 -13.5 -35.5t-34.5 -14.5t-34 14.5t-13 35.5q0 20 13.5 34.5t33.5 14.5q21 0 34.5 -14.5t13.5 -34.5z" />
    <glyph glyph-name="multiply" unicode="&#xd7;" horiz-adv-x="486" 
d="M450 65l-37 -37l-168 169l-169 -169l-37 37l169 169l-169 168l37 37l169 -169l169 170l37 -37l-170 -169z" />
    <glyph glyph-name="Oslash" unicode="&#xd8;" horiz-adv-x="709" 
d="M663 315q0 -143 -87 -235.5t-220 -92.5q-75 0 -143 34l-50 -88h-52q4 7 10.5 18.5t20.5 35.5t24 40l9 16q-59 44 -92.5 113t-33.5 155q0 143 87 235t221 92q74 0 142 -34l51 88h52l-64 -110q58 -43 91.5 -112t33.5 -155zM470 553q-53 28 -116 28q-106 0 -173.5 -74
t-67.5 -192q0 -140 93 -218zM507 528l-265 -456q54 -28 116 -28q105 0 172.5 74.5t67.5 192.5q0 141 -91 217z" />
    <glyph glyph-name="Ugrave" unicode="&#xd9;" horiz-adv-x="616" 
d="M544 239q0 -118 -61 -185t-176 -67q-111 0 -172.5 65t-61.5 177v396h62v-388q0 -91 44.5 -141t130.5 -50q83 0 127 49t44 143v1v1v1v1v1v1v1v1v1v1v1v1v1v1v1v1v1v1v1v1v1v1v1v1v1v1v1v1v1v1v1v1v1v1v1v1v1v1v1v1v1v1v1v1v1v1v1v1v1v1v1v1v1v1v1v1v1v1v1v1v1v1v1v1v1v1v1
v1v1v1v2v1v1v1v1v1v1v1v1v1v1v2v1v1v1v1v1v1v2v1v1v1v1v1v2v1v1v1v1v2v1v1v1v2v1v1v1v2v1v1v1v2v1v1v1v2v1v1v2v1v1v2v1v1v2v1v1v2v1v1v2v1v1v2v1v2v1v1v2v1v2v1v1v2v1v2v1v1v2v1v2v1v2v1v2v1v1v2v1v2v1v2v1v2v1v2v1v2v1v2v1v2v1v2v1v2v2v1v2v1v2v1v2v1v2v2v1v2v1v2v2v1v2v1
v2v2v1v2v1v2v2v1v2v2v1v2v1v2v2v1v2v2v1v2v2v1v2v2v2v1v2v2v1v2v2v2v1v2v2v1v2v2v2v1v2v2v2v1v2v2v2v1v2v2v2v2v1v2v2v2v2v1v2v2v2v2v1v2v2v2v2v2v1v2v2v2v2v2v2v1v2v2v2v2v9h63v-386zM347 685h-46l-152 179h80z" />
    <glyph glyph-name="Uacute" unicode="&#xda;" horiz-adv-x="616" 
d="M544 239q0 -118 -61 -185t-176 -67q-111 0 -172.5 65t-61.5 177v396h62v-388q0 -91 44.5 -141t130.5 -50q83 0 127 49t44 143v1v1v1v1v1v1v1v1v1v1v1v1v1v1v1v1v1v1v1v1v1v1v1v1v1v1v1v1v1v1v1v1v1v1v1v1v1v1v1v1v1v1v1v1v1v1v1v1v1v1v1v1v1v1v1v1v1v1v1v1v1v1v1v1v1v1v1
v1v1v1v2v1v1v1v1v1v1v1v1v1v1v2v1v1v1v1v1v1v2v1v1v1v1v1v2v1v1v1v1v2v1v1v1v2v1v1v1v2v1v1v1v2v1v1v1v2v1v1v2v1v1v2v1v1v2v1v1v2v1v1v2v1v1v2v1v2v1v1v2v1v2v1v1v2v1v2v1v1v2v1v2v1v2v1v2v1v1v2v1v2v1v2v1v2v1v2v1v2v1v2v1v2v1v2v1v2v2v1v2v1v2v1v2v1v2v2v1v2v1v2v2v1v2v1
v2v2v1v2v1v2v2v1v2v2v1v2v1v2v2v1v2v2v1v2v2v1v2v2v2v1v2v2v1v2v2v2v1v2v2v1v2v2v2v1v2v2v2v1v2v2v2v1v2v2v2v2v1v2v2v2v2v1v2v2v2v2v1v2v2v2v2v2v1v2v2v2v2v2v2v1v2v2v2v2v9h63v-386zM464 864l-152 -179h-46l118 179h80z" />
    <glyph glyph-name="Ucircumflex" unicode="&#xdb;" horiz-adv-x="616" 
d="M544 239q0 -118 -61 -185t-176 -67q-111 0 -172.5 65t-61.5 177v396h62v-388q0 -91 44.5 -141t130.5 -50q83 0 127 49t44 143v1v1v1v1v1v1v1v1v1v1v1v1v1v1v1v1v1v1v1v1v1v1v1v1v1v1v1v1v1v1v1v1v1v1v1v1v1v1v1v1v1v1v1v1v1v1v1v1v1v1v1v1v1v1v1v1v1v1v1v1v1v1v1v1v1v1v1
v1v1v1v2v1v1v1v1v1v1v1v1v1v1v2v1v1v1v1v1v1v2v1v1v1v1v1v2v1v1v1v1v2v1v1v1v2v1v1v1v2v1v1v1v2v1v1v1v2v1v1v2v1v1v2v1v1v2v1v1v2v1v1v2v1v1v2v1v2v1v1v2v1v2v1v1v2v1v2v1v1v2v1v2v1v2v1v2v1v1v2v1v2v1v2v1v2v1v2v1v2v1v2v1v2v1v2v1v2v2v1v2v1v2v1v2v1v2v2v1v2v1v2v2v1v2v1
v2v2v1v2v1v2v2v1v2v2v1v2v1v2v2v1v2v2v1v2v2v1v2v2v2v1v2v2v1v2v2v2v1v2v2v1v2v2v2v1v2v2v2v1v2v2v2v1v2v2v2v2v1v2v2v2v2v1v2v2v2v2v1v2v2v2v2v2v1v2v2v2v2v2v2v1v2v2v2v2v9h63v-386zM457 685h-47l-100 135h-1l-101 -135h-47l113 182h70z" />
    <glyph glyph-name="Udieresis" unicode="&#xdc;" horiz-adv-x="616" 
d="M544 239q0 -118 -61 -185t-176 -67q-111 0 -172.5 65t-61.5 177v396h62v-388q0 -91 44.5 -141t130.5 -50q83 0 127 49t44 143v1v1v1v1v1v1v1v1v1v1v1v1v1v1v1v1v1v1v1v1v1v1v1v1v1v1v1v1v1v1v1v1v1v1v1v1v1v1v1v1v1v1v1v1v1v1v1v1v1v1v1v1v1v1v1v1v1v1v1v1v1v1v1v1v1v1v1
v1v1v1v2v1v1v1v1v1v1v1v1v1v1v2v1v1v1v1v1v1v2v1v1v1v1v1v2v1v1v1v1v2v1v1v1v2v1v1v1v2v1v1v1v2v1v1v1v2v1v1v2v1v1v2v1v1v2v1v1v2v1v1v2v1v1v2v1v2v1v1v2v1v2v1v1v2v1v2v1v1v2v1v2v1v2v1v2v1v1v2v1v2v1v2v1v2v1v2v1v2v1v2v1v2v1v2v1v2v2v1v2v1v2v1v2v1v2v2v1v2v1v2v2v1v2v1
v2v2v1v2v1v2v2v1v2v2v1v2v1v2v2v1v2v2v1v2v2v1v2v2v2v1v2v2v1v2v2v2v1v2v2v1v2v2v2v1v2v2v2v1v2v2v2v1v2v2v2v2v1v2v2v2v2v1v2v2v2v2v1v2v2v2v2v2v1v2v2v2v2v2v2v1v2v2v2v2v9h63v-386zM453 760q0 -21 -13 -35.5t-34 -14.5t-35 14.5t-14 35.5q0 20 14 34.5t35 14.5
q20 0 33.5 -14.5t13.5 -34.5zM260 760q0 -21 -13.5 -35.5t-34.5 -14.5t-34 14.5t-13 35.5q0 20 13.5 34.5t33.5 14.5q21 0 34.5 -14.5t13.5 -34.5z" />
    <glyph glyph-name="Yacute" unicode="&#xdd;" horiz-adv-x="524" 
d="M512 625l-218 -374v-251h-64v251l-218 374h72l180 -311l177 311h71zM426 864l-152 -179h-46l118 179h80z" />
    <glyph glyph-name="Thorn" unicode="&#xde;" horiz-adv-x="516" 
d="M481 322q0 -101 -66.5 -154t-185.5 -55l-85 -1v-112h-64v625h64v-107h93q120 0 182 -53t62 -143zM415 320q0 67 -46.5 103t-133.5 36h-91v-287l89 1q182 3 182 147z" />
    <glyph glyph-name="germandbls" unicode="&#xdf;" horiz-adv-x="549" 
d="M85 0v399l-74 5l4 39l69 16l1 58q0 91 47.5 135t119.5 44q73 0 117.5 -42t44.5 -108q0 -29 -14.5 -56t-31.5 -43.5t-31.5 -35t-14.5 -33.5q0 -24 14.5 -44t36 -33t47 -30t47 -33.5t36 -45t14.5 -63.5q0 -66 -43.5 -104t-115.5 -38q-79 0 -143 41l17 57q66 -44 127 -44
q43 0 69 21.5t26 61.5q0 28 -14 50t-35.5 35t-46 28.5t-46 30.5t-35.5 40.5t-14 57.5q0 28 13.5 52t30 38.5t30 37t13.5 47.5q0 45 -26 73t-72 28q-50 0 -78 -31t-28 -88v-523h-61z" />
    <glyph glyph-name="agrave" unicode="&#xe0;" horiz-adv-x="439" 
d="M251 518h-46l-152 179h80zM311 101v134q-115 -13 -164 -40t-49 -74q0 -36 26.5 -58t67.5 -22q66 0 119 60zM315 55h-3q-55 -68 -134 -68q-63 0 -104 36t-41 91q0 147 278 163v27q0 109 -108 109q-36 0 -77.5 -16t-72.5 -39l-14 58q33 23 80 39t90 16q165 0 164 -164v-220
q0 -27 9 -37t37 -9l-4 -51q-89 -6 -100 65z" />
    <glyph glyph-name="aacute" unicode="&#xe1;" horiz-adv-x="439" 
d="M311 101v134q-115 -13 -164 -40t-49 -74q0 -36 26.5 -58t67.5 -22q66 0 119 60zM315 55h-3q-55 -68 -134 -68q-63 0 -104 36t-41 91q0 147 278 163v27q0 109 -108 109q-36 0 -77.5 -16t-72.5 -39l-14 58q33 23 80 39t90 16q165 0 164 -164v-220q0 -27 9 -37t37 -9l-4 -51
q-89 -6 -100 65zM360 697l-152 -179h-46l118 179h80z" />
    <glyph glyph-name="acircumflex" unicode="&#xe2;" horiz-adv-x="439" 
d="M311 101v134q-115 -13 -164 -40t-49 -74q0 -36 26.5 -58t67.5 -22q66 0 119 60zM315 55h-3q-55 -68 -134 -68q-63 0 -104 36t-41 91q0 147 278 163v27q0 109 -108 109q-36 0 -77.5 -16t-72.5 -39l-14 58q33 23 80 39t90 16q165 0 164 -164v-220q0 -27 9 -37t37 -9l-4 -51
q-89 -6 -100 65zM358 518h-47l-100 135h-1l-101 -135h-47l113 182h70z" />
    <glyph glyph-name="atilde" unicode="&#xe3;" horiz-adv-x="439" 
d="M311 101v134q-115 -13 -164 -40t-49 -74q0 -36 26.5 -58t67.5 -22q66 0 119 60zM315 55h-3q-55 -68 -134 -68q-63 0 -104 36t-41 91q0 147 278 163v27q0 109 -108 109q-36 0 -77.5 -16t-72.5 -39l-14 58q33 23 80 39t90 16q165 0 164 -164v-220q0 -27 9 -37t37 -9l-4 -51
q-89 -6 -100 65zM372 637q-16 -115 -89 -115q-32 0 -83 35.5t-67 35.5q-15 0 -25.5 -14t-19.5 -51h-1h-1h-1h-1h-1h-1h-1h-1h-1h-1h-1h-2h-1h-1h-2h-1h-2h-2h-1h-2h-2h-2h-1h-2h-9q16 115 89 115q32 0 84 -36t67 -36t25 14.5t19 51.5h1h1h1h1h1h1h2h1h1h1h1h2h1h2h1h2h1h2h1
h2h2h1h2h10z" />
    <glyph glyph-name="adieresis" unicode="&#xe4;" horiz-adv-x="439" 
d="M311 101v134q-115 -13 -164 -40t-49 -74q0 -36 26.5 -58t67.5 -22q66 0 119 60zM315 55h-3q-55 -68 -134 -68q-63 0 -104 36t-41 91q0 147 278 163v27q0 109 -108 109q-36 0 -77.5 -16t-72.5 -39l-14 58q33 23 80 39t90 16q165 0 164 -164v-220q0 -27 9 -37t37 -9l-4 -51
q-89 -6 -100 65zM354 593q0 -21 -13 -35.5t-34 -14.5t-35 14.5t-14 35.5q0 20 14 34.5t35 14.5q20 0 33.5 -14.5t13.5 -34.5zM161 593q0 -21 -13.5 -35.5t-34.5 -14.5t-34 14.5t-13 35.5q0 20 13.5 34.5t33.5 14.5q21 0 34.5 -14.5t13.5 -34.5z" />
    <glyph glyph-name="aring" unicode="&#xe5;" horiz-adv-x="439" 
d="M311 101v134q-115 -13 -164 -40t-49 -74q0 -36 26.5 -58t67.5 -22q66 0 119 60zM315 55h-3q-55 -68 -134 -68q-63 0 -104 36t-41 91q0 147 278 163v27q0 109 -108 109q-36 0 -77.5 -16t-72.5 -39l-14 58q33 23 80 39t90 16q165 0 164 -164v-220q0 -27 9 -37t37 -9l-4 -51
q-89 -6 -100 65zM329 618q0 -44 -32.5 -73.5t-86.5 -29.5q-53 0 -85.5 29.5t-32.5 73.5t32.5 74t85.5 30q54 0 86 -30t33 -74zM285 617q0 29 -20.5 49t-54.5 20q-32 0 -52.5 -19.5t-20.5 -47.5t20.5 -48t52.5 -20q34 0 54.5 19t20.5 47z" />
    <glyph glyph-name="ae" unicode="&#xe6;" horiz-adv-x="737" 
d="M346 85q-29 -42 -77.5 -70t-98.5 -28q-61 0 -99 35.5t-38 88.5q0 150 278 161l1 25q1 60 -26 87.5t-85 27.5q-72 0 -146 -54l-17 55q80 58 168 58q123 0 150 -88q60 88 168 88q76 0 121.5 -46t45.5 -123q0 -40 -10 -73l-310 -2v-5q2 -78 45.5 -127.5t114.5 -49.5
q75 0 133 38l12 -57q-63 -39 -147 -39q-60 0 -107.5 26t-75.5 72zM375 276l254 1q2 10 2 20q0 54 -29 86t-82 32q-59 0 -98 -39.5t-47 -99.5zM310 229q-213 -15 -213 -111q0 -35 24.5 -55t64.5 -20q35 0 74.5 20.5t67.5 56.5q-18 47 -18 109z" />
    <glyph glyph-name="ccedilla" unicode="&#xe7;" horiz-adv-x="451" 
d="M240 -12q-91 9 -144.5 74.5t-53.5 165.5q0 107 63.5 175t161.5 68q82 0 143 -39l-16 -56q-56 37 -127 37q-74 0 -117.5 -50.5t-43.5 -132.5q0 -84 44.5 -134.5t117.5 -50.5q69 0 127 38l13 -57q-53 -32 -118 -38l-57 -56q55 2 88.5 -19.5t33.5 -62.5q0 -43 -40.5 -72
t-119.5 -38l-5 42q115 6 115 63q0 32 -34.5 43t-96.5 -1l-6 30z" />
    <glyph glyph-name="egrave" unicode="&#xe8;" horiz-adv-x="470" 
d="M284 518h-46l-152 179h80zM105 227v-5q2 -78 45.5 -127.5t114.5 -49.5q75 0 133 38l12 -57q-63 -39 -147 -39q-98 0 -159.5 66.5t-61.5 171.5q0 108 61.5 177t154.5 69q76 0 121.5 -46t45.5 -123q0 -40 -10 -73zM109 276l254 1q1 5 1 20q0 54 -28.5 86t-81.5 32
q-59 0 -98 -39.5t-47 -99.5z" />
    <glyph glyph-name="eacute" unicode="&#xe9;" horiz-adv-x="470" 
d="M105 227v-5q2 -78 45.5 -127.5t114.5 -49.5q75 0 133 38l12 -57q-63 -39 -147 -39q-98 0 -159.5 66.5t-61.5 171.5q0 108 61.5 177t154.5 69q76 0 121.5 -46t45.5 -123q0 -40 -10 -73zM109 276l254 1q1 5 1 20q0 54 -28.5 86t-81.5 32q-59 0 -98 -39.5t-47 -99.5z
M409 697l-152 -179h-46l118 179h80z" />
    <glyph glyph-name="ecircumflex" unicode="&#xea;" horiz-adv-x="470" 
d="M105 227v-5q2 -78 45.5 -127.5t114.5 -49.5q75 0 133 38l12 -57q-63 -39 -147 -39q-98 0 -159.5 66.5t-61.5 171.5q0 108 61.5 177t154.5 69q76 0 121.5 -46t45.5 -123q0 -40 -10 -73zM109 276l254 1q1 5 1 20q0 54 -28.5 86t-81.5 32q-59 0 -98 -39.5t-47 -99.5z
M381 518h-47l-100 135h-1l-101 -135h-47l113 182h70z" />
    <glyph glyph-name="edieresis" unicode="&#xeb;" horiz-adv-x="470" 
d="M105 227v-5q2 -78 45.5 -127.5t114.5 -49.5q75 0 133 38l12 -57q-63 -39 -147 -39q-98 0 -159.5 66.5t-61.5 171.5q0 108 61.5 177t154.5 69q76 0 121.5 -46t45.5 -123q0 -40 -10 -73zM109 276l254 1q1 5 1 20q0 54 -28.5 86t-81.5 32q-59 0 -98 -39.5t-47 -99.5z
M382 593q0 -21 -13 -35.5t-34 -14.5t-35 14.5t-14 35.5q0 20 14 34.5t35 14.5q20 0 33.5 -14.5t13.5 -34.5zM189 593q0 -21 -13.5 -35.5t-34.5 -14.5t-34 14.5t-13 35.5q0 20 13.5 34.5t33.5 14.5q21 0 34.5 -14.5t13.5 -34.5z" />
    <glyph glyph-name="igrave" unicode="&#xec;" horiz-adv-x="209" 
d="M133 518h-46l-152 179h80zM137 0h-62v453l62 13v-466z" />
    <glyph glyph-name="iacute" unicode="&#xed;" horiz-adv-x="209" 
d="M275 697l-152 -179h-46l118 179h80zM137 0h-62v453l62 13v-466z" />
    <glyph glyph-name="icircumflex" unicode="&#xee;" horiz-adv-x="209" 
d="M137 0h-62v453l62 13v-466zM255 518h-47l-100 135h-1l-101 -135h-47l113 182h70z" />
    <glyph glyph-name="idieresis" unicode="&#xef;" horiz-adv-x="209" 
d="M251 593q0 -21 -13 -35.5t-34 -14.5t-35 14.5t-14 35.5q0 20 14 34.5t35 14.5q20 0 33.5 -14.5t13.5 -34.5zM58 593q0 -21 -13.5 -35.5t-34.5 -14.5t-34 14.5t-13 35.5q0 20 13.5 34.5t33.5 14.5q21 0 34.5 -14.5t13.5 -34.5zM137 0h-62v453l62 13v-466z" />
    <glyph glyph-name="eth" unicode="&#xf0;" horiz-adv-x="525" 
d="M482 245q0 -114 -57.5 -186t-163.5 -72q-97 0 -158 62t-61 158q0 103 62 165t144 62q81 0 142 -54h1q-32 79 -134 184l-117 -32l-12 46l91 25q-51 47 -88 76q68 17 69 17q43 -33 85 -75l105 28l12 -46q-79 -21 -80 -21q160 -177 160 -337zM421 235q0 45 -18 94
q-21 21 -60.5 35t-82.5 14q-68 0 -110 -45t-42 -119q0 -77 43 -124t112 -47q74 0 116 51.5t42 140.5z" />
    <glyph glyph-name="ntilde" unicode="&#xf1;" horiz-adv-x="505" 
d="M436 0h-62v296q0 60 -24.5 88t-76.5 28q-74 0 -139 -65v-347h-62v458l62 13v-75q75 75 156 75q69 0 107.5 -41t38.5 -116v-314zM416 637q-16 -115 -89 -115q-32 0 -83 35.5t-67 35.5q-15 0 -25.5 -14t-19.5 -51h-1h-1h-1h-1h-1h-1h-1h-1h-1h-1h-1h-2h-1h-1h-2h-1h-2h-2
h-1h-2h-2h-2h-1h-2h-9q16 115 89 115q32 0 84 -36t67 -36t25 14.5t19 51.5h1h1h1h1h1h1h2h1h1h1h1h2h1h2h1h2h1h2h1h2h2h1h2h10z" />
    <glyph glyph-name="ograve" unicode="&#xf2;" horiz-adv-x="531" 
d="M311 518h-46l-152 179h80zM488 230q0 -108 -64 -175.5t-161 -67.5t-159 66t-62 175q0 108 64.5 175.5t161.5 67.5t158.5 -66t61.5 -175zM427 228q0 84 -44.5 135.5t-117.5 51.5q-72 0 -116.5 -51.5t-44.5 -133.5q0 -84 44.5 -135.5t117.5 -51.5q72 0 116.5 51.5
t44.5 133.5z" />
    <glyph glyph-name="oacute" unicode="&#xf3;" horiz-adv-x="531" 
d="M488 230q0 -108 -64 -175.5t-161 -67.5t-159 66t-62 175q0 108 64.5 175.5t161.5 67.5t158.5 -66t61.5 -175zM427 228q0 84 -44.5 135.5t-117.5 51.5q-72 0 -116.5 -51.5t-44.5 -133.5q0 -84 44.5 -135.5t117.5 -51.5q72 0 116.5 51.5t44.5 133.5zM422 697l-152 -179h-46
l118 179h80z" />
    <glyph glyph-name="ocircumflex" unicode="&#xf4;" horiz-adv-x="531" 
d="M488 230q0 -108 -64 -175.5t-161 -67.5t-159 66t-62 175q0 108 64.5 175.5t161.5 67.5t158.5 -66t61.5 -175zM427 228q0 84 -44.5 135.5t-117.5 51.5q-72 0 -116.5 -51.5t-44.5 -133.5q0 -84 44.5 -135.5t117.5 -51.5q72 0 116.5 51.5t44.5 133.5zM415 518h-47l-100 135
h-1l-101 -135h-47l113 182h70z" />
    <glyph glyph-name="otilde" unicode="&#xf5;" horiz-adv-x="531" 
d="M488 230q0 -108 -64 -175.5t-161 -67.5t-159 66t-62 175q0 108 64.5 175.5t161.5 67.5t158.5 -66t61.5 -175zM427 228q0 84 -44.5 135.5t-117.5 51.5q-72 0 -116.5 -51.5t-44.5 -133.5q0 -84 44.5 -135.5t117.5 -51.5q72 0 116.5 51.5t44.5 133.5zM429 637
q-16 -115 -89 -115q-32 0 -83 35.5t-67 35.5q-15 0 -25.5 -14t-19.5 -51h-1h-1h-1h-1h-1h-1h-1h-1h-1h-1h-1h-2h-1h-1h-2h-1h-2h-2h-1h-2h-2h-2h-1h-2h-9q16 115 89 115q32 0 84 -36t67 -36t25 14.5t19 51.5h1h1h1h1h1h1h2h1h1h1h1h2h1h2h1h2h1h2h1h2h2h1h2h10z" />
    <glyph glyph-name="odieresis" unicode="&#xf6;" horiz-adv-x="531" 
d="M488 230q0 -108 -64 -175.5t-161 -67.5t-159 66t-62 175q0 108 64.5 175.5t161.5 67.5t158.5 -66t61.5 -175zM427 228q0 84 -44.5 135.5t-117.5 51.5q-72 0 -116.5 -51.5t-44.5 -133.5q0 -84 44.5 -135.5t117.5 -51.5q72 0 116.5 51.5t44.5 133.5zM411 593
q0 -21 -13 -35.5t-34 -14.5t-35 14.5t-14 35.5q0 20 14 34.5t35 14.5q20 0 33.5 -14.5t13.5 -34.5zM218 593q0 -21 -13.5 -35.5t-34.5 -14.5t-34 14.5t-13 35.5q0 20 13.5 34.5t33.5 14.5q21 0 34.5 -14.5t13.5 -34.5z" />
    <glyph glyph-name="divide" unicode="&#xf7;" horiz-adv-x="486" 
d="M446 208h-405l3 54h399zM296 94q0 -21 -14.5 -36.5t-36.5 -15.5t-37 15.5t-15 36.5t15 36t37 15t36.5 -15t14.5 -36zM296 374q0 -21 -15 -36.5t-37 -15.5t-36.5 15.5t-14.5 36.5t14.5 36.5t36.5 15.5t37 -15.5t15 -36.5z" />
    <glyph glyph-name="oslash" unicode="&#xf8;" horiz-adv-x="531" 
d="M490 230q0 -108 -64 -175.5t-161 -67.5q-52 0 -98 22l-44 -76h-53q4 6 10 16.5t18.5 33t20.5 37.5l8 14q-83 67 -83 194q0 108 64 175.5t162 67.5q53 0 98 -21l44 76h53l-58 -101q83 -68 83 -195zM339 399q-31 16 -73 16q-72 0 -116.5 -51.5t-44.5 -133.5q0 -94 53 -145z
M429 228q0 92 -53 145l-181 -314q35 -16 73 -16q72 0 116.5 51.5t44.5 133.5z" />
    <glyph glyph-name="ugrave" unicode="&#xf9;" horiz-adv-x="504" 
d="M291 518h-46l-152 179h80zM68 458h62v-296q0 -116 99 -116q78 0 141 65v347h62v-458l-62 -13v74q-72 -74 -158 -74q-67 0 -105.5 41.5t-38.5 115.5v314z" />
    <glyph glyph-name="uacute" unicode="&#xfa;" horiz-adv-x="504" 
d="M68 458h62v-296q0 -116 99 -116q78 0 141 65v347h62v-458l-62 -13v74q-72 -74 -158 -74q-67 0 -105.5 41.5t-38.5 115.5v314zM409 697l-152 -179h-46l118 179h80z" />
    <glyph glyph-name="ucircumflex" unicode="&#xfb;" horiz-adv-x="504" 
d="M68 458h62v-296q0 -116 99 -116q78 0 141 65v347h62v-458l-62 -13v74q-72 -74 -158 -74q-67 0 -105.5 41.5t-38.5 115.5v314zM401 518h-47l-100 135h-1l-101 -135h-47l113 182h70z" />
    <glyph glyph-name="udieresis" unicode="&#xfc;" horiz-adv-x="504" 
d="M68 458h62v-296q0 -116 99 -116q78 0 141 65v347h62v-458l-62 -13v74q-72 -74 -158 -74q-67 0 -105.5 41.5t-38.5 115.5v314zM393 593q0 -21 -13 -35.5t-34 -14.5t-35 14.5t-14 35.5q0 20 14 34.5t35 14.5q20 0 33.5 -14.5t13.5 -34.5zM200 593q0 -21 -13.5 -35.5
t-34.5 -14.5t-34 14.5t-13 35.5q0 20 13.5 34.5t33.5 14.5q21 0 34.5 -14.5t13.5 -34.5z" />
    <glyph glyph-name="yacute" unicode="&#xfd;" horiz-adv-x="424" 
d="M420 458l-178 -453l-37 -99q-30 -81 -64.5 -112.5t-83.5 -31.5q-40 0 -89 21l19 57q37 -20 70 -20q28 0 49.5 22t44.5 84l31 81l-179 451h67l144 -378l141 378h65zM370 697l-152 -179h-46l118 179h80z" />
    <glyph glyph-name="thorn" unicode="&#xfe;" horiz-adv-x="512" 
d="M134 11v-251h-62v914l62 13v-272q63 53 131 53q94 0 150.5 -66t56.5 -171q0 -107 -63.5 -175.5t-162.5 -68.5q-61 0 -112 24zM134 360v-1v-1v-1v-1v-1v-1v-1v-1v-1v-1v-1v-1v-1v-1v-1v-1v-1v-1v-1v-1v-1v-1v-1v-1v-1v-1v-1v-1v-1v-1v-1v-1v-1v-1v-1v-1v-1v-1v-1v-1v-1v-1
v-1v-1v-1v-1v-1v-1v-1v-2v-1v-1v-1v-1v-1v-1v-1v-1v-1v-1v-2v-1v-1v-1v-1v-1v-2v-1v-1v-1v-1v-2v-1v-1v-1v-1v-2v-1v-1v-1v-2v-1v-1v-2v-1v-1v-1v-2v-1v-1v-2v-1v-1v-2v-1v-2v-1v-1v-2v-1v-1v-2v-1v-2v-1v-1v-2v-1v-2v-1v-2v-1v-2v-1v-2v-1v-1v-2v-1v-2v-1v-2v-1v-2v-2v-1
v-2v-1v-2v-1v-2v-1v-2v-1v-2v-2v-1v-2v-1v-2v-2v-1v-2v-1v-2v-2v-1v-2v-2v-1v-2v-2v-1v-2v-2v-1v-2v-2v-1v-2v-2v-1v-2v-2v-1v-2v-2v-2v-1v-2v-2v-2v-1v-2v-2v-2v-1v-2v-2v-2v-2v-1v-2v-2v-2v-2v-1v-2v-2v-2v-2v-2v-1v-2v-2v-2v-2v-2v-8q46 -36 115 -36q72 0 115.5 52.5
t43.5 134.5q0 80 -41 130.5t-110 50.5q-67 0 -123 -51z" />
    <glyph glyph-name="ydieresis" unicode="&#xff;" horiz-adv-x="424" 
d="M420 458l-178 -453l-37 -99q-30 -81 -64.5 -112.5t-83.5 -31.5q-40 0 -89 21l19 57q37 -20 70 -20q28 0 49.5 22t44.5 84l31 81l-179 451h67l144 -378l141 378h65zM357 593q0 -21 -13 -35.5t-34 -14.5t-35 14.5t-14 35.5q0 20 14 34.5t35 14.5q20 0 33.5 -14.5
t13.5 -34.5zM164 593q0 -21 -13.5 -35.5t-34.5 -14.5t-34 14.5t-13 35.5q0 20 13.5 34.5t33.5 14.5q21 0 34.5 -14.5t13.5 -34.5z" />
    <glyph glyph-name="Amacron" unicode="&#x100;" horiz-adv-x="575" 
d="M327 625l233 -625h-65l-66 179h-283l-66 -179h-65l237 625h75zM407 237l-119 325l-120 -325h239zM414 703h-255l3 45h248z" />
    <glyph glyph-name="amacron" unicode="&#x101;" horiz-adv-x="439" 
d="M311 101v134q-115 -13 -164 -40t-49 -74q0 -36 26.5 -58t67.5 -22q66 0 119 60zM315 55h-3q-55 -68 -134 -68q-63 0 -104 36t-41 91q0 147 278 163v27q0 109 -108 109q-36 0 -77.5 -16t-72.5 -39l-14 58q33 23 80 39t90 16q165 0 164 -164v-220q0 -27 9 -37t37 -9l-4 -51
q-89 -6 -100 65zM337 536h-255l3 45h248z" />
    <glyph glyph-name="Abreve" unicode="&#x102;" horiz-adv-x="575" 
d="M327 625l233 -625h-65l-66 179h-283l-66 -179h-65l237 625h75zM407 237l-119 325l-120 -325h239zM435 866q-14 -79 -50 -130.5t-99 -51.5t-99 51.5t-50 130.5h49q31 -133 100 -133q70 0 100 133h49z" />
    <glyph glyph-name="abreve" unicode="&#x103;" horiz-adv-x="439" 
d="M311 101v134q-115 -13 -164 -40t-49 -74q0 -36 26.5 -58t67.5 -22q66 0 119 60zM315 55h-3q-55 -68 -134 -68q-63 0 -104 36t-41 91q0 147 278 163v27q0 109 -108 109q-36 0 -77.5 -16t-72.5 -39l-14 58q33 23 80 39t90 16q165 0 164 -164v-220q0 -27 9 -37t37 -9l-4 -51
q-89 -6 -100 65zM366 699q-14 -79 -50 -130.5t-99 -51.5t-99 51.5t-50 130.5h49q31 -133 100 -133q70 0 100 133h49z" />
    <glyph glyph-name="Aogonek" unicode="&#x104;" horiz-adv-x="575" 
d="M327 625l233 -625q-45 -9 -78 -42t-33 -65q0 -24 12.5 -38t34.5 -14q28 0 50 17l16 -47q-35 -25 -79 -25q-41 0 -68 24.5t-27 65.5q0 44 30.5 79.5t72.5 54.5l-62 170h-283l-66 -180h-65l237 625h75zM408 237l-119 326l-121 -326h240z" />
    <glyph glyph-name="aogonek" unicode="&#x105;" horiz-adv-x="439" 
d="M315 56h-2q-57 -69 -135 -69q-62 0 -103 36t-41 91q0 147 277 163v27q0 55 -25.5 82.5t-81.5 27.5q-74 0 -151 -55l-13 57q33 23 79.5 39t89.5 16q165 0 164 -164v-220q0 -27 9 -37t37 -9l-4 -51q-48 -1 -80 -28.5t-32 -68.5q0 -24 12.5 -38t34.5 -14q28 0 50 17l16 -47
q-35 -25 -79 -25q-41 0 -68 24.5t-27 65.5q0 44 29.5 80.5t71.5 50.5q-23 14 -28 49zM311 101v135q-115 -13 -164 -40.5t-49 -74.5q0 -36 26.5 -58t67.5 -22q68 0 119 60z" />
    <glyph glyph-name="Cacute" unicode="&#x106;" horiz-adv-x="586" 
d="M441 864l-152 -179h-46l118 179h80zM542 587l-20 -57q-78 50 -174 50q-105 0 -170.5 -71t-65.5 -196q0 -123 65 -195.5t173 -72.5q100 0 175 56l12 -63q-78 -51 -188 -51q-136 0 -219 88t-83 236t84.5 237.5t217.5 89.5q109 0 193 -51z" />
    <glyph glyph-name="cacute" unicode="&#x107;" horiz-adv-x="451" 
d="M372 697l-152 -179h-46l118 179h80zM408 26q-63 -39 -142 -39q-102 0 -163 66.5t-61 174.5q0 107 63.5 175t161.5 68q82 0 143 -39l-16 -56q-56 37 -127 37q-74 0 -117.5 -50.5t-43.5 -132.5q0 -84 44.5 -134.5t117.5 -50.5q69 0 127 38z" />
    <glyph glyph-name="Ccircumflex" unicode="&#x108;" horiz-adv-x="586" 
d="M470 685h-47l-100 135h-1l-101 -135h-47l113 182h70zM542 587l-20 -57q-78 50 -174 50q-105 0 -170.5 -71t-65.5 -196q0 -123 65 -195.5t173 -72.5q100 0 175 56l12 -63q-78 -51 -188 -51q-136 0 -219 88t-83 236t84.5 237.5t217.5 89.5q109 0 193 -51z" />
    <glyph glyph-name="ccircumflex" unicode="&#x109;" horiz-adv-x="451" 
d="M400 518h-47l-100 135h-1l-101 -135h-47l113 182h70zM408 26q-63 -39 -142 -39q-102 0 -163 66.5t-61 174.5q0 107 63.5 175t161.5 68q82 0 143 -39l-16 -56q-56 37 -127 37q-74 0 -117.5 -50.5t-43.5 -132.5q0 -84 44.5 -134.5t117.5 -50.5q69 0 127 38z" />
    <glyph glyph-name="Cdotaccent" unicode="&#x10a;" horiz-adv-x="586" 
d="M542 587l-20 -57q-78 50 -174 50q-105 0 -170.5 -71t-65.5 -196q0 -123 65 -195.5t173 -72.5q100 0 175 56l12 -63q-78 -51 -188 -51q-136 0 -219 88t-83 236t84.5 237.5t217.5 89.5q109 0 193 -51zM377 759q0 -20 -13.5 -34.5t-33.5 -14.5t-33 14.5t-13 34.5t13 34
t33 14q21 0 34 -14t13 -34z" />
    <glyph glyph-name="cdotaccent" unicode="&#x10b;" horiz-adv-x="451" 
d="M408 26q-63 -39 -142 -39q-102 0 -163 66.5t-61 174.5q0 107 63.5 175t161.5 68q82 0 143 -39l-16 -56q-56 37 -127 37q-74 0 -117.5 -50.5t-43.5 -132.5q0 -84 44.5 -134.5t117.5 -50.5q69 0 127 38zM306 592q0 -20 -13.5 -34.5t-33.5 -14.5t-33 14.5t-13 34.5t13 34
t33 14q21 0 34 -14t13 -34z" />
    <glyph glyph-name="Ccaron" unicode="&#x10c;" horiz-adv-x="586" 
d="M465 862l-113 -182h-70l-113 182h47l100 -136h1l101 136h47zM542 587l-20 -57q-78 50 -174 50q-105 0 -170.5 -71t-65.5 -196q0 -123 65 -195.5t173 -72.5q100 0 175 56l12 -63q-78 -51 -188 -51q-136 0 -219 88t-83 236t84.5 237.5t217.5 89.5q109 0 193 -51z" />
    <glyph glyph-name="ccaron" unicode="&#x10d;" horiz-adv-x="451" 
d="M390 695l-113 -182h-70l-113 182h47l100 -136h1l101 136h47zM408 26q-63 -39 -142 -39q-102 0 -163 66.5t-61 174.5q0 107 63.5 175t161.5 68q82 0 143 -39l-16 -56q-56 37 -127 37q-74 0 -117.5 -50.5t-43.5 -132.5q0 -84 44.5 -134.5t117.5 -50.5q69 0 127 38z" />
    <glyph glyph-name="Dcaron" unicode="&#x10e;" horiz-adv-x="628" 
d="M422 862l-113 -182h-70l-113 182h47l100 -136h1l101 136h47zM581 317q0 -148 -88.5 -232.5t-247.5 -84.5h-165v625h170q152 0 241.5 -84.5t89.5 -223.5zM517 312q0 119 -71.5 186.5t-199.5 67.5h-102v-507h104q124 0 196.5 64t72.5 189z" />
    <glyph glyph-name="dcaron" unicode="&#x10f;" horiz-adv-x="701" 
d="M551 642q2 21 16 35.5t38 14.5q28 0 49.5 -22.5t21.5 -56.5q0 -92 -124 -172l-27 25q88 64 88 120q0 18 -14 30.5t-48 25.5zM380 443v231l62 13v-687h-62v43q-60 -56 -133 -56q-92 0 -148.5 66.5t-56.5 171.5q0 106 64 174.5t163 68.5q57 0 111 -25zM380 377
q-45 35 -114 35q-73 0 -116.5 -52t-43.5 -134q0 -80 41.5 -131t110.5 -51q68 0 122 51v1v1v1v1v1v1v1v1v1v1v1v1v1v1v1v1v1v1v1v1v1v1v1v1v1v1v1v1v1v1v1v1v1v1v1v1v1v1v1v1v1v1v1v1v1v1v1v1v1v1v1v1v1v1v1v1v1v2v1v1v1v1v1v1v1v2v1v1v1v1v2v1v1v1v1v2v1v1v1v2v1v1v1v2v1v1
v2v1v1v2v1v1v2v1v1v2v1v1v2v1v1v2v1v2v1v1v2v1v2v1v2v1v2v1v1v2v1v2v1v2v1v2v1v2v1v2v1v2v2v1v2v1v2v1v2v1v2v2v1v2v1v2v2v1v2v1v2v2v1v2v2v1v2v2v1v2v2v1v2v2v1v2v2v1v2v2v2v1v2v2v2v1v2v2v2v1v2v2v2v1v2v2v2v2v1v2v2v2v2v1v2v2v2v2v2v2v1v2v2v9z" />
    <glyph glyph-name="Dcroat" unicode="&#x110;" horiz-adv-x="646" 
d="M164 343h175v-56h-175v-228h104q124 0 196.5 64t72.5 189q0 119 -71.5 186.5t-199.5 67.5h-102v-223zM100 287h-84v56h84v282h170q152 0 241.5 -84.5t89.5 -223.5q0 -148 -88.5 -232.5t-247.5 -84.5h-165v287z" />
    <glyph glyph-name="dcroat" unicode="&#x111;" horiz-adv-x="514" 
d="M380 443v98h-126l4 40h122v93l62 13v-106h64l3 -40h-67v-541h-62v43q-60 -56 -133 -56q-92 0 -148.5 66.5t-56.5 171.5q0 106 64 174.5t163 68.5q57 0 111 -25zM380 377q-45 35 -114 35q-73 0 -116.5 -52t-43.5 -134q0 -80 41.5 -131t110.5 -51q68 0 122 51v282z" />
    <glyph glyph-name="Emacron" unicode="&#x112;" horiz-adv-x="507" 
d="M458 0h-378v625h378v-59h-314v-224h262v-58h-262v-225h314v-59zM398 703h-255l3 45h248z" />
    <glyph glyph-name="emacron" unicode="&#x113;" horiz-adv-x="470" 
d="M105 227v-5q2 -78 45.5 -127.5t114.5 -49.5q75 0 133 38l12 -57q-63 -39 -147 -39q-98 0 -159.5 66.5t-61.5 171.5q0 108 61.5 177t154.5 69q76 0 121.5 -46t45.5 -123q0 -40 -10 -73zM109 276l254 1q1 5 1 20q0 54 -28.5 86t-81.5 32q-59 0 -98 -39.5t-47 -99.5z
M375 536h-255l3 45h248z" />
    <glyph glyph-name="Ebreve" unicode="&#x114;" horiz-adv-x="507" 
d="M458 0h-378v625h378v-59h-314v-224h262v-58h-262v-225h314v-59zM426 866q-14 -79 -50 -130.5t-99 -51.5t-99 51.5t-50 130.5h49q31 -133 100 -133q70 0 100 133h49z" />
    <glyph glyph-name="ebreve" unicode="&#x115;" horiz-adv-x="470" 
d="M105 227v-5q2 -78 45.5 -127.5t114.5 -49.5q75 0 133 38l12 -57q-63 -39 -147 -39q-98 0 -159.5 66.5t-61.5 171.5q0 108 61.5 177t154.5 69q76 0 121.5 -46t45.5 -123q0 -40 -10 -73zM109 276l254 1q1 5 1 20q0 54 -28.5 86t-81.5 32q-59 0 -98 -39.5t-47 -99.5z
M397 699q-14 -79 -50 -130.5t-99 -51.5t-99 51.5t-50 130.5h49q31 -133 100 -133q70 0 100 133h49z" />
    <glyph glyph-name="Edotaccent" unicode="&#x116;" horiz-adv-x="507" 
d="M458 0h-378v625h378v-59h-314v-224h262v-58h-262v-225h314v-59zM322 759q0 -20 -13.5 -34.5t-33.5 -14.5t-33 14.5t-13 34.5t13 34t33 14q21 0 34 -14t13 -34z" />
    <glyph glyph-name="edotaccent" unicode="&#x117;" horiz-adv-x="470" 
d="M105 227v-5q2 -78 45.5 -127.5t114.5 -49.5q75 0 133 38l12 -57q-63 -39 -147 -39q-98 0 -159.5 66.5t-61.5 171.5q0 108 61.5 177t154.5 69q76 0 121.5 -46t45.5 -123q0 -40 -10 -73zM109 276l254 1q1 5 1 20q0 54 -28.5 86t-81.5 32q-59 0 -98 -39.5t-47 -99.5z
M299 592q0 -20 -13.5 -34.5t-33.5 -14.5t-33 14.5t-13 34.5t13 34t33 14q21 0 34 -14t13 -34z" />
    <glyph glyph-name="Eogonek" unicode="&#x118;" horiz-adv-x="507" 
d="M458 0h-49q-64 -51 -64 -107q0 -24 12.5 -38t34.5 -14q28 0 50 17l16 -47q-35 -25 -79 -25q-41 0 -68 24.5t-27 65.5q0 71 77 124h-280v625h377v-58h-314v-225h262v-58h-262v-225h314v-59z" />
    <glyph glyph-name="eogonek" unicode="&#x119;" horiz-adv-x="470" 
d="M105 228v-6q2 -78 45.5 -127.5t114.5 -49.5q75 0 133 38l12 -57q-39 -14 -76.5 -54.5t-37.5 -78.5q0 -24 12.5 -38t34.5 -14q28 0 50 17l16 -47q-35 -25 -79 -25q-41 0 -68 24.5t-27 65.5q0 61 68 115q-36 -4 -40 -4q-98 0 -159 66.5t-61 172.5q0 107 61 176t154 69
q76 0 121.5 -45.5t45.5 -123.5q0 -39 -10 -72zM109 276l254 1q2 12 2 21q0 54 -29 86t-82 32q-59 0 -98 -40t-47 -100z" />
    <glyph glyph-name="Ecaron" unicode="&#x11a;" horiz-adv-x="507" 
d="M423 862l-113 -182h-70l-113 182h47l100 -136h1l101 136h47zM458 0h-378v625h378v-59h-314v-224h262v-58h-262v-225h314v-59z" />
    <glyph glyph-name="ecaron" unicode="&#x11b;" horiz-adv-x="470" 
d="M395 695l-113 -182h-70l-113 182h47l100 -136h1l101 136h47zM105 227v-5q2 -78 45.5 -127.5t114.5 -49.5q75 0 133 38l12 -57q-63 -39 -147 -39q-98 0 -159.5 66.5t-61.5 171.5q0 108 61.5 177t154.5 69q76 0 121.5 -46t45.5 -123q0 -40 -10 -73zM109 276l254 1q1 5 1 20
q0 54 -28.5 86t-81.5 32q-59 0 -98 -39.5t-47 -99.5z" />
    <glyph glyph-name="Gcircumflex" unicode="&#x11c;" horiz-adv-x="625" 
d="M467 685h-47l-100 135h-1l-101 -135h-47l113 182h70zM562 49q-92 -62 -213 -62q-136 0 -219 88t-83 236t84.5 237.5t217.5 89.5q113 0 198 -52l-21 -58q-81 52 -178 52q-105 0 -170.5 -71t-65.5 -196q0 -123 65 -195.5t173 -72.5q81 0 150 38v170h-181v58h243v-262z" />
    <glyph glyph-name="gcircumflex" unicode="&#x11d;" horiz-adv-x="468" 
d="M369 518h-47l-100 135h-1l-101 -135h-47l113 182h70zM107 298q0 -51 32 -84t86 -33q52 0 83 33.5t31 86.5t-30.5 86t-86.5 33q-53 0 -84 -34t-31 -88zM161 -13q-41 -11 -67 -36t-26 -54q0 -41 42.5 -67.5t113.5 -26.5q72 0 122 31t50 77q0 39 -34 56t-105 17q-57 0 -96 3
zM107 -1q-62 22 -62 73q0 28 21 51.5t54 35.5q-74 45 -74 140q0 74 50 123t130 49q60 0 108 -27l127 10l3 -62l-101 10q16 -16 26.5 -45.5t10.5 -57.5q0 -73 -50.5 -120.5t-127.5 -47.5q-31 0 -68 13q-51 -21 -51 -55q0 -23 23 -35t81 -12h1h1h1h1h1h1h1h1h1h1h2h1h1h1h2h1
h1h2h1h2h1h2h2h1h2h2h1h2h2h2h2h2h2h2h10q190 0 190 -120q0 -74 -71 -122t-170 -48q-92 0 -149.5 37t-57.5 97q0 39 27.5 70.5t71.5 42.5z" />
    <glyph glyph-name="Gbreve" unicode="&#x11e;" horiz-adv-x="625" 
d="M562 49q-92 -62 -213 -62q-136 0 -219 88t-83 236t84.5 237.5t217.5 89.5q113 0 198 -52l-21 -58q-81 52 -178 52q-105 0 -170.5 -71t-65.5 -196q0 -123 65 -195.5t173 -72.5q81 0 150 38v170h-181v58h243v-262zM472 866q-14 -79 -50 -130.5t-99 -51.5t-99 51.5
t-50 130.5h49q31 -133 100 -133q70 0 100 133h49z" />
    <glyph glyph-name="gbreve" unicode="&#x11f;" horiz-adv-x="468" 
d="M107 298q0 -51 32 -84t86 -33q52 0 83 33.5t31 86.5t-30.5 86t-86.5 33q-53 0 -84 -34t-31 -88zM161 -13q-41 -11 -67 -36t-26 -54q0 -41 42.5 -67.5t113.5 -26.5q72 0 122 31t50 77q0 39 -34 56t-105 17q-57 0 -96 3zM107 -1q-62 22 -62 73q0 28 21 51.5t54 35.5
q-74 45 -74 140q0 74 50 123t130 49q60 0 108 -27l127 10l3 -62l-101 10q16 -16 26.5 -45.5t10.5 -57.5q0 -73 -50.5 -120.5t-127.5 -47.5q-31 0 -68 13q-51 -21 -51 -55q0 -23 23 -35t81 -12h1h1h1h1h1h1h1h1h1h1h2h1h1h1h2h1h1h2h1h2h1h2h2h1h2h2h1h2h2h2h2h2h2h2h10
q190 0 190 -120q0 -74 -71 -122t-170 -48q-92 0 -149.5 37t-57.5 97q0 39 27.5 70.5t71.5 42.5zM382 699q-14 -79 -50 -130.5t-99 -51.5t-99 51.5t-50 130.5h49q31 -133 100 -133q70 0 100 133h49z" />
    <glyph glyph-name="Gdotaccent" unicode="&#x120;" horiz-adv-x="625" 
d="M562 49q-92 -62 -213 -62q-136 0 -219 88t-83 236t84.5 237.5t217.5 89.5q113 0 198 -52l-21 -58q-81 52 -178 52q-105 0 -170.5 -71t-65.5 -196q0 -123 65 -195.5t173 -72.5q81 0 150 38v170h-181v58h243v-262zM385 759q0 -20 -13.5 -34.5t-33.5 -14.5t-33 14.5
t-13 34.5t13 34t33 14q21 0 34 -14t13 -34z" />
    <glyph glyph-name="gdotaccent" unicode="&#x121;" horiz-adv-x="468" 
d="M107 298q0 -51 32 -84t86 -33q52 0 83 33.5t31 86.5t-30.5 86t-86.5 33q-53 0 -84 -34t-31 -88zM161 -13q-41 -11 -67 -36t-26 -54q0 -41 42.5 -67.5t113.5 -26.5q72 0 122 31t50 77q0 39 -34 56t-105 17q-57 0 -96 3zM107 -1q-62 22 -62 73q0 28 21 51.5t54 35.5
q-74 45 -74 140q0 74 50 123t130 49q60 0 108 -27l127 10l3 -62l-101 10q16 -16 26.5 -45.5t10.5 -57.5q0 -73 -50.5 -120.5t-127.5 -47.5q-31 0 -68 13q-51 -21 -51 -55q0 -23 23 -35t81 -12h1h1h1h1h1h1h1h1h1h1h2h1h1h1h2h1h1h2h1h2h1h2h2h1h2h2h1h2h2h2h2h2h2h2h10
q190 0 190 -120q0 -74 -71 -122t-170 -48q-92 0 -149.5 37t-57.5 97q0 39 27.5 70.5t71.5 42.5zM275 592q0 -20 -13.5 -34.5t-33.5 -14.5t-33 14.5t-13 34.5t13 34t33 14q21 0 34 -14t13 -34z" />
    <glyph glyph-name="Gcommaaccent" unicode="&#x122;" horiz-adv-x="625" 
d="M294 -95q1 17 14 29t34 12q26 0 43 -18.5t17 -46.5q0 -71 -92 -131l-23 20q58 43 58 85q0 18 -11.5 29t-39.5 21zM562 49q-92 -62 -213 -62q-136 0 -219 88t-83 236t84.5 237.5t217.5 89.5q113 0 198 -52l-21 -58q-81 52 -178 52q-105 0 -170.5 -71t-65.5 -196
q0 -123 65 -195.5t173 -72.5q81 0 150 38v170h-181v58h243v-262z" />
    <glyph glyph-name="gcommaaccent" unicode="&#x123;" horiz-adv-x="468" 
d="M272 558q-1 -17 -14 -29t-34 -12q-26 0 -43 18.5t-17 46.5q0 71 92 131l23 -20q-58 -43 -58 -85q0 -18 11.5 -29t39.5 -21zM107 298q0 -51 32 -84t86 -33q52 0 83 33.5t31 86.5t-30.5 86t-86.5 33q-53 0 -84 -34t-31 -88zM161 -13q-41 -11 -67 -36t-26 -54
q0 -41 42.5 -67.5t113.5 -26.5q72 0 122 31t50 77q0 39 -34 56t-105 17q-57 0 -96 3zM107 -1q-62 22 -62 73q0 28 21 51.5t54 35.5q-74 45 -74 140q0 74 50 123t130 49q60 0 108 -27l127 10l3 -62l-101 10q16 -16 26.5 -45.5t10.5 -57.5q0 -73 -50.5 -120.5t-127.5 -47.5
q-31 0 -68 13q-51 -21 -51 -55q0 -23 23 -35t81 -12h1h1h1h1h1h1h1h1h1h1h2h1h1h1h2h1h1h2h1h2h1h2h2h1h2h2h1h2h2h2h2h2h2h2h10q190 0 190 -120q0 -74 -71 -122t-170 -48q-92 0 -149.5 37t-57.5 97q0 39 27.5 70.5t71.5 42.5z" />
    <glyph glyph-name="Hcircumflex" unicode="&#x124;" horiz-adv-x="654" 
d="M476 685h-47l-100 135h-1l-101 -135h-47l113 182h70zM574 0h-64v285h-366v-285h-64v625h64v-282h366v282h64v-625z" />
    <glyph glyph-name="hcircumflex" unicode="&#x125;" horiz-adv-x="505" 
d="M256 685h-47l-100 135h-1l-101 -135h-47l113 182h70zM436 0h-62v296q0 116 -98 116q-77 0 -142 -65v-347h-62v674l62 13v-289q73 73 159 73q67 0 105 -41t38 -116v-314z" />
    <glyph glyph-name="Hbar" unicode="&#x126;" horiz-adv-x="654" 
d="M574 0h-63v286h-367v-286h-63v452h-83l4 43h79v130h63v-130h367v130h63v-130h75l4 -43h-79v-452zM144 343h367v109h-367v-109z" />
    <glyph glyph-name="hbar" unicode="&#x127;" horiz-adv-x="505" 
d="M436 0h-61v296q0 116 -99 116q-76 0 -142 -64v-348h-61v541h-67l3 40h64v93l61 13v-106h123l4 -40h-127v-143q73 73 159 73q67 0 105 -41t38 -116v-314z" />
    <glyph glyph-name="Imacron" unicode="&#x12a;" horiz-adv-x="228" 
d="M145 0h-63v625h63v-625zM234 703h-239l2 42h234z" />
    <glyph glyph-name="imacron" unicode="&#x12b;" horiz-adv-x="209" 
d="M137 0h-62v453l62 13v-466zM223 536h-233l3 40h226z" />
    <glyph glyph-name="Ibreve" unicode="&#x12c;" horiz-adv-x="228" 
d="M145 0h-63v625h63v-625zM264 866q-14 -79 -50 -130.5t-99 -51.5t-99 51.5t-50 130.5h49q31 -133 100 -133q70 0 100 133h49z" />
    <glyph glyph-name="ibreve" unicode="&#x12d;" horiz-adv-x="209" 
d="M137 0h-62v453l62 13v-466zM255 699q-14 -79 -50 -130.5t-99 -51.5t-99 51.5t-50 130.5h49q31 -133 100 -133q70 0 100 133h49z" />
    <glyph glyph-name="Iogonek" unicode="&#x12e;" horiz-adv-x="228" 
d="M116 -214q-42 0 -68.5 24.5t-26.5 65.5q0 70 76 124h-15v625h63v-625q-64 -53 -64 -107q0 -24 12.5 -38t34.5 -14q29 0 51 17l15 -47q-33 -25 -78 -25z" />
    <glyph glyph-name="iogonek" unicode="&#x12f;" horiz-adv-x="209" 
d="M106 -214q-42 0 -68.5 24.5t-26.5 65.5q0 72 76 124h-13v458l61 13v-471q-64 -53 -64 -107q0 -24 12.5 -38t34.5 -14q29 0 51 17l15 -47q-33 -25 -78 -25zM146 609q0 -19 -11 -32.5t-31 -13.5q-19 0 -30 13.5t-11 32.5q0 18 11 31t30 13q20 0 31 -13t11 -31z" />
    <glyph glyph-name="Idotaccent" unicode="&#x130;" horiz-adv-x="228" 
d="M145 0h-63v625h63v-625zM161 759q0 -20 -13.5 -34.5t-33.5 -14.5t-33 14.5t-13 34.5t13 34t33 14q21 0 34 -14t13 -34z" />
    <glyph glyph-name="dotlessi" unicode="&#x131;" horiz-adv-x="209" 
d="M137 0h-62v453l62 13v-466z" />
    <glyph glyph-name="Jcircumflex" unicode="&#x134;" horiz-adv-x="414" 
d="M454 685h-47l-100 135h-1l-101 -135h-47l113 182h70zM341 192q0 -96 -46.5 -150.5t-141.5 -54.5q-77 0 -139 39l11 62q69 -43 129 -43q124 0 124 149v431h63v-433z" />
    <glyph glyph-name="jcircumflex" unicode="&#x135;" horiz-adv-x="207" 
d="M27 -250l-43 43q51 26 70.5 63.5t19.5 110.5v1v1v1v1v1v1v1v1v1v1v1v1v1v1v1v1v1v1v1v1v1v1v1v1v1v1v1v1v1v1v1v1v1v1v1v1v1v1v1v1v1v1v1v1v1v1v1v1v1v1v1v1v1v1v1v1v1v1v1v1v1v1v1v1v1v1v1v1v1v1v1v1v1v1v1v1v1v1v1v1v1v1v1v1v1v1v1v1v1v1v1v1v1v1v2v1v1v1v1v1v1v1v1v1
v2v1v1v1v1v1v1v2v1v1v1v1v1v2v1v1v1v1v2v1v1v1v1v2v1v1v1v2v1v1v1v1v2v1v1v2v1v1v1v2v1v1v1v2v1v1v2v1v1v2v1v1v2v1v1v2v1v1v2v1v1v2v1v1v2v1v1v2v1v2v1v1v2v1v2v1v1v2v1v2v1v1v2v1v2v1v2v1v2v1v1v2v1v2v1v2v1v2v1v2v1v2v1v2v1v2v1v2v1v2v1v2v1v2v1v2v1v2v1v2v1v2v1v2v2v1v2
v1v2v1v2v2v1v2v1v2v1v2v2v1v2v1v2v2v1v2v1v2v2v1v2v2v1v2v2v1v2v1v2v2v1v2v2v1v2v2v1v2v2v1v2v2v2v1v2v2v1v2v2v1v2v2v2v1v2v2v1v2v2v2v1v2v2v2v1v2v2v2v1v2v2v2v2v1v2v2v2v1v2v2v2v2v1v2v2v2v2v1v2v2v2v2v2v1v2v2v2v2v2v1v2v2v2v2v2v2v1v2v2v2v2v2v2v2v1v10l61 13v-1v-1v-1
v-1v-1v-1v-1v-1v-1v-1v-1v-1v-1v-1v-1v-1v-1v-1v-1v-1v-1v-1v-1v-1v-1v-1v-1v-1v-1v-1v-1v-1v-1v-1v-1v-1v-1v-1v-1v-1v-1v-1v-1v-1v-1v-1v-1v-1v-1v-1v-1v-1v-1v-1v-1v-1v-1v-1v-1v-1v-1v-1v-1v-1v-1v-1v-1v-1v-1v-1v-1v-1v-1v-1v-1v-1v-1v-1v-1v-1v-1v-1v-1v-1v-1v-1v-1
v-1v-1v-1v-2v-1v-1v-1v-1v-1v-1v-1v-1v-1v-1v-1v-2v-1v-1v-1v-1v-1v-1v-2v-1v-1v-1v-1v-1v-1v-2v-1v-1v-1v-1v-2v-1v-1v-1v-1v-2v-1v-1v-1v-1v-2v-1v-1v-1v-2v-1v-1v-1v-2v-1v-1v-2v-1v-1v-1v-2v-1v-1v-2v-1v-1v-1v-2v-1v-1v-2v-1v-1v-2v-1v-1v-2v-1v-1v-2v-1v-2v-1v-1v-2
v-1v-1v-2v-1v-2v-1v-1v-2v-1v-2v-1v-1v-2v-1v-2v-1v-2v-1v-1v-2v-1v-2v-1v-2v-1v-2v-1v-1v-2v-1v-2v-1v-2v-1v-2v-1v-2v-1v-2v-1v-2v-1v-2v-1v-2v-1v-2v-1v-2v-1v-2v-2v-1v-2v-1v-2v-1v-2v-1v-2v-2v-1v-2v-1v-2v-1v-2v-2v-1v-2v-1v-2v-2v-1v-2v-1v-2v-2v-1v-2v-1v-2v-2v-1
v-2v-2v-1v-2v-2v-1v-2v-2v-1v-2v-2v-1v-2v-2v-1v-2v-2v-1v-2v-2v-1v-2v-2v-1v-2v-2v-2v-1v-2v-2v-1v-2v-2v-2v-1v-2v-2v-2v-1v-2v-2v-2v-1v-2v-2v-2v-1v-2v-2v-2v-2v-1v-2v-2v-2v-2v-1v-2v-2v-2v-2v-1v-2v-2v-2v-2v-2v-1v-2v-2v-2v-2v-2v-2v-1v-2v-2v-2v-2v-2v-2v-2v-2v-1
v-2v-2v-2v-2v-2v-2v-2v-2v-2v-2v-2v-2v-2v-1v-2v-2v-9q0 -87 -24.5 -136.5t-83.5 -80.5zM253 518h-47l-100 135h-1l-101 -135h-47l113 182h70z" />
    <glyph glyph-name="Kcommaaccent" unicode="&#x136;" horiz-adv-x="537" 
d="M231 -95q1 17 14 29t34 12q26 0 43 -18.5t17 -46.5q0 -71 -92 -131l-23 20q58 43 58 85q0 18 -11.5 29t-39.5 21zM144 325h1l289 300h82l-309 -310l314 -315h-83l-293 299h-1v-299h-64v625h64v-300z" />
    <glyph glyph-name="kcommaaccent" unicode="&#x137;" horiz-adv-x="434" 
d="M179 -95q1 17 14 29t34 12q26 0 43 -18.5t17 -46.5q0 -71 -92 -131l-23 20q58 43 58 85q0 18 -11.5 29t-39.5 21zM136 228h-2v-228h-62v674l62 13v-440h2l206 211h78l-220 -218l221 -240h-79z" />
    <glyph glyph-name="Lacute" unicode="&#x139;" horiz-adv-x="478" 
d="M278 864l-152 -179h-46l118 179h80zM453 0h-373v625h64v-565h309v-60z" />
    <glyph glyph-name="lacute" unicode="&#x13a;" horiz-adv-x="206" 
d="M269 891l-152 -179h-46l118 179h80zM134 0h-62v674l62 13v-687z" />
    <glyph glyph-name="Lcommaaccent" unicode="&#x13b;" horiz-adv-x="478" 
d="M209 -95q1 17 14 29t34 12q26 0 43 -18.5t17 -46.5q0 -71 -92 -131l-23 20q58 43 58 85q0 18 -11.5 29t-39.5 21zM453 0h-373v625h64v-565h309v-60z" />
    <glyph glyph-name="lcommaaccent" unicode="&#x13c;" horiz-adv-x="206" 
d="M52 -95q1 17 14 29t34 12q26 0 43 -18.5t17 -46.5q0 -71 -92 -131l-23 20q58 43 58 85q0 18 -11.5 29t-39.5 21zM134 0h-62v674l62 13v-687z" />
    <glyph glyph-name="Lcaron" unicode="&#x13d;" horiz-adv-x="571" 
d="M450 588q2 21 16 35.5t38 14.5q28 0 49.5 -22.5t21.5 -56.5q0 -92 -124 -172l-27 25q88 64 88 120q0 18 -14 30.5t-48 25.5zM453 0h-373v625h64v-565h309v-60z" />
    <glyph glyph-name="lcaron" unicode="&#x13e;" horiz-adv-x="393" 
d="M243 641q2 21 16 35.5t38 14.5q28 0 49.5 -22.5t21.5 -56.5q0 -92 -124 -172l-27 25q88 64 88 120q0 18 -14 30.5t-48 25.5zM134 0h-62v674l62 13v-687z" />
    <glyph glyph-name="Ldot" unicode="&#x13f;" horiz-adv-x="538" 
d="M453 0h-373v625h64v-565h309v-60zM580 313q0 -21 -14.5 -36.5t-35.5 -15.5t-35.5 15.5t-14.5 36.5q0 20 14.5 34.5t35.5 14.5t35.5 -14.5t14.5 -34.5z" />
    <glyph glyph-name="ldotaccent" unicode="&#x140;" horiz-adv-x="349" 
d="M134 0h-62v674l62 13v-687zM326 313q0 -21 -14.5 -36.5t-35.5 -15.5t-35.5 15.5t-14.5 36.5q0 20 14.5 34.5t35.5 14.5t35.5 -14.5t14.5 -34.5z" />
    <glyph glyph-name="Lslash" unicode="&#x141;" horiz-adv-x="496" 
d="M165 268v-207h304v-61h-367v252l-85 -23v55l85 23v318h63v-301l153 42v-56q-153 -41 -153 -42z" />
    <glyph glyph-name="lslash" unicode="&#x142;" horiz-adv-x="245" 
d="M156 268v-268h-62v251l-85 -23v57l85 23v366l62 13v-362l85 23v-57z" />
    <glyph glyph-name="Nacute" unicode="&#x143;" horiz-adv-x="650" 
d="M459 864l-152 -179h-46l118 179h80zM507 89v536h62v-631h-69l-358 541v-535h-62v625h72z" />
    <glyph glyph-name="nacute" unicode="&#x144;" horiz-adv-x="505" 
d="M383 697l-152 -179h-46l118 179h80zM436 0h-62v296q0 60 -24.5 88t-76.5 28q-74 0 -139 -65v-347h-62v458l62 13v-75q75 75 156 75q69 0 107.5 -41t38.5 -116v-314z" />
    <glyph glyph-name="Ncommaaccent" unicode="&#x145;" horiz-adv-x="650" 
d="M271 -95q1 17 14 29t34 12q26 0 43 -18.5t17 -46.5q0 -71 -92 -131l-23 20q58 43 58 85q0 18 -11.5 29t-39.5 21zM507 89v536h62v-631h-69l-358 541v-535h-62v625h72z" />
    <glyph glyph-name="ncommaaccent" unicode="&#x146;" horiz-adv-x="505" 
d="M202 -95q1 17 14 29t34 12q26 0 43 -18.5t17 -46.5q0 -71 -92 -131l-23 20q58 43 58 85q0 18 -11.5 29t-39.5 21zM436 0h-62v296q0 60 -24.5 88t-76.5 28q-74 0 -139 -65v-347h-62v458l62 13v-75q75 75 156 75q69 0 107.5 -41t38.5 -116v-314z" />
    <glyph glyph-name="Ncaron" unicode="&#x147;" horiz-adv-x="650" 
d="M474 862l-113 -182h-70l-113 182h47l100 -136h1l101 136h47zM507 89v536h62v-631h-69l-358 541v-535h-62v625h72z" />
    <glyph glyph-name="ncaron" unicode="&#x148;" horiz-adv-x="505" 
d="M406 695l-113 -182h-70l-113 182h47l100 -136h1l101 136h47zM436 0h-62v296q0 60 -24.5 88t-76.5 28q-74 0 -139 -65v-347h-62v458l62 13v-75q75 75 156 75q69 0 107.5 -41t38.5 -116v-314z" />
    <glyph glyph-name="Omacron" unicode="&#x14c;" horiz-adv-x="709" 
d="M475 703h-255l3 45h248zM662 315q0 -143 -87 -235.5t-221 -92.5q-132 0 -219.5 90.5t-87.5 233.5t87 235t221 92q132 0 219.5 -90t87.5 -233zM597 311q0 120 -68.5 195t-175.5 75q-106 0 -173.5 -74t-67.5 -192q0 -120 69 -195.5t176 -75.5q105 0 172.5 74.5t67.5 192.5z
" />
    <glyph glyph-name="omacron" unicode="&#x14d;" horiz-adv-x="531" 
d="M387 536h-255l3 45h248zM488 230q0 -108 -64 -175.5t-161 -67.5t-159 66t-62 175q0 108 64.5 175.5t161.5 67.5t158.5 -66t61.5 -175zM427 228q0 84 -44.5 135.5t-117.5 51.5q-72 0 -116.5 -51.5t-44.5 -133.5q0 -84 44.5 -135.5t117.5 -51.5q72 0 116.5 51.5t44.5 133.5
z" />
    <glyph glyph-name="Obreve" unicode="&#x14e;" horiz-adv-x="709" 
d="M662 315q0 -143 -87 -235.5t-221 -92.5q-132 0 -219.5 90.5t-87.5 233.5t87 235t221 92q132 0 219.5 -90t87.5 -233zM597 311q0 120 -68.5 195t-175.5 75q-106 0 -173.5 -74t-67.5 -192q0 -120 69 -195.5t176 -75.5q105 0 172.5 74.5t67.5 192.5zM495 866
q-14 -79 -50 -130.5t-99 -51.5t-99 51.5t-50 130.5h49q31 -133 100 -133q70 0 100 133h49z" />
    <glyph glyph-name="obreve" unicode="&#x14f;" horiz-adv-x="531" 
d="M488 230q0 -108 -64 -175.5t-161 -67.5t-159 66t-62 175q0 108 64.5 175.5t161.5 67.5t158.5 -66t61.5 -175zM427 228q0 84 -44.5 135.5t-117.5 51.5q-72 0 -116.5 -51.5t-44.5 -133.5q0 -84 44.5 -135.5t117.5 -51.5q72 0 116.5 51.5t44.5 133.5zM409 699
q-14 -79 -50 -130.5t-99 -51.5t-99 51.5t-50 130.5h49q31 -133 100 -133q70 0 100 133h49z" />
    <glyph glyph-name="Ohungarumlaut" unicode="&#x150;" horiz-adv-x="709" 
d="M562 857l-141 -177h-51l126 177h66zM395 857l-129 -177h-51l114 177h66zM662 315q0 -143 -87 -235.5t-221 -92.5q-132 0 -219.5 90.5t-87.5 233.5t87 235t221 92q132 0 219.5 -90t87.5 -233zM597 311q0 120 -68.5 195t-175.5 75q-106 0 -173.5 -74t-67.5 -192
q0 -120 69 -195.5t176 -75.5q105 0 172.5 74.5t67.5 192.5z" />
    <glyph glyph-name="ohungarumlaut" unicode="&#x151;" horiz-adv-x="531" 
d="M475 690l-141 -177h-51l126 177h66zM308 690l-129 -177h-51l114 177h66zM488 230q0 -108 -64 -175.5t-161 -67.5t-159 66t-62 175q0 108 64.5 175.5t161.5 67.5t158.5 -66t61.5 -175zM427 228q0 84 -44.5 135.5t-117.5 51.5q-72 0 -116.5 -51.5t-44.5 -133.5
q0 -84 44.5 -135.5t117.5 -51.5q72 0 116.5 51.5t44.5 133.5z" />
    <glyph glyph-name="OE" unicode="&#x152;" horiz-adv-x="910" 
d="M863 625v-59h-313v-223h261v-59h-261v-225h313v-59h-483q-152 0 -241.5 84.5t-89.5 223.5q0 148 88.5 232.5t247.5 84.5h478zM113 313q0 -119 72 -186.5t199 -67.5h102v507h-104q-124 0 -196.5 -64t-72.5 -189z" />
    <glyph glyph-name="oe" unicode="&#x153;" horiz-adv-x="857" 
d="M496 276l254 1q1 5 1 20q0 54 -29 86t-82 32q-59 0 -97.5 -39.5t-46.5 -99.5zM104 230q0 -84 44.5 -135.5t117.5 -51.5q72 0 116.5 51.5t44.5 133.5q0 84 -44.5 135.5t-117.5 51.5q-72 0 -116.5 -51.5t-44.5 -133.5zM457 106q-28 -56 -79 -87.5t-115 -31.5q-97 0 -159 66
t-62 175q0 108 64.5 175.5t161.5 67.5q65 0 115 -31t76 -88q27 56 76 87.5t110 31.5q76 0 121.5 -46t45.5 -123q0 -40 -10 -73l-310 -2v-5q2 -78 45.5 -127.5t114.5 -49.5q74 0 132 38l13 -57q-65 -39 -148 -39q-66 0 -115.5 31.5t-76.5 87.5z" />
    <glyph glyph-name="Racute" unicode="&#x154;" horiz-adv-x="529" 
d="M372 864l-152 -179h-46l118 179h80zM144 250v-250h-64v625h168q113 0 170 -48t57 -132q0 -67 -40 -111.5t-105 -64.5l173 -269h-74l-160 258zM144 307l112 4q66 2 110.5 37t44.5 94q0 61 -44 93t-126 32h-97v-260z" />
    <glyph glyph-name="racute" unicode="&#x155;" horiz-adv-x="356" 
d="M341 697l-152 -179h-46l118 179h80zM134 294v-294h-62v458l62 13v-98q50 98 135 98q43 0 80 -21l-16 -58q-33 20 -70 20q-77 0 -129 -118z" />
    <glyph glyph-name="Rcommaaccent" unicode="&#x156;" horiz-adv-x="529" 
d="M219 -95q1 17 14 29t34 12q26 0 43 -18.5t17 -46.5q0 -71 -92 -131l-23 20q58 43 58 85q0 18 -11.5 29t-39.5 21zM144 250v-250h-64v625h168q113 0 170 -48t57 -132q0 -67 -40 -111.5t-105 -64.5l173 -269h-74l-160 258zM144 307l112 4q66 2 110.5 37t44.5 94
q0 61 -44 93t-126 32h-97v-260z" />
    <glyph glyph-name="rcommaaccent" unicode="&#x157;" horiz-adv-x="356" 
d="M54 -95q1 17 14 29t34 12q26 0 43 -18.5t17 -46.5q0 -71 -92 -131l-23 20q58 43 58 85q0 18 -11.5 29t-39.5 21zM134 294v-294h-62v458l62 13v-98q50 98 135 98q43 0 80 -21l-16 -58q-33 20 -70 20q-77 0 -129 -118z" />
    <glyph glyph-name="Rcaron" unicode="&#x158;" horiz-adv-x="529" 
d="M395 862l-113 -182h-70l-113 182h47l100 -136h1l101 136h47zM144 250v-250h-64v625h168q113 0 170 -48t57 -132q0 -67 -40 -111.5t-105 -64.5l173 -269h-74l-160 258zM144 307l112 4q66 2 110.5 37t44.5 94q0 61 -44 93t-126 32h-97v-260z" />
    <glyph glyph-name="rcaron" unicode="&#x159;" horiz-adv-x="356" 
d="M343 695l-113 -182h-70l-113 182h47l100 -136h1l101 136h47zM134 294v-294h-62v458l62 13v-98q50 98 135 98q43 0 80 -21l-16 -58q-33 20 -70 20q-77 0 -129 -118z" />
    <glyph glyph-name="Sacute" unicode="&#x15a;" horiz-adv-x="490" 
d="M375 864l-152 -179h-46l118 179h80zM239 44q65 0 106.5 34t41.5 84q0 51 -38 79t-120 52q-39 12 -66.5 23.5t-56.5 31.5t-44 50t-15 70q0 74 56.5 122t143.5 48q104 0 188 -54l-23 -56q-76 52 -164 52q-67 0 -103 -30.5t-36 -76.5q0 -48 37.5 -73.5t120.5 -51.5
q39 -12 67 -24.5t56.5 -33t43 -52t14.5 -71.5q0 -78 -59 -129t-152 -51q-109 0 -201 58l23 57q85 -58 180 -58z" />
    <glyph glyph-name="sacute" unicode="&#x15b;" horiz-adv-x="387" 
d="M331 697l-152 -179h-46l118 179h80zM347 125q0 -62 -47 -100t-117 -38q-86 0 -150 41l17 57q63 -42 135 -42q43 0 73 20.5t30 56.5q0 16 -7.5 29t-15.5 20.5t-28 16.5t-29 12t-35 11q-60 18 -96.5 47t-36.5 83q0 61 44 96.5t111 35.5q73 0 139 -34l-18 -56
q-62 34 -125 34q-42 0 -67 -18.5t-25 -51.5q0 -15 7 -27.5t15 -20t26.5 -15.5t29.5 -12t35 -11q62 -18 98.5 -47.5t36.5 -86.5z" />
    <glyph glyph-name="Scircumflex" unicode="&#x15c;" horiz-adv-x="490" 
d="M389 685h-47l-100 135h-1l-101 -135h-47l113 182h70zM239 44q65 0 106.5 34t41.5 84q0 51 -38 79t-120 52q-39 12 -66.5 23.5t-56.5 31.5t-44 50t-15 70q0 74 56.5 122t143.5 48q104 0 188 -54l-23 -56q-76 52 -164 52q-67 0 -103 -30.5t-36 -76.5q0 -48 37.5 -73.5
t120.5 -51.5q39 -12 67 -24.5t56.5 -33t43 -52t14.5 -71.5q0 -78 -59 -129t-152 -51q-109 0 -201 58l23 57q85 -58 180 -58z" />
    <glyph glyph-name="scircumflex" unicode="&#x15d;" horiz-adv-x="387" 
d="M343 518h-47l-100 135h-1l-101 -135h-47l113 182h70zM347 125q0 -62 -47 -100t-117 -38q-86 0 -150 41l17 57q63 -42 135 -42q43 0 73 20.5t30 56.5q0 16 -7.5 29t-15.5 20.5t-28 16.5t-29 12t-35 11q-60 18 -96.5 47t-36.5 83q0 61 44 96.5t111 35.5q73 0 139 -34
l-18 -56q-62 34 -125 34q-42 0 -67 -18.5t-25 -51.5q0 -15 7 -27.5t15 -20t26.5 -15.5t29.5 -12t35 -11q62 -18 98.5 -47.5t36.5 -86.5z" />
    <glyph glyph-name="Scedilla" unicode="&#x15e;" horiz-adv-x="490" 
d="M225 -68q55 2 88.5 -19.5t33.5 -62.5q0 -43 -40.5 -72t-119.5 -38l-5 42q115 6 115 63q0 32 -34.5 43t-96.5 -1l-6 30l71 70q-106 1 -195 58l23 57q85 -58 180 -58q65 0 106.5 34t41.5 84q0 51 -38 79t-120 52q-39 12 -66.5 23.5t-56.5 31.5t-44 50t-15 70q0 74 56.5 122
t143.5 48q104 0 188 -54l-23 -56q-76 52 -164 52q-67 0 -103 -30.5t-36 -76.5q0 -48 37.5 -73.5t120.5 -51.5q39 -12 67 -24.5t56.5 -33t43 -52t14.5 -71.5q0 -67 -44.5 -115t-118.5 -61z" />
    <glyph glyph-name="scedilla" unicode="&#x15f;" horiz-adv-x="387" 
d="M155 -68q55 2 88.5 -19.5t33.5 -62.5q0 -43 -40.5 -72t-119.5 -38l-5 42q115 6 115 63q0 32 -34.5 43t-96.5 -1l-6 30l72 71q-74 5 -129 40l17 57q63 -42 135 -42q43 0 73 20.5t30 56.5q0 16 -7.5 29t-15.5 20.5t-28 16.5t-29 12t-35 11q-60 18 -96.5 47t-36.5 83
q0 61 44 96.5t111 35.5q73 0 139 -34l-18 -56q-62 34 -125 34q-42 0 -67 -18.5t-25 -51.5q0 -15 7 -27.5t15 -20t26.5 -15.5t29.5 -12t35 -11q62 -18 98.5 -47.5t36.5 -86.5q0 -55 -37.5 -91.5t-96.5 -44.5z" />
    <glyph glyph-name="Scaron" unicode="&#x160;" horiz-adv-x="490" 
d="M239 44q65 0 106.5 34t41.5 84q0 51 -38 79t-120 52q-39 12 -66.5 23.5t-56.5 31.5t-44 50t-15 70q0 74 56.5 122t143.5 48q104 0 188 -54l-23 -56q-76 52 -164 52q-67 0 -103 -30.5t-36 -76.5q0 -48 37.5 -73.5t120.5 -51.5q39 -12 67 -24.5t56.5 -33t43 -52t14.5 -71.5
q0 -78 -59 -129t-152 -51q-109 0 -201 58l23 57q85 -58 180 -58zM394 862l-113 -182h-70l-113 182h47l100 -136h1l101 136h47z" />
    <glyph glyph-name="scaron" unicode="&#x161;" horiz-adv-x="387" 
d="M347 125q0 -62 -47 -100t-117 -38q-86 0 -150 41l17 57q63 -42 135 -42q43 0 73 20.5t30 56.5q0 16 -7.5 29t-15.5 20.5t-28 16.5t-29 12t-35 11q-60 18 -96.5 47t-36.5 83q0 61 44 96.5t111 35.5q73 0 139 -34l-18 -56q-62 34 -125 34q-42 0 -67 -18.5t-25 -51.5
q0 -15 7 -27.5t15 -20t26.5 -15.5t29.5 -12t35 -11q62 -18 98.5 -47.5t36.5 -86.5zM341 695l-113 -182h-70l-113 182h47l100 -136h1l101 136h47z" />
    <glyph glyph-name="Tcommaaccent" unicode="&#x162;" horiz-adv-x="550" 
d="M223 -95q1 17 14 29t34 12q26 0 43 -18.5t17 -46.5q0 -71 -92 -131l-23 20q58 43 58 85q0 18 -11.5 29t-39.5 21zM527 565h-220v-565h-64v565h-220v60h504v-60z" />
    <glyph glyph-name="tcommaaccent" unicode="&#x163;" horiz-adv-x="329" 
d="M136 -95q1 17 14 29t34 12q26 0 43 -18.5t17 -46.5q0 -71 -92 -131l-23 20q58 43 58 85q0 18 -11.5 29t-39.5 21zM300 9q-51 -24 -102 -24q-128 0 -123 144l7 271l-70 4l3 39l69 16l3 104h59l-3 -107h153l-3 -55h-152l-7 -274q-3 -86 67 -86q37 0 88 22z" />
    <glyph glyph-name="Tcaron" unicode="&#x164;" horiz-adv-x="550" 
d="M424 862l-113 -182h-70l-113 182h47l100 -136h1l101 136h47zM527 565h-220v-565h-64v565h-220v60h504v-60z" />
    <glyph glyph-name="tcaron" unicode="&#x165;" horiz-adv-x="329" 
d="M203 677q2 21 16 35.5t38 14.5q28 0 49.5 -22.5t21.5 -56.5q0 -92 -124 -172l-27 25q88 64 88 120q0 18 -14 30.5t-48 25.5zM300 9q-51 -24 -102 -24q-128 0 -123 144l7 271l-70 4l3 39l69 16l3 104h59l-3 -107h153l-3 -55h-152l-7 -274q-3 -86 67 -86q37 0 88 22z" />
    <glyph glyph-name="Umacron" unicode="&#x16a;" horiz-adv-x="616" 
d="M544 239q0 -118 -61 -185t-176 -67q-111 0 -172.5 65t-61.5 177v396h62v-388q0 -91 44.5 -141t130.5 -50q83 0 127 49t44 143v1v1v1v1v1v1v1v1v1v1v1v1v1v1v1v1v1v1v1v1v1v1v1v1v1v1v1v1v1v1v1v1v1v1v1v1v1v1v1v1v1v1v1v1v1v1v1v1v1v1v1v1v1v1v1v1v1v1v1v1v1v1v1v1v1v1v1
v1v1v1v2v1v1v1v1v1v1v1v1v1v1v2v1v1v1v1v1v1v2v1v1v1v1v1v2v1v1v1v1v2v1v1v1v2v1v1v1v2v1v1v1v2v1v1v1v2v1v1v2v1v1v2v1v1v2v1v1v2v1v1v2v1v1v2v1v2v1v1v2v1v2v1v1v2v1v2v1v1v2v1v2v1v2v1v2v1v1v2v1v2v1v2v1v2v1v2v1v2v1v2v1v2v1v2v1v2v2v1v2v1v2v1v2v1v2v2v1v2v1v2v2v1v2v1
v2v2v1v2v1v2v2v1v2v2v1v2v1v2v2v1v2v2v1v2v2v1v2v2v2v1v2v2v1v2v2v2v1v2v2v1v2v2v2v1v2v2v2v1v2v2v2v1v2v2v2v2v1v2v2v2v2v1v2v2v2v2v1v2v2v2v2v2v1v2v2v2v2v2v2v1v2v2v2v2v9h63v-386zM437 703h-255l3 45h248z" />
    <glyph glyph-name="umacron" unicode="&#x16b;" horiz-adv-x="504" 
d="M68 458h62v-296q0 -116 99 -116q78 0 141 65v347h62v-458l-62 -13v74q-72 -74 -158 -74q-67 0 -105.5 41.5t-38.5 115.5v314zM376 536h-255l3 45h248z" />
    <glyph glyph-name="Ubreve" unicode="&#x16c;" horiz-adv-x="616" 
d="M544 239q0 -118 -61 -185t-176 -67q-111 0 -172.5 65t-61.5 177v396h62v-388q0 -91 44.5 -141t130.5 -50q83 0 127 49t44 143v1v1v1v1v1v1v1v1v1v1v1v1v1v1v1v1v1v1v1v1v1v1v1v1v1v1v1v1v1v1v1v1v1v1v1v1v1v1v1v1v1v1v1v1v1v1v1v1v1v1v1v1v1v1v1v1v1v1v1v1v1v1v1v1v1v1v1
v1v1v1v2v1v1v1v1v1v1v1v1v1v1v2v1v1v1v1v1v1v2v1v1v1v1v1v2v1v1v1v1v2v1v1v1v2v1v1v1v2v1v1v1v2v1v1v1v2v1v1v2v1v1v2v1v1v2v1v1v2v1v1v2v1v1v2v1v2v1v1v2v1v2v1v1v2v1v2v1v1v2v1v2v1v2v1v2v1v1v2v1v2v1v2v1v2v1v2v1v2v1v2v1v2v1v2v1v2v2v1v2v1v2v1v2v1v2v2v1v2v1v2v2v1v2v1
v2v2v1v2v1v2v2v1v2v2v1v2v1v2v2v1v2v2v1v2v2v1v2v2v2v1v2v2v1v2v2v2v1v2v2v1v2v2v2v1v2v2v2v1v2v2v2v1v2v2v2v2v1v2v2v2v2v1v2v2v2v2v1v2v2v2v2v2v1v2v2v2v2v2v2v1v2v2v2v2v9h63v-386zM459 866q-14 -79 -50 -130.5t-99 -51.5t-99 51.5t-50 130.5h49q31 -133 100 -133
q70 0 100 133h49z" />
    <glyph glyph-name="ubreve" unicode="&#x16d;" horiz-adv-x="504" 
d="M68 458h62v-296q0 -116 99 -116q78 0 141 65v347h62v-458l-62 -13v74q-72 -74 -158 -74q-67 0 -105.5 41.5t-38.5 115.5v314zM395 699q-14 -79 -50 -130.5t-99 -51.5t-99 51.5t-50 130.5h49q31 -133 100 -133q70 0 100 133h49z" />
    <glyph glyph-name="Uring" unicode="&#x16e;" horiz-adv-x="616" 
d="M428 775q0 -44 -32.5 -73.5t-86.5 -29.5q-53 0 -85.5 29.5t-32.5 73.5t32.5 74t85.5 30q54 0 86 -30t33 -74zM384 774q0 29 -20.5 49t-54.5 20q-32 0 -52.5 -19.5t-20.5 -47.5t20.5 -48t52.5 -20q34 0 54.5 19t20.5 47zM544 239q0 -118 -61 -185t-176 -67
q-111 0 -172.5 65t-61.5 177v396h62v-388q0 -91 44.5 -141t130.5 -50q83 0 127 49t44 143v1v1v1v1v1v1v1v1v1v1v1v1v1v1v1v1v1v1v1v1v1v1v1v1v1v1v1v1v1v1v1v1v1v1v1v1v1v1v1v1v1v1v1v1v1v1v1v1v1v1v1v1v1v1v1v1v1v1v1v1v1v1v1v1v1v1v1v1v1v1v2v1v1v1v1v1v1v1v1v1v1v2v1v1v1
v1v1v1v2v1v1v1v1v1v2v1v1v1v1v2v1v1v1v2v1v1v1v2v1v1v1v2v1v1v1v2v1v1v2v1v1v2v1v1v2v1v1v2v1v1v2v1v1v2v1v2v1v1v2v1v2v1v1v2v1v2v1v1v2v1v2v1v2v1v2v1v1v2v1v2v1v2v1v2v1v2v1v2v1v2v1v2v1v2v1v2v2v1v2v1v2v1v2v1v2v2v1v2v1v2v2v1v2v1v2v2v1v2v1v2v2v1v2v2v1v2v1v2v2v1v2v2
v1v2v2v1v2v2v2v1v2v2v1v2v2v2v1v2v2v1v2v2v2v1v2v2v2v1v2v2v2v1v2v2v2v2v1v2v2v2v2v1v2v2v2v2v1v2v2v2v2v2v1v2v2v2v2v2v2v1v2v2v2v2v9h63v-386z" />
    <glyph glyph-name="uring" unicode="&#x16f;" horiz-adv-x="504" 
d="M367 618q0 -44 -32.5 -73.5t-86.5 -29.5q-53 0 -85.5 29.5t-32.5 73.5t32.5 74t85.5 30q54 0 86 -30t33 -74zM323 617q0 29 -20.5 49t-54.5 20q-32 0 -52.5 -19.5t-20.5 -47.5t20.5 -48t52.5 -20q34 0 54.5 19t20.5 47zM68 458h62v-296q0 -116 99 -116q78 0 141 65v347
h62v-458l-62 -13v74q-72 -74 -158 -74q-67 0 -105.5 41.5t-38.5 115.5v314z" />
    <glyph glyph-name="Uhungarumlaut" unicode="&#x170;" horiz-adv-x="616" 
d="M544 239q0 -118 -61 -185t-176 -67q-111 0 -172.5 65t-61.5 177v396h62v-388q0 -91 44.5 -141t130.5 -50q83 0 127 49t44 143v1v1v1v1v1v1v1v1v1v1v1v1v1v1v1v1v1v1v1v1v1v1v1v1v1v1v1v1v1v1v1v1v1v1v1v1v1v1v1v1v1v1v1v1v1v1v1v1v1v1v1v1v1v1v1v1v1v1v1v1v1v1v1v1v1v1v1
v1v1v1v2v1v1v1v1v1v1v1v1v1v1v2v1v1v1v1v1v1v2v1v1v1v1v1v2v1v1v1v1v2v1v1v1v2v1v1v1v2v1v1v1v2v1v1v1v2v1v1v2v1v1v2v1v1v2v1v1v2v1v1v2v1v1v2v1v2v1v1v2v1v2v1v1v2v1v2v1v1v2v1v2v1v2v1v2v1v1v2v1v2v1v2v1v2v1v2v1v2v1v2v1v2v1v2v1v2v2v1v2v1v2v1v2v1v2v2v1v2v1v2v2v1v2v1
v2v2v1v2v1v2v2v1v2v2v1v2v1v2v2v1v2v2v1v2v2v1v2v2v2v1v2v2v1v2v2v2v1v2v2v1v2v2v2v1v2v2v2v1v2v2v2v1v2v2v2v2v1v2v2v2v2v1v2v2v2v2v1v2v2v2v2v2v1v2v2v2v2v2v2v1v2v2v2v2v9h63v-386zM522 857l-141 -177h-51l126 177h66zM355 857l-129 -177h-51l114 177h66z" />
    <glyph glyph-name="uhungarumlaut" unicode="&#x171;" horiz-adv-x="504" 
d="M68 458h62v-296q0 -116 99 -116q78 0 141 65v347h62v-458l-62 -13v74q-72 -74 -158 -74q-67 0 -105.5 41.5t-38.5 115.5v314zM463 690l-141 -177h-51l126 177h66zM296 690l-129 -177h-51l114 177h66z" />
    <glyph glyph-name="Uogonek" unicode="&#x172;" horiz-adv-x="616" 
d="M544 239q0 -159 -114 -228q-84 -50 -84 -118q0 -24 12.5 -38t34.5 -14q28 0 50 17l16 -47q-35 -25 -79 -25q-41 0 -68 24.5t-27 65.5q0 64 63 114q-39 -3 -41 -3q-111 0 -172.5 65t-61.5 177v396h62v-388q0 -91 44.5 -141t130.5 -50q83 0 127 49t44 143v387h63v-386z" />
    <glyph glyph-name="uogonek" unicode="&#x173;" horiz-adv-x="504" 
d="M69 458h61v-296q0 -116 99 -116q77 0 142 65v347h61v-457q-44 -11 -80.5 -44.5t-36.5 -63.5q0 -24 12.5 -38t34.5 -14q28 0 50 17l16 -47q-35 -25 -79 -25q-41 0 -68 24.5t-27 65.5q0 47 34 84t83 59v43q-75 -75 -159 -75q-67 0 -105 41t-38 116v314z" />
    <glyph glyph-name="Wcircumflex" unicode="&#x174;" horiz-adv-x="895" 
d="M598 685h-47l-100 135h-1l-101 -135h-47l113 182h70zM449 550l-169 -550h-61l-178 625h66l146 -534l159 534h76l162 -534l140 534h64l-175 -625h-62z" />
    <glyph glyph-name="wcircumflex" unicode="&#x175;" horiz-adv-x="662" 
d="M484 518h-47l-100 135h-1l-101 -135h-47l113 182h70zM209 -2h-54l-140 460h66l106 -365l119 364h56l125 -366l95 367h68l-136 -460h-55l-125 370z" />
    <glyph glyph-name="Ycircumflex" unicode="&#x176;" horiz-adv-x="524" 
d="M512 625l-218 -374v-251h-64v251l-218 374h72l180 -311l177 311h71zM412 685h-47l-100 135h-1l-101 -135h-47l113 182h70z" />
    <glyph glyph-name="ycircumflex" unicode="&#x177;" horiz-adv-x="424" 
d="M420 458l-178 -453l-37 -99q-30 -81 -64.5 -112.5t-83.5 -31.5q-40 0 -89 21l19 57q37 -20 70 -20q28 0 49.5 22t44.5 84l31 81l-179 451h67l144 -378l141 378h65zM362 518h-47l-100 135h-1l-101 -135h-47l113 182h70z" />
    <glyph glyph-name="Ydieresis" unicode="&#x178;" horiz-adv-x="524" 
d="M512 625l-218 -374v-251h-64v251l-218 374h72l180 -311l177 311h71zM407 760q0 -21 -13 -35.5t-34 -14.5t-35 14.5t-14 35.5q0 20 14 34.5t35 14.5q20 0 33.5 -14.5t13.5 -34.5zM214 760q0 -21 -13.5 -35.5t-34.5 -14.5t-34 14.5t-13 35.5q0 20 13.5 34.5t33.5 14.5
q21 0 34.5 -14.5t13.5 -34.5z" />
    <glyph glyph-name="Zacute" unicode="&#x179;" horiz-adv-x="510" 
d="M386 864l-152 -179h-46l118 179h80zM474 0h-450v47l371 520h-360v58h440v-48l-371 -519h370v-58z" />
    <glyph glyph-name="zacute" unicode="&#x17a;" horiz-adv-x="392" 
d="M339 697l-152 -179h-46l118 179h80zM368 0h-347v49l273 354h-264v55h338v-48l-273 -355h273v-55z" />
    <glyph glyph-name="Zdotaccent" unicode="&#x17b;" horiz-adv-x="510" 
d="M474 0h-450v47l371 520h-360v58h440v-48l-371 -519h370v-58zM297 759q0 -20 -13.5 -34.5t-33.5 -14.5t-33 14.5t-13 34.5t13 34t33 14q21 0 34 -14t13 -34z" />
    <glyph glyph-name="zdotaccent" unicode="&#x17c;" horiz-adv-x="392" 
d="M368 0h-347v49l273 354h-264v55h338v-48l-273 -355h273v-55zM245 592q0 -20 -13.5 -34.5t-33.5 -14.5t-33 14.5t-13 34.5t13 34t33 14q21 0 34 -14t13 -34z" />
    <glyph glyph-name="Zcaron" unicode="&#x17d;" horiz-adv-x="510" 
d="M474 0h-450v47l371 520h-360v58h440v-48l-371 -519h370v-58zM401 862l-113 -182h-70l-113 182h47l100 -136h1l101 136h47z" />
    <glyph glyph-name="zcaron" unicode="&#x17e;" horiz-adv-x="392" 
d="M368 0h-347v49l273 354h-264v55h338v-48l-273 -355h273v-55zM341 695l-113 -182h-70l-113 182h47l100 -136h1l101 136h47z" />
    <glyph glyph-name="florin" unicode="&#x192;" horiz-adv-x="359" 
d="M87 131l41 212l-102 5l9 39l104 15l17 83q16 75 50.5 110.5t90.5 35.5q55 0 98 -32l-26 -52q-38 26 -73 26q-33 0 -52 -22.5t-29 -71.5l-17 -80h119l-7 -55h-122l-43 -219q-12 -64 -44 -97.5t-94 -45.5l-14 57q44 7 65.5 29.5t28.5 62.5z" />
    <glyph glyph-name="Aringacute" unicode="&#x1fa;" horiz-adv-x="575" 
d="M395 993l-152 -179h-46l118 179h80zM408 237l-119 325l-121 -325h240zM239 593q-31 12 -49.5 37t-18.5 57q0 44 32.5 74t85.5 30t85 -30t33 -74q0 -32 -18 -57t-50 -37l221 -593h-65l-66 179h-282l-67 -179h-65zM364 686q0 29 -20.5 49t-54.5 20q-33 0 -53.5 -19.5
t-20.5 -47.5q0 -29 20.5 -48.5t53.5 -19.5q34 0 54.5 19t20.5 47z" />
    <glyph glyph-name="aringacute" unicode="&#x1fb;" horiz-adv-x="439" 
d="M311 101v134q-115 -13 -164 -40t-49 -74q0 -36 26.5 -58t67.5 -22q66 0 119 60zM315 55h-3q-55 -68 -134 -68q-63 0 -104 36t-41 91q0 147 278 163v27q0 109 -108 109q-36 0 -77.5 -16t-72.5 -39l-14 58q33 23 80 39t90 16q165 0 164 -164v-220q0 -27 9 -37t37 -9l-4 -51
q-89 -6 -100 65zM333 921l-152 -179h-46l118 179h80zM328 618q0 -44 -32.5 -73.5t-86.5 -29.5q-53 0 -85.5 29.5t-32.5 73.5t32.5 74t85.5 30q54 0 86 -30t33 -74zM284 617q0 29 -20.5 49t-54.5 20q-32 0 -52.5 -19.5t-20.5 -47.5t20.5 -48t52.5 -20q34 0 54.5 19t20.5 47z
" />
    <glyph glyph-name="AEacute" unicode="&#x1fc;" horiz-adv-x="818" 
d="M666 864l-152 -179h-46l118 179h80zM202 233h192v336zM168 174l-99 -174h-68l358 625h413v-59h-314v-223h262v-59h-262v-225h314v-59h-378v174h-226z" />
    <glyph glyph-name="aeacute" unicode="&#x1fd;" horiz-adv-x="737" 
d="M514 697l-152 -179h-46l118 179h80zM346 85q-29 -42 -77.5 -70t-98.5 -28q-61 0 -99 35.5t-38 88.5q0 150 278 161l1 25q1 60 -26 87.5t-85 27.5q-72 0 -146 -54l-17 55q80 58 168 58q123 0 150 -88q60 88 168 88q76 0 121.5 -46t45.5 -123q0 -40 -10 -73l-310 -2v-5
q2 -78 45.5 -127.5t114.5 -49.5q75 0 133 38l12 -57q-63 -39 -147 -39q-60 0 -107.5 26t-75.5 72zM375 276l254 1q2 10 2 20q0 54 -29 86t-82 32q-59 0 -98 -39.5t-47 -99.5zM310 229q-213 -15 -213 -111q0 -35 24.5 -55t64.5 -20q35 0 74.5 20.5t67.5 56.5q-18 47 -18 109z
" />
    <glyph glyph-name="Oslashacute" unicode="&#x1fe;" horiz-adv-x="709" 
d="M663 315q0 -143 -87 -235.5t-220 -92.5q-75 0 -143 34l-50 -88h-52q4 7 10.5 18.5t20.5 35.5t24 40l9 16q-59 44 -92.5 113t-33.5 155q0 143 87 235t221 92q74 0 142 -34l51 88h52l-64 -110q58 -43 91.5 -112t33.5 -155zM470 553q-53 28 -116 28q-106 0 -173.5 -74
t-67.5 -192q0 -140 93 -218zM507 528l-265 -456q54 -28 116 -28q105 0 172.5 74.5t67.5 192.5q0 141 -91 217zM523 864l-152 -179h-46l118 179h80z" />
    <glyph glyph-name="oslashacute" unicode="&#x1ff;" horiz-adv-x="531" 
d="M490 230q0 -108 -64 -175.5t-161 -67.5q-52 0 -98 22l-44 -76h-53q4 6 10 16.5t18.5 33t20.5 37.5l8 14q-83 67 -83 194q0 108 64 175.5t162 67.5q53 0 98 -21l44 76h53l-58 -101q83 -68 83 -195zM339 399q-31 16 -73 16q-72 0 -116.5 -51.5t-44.5 -133.5q0 -94 53 -145z
M429 228q0 92 -53 145l-181 -314q35 -16 73 -16q72 0 116.5 51.5t44.5 133.5zM405 697l-152 -179h-46l118 179h80z" />
    <glyph glyph-name="Scommaaccent" unicode="&#x218;" horiz-adv-x="490" 
d="M193 -95q1 17 14 29t34 12q26 0 43 -18.5t17 -46.5q0 -71 -92 -131l-23 20q58 43 58 85q0 18 -11.5 29t-39.5 21zM239 44q65 0 106.5 34t41.5 84q0 51 -38 79t-120 52q-39 12 -66.5 23.5t-56.5 31.5t-44 50t-15 70q0 74 56.5 122t143.5 48q104 0 188 -54l-23 -56
q-76 52 -164 52q-67 0 -103 -30.5t-36 -76.5q0 -48 37.5 -73.5t120.5 -51.5q39 -12 67 -24.5t56.5 -33t43 -52t14.5 -71.5q0 -78 -59 -129t-152 -51q-109 0 -201 58l23 57q85 -58 180 -58z" />
    <glyph glyph-name="scommaaccent" unicode="&#x219;" horiz-adv-x="387" 
d="M137 -95q1 17 14 29t34 12q26 0 43 -18.5t17 -46.5q0 -71 -92 -131l-23 20q58 43 58 85q0 18 -11.5 29t-39.5 21zM347 125q0 -62 -47 -100t-117 -38q-86 0 -150 41l17 57q63 -42 135 -42q43 0 73 20.5t30 56.5q0 16 -7.5 29t-15.5 20.5t-28 16.5t-29 12t-35 11
q-60 18 -96.5 47t-36.5 83q0 61 44 96.5t111 35.5q73 0 139 -34l-18 -56q-62 34 -125 34q-42 0 -67 -18.5t-25 -51.5q0 -15 7 -27.5t15 -20t26.5 -15.5t29.5 -12t35 -11q62 -18 98.5 -47.5t36.5 -86.5z" />
    <glyph glyph-name="uni021A" unicode="&#x21a;" horiz-adv-x="550" 
d="M223 -95q1 17 14 29t34 12q26 0 43 -18.5t17 -46.5q0 -71 -92 -131l-23 20q58 43 58 85q0 18 -11.5 29t-39.5 21zM527 565h-220v-565h-64v565h-220v60h504v-60z" />
    <glyph glyph-name="uni021B" unicode="&#x21b;" horiz-adv-x="329" 
d="M136 -95q1 17 14 29t34 12q26 0 43 -18.5t17 -46.5q0 -71 -92 -131l-23 20q58 43 58 85q0 18 -11.5 29t-39.5 21zM300 9q-51 -24 -102 -24q-128 0 -123 144l7 271l-70 4l3 39l69 16l3 104h59l-3 -107h153l-3 -55h-152l-7 -274q-3 -86 67 -86q37 0 88 22z" />
    <glyph glyph-name="dotlessj" unicode="&#x237;" horiz-adv-x="207" 
d="M27 -250l-43 43q51 26 70.5 63.5t19.5 110.5v1v1v1v1v1v1v1v1v1v1v1v1v1v1v1v1v1v1v1v1v1v1v1v1v1v1v1v1v1v1v1v1v1v1v1v1v1v1v1v1v1v1v1v1v1v1v1v1v1v1v1v1v1v1v1v1v1v1v1v1v1v1v1v1v1v1v1v1v1v1v1v1v1v1v1v1v1v1v1v1v1v1v1v1v1v1v1v1v1v1v1v1v1v1v2v1v1v1v1v1v1v1v1v1
v2v1v1v1v1v1v1v2v1v1v1v1v1v2v1v1v1v1v2v1v1v1v1v2v1v1v1v2v1v1v1v1v2v1v1v2v1v1v1v2v1v1v1v2v1v1v2v1v1v2v1v1v2v1v1v2v1v1v2v1v1v2v1v1v2v1v1v2v1v2v1v1v2v1v2v1v1v2v1v2v1v1v2v1v2v1v2v1v2v1v1v2v1v2v1v2v1v2v1v2v1v2v1v2v1v2v1v2v1v2v1v2v1v2v1v2v1v2v1v2v1v2v1v2v2v1v2
v1v2v1v2v2v1v2v1v2v1v2v2v1v2v1v2v2v1v2v1v2v2v1v2v2v1v2v2v1v2v1v2v2v1v2v2v1v2v2v1v2v2v1v2v2v2v1v2v2v1v2v2v1v2v2v2v1v2v2v1v2v2v2v1v2v2v2v1v2v2v2v1v2v2v2v2v1v2v2v2v1v2v2v2v2v1v2v2v2v2v1v2v2v2v2v2v1v2v2v2v2v2v1v2v2v2v2v2v2v1v2v2v2v2v2v2v2v1v10l61 13v-1v-1v-1
v-1v-1v-1v-1v-1v-1v-1v-1v-1v-1v-1v-1v-1v-1v-1v-1v-1v-1v-1v-1v-1v-1v-1v-1v-1v-1v-1v-1v-1v-1v-1v-1v-1v-1v-1v-1v-1v-1v-1v-1v-1v-1v-1v-1v-1v-1v-1v-1v-1v-1v-1v-1v-1v-1v-1v-1v-1v-1v-1v-1v-1v-1v-1v-1v-1v-1v-1v-1v-1v-1v-1v-1v-1v-1v-1v-1v-1v-1v-1v-1v-1v-1v-1v-1
v-1v-1v-1v-2v-1v-1v-1v-1v-1v-1v-1v-1v-1v-1v-1v-2v-1v-1v-1v-1v-1v-1v-2v-1v-1v-1v-1v-1v-1v-2v-1v-1v-1v-1v-2v-1v-1v-1v-1v-2v-1v-1v-1v-1v-2v-1v-1v-1v-2v-1v-1v-1v-2v-1v-1v-2v-1v-1v-1v-2v-1v-1v-2v-1v-1v-1v-2v-1v-1v-2v-1v-1v-2v-1v-1v-2v-1v-1v-2v-1v-2v-1v-1v-2
v-1v-1v-2v-1v-2v-1v-1v-2v-1v-2v-1v-1v-2v-1v-2v-1v-2v-1v-1v-2v-1v-2v-1v-2v-1v-2v-1v-1v-2v-1v-2v-1v-2v-1v-2v-1v-2v-1v-2v-1v-2v-1v-2v-1v-2v-1v-2v-1v-2v-1v-2v-2v-1v-2v-1v-2v-1v-2v-1v-2v-2v-1v-2v-1v-2v-1v-2v-2v-1v-2v-1v-2v-2v-1v-2v-1v-2v-2v-1v-2v-1v-2v-2v-1
v-2v-2v-1v-2v-2v-1v-2v-2v-1v-2v-2v-1v-2v-2v-1v-2v-2v-1v-2v-2v-1v-2v-2v-1v-2v-2v-2v-1v-2v-2v-1v-2v-2v-2v-1v-2v-2v-2v-1v-2v-2v-2v-1v-2v-2v-2v-1v-2v-2v-2v-2v-1v-2v-2v-2v-2v-1v-2v-2v-2v-2v-1v-2v-2v-2v-2v-2v-1v-2v-2v-2v-2v-2v-2v-1v-2v-2v-2v-2v-2v-2v-2v-2v-1
v-2v-2v-2v-2v-2v-2v-2v-2v-2v-2v-2v-2v-2v-1v-2v-2v-9q0 -87 -24.5 -136.5t-83.5 -80.5z" />
    <glyph glyph-name="circumflex" unicode="&#x2c6;" horiz-adv-x="397" 
d="M348 518h-47l-100 135h-1l-101 -135h-47l113 182h70z" />
    <glyph glyph-name="caron" unicode="&#x2c7;" horiz-adv-x="397" 
d="M348 695l-113 -182h-70l-113 182h47l100 -136h1l101 136h47z" />
    <glyph glyph-name="breve" unicode="&#x2d8;" horiz-adv-x="397" 
d="M349 699q-14 -79 -50 -130.5t-99 -51.5t-99 51.5t-50 130.5h49q31 -133 100 -133q70 0 100 133h49z" />
    <glyph glyph-name="dotaccent" unicode="&#x2d9;" horiz-adv-x="397" 
d="M246 592q0 -20 -13.5 -34.5t-33.5 -14.5t-33 14.5t-13 34.5t13 34t33 14q21 0 34 -14t13 -34z" />
    <glyph glyph-name="ring" unicode="&#x2da;" horiz-adv-x="397" 
d="M319 618q0 -44 -32.5 -73.5t-86.5 -29.5q-53 0 -85.5 29.5t-32.5 73.5t32.5 74t85.5 30q54 0 86 -30t33 -74zM275 617q0 29 -20.5 49t-54.5 20q-32 0 -52.5 -19.5t-20.5 -47.5t20.5 -48t52.5 -20q34 0 54.5 19t20.5 47z" />
    <glyph glyph-name="ogonek" unicode="&#x2db;" horiz-adv-x="397" 
d="M304 -213q-46 -34 -99 -34q-47 0 -80 29t-33 73q0 52 45 98.5t115 69.5h55q-163 -72 -163 -164q0 -28 19 -45t49 -17q36 0 85 27z" />
    <glyph glyph-name="tilde" unicode="&#x2dc;" horiz-adv-x="397" 
d="M362 637q-16 -115 -89 -115q-32 0 -83 35.5t-67 35.5q-15 0 -25.5 -14t-19.5 -51h-1h-1h-1h-1h-1h-1h-1h-1h-1h-1h-1h-2h-1h-1h-2h-1h-2h-2h-1h-2h-2h-2h-1h-2h-9q16 115 89 115q32 0 84 -36t67 -36t25 14.5t19 51.5h1h1h1h1h1h1h2h1h1h1h1h2h1h2h1h2h1h2h1h2h2h1h2h10z
" />
    <glyph glyph-name="hungarumlaut" unicode="&#x2dd;" horiz-adv-x="397" 
d="M414 690l-141 -177h-51l126 177h66zM247 690l-129 -177h-51l114 177h66z" />
    <glyph glyph-name="Wgrave" unicode="&#x1e80;" horiz-adv-x="895" 
d="M449 550l-169 -550h-61l-178 625h66l146 -534l159 534h76l162 -534l140 534h64l-175 -625h-62zM487 675h-46l-152 179h80z" />
    <glyph glyph-name="wgrave" unicode="&#x1e81;" horiz-adv-x="662" 
d="M209 -2h-54l-140 460h66l106 -365l119 364h56l125 -366l95 367h68l-136 -460h-55l-125 370zM359 518h-46l-152 179h80z" />
    <glyph glyph-name="Wacute" unicode="&#x1e82;" horiz-adv-x="895" 
d="M617 864l-152 -179h-46l118 179h80zM449 550l-169 -550h-61l-178 625h66l146 -534l159 534h76l162 -534l140 534h64l-175 -625h-62z" />
    <glyph glyph-name="wacute" unicode="&#x1e83;" horiz-adv-x="662" 
d="M497 697l-152 -179h-46l118 179h80zM209 -2h-54l-140 460h66l106 -365l119 364h56l125 -366l95 367h68l-136 -460h-55l-125 370z" />
    <glyph glyph-name="Wdieresis" unicode="&#x1e84;" horiz-adv-x="895" 
d="M594 760q0 -21 -13 -35.5t-34 -14.5t-35 14.5t-14 35.5q0 20 14 34.5t35 14.5q20 0 33.5 -14.5t13.5 -34.5zM401 760q0 -21 -13.5 -35.5t-34.5 -14.5t-34 14.5t-13 35.5q0 20 13.5 34.5t33.5 14.5q21 0 34.5 -14.5t13.5 -34.5zM449 550l-169 -550h-61l-178 625h66
l146 -534l159 534h76l162 -534l140 534h64l-175 -625h-62z" />
    <glyph glyph-name="wdieresis" unicode="&#x1e85;" horiz-adv-x="662" 
d="M479 593q0 -21 -13 -35.5t-34 -14.5t-35 14.5t-14 35.5q0 20 14 34.5t35 14.5q20 0 33.5 -14.5t13.5 -34.5zM286 593q0 -21 -13.5 -35.5t-34.5 -14.5t-34 14.5t-13 35.5q0 20 13.5 34.5t33.5 14.5q21 0 34.5 -14.5t13.5 -34.5zM209 -2h-54l-140 460h66l106 -365l119 364
h56l125 -366l95 367h68l-136 -460h-55l-125 370z" />
    <glyph glyph-name="thinspace" unicode="&#x2009;" horiz-adv-x="76" 
 />
    <glyph glyph-name="endash" unicode="&#x2013;" horiz-adv-x="445" 
d="M415 215h-384l3 49h378z" />
    <glyph glyph-name="emdash" unicode="&#x2014;" horiz-adv-x="915" 
d="M885 215h-854l3 49h848z" />
    <glyph glyph-name="quoteleft" unicode="&#x2018;" horiz-adv-x="187" 
d="M150 454q-2 -20 -16 -34.5t-38 -14.5q-28 0 -49.5 22.5t-21.5 56.5q0 92 124 172l27 -25q-88 -64 -88 -120q0 -19 14 -31.5t48 -25.5z" />
    <glyph glyph-name="quoteright" unicode="&#x2019;" horiz-adv-x="187" 
d="M37 608q2 21 16 35.5t38 14.5q28 0 49.5 -22.5t21.5 -56.5q0 -92 -124 -172l-27 25q88 64 88 120q0 18 -14 30.5t-48 25.5z" />
    <glyph glyph-name="quotesinglbase" unicode="&#x201a;" horiz-adv-x="187" 
d="M37 50q2 21 16 35.5t38 14.5q28 0 49.5 -22.5t21.5 -56.5q0 -92 -124 -172l-27 25q88 64 88 120q0 18 -14 30.5t-48 25.5z" />
    <glyph glyph-name="quotedblleft" unicode="&#x201c;" horiz-adv-x="384" 
d="M347 454q-2 -20 -16.5 -34.5t-37.5 -14.5q-28 0 -49.5 22.5t-21.5 56.5q0 92 124 172l27 -25q-88 -64 -88 -120q0 -19 14 -31.5t48 -25.5zM150 454q-2 -20 -16 -34.5t-38 -14.5q-28 0 -49.5 22.5t-21.5 56.5q0 92 124 172l27 -25q-88 -64 -88 -120q0 -19 14 -31.5
t48 -25.5z" />
    <glyph glyph-name="quotedblright" unicode="&#x201d;" horiz-adv-x="384" 
d="M234 608q2 21 16 35.5t38 14.5q28 0 49.5 -22.5t21.5 -56.5q0 -92 -124 -172l-27 25q88 64 88 120q0 18 -14 30.5t-48 25.5zM37 608q2 21 16 35.5t38 14.5q28 0 49.5 -22.5t21.5 -56.5q0 -92 -124 -172l-27 25q88 64 88 120q0 18 -14 30.5t-48 25.5z" />
    <glyph glyph-name="quotedblbase" unicode="&#x201e;" horiz-adv-x="377" 
d="M234 50q2 21 16 35.5t38 14.5q28 0 49.5 -22.5t21.5 -56.5q0 -92 -124 -172l-27 25q88 64 88 120q0 18 -14 30.5t-48 25.5zM37 50q2 21 16 35.5t38 14.5q28 0 49.5 -22.5t21.5 -56.5q0 -92 -124 -172l-27 25q88 64 88 120q0 18 -14 30.5t-48 25.5z" />
    <glyph glyph-name="dagger" unicode="&#x2020;" horiz-adv-x="466" 
d="M207 391h-171l-3 47h174v187h51v-187h174l-3 -47h-171v-517h-51v517z" />
    <glyph glyph-name="daggerdbl" unicode="&#x2021;" horiz-adv-x="466" 
d="M207 406h-171l-3 47h174v172h51v-172h174l-3 -47h-171v-314h171l3 -47h-174v-171h-51v171h-174l3 47h171v314z" />
    <glyph glyph-name="bullet" unicode="&#x2022;" horiz-adv-x="452" 
d="M418 232q0 -22 -20 -71.5t-36 -65.5q-15 -15 -65 -35.5t-72 -20.5q-21 0 -71 20.5t-64 35.5q-15 16 -36 66t-21 71q0 22 21 71.5t36 64.5t65 35.5t71 20.5q22 0 71.5 -20.5t64.5 -35.5t35.5 -64.5t20.5 -71.5z" />
    <glyph glyph-name="ellipsis" unicode="&#x2026;" horiz-adv-x="566" 
d="M523 39q0 -21 -14.5 -36.5t-35.5 -15.5t-35.5 15.5t-14.5 36.5t14.5 35.5t35.5 14.5t35.5 -14.5t14.5 -35.5zM333 39q0 -21 -14 -36.5t-35 -15.5q-22 0 -36.5 15.5t-14.5 36.5t14.5 35.5t36.5 14.5q21 0 35 -14.5t14 -35.5zM144 39q0 -21 -14.5 -36.5t-35.5 -15.5
t-35.5 15.5t-14.5 36.5t14.5 35.5t35.5 14.5t35.5 -14.5t14.5 -35.5z" />
    <glyph glyph-name="perthousand" unicode="&#x2030;" horiz-adv-x="1119" 
d="M347 482q0 -69 -45.5 -117t-120.5 -48q-74 0 -120 48t-46 117q0 70 45.5 118.5t120.5 48.5t120.5 -48t45.5 -119zM652 639l-506 -654h-55l507 654h54zM727 142q0 -70 -45.5 -118.5t-120.5 -48.5t-120.5 48t-45.5 119q0 69 45.5 117t120.5 48q74 0 120 -48t46 -117z
M302 482q0 53 -33 88.5t-88 35.5t-87.5 -35.5t-32.5 -88.5q0 -51 33 -86.5t87 -35.5q55 0 88 35.5t33 86.5zM682 142q0 51 -33 86.5t-88 35.5q-54 0 -87 -35.5t-33 -86.5q0 -53 32.5 -88.5t87.5 -35.5t88 35.5t33 88.5zM1103 142q0 -70 -45.5 -118.5t-120.5 -48.5t-120.5 48
t-45.5 119q0 69 45.5 117t120.5 48q74 0 120 -48t46 -117zM1058 142q0 51 -33.5 86.5t-87.5 35.5t-87.5 -35.5t-33.5 -86.5q0 -53 33 -88.5t88 -35.5t88 35.5t33 88.5z" />
    <glyph glyph-name="guilsinglleft" unicode="&#x2039;" horiz-adv-x="328" 
d="M284 74l-8 -48l-245 175v66l245 175l8 -48l-199 -159v-2z" />
    <glyph glyph-name="guilsinglright" unicode="&#x203a;" horiz-adv-x="328" 
d="M297 201l-246 -175l-8 48l200 159v2l-200 159l8 48l246 -175v-66z" />
    <glyph glyph-name="fraction" unicode="&#x2044;" horiz-adv-x="578" 
d="M569 639l-506 -654h-55l508 654h53z" />
    <glyph glyph-name="zerosuperior" unicode="&#x2070;" horiz-adv-x="330" 
d="M309 462q0 -90 -39.5 -143.5t-105.5 -53.5t-104.5 52.5t-38.5 143.5q0 90 39.5 143.5t105.5 53.5t104.5 -52.5t38.5 -143.5zM255 460q0 79 -25 118.5t-66 39.5t-65 -38.5t-24 -118.5q0 -77 25 -115t66 -38q40 0 64.5 37.5t24.5 114.5z" />
    <glyph glyph-name="foursuperior" unicode="&#x2074;" horiz-adv-x="330" 
d="M321 368h-62v-96h-48v96h-190l-5 35l185 250h58v-244h60zM211 409v191l-141 -191h141z" />
    <glyph glyph-name="fivesuperior" unicode="&#x2075;" horiz-adv-x="330" 
d="M99 495q32 5 51 5q63 0 101.5 -30t38.5 -82q0 -55 -39.5 -89.5t-104.5 -34.5q-63 0 -111 25l9 46q47 -27 101 -27q42 0 67.5 20.5t25.5 57.5q0 33 -25.5 53t-70.5 20t-85 -14l-12 10l27 195h210l2 -44h-169z" />
    <glyph glyph-name="sixsuperior" unicode="&#x2076;" horiz-adv-x="330" 
d="M27 420q0 82 59 149t170 90l13 -41q-76 -16 -125 -56t-63 -96l2 -1q47 40 107 40q49 0 83 -30.5t34 -82.5q0 -55 -38 -91t-100 -36q-67 0 -104.5 44t-37.5 111zM80 408q0 -43 24 -72t68 -29q37 0 59.5 22.5t22.5 59.5q0 35 -21.5 54.5t-56.5 19.5q-55 0 -94 -34
q-2 -7 -2 -21z" />
    <glyph glyph-name="sevensuperior" unicode="&#x2077;" horiz-adv-x="330" 
d="M245 605h-220l2 45h267l5 -38l-181 -339h-52z" />
    <glyph glyph-name="eightsuperior" unicode="&#x2078;" horiz-adv-x="330" 
d="M303 373q0 -47 -36.5 -77.5t-102.5 -30.5q-68 0 -102.5 28.5t-34.5 74.5q0 63 84 95q-78 34 -78 88q0 48 36.5 78t97.5 30t95 -28.5t34 -74.5q0 -59 -76 -91q39 -18 61 -39t22 -53zM245 552q0 30 -22 48.5t-57 18.5q-38 0 -59 -18t-21 -45q0 -52 98 -77q61 25 61 73z
M251 368q0 52 -103 81q-70 -26 -70 -76q0 -31 23.5 -49.5t64.5 -18.5q42 0 63.5 17t21.5 46z" />
    <glyph glyph-name="ninesuperior" unicode="&#x2079;" horiz-adv-x="330" 
d="M303 504q0 -83 -59.5 -150t-169.5 -90l-13 42q76 16 125 56t63 96h-2q-49 -40 -107 -40q-49 0 -83 30.5t-34 82.5q0 56 37.5 92t99.5 36q68 0 105.5 -44t37.5 -111zM250 516q0 42 -24.5 71.5t-67.5 29.5q-37 0 -59.5 -23t-22.5 -59q0 -35 21.5 -55t56.5 -20q53 0 94 34
q2 7 2 22z" />
    <glyph glyph-name="plussuperior" unicode="&#x207a;" horiz-adv-x="330" 
d="M300 445h-108v-111h-34v111h-108l1 34h107v110h34v-110h106z" />
    <glyph glyph-name="minussuperior" unicode="&#x207b;" horiz-adv-x="330" 
d="M300 445h-250l1 33h247z" />
    <glyph glyph-name="zeroinferior" unicode="&#x2080;" horiz-adv-x="330" 
d="M309 46q0 -90 -39.5 -143.5t-105.5 -53.5t-104.5 52.5t-38.5 143.5q0 90 39.5 143.5t105.5 53.5t104.5 -52.5t38.5 -143.5zM255 44q0 79 -25 118.5t-66 39.5t-65 -38.5t-24 -118.5q0 -77 25 -115t66 -38q40 0 64.5 37.5t24.5 114.5z" />
    <glyph glyph-name="oneinferior" unicode="&#x2081;" horiz-adv-x="330" 
d="M165 -143v323l-100 -25l-2 45l154 39v-382h-52z" />
    <glyph glyph-name="twoinferior" unicode="&#x2082;" horiz-adv-x="330" 
d="M295 -143h-265l-2 45q20 18 51 44.5t46 39.5t35.5 32.5t30 31t20 26t14 27t3.5 26.5q0 32 -22 50.5t-58 18.5q-50 0 -97 -40l-19 41q50 43 123 43q57 0 91.5 -30t34.5 -80q0 -53 -61 -114q-23 -23 -133 -117h51h104h51z" />
    <glyph glyph-name="threeinferior" unicode="&#x2083;" horiz-adv-x="330" 
d="M174 56q58 0 89.5 -26.5t31.5 -65.5q0 -53 -43 -84t-107 -31q-67 0 -112 25l10 43q50 -25 104 -25q40 0 67.5 18t27.5 51q0 29 -25.5 47.5t-70.5 18.5q-35 -2 -58 -6v39q69 15 104 35t35 50q0 25 -20.5 39.5t-55.5 14.5q-52 0 -98 -36l-20 41q54 38 121 38q58 0 92 -24.5
t34 -66.5q0 -68 -106 -95z" />
    <glyph glyph-name="fourinferior" unicode="&#x2084;" horiz-adv-x="330" 
d="M321 -48h-62v-96h-48v96h-190l-5 35l185 250h58v-244h60zM211 -7v191l-141 -191h141z" />
    <glyph glyph-name="fiveinferior" unicode="&#x2085;" horiz-adv-x="330" 
d="M99 79q33 5 51 5q63 0 101.5 -30t38.5 -82q0 -55 -39.5 -89.5t-104.5 -34.5q-63 0 -111 25l9 46q47 -27 101 -27q42 0 67.5 20.5t25.5 57.5q0 33 -25.5 53t-70.5 20t-85 -14l-12 10l27 195h210l2 -44h-169z" />
    <glyph glyph-name="sixinferior" unicode="&#x2086;" horiz-adv-x="330" 
d="M27 4q0 82 59 149t170 90l13 -41q-76 -16 -125 -56t-63 -96l2 -1q47 40 107 40q49 0 83 -30.5t34 -82.5q0 -55 -38 -91t-100 -36q-67 0 -104.5 44t-37.5 111zM80 -8q0 -43 24 -72t68 -29q37 0 59.5 22.5t22.5 59.5q0 35 -21.5 54.5t-56.5 19.5q-55 0 -94 -34
q-2 -7 -2 -21z" />
    <glyph glyph-name="seveninferior" unicode="&#x2087;" horiz-adv-x="330" 
d="M245 189h-220l2 45h267l5 -38l-181 -339h-52z" />
    <glyph glyph-name="eightinferior" unicode="&#x2088;" horiz-adv-x="330" 
d="M303 -43q0 -47 -36.5 -77.5t-102.5 -30.5q-68 0 -102.5 28.5t-34.5 74.5q0 63 84 95q-78 34 -78 88q0 48 36.5 78t97.5 30t95 -28.5t34 -74.5q0 -59 -76 -91q39 -18 61 -39t22 -53zM245 136q0 30 -22 48.5t-57 18.5q-38 0 -59 -18t-21 -45q0 -52 98 -77q61 25 61 73z
M251 -48q0 52 -103 81q-70 -26 -70 -76q0 -31 23.5 -49.5t64.5 -18.5q42 0 63.5 17t21.5 46z" />
    <glyph glyph-name="nineinferior" unicode="&#x2089;" horiz-adv-x="330" 
d="M303 88q0 -83 -59.5 -150t-169.5 -90l-13 42q76 16 125 56t63 96h-2q-49 -40 -107 -40q-49 0 -83 30.5t-34 82.5q0 56 37.5 92t99.5 36q68 0 105.5 -44t37.5 -111zM250 100q0 42 -24.5 71.5t-67.5 29.5q-37 0 -59.5 -23t-22.5 -59q0 -35 21.5 -55t56.5 -20q53 0 94 34
q2 7 2 22z" />
    <glyph glyph-name="Euro" unicode="&#x20ac;" horiz-adv-x="504" 
d="M105 372h-1h-1h-1h-1h-1h-1h-1h-1h-1h-1h-1h-1h-1h-1h-1h-1h-1h-1h-2h-1h-1h-1h-2h-1h-1h-2h-1h-2h-1h-2h-1h-2h-1h-2h-1h-2h-2h-1h-2h-2h-1h-2h-2h-1h-2h-10l-3 45h79q19 110 78 166.5t149 56.5q87 0 144 -34l-14 -55q-57 34 -130 34q-136 0 -166 -168h235l-3 -45h-237
q-2 -36 -2 -56q0 -23 2 -61h207l3 -45h-204q31 -170 162 -170q77 0 135 33l10 -55q-60 -33 -147 -33q-190 0 -224 225h-77l3 45h69q-2 36 -2 55q0 22 2 62z" />
    <glyph glyph-name="trademark" unicode="&#x2122;" horiz-adv-x="908" 
d="M828 252h-49l-9 317h-7l-117 -312h-56l-105 312h-7l-11 -317h-46l15 374h83l99 -315h7l110 315h79zM368 579h-146v-327h-48v327h-141v47h335v-47z" />
    <glyph glyph-name="minus" unicode="&#x2212;" horiz-adv-x="486" 
d="M446 208h-405l3 54h399z" />
    <glyph glyph-name="uni2215" unicode="&#x2215;" horiz-adv-x="578" 
d="M569 639l-506 -654h-55l508 654h53z" />
    <glyph glyph-name="approxequal" unicode="&#x2248;" horiz-adv-x="486" 
d="M416 358q-9 -51 -34 -77.5t-57 -26.5q-29 0 -85.5 28t-71.5 28q-40 0 -53 -51h-45q9 51 34 77.5t57 26.5q29 0 87 -28t70 -28q22 0 33.5 11t20.5 40h44zM416 210q-9 -51 -34 -77.5t-57 -26.5q-29 0 -85.5 28t-71.5 28q-40 0 -53 -51h-45q9 51 34 77.5t57 26.5
q29 0 87 -28t70 -28q22 0 33.5 11t20.5 40h44z" />
    <glyph glyph-name="notequal" unicode="&#x2260;" horiz-adv-x="446" 
d="M141 -23l37 142h-143l4 55h153l32 121h-185l-4 55h203l35 132h47l-35 -132h128l-4 -55h-138l-32 -121h170l4 -55h-188l-37 -142h-47z" />
    <glyph glyph-name="lessequal" unicode="&#x2264;" horiz-adv-x="486" 
d="M423 148v-59l-361 152v68l361 152v-60l-295 -122v-9zM424 9h-355l3 54h349z" />
    <glyph glyph-name="greaterequal" unicode="&#x2265;" horiz-adv-x="486" 
d="M63 89v59l295 122v9l-295 122v60l361 -152v-68zM417 9h-355l3 54h349z" />
    <glyph glyph-name="pcircle" unicode="&#x24df;" horiz-adv-x="729" 
d="M365 -16q-136 0 -231.5 95.5t-95.5 231.5t95.5 232t231.5 96t231.5 -96t95.5 -232t-95.5 -231.5t-231.5 -95.5zM663 311q0 123 -87.5 212t-210.5 89t-210.5 -89t-87.5 -212t87.5 -211t210.5 -88t210.5 88t87.5 211zM514 368q0 -60 -38.5 -91t-107.5 -31h-52v-118h-50v354
h107q70 0 105.5 -31t35.5 -83zM463 366q0 71 -92 71h-55v-146h56q91 2 91 75z" />
    <glyph glyph-name="commaaccent" unicode="&#xf6c3;" horiz-adv-x="397" 
d="M147 -95q1 17 14 29t34 12q26 0 43 -18.5t17 -46.5q0 -71 -92 -131l-23 20q58 43 58 85q0 18 -11.5 29t-39.5 21z" />
    <glyph glyph-name="J.alt" horiz-adv-x="373" 
d="M308 179q0 -192 -172 -192q-64 0 -120 34l10 61q56 -37 110 -37q109 0 109 136v444h63v-446z" />
    <glyph glyph-name="a.alt" horiz-adv-x="514" 
d="M381 377q-47 37 -115 37q-72 0 -116 -53t-44 -135q0 -81 41.5 -132t110.5 -51q66 0 123 52v1v1v1v1v1v1v1v1v1v1v1v1v1v1v1v1v1v1v1v1v1v1v1v1v1v1v1v1v1v1v1v1v1v1v1v1v1v1v1v1v1v1v1v1v1v1v1v1v1v1v1v1v1v1v1v1v1v2v1v1v1v1v1v1v1v2v1v1v1v1v2v1v1v1v1v2v1v1v1v2v1v1v1
v2v1v1v2v1v1v2v1v1v2v1v1v2v1v1v2v1v1v2v1v2v1v1v2v1v2v1v2v1v2v1v1v2v1v2v1v2v1v2v1v2v1v2v1v2v2v1v2v1v2v1v2v1v2v2v1v2v1v2v2v1v2v1v2v2v1v2v2v1v2v2v1v2v2v1v2v2v1v2v2v1v2v2v2v1v2v2v2v1v2v2v2v1v2v2v2v1v2v2v2v2v1v2v2v2v2v1v2v2v2v2v2v2v1v2v2v9zM248 -13
q-92 0 -148.5 66.5t-56.5 171.5q0 106 63.5 174.5t162.5 68.5q65 0 121 -26l52 29v-384q0 -27 9 -37t37 -9l-4 -51q-86 -5 -100 61q-62 -64 -136 -64z" />
    <glyph glyph-name="g.alt" horiz-adv-x="515" 
d="M443 -9q0 -229 -201 -229q-83 0 -150 32l15 57q61 -32 135 -32q140 0 140 169v57q-61 -57 -133 -57q-92 0 -149 66t-57 171q0 106 64 174.5t163 68.5q65 0 121 -26l52 29v-480zM382 96v1v1v1v1v1v1v1v1v1v1v1v1v1v1v1v1v1v1v1v1v1v1v1v1v1v1v1v1v1v1v1v1v1v1v1v1v1v1v1v1
v1v1v1v1v1v1v1v1v1v1v1v1v1v1v1v1v2v1v1v1v1v1v1v1v2v1v1v1v1v2v1v1v1v1v2v1v1v1v2v1v1v1v2v1v1v2v1v1v1v2v1v1v2v1v1v2v1v2v1v1v2v1v2v1v1v2v1v2v1v1v2v1v2v1v2v1v2v1v2v1v2v1v2v1v2v1v2v1v2v1v2v2v1v2v1v2v1v2v2v1v2v1v2v2v1v2v1v2v2v1v2v2v1v2v2v1v2v2v1v2v2v1v2v2v2v1v2
v2v2v1v2v2v2v1v2v2v2v1v2v2v2v2v1v2v2v2v2v1v2v2v2v2v2v1v2v2v2v2v9q-47 37 -115 37q-73 0 -117 -53t-44 -135q0 -80 42 -131t111 -51q66 0 123 52z" />
    <glyph glyph-name="agrave.alt" horiz-adv-x="514" 
d="M381 377q-47 37 -115 37q-72 0 -116 -53t-44 -135q0 -81 41.5 -132t110.5 -51q66 0 123 52v1v1v1v1v1v1v1v1v1v1v1v1v1v1v1v1v1v1v1v1v1v1v1v1v1v1v1v1v1v1v1v1v1v1v1v1v1v1v1v1v1v1v1v1v1v1v1v1v1v1v1v1v1v1v1v1v1v2v1v1v1v1v1v1v1v2v1v1v1v1v2v1v1v1v1v2v1v1v1v2v1v1v1
v2v1v1v2v1v1v2v1v1v2v1v1v2v1v1v2v1v1v2v1v2v1v1v2v1v2v1v2v1v2v1v1v2v1v2v1v2v1v2v1v2v1v2v1v2v2v1v2v1v2v1v2v1v2v2v1v2v1v2v2v1v2v1v2v2v1v2v2v1v2v2v1v2v2v1v2v2v1v2v2v1v2v2v2v1v2v2v2v1v2v2v2v1v2v2v2v1v2v2v2v2v1v2v2v2v2v1v2v2v2v2v2v2v1v2v2v9zM248 -13
q-92 0 -148.5 66.5t-56.5 171.5q0 106 63.5 174.5t162.5 68.5q65 0 121 -26l52 29v-384q0 -27 9 -37t37 -9l-4 -51q-86 -5 -100 61q-62 -64 -136 -64zM345 518h-46l-152 179h80z" />
    <glyph glyph-name="aacute.alt" horiz-adv-x="514" 
d="M442 697l-152 -179h-46l118 179h80zM381 377q-47 37 -115 37q-72 0 -116 -53t-44 -135q0 -81 41.5 -132t110.5 -51q66 0 123 52v1v1v1v1v1v1v1v1v1v1v1v1v1v1v1v1v1v1v1v1v1v1v1v1v1v1v1v1v1v1v1v1v1v1v1v1v1v1v1v1v1v1v1v1v1v1v1v1v1v1v1v1v1v1v1v1v1v2v1v1v1v1v1v1v1v2
v1v1v1v1v2v1v1v1v1v2v1v1v1v2v1v1v1v2v1v1v2v1v1v2v1v1v2v1v1v2v1v1v2v1v1v2v1v2v1v1v2v1v2v1v2v1v2v1v1v2v1v2v1v2v1v2v1v2v1v2v1v2v2v1v2v1v2v1v2v1v2v2v1v2v1v2v2v1v2v1v2v2v1v2v2v1v2v2v1v2v2v1v2v2v1v2v2v1v2v2v2v1v2v2v2v1v2v2v2v1v2v2v2v1v2v2v2v2v1v2v2v2v2v1v2v2v2
v2v2v2v1v2v2v9zM248 -13q-92 0 -148.5 66.5t-56.5 171.5q0 106 63.5 174.5t162.5 68.5q65 0 121 -26l52 29v-384q0 -27 9 -37t37 -9l-4 -51q-86 -5 -100 61q-62 -64 -136 -64z" />
    <glyph glyph-name="acircumflex.alt" horiz-adv-x="514" 
d="M430 518h-47l-100 135h-1l-101 -135h-47l113 182h70zM381 377q-47 37 -115 37q-72 0 -116 -53t-44 -135q0 -81 41.5 -132t110.5 -51q66 0 123 52v1v1v1v1v1v1v1v1v1v1v1v1v1v1v1v1v1v1v1v1v1v1v1v1v1v1v1v1v1v1v1v1v1v1v1v1v1v1v1v1v1v1v1v1v1v1v1v1v1v1v1v1v1v1v1v1v1v2
v1v1v1v1v1v1v1v2v1v1v1v1v2v1v1v1v1v2v1v1v1v2v1v1v1v2v1v1v2v1v1v2v1v1v2v1v1v2v1v1v2v1v1v2v1v2v1v1v2v1v2v1v2v1v2v1v1v2v1v2v1v2v1v2v1v2v1v2v1v2v2v1v2v1v2v1v2v1v2v2v1v2v1v2v2v1v2v1v2v2v1v2v2v1v2v2v1v2v2v1v2v2v1v2v2v1v2v2v2v1v2v2v2v1v2v2v2v1v2v2v2v1v2v2v2v2v1
v2v2v2v2v1v2v2v2v2v2v2v1v2v2v9zM248 -13q-92 0 -148.5 66.5t-56.5 171.5q0 106 63.5 174.5t162.5 68.5q65 0 121 -26l52 29v-384q0 -27 9 -37t37 -9l-4 -51q-86 -5 -100 61q-62 -64 -136 -64z" />
    <glyph glyph-name="atilde.alt" horiz-adv-x="514" 
d="M381 377q-47 37 -115 37q-72 0 -116 -53t-44 -135q0 -81 41.5 -132t110.5 -51q66 0 123 52v1v1v1v1v1v1v1v1v1v1v1v1v1v1v1v1v1v1v1v1v1v1v1v1v1v1v1v1v1v1v1v1v1v1v1v1v1v1v1v1v1v1v1v1v1v1v1v1v1v1v1v1v1v1v1v1v1v2v1v1v1v1v1v1v1v2v1v1v1v1v2v1v1v1v1v2v1v1v1v2v1v1v1
v2v1v1v2v1v1v2v1v1v2v1v1v2v1v1v2v1v1v2v1v2v1v1v2v1v2v1v2v1v2v1v1v2v1v2v1v2v1v2v1v2v1v2v1v2v2v1v2v1v2v1v2v1v2v2v1v2v1v2v2v1v2v1v2v2v1v2v2v1v2v2v1v2v2v1v2v2v1v2v2v1v2v2v2v1v2v2v2v1v2v2v2v1v2v2v2v1v2v2v2v2v1v2v2v2v2v1v2v2v2v2v2v2v1v2v2v9zM248 -13
q-92 0 -148.5 66.5t-56.5 171.5q0 106 63.5 174.5t162.5 68.5q65 0 121 -26l52 29v-384q0 -27 9 -37t37 -9l-4 -51q-86 -5 -100 61q-62 -64 -136 -64zM439 637q-16 -115 -89 -115q-32 0 -83 35.5t-67 35.5q-15 0 -25.5 -14t-19.5 -51h-1h-1h-1h-1h-1h-1h-1h-1h-1h-1h-1h-2
h-1h-1h-2h-1h-2h-2h-1h-2h-2h-2h-1h-2h-9q16 115 89 115q32 0 84 -36t67 -36t25 14.5t19 51.5h1h1h1h1h1h1h2h1h1h1h1h2h1h2h1h2h1h2h1h2h2h1h2h10z" />
    <glyph glyph-name="adieresis.alt" horiz-adv-x="514" 
d="M430 593q0 -21 -13 -35.5t-34 -14.5t-35 14.5t-14 35.5q0 20 14 34.5t35 14.5q20 0 33.5 -14.5t13.5 -34.5zM237 593q0 -21 -13.5 -35.5t-34.5 -14.5t-34 14.5t-13 35.5q0 20 13.5 34.5t33.5 14.5q21 0 34.5 -14.5t13.5 -34.5zM381 377q-47 37 -115 37q-72 0 -116 -53
t-44 -135q0 -81 41.5 -132t110.5 -51q66 0 123 52v1v1v1v1v1v1v1v1v1v1v1v1v1v1v1v1v1v1v1v1v1v1v1v1v1v1v1v1v1v1v1v1v1v1v1v1v1v1v1v1v1v1v1v1v1v1v1v1v1v1v1v1v1v1v1v1v1v2v1v1v1v1v1v1v1v2v1v1v1v1v2v1v1v1v1v2v1v1v1v2v1v1v1v2v1v1v2v1v1v2v1v1v2v1v1v2v1v1v2v1v1v2v1
v2v1v1v2v1v2v1v2v1v2v1v1v2v1v2v1v2v1v2v1v2v1v2v1v2v2v1v2v1v2v1v2v1v2v2v1v2v1v2v2v1v2v1v2v2v1v2v2v1v2v2v1v2v2v1v2v2v1v2v2v1v2v2v2v1v2v2v2v1v2v2v2v1v2v2v2v1v2v2v2v2v1v2v2v2v2v1v2v2v2v2v2v2v1v2v2v9zM248 -13q-92 0 -148.5 66.5t-56.5 171.5q0 106 63.5 174.5
t162.5 68.5q65 0 121 -26l52 29v-384q0 -27 9 -37t37 -9l-4 -51q-86 -5 -100 61q-62 -64 -136 -64z" />
    <glyph glyph-name="aring.alt" horiz-adv-x="514" 
d="M390 618q0 -44 -32.5 -73.5t-86.5 -29.5q-53 0 -85.5 29.5t-32.5 73.5t32.5 74t85.5 30q54 0 86 -30t33 -74zM346 617q0 29 -20.5 49t-54.5 20q-32 0 -52.5 -19.5t-20.5 -47.5t20.5 -48t52.5 -20q34 0 54.5 19t20.5 47zM381 377q-47 37 -115 37q-72 0 -116 -53t-44 -135
q0 -81 41.5 -132t110.5 -51q66 0 123 52v1v1v1v1v1v1v1v1v1v1v1v1v1v1v1v1v1v1v1v1v1v1v1v1v1v1v1v1v1v1v1v1v1v1v1v1v1v1v1v1v1v1v1v1v1v1v1v1v1v1v1v1v1v1v1v1v1v2v1v1v1v1v1v1v1v2v1v1v1v1v2v1v1v1v1v2v1v1v1v2v1v1v1v2v1v1v2v1v1v2v1v1v2v1v1v2v1v1v2v1v1v2v1v2v1v1v2v1
v2v1v2v1v2v1v1v2v1v2v1v2v1v2v1v2v1v2v1v2v2v1v2v1v2v1v2v1v2v2v1v2v1v2v2v1v2v1v2v2v1v2v2v1v2v2v1v2v2v1v2v2v1v2v2v1v2v2v2v1v2v2v2v1v2v2v2v1v2v2v2v1v2v2v2v2v1v2v2v2v2v1v2v2v2v2v2v2v1v2v2v9zM248 -13q-92 0 -148.5 66.5t-56.5 171.5q0 106 63.5 174.5t162.5 68.5
q65 0 121 -26l52 29v-384q0 -27 9 -37t37 -9l-4 -51q-86 -5 -100 61q-62 -64 -136 -64z" />
    <glyph glyph-name="aringacute.alt" horiz-adv-x="514" 
d="M405 921l-152 -179h-46l118 179h80zM390 618q0 -44 -32.5 -73.5t-86.5 -29.5q-53 0 -85.5 29.5t-32.5 73.5t32.5 74t85.5 30q54 0 86 -30t33 -74zM346 617q0 29 -20.5 49t-54.5 20q-32 0 -52.5 -19.5t-20.5 -47.5t20.5 -48t52.5 -20q34 0 54.5 19t20.5 47zM381 377
q-47 37 -115 37q-72 0 -116 -53t-44 -135q0 -81 41.5 -132t110.5 -51q66 0 123 52v1v1v1v1v1v1v1v1v1v1v1v1v1v1v1v1v1v1v1v1v1v1v1v1v1v1v1v1v1v1v1v1v1v1v1v1v1v1v1v1v1v1v1v1v1v1v1v1v1v1v1v1v1v1v1v1v1v2v1v1v1v1v1v1v1v2v1v1v1v1v2v1v1v1v1v2v1v1v1v2v1v1v1v2v1v1v2v1
v1v2v1v1v2v1v1v2v1v1v2v1v1v2v1v2v1v1v2v1v2v1v2v1v2v1v1v2v1v2v1v2v1v2v1v2v1v2v1v2v2v1v2v1v2v1v2v1v2v2v1v2v1v2v2v1v2v1v2v2v1v2v2v1v2v2v1v2v2v1v2v2v1v2v2v1v2v2v2v1v2v2v2v1v2v2v2v1v2v2v2v1v2v2v2v2v1v2v2v2v2v1v2v2v2v2v2v2v1v2v2v9zM248 -13q-92 0 -148.5 66.5
t-56.5 171.5q0 106 63.5 174.5t162.5 68.5q65 0 121 -26l52 29v-384q0 -27 9 -37t37 -9l-4 -51q-86 -5 -100 61q-62 -64 -136 -64z" />
    <glyph glyph-name="amacron.alt" horiz-adv-x="514" 
d="M381 377q-47 37 -115 37q-72 0 -116 -53t-44 -135q0 -81 41.5 -132t110.5 -51q66 0 123 52v1v1v1v1v1v1v1v1v1v1v1v1v1v1v1v1v1v1v1v1v1v1v1v1v1v1v1v1v1v1v1v1v1v1v1v1v1v1v1v1v1v1v1v1v1v1v1v1v1v1v1v1v1v1v1v1v1v2v1v1v1v1v1v1v1v2v1v1v1v1v2v1v1v1v1v2v1v1v1v2v1v1v1
v2v1v1v2v1v1v2v1v1v2v1v1v2v1v1v2v1v1v2v1v2v1v1v2v1v2v1v2v1v2v1v1v2v1v2v1v2v1v2v1v2v1v2v1v2v2v1v2v1v2v1v2v1v2v2v1v2v1v2v2v1v2v1v2v2v1v2v2v1v2v2v1v2v2v1v2v2v1v2v2v1v2v2v2v1v2v2v2v1v2v2v2v1v2v2v2v1v2v2v2v2v1v2v2v2v2v1v2v2v2v2v2v2v1v2v2v9zM248 -13
q-92 0 -148.5 66.5t-56.5 171.5q0 106 63.5 174.5t162.5 68.5q65 0 121 -26l52 29v-384q0 -27 9 -37t37 -9l-4 -51q-86 -5 -100 61q-62 -64 -136 -64zM410 536h-255l3 45h248z" />
    <glyph glyph-name="abreve.alt" horiz-adv-x="514" 
d="M381 377q-47 37 -115 37q-72 0 -116 -53t-44 -135q0 -81 41.5 -132t110.5 -51q66 0 123 52v1v1v1v1v1v1v1v1v1v1v1v1v1v1v1v1v1v1v1v1v1v1v1v1v1v1v1v1v1v1v1v1v1v1v1v1v1v1v1v1v1v1v1v1v1v1v1v1v1v1v1v1v1v1v1v1v1v2v1v1v1v1v1v1v1v2v1v1v1v1v2v1v1v1v1v2v1v1v1v2v1v1v1
v2v1v1v2v1v1v2v1v1v2v1v1v2v1v1v2v1v1v2v1v2v1v1v2v1v2v1v2v1v2v1v1v2v1v2v1v2v1v2v1v2v1v2v1v2v2v1v2v1v2v1v2v1v2v2v1v2v1v2v2v1v2v1v2v2v1v2v2v1v2v2v1v2v2v1v2v2v1v2v2v1v2v2v2v1v2v2v2v1v2v2v2v1v2v2v2v1v2v2v2v2v1v2v2v2v2v1v2v2v2v2v2v2v1v2v2v9zM248 -13
q-92 0 -148.5 66.5t-56.5 171.5q0 106 63.5 174.5t162.5 68.5q65 0 121 -26l52 29v-384q0 -27 9 -37t37 -9l-4 -51q-86 -5 -100 61q-62 -64 -136 -64zM434 699q-14 -79 -50 -130.5t-99 -51.5t-99 51.5t-50 130.5h49q31 -133 100 -133q70 0 100 133h49z" />
    <glyph glyph-name="aogonek.alt" horiz-adv-x="514" 
d="M488 41l-4 -51q-47 0 -80 -28t-33 -69q0 -24 12.5 -38t34.5 -14q29 0 51 17l15 -46q-30 -26 -78 -26q-42 0 -68.5 24.5t-26.5 65.5q0 43 28.5 78.5t71.5 52.5q-22 16 -27 44q-62 -64 -136 -64q-92 0 -148.5 66.5t-56.5 171.5q0 106 63.5 174.5t162.5 68.5q65 0 121 -26
l52 29v-384q0 -27 9 -37t37 -9zM381 377q-47 37 -115 37q-72 0 -116 -53t-44 -135q0 -81 41.5 -132t110.5 -51q66 0 123 52v282z" />
    <glyph glyph-name="gcircumflex.alt" horiz-adv-x="515" 
d="M422 518h-47l-100 135h-1l-101 -135h-47l113 182h70zM443 -9q0 -229 -201 -229q-83 0 -150 32l15 57q61 -32 135 -32q140 0 140 169v57q-61 -57 -133 -57q-92 0 -149 66t-57 171q0 106 64 174.5t163 68.5q65 0 121 -26l52 29v-480zM382 96v1v1v1v1v1v1v1v1v1v1v1v1v1v1v1
v1v1v1v1v1v1v1v1v1v1v1v1v1v1v1v1v1v1v1v1v1v1v1v1v1v1v1v1v1v1v1v1v1v1v1v1v1v1v1v1v1v2v1v1v1v1v1v1v1v2v1v1v1v1v2v1v1v1v1v2v1v1v1v2v1v1v1v2v1v1v2v1v1v1v2v1v1v2v1v1v2v1v2v1v1v2v1v2v1v1v2v1v2v1v1v2v1v2v1v2v1v2v1v2v1v2v1v2v1v2v1v2v1v2v1v2v2v1v2v1v2v1v2v2v1v2v1
v2v2v1v2v1v2v2v1v2v2v1v2v2v1v2v2v1v2v2v1v2v2v2v1v2v2v2v1v2v2v2v1v2v2v2v1v2v2v2v2v1v2v2v2v2v1v2v2v2v2v2v1v2v2v2v2v9q-47 37 -115 37q-73 0 -117 -53t-44 -135q0 -80 42 -131t111 -51q66 0 123 52z" />
    <glyph glyph-name="gbreve.alt" horiz-adv-x="515" 
d="M443 -9q0 -229 -201 -229q-83 0 -150 32l15 57q61 -32 135 -32q140 0 140 169v57q-61 -57 -133 -57q-92 0 -149 66t-57 171q0 106 64 174.5t163 68.5q65 0 121 -26l52 29v-480zM382 96v1v1v1v1v1v1v1v1v1v1v1v1v1v1v1v1v1v1v1v1v1v1v1v1v1v1v1v1v1v1v1v1v1v1v1v1v1v1v1v1
v1v1v1v1v1v1v1v1v1v1v1v1v1v1v1v1v2v1v1v1v1v1v1v1v2v1v1v1v1v2v1v1v1v1v2v1v1v1v2v1v1v1v2v1v1v2v1v1v1v2v1v1v2v1v1v2v1v2v1v1v2v1v2v1v1v2v1v2v1v1v2v1v2v1v2v1v2v1v2v1v2v1v2v1v2v1v2v1v2v1v2v2v1v2v1v2v1v2v2v1v2v1v2v2v1v2v1v2v2v1v2v2v1v2v2v1v2v2v1v2v2v1v2v2v2v1v2
v2v2v1v2v2v2v1v2v2v2v1v2v2v2v2v1v2v2v2v2v1v2v2v2v2v2v1v2v2v2v2v9q-47 37 -115 37q-73 0 -117 -53t-44 -135q0 -80 42 -131t111 -51q66 0 123 52zM427 699q-14 -79 -50 -130.5t-99 -51.5t-99 51.5t-50 130.5h49q31 -133 100 -133q70 0 100 133h49z" />
    <glyph glyph-name="gdotaccent.alt" horiz-adv-x="515" 
d="M443 -9q0 -229 -201 -229q-83 0 -150 32l15 57q61 -32 135 -32q140 0 140 169v57q-61 -57 -133 -57q-92 0 -149 66t-57 171q0 106 64 174.5t163 68.5q65 0 121 -26l52 29v-480zM382 96v1v1v1v1v1v1v1v1v1v1v1v1v1v1v1v1v1v1v1v1v1v1v1v1v1v1v1v1v1v1v1v1v1v1v1v1v1v1v1v1
v1v1v1v1v1v1v1v1v1v1v1v1v1v1v1v1v2v1v1v1v1v1v1v1v2v1v1v1v1v2v1v1v1v1v2v1v1v1v2v1v1v1v2v1v1v2v1v1v1v2v1v1v2v1v1v2v1v2v1v1v2v1v2v1v1v2v1v2v1v1v2v1v2v1v2v1v2v1v2v1v2v1v2v1v2v1v2v1v2v1v2v2v1v2v1v2v1v2v2v1v2v1v2v2v1v2v1v2v2v1v2v2v1v2v2v1v2v2v1v2v2v1v2v2v2v1v2
v2v2v1v2v2v2v1v2v2v2v1v2v2v2v2v1v2v2v2v2v1v2v2v2v2v2v1v2v2v2v2v9q-47 37 -115 37q-73 0 -117 -53t-44 -135q0 -80 42 -131t111 -51q66 0 123 52zM317 592q0 -20 -13.5 -34.5t-33.5 -14.5t-33 14.5t-13 34.5t13 34t33 14q21 0 34 -14t13 -34z" />
    <glyph glyph-name="gcommaaccent.alt" horiz-adv-x="515" 
d="M319 558q-1 -17 -14 -29t-34 -12q-26 0 -43 18.5t-17 46.5q0 71 92 131l23 -20q-58 -43 -58 -85q0 -18 11.5 -29t39.5 -21zM443 -9q0 -229 -201 -229q-83 0 -150 32l15 57q61 -32 135 -32q140 0 140 169v57q-61 -57 -133 -57q-92 0 -149 66t-57 171q0 106 64 174.5
t163 68.5q65 0 121 -26l52 29v-480zM382 96v1v1v1v1v1v1v1v1v1v1v1v1v1v1v1v1v1v1v1v1v1v1v1v1v1v1v1v1v1v1v1v1v1v1v1v1v1v1v1v1v1v1v1v1v1v1v1v1v1v1v1v1v1v1v1v1v2v1v1v1v1v1v1v1v2v1v1v1v1v2v1v1v1v1v2v1v1v1v2v1v1v1v2v1v1v2v1v1v1v2v1v1v2v1v1v2v1v2v1v1v2v1v2v1v1v2
v1v2v1v1v2v1v2v1v2v1v2v1v2v1v2v1v2v1v2v1v2v1v2v1v2v2v1v2v1v2v1v2v2v1v2v1v2v2v1v2v1v2v2v1v2v2v1v2v2v1v2v2v1v2v2v1v2v2v2v1v2v2v2v1v2v2v2v1v2v2v2v1v2v2v2v2v1v2v2v2v2v1v2v2v2v2v2v1v2v2v2v2v9q-47 37 -115 37q-73 0 -117 -53t-44 -135q0 -80 42 -131t111 -51
q66 0 123 52z" />
    <glyph glyph-name="Jcircumflex.alt" horiz-adv-x="373" 
d="M423 685h-47l-100 135h-1l-101 -135h-47l113 182h70zM308 179q0 -192 -172 -192q-64 0 -120 34l10 61q56 -37 110 -37q109 0 109 136v444h63v-446z" />
    <glyph glyph-name="dot" horiz-adv-x="187" 
d="M144 229q0 -21 -14.5 -36.5t-35.5 -15.5t-35.5 15.5t-14.5 36.5q0 20 14.5 34.5t35.5 14.5t35.5 -14.5t14.5 -34.5z" />
    <glyph glyph-name="a.smallcap" horiz-adv-x="473" 
d="M274 472l174 -472h-61l-46 126h-209l-46 -126h-62l177 472h73zM322 180l-85 235l-86 -235h171z" />
    <glyph glyph-name="b.smallcap" horiz-adv-x="467" 
d="M324 241q46 -9 71.5 -39t25.5 -70q0 -62 -41.5 -97t-129.5 -35h-176v472h171q83 0 122 -33.5t39 -92.5q0 -35 -21 -63.5t-61 -41.5zM345 342q0 76 -104 76h-107v-156h104q107 0 107 80zM360 134q0 76 -118 76h-108v-156h115q111 0 111 80z" />
    <glyph glyph-name="c.smallcap" horiz-adv-x="472" 
d="M427 444l-19 -53q-61 37 -129 37q-76 0 -123 -51t-47 -140t46.5 -141t124.5 -52q77 0 131 42l12 -59q-61 -37 -145 -37q-105 0 -167.5 66t-62.5 179q0 112 64 179.5t167 67.5q84 0 148 -38z" />
    <glyph glyph-name="d.smallcap" horiz-adv-x="511" 
d="M463 239q0 -111 -67.5 -175t-188.5 -64h-133v472h138q116 0 183.5 -63.5t67.5 -169.5zM401 235q0 87 -51 134.5t-143 47.5h-72v-362h74q88 0 140 46t52 134z" />
    <glyph glyph-name="e.smallcap" horiz-adv-x="422" 
d="M369 0h-295v472h295v-55h-235v-153h196v-55h-196v-154h235v-55z" />
    <glyph glyph-name="f.smallcap" horiz-adv-x="402" 
d="M74 0v472h288v-55h-228v-161h189v-56h-189v-200h-60z" />
    <glyph glyph-name="g.smallcap" horiz-adv-x="506" 
d="M108 237q0 -89 47.5 -141.5t126.5 -52.5q62 0 106 26v116h-123v56h181v-206q-71 -45 -165 -45q-105 0 -169 66.5t-64 178.5t65 179.5t169 67.5q93 0 156 -39l-19 -55q-62 40 -137 40q-77 0 -125.5 -51t-48.5 -140z" />
    <glyph glyph-name="h.smallcap" horiz-adv-x="530" 
d="M456 0h-61v210h-260v-210h-61v472h61v-207h260v207h61v-472z" />
    <glyph glyph-name="i.smallcap" horiz-adv-x="211" 
d="M136 0h-61v472h61v-472z" />
    <glyph glyph-name="j.smallcap" horiz-adv-x="345" 
d="M281 148q0 -74 -36 -116t-109 -42q-60 0 -109 30l9 57q50 -33 96 -33q88 0 88 107v321h61v-324z" />
    <glyph glyph-name="j.smallcap.alt" horiz-adv-x="319" 
d="M255 139q0 -149 -134 -149q-53 0 -94 26l9 57q42 -29 82 -29q76 0 76 95v333h61v-333z" />
    <glyph glyph-name="k.smallcap" horiz-adv-x="439" 
d="M135 248h1l205 224h77l-224 -232l226 -240h-77l-207 223h-1v-223h-61v472h61v-224z" />
    <glyph glyph-name="l.smallcap" horiz-adv-x="395" 
d="M362 0h-288v472h61v-417h227v-55z" />
    <glyph glyph-name="m.smallcap" horiz-adv-x="612" 
d="M552 0h-61l-8 393l-144 -393h-65l-146 394l-8 -394h-60l15 472h84l149 -405l146 405h83z" />
    <glyph glyph-name="n.smallcap" horiz-adv-x="528" 
d="M398 87l-1 385h58v-477h-66l-258 389l1 -384h-58v472h68z" />
    <glyph glyph-name="o.smallcap" horiz-adv-x="566" 
d="M518 238q0 -108 -66.5 -178t-168.5 -70t-168.5 67.5t-66.5 177.5q0 108 66.5 177.5t168.5 69.5t168.5 -67.5t66.5 -176.5zM456 235q0 87 -48.5 140.5t-126.5 53.5q-75 0 -123.5 -53.5t-48.5 -137.5q0 -87 49 -141t126 -54t124.5 53.5t47.5 138.5z" />
    <glyph glyph-name="p.smallcap" horiz-adv-x="442" 
d="M399 322q0 -79 -51 -119.5t-143 -41.5h-70v-161h-61v472h139q91 0 138.5 -41t47.5 -109zM337 319q0 98 -128 98h-75v-202l75 1q128 2 128 103z" />
    <glyph glyph-name="q.smallcap" horiz-adv-x="566" 
d="M383 13l148 -74l-25 -52l-196 104q-4 0 -13 -0.5t-14 -0.5q-102 0 -168.5 67.5t-66.5 177.5q0 108 66.5 177.5t168.5 69.5t168.5 -67.5t66.5 -176.5q0 -77 -36.5 -137t-98.5 -88zM456 235q0 87 -48.5 140.5t-126.5 53.5q-75 0 -123.5 -53.5t-48.5 -137.5q0 -87 49 -141
t126 -54t124.5 53.5t47.5 138.5z" />
    <glyph glyph-name="r.smallcap" horiz-adv-x="464" 
d="M135 172v-172h-61v472h145q88 0 134 -38t46 -106q0 -100 -95 -136l120 -192h-70l-110 178zM134 225l85 2q57 1 88 26.5t31 70.5q0 93 -124 93h-80v-192z" />
    <glyph glyph-name="s.smallcap" horiz-adv-x="413" 
d="M200 43q46 0 75 23t29 58q0 36 -26.5 55t-87.5 36q-30 9 -51 18t-43.5 24.5t-34 39t-11.5 54.5q0 59 43 95t113 36q83 0 149 -40l-19 -54q-61 40 -129 40q-47 0 -71.5 -21t-24.5 -52q0 -34 26.5 -51.5t88.5 -35.5q63 -19 100.5 -49.5t37.5 -89.5q0 -61 -46 -100t-119 -39
q-84 0 -157 43l18 54q71 -44 140 -44z" />
    <glyph glyph-name="t.smallcap" horiz-adv-x="449" 
d="M419 417h-164v-417h-61v417h-164v55h389v-55z" />
    <glyph glyph-name="u.smallcap" horiz-adv-x="492" 
d="M429 182q0 -91 -47 -141.5t-136 -50.5q-87 0 -135 49t-48 136v297h60v-290q0 -66 31.5 -101.5t93.5 -35.5q121 0 121 137v290h60v-290z" />
    <glyph glyph-name="v.smallcap" horiz-adv-x="462" 
d="M438 472l-171 -472h-73l-170 472h62l145 -409l146 409h61z" />
    <glyph glyph-name="w.smallcap" horiz-adv-x="718" 
d="M360 400l-122 -400h-60l-133 472h63l103 -389l114 389h71l116 -389l100 389h61l-132 -472h-62z" />
    <glyph glyph-name="x.smallcap" horiz-adv-x="466" 
d="M232 199l-137 -199h-70l172 239l-165 233h73l128 -188l129 188h71l-165 -231l172 -241h-73z" />
    <glyph glyph-name="y.smallcap" horiz-adv-x="438" 
d="M414 472l-164 -286v-186h-61v187l-164 285h66l130 -226l126 226h67z" />
    <glyph glyph-name="z.smallcap" horiz-adv-x="429" 
d="M380 0h-344v44l270 373h-266v55h341v-45l-269 -372h268v-55z" />
    <glyph glyph-name="fi.smallcap" horiz-adv-x="612" 
d="M537 0h-60v472h60v-472zM74 0v472h288v-55h-228v-161h189v-56h-189v-200h-60z" />
    <glyph glyph-name="fl.smallcap" horiz-adv-x="797" 
d="M763 0h-287v472h60v-417h227v-55zM74 0v472h288v-55h-228v-161h189v-56h-189v-200h-60z" />
    <glyph glyph-name="ff.smallcap" horiz-adv-x="803" 
d="M476 0v472h287v-55h-227v-161h188v-56h-188v-200h-60zM74 0v472h288v-55h-228v-161h189v-56h-189v-200h-60z" />
    <glyph glyph-name="ffi.smallcap" horiz-adv-x="1014" 
d="M939 0h-61v472h61v-472zM476 0v472h287v-55h-227v-161h188v-56h-188v-200h-60zM74 0v472h288v-55h-228v-161h189v-56h-189v-200h-60z" />
    <glyph glyph-name="ffl.smallcap" horiz-adv-x="1198" 
d="M1165 0h-288v472h61v-417h227v-55zM476 0v472h287v-55h-227v-161h188v-56h-188v-200h-60zM74 0v472h288v-55h-228v-161h189v-56h-189v-200h-60z" />
    <glyph glyph-name="germandbls.smallcap" horiz-adv-x="825" 
d="M614 43q46 0 75.5 23t29.5 58q0 36 -27 54.5t-88 36.5q-30 9 -51 18t-43.5 24.5t-34 39t-11.5 54.5q0 59 43 95t113 36q82 0 148 -40l-19 -53q-60 39 -128 39q-48 0 -72.5 -21t-24.5 -52q0 -34 27 -51.5t88 -35.5q63 -19 100.5 -49.5t37.5 -89.5q0 -61 -46 -100t-118 -39
q-86 0 -157 43l18 54q67 -44 140 -44zM201 43q46 0 75.5 23t29.5 58q0 36 -27 55t-88 36q-30 9 -51 18t-43.5 24.5t-34 39t-11.5 54.5q0 58 43.5 94.5t112.5 36.5q83 0 149 -40l-19 -53q-62 39 -129 39q-47 0 -72 -21t-25 -52q0 -34 27 -51.5t89 -35.5q63 -19 100.5 -49.5
t37.5 -89.5q0 -61 -46 -100t-119 -39q-84 0 -157 43l18 54q68 -44 140 -44z" />
    <glyph glyph-name="agrave.smallcap" horiz-adv-x="473" 
d="M274 472l174 -472h-61l-46 126h-209l-46 -126h-62l177 472h73zM322 180l-85 235l-86 -235h171zM335 518h-46l-152 179h80z" />
    <glyph glyph-name="aacute.smallcap" horiz-adv-x="473" 
d="M274 472l174 -472h-61l-46 126h-209l-46 -126h-62l177 472h73zM322 180l-85 235l-86 -235h171zM335 697l-152 -179h-46l118 179h80z" />
    <glyph glyph-name="acircumflex.smallcap" horiz-adv-x="473" 
d="M274 472l174 -472h-61l-46 126h-209l-46 -126h-62l177 472h73zM322 180l-85 235l-86 -235h171zM384 518h-47l-100 135h-1l-101 -135h-47l113 182h70z" />
    <glyph glyph-name="atilde.smallcap" horiz-adv-x="473" 
d="M274 472l174 -472h-61l-46 126h-209l-46 -126h-62l177 472h73zM322 180l-85 235l-86 -235h171zM399 637q-16 -115 -89 -115q-32 0 -83 35.5t-67 35.5q-15 0 -25.5 -14t-19.5 -51h-1h-1h-1h-1h-1h-1h-1h-1h-1h-1h-1h-2h-1h-1h-2h-1h-2h-2h-1h-2h-2h-2h-1h-2h-9
q16 115 89 115q32 0 84 -36t67 -36t25 14.5t19 51.5h1h1h1h1h1h1h2h1h1h1h1h2h1h2h1h2h1h2h1h2h2h1h2h10z" />
    <glyph glyph-name="adieresis.smallcap" horiz-adv-x="473" 
d="M274 472l174 -472h-61l-46 126h-209l-46 -126h-62l177 472h73zM322 180l-85 235l-86 -235h171zM380 593q0 -21 -13 -35.5t-34 -14.5t-35 14.5t-14 35.5q0 20 14 34.5t35 14.5q20 0 33.5 -14.5t13.5 -34.5zM187 593q0 -21 -13.5 -35.5t-34.5 -14.5t-34 14.5t-13 35.5
q0 20 13.5 34.5t33.5 14.5q21 0 34.5 -14.5t13.5 -34.5z" />
    <glyph glyph-name="aring.smallcap" horiz-adv-x="470" 
d="M189 444q-33 10 -52 36t-19 59q0 44 32.5 74t85.5 30t85 -30t32 -74q1 -32 -18 -57.5t-53 -37.5l164 -444h-61l-46 126h-209l-46 -126h-62zM310 539q0 28 -20.5 48t-53.5 20q-34 0 -54.5 -19.5t-20.5 -47.5q0 -29 20.5 -48.5t54.5 -19.5t54 19t20 48zM320 180l-84 235
l-87 -235h171z" />
    <glyph glyph-name="aringacute.smallcap" horiz-adv-x="470" 
d="M371 842l-152 -179h-46l118 179h80zM189 444q-33 10 -52 36t-19 59q0 44 32.5 74t85.5 30t85 -30t32 -74q1 -32 -18 -57.5t-53 -37.5l164 -444h-61l-46 126h-209l-46 -126h-62zM310 539q0 28 -20.5 48t-53.5 20q-34 0 -54.5 -19.5t-20.5 -47.5q0 -29 20.5 -48.5
t54.5 -19.5t54 19t20 48zM320 180l-84 235l-87 -235h171z" />
    <glyph glyph-name="amacron.smallcap" horiz-adv-x="473" 
d="M274 472l174 -472h-61l-46 126h-209l-46 -126h-62l177 472h73zM322 180l-85 235l-86 -235h171zM364 536h-255l3 45h248z" />
    <glyph glyph-name="abreve.smallcap" horiz-adv-x="473" 
d="M274 472l174 -472h-61l-46 126h-209l-46 -126h-62l177 472h73zM322 180l-85 235l-86 -235h171zM385 699q-14 -79 -50 -130.5t-99 -51.5t-99 51.5t-50 130.5h49q31 -133 100 -133q70 0 100 133h49z" />
    <glyph glyph-name="aogonek.smallcap" horiz-adv-x="473" 
d="M274 472l174 -472q-38 -9 -66 -43t-28 -64q0 -24 12.5 -38t34.5 -14q29 0 51 17l15 -47q-33 -25 -78 -25q-42 0 -68.5 24.5t-26.5 65.5q0 78 89 134l-42 116h-209l-46 -126h-62l178 472h72zM322 180l-85 236l-86 -236h171z" />
    <glyph glyph-name="ae.smallcap" horiz-adv-x="671" 
d="M158 126l-70 -126h-66l265 472h331v-55h-235v-153h196v-55h-196v-154h235v-55h-295v126h-165zM187 180h136v241z" />
    <glyph glyph-name="aeacute.smallcap" horiz-adv-x="671" 
d="M548 697l-152 -179h-46l118 179h80zM158 126l-70 -126h-66l265 472h331v-55h-235v-153h196v-55h-196v-154h235v-55h-295v126h-165zM187 180h136v241z" />
    <glyph glyph-name="ccedilla.smallcap" horiz-adv-x="476" 
d="M247 -8q-91 10 -145 75t-54 168q0 112 64 179.5t167 67.5q84 0 148 -38l-19 -53q-61 37 -129 37q-76 0 -123 -51t-47 -140t46.5 -141t124.5 -52q77 0 131 42l12 -59q-53 -33 -127 -36l-60 -59q55 2 88.5 -19.5t33.5 -62.5q0 -43 -40.5 -72t-119.5 -38l-5 42q115 6 115 63
q0 32 -35 43t-96 -1l-6 30z" />
    <glyph glyph-name="cacute.smallcap" horiz-adv-x="472" 
d="M427 444l-19 -53q-61 37 -129 37q-76 0 -123 -51t-47 -140t46.5 -141t124.5 -52q77 0 131 42l12 -59q-61 -37 -145 -37q-105 0 -167.5 66t-62.5 179q0 112 64 179.5t167 67.5q84 0 148 -38zM335 697l-152 -179h-46l118 179h80z" />
    <glyph glyph-name="ccircumflex.smallcap" horiz-adv-x="472" 
d="M427 444l-19 -53q-61 37 -129 37q-76 0 -123 -51t-47 -140t46.5 -141t124.5 -52q77 0 131 42l12 -59q-61 -37 -145 -37q-105 0 -167.5 66t-62.5 179q0 112 64 179.5t167 67.5q84 0 148 -38zM384 518h-47l-100 135h-1l-101 -135h-47l113 182h70z" />
    <glyph glyph-name="cdotaccent.smallcap" horiz-adv-x="472" 
d="M427 444l-19 -53q-61 37 -129 37q-76 0 -123 -51t-47 -140t46.5 -141t124.5 -52q77 0 131 42l12 -59q-61 -37 -145 -37q-105 0 -167.5 66t-62.5 179q0 112 64 179.5t167 67.5q84 0 148 -38zM282 592q0 -20 -13.5 -34.5t-33.5 -14.5t-33 14.5t-13 34.5t13 34t33 14
q21 0 34 -14t13 -34z" />
    <glyph glyph-name="ccaron.smallcap" horiz-adv-x="472" 
d="M427 444l-19 -53q-61 37 -129 37q-76 0 -123 -51t-47 -140t46.5 -141t124.5 -52q77 0 131 42l12 -59q-61 -37 -145 -37q-105 0 -167.5 66t-62.5 179q0 112 64 179.5t167 67.5q84 0 148 -38zM384 695l-113 -182h-70l-113 182h47l100 -136h1l101 136h47z" />
    <glyph glyph-name="dcaron.smallcap" horiz-adv-x="511" 
d="M463 239q0 -111 -67.5 -175t-188.5 -64h-133v472h138q116 0 183.5 -63.5t67.5 -169.5zM401 235q0 87 -51 134.5t-143 47.5h-72v-362h74q88 0 140 46t52 134zM403 695l-113 -182h-70l-113 182h47l100 -136h1l101 136h47z" />
    <glyph glyph-name="eth.smallcap" horiz-adv-x="542" 
d="M492 239q0 -111 -67.5 -175t-188.5 -64h-133v211h-78v55h78v206h138q116 0 183.5 -63.5t67.5 -169.5zM431 235q0 87 -51 134.5t-144 47.5h-72v-151h139v-55h-139v-156h74q89 0 141 46t52 134z" />
    <glyph glyph-name="dcroat.smallcap" horiz-adv-x="542" 
d="M492 239q0 -111 -67.5 -175t-188.5 -64h-133v211h-78v55h78v206h138q116 0 183.5 -63.5t67.5 -169.5zM431 235q0 87 -51 134.5t-144 47.5h-72v-151h139v-55h-139v-156h74q89 0 141 46t52 134z" />
    <glyph glyph-name="egrave.smallcap" horiz-adv-x="422" 
d="M369 0h-295v472h295v-55h-235v-153h196v-55h-196v-154h235v-55zM310 518h-46l-152 179h80z" />
    <glyph glyph-name="eacute.smallcap" horiz-adv-x="422" 
d="M369 0h-295v472h295v-55h-235v-153h196v-55h-196v-154h235v-55zM310 697l-152 -179h-46l118 179h80z" />
    <glyph glyph-name="ecircumflex.smallcap" horiz-adv-x="422" 
d="M369 0h-295v472h295v-55h-235v-153h196v-55h-196v-154h235v-55zM359 518h-47l-100 135h-1l-101 -135h-47l113 182h70z" />
    <glyph glyph-name="edieresis.smallcap" horiz-adv-x="422" 
d="M369 0h-295v472h295v-55h-235v-153h196v-55h-196v-154h235v-55zM355 593q0 -21 -13 -35.5t-34 -14.5t-35 14.5t-14 35.5q0 20 14 34.5t35 14.5q20 0 33.5 -14.5t13.5 -34.5zM162 593q0 -21 -13.5 -35.5t-34.5 -14.5t-34 14.5t-13 35.5q0 20 13.5 34.5t33.5 14.5
q21 0 34.5 -14.5t13.5 -34.5z" />
    <glyph glyph-name="emacron.smallcap" horiz-adv-x="422" 
d="M369 0h-295v472h295v-55h-235v-153h196v-55h-196v-154h235v-55zM338 536h-255l3 45h248z" />
    <glyph glyph-name="ebreve.smallcap" horiz-adv-x="422" 
d="M369 0h-295v472h295v-55h-235v-153h196v-55h-196v-154h235v-55zM360 699q-14 -79 -50 -130.5t-99 -51.5t-99 51.5t-50 130.5h49q31 -133 100 -133q70 0 100 133h49z" />
    <glyph glyph-name="edotaccent.smallcap" horiz-adv-x="422" 
d="M369 0h-295v472h295v-55h-235v-153h196v-55h-196v-154h235v-55zM257 592q0 -20 -13.5 -34.5t-33.5 -14.5t-33 14.5t-13 34.5t13 34t33 14q21 0 34 -14t13 -34z" />
    <glyph glyph-name="eogonek.smallcap" horiz-adv-x="422" 
d="M369 0h-42q-70 -55 -70 -112q0 -24 12.5 -38t34.5 -14q28 0 50 17l16 -47q-35 -25 -79 -25q-41 0 -68 24.5t-27 65.5q0 77 86 129h-208v472h295v-54h-235v-154h196v-55h-196v-154h235v-55z" />
    <glyph glyph-name="ecaron.smallcap" horiz-adv-x="422" 
d="M369 0h-295v472h295v-55h-235v-153h196v-55h-196v-154h235v-55zM359 695l-113 -182h-70l-113 182h47l100 -136h1l101 136h47z" />
    <glyph glyph-name="gcircumflex.smallcap" horiz-adv-x="506" 
d="M108 237q0 -89 47.5 -141.5t126.5 -52.5q62 0 106 26v116h-123v56h181v-206q-71 -45 -165 -45q-105 0 -169 66.5t-64 178.5t65 179.5t169 67.5q93 0 156 -39l-19 -55q-62 40 -137 40q-77 0 -125.5 -51t-48.5 -140zM401 518h-47l-100 135h-1l-101 -135h-47l113 182h70z
" />
    <glyph glyph-name="gbreve.smallcap" horiz-adv-x="506" 
d="M108 237q0 -89 47.5 -141.5t126.5 -52.5q62 0 106 26v116h-123v56h181v-206q-71 -45 -165 -45q-105 0 -169 66.5t-64 178.5t65 179.5t169 67.5q93 0 156 -39l-19 -55q-62 40 -137 40q-77 0 -125.5 -51t-48.5 -140zM402 699q-14 -79 -50 -130.5t-99 -51.5t-99 51.5
t-50 130.5h49q31 -133 100 -133q70 0 100 133h49z" />
    <glyph glyph-name="gdotaccent.smallcap" horiz-adv-x="506" 
d="M108 237q0 -89 47.5 -141.5t126.5 -52.5q62 0 106 26v116h-123v56h181v-206q-71 -45 -165 -45q-105 0 -169 66.5t-64 178.5t65 179.5t169 67.5q93 0 156 -39l-19 -55q-62 40 -137 40q-77 0 -125.5 -51t-48.5 -140zM299 592q0 -20 -13.5 -34.5t-33.5 -14.5t-33 14.5
t-13 34.5t13 34t33 14q21 0 34 -14t13 -34z" />
    <glyph glyph-name="gcommaaccent.smallcap" horiz-adv-x="506" 
d="M108 237q0 -89 47.5 -141.5t126.5 -52.5q62 0 106 26v116h-123v56h181v-206q-71 -45 -165 -45q-105 0 -169 66.5t-64 178.5t65 179.5t169 67.5q93 0 156 -39l-19 -55q-62 40 -137 40q-77 0 -125.5 -51t-48.5 -140zM202 -95q1 17 14 29t34 12q26 0 43 -18.5t17 -46.5
q0 -71 -92 -131l-23 20q58 43 58 85q0 18 -11.5 29t-39.5 21z" />
    <glyph glyph-name="hcircumflex.smallcap" horiz-adv-x="530" 
d="M456 0h-61v210h-260v-210h-61v472h61v-207h260v207h61v-472zM413 518h-47l-100 135h-1l-101 -135h-47l113 182h70z" />
    <glyph glyph-name="hbar.smallcap" horiz-adv-x="530" 
d="M456 0h-60v210h-261v-210h-61v342h-74l4 41h70v89h61v-89h261v89h60v-89h67l4 -41h-71v-342zM135 265h261v77h-261v-77z" />
    <glyph glyph-name="igrave.smallcap" horiz-adv-x="211" 
d="M136 0h-61v472h61v-472zM205 518h-46l-152 179h80z" />
    <glyph glyph-name="iacute.smallcap" horiz-adv-x="211" 
d="M136 0h-61v472h61v-472zM205 697l-152 -179h-46l118 179h80z" />
    <glyph glyph-name="icircumflex.smallcap" horiz-adv-x="211" 
d="M136 0h-61v472h61v-472zM254 518h-47l-100 135h-1l-101 -135h-47l113 182h70z" />
    <glyph glyph-name="idieresis.smallcap" horiz-adv-x="211" 
d="M136 0h-61v472h61v-472zM250 593q0 -21 -13 -35.5t-34 -14.5t-35 14.5t-14 35.5q0 20 14 34.5t35 14.5q20 0 33.5 -14.5t13.5 -34.5zM57 593q0 -21 -13.5 -35.5t-34.5 -14.5t-34 14.5t-13 35.5q0 20 13.5 34.5t33.5 14.5q21 0 34.5 -14.5t13.5 -34.5z" />
    <glyph glyph-name="imacron.smallcap" horiz-adv-x="211" 
d="M136 0h-61v472h61v-472zM233 536h-255l3 45h248z" />
    <glyph glyph-name="ibreve.smallcap" horiz-adv-x="211" 
d="M136 0h-61v472h61v-472zM255 699q-14 -79 -50 -130.5t-99 -51.5t-99 51.5t-50 130.5h49q31 -133 100 -133q70 0 100 133h49z" />
    <glyph glyph-name="iogonek.smallcap" horiz-adv-x="211" 
d="M106 -214q-41 0 -68 24.5t-27 65.5q0 71 77 124h-13v472h61v-472q-64 -53 -64 -107q0 -24 12.5 -38t34.5 -14q28 0 50 17l16 -47q-35 -25 -79 -25z" />
    <glyph glyph-name="idotaccent.smallcap" horiz-adv-x="211" 
d="M136 0h-61v472h61v-472zM152 592q0 -20 -13.5 -34.5t-33.5 -14.5t-33 14.5t-13 34.5t13 34t33 14q21 0 34 -14t13 -34z" />
    <glyph glyph-name="dotlessi.smallcap" horiz-adv-x="211" 
d="M136 0h-61v472h61v-472z" />
    <glyph glyph-name="jcircumflex.smallcap" horiz-adv-x="345" 
d="M281 148q0 -74 -36 -116t-109 -42q-60 0 -109 30l9 57q50 -33 96 -33q88 0 88 107v321h61v-324zM396 518h-47l-100 135h-1l-101 -135h-47l113 182h70z" />
    <glyph glyph-name="jcircumflex.smallcap.alt" horiz-adv-x="319" 
d="M255 139q0 -149 -134 -149q-53 0 -94 26l9 57q42 -29 82 -29q76 0 76 95v333h61v-333zM373 518h-47l-100 135h-1l-101 -135h-47l113 182h70z" />
    <glyph glyph-name="dotlessj.smallcap" horiz-adv-x="345" 
d="M281 148q0 -74 -36 -116t-109 -42q-60 0 -109 30l9 57q50 -33 97 -33q88 0 88 107v321h60v-324z" />
    <glyph glyph-name="kcommaaccent.smallcap" horiz-adv-x="439" 
d="M135 248h1l205 224h77l-224 -232l226 -240h-77l-207 223h-1v-223h-61v472h61v-224zM169 -95q1 17 14 29t34 12q26 0 43 -18.5t17 -46.5q0 -71 -92 -131l-23 20q58 43 58 85q0 18 -11.5 29t-39.5 21z" />
    <glyph glyph-name="lacute.smallcap" horiz-adv-x="395" 
d="M362 0h-288v472h61v-417h227v-55zM297 697l-152 -179h-46l118 179h80z" />
    <glyph glyph-name="lcommaaccent.smallcap" horiz-adv-x="395" 
d="M362 0h-288v472h61v-417h227v-55zM147 -95q1 17 14 29t34 12q26 0 43 -18.5t17 -46.5q0 -71 -92 -131l-23 20q58 43 58 85q0 18 -11.5 29t-39.5 21z" />
    <glyph glyph-name="lcaron.smallcap" horiz-adv-x="582" 
d="M405 432q2 21 16 35.5t38 14.5q28 0 49.5 -22.5t21.5 -56.5q0 -92 -124 -172l-27 25q88 64 88 120q0 18 -14 30.5t-48 25.5zM362 0h-288v472h61v-417h227v-55z" />
    <glyph glyph-name="ldotaccent.smallcap" horiz-adv-x="582" 
d="M362 0h-288v472h61v-417h227v-55zM539 229q0 -21 -14.5 -36.5t-35.5 -15.5t-35.5 15.5t-14.5 36.5t14.5 35.5t35.5 14.5t35.5 -14.5t14.5 -35.5z" />
    <glyph glyph-name="lslash.smallcap" horiz-adv-x="415" 
d="M155 205v-150h227v-55h-288v189l-76 -21v56l76 21v227h61v-211l109 30v-56z" />
    <glyph glyph-name="ntilde.smallcap" horiz-adv-x="528" 
d="M398 87l-1 385h58v-477h-66l-258 389l1 -384h-58v472h68zM427 637q-16 -115 -89 -115q-32 0 -83 35.5t-67 35.5q-15 0 -25.5 -14t-19.5 -51h-1h-1h-1h-1h-1h-1h-1h-1h-1h-1h-1h-2h-1h-1h-2h-1h-2h-2h-1h-2h-2h-2h-1h-2h-9q16 115 89 115q32 0 84 -36t67 -36t25 14.5
t19 51.5h1h1h1h1h1h1h2h1h1h1h1h2h1h2h1h2h1h2h1h2h2h1h2h10z" />
    <glyph glyph-name="nacute.smallcap" horiz-adv-x="528" 
d="M398 87l-1 385h58v-477h-66l-258 389l1 -384h-58v472h68zM363 697l-152 -179h-46l118 179h80z" />
    <glyph glyph-name="ncommaaccent.smallcap" horiz-adv-x="528" 
d="M398 87l-1 385h58v-477h-66l-258 389l1 -384h-58v472h68zM213 -95q1 17 14 29t34 12q26 0 43 -18.5t17 -46.5q0 -71 -92 -131l-23 20q58 43 58 85q0 18 -11.5 29t-39.5 21z" />
    <glyph glyph-name="ncaron.smallcap" horiz-adv-x="528" 
d="M398 87l-1 385h58v-477h-66l-258 389l1 -384h-58v472h68zM412 695l-113 -182h-70l-113 182h47l100 -136h1l101 136h47z" />
    <glyph glyph-name="ograve.smallcap" horiz-adv-x="566" 
d="M518 238q0 -108 -66.5 -178t-168.5 -70t-168.5 67.5t-66.5 177.5q0 108 66.5 177.5t168.5 69.5t168.5 -67.5t66.5 -176.5zM456 235q0 87 -48.5 140.5t-126.5 53.5q-75 0 -123.5 -53.5t-48.5 -137.5q0 -87 49 -141t126 -54t124.5 53.5t47.5 138.5zM382 518h-46l-152 179
h80z" />
    <glyph glyph-name="oacute.smallcap" horiz-adv-x="566" 
d="M518 238q0 -108 -66.5 -178t-168.5 -70t-168.5 67.5t-66.5 177.5q0 108 66.5 177.5t168.5 69.5t168.5 -67.5t66.5 -176.5zM456 235q0 87 -48.5 140.5t-126.5 53.5q-75 0 -123.5 -53.5t-48.5 -137.5q0 -87 49 -141t126 -54t124.5 53.5t47.5 138.5zM382 697l-152 -179h-46
l118 179h80z" />
    <glyph glyph-name="ocircumflex.smallcap" horiz-adv-x="566" 
d="M518 238q0 -108 -66.5 -178t-168.5 -70t-168.5 67.5t-66.5 177.5q0 108 66.5 177.5t168.5 69.5t168.5 -67.5t66.5 -176.5zM456 235q0 87 -48.5 140.5t-126.5 53.5q-75 0 -123.5 -53.5t-48.5 -137.5q0 -87 49 -141t126 -54t124.5 53.5t47.5 138.5zM431 518h-47l-100 135
h-1l-101 -135h-47l113 182h70z" />
    <glyph glyph-name="otilde.smallcap" horiz-adv-x="566" 
d="M518 238q0 -108 -66.5 -178t-168.5 -70t-168.5 67.5t-66.5 177.5q0 108 66.5 177.5t168.5 69.5t168.5 -67.5t66.5 -176.5zM456 235q0 87 -48.5 140.5t-126.5 53.5q-75 0 -123.5 -53.5t-48.5 -137.5q0 -87 49 -141t126 -54t124.5 53.5t47.5 138.5zM446 637
q-16 -115 -89 -115q-32 0 -83 35.5t-67 35.5q-15 0 -25.5 -14t-19.5 -51h-1h-1h-1h-1h-1h-1h-1h-1h-1h-1h-1h-2h-1h-1h-2h-1h-2h-2h-1h-2h-2h-2h-1h-2h-9q16 115 89 115q32 0 84 -36t67 -36t25 14.5t19 51.5h1h1h1h1h1h1h2h1h1h1h1h2h1h2h1h2h1h2h1h2h2h1h2h10z" />
    <glyph glyph-name="odieresis.smallcap" horiz-adv-x="566" 
d="M518 238q0 -108 -66.5 -178t-168.5 -70t-168.5 67.5t-66.5 177.5q0 108 66.5 177.5t168.5 69.5t168.5 -67.5t66.5 -176.5zM456 235q0 87 -48.5 140.5t-126.5 53.5q-75 0 -123.5 -53.5t-48.5 -137.5q0 -87 49 -141t126 -54t124.5 53.5t47.5 138.5zM427 593
q0 -21 -13 -35.5t-34 -14.5t-35 14.5t-14 35.5q0 20 14 34.5t35 14.5q20 0 33.5 -14.5t13.5 -34.5zM234 593q0 -21 -13.5 -35.5t-34.5 -14.5t-34 14.5t-13 35.5q0 20 13.5 34.5t33.5 14.5q21 0 34.5 -14.5t13.5 -34.5z" />
    <glyph glyph-name="omacron.smallcap" horiz-adv-x="566" 
d="M518 238q0 -108 -66.5 -178t-168.5 -70t-168.5 67.5t-66.5 177.5q0 108 66.5 177.5t168.5 69.5t168.5 -67.5t66.5 -176.5zM456 235q0 87 -48.5 140.5t-126.5 53.5q-75 0 -123.5 -53.5t-48.5 -137.5q0 -87 49 -141t126 -54t124.5 53.5t47.5 138.5zM410 536h-255l3 45h248z
" />
    <glyph glyph-name="obreve.smallcap" horiz-adv-x="566" 
d="M518 238q0 -108 -66.5 -178t-168.5 -70t-168.5 67.5t-66.5 177.5q0 108 66.5 177.5t168.5 69.5t168.5 -67.5t66.5 -176.5zM456 235q0 87 -48.5 140.5t-126.5 53.5q-75 0 -123.5 -53.5t-48.5 -137.5q0 -87 49 -141t126 -54t124.5 53.5t47.5 138.5zM432 699
q-14 -79 -50 -130.5t-99 -51.5t-99 51.5t-50 130.5h49q31 -133 100 -133q70 0 100 133h49z" />
    <glyph glyph-name="ohungarumlaut.smallcap" horiz-adv-x="566" 
d="M518 238q0 -108 -66.5 -178t-168.5 -70t-168.5 67.5t-66.5 177.5q0 108 66.5 177.5t168.5 69.5t168.5 -67.5t66.5 -176.5zM456 235q0 87 -48.5 140.5t-126.5 53.5q-75 0 -123.5 -53.5t-48.5 -137.5q0 -87 49 -141t126 -54t124.5 53.5t47.5 138.5zM456 690l-141 -177h-51
l126 177h66zM289 690l-129 -177h-51l114 177h66z" />
    <glyph glyph-name="oslash.smallcap" horiz-adv-x="566" 
d="M394 388l-189 -327q35 -18 79 -18q77 0 124.5 53.5t47.5 138.5q0 99 -62 153zM171 84l189 327q-34 18 -79 18q-75 0 -123.5 -53.5t-48.5 -137.5q0 -98 62 -154zM142 34q-94 68 -94 201q0 108 66.5 177.5t168.5 69.5q57 0 105 -23l32 56h47l-44 -76q95 -69 95 -201
q0 -108 -66.5 -178t-168.5 -70q-57 0 -106 23l-32 -56h-48z" />
    <glyph glyph-name="oslashacute.smallcap" horiz-adv-x="566" 
d="M394 388l-189 -327q35 -18 79 -18q77 0 124.5 53.5t47.5 138.5q0 99 -62 153zM171 84l189 327q-34 18 -79 18q-75 0 -123.5 -53.5t-48.5 -137.5q0 -98 62 -154zM142 34q-94 68 -94 201q0 108 66.5 177.5t168.5 69.5q57 0 105 -23l32 56h47l-44 -76q95 -69 95 -201
q0 -108 -66.5 -178t-168.5 -70q-57 0 -106 23l-32 -56h-48zM447 697l-152 -179h-46l118 179h80z" />
    <glyph glyph-name="oe.smallcap" horiz-adv-x="725" 
d="M672 472v-55h-235v-153h196v-55h-196v-154h235v-55h-372q-117 0 -184.5 63.5t-67.5 169.5q0 111 67 175t189 64h368zM110 237q0 -87 51 -134.5t143 -47.5h72v362h-74q-88 0 -140 -46t-52 -134z" />
    <glyph glyph-name="thorn.smallcap" horiz-adv-x="442" 
d="M399 239q0 -78 -51 -118.5t-143 -41.5l-70 -1v-78h-61v472h61v-82h78q91 0 138.5 -41t47.5 -110zM337 237q0 98 -128 98h-75v-203l75 1q128 3 128 104z" />
    <glyph glyph-name="racute.smallcap" horiz-adv-x="464" 
d="M135 172v-172h-61v472h145q88 0 134 -38t46 -106q0 -100 -95 -136l120 -192h-70l-110 178zM134 225l85 2q57 1 88 26.5t31 70.5q0 93 -124 93h-80v-192zM331 697l-152 -179h-46l118 179h80z" />
    <glyph glyph-name="rcommaaccent.smallcap" horiz-adv-x="464" 
d="M135 172v-172h-61v472h145q88 0 134 -38t46 -106q0 -100 -95 -136l120 -192h-70l-110 178zM134 225l85 2q57 1 88 26.5t31 70.5q0 93 -124 93h-80v-192zM181 -95q1 17 14 29t34 12q26 0 43 -18.5t17 -46.5q0 -71 -92 -131l-23 20q58 43 58 85q0 18 -11.5 29t-39.5 21z
" />
    <glyph glyph-name="rcaron.smallcap" horiz-adv-x="464" 
d="M135 172v-172h-61v472h145q88 0 134 -38t46 -106q0 -100 -95 -136l120 -192h-70l-110 178zM134 225l85 2q57 1 88 26.5t31 70.5q0 93 -124 93h-80v-192zM380 695l-113 -182h-70l-113 182h47l100 -136h1l101 136h47z" />
    <glyph glyph-name="sacute.smallcap" horiz-adv-x="413" 
d="M200 43q46 0 75 23t29 58q0 36 -26.5 55t-87.5 36q-30 9 -51 18t-43.5 24.5t-34 39t-11.5 54.5q0 59 43 95t113 36q83 0 149 -40l-19 -54q-61 40 -129 40q-47 0 -71.5 -21t-24.5 -52q0 -34 26.5 -51.5t88.5 -35.5q63 -19 100.5 -49.5t37.5 -89.5q0 -61 -46 -100t-119 -39
q-84 0 -157 43l18 54q71 -44 140 -44zM306 697l-152 -179h-46l118 179h80z" />
    <glyph glyph-name="scircumflex.smallcap" horiz-adv-x="413" 
d="M200 43q46 0 75 23t29 58q0 36 -26.5 55t-87.5 36q-30 9 -51 18t-43.5 24.5t-34 39t-11.5 54.5q0 59 43 95t113 36q83 0 149 -40l-19 -54q-61 40 -129 40q-47 0 -71.5 -21t-24.5 -52q0 -34 26.5 -51.5t88.5 -35.5q63 -19 100.5 -49.5t37.5 -89.5q0 -61 -46 -100t-119 -39
q-84 0 -157 43l18 54q71 -44 140 -44zM354 518h-47l-100 135h-1l-101 -135h-47l113 182h70z" />
    <glyph glyph-name="scedilla.smallcap" horiz-adv-x="413" 
d="M182 -68q55 2 88.5 -19.5t33.5 -62.5q0 -43 -40.5 -72t-119.5 -38l-5 42q115 6 115 63q0 32 -35 43t-96 -1l-6 30l74 73q-82 3 -149 43l18 54q71 -44 140 -44q46 0 75 23t29 58q0 36 -26.5 55t-87.5 36q-30 9 -51 18t-43.5 24.5t-34 39t-11.5 54.5q0 59 43 95t113 36
q83 0 149 -40l-19 -54q-61 40 -129 40q-47 0 -71.5 -21t-24.5 -52q0 -34 26.5 -51.5t88.5 -35.5q63 -19 100.5 -49.5t37.5 -89.5q0 -50 -32 -86.5t-86 -47.5z" />
    <glyph glyph-name="scommaaccent.smallcap" horiz-adv-x="413" 
d="M200 43q46 0 75 23t29 58q0 36 -26.5 55t-87.5 36q-30 9 -51 18t-43.5 24.5t-34 39t-11.5 54.5q0 59 43 95t113 36q83 0 149 -40l-19 -54q-61 40 -129 40q-47 0 -71.5 -21t-24.5 -52q0 -34 26.5 -51.5t88.5 -35.5q63 -19 100.5 -49.5t37.5 -89.5q0 -61 -46 -100t-119 -39
q-84 0 -157 43l18 54q71 -44 140 -44zM156 -95q1 17 14 29t34 12q26 0 43 -18.5t17 -46.5q0 -71 -92 -131l-23 20q58 43 58 85q0 18 -11.5 29t-39.5 21z" />
    <glyph glyph-name="scaron.smallcap" horiz-adv-x="413" 
d="M200 43q46 0 75 23t29 58q0 36 -26.5 55t-87.5 36q-30 9 -51 18t-43.5 24.5t-34 39t-11.5 54.5q0 59 43 95t113 36q83 0 149 -40l-19 -54q-61 40 -129 40q-47 0 -71.5 -21t-24.5 -52q0 -34 26.5 -51.5t88.5 -35.5q63 -19 100.5 -49.5t37.5 -89.5q0 -61 -46 -100t-119 -39
q-84 0 -157 43l18 54q71 -44 140 -44zM354 695l-113 -182h-70l-113 182h47l100 -136h1l101 136h47z" />
    <glyph glyph-name="tcommaaccent.smallcap" horiz-adv-x="449" 
d="M419 417h-164v-417h-61v417h-164v55h389v-55zM174 -95q1 17 14 29t34 12q26 0 43 -18.5t17 -46.5q0 -71 -92 -131l-23 20q58 43 58 85q0 18 -11.5 29t-39.5 21z" />
    <glyph glyph-name="tcaron.smallcap" horiz-adv-x="449" 
d="M419 417h-164v-417h-61v417h-164v55h389v-55zM372 695l-113 -182h-70l-113 182h47l100 -136h1l101 136h47z" />
    <glyph glyph-name="ugrave.smallcap" horiz-adv-x="492" 
d="M429 182q0 -91 -47 -141.5t-136 -50.5q-87 0 -135 49t-48 136v297h60v-290q0 -66 31.5 -101.5t93.5 -35.5q121 0 121 137v290h60v-290zM345 518h-46l-152 179h80z" />
    <glyph glyph-name="uacute.smallcap" horiz-adv-x="492" 
d="M429 182q0 -91 -47 -141.5t-136 -50.5q-87 0 -135 49t-48 136v297h60v-290q0 -66 31.5 -101.5t93.5 -35.5q121 0 121 137v290h60v-290zM345 697l-152 -179h-46l118 179h80z" />
    <glyph glyph-name="ucircumflex.smallcap" horiz-adv-x="492" 
d="M429 182q0 -91 -47 -141.5t-136 -50.5q-87 0 -135 49t-48 136v297h60v-290q0 -66 31.5 -101.5t93.5 -35.5q121 0 121 137v290h60v-290zM394 518h-47l-100 135h-1l-101 -135h-47l113 182h70z" />
    <glyph glyph-name="udieresis.smallcap" horiz-adv-x="492" 
d="M429 182q0 -91 -47 -141.5t-136 -50.5q-87 0 -135 49t-48 136v297h60v-290q0 -66 31.5 -101.5t93.5 -35.5q121 0 121 137v290h60v-290zM390 593q0 -21 -13 -35.5t-34 -14.5t-35 14.5t-14 35.5q0 20 14 34.5t35 14.5q20 0 33.5 -14.5t13.5 -34.5zM197 593
q0 -21 -13.5 -35.5t-34.5 -14.5t-34 14.5t-13 35.5q0 20 13.5 34.5t33.5 14.5q21 0 34.5 -14.5t13.5 -34.5z" />
    <glyph glyph-name="umacron.smallcap" horiz-adv-x="492" 
d="M429 182q0 -91 -47 -141.5t-136 -50.5q-87 0 -135 49t-48 136v297h60v-290q0 -66 31.5 -101.5t93.5 -35.5q121 0 121 137v290h60v-290zM373 536h-255l3 45h248z" />
    <glyph glyph-name="ubreve.smallcap" horiz-adv-x="492" 
d="M429 182q0 -91 -47 -141.5t-136 -50.5q-87 0 -135 49t-48 136v297h60v-290q0 -66 31.5 -101.5t93.5 -35.5q121 0 121 137v290h60v-290zM395 699q-14 -79 -50 -130.5t-99 -51.5t-99 51.5t-50 130.5h49q31 -133 100 -133q70 0 100 133h49z" />
    <glyph glyph-name="uring.smallcap" horiz-adv-x="492" 
d="M429 182q0 -91 -47 -141.5t-136 -50.5q-87 0 -135 49t-48 136v297h60v-290q0 -66 31.5 -101.5t93.5 -35.5q121 0 121 137v290h60v-290zM364 618q0 -44 -32.5 -73.5t-86.5 -29.5q-53 0 -85.5 29.5t-32.5 73.5t32.5 74t85.5 30q54 0 86 -30t33 -74zM320 617q0 29 -20.5 49
t-54.5 20q-32 0 -52.5 -19.5t-20.5 -47.5t20.5 -48t52.5 -20q34 0 54.5 19t20.5 47z" />
    <glyph glyph-name="uhungarumlaut.smallcap" horiz-adv-x="492" 
d="M429 182q0 -91 -47 -141.5t-136 -50.5q-87 0 -135 49t-48 136v297h60v-290q0 -66 31.5 -101.5t93.5 -35.5q121 0 121 137v290h60v-290zM419 690l-141 -177h-51l126 177h66zM252 690l-129 -177h-51l114 177h66z" />
    <glyph glyph-name="uogonek.smallcap" horiz-adv-x="492" 
d="M296 -214q-42 0 -68.5 24.5t-26.5 65.5q0 69 64 115q-5 -1 -19 -1q-87 0 -135 49t-48 136v297h60v-290q0 -66 31.5 -101.5t93.5 -35.5q121 0 121 137v290h60v-290q0 -121 -89 -175q-79 -49 -79 -114q0 -24 12.5 -38t34.5 -14q29 0 51 17l15 -47q-33 -25 -78 -25z" />
    <glyph glyph-name="wcircumflex.smallcap" horiz-adv-x="718" 
d="M360 400l-122 -400h-60l-133 472h63l103 -389l114 389h71l116 -389l100 389h61l-132 -472h-62zM507 518h-47l-100 135h-1l-101 -135h-47l113 182h70z" />
    <glyph glyph-name="wgrave.smallcap" horiz-adv-x="718" 
d="M360 400l-122 -400h-60l-133 472h63l103 -389l114 389h71l116 -389l100 389h61l-132 -472h-62zM458 518h-46l-152 179h80z" />
    <glyph glyph-name="wacute.smallcap" horiz-adv-x="718" 
d="M360 400l-122 -400h-60l-133 472h63l103 -389l114 389h71l116 -389l100 389h61l-132 -472h-62zM458 697l-152 -179h-46l118 179h80z" />
    <glyph glyph-name="wdieresis.smallcap" horiz-adv-x="718" 
d="M360 400l-122 -400h-60l-133 472h63l103 -389l114 389h71l116 -389l100 389h61l-132 -472h-62zM503 593q0 -21 -13 -35.5t-34 -14.5t-35 14.5t-14 35.5q0 20 14 34.5t35 14.5q20 0 33.5 -14.5t13.5 -34.5zM310 593q0 -21 -13.5 -35.5t-34.5 -14.5t-34 14.5t-13 35.5
q0 20 13.5 34.5t33.5 14.5q21 0 34.5 -14.5t13.5 -34.5z" />
    <glyph glyph-name="yacute.smallcap" horiz-adv-x="438" 
d="M414 472l-164 -286v-186h-61v187l-164 285h66l130 -226l126 226h67zM318 697l-152 -179h-46l118 179h80z" />
    <glyph glyph-name="ycircumflex.smallcap" horiz-adv-x="438" 
d="M414 472l-164 -286v-186h-61v187l-164 285h66l130 -226l126 226h67zM367 518h-47l-100 135h-1l-101 -135h-47l113 182h70z" />
    <glyph glyph-name="ydieresis.smallcap" horiz-adv-x="438" 
d="M414 472l-164 -286v-186h-61v187l-164 285h66l130 -226l126 226h67zM363 593q0 -21 -13 -35.5t-34 -14.5t-35 14.5t-14 35.5q0 20 14 34.5t35 14.5q20 0 33.5 -14.5t13.5 -34.5zM170 593q0 -21 -13.5 -35.5t-34.5 -14.5t-34 14.5t-13 35.5q0 20 13.5 34.5t33.5 14.5
q21 0 34.5 -14.5t13.5 -34.5z" />
    <glyph glyph-name="zacute.smallcap" horiz-adv-x="429" 
d="M380 0h-344v44l270 373h-266v55h341v-45l-269 -372h268v-55zM314 697l-152 -179h-46l118 179h80z" />
    <glyph glyph-name="zdotaccent.smallcap" horiz-adv-x="429" 
d="M380 0h-344v44l270 373h-266v55h341v-45l-269 -372h268v-55zM261 592q0 -20 -13.5 -34.5t-33.5 -14.5t-33 14.5t-13 34.5t13 34t33 14q21 0 34 -14t13 -34z" />
    <glyph glyph-name="zcaron.smallcap" horiz-adv-x="429" 
d="M380 0h-344v44l270 373h-266v55h341v-45l-269 -372h268v-55zM362 695l-113 -182h-70l-113 182h47l100 -136h1l101 136h47z" />
    <glyph glyph-name="solidus" horiz-adv-x="197" 
d="M394 625l-536 -741h-55l537 741h54z" />
    <glyph glyph-name="plusinferior" horiz-adv-x="330" 
d="M300 29h-108v-111h-34v111h-108l1 34h107v110h34v-110h106z" />
    <glyph glyph-name="minusinferior" horiz-adv-x="330" 
d="M300 29h-250l1 33h247z" />
    <glyph glyph-name="zero.lnum" 
d="M465 313q0 -148 -60 -236.5t-157 -88.5t-155.5 87.5t-58.5 235.5t60.5 237.5t157.5 89.5q96 0 154.5 -88t58.5 -237zM401 311q0 135 -42.5 203.5t-110.5 68.5t-109.5 -67.5t-41.5 -202.5q0 -132 43 -200.5t112 -68.5q68 0 108.5 67t40.5 200z" />
    <glyph glyph-name="one.lnum" 
d="M258 0v552l-151 -45l-3 59l214 65v-631h-60z" />
    <glyph glyph-name="two.lnum" 
d="M444 0h-395l-4 61q30 29 80.5 77.5t72 69.5t55.5 56t47.5 54t30.5 45t22.5 47.5t5.5 44.5q0 58 -35.5 91.5t-95.5 33.5q-40 0 -81.5 -20t-70.5 -50l-22 54q32 31 80 52t100 21q84 0 136.5 -49.5t52.5 -130.5q0 -20 -3 -38.5t-13 -38.5t-18 -35.5t-28.5 -39.5t-33.5 -39
t-43.5 -45.5t-48 -47.5t-58.5 -55.5t-64 -60.5h328z" />
    <glyph glyph-name="three.lnum" 
d="M257 328q87 2 136 -42t49 -111q0 -86 -63.5 -137t-156.5 -51q-92 0 -165 41l15 56q72 -40 152 -40q65 0 110 33.5t45 92.5q0 52 -40.5 84.5t-110.5 32.5q-41 0 -86 -8v52q108 28 161.5 63.5t53.5 88.5q0 46 -33.5 72t-89.5 26q-84 0 -153 -62l-23 54q35 28 82.5 46.5
t94.5 18.5q84 0 134.5 -40.5t50.5 -109.5q0 -110 -163 -160z" />
    <glyph glyph-name="four.lnum" 
d="M486 159h-98v-161h-57v161h-296l-9 47l298 424h64v-417h95zM331 213v342l-238 -342h238z" />
    <glyph glyph-name="five.lnum" 
d="M137 363q46 10 87 10q94 0 152 -50t58 -136q0 -88 -58.5 -144t-155.5 -56q-91 0 -161 41l12 60q72 -44 150 -44q68 0 110 37t42 103q0 62 -40.5 98t-114.5 36q-69 0 -126 -23l-17 17l40 313h305l3 -59h-258z" />
    <glyph glyph-name="six.lnum" 
d="M46 237q0 135 88.5 248.5t256.5 152.5l16 -52q-123 -30 -199 -104t-98 -173l2 -1q77 70 169 70q74 0 126.5 -49.5t52.5 -135.5q0 -90 -56.5 -148t-146.5 -58q-100 0 -155.5 70.5t-55.5 179.5zM107 226q0 -77 40.5 -130t111.5 -53q62 0 101 41.5t39 105.5q0 62 -36.5 97
t-93.5 35q-91 0 -159 -65q-3 -15 -3 -31z" />
    <glyph glyph-name="seven.lnum" 
d="M381 565h-341l3 60h394l10 -49l-275 -576h-63z" />
    <glyph glyph-name="eight.lnum" 
d="M452 163q0 -74 -53.5 -125t-149.5 -51q-101 0 -152 47t-51 121q0 102 135 163q-58 27 -91 60.5t-33 85.5q0 78 54 126t141 48t138.5 -45.5t51.5 -121.5q0 -94 -121 -157q62 -29 96.5 -63t34.5 -88zM381 464q0 54 -36.5 87t-93.5 33q-62 0 -97.5 -32.5t-35.5 -80.5
q0 -90 159 -135q104 45 104 128zM391 155q0 52 -44 85t-120 57q-120 -46 -120 -135q0 -56 37.5 -88.5t106.5 -32.5t104.5 30.5t35.5 83.5z" />
    <glyph glyph-name="nine.lnum" 
d="M453 388q0 -135 -88.5 -248.5t-256.5 -152.5l-15 52q123 30 198.5 104t97.5 173l-2 1q-75 -70 -168 -70q-75 0 -127 49.5t-52 135.5q0 90 56 148t147 58q99 0 154.5 -70.5t55.5 -179.5zM393 399q0 77 -40.5 130t-111.5 53q-63 0 -102 -41.5t-39 -105.5q0 -62 37 -97
t94 -35q89 0 159 65q3 15 3 31z" />
    <glyph glyph-name="dollar.lnum" 
d="M230 44h10q66 0 107 34t41 84q0 46 -31 73t-95 48zM275 637l13 93h40l-13 -98q64 -11 123 -48l-24 -56q-48 33 -107 45l-31 -227q80 -25 127 -64.5t47 -114.5q0 -78 -59 -129t-153 -51h-15l-15 -110h-40l15 114q-78 12 -144 54l22 57q61 -43 130 -54l33 247
q-38 12 -64.5 23.5t-54 31t-41.5 49.5t-14 69q0 74 56 122t143 48q18 0 26 -1zM238 358l30 221q-7 1 -19 1q-66 0 -101.5 -30.5t-35.5 -76.5q0 -44 30 -68.5t96 -46.5z" />
    <glyph glyph-name="cent.lnum" 
d="M350 467q49 -10 91 -35l-15 -55q-38 25 -83 34l-50 -368h7q66 0 128 38l11 -55q-62 -39 -140 -39h-13l-15 -110h-41l16 116q-79 17 -125 80.5t-46 154.5q0 106 62.5 174.5t159.5 68.5h13l12 91h41zM302 415h-5q-73 0 -116.5 -51t-43.5 -134q0 -70 31 -118t85 -63l13 91
l24 184z" />
    <glyph glyph-name="sterling.lnum" 
d="M129 323q-3 59 -3 106q0 102 50 156.5t138 54.5q74 0 137 -37l-16 -55q-61 36 -122 36q-65 0 -95.5 -39t-30.5 -107q0 -25 4 -115h196l-3 -46h-191q2 -66 2 -100q0 -40 -7 -68q33 -29 76 -48.5t72 -19.5q83 0 105 108l47 -10q-7 -73 -47.5 -113.5t-97.5 -40.5
q-84 0 -173 80q-35 -55 -135 -82q0 1 -0.5 2.5t-1.5 6t-2.5 8.5t-2.5 9t-2.5 9.5t-2.5 8.5t-1 5l-1 2q66 20 89.5 50t23.5 87q0 51 -3 106h-93l-3 46h94z" />
    <glyph glyph-name="yen.lnum" 
d="M209 264h-174l-3 46h155l-197 315h71l180 -299l178 299h69l-197 -315h156l-3 -46h-174v-88h174l3 -45h-177v-131h-62v131h-176l3 45h174v88z" />
    <glyph glyph-name="Euro.lnum" horiz-adv-x="504" 
d="M105 372h-1h-1h-1h-1h-1h-1h-1h-1h-1h-1h-1h-1h-1h-1h-1h-1h-1h-1h-2h-1h-1h-1h-2h-1h-1h-2h-1h-2h-1h-2h-1h-2h-1h-2h-1h-2h-2h-1h-2h-2h-1h-2h-2h-1h-2h-10l-3 45h79q19 110 78 166.5t149 56.5q87 0 144 -34l-14 -55q-57 34 -130 34q-136 0 -166 -168h235l-3 -45h-237
q-2 -36 -2 -56q0 -23 2 -61h207l3 -45h-204q31 -170 162 -170q77 0 135 33l10 -55q-60 -33 -147 -33q-190 0 -224 225h-77l3 45h69q-2 36 -2 55q0 22 2 62z" />
    <glyph glyph-name="degree.lnum" 
d="M398 490q0 -62 -40.5 -105t-107.5 -43q-66 0 -107 43.5t-41 104.5q0 63 41 106.5t107 43.5q67 0 107.5 -43.5t40.5 -106.5zM355 490q0 46 -28.5 77t-76.5 31t-76.5 -31t-28.5 -77q0 -45 28.5 -75.5t76.5 -30.5t76.5 30.5t28.5 75.5z" />
    <glyph glyph-name="plus.lnum" 
d="M453 207h-174v-179h-55v179h-176l3 55h173v178h55v-178h171z" />
    <glyph glyph-name="minus.lnum" 
d="M452 208h-405l3 54h399z" />
    <glyph glyph-name="plusminus.lnum" 
d="M452 227h-175v-144h-55v144h-175l3 55h172v159h55v-159h172zM452 9h-405l3 54h399z" />
    <glyph glyph-name="logicalnot.lnum" 
d="M452 304v-207h-55v152h-349l3 55h401z" />
    <glyph glyph-name="equal.lnum" 
d="M436 295h-370l-4 55h378zM440 119h-378l4 55h370z" />
    <glyph glyph-name="notequal.lnum" 
d="M167 -23l37 142h-143l4 55h153l32 121h-185l-4 55h203l35 132h47l-35 -132h128l-4 -55h-138l-32 -121h170l4 -55h-188l-37 -142h-47z" />
    <glyph glyph-name="approxequal.lnum" 
d="M423 358q-9 -51 -34 -77.5t-57 -26.5q-29 0 -85.5 28t-71.5 28q-40 0 -53 -51h-45q9 51 34 77.5t57 26.5q29 0 87 -28t70 -28q22 0 33.5 11t20.5 40h44zM423 210q-9 -51 -34 -77.5t-57 -26.5q-29 0 -85.5 28t-71.5 28q-40 0 -53 -51h-45q9 51 34 77.5t57 26.5
q29 0 87 -28t70 -28q22 0 33.5 11t20.5 40h44z" />
    <glyph glyph-name="multiply.lnum" 
d="M457 65l-37 -37l-168 169l-169 -169l-37 37l169 169l-169 168l37 37l169 -169l169 170l37 -37l-170 -169z" />
    <glyph glyph-name="divide.lnum" 
d="M453 208h-405l3 54h399zM303 94q0 -21 -14.5 -36.5t-36.5 -15.5t-37 15.5t-15 36.5t15 36t37 15t36.5 -15t14.5 -36zM303 374q0 -21 -15 -36.5t-37 -15.5t-36.5 15.5t-14.5 36.5t14.5 36.5t36.5 15.5t37 -15.5t15 -36.5z" />
    <glyph glyph-name="less.lnum" 
d="M438 78v-60l-382 190v54l381 191v-61l-311 -152v-10z" />
    <glyph glyph-name="greater.lnum" 
d="M442 208l-382 -190v60l312 152v10l-311 152v61l381 -191v-54z" />
    <glyph glyph-name="lessequal.lnum" 
d="M430 148v-59l-361 152v68l361 152v-60l-295 -122v-9zM431 9h-355l3 54h349z" />
    <glyph glyph-name="greaterequal.lnum" 
d="M70 89v59l295 122v9l-295 122v60l361 -152v-68zM424 9h-355l3 54h349z" />
    <glyph glyph-name="bar.lnum" horiz-adv-x="250" 
d="M98 -199v901h55v-901h-55z" />
    <glyph glyph-name="brokenbar.lnum" horiz-adv-x="250" 
d="M98 307v335h55v-335h-55zM98 -139v335h55v-335h-55z" />
    <glyph glyph-name="bullet.lnum" 
d="M442 232q0 -22 -20 -71.5t-36 -65.5q-15 -15 -65 -35.5t-72 -20.5q-21 0 -71 20.5t-64 35.5q-15 16 -36 66t-21 71q0 22 21 71.5t36 64.5t65 35.5t71 20.5q22 0 71.5 -20.5t64.5 -35.5t35.5 -64.5t20.5 -71.5z" />
    <glyph glyph-name="asciitilde.lnum" 
d="M423 292q-16 -115 -89 -115q-32 0 -83 35.5t-67 35.5q-15 0 -25.5 -14t-19.5 -51h-1h-1h-1h-1h-1h-1h-1h-1h-1h-1h-1h-2h-1h-1h-2h-1h-2h-2h-1h-2h-2h-2h-1h-2h-9q16 115 89 115q32 0 84 -36t67 -36t25 14.5t19 51.5h1h1h1h1h1h1h2h1h1h1h1h2h1h2h1h2h1h2h1h2h2h1h2h10z
" />
    <glyph glyph-name="quotesingle.lnum" horiz-adv-x="250" 
d="M74 398h-33l127 248l60 -29z" />
    <glyph glyph-name="quotedbl.lnum" 
d="M277 398h-34l127 248l60 -29zM128 398h-33l127 248l60 -29z" />
    <glyph glyph-name="parenleft.lnum" 
d="M412 -241q-45 23 -90 64.5t-86 99t-67 137.5t-26 166t26 166t67 138t86 99.5t90 64.5l29 -44q-93 -49 -167.5 -163.5t-74.5 -260.5q0 -76 22.5 -147t59 -124t77.5 -91.5t83 -60.5z" />
    <glyph glyph-name="parenright.lnum" 
d="M88 -241l-29 44q93 49 167 163t74 260q0 147 -74 261t-167 163l29 44q45 -23 90 -64.5t86 -99.5t67 -138t26 -166t-26 -166t-67 -137.5t-86 -99t-90 -64.5z" />
    <glyph glyph-name="bracketleft.lnum" 
d="M414 -222h-260v897h260v-51h-203v-795h203v-51z" />
    <glyph glyph-name="bracketright.lnum" 
d="M86 -222v51h203v795h-203v51h259v-897h-259z" />
    <glyph glyph-name="asterisk.lnum" 
d="M241 456l-108 -106l-40 53l134 71v5l-132 72l38 53l108 -108l4 1l28 148l62 -20l-69 -135l3 -3l145 21v-65l-145 21l-3 -3l67 -136l-61 -19l-28 149z" />
    <glyph glyph-name="braceleft.lnum" 
d="M400 -229q-109 5 -163 34.5t-54 92.5q0 44 25 111.5t25 97.5q0 45 -28.5 65t-98.5 26l-3 33l3 34q70 5 98.5 25t28.5 66q0 30 -25 97.5t-25 110.5q0 63 54 93t163 35v-46q-86 -7 -122.5 -25t-36.5 -52q0 -31 25.5 -99.5t25.5 -103.5q0 -55 -35 -91.5t-103 -40.5v-6
q68 -4 103 -41t35 -92q0 -35 -25.5 -102.5t-25.5 -96.5q0 -36 36 -54.5t123 -25.5v-45z" />
    <glyph glyph-name="braceright.lnum" 
d="M397 231l-3 -34q-70 -5 -99 -25t-29 -66q0 -30 25.5 -97.5t25.5 -110.5q0 -63 -54 -92.5t-163 -34.5v45q86 6 122.5 24.5t36.5 53.5q0 30 -25.5 98t-25.5 103q0 55 34.5 92t103.5 41v6q-69 4 -103.5 40t-34.5 92q0 35 25.5 103.5t25.5 98.5q0 35 -36.5 53t-122.5 25v46
q109 -6 163 -35.5t54 -92.5q0 -44 -25.5 -111.5t-25.5 -97.5q0 -46 29 -66t99 -25z" />
    <glyph glyph-name="section.lnum" 
d="M466 289q0 -46 -31 -78.5t-82 -48.5q53 -33 53 -91q0 -61 -47.5 -99t-117.5 -38q-84 0 -149 41l16 54q64 -41 135 -41q44 0 74.5 21.5t30.5 56.5q0 19 -10.5 33.5t-34.5 26t-42 18t-54 16.5q-31 9 -49.5 15t-44 18t-39.5 25t-24.5 32.5t-10.5 43.5q0 45 34 79t84 47
q-59 35 -59 91q0 61 44.5 96.5t110.5 35.5q73 0 139 -34l-17 -54q-62 34 -126 34q-42 0 -68 -19t-26 -52q0 -40 67 -65q18 -7 62 -20q7 -2 10 -3q39 -11 63 -20t52.5 -25.5t42.5 -40.5t14 -55zM410 277q0 27 -22.5 47t-49.5 30t-73.5 24.5t-70.5 24.5q-100 -43 -100 -97
q0 -33 32.5 -53t99 -40t93.5 -32q91 40 91 96z" />
    <glyph glyph-name="paragraph.lnum" 
d="M354 263q-34 -9 -76 -9q-114 0 -173 50.5t-59 131.5q0 91 63 140t163 49h-1h1h1h1h1h1h1h1h1h1h1h1h1h1h1h1h1h1h1h1h1h1h1h1h1h1h1h2h1h1h1h1h1h1h2h1h1h1h1h2h1h1h2h1h1h2h1h1h2h1h1h2h1h2h1h2h1h2h1h1h2h2h1h2h1h2h1h2h1h2h2h1h2h1h2h2h1h2h2h2h1h2h2h1h2h2h2h1h2h2h2
h2h1h2h2h9v-689h-54v327z" />
    <glyph glyph-name="period.lnum" horiz-adv-x="250" 
d="M176 39q0 -21 -14.5 -36.5t-35.5 -15.5t-35.5 15.5t-14.5 36.5t14.5 35.5t35.5 14.5t35.5 -14.5t14.5 -35.5z" />
    <glyph glyph-name="comma.lnum" horiz-adv-x="250" 
d="M69 46q2 20 16.5 34.5t37.5 14.5q28 0 49.5 -22.5t21.5 -56.5q0 -91 -124 -173l-27 27q88 63 88 119q0 19 -14 31.5t-48 25.5z" />
    <glyph glyph-name="colon.lnum" horiz-adv-x="250" 
d="M176 358q0 -21 -14.5 -36.5t-35.5 -15.5t-35.5 15.5t-14.5 36.5q0 20 14.5 34.5t35.5 14.5t35.5 -14.5t14.5 -34.5zM176 39q0 -21 -14.5 -36.5t-35.5 -15.5t-35.5 15.5t-14.5 36.5t14.5 35.5t35.5 14.5t35.5 -14.5t14.5 -35.5z" />
    <glyph glyph-name="semicolon.lnum" horiz-adv-x="250" 
d="M176 358q0 -21 -14.5 -36.5t-35.5 -15.5t-35.5 15.5t-14.5 36.5q0 20 14.5 34.5t35.5 14.5t35.5 -14.5t14.5 -34.5zM69 46q2 20 16.5 34.5t37.5 14.5q28 0 49.5 -22.5t21.5 -56.5q0 -91 -124 -173l-27 27q88 63 88 119q0 19 -14 31.5t-48 25.5z" />
    <glyph glyph-name="guilsinglleft.lnum" horiz-adv-x="328" 
d="M284 74l-8 -48l-245 175v66l245 175l8 -48l-199 -159v-2z" />
    <glyph glyph-name="guilsinglright.lnum" horiz-adv-x="328" 
d="M297 201l-246 -175l-8 48l200 159v2l-200 159l8 48l246 -175v-66z" />
    <glyph glyph-name="guillemotleft.lnum" horiz-adv-x="573" 
d="M539 74l-7 -48l-246 175v66l246 175l7 -48l-196 -159v-2zM267 83l-8 -46l-234 166v62l234 166l8 -46l-187 -150v-2z" />
    <glyph glyph-name="guillemotright.lnum" horiz-adv-x="576" 
d="M551 203l-234 -166l-8 46l187 150v2l-187 150l8 46l234 -166v-62zM290 201l-245 -175l-8 48l196 159v2l-196 159l8 48l245 -175v-66z" />
    <glyph glyph-name="periodcentered.lnum" horiz-adv-x="250" 
d="M176 229q0 -21 -14.5 -36.5t-35.5 -15.5t-35.5 15.5t-14.5 36.5t14.5 35.5t35.5 14.5t35.5 -14.5t14.5 -35.5z" />
    <glyph glyph-name="hyphen.lnum" horiz-adv-x="292" 
d="M260 214h-226v58h226v-58z" />
    <glyph glyph-name="endash.lnum" horiz-adv-x="445" 
d="M415 215h-384l3 49h378z" />
    <glyph glyph-name="emdash.lnum" horiz-adv-x="915" 
d="M885 215h-854l3 49h848z" />
    <glyph glyph-name="tribol_north.orn" horiz-adv-x="750" 
d="M88 45l288 539l286 -539h-574zM502 137l-127 261l-127 -261h254z" />
    <glyph glyph-name="tribol_east.orn" horiz-adv-x="750" 
d="M145 600l539 -288l-539 -286v574zM237 186l261 127l-261 127v-254z" />
    <glyph glyph-name="tribol_south.orn" horiz-adv-x="750" 
d="M88 584h574l-286 -539zM502 492h-254l127 -261z" />
    <glyph glyph-name="tribol_west.orn" horiz-adv-x="750" 
d="M604 600v-574l-539 286zM512 186v254l-261 -127z" />
    <glyph glyph-name="trisol_north.orn" horiz-adv-x="750" 
d="M88 45l288 539l286 -539h-574z" />
    <glyph glyph-name="trisol_east.orn" horiz-adv-x="750" 
d="M145 600l539 -288l-539 -286v574z" />
    <glyph glyph-name="trisol_south.orn" horiz-adv-x="750" 
d="M88 584h574l-286 -539z" />
    <glyph glyph-name="trisol_west.orn" horiz-adv-x="750" 
d="M604 600v-574l-539 286z" />
    <glyph glyph-name="arrow_north.orn" horiz-adv-x="750" 
d="M341 -12l5 539l-236 -251l-49 43l310 319h7l311 -319l-49 -43l-237 251l5 -539h-67z" />
    <glyph glyph-name="arrow_east.orn" horiz-adv-x="750" 
d="M384 -2l-43 48l251 237l-539 -5v67l539 -5l-251 237l43 49l319 -311v-7z" />
    <glyph glyph-name="arrow_south.orn" horiz-adv-x="750" 
d="M371 -13l-311 319l48 43l237 -251l-5 539h67l-4 -539l236 251l49 -43l-311 -319h-6z" />
    <glyph glyph-name="arrow_west.orn" horiz-adv-x="750" 
d="M366 -2l-319 310v7l319 311l43 -49l-251 -237l539 5v-67l-539 5l251 -237z" />
    <glyph glyph-name="sqrreg_2.orn" 
d="M41 417h418v-417h-418v417zM406 53v313h-313v-313h313z" />
    <glyph glyph-name="sqrbol_2.orn" 
d="M41 417h418v-417h-418v417zM368 91v236h-236v-236h236z" />
    <glyph glyph-name="sqrshd_2.orn" 
d="M41 417h418v-417h-418v417zM414 373h-37l37 -37v37zM414 307l-65 66h-65l130 -130v64zM414 215l-158 158h-64l222 -222v64zM414 123l-250 250h-64l314 -314v64zM400 46l-314 313v-65l250 -248h64zM307 46l-221 220v-64l157 -156h64zM214 46l-128 127v-64l64 -63h64z
M122 46l-36 36v-36h36z" />
    <glyph glyph-name="sqrsol_2.orn" 
d="M41 0v417h418v-417h-418z" />
    <glyph glyph-name="sqrreg_1.orn" horiz-adv-x="750" 
d="M688 626v-626h-626v626h626zM633 55v516h-516v-516h516z" />
    <glyph glyph-name="sqrbol_1.orn" horiz-adv-x="750" 
d="M688 626v-626h-626v626h626zM177 511v-396h396v396h-396z" />
    <glyph glyph-name="sqrshd_1.orn" horiz-adv-x="750" 
d="M688 626v-626h-626v626h626zM633 493v78h-78zM633 351v116l-104 104h-116zM633 209v116l-246 246h-116zM633 68v116l-387 387h-116zM505 55h116l-504 504v-116zM117 417v-116l246 -246h116zM221 55h116l-220 220v-116zM117 135v-80h80z" />
    <glyph glyph-name="sqrsol_1.orn" horiz-adv-x="750" 
d="M688 626v-626h-626v626h626z" />
    <glyph glyph-name="crcreg_2.orn" 
d="M250 -10q-92 0 -155.5 63.5t-63.5 155.5t63.5 155t155.5 63t155.5 -63t63.5 -155t-63.5 -155.5t-155.5 -63.5zM416 209q0 70 -48 119t-118 49t-118 -49t-48 -119t48 -119t118 -49t118 49t48 119z" />
    <glyph glyph-name="crcbol_2.orn" 
d="M250 -10q-92 0 -155.5 63.5t-63.5 155.5t63.5 155t155.5 63t155.5 -63t63.5 -155t-63.5 -155.5t-155.5 -63.5zM376 209q0 53 -36.5 90.5t-89.5 37.5t-89.5 -37.5t-36.5 -90.5q0 -54 36 -91t90 -37t90 37t36 91z" />
    <glyph glyph-name="crcshd_2.orn" 
d="M250 -10q-92 0 -155.5 63.5t-63.5 155.5t63.5 155t155.5 63t155.5 -63t63.5 -155t-63.5 -155.5t-155.5 -63.5zM376 337q-45 43 -101 50l151 -151q-7 58 -50 101zM428 205l-184 184q-32 -2 -55 -11l228 -229q9 24 11 56zM410 128l-241 242q-18 -7 -38 -27l253 -254
q17 17 26 39zM370 75l-254 254q-17 -17 -26 -40l242 -241q19 8 38 27zM311 39l-229 229q-8 -24 -10 -55l184 -184q31 0 55 10zM74 182q7 -60 53 -104q42 -41 98 -48z" />
    <glyph glyph-name="crcsol_2.orn" 
d="M250 -10q-92 0 -155.5 63.5t-63.5 155.5t63.5 155t155.5 63t155.5 -63t63.5 -155t-63.5 -155.5t-155.5 -63.5z" />
    <glyph glyph-name="crcreg_1.orn" horiz-adv-x="750" 
d="M703 313q0 -138 -95 -233t-233 -95t-233 95t-95 233t95 233t233 95t233 -95t95 -233zM375 37q116 0 194.5 80.5t78.5 195.5t-78.5 195.5t-194.5 80.5t-194.5 -80.5t-78.5 -195.5t78.5 -195.5t194.5 -80.5z" />
    <glyph glyph-name="crcbol_1.orn" horiz-adv-x="750" 
d="M703 313q0 -138 -95 -233t-233 -95t-233 95t-95 233t95 233t233 95t233 -95t95 -233zM375 529q-90 0 -151.5 -63t-61.5 -153t61.5 -153t151.5 -63t151.5 63t61.5 153t-61.5 153t-151.5 63z" />
    <glyph glyph-name="crcshd_1.orn" horiz-adv-x="750" 
d="M703 313q0 -138 -95 -233t-233 -95t-233 95t-95 233t95 234t233 96t233 -96t95 -234zM647 337q-8 102 -78.5 173t-172.5 78zM629 212q17 45 19 98l-279 279q-53 -2 -97 -19l60 -60q37 -37 115 -115.5t130 -130.5zM576 125q28 29 46 69l-92 92q-91 92 -183 184l-92 92
q-38 -18 -68 -48zM496 64q38 18 68 48l-390 390q-27 -28 -46 -70zM120 414q-16 -45 -18 -98l279 -279q49 0 97 19zM103 289q8 -102 78.5 -173t172.5 -78z" />
    <glyph glyph-name="crcsol_1.orn" horiz-adv-x="750" 
d="M703 313q0 -138 -95 -233t-233 -95t-233 95t-95 233t95 233t233 95t233 -95t95 -233z" />
    <glyph glyph-name="apple" horiz-adv-x="758" 
d="M763 233l-180 -85l69 -189l-189 69l-85 -181l-84 180l-187 -68l68 187l-181 86l181 83l-68 189l187 -69l86 181l83 -181l189 69l-69 -189zM663 232l-132 62l50 139l-139 -50l-63 133l-63 -133l-139 50l51 -139l-134 -63l134 -63l-51 -138l139 51l62 -135l64 135l139 -51
l-50 140z" />
    </font>
</defs>
</svg>
