<?xml version="1.0" standalone="no"?>
<!DOCTYPE svg PUBLIC "-//W3C//DTD SVG 1.1//EN" "http://www.w3.org/Graphics/SVG/1.1/DTD/svg11.dtd" >
<svg xmlns="http://www.w3.org/2000/svg" xmlns:xlink="http://www.w3.org/1999/xlink" version="1.1">
<metadata>
Created by FontForge 20200427 at Fri Apr 15 06:44:09 2011
 By www
Copyright (c) 2004-2009, Joshua Darden &#38; Phil's Fonts, Inc. All rights reserved. Published by Garagefonts USA 301-879-9222 www.garagefonts.com
</metadata>
<defs>
<font id="FreightSansProMedium-Regular" horiz-adv-x="500" >
  <font-face 
    font-family="FreightSansProMedium-Regular"
    font-weight="400"
    font-stretch="normal"
    units-per-em="1000"
    panose-1="2 0 6 6 3 0 0 2 0 4"
    ascent="800"
    descent="-200"
    x-height="458"
    cap-height="625"
    bbox="-198 -269 1211 996"
    underline-thickness="20"
    underline-position="-133"
    unicode-range="U+0020-FB04"
  />
<missing-glyph 
 />
    <glyph glyph-name=".notdef" 
 />
    <glyph glyph-name=".null" horiz-adv-x="0" 
 />
    <glyph glyph-name="nonmarkingreturn" horiz-adv-x="333" 
 />
    <glyph glyph-name="space" unicode=" " horiz-adv-x="228" 
 />
    <glyph glyph-name="exclam" unicode="!" horiz-adv-x="275" 
d="M115 194l-26 458h99l-25 -458h-48zM202 50q0 -26 -18 -45.5t-45 -19.5q-28 0 -47 19.5t-19 45.5t19 44.5t47 18.5q27 0 45 -18.5t18 -44.5z" />
    <glyph glyph-name="quotedbl" unicode="&#x22;" horiz-adv-x="304" 
d="M179 398h-34l115 247l75 -36zM29 398h-34l115 247l75 -36z" />
    <glyph glyph-name="numbersign" unicode="#" horiz-adv-x="560" 
d="M162 364h-124v58h139l59 220h60l-59 -220h160l59 220h60l-59 -220h89v-58h-105l-39 -146h124v-58h-139l-63 -234h-60l63 234h-160l-63 -234h-60l63 234h-89v58h104zM382 364h-161l-39 -146h160z" />
    <glyph glyph-name="dollar" unicode="$" horiz-adv-x="505" 
d="M259 272l-28 -211h10q60 0 98 29.5t38 75.5q0 41 -27 64t-91 42zM266 640l12 90h48l-13 -95q75 -12 134 -50l-30 -74q-52 35 -114 47l-27 -200q83 -22 133 -64t50 -122q0 -82 -61 -134.5t-159 -52.5h-19l-4 -27l-6 -54l-4 -27h-48l15 114q-79 12 -142 53l28 77
q64 -42 124 -55l30 219q-37 11 -63.5 23t-53.5 32t-41 51.5t-14 72.5q0 79 57.5 127.5t150.5 48.5h17zM230 371l26 192h-6q-64 0 -95 -25.5t-31 -67.5q0 -38 25.5 -60.5t80.5 -38.5z" />
    <glyph glyph-name="percent" unicode="%" horiz-adv-x="740" 
d="M346 482q0 -69 -45.5 -117t-120.5 -48q-74 0 -120 48t-46 117q0 70 45.5 118.5t120.5 48.5t120.5 -48t45.5 -119zM651 639l-498 -654h-63l498 654h63zM726 142q0 -70 -45.5 -118.5t-120.5 -48.5t-120.5 48t-45.5 119q0 69 45.5 117t120.5 48q74 0 120 -48t46 -117z
M292 482q0 49 -30.5 82t-81.5 33t-81.5 -33t-30.5 -82q0 -47 30.5 -80t81.5 -33t81.5 33t30.5 80zM672 142q0 47 -30.5 80t-81.5 33t-81.5 -33t-30.5 -80q0 -49 30.5 -82t81.5 -33t81.5 33t30.5 82z" />
    <glyph glyph-name="ampersand" unicode="&#x26;" horiz-adv-x="622" 
d="M432 126q-98 -141 -219 -141q-88 0 -139 50.5t-51 125.5q0 60 43 105.5t109 63.5q-103 55 -103 147q0 64 50.5 113t135.5 49q80 0 125.5 -45t45.5 -108q0 -48 -32.5 -86.5t-86.5 -60.5q58 -28 130 -111l96 150h96l-153 -195l152 -183l-89 -15zM258 364q90 39 90 115
q0 39 -26.5 64.5t-70.5 25.5q-43 0 -69 -25.5t-26 -60.5q0 -41 24.5 -68.5t77.5 -50.5zM396 170q-94 108 -172 135q-117 -55 -117 -137q0 -47 31.5 -79t85.5 -32q93 0 172 113z" />
    <glyph glyph-name="quotesingle" unicode="'" horiz-adv-x="154" 
d="M29 398h-34l115 247l75 -36z" />
    <glyph glyph-name="parenleft" unicode="(" horiz-adv-x="364" 
d="M347 -257q-48 24 -94.5 65.5t-89.5 100.5t-69.5 140t-26.5 170t26.5 170.5t69.5 140.5t89.5 100.5t93.5 65.5l36 -52q-94 -51 -168.5 -165.5t-74.5 -259.5q0 -75 22.5 -145.5t59 -123.5t77.5 -92.5t84 -62.5z" />
    <glyph glyph-name="parenright" unicode=")" horiz-adv-x="364" 
d="M17 -257l-35 52q43 23 84.5 62.5t77.5 92.5t58.5 123.5t22.5 145.5q0 145 -74 259.5t-169 165.5l36 52q47 -24 93.5 -65.5t89.5 -100.5t69.5 -140.5t26.5 -170.5t-26.5 -170t-69.5 -140t-89.5 -100.5t-94.5 -65.5z" />
    <glyph glyph-name="asterisk" unicode="*" horiz-adv-x="343" 
d="M166 454l-101 -111l-55 70l141 61v5l-137 63l50 71l102 -116l4 1l19 150l81 -26l-78 -132l3 -3l144 29v-84l-144 30l-3 -3l75 -133l-81 -24l-17 151z" />
    <glyph glyph-name="plus" unicode="+" horiz-adv-x="484" 
d="M446 199h-167v-170h-70v170h-169l3 71h166v169h70v-169h164z" />
    <glyph glyph-name="comma" unicode="," horiz-adv-x="220" 
d="M41 63q3 26 20.5 42.5t47.5 16.5q32 0 58.5 -26.5t26.5 -65.5q0 -95 -148 -195l-35 35q102 74 102 127q0 19 -15.5 33t-56.5 33z" />
    <glyph glyph-name="hyphen" unicode="-" horiz-adv-x="310" 
d="M279 204h-246v77h246v-77z" />
    <glyph glyph-name="period" unicode="." horiz-adv-x="220" 
d="M175 50q0 -26 -18 -45.5t-45 -19.5q-28 0 -46.5 19.5t-18.5 45.5t18.5 44.5t46.5 18.5q27 0 45 -18.5t18 -44.5z" />
    <glyph glyph-name="slash" unicode="/" horiz-adv-x="217" 
d="M251 702l-243 -901h-60l243 901h60z" />
    <glyph glyph-name="zero" unicode="0" horiz-adv-x="577" 
d="M530 236q0 -111 -67.5 -181t-174.5 -70t-174 69.5t-67 181.5t67 181.5t174 69.5t174.5 -70t67.5 -181zM448 236q0 75 -44.5 124t-115.5 49t-115 -48.5t-44 -124.5t44 -124.5t115 -48.5t115.5 49t44.5 124z" />
    <glyph glyph-name="one" unicode="1" horiz-adv-x="343" 
d="M161 0v384l-116 -37l-3 75l200 66v-488h-81z" />
    <glyph glyph-name="two" unicode="2" horiz-adv-x="457" 
d="M422 0h-376v71q21 16 58 42.5t57 41.5t48 37t43.5 37t31.5 33.5t22.5 35.5t6.5 33q0 35 -25.5 57t-69.5 22q-65 0 -142 -57l-29 70q81 64 180 64q77 0 125 -40t48 -106q0 -16 -3.5 -31.5t-7.5 -28.5t-14.5 -27.5t-17.5 -24.5t-23.5 -25.5t-25.5 -23.5t-30.5 -24.5
t-32 -24t-37 -26.5t-37.5 -27h251v-78z" />
    <glyph glyph-name="three" unicode="3" horiz-adv-x="437" 
d="M270 170q71 -11 109 -56t38 -102q0 -92 -65.5 -145.5t-164.5 -53.5q-107 0 -169 38l15 77q59 -40 155 -40q65 0 104 30.5t39 87.5q0 50 -37 76.5t-99 28.5q-38 1 -92 -8v71q202 47 202 143q0 45 -29.5 69t-83.5 24q-66 0 -144 -58l-29 70q83 65 182 65q90 0 142 -44
t52 -114q0 -53 -36 -95.5t-89 -63.5z" />
    <glyph glyph-name="four" unicode="4" horiz-adv-x="523" 
d="M512 10h-98v-194h-80v194h-308l-8 48l323 430h73v-400h95zM334 88v272l-201 -272h201z" />
    <glyph glyph-name="five" unicode="5" horiz-adv-x="429" 
d="M126 215q50 5 71 5q98 0 156.5 -52.5t58.5 -139.5q0 -95 -63.5 -155t-156.5 -60q-101 0 -174 43l15 81q83 -46 160 -46q59 0 97 36.5t38 96.5q0 52 -38 88.5t-103 36.5q-66 0 -123 -17l-22 20l41 321h312l3 -81h-248z" />
    <glyph glyph-name="six" unicode="6" horiz-adv-x="516" 
d="M43 245q0 137 88.5 245.5t254.5 147.5l25 -78q-232 -58 -279 -234l2 -1q67 62 159 62q77 0 130 -54t53 -140q0 -90 -58.5 -149t-154.5 -59q-103 0 -161.5 74.5t-58.5 185.5zM130 219q0 -66 37.5 -112t99.5 -46q57 0 91.5 35.5t34.5 92.5q0 56 -34 90.5t-88 34.5
q-40 0 -76.5 -16t-59.5 -37q-5 -18 -5 -42z" />
    <glyph glyph-name="seven" unicode="7" horiz-adv-x="456" 
d="M346 392h-329l3 81h415v-71l-282 -586h-84z" />
    <glyph glyph-name="eight" unicode="8" horiz-adv-x="507" 
d="M286 338q84 35 84 113q0 48 -32.5 76.5t-81.5 28.5q-56 0 -87.5 -27t-31.5 -68q0 -18 9 -34t20 -26.5t35.5 -23.5t38.5 -19.5t46 -19.5zM226 282q-46 -15 -72.5 -46t-26.5 -73q0 -47 36.5 -76t93.5 -29q59 0 90.5 24.5t31.5 69.5q0 16 -5 30t-18.5 27t-22.5 20.5
t-34 19.5t-33.5 16t-39.5 17zM348 310q115 -58 115 -148q0 -75 -55.5 -126t-154.5 -51q-101 0 -155 48t-54 121q0 56 37.5 99.5t82.5 55.5q-52 27 -81 60t-29 83q0 78 55.5 127.5t150.5 49.5q94 0 143.5 -49t49.5 -120q0 -52 -31.5 -92.5t-73.5 -57.5z" />
    <glyph glyph-name="nine" unicode="9" horiz-adv-x="516" 
d="M473 227q0 -137 -88.5 -245.5t-254.5 -147.5l-25 78q232 58 279 234l-2 1q-67 -62 -159 -62q-77 0 -130 54t-53 140q0 90 58.5 149t154.5 59q103 0 161.5 -74.5t58.5 -185.5zM386 253q0 66 -37.5 112t-99.5 46q-57 0 -91.5 -35.5t-34.5 -92.5q0 -56 34 -90.5t88 -34.5
q40 0 76.5 16t59.5 37q5 18 5 42z" />
    <glyph glyph-name="colon" unicode=":" horiz-adv-x="220" 
d="M175 358q0 -26 -18 -45.5t-45 -19.5q-28 0 -46.5 19.5t-18.5 45.5t18.5 44.5t46.5 18.5q27 0 45 -18.5t18 -44.5zM175 50q0 -26 -18 -45.5t-45 -19.5q-28 0 -46.5 19.5t-18.5 45.5t18.5 44.5t46.5 18.5q27 0 45 -18.5t18 -44.5z" />
    <glyph glyph-name="semicolon" unicode=";" horiz-adv-x="220" 
d="M175 358q0 -26 -18 -45.5t-45 -19.5q-28 0 -46.5 19.5t-18.5 45.5t18.5 44.5t46.5 18.5q27 0 45 -18.5t18 -44.5zM41 63q3 26 20.5 42.5t47.5 16.5q32 0 58.5 -26.5t26.5 -65.5q0 -95 -148 -195l-35 35q102 74 102 127q0 19 -15.5 33t-56.5 33z" />
    <glyph glyph-name="less" unicode="&#x3c;" horiz-adv-x="474" 
d="M435 96v-79l-402 189v59l401 189v-79l-297 -135v-10z" />
    <glyph glyph-name="equal" unicode="=" horiz-adv-x="464" 
d="M427 290h-388l-5 71h398zM432 108h-398l5 71h388z" />
    <glyph glyph-name="greater" unicode="&#x3e;" horiz-adv-x="474" 
d="M431 206l-402 -189v79l298 134v10l-297 135v79l401 -189v-59z" />
    <glyph glyph-name="question" unicode="?" horiz-adv-x="356" 
d="M317 478q0 -31 -8.5 -54.5t-26 -38t-32 -22.5t-38.5 -17q-22 -8 -30.5 -12t-22.5 -12t-19 -17.5t-5 -22.5q0 -32 55 -85l-39 -12q-32 19 -55 48.5t-23 64.5q0 24 8 42t24.5 31t30.5 20t37 16q20 8 31.5 13t24.5 13t19 19t6 25q0 36 -34.5 60t-98.5 24q-22 0 -70 -8v77
q34 9 76 9q82 0 136 -47.5t54 -113.5zM215 50q0 -26 -18 -45.5t-46 -19.5q-27 0 -46 19.5t-19 45.5t19 44.5t46 18.5q28 0 46 -18.5t18 -44.5z" />
    <glyph glyph-name="at" unicode="@" horiz-adv-x="828" 
d="M547 206q-21 -107 61 -107q61 0 102 55t41 152q0 129 -97 211t-227 82q-143 0 -244.5 -105.5t-101.5 -250.5q0 -138 89.5 -233.5t227.5 -95.5q56 0 123 20l11 -37q-71 -23 -136 -23q-155 0 -257 106t-102 262q0 163 113.5 279.5t276.5 116.5q152 0 260 -92t108 -240
q0 -121 -58.5 -191.5t-139.5 -70.5q-85 0 -115 73q-52 -59 -118 -59q-63 0 -104 47t-41 117q0 94 61.5 160.5t150.5 66.5q43 0 95 -23l69 23zM471 154l40 200q-35 37 -88 37q-58 0 -96.5 -49.5t-38.5 -111.5q0 -51 28 -82t69 -31q42 0 86 37z" />
    <glyph glyph-name="A" unicode="A" horiz-adv-x="574" 
d="M337 625l232 -625h-87l-59 164h-271l-59 -164h-88l235 625h97zM395 241l-107 296l-108 -296h215z" />
    <glyph glyph-name="B" unicode="B" horiz-adv-x="566" 
d="M397 322q61 -16 94 -54t33 -91q0 -83 -57.5 -130t-174.5 -47h-213v625h207q109 0 163.5 -44.5t54.5 -121.5q0 -97 -107 -137zM419 452q0 45 -32.5 70t-93.5 25h-129v-196h116q66 0 102.5 27t36.5 74zM439 176q0 98 -152 98h-123v-196h136q139 0 139 98z" />
    <glyph glyph-name="C" unicode="C" horiz-adv-x="601" 
d="M557 588l-27 -77q-81 53 -171 53q-103 0 -165 -67t-62 -182q0 -116 63 -185t166 -69q98 0 177 61l14 -85q-83 -52 -193 -52q-139 0 -226 89t-87 237t87.5 238.5t225.5 90.5q115 0 198 -52z" />
    <glyph glyph-name="D" unicode="D" horiz-adv-x="644" 
d="M598 317q0 -147 -88 -232t-247 -85h-184v625h188q154 0 242.5 -83.5t88.5 -224.5zM513 311q0 114 -65 174.5t-185 60.5h-99v-467h103q114 0 180 59.5t66 172.5z" />
    <glyph glyph-name="E" unicode="E" horiz-adv-x="523" 
d="M475 0h-396v625h396v-79h-311v-193h259v-79h-259v-195h311v-79z" />
    <glyph glyph-name="F" unicode="F" horiz-adv-x="495" 
d="M79 0v625h386v-80h-301v-203h249v-79h-249v-263h-85z" />
    <glyph glyph-name="G" unicode="G" horiz-adv-x="640" 
d="M579 45q-47 -29 -107 -44.5t-113 -15.5q-139 0 -226 89t-87 237t87.5 238.5t225.5 90.5q55 0 112 -14.5t96 -39.5l-28 -78q-87 56 -180 56q-103 0 -165 -67t-62 -182q0 -116 63 -185t166 -69q70 0 136 32v148h-175v79h257v-275z" />
    <glyph glyph-name="H" unicode="H" horiz-adv-x="670" 
d="M591 0h-84v276h-343v-276h-85v625h85v-272h343v272h84v-625z" />
    <glyph glyph-name="I" unicode="I" horiz-adv-x="247" 
d="M165 0h-84v625h84v-625z" />
    <glyph glyph-name="J" unicode="J" horiz-adv-x="418" 
d="M340 190q0 -95 -46.5 -150t-141.5 -55q-77 0 -138 39l13 82q64 -44 124 -44q105 0 105 132v431h84v-435z" />
    <glyph glyph-name="K" unicode="K" horiz-adv-x="548" 
d="M164 327h1l265 298h107l-289 -309l292 -316h-109l-266 297h-1v-297h-85v625h85v-298z" />
    <glyph glyph-name="L" unicode="L" horiz-adv-x="494" 
d="M466 0h-387v625h85v-545h302v-80z" />
    <glyph glyph-name="M" unicode="M" horiz-adv-x="772" 
d="M624 0l-6 520l-190 -511h-85l-191 512l-7 -521h-83l21 625h113l192 -514l191 514h111l20 -625h-86z" />
    <glyph glyph-name="N" unicode="N" horiz-adv-x="668" 
d="M506 121v504h83v-631h-92l-335 510v-504h-83v625h94z" />
    <glyph glyph-name="O" unicode="O" horiz-adv-x="720" 
d="M674 315q0 -141 -88.5 -235.5t-225.5 -94.5q-139 0 -226.5 89.5t-87.5 236.5q0 141 88.5 235t225.5 94q139 0 226.5 -89t87.5 -236zM589 311q0 115 -64 184t-167 69q-100 0 -163 -68.5t-63 -180.5q0 -115 63.5 -184.5t166.5 -69.5q100 0 163.5 69t63.5 181z" />
    <glyph glyph-name="P" unicode="P" horiz-adv-x="537" 
d="M500 423q0 -104 -67.5 -158.5t-186.5 -56.5l-82 -1v-207h-85v625h173q123 0 185.5 -55t62.5 -147zM414 419q0 127 -166 127h-84v-259l91 2q78 1 118.5 35t40.5 95z" />
    <glyph glyph-name="Q" unicode="Q" horiz-adv-x="720" 
d="M496 17l197 -98l-37 -74l-269 142q-16 -2 -27 -2q-139 0 -226.5 89.5t-87.5 236.5q0 141 88.5 235t225.5 94q139 0 226.5 -89t87.5 -236q0 -100 -48 -179.5t-130 -118.5zM589 311q0 115 -64 184t-167 69q-100 0 -163 -68.5t-63 -180.5q0 -115 63.5 -185t166.5 -70
q100 0 163.5 69.5t63.5 181.5z" />
    <glyph glyph-name="R" unicode="R" horiz-adv-x="545" 
d="M164 241v-241h-85v625h187q111 0 170.5 -49t59.5 -134q0 -134 -141 -180l169 -262h-101l-152 248zM164 316l103 3q64 2 104 32.5t40 86.5q0 54 -41 81.5t-114 27.5h-92v-231z" />
    <glyph glyph-name="S" unicode="S" horiz-adv-x="509" 
d="M247 61q59 0 97.5 29.5t38.5 75.5t-34 69.5t-116 45.5q-40 11 -68 22.5t-58 32t-45.5 53t-15.5 75.5q0 79 58 127.5t151 48.5q108 0 197 -55l-30 -74q-78 52 -166 52q-64 0 -95.5 -25.5t-31.5 -67.5q0 -44 34.5 -66.5t117.5 -45.5q83 -22 133.5 -64t50.5 -122
q0 -82 -61 -134.5t-159 -52.5q-116 0 -209 59l28 77q91 -60 183 -60z" />
    <glyph glyph-name="T" unicode="T" horiz-adv-x="560" 
d="M541 545h-219v-545h-84v545h-219v80h522v-80z" />
    <glyph glyph-name="U" unicode="U" horiz-adv-x="646" 
d="M568 241q0 -121 -62.5 -188.5t-183.5 -67.5q-116 0 -180 66.5t-64 180.5v393h84v-380q0 -86 41.5 -133t123.5 -47q74 0 115.5 44t41.5 130v1v1v1v1v1v1v1v1v1v1v1v1v1v1v1v1v1v1v1v1v1v1v1v1v1v1v1v1v1v1v1v1v1v1v1v1v1v1v1v1v1v1v1v1v1v1v1v1v1v1v1v1v1v1v1v1v1v1v1v1v1
v1v1v1v1v1v1v2v1v1v1v1v1v1v1v1v1v1v1v2v1v1v1v1v1v1v1v2v1v1v1v1v1v2v1v1v1v1v2v1v1v1v2v1v1v1v2v1v1v1v2v1v1v1v2v1v1v2v1v1v2v1v1v2v1v1v2v1v1v2v1v1v2v1v1v2v1v2v1v1v2v1v2v1v1v2v1v2v1v2v1v1v2v1v2v1v2v1v2v1v2v1v2v1v2v1v2v1v2v1v2v1v2v1v2v1v2v1v2v2v1v2v1v2v1v2v2v1
v2v1v2v1v2v2v1v2v2v1v2v1v2v2v1v2v2v1v2v2v1v2v2v1v2v2v1v2v2v1v2v2v1v2v2v2v1v2v2v1v2v2v2v1v2v2v2v1v2v2v2v1v2v2v2v1v2v2v2v2v1v2v2v2v2v2v1v2v2v2v2v1v2v2v2v2v2v2v1v2v2v2v2v2v2v9h84v-384z" />
    <glyph glyph-name="V" unicode="V" horiz-adv-x="563" 
d="M563 625l-234 -625h-98l-231 625h87l194 -534l194 534h88z" />
    <glyph glyph-name="W" unicode="W" horiz-adv-x="898" 
d="M450 520l-158 -520h-83l-178 625h89l135 -509l147 509h98l151 -509l133 509h83l-177 -625h-85z" />
    <glyph glyph-name="X" unicode="X" horiz-adv-x="574" 
d="M285 257l-173 -257h-100l224 314l-217 311h104l163 -245l168 245h101l-219 -306l226 -319h-106z" />
    <glyph glyph-name="Y" unicode="Y" horiz-adv-x="540" 
d="M530 625l-217 -377v-248h-85v249l-218 376h96l166 -292l164 292h94z" />
    <glyph glyph-name="Z" unicode="Z" horiz-adv-x="521" 
d="M482 0h-459v64l354 482h-348v79h454v-66l-353 -480h352v-79z" />
    <glyph glyph-name="bracketleft" unicode="[" horiz-adv-x="366" 
d="M357 -222h-274v897h274v-65h-203v-767h203v-65z" />
    <glyph glyph-name="backslash" unicode="\" horiz-adv-x="217" 
d="M-34 702h60l243 -901h-60z" />
    <glyph glyph-name="bracketright" unicode="]" horiz-adv-x="366" 
d="M10 -222v65h203v767h-203v65h274v-897h-274z" />
    <glyph glyph-name="asciicircum" unicode="^" horiz-adv-x="394" 
d="M359 520h-60l-98 127h-1l-99 -127h-60l115 187h88z" />
    <glyph glyph-name="underscore" unicode="_" horiz-adv-x="461" 
d="M473 -59h-485v59h485v-59z" />
    <glyph glyph-name="grave" unicode="`" horiz-adv-x="394" 
d="M277 520h-60l-146 181h100z" />
    <glyph glyph-name="a" unicode="a" horiz-adv-x="451" 
d="M306 104v124q-102 -13 -144 -36.5t-42 -65.5q0 -31 22 -51t59 -20q59 0 105 49zM309 49h-4q-55 -64 -126 -64q-64 0 -105 37.5t-41 93.5q0 151 273 164v13q0 56 -24 80t-79 24q-72 0 -148 -51l-16 74q76 53 172 53q93 0 135.5 -42.5t41.5 -135.5v-192q0 -29 7.5 -37
t37.5 -8l-5 -69q-99 -8 -119 60z" />
    <glyph glyph-name="b" unicode="b" horiz-adv-x="523" 
d="M485 231q0 -105 -65.5 -175.5t-167.5 -70.5q-51 0 -99 15l-82 -15v689l82 13v-271q61 57 128 57q95 0 149.5 -68t54.5 -174zM400 229q0 76 -36.5 122t-99.5 46q-60 0 -111 -44v-1v-1v-1v-1v-1v-1v-1v-1v-1v-1v-1v-1v-1v-1v-1v-1v-1v-1v-1v-1v-1v-1v-1v-1v-1v-1v-1v-1v-1
v-1v-1v-1v-1v-1v-1v-1v-1v-1v-1v-1v-1v-1v-1v-1v-1v-1v-1v-1v-1v-1v-1v-1v-1v-1v-1v-2v-1v-1v-1v-1v-1v-2v-1v-1v-1v-1v-1v-2v-1v-1v-1v-2v-1v-1v-1v-2v-1v-1v-2v-1v-1v-1v-2v-1v-1v-2v-1v-1v-2v-1v-2v-1v-1v-2v-1v-1v-2v-1v-2v-1v-2v-1v-1v-2v-1v-2v-1v-2v-1v-2v-1v-2v-1
v-2v-1v-2v-1v-2v-1v-2v-1v-2v-2v-1v-2v-1v-2v-1v-2v-2v-1v-2v-1v-2v-2v-1v-2v-1v-2v-2v-1v-2v-2v-1v-2v-2v-1v-2v-2v-2v-1v-2v-2v-1v-2v-2v-2v-1v-2v-2v-2v-1v-2v-2v-2v-1v-2v-2v-2v-2v-1v-2v-2v-2v-2v-1v-2v-2v-2v-2v-2v-1v-2v-2v-9q41 -33 102 -33q68 0 106.5 48.5
t38.5 121.5z" />
    <glyph glyph-name="c" unicode="c" horiz-adv-x="456" 
d="M417 23q-62 -38 -151 -38q-107 0 -166 66.5t-59 177.5q0 109 65 176.5t166 67.5q85 0 148 -39l-21 -75q-56 38 -127 38q-70 0 -108 -44.5t-38 -122.5q0 -79 39.5 -124t104.5 -45q76 0 132 38z" />
    <glyph glyph-name="d" unicode="d" horiz-adv-x="526" 
d="M373 458v216l82 13v-687h-82v42q-61 -57 -128 -57q-95 0 -149.5 68t-54.5 174q0 105 65.5 175.5t167.5 70.5q51 0 99 -15zM373 366q-41 33 -102 33q-68 0 -106.5 -48.5t-38.5 -121.5q0 -76 36.5 -122t99.5 -46q60 0 111 44v1v1v1v1v1v1v1v1v1v1v1v1v1v1v1v1v1v1v1v1v1v1
v1v1v1v1v1v1v1v1v1v1v1v1v1v1v1v1v1v1v1v1v1v1v1v1v1v1v1v1v1v1v1v1v1v2v1v1v1v1v1v2v1v1v1v1v1v2v1v1v1v2v1v1v1v2v1v1v2v1v1v1v2v1v1v2v1v1v2v1v2v1v1v2v1v1v2v1v2v1v2v1v1v2v1v2v1v2v1v2v1v2v1v2v1v2v1v2v1v2v1v2v2v1v2v1v2v1v2v2v1v2v1v2v2v1v2v1v2v2v1v2v2v1v2v2v1v2v2
v2v1v2v2v1v2v2v2v1v2v2v2v1v2v2v2v1v2v2v2v2v1v2v2v2v2v1v2v2v2v2v2v1v2v2v9z" />
    <glyph glyph-name="e" unicode="e" horiz-adv-x="480" 
d="M124 219v-4q2 -68 43.5 -111t107.5 -43q81 0 137 38l15 -76q-62 -38 -154 -38q-103 0 -167.5 67t-64.5 172q0 110 64.5 179.5t161.5 69.5q82 0 128.5 -48t46.5 -131q0 -40 -10 -73zM128 279l235 2v7q0 53 -26 83t-78 30q-55 0 -90 -36.5t-41 -85.5z" />
    <glyph glyph-name="f" unicode="f" horiz-adv-x="316" 
d="M331 674q0 -1 -5 -20t-10 -37.5t-5 -17.5q-47 20 -73 20q-35 0 -51.5 -23t-16.5 -74v-64h145l-3 -74h-142v-384h-82v383l-80 6l4 52l75 22l1 58q3 175 151 175q44 0 92 -22z" />
    <glyph glyph-name="g" unicode="g" horiz-adv-x="476" 
d="M127 299q0 -46 29 -74t78 -28q45 0 71.5 29.5t26.5 77.5q0 47 -27 75t-78 28q-45 0 -72.5 -30t-27.5 -78zM167 -22q-36 -10 -57.5 -29.5t-21.5 -44.5q0 -37 40 -61t105 -24q66 0 110 26t44 67q0 36 -32 49t-105 13q-43 0 -83 4zM105 -7q-60 26 -60 77q0 28 20.5 52.5
t55.5 36.5q-76 44 -76 141q0 71 50.5 122t135.5 51q60 0 118 -26l118 11l3 -81l-88 16q13 -12 22 -40t9 -54q0 -70 -52 -119t-131 -49q-27 0 -64 11q-17 -6 -31 -19t-14 -29q0 -22 21.5 -32.5t82.5 -10.5h1h1h1h1h1h2h1h1h1h2h1h2h1h2h2h2h2h2h2h2h2h10q200 0 200 -123
q0 -75 -71.5 -125.5t-175.5 -50.5q-92 0 -152.5 37t-60.5 97q0 40 26 69t72 38z" />
    <glyph glyph-name="h" unicode="h" horiz-adv-x="517" 
d="M450 0h-82v288q0 58 -22 82t-68 24q-73 0 -125 -50v-344h-82v674l82 13v-281q67 67 154 67q66 0 104.5 -42t38.5 -116v-315z" />
    <glyph glyph-name="i" unicode="i" horiz-adv-x="224" 
d="M166 618q0 -25 -14 -42t-40 -17t-40 17t-14 42t14 42t40 17t40 -17t14 -42zM153 0h-82v460l82 13v-473z" />
    <glyph glyph-name="j" unicode="j" horiz-adv-x="221" 
d="M166 618q0 -25 -14 -42t-40 -17t-40 17t-14 42t14 42t40 17t40 -17t14 -42zM46 -249l-55 58q44 21 62 57t18 109v1v1v1v1v1v1v1v1v1v1v1v1v1v1v1v1v1v1v1v1v1v1v1v1v1v1v1v1v1v1v1v1v1v1v1v1v1v1v1v1v1v1v1v1v1v1v1v1v1v1v1v1v1v1v1v1v1v1v1v1v1v1v1v1v1v1v1v1v1v1v1v1v1
v1v1v1v1v1v1v1v1v1v1v1v1v1v1v1v1v1v1v2v1v1v1v1v1v1v1v1v1v2v1v1v1v1v1v1v1v2v1v1v1v1v1v2v1v1v1v1v2v1v1v1v1v2v1v1v1v2v1v1v1v2v1v1v1v2v1v1v1v2v1v1v2v1v1v1v2v1v1v2v1v1v2v1v1v2v1v1v2v1v1v2v1v1v2v1v2v1v1v2v1v1v2v1v2v1v1v2v1v2v1v2v1v1v2v1v2v1v2v1v2v1v1v2v1v2v1v2
v1v2v1v2v1v2v1v2v1v2v1v2v1v2v1v2v1v2v1v2v1v2v2v1v2v1v2v1v2v1v2v2v1v2v1v2v1v2v2v1v2v1v2v2v1v2v1v2v2v1v2v2v1v2v2v1v2v1v2v2v1v2v2v1v2v2v1v2v2v1v2v2v1v2v2v2v1v2v2v1v2v2v2v1v2v2v1v2v2v2v1v2v2v2v1v2v2v2v1v2v2v2v1v2v2v2v2v1v2v2v2v2v1v2v2v2v2v1v2v2v2v2v2v1v2v2v2
v2v2v1v2v2v2v2v2v2v1v2v2v2v2v2v2v2v1v9l82 13v-1v-1v-1v-1v-1v-1v-1v-1v-1v-1v-1v-1v-1v-1v-1v-1v-1v-1v-1v-1v-1v-1v-1v-1v-1v-1v-1v-1v-1v-1v-1v-1v-1v-1v-1v-1v-1v-1v-1v-1v-1v-1v-1v-1v-1v-1v-1v-1v-1v-1v-1v-1v-1v-1v-1v-1v-1v-1v-1v-1v-1v-1v-1v-1v-1v-1v-1v-1v-1v-1
v-1v-1v-1v-1v-1v-1v-1v-1v-1v-1v-1v-1v-1v-1v-1v-1v-1v-2v-1v-1v-1v-1v-1v-1v-1v-1v-1v-1v-2v-1v-1v-1v-1v-1v-1v-2v-1v-1v-1v-1v-1v-2v-1v-1v-1v-1v-2v-1v-1v-1v-1v-2v-1v-1v-1v-2v-1v-1v-1v-2v-1v-1v-1v-2v-1v-1v-2v-1v-1v-1v-2v-1v-1v-2v-1v-1v-2v-1v-1v-2v-1v-1v-2v-1
v-1v-2v-1v-2v-1v-1v-2v-1v-1v-2v-1v-2v-1v-1v-2v-1v-2v-1v-1v-2v-1v-2v-1v-2v-1v-2v-1v-1v-2v-1v-2v-1v-2v-1v-2v-1v-2v-1v-2v-1v-2v-1v-2v-1v-2v-1v-2v-1v-2v-1v-2v-1v-2v-2v-1v-2v-1v-2v-1v-2v-1v-2v-2v-1v-2v-1v-2v-2v-1v-2v-1v-2v-2v-1v-2v-1v-2v-2v-1v-2v-2v-1v-2v-1
v-2v-2v-1v-2v-2v-1v-2v-2v-1v-2v-2v-2v-1v-2v-2v-1v-2v-2v-1v-2v-2v-2v-1v-2v-2v-2v-1v-2v-2v-1v-2v-2v-2v-2v-1v-2v-2v-2v-1v-2v-2v-2v-2v-1v-2v-2v-2v-2v-1v-2v-2v-2v-2v-2v-1v-2v-2v-2v-2v-2v-2v-1v-2v-2v-2v-2v-2v-2v-2v-2v-2v-1v-2v-2v-2v-2v-2v-2v-2v-2v-2v-2v-2v-2
v-2v-2v-2v-2v-2v-2v-2v-2v-2v-2v-2v-3v-2v-2v-2v-2v-2v-10q0 -97 -24 -147.5t-83 -82.5z" />
    <glyph glyph-name="k" unicode="k" horiz-adv-x="456" 
d="M155 226h-2v-226h-82v674l82 13v-439h2l189 210h104l-210 -217l211 -241h-105z" />
    <glyph glyph-name="l" unicode="l" horiz-adv-x="224" 
d="M153 0h-82v674l82 13v-687z" />
    <glyph glyph-name="m" unicode="m" horiz-adv-x="792" 
d="M725 0h-82v286q0 59 -21.5 84t-66.5 25q-62 0 -116 -52v-28v-315h-82v286q0 59 -21.5 84t-66.5 25q-67 0 -116 -47v-348h-82v460l82 13v-63q66 63 147 63q86 0 120 -76q76 76 166 76q64 0 101.5 -42.5t37.5 -117.5v-313z" />
    <glyph glyph-name="n" unicode="n" horiz-adv-x="517" 
d="M450 0h-82v288q0 58 -22.5 82t-72.5 24q-68 0 -120 -50v-344h-82v460l82 13v-69q69 69 149 69q70 0 109 -42t39 -116v-315z" />
    <glyph glyph-name="o" unicode="o" horiz-adv-x="528" 
d="M487 229q0 -109 -63.5 -176.5t-161.5 -67.5t-159.5 67t-61.5 177t63 177.5t163 67.5q99 0 159.5 -67t60.5 -178zM406 228q0 75 -38.5 123.5t-104.5 48.5q-67 0 -104 -47t-37 -123q0 -75 38.5 -123t104.5 -48q67 0 104 46.5t37 122.5z" />
    <glyph glyph-name="p" unicode="p" horiz-adv-x="526" 
d="M153 416q61 57 128 57q95 0 149.5 -68t54.5 -174q0 -105 -65.5 -175.5t-167.5 -70.5q-56 0 -99 12v-230h-82v693l82 13v-57zM153 353v-1v-1v-1v-1v-1v-1v-1v-1v-1v-1v-1v-1v-1v-1v-1v-1v-1v-1v-1v-1v-1v-1v-1v-1v-1v-1v-1v-1v-1v-1v-1v-1v-1v-1v-1v-1v-1v-1v-1v-1v-1v-1
v-1v-1v-1v-1v-1v-1v-1v-1v-1v-1v-1v-1v-1v-2v-1v-1v-1v-1v-1v-2v-1v-1v-1v-1v-1v-2v-1v-1v-1v-2v-1v-1v-1v-2v-1v-1v-2v-1v-1v-1v-2v-1v-1v-2v-1v-1v-2v-1v-2v-1v-1v-2v-1v-1v-2v-1v-2v-1v-2v-1v-1v-2v-1v-2v-1v-2v-1v-2v-1v-2v-1v-2v-1v-2v-1v-2v-1v-2v-1v-2v-2v-1v-2v-1
v-2v-1v-2v-2v-1v-2v-1v-2v-2v-1v-2v-1v-2v-2v-1v-2v-2v-1v-2v-2v-1v-2v-2v-2v-1v-2v-2v-1v-2v-2v-2v-1v-2v-2v-2v-1v-2v-2v-2v-1v-2v-2v-2v-2v-1v-2v-2v-2v-2v-1v-2v-2v-2v-2v-2v-1v-2v-2v-9q41 -33 102 -33q68 0 106.5 48.5t38.5 121.5q0 76 -36.5 122t-99.5 46
q-60 0 -111 -44z" />
    <glyph glyph-name="q" unicode="q" horiz-adv-x="526" 
d="M455 -233h-82v275q-61 -57 -128 -57q-95 0 -149.5 68t-54.5 174q0 105 65.5 175.5t167.5 70.5q55 0 117 -17l64 17v-706zM373 366q-43 35 -102 35q-67 0 -106 -49t-39 -123q0 -77 36.5 -123.5t99.5 -46.5q58 0 111 46v1v1v1v1v1v1v1v1v1v1v1v1v1v1v1v1v1v1v1v1v1v1v1v1v1
v1v1v1v1v1v1v1v1v1v1v1v1v1v1v1v1v1v1v1v1v1v1v1v1v1v1v1v1v1v1v2v1v1v1v1v1v2v1v1v1v1v1v2v1v1v1v2v1v1v1v2v1v1v2v1v1v1v2v1v1v2v1v1v2v1v2v1v1v2v1v1v2v1v2v1v2v1v1v2v1v2v1v2v1v2v1v2v1v2v1v2v1v2v1v2v1v2v2v1v2v1v2v1v2v2v1v2v1v2v2v1v2v1v2v2v1v2v2v1v2v2v1v2v2v2v1v2
v2v1v2v2v2v1v2v2v2v1v2v2v2v1v2v2v2v2v1v2v2v2v2v1v2v2v2v2v2v1v2v2v9z" />
    <glyph glyph-name="r" unicode="r" horiz-adv-x="381" 
d="M153 299v-299h-82v460l82 13v-81q51 81 128 81q49 0 86 -23l-21 -77q-35 21 -73 21q-69 0 -120 -95z" />
    <glyph glyph-name="s" unicode="s" horiz-adv-x="401" 
d="M364 130q0 -65 -48.5 -105.5t-124.5 -40.5q-91 0 -160 43l21 75q63 -43 141 -43q40 0 65.5 17.5t25.5 47.5q0 16 -8 28.5t-26.5 21.5t-32.5 14t-41 12q-61 17 -98.5 47t-37.5 87q0 63 47 101t117 38q80 0 148 -34l-21 -75q-62 34 -131 34q-37 0 -59 -15t-22 -42
q0 -30 26.5 -45t79.5 -29q62 -17 100.5 -47.5t38.5 -89.5z" />
    <glyph glyph-name="t" unicode="t" horiz-adv-x="339" 
d="M312 5q-52 -20 -103 -20q-137 0 -133 143l7 256l-76 5l3 52l76 23l2 99h79l-3 -105h143l-3 -74h-143l-7 -259q-2 -65 60 -65q37 0 83 17z" />
    <glyph glyph-name="u" unicode="u" horiz-adv-x="517" 
d="M67 458h82v-288q0 -58 22 -82t68 -24q73 0 125 50v344h82v-460l-82 -13v67q-67 -67 -154 -67q-66 0 -104.5 42t-38.5 116v315z" />
    <glyph glyph-name="v" unicode="v" horiz-adv-x="441" 
d="M439 458l-180 -459h-76l-181 459h88l134 -356l128 356h87z" />
    <glyph glyph-name="w" unicode="w" horiz-adv-x="684" 
d="M230 -2h-75l-141 460h88l97 -340l106 338h75l117 -339l84 341h91l-138 -460h-75l-117 342z" />
    <glyph glyph-name="x" unicode="x" horiz-adv-x="414" 
d="M413 0h-92l-114 179l-112 -179h-94l157 234l-148 224h92l105 -165l100 165h94l-145 -222z" />
    <glyph glyph-name="y" unicode="y" horiz-adv-x="441" 
d="M439 458l-183 -463l-31 -82q-32 -85 -69 -118t-92 -33q-44 0 -97 24l24 76q44 -22 73 -22q27 0 46.5 20.5t41.5 78.5l28 71l-178 448h88l133 -356l129 356h87z" />
    <glyph glyph-name="z" unicode="z" horiz-adv-x="410" 
d="M386 0h-365v70l266 313h-257v75h356v-68l-266 -315h266v-75z" />
    <glyph glyph-name="braceleft" unicode="{" horiz-adv-x="339" 
d="M322 -229q-112 5 -167.5 36t-55.5 98q0 43 23.5 109t23.5 95q0 41 -28 59t-94 23l-3 40l3 40q66 5 94 22.5t28 59.5q0 29 -23.5 95t-23.5 109q0 67 55.5 98.5t167.5 36.5v-57q-80 -6 -114.5 -23.5t-34.5 -49.5q0 -29 24 -91.5t24 -103.5q0 -57 -35 -92t-100 -39v-10
q65 -4 100 -39.5t35 -92.5q0 -41 -24 -102.5t-24 -88.5q0 -34 34.5 -52.5t114.5 -23.5v-56z" />
    <glyph glyph-name="bar" unicode="|" horiz-adv-x="227" 
d="M80 -199v901h67v-901h-67z" />
    <glyph glyph-name="braceright" unicode="}" horiz-adv-x="339" 
d="M318 231l-3 -40q-66 -5 -94.5 -23t-28.5 -59q0 -29 24 -95t24 -109q0 -67 -55.5 -98t-167.5 -36v56q79 5 114 23t35 52q0 28 -23.5 89.5t-23.5 102.5q0 57 34.5 92.5t99.5 39.5v10q-65 4 -99.5 38.5t-34.5 92.5q0 41 23.5 103.5t23.5 91.5q0 32 -35 49.5t-114 23.5v57
q112 -5 167.5 -36.5t55.5 -98.5q0 -43 -24 -109t-24 -95q0 -42 28.5 -59.5t94.5 -22.5z" />
    <glyph glyph-name="asciitilde" unicode="~" horiz-adv-x="394" 
d="M371 304q-7 -65 -29.5 -95.5t-67.5 -30.5q-34 0 -86 34.5t-67 34.5q-29 0 -38 -62h-1h-1h-1h-1h-1h-1h-1h-1h-1h-1h-2h-1h-1h-2h-1h-1h-2h-1h-2h-2h-1h-2h-2h-1h-2h-2h-2h-2h-2h-2h-2h-10q7 66 29.5 96.5t67.5 30.5q34 0 86 -35t67 -35q29 0 37 62h1h1h1h1h1h1h1h1h1h1h1
h1h1h2h1h1h2h1h1h2h2h1h2h1h2h2h1h2h2h2h2h2h2h2h8z" />
    <glyph glyph-name="nbspace" unicode="&#xa0;" horiz-adv-x="154" 
 />
    <glyph glyph-name="exclamdown" unicode="&#xa1;" horiz-adv-x="275" 
d="M73 574q0 26 18 45.5t46 19.5q27 0 46 -19.5t19 -45.5t-19 -44.5t-46 -18.5q-28 0 -46 18.5t-18 44.5zM161 430l26 -458h-100l26 458h48z" />
    <glyph glyph-name="cent" unicode="&#xa2;" horiz-adv-x="445" 
d="M327 468q48 -7 93 -34l-21 -75q-37 25 -82 33l-44 -331q74 0 129 38l15 -76q-62 -38 -149 -38h-6l-4 -27l-6 -54l-4 -27h-49l15 113q-80 17 -126.5 81.5t-46.5 157.5q0 109 64 176.5t165 67.5h9l12 90h49zM269 397q-69 -1 -106 -45t-37 -122q0 -64 26 -106.5t72 -56.5z
" />
    <glyph glyph-name="sterling" unicode="&#xa3;" horiz-adv-x="510" 
d="M124 328q-3 54 -3 98q0 105 55 159.5t144 54.5q80 0 148 -43l-20 -73q-62 42 -129 42q-58 0 -87 -36t-29 -96q0 -24 4 -106h196l-3 -54h-191q2 -60 2 -90q0 -39 -7 -67q32 -27 70.5 -42t67.5 -15q81 0 100 107l63 -14q-6 -79 -50.5 -123.5t-105.5 -44.5q-83 0 -169 77
q-40 -55 -139 -79q-1 2 -1.5 5.5t-3 12.5t-5 17t-4.5 16t-3.5 12t-1.5 3q63 17 85 44.5t22 82.5q0 47 -3 98h-93l-3 54h94z" />
    <glyph glyph-name="currency" unicode="&#xa4;" horiz-adv-x="449" 
d="M416 501l-59 -59q22 -39 22 -83q0 -46 -22 -84l64 -64l-48 -48l-63 63q-37 -23 -85 -23q-52 0 -85 22l-58 -58l-47 47l58 58q-23 37 -23 87q0 48 23 85l-61 60l48 48l60 -60q37 23 85 23q52 0 87 -24l57 57zM318 359q0 40 -25.5 68t-67.5 28q-43 0 -68.5 -27.5
t-25.5 -68.5q0 -40 25.5 -68t68.5 -28q42 0 67.5 28t25.5 68z" />
    <glyph glyph-name="yen" unicode="&#xa5;" horiz-adv-x="543" 
d="M231 263h-174l-3 55h154l-196 307h95l165 -275l164 275h92l-194 -307h153l-3 -55h-174v-78h174l3 -54h-176v-131h-81v131h-176l3 54h174v78z" />
    <glyph glyph-name="brokenbar" unicode="&#xa6;" horiz-adv-x="227" 
d="M80 307v335h67v-335h-67zM80 -139v335h67v-335h-67z" />
    <glyph glyph-name="section" unicode="&#xa7;" horiz-adv-x="471" 
d="M455 295q0 -43 -25.5 -75.5t-70.5 -48.5q47 -35 47 -89q0 -65 -49 -106.5t-124 -41.5q-91 0 -160 43l21 75q63 -43 141 -43q40 0 65.5 17.5t25.5 47.5q0 21 -21.5 37t-42.5 23t-67 20q-31 9 -49.5 15t-44 18t-40 24.5t-25 32.5t-10.5 45q0 41 30 74t73 48q-54 35 -54 91
q0 63 47 102t117 39q80 0 148 -34l-21 -75q-62 34 -131 34q-37 0 -59 -15t-22 -42q0 -34 63 -55q16 -6 53 -16q9 -3 14 -4q38 -11 62 -20t52.5 -25.5t42.5 -40.5t14 -55zM378 277q0 22 -21.5 39.5t-48.5 26.5t-71 23t-69 25q-66 -41 -66 -83q0 -28 32 -45.5t94 -36t92 -32.5
q58 35 58 83z" />
    <glyph glyph-name="dieresis" unicode="&#xa8;" horiz-adv-x="394" 
d="M362 587q0 -26 -17 -44.5t-43 -18.5t-43 18.5t-17 44.5t17 44t43 18t43 -18t17 -44zM158 587q0 -26 -17.5 -44.5t-43.5 -18.5t-43 18.5t-17 44.5q0 25 17 43.5t43 18.5t43.5 -18.5t17.5 -43.5z" />
    <glyph glyph-name="copyright" unicode="&#xa9;" horiz-adv-x="728" 
d="M364 -16q-136 0 -231.5 96t-95.5 231q0 136 95.5 232t231.5 96t231.5 -96t95.5 -232q0 -135 -95.5 -231t-231.5 -96zM661 311q0 123 -87 211.5t-210 88.5t-210 -88.5t-87 -211.5t87 -211t210 -88t210 88t87 211zM494 468l-20 -54q-44 28 -94 28q-55 0 -87.5 -34.5
t-32.5 -94.5q0 -61 33 -97t88 -36t98 33l12 -59q-45 -28 -112 -28q-81 0 -131 49.5t-50 134.5q0 84 50.5 135t131.5 51q67 0 114 -28z" />
    <glyph glyph-name="ordfeminine" unicode="&#xaa;" horiz-adv-x="352" 
d="M337 264l-69 -16q-19 22 -32 54h-1q-49 -53 -107 -53q-47 0 -76.5 29.5t-29.5 74.5q0 125 209 133v23q0 68 -70 68q-55 0 -112 -44l-24 56q67 51 143 51q128 0 128 -128v-144q0 -52 41 -104zM231 341v95q-77 -3 -110.5 -24t-33.5 -50q0 -27 17 -40.5t42 -13.5q52 0 85 33
z" />
    <glyph glyph-name="guillemotleft" unicode="&#xab;" horiz-adv-x="580" 
d="M554 85l-7 -60l-262 162v94l262 162l7 -60l-194 -148v-2zM277 92l-8 -56l-249 153v90l249 153l8 -56l-185 -141v-2z" />
    <glyph glyph-name="logicalnot" unicode="&#xac;" horiz-adv-x="484" 
d="M444 330v-213h-70v142h-334l3 71h401z" />
    <glyph glyph-name="uni00AD" unicode="&#xad;" horiz-adv-x="310" 
d="M279 204h-246v77h246v-77z" />
    <glyph glyph-name="registered" unicode="&#xae;" horiz-adv-x="728" 
d="M364 -16q-136 0 -231.5 96t-95.5 231q0 136 95.5 232t231.5 96t231.5 -96t95.5 -232q0 -135 -95.5 -231t-231.5 -96zM661 311q0 123 -87 211.5t-210 88.5t-210 -88.5t-87 -211.5t87 -211t210 -88t210 88t87 211zM300 260v-122h-62v354h128q65 0 100.5 -29t35.5 -82
q0 -76 -68 -103l87 -140h-71l-77 126zM299 312l60 1q81 1 81 64q0 60 -81 60h-60v-125z" />
    <glyph glyph-name="macron" unicode="&#xaf;" horiz-adv-x="394" 
d="M337 538h-275l4 53h266z" />
    <glyph glyph-name="degree" unicode="&#xb0;" horiz-adv-x="373" 
d="M350 476q0 -68 -45 -115.5t-119 -47.5q-73 0 -118 47.5t-45 115.5q0 69 45 116.5t118 47.5q74 0 119 -47.5t45 -116.5zM297 476q0 49 -30 81.5t-81 32.5q-50 0 -80 -32.5t-30 -81.5q0 -47 30 -79.5t80 -32.5q51 0 81 32.5t30 79.5z" />
    <glyph glyph-name="plusminus" unicode="&#xb1;" horiz-adv-x="484" 
d="M446 229h-167v-140h-70v140h-169l3 71h166v140h70v-140h164zM446 0h-406l3 71h400z" />
    <glyph glyph-name="twosuperior" unicode="&#xb2;" horiz-adv-x="330" 
d="M296 273h-267l-2 54q19 17 48.5 42t43.5 37t34 30.5t29 29t19 25t13.5 26.5t3.5 25q0 28 -19.5 45t-51.5 17q-48 0 -96 -39l-22 50q52 43 126 43q59 0 94 -31t35 -81q0 -26 -9.5 -48t-38.5 -52t-52.5 -50.5t-82.5 -68.5q-1 0 18.5 0h48h57.5h49h20z" />
    <glyph glyph-name="threesuperior" unicode="&#xb3;" horiz-adv-x="330" 
d="M179 472q58 0 89 -26t31 -65q0 -53 -44 -85t-110 -32q-68 0 -118 26l11 52q56 -25 107 -25q38 0 63 16t25 45q0 27 -23.5 43.5t-67.5 16.5q-17 -1 -61 -6v47q67 14 101.5 32t34.5 46q0 48 -68 48q-53 0 -97 -36l-24 51q56 38 125 38q59 0 94.5 -24.5t35.5 -67.5
q0 -68 -104 -94z" />
    <glyph glyph-name="acute" unicode="&#xb4;" horiz-adv-x="394" 
d="M329 701l-146 -181h-60l106 181h100z" />
    <glyph glyph-name="mu" unicode="&#xb5;" horiz-adv-x="521" 
d="M153 458v-292q0 -56 34.5 -79t74.5 -23q13 0 24.5 1.5t27 8t27 16.5t19.5 29.5t8 45.5v293h82v-458h-82v44q-34 -59 -107 -59q-70 0 -108 58v-276h-82v691h82z" />
    <glyph glyph-name="mu" unicode="&#x3bc;" horiz-adv-x="521" 
d="M153 458v-292q0 -56 34.5 -79t74.5 -23q13 0 24.5 1.5t27 8t27 16.5t19.5 29.5t8 45.5v293h82v-458h-82v44q-34 -59 -107 -59q-70 0 -108 58v-276h-82v691h82z" />
    <glyph glyph-name="paragraph" unicode="&#xb6;" horiz-adv-x="498" 
d="M338 261q-33 -7 -61 -7q-114 0 -173 50.5t-59 131.5q0 91 65 140t174 49h-1h-1h-1h1h1h1h1h1h1h1h1h1h1h1h1h1h1h1h1h1h1h1h1h1h1h1h1h1h1h1h1h1h2h1h1h1h1h2h1h1h1h2h1h1h2h1h1h2h1h2h1h1h2h1h2h1h2h1h2h1h2h1h2h1h2h2h1h2h1h2h2h1h2h2h1h2h2h1h2h2h2h1h2h2h2h1h2h2h2h2
h8v-689h-69v325z" />
    <glyph glyph-name="periodcentered" unicode="&#xb7;" horiz-adv-x="220" 
d="M175 228q0 -26 -18 -45.5t-45 -19.5q-28 0 -46.5 19.5t-18.5 45.5t18.5 44.5t46.5 18.5q27 0 45 -18.5t18 -44.5z" />
    <glyph glyph-name="cedilla" unicode="&#xb8;" horiz-adv-x="394" 
d="M193 -68q58 0 90.5 -22t32.5 -60q0 -90 -164 -111l-6 52q106 6 106 54q0 53 -120 34l-8 42l120 118h59z" />
    <glyph glyph-name="onesuperior" unicode="&#xb9;" horiz-adv-x="330" 
d="M159 273v311l-101 -23l-2 55l168 39v-382h-65z" />
    <glyph glyph-name="ordmasculine" unicode="&#xba;" horiz-adv-x="421" 
d="M389 444q0 -87 -51 -141t-129 -54q-79 0 -128 53.5t-49 141.5t50.5 142t130.5 54q79 0 127.5 -53.5t48.5 -142.5zM324 443q0 61 -30.5 99.5t-83.5 38.5t-83 -37.5t-30 -98.5q0 -60 30.5 -98.5t83.5 -38.5q54 0 83.5 37t29.5 98z" />
    <glyph glyph-name="guillemotright" unicode="&#xbb;" horiz-adv-x="586" 
d="M566 189l-249 -153l-8 56l185 141v2l-185 141l8 56l249 -153v-90zM301 187l-262 -162l-7 60l194 148v2l-194 148l7 60l262 -162v-94z" />
    <glyph glyph-name="onequarter" unicode="&#xbc;" horiz-adv-x="715" 
d="M707 -49h-60v-94h-59v94h-183l-6 42l174 244h74v-236h58zM588 1v174l-124 -174h124zM675 625l-531 -741h-63l531 741h63zM159 273v311l-101 -23l-2 55l168 39v-382h-65z" />
    <glyph glyph-name="onehalf" unicode="&#xbd;" horiz-adv-x="715" 
d="M660 625l-531 -741h-63l531 741h63zM159 273v311l-101 -23l-2 55l168 39v-382h-65zM681 -143h-267l-2 54q19 17 48.5 42t43.5 37t34 30.5t29 29t19 25t13.5 26.5t3.5 25q0 28 -19.5 45t-51.5 17q-48 0 -96 -39l-22 50q52 43 126 43q59 0 94 -31t35 -81q0 -26 -9.5 -48
t-38.5 -52t-52.5 -50.5t-82.5 -68.5q-1 0 18.5 0h48h57.5h49h20z" />
    <glyph glyph-name="threequarters" unicode="&#xbe;" horiz-adv-x="715" 
d="M707 -49h-60v-94h-59v94h-183l-6 42l174 244h74v-236h58zM588 1v174l-124 -174h124zM675 625l-531 -741h-63l531 741h63zM179 472q58 0 89 -26t31 -65q0 -53 -44 -85t-110 -32q-68 0 -118 26l11 52q56 -25 107 -25q38 0 63 16t25 45q0 27 -23.5 43.5t-67.5 16.5
q-17 -1 -61 -6v47q67 14 101.5 32t34.5 46q0 48 -68 48q-53 0 -97 -36l-24 51q56 38 125 38q59 0 94.5 -24.5t35.5 -67.5q0 -68 -104 -94z" />
    <glyph glyph-name="questiondown" unicode="&#xbf;" horiz-adv-x="356" 
d="M38 146q0 31 8.5 54.5t26.5 38t32.5 22.5t38.5 17q28 10 40.5 16t24 18.5t11.5 29.5q0 33 -54 85l38 12q79 -46 79 -113q0 -24 -8 -42t-24.5 -31t-30.5 -20t-37 -16q-20 -8 -31.5 -13t-24.5 -13t-19 -19t-6 -25q0 -36 34.5 -60t98.5 -24q24 0 69 8v-77q-32 -9 -76 -9
q-82 0 -136 47.5t-54 113.5zM141 574q0 26 18 45.5t45 19.5q28 0 47 -19.5t19 -45.5t-19 -44.5t-47 -18.5q-27 0 -45 18.5t-18 44.5z" />
    <glyph glyph-name="Agrave" unicode="&#xc0;" horiz-adv-x="574" 
d="M337 625l232 -625h-87l-59 164h-271l-59 -164h-88l235 625h97zM395 241l-107 296l-108 -296h215zM317 687h-60l-146 181h100z" />
    <glyph glyph-name="Aacute" unicode="&#xc1;" horiz-adv-x="574" 
d="M337 625l232 -625h-87l-59 164h-271l-59 -164h-88l235 625h97zM395 241l-107 296l-108 -296h215zM459 868l-146 -181h-60l106 181h100z" />
    <glyph glyph-name="Acircumflex" unicode="&#xc2;" horiz-adv-x="574" 
d="M337 625l232 -625h-87l-59 164h-271l-59 -164h-88l235 625h97zM395 241l-107 296l-108 -296h215zM449 687h-60l-98 127h-1l-99 -127h-60l115 187h88z" />
    <glyph glyph-name="Atilde" unicode="&#xc3;" horiz-adv-x="574" 
d="M337 625l232 -625h-87l-59 164h-271l-59 -164h-88l235 625h97zM395 241l-107 296l-108 -296h215zM461 816q-7 -65 -29.5 -95.5t-67.5 -30.5q-34 0 -86 34.5t-67 34.5q-29 0 -38 -62h-1h-1h-1h-1h-1h-1h-1h-1h-1h-1h-2h-1h-1h-2h-1h-1h-2h-1h-2h-2h-1h-2h-2h-1h-2h-2h-2
h-2h-2h-2h-2h-10q7 66 29.5 96.5t67.5 30.5q34 0 86 -35t67 -35q29 0 37 62h1h1h1h1h1h1h1h1h1h1h1h1h1h2h1h1h2h1h1h2h2h1h2h1h2h2h1h2h2h2h2h2h2h2h8z" />
    <glyph glyph-name="Adieresis" unicode="&#xc4;" horiz-adv-x="574" 
d="M337 625l232 -625h-87l-59 164h-271l-59 -164h-88l235 625h97zM395 241l-107 296l-108 -296h215zM450 754q0 -26 -17 -44.5t-43 -18.5t-43 18.5t-17 44.5t17 44t43 18t43 -18t17 -44zM246 754q0 -26 -17.5 -44.5t-43.5 -18.5t-43 18.5t-17 44.5q0 25 17 43.5t43 18.5
t43.5 -18.5t17.5 -43.5z" />
    <glyph glyph-name="Aring" unicode="&#xc5;" horiz-adv-x="574" 
d="M395 241l-107 296l-108 -296h215zM225 587q-60 31 -60 95q0 46 34 77.5t89 31.5q56 0 89 -31.5t34 -77.5q1 -30 -15 -55.5t-45 -39.5l218 -587h-87l-59 164h-271l-59 -164h-88zM361 683q0 28 -20 47t-53 19q-32 0 -51.5 -19t-19.5 -47t19.5 -47.5t51.5 -19.5
q33 0 53 19.5t20 47.5z" />
    <glyph glyph-name="AE" unicode="&#xc6;" horiz-adv-x="832" 
d="M222 242h172v305zM177 163l-91 -163h-94l357 625h441v-79h-312v-193h260v-79h-260v-195h312v-79h-396v163h-217z" />
    <glyph glyph-name="Ccedilla" unicode="&#xc7;" horiz-adv-x="601" 
d="M327 -68q58 0 90.5 -22t32.5 -60q0 -90 -164 -111l-6 52q106 6 106 54q0 53 -120 34l-8 42l66 66q-124 11 -201 98.5t-77 225.5q0 148 87.5 238.5t225.5 90.5q115 0 198 -52l-27 -77q-81 53 -171 53q-103 0 -165 -67t-62 -182q0 -116 63 -185t166 -69q98 0 177 61l14 -85
q-71 -45 -170 -51z" />
    <glyph glyph-name="Egrave" unicode="&#xc8;" horiz-adv-x="523" 
d="M475 0h-396v625h396v-79h-311v-193h259v-79h-259v-195h311v-79zM321 687h-60l-146 181h100z" />
    <glyph glyph-name="Eacute" unicode="&#xc9;" horiz-adv-x="523" 
d="M475 0h-396v625h396v-79h-311v-193h259v-79h-259v-195h311v-79zM432 868l-146 -181h-60l106 181h100z" />
    <glyph glyph-name="Ecircumflex" unicode="&#xca;" horiz-adv-x="523" 
d="M475 0h-396v625h396v-79h-311v-193h259v-79h-259v-195h311v-79zM433 687h-60l-98 127h-1l-99 -127h-60l115 187h88z" />
    <glyph glyph-name="Edieresis" unicode="&#xcb;" horiz-adv-x="523" 
d="M475 0h-396v625h396v-79h-311v-193h259v-79h-259v-195h311v-79zM436 754q0 -26 -17 -44.5t-43 -18.5t-43 18.5t-17 44.5t17 44t43 18t43 -18t17 -44zM232 754q0 -26 -17.5 -44.5t-43.5 -18.5t-43 18.5t-17 44.5q0 25 17 43.5t43 18.5t43.5 -18.5t17.5 -43.5z" />
    <glyph glyph-name="Igrave" unicode="&#xcc;" horiz-adv-x="247" 
d="M165 0h-84v625h84v-625zM163 687h-60l-146 181h100z" />
    <glyph glyph-name="Iacute" unicode="&#xcd;" horiz-adv-x="247" 
d="M165 0h-84v625h84v-625zM295 868l-146 -181h-60l106 181h100z" />
    <glyph glyph-name="Icircumflex" unicode="&#xce;" horiz-adv-x="247" 
d="M165 0h-84v625h84v-625zM285 687h-60l-98 127h-1l-99 -127h-60l115 187h88z" />
    <glyph glyph-name="Idieresis" unicode="&#xcf;" horiz-adv-x="247" 
d="M165 0h-84v625h84v-625zM288 754q0 -26 -17 -44.5t-43 -18.5t-43 18.5t-17 44.5t17 44t43 18t43 -18t17 -44zM84 754q0 -26 -17.5 -44.5t-43.5 -18.5t-43 18.5t-17 44.5q0 25 17 43.5t43 18.5t43.5 -18.5t17.5 -43.5z" />
    <glyph glyph-name="Eth" unicode="&#xd0;" horiz-adv-x="659" 
d="M184 353h159v-73h-159v-201h103q114 0 180 59.5t66 172.5q0 114 -65 174.5t-185 60.5h-99v-193zM99 280h-83v73h83v272h188q154 0 242.5 -83.5t88.5 -224.5q0 -147 -88 -232t-247 -85h-184v280z" />
    <glyph glyph-name="Ntilde" unicode="&#xd1;" horiz-adv-x="668" 
d="M506 121v504h83v-631h-92l-335 510v-504h-83v625h94zM507 816q-7 -65 -29.5 -95.5t-67.5 -30.5q-34 0 -86 34.5t-67 34.5q-29 0 -38 -62h-1h-1h-1h-1h-1h-1h-1h-1h-1h-1h-2h-1h-1h-2h-1h-1h-2h-1h-2h-2h-1h-2h-2h-1h-2h-2h-2h-2h-2h-2h-2h-10q7 66 29.5 96.5t67.5 30.5
q34 0 86 -35t67 -35q29 0 37 62h1h1h1h1h1h1h1h1h1h1h1h1h1h2h1h1h2h1h1h2h2h1h2h1h2h2h1h2h2h2h2h2h2h2h8z" />
    <glyph glyph-name="Ograve" unicode="&#xd2;" horiz-adv-x="720" 
d="M674 315q0 -141 -88.5 -235.5t-225.5 -94.5q-139 0 -226.5 89.5t-87.5 236.5q0 141 88.5 235t225.5 94q139 0 226.5 -89t87.5 -236zM589 311q0 115 -64 184t-167 69q-100 0 -163 -68.5t-63 -180.5q0 -115 63.5 -184.5t166.5 -69.5q100 0 163.5 69t63.5 181zM400 687h-60
l-146 181h100z" />
    <glyph glyph-name="Oacute" unicode="&#xd3;" horiz-adv-x="720" 
d="M674 315q0 -141 -88.5 -235.5t-225.5 -94.5q-139 0 -226.5 89.5t-87.5 236.5q0 141 88.5 235t225.5 94q139 0 226.5 -89t87.5 -236zM589 311q0 115 -64 184t-167 69q-100 0 -163 -68.5t-63 -180.5q0 -115 63.5 -184.5t166.5 -69.5q100 0 163.5 69t63.5 181zM532 868
l-146 -181h-60l106 181h100z" />
    <glyph glyph-name="Ocircumflex" unicode="&#xd4;" horiz-adv-x="720" 
d="M674 315q0 -141 -88.5 -235.5t-225.5 -94.5q-139 0 -226.5 89.5t-87.5 236.5q0 141 88.5 235t225.5 94q139 0 226.5 -89t87.5 -236zM589 311q0 115 -64 184t-167 69q-100 0 -163 -68.5t-63 -180.5q0 -115 63.5 -184.5t166.5 -69.5q100 0 163.5 69t63.5 181zM522 687h-60
l-98 127h-1l-99 -127h-60l115 187h88z" />
    <glyph glyph-name="Otilde" unicode="&#xd5;" horiz-adv-x="720" 
d="M674 315q0 -141 -88.5 -235.5t-225.5 -94.5q-139 0 -226.5 89.5t-87.5 236.5q0 141 88.5 235t225.5 94q139 0 226.5 -89t87.5 -236zM589 311q0 115 -64 184t-167 69q-100 0 -163 -68.5t-63 -180.5q0 -115 63.5 -184.5t166.5 -69.5q100 0 163.5 69t63.5 181zM534 816
q-7 -65 -29.5 -95.5t-67.5 -30.5q-34 0 -86 34.5t-67 34.5q-29 0 -38 -62h-1h-1h-1h-1h-1h-1h-1h-1h-1h-1h-2h-1h-1h-2h-1h-1h-2h-1h-2h-2h-1h-2h-2h-1h-2h-2h-2h-2h-2h-2h-2h-10q7 66 29.5 96.5t67.5 30.5q34 0 86 -35t67 -35q29 0 37 62h1h1h1h1h1h1h1h1h1h1h1h1h1h2h1h1
h2h1h1h2h2h1h2h1h2h2h1h2h2h2h2h2h2h2h8z" />
    <glyph glyph-name="Odieresis" unicode="&#xd6;" horiz-adv-x="720" 
d="M674 315q0 -141 -88.5 -235.5t-225.5 -94.5q-139 0 -226.5 89.5t-87.5 236.5q0 141 88.5 235t225.5 94q139 0 226.5 -89t87.5 -236zM589 311q0 115 -64 184t-167 69q-100 0 -163 -68.5t-63 -180.5q0 -115 63.5 -184.5t166.5 -69.5q100 0 163.5 69t63.5 181zM525 754
q0 -26 -17 -44.5t-43 -18.5t-43 18.5t-17 44.5t17 44t43 18t43 -18t17 -44zM321 754q0 -26 -17.5 -44.5t-43.5 -18.5t-43 18.5t-17 44.5q0 25 17 43.5t43 18.5t43.5 -18.5t17.5 -43.5z" />
    <glyph glyph-name="multiply" unicode="&#xd7;" horiz-adv-x="484" 
d="M450 77l-48 -48l-157 159l-157 -159l-48 48l159 157l-159 157l48 48l157 -159l157 159l48 -48l-159 -157z" />
    <glyph glyph-name="Oslash" unicode="&#xd8;" horiz-adv-x="720" 
d="M677 315q0 -141 -88.5 -235.5t-225.5 -94.5q-74 0 -140 29l-46 -81h-64l62 108q-60 43 -93 112.5t-33 157.5q0 141 88.5 235t225.5 94q72 0 140 -29l47 81h64l-62 -108q125 -91 125 -269zM464 542q-45 22 -103 22q-100 0 -163.5 -68.5t-63.5 -180.5q0 -131 82 -202z
M510 512l-248 -429q45 -22 103 -22q100 0 163 69t63 181q0 131 -81 201z" />
    <glyph glyph-name="Ugrave" unicode="&#xd9;" horiz-adv-x="646" 
d="M568 241q0 -121 -62.5 -188.5t-183.5 -67.5q-116 0 -180 66.5t-64 180.5v393h84v-380q0 -86 41.5 -133t123.5 -47q74 0 115.5 44t41.5 130v1v1v1v1v1v1v1v1v1v1v1v1v1v1v1v1v1v1v1v1v1v1v1v1v1v1v1v1v1v1v1v1v1v1v1v1v1v1v1v1v1v1v1v1v1v1v1v1v1v1v1v1v1v1v1v1v1v1v1v1v1
v1v1v1v1v1v1v2v1v1v1v1v1v1v1v1v1v1v1v2v1v1v1v1v1v1v1v2v1v1v1v1v1v2v1v1v1v1v2v1v1v1v2v1v1v1v2v1v1v1v2v1v1v1v2v1v1v2v1v1v2v1v1v2v1v1v2v1v1v2v1v1v2v1v1v2v1v2v1v1v2v1v2v1v1v2v1v2v1v2v1v1v2v1v2v1v2v1v2v1v2v1v2v1v2v1v2v1v2v1v2v1v2v1v2v1v2v1v2v2v1v2v1v2v1v2v2v1
v2v1v2v1v2v2v1v2v2v1v2v1v2v2v1v2v2v1v2v2v1v2v2v1v2v2v1v2v2v1v2v2v1v2v2v2v1v2v2v1v2v2v2v1v2v2v2v1v2v2v2v1v2v2v2v1v2v2v2v2v1v2v2v2v2v2v1v2v2v2v2v1v2v2v2v2v2v2v1v2v2v2v2v2v2v9h84v-384zM372 687h-60l-146 181h100z" />
    <glyph glyph-name="Uacute" unicode="&#xda;" horiz-adv-x="646" 
d="M568 241q0 -121 -62.5 -188.5t-183.5 -67.5q-116 0 -180 66.5t-64 180.5v393h84v-380q0 -86 41.5 -133t123.5 -47q74 0 115.5 44t41.5 130v1v1v1v1v1v1v1v1v1v1v1v1v1v1v1v1v1v1v1v1v1v1v1v1v1v1v1v1v1v1v1v1v1v1v1v1v1v1v1v1v1v1v1v1v1v1v1v1v1v1v1v1v1v1v1v1v1v1v1v1v1
v1v1v1v1v1v1v2v1v1v1v1v1v1v1v1v1v1v1v2v1v1v1v1v1v1v1v2v1v1v1v1v1v2v1v1v1v1v2v1v1v1v2v1v1v1v2v1v1v1v2v1v1v1v2v1v1v2v1v1v2v1v1v2v1v1v2v1v1v2v1v1v2v1v1v2v1v2v1v1v2v1v2v1v1v2v1v2v1v2v1v1v2v1v2v1v2v1v2v1v2v1v2v1v2v1v2v1v2v1v2v1v2v1v2v1v2v1v2v2v1v2v1v2v1v2v2v1
v2v1v2v1v2v2v1v2v2v1v2v1v2v2v1v2v2v1v2v2v1v2v2v1v2v2v1v2v2v1v2v2v1v2v2v2v1v2v2v1v2v2v2v1v2v2v2v1v2v2v2v1v2v2v2v1v2v2v2v2v1v2v2v2v2v2v1v2v2v2v2v1v2v2v2v2v2v2v1v2v2v2v2v2v2v9h84v-384zM484 868l-146 -181h-60l106 181h100z" />
    <glyph glyph-name="Ucircumflex" unicode="&#xdb;" horiz-adv-x="646" 
d="M568 241q0 -121 -62.5 -188.5t-183.5 -67.5q-116 0 -180 66.5t-64 180.5v393h84v-380q0 -86 41.5 -133t123.5 -47q74 0 115.5 44t41.5 130v1v1v1v1v1v1v1v1v1v1v1v1v1v1v1v1v1v1v1v1v1v1v1v1v1v1v1v1v1v1v1v1v1v1v1v1v1v1v1v1v1v1v1v1v1v1v1v1v1v1v1v1v1v1v1v1v1v1v1v1v1
v1v1v1v1v1v1v2v1v1v1v1v1v1v1v1v1v1v1v2v1v1v1v1v1v1v1v2v1v1v1v1v1v2v1v1v1v1v2v1v1v1v2v1v1v1v2v1v1v1v2v1v1v1v2v1v1v2v1v1v2v1v1v2v1v1v2v1v1v2v1v1v2v1v1v2v1v2v1v1v2v1v2v1v1v2v1v2v1v2v1v1v2v1v2v1v2v1v2v1v2v1v2v1v2v1v2v1v2v1v2v1v2v1v2v1v2v1v2v2v1v2v1v2v1v2v2v1
v2v1v2v1v2v2v1v2v2v1v2v1v2v2v1v2v2v1v2v2v1v2v2v1v2v2v1v2v2v1v2v2v1v2v2v2v1v2v2v1v2v2v2v1v2v2v2v1v2v2v2v1v2v2v2v1v2v2v2v2v1v2v2v2v2v2v1v2v2v2v2v1v2v2v2v2v2v2v1v2v2v2v2v2v2v9h84v-384zM484 687h-60l-98 127h-1l-99 -127h-60l115 187h88z" />
    <glyph glyph-name="Udieresis" unicode="&#xdc;" horiz-adv-x="646" 
d="M568 241q0 -121 -62.5 -188.5t-183.5 -67.5q-116 0 -180 66.5t-64 180.5v393h84v-380q0 -86 41.5 -133t123.5 -47q74 0 115.5 44t41.5 130v1v1v1v1v1v1v1v1v1v1v1v1v1v1v1v1v1v1v1v1v1v1v1v1v1v1v1v1v1v1v1v1v1v1v1v1v1v1v1v1v1v1v1v1v1v1v1v1v1v1v1v1v1v1v1v1v1v1v1v1v1
v1v1v1v1v1v1v2v1v1v1v1v1v1v1v1v1v1v1v2v1v1v1v1v1v1v1v2v1v1v1v1v1v2v1v1v1v1v2v1v1v1v2v1v1v1v2v1v1v1v2v1v1v1v2v1v1v2v1v1v2v1v1v2v1v1v2v1v1v2v1v1v2v1v1v2v1v2v1v1v2v1v2v1v1v2v1v2v1v2v1v1v2v1v2v1v2v1v2v1v2v1v2v1v2v1v2v1v2v1v2v1v2v1v2v1v2v1v2v2v1v2v1v2v1v2v2v1
v2v1v2v1v2v2v1v2v2v1v2v1v2v2v1v2v2v1v2v2v1v2v2v1v2v2v1v2v2v1v2v2v1v2v2v2v1v2v2v1v2v2v2v1v2v2v2v1v2v2v2v1v2v2v2v1v2v2v2v2v1v2v2v2v2v2v1v2v2v2v2v1v2v2v2v2v2v2v1v2v2v2v2v2v2v9h84v-384zM487 754q0 -26 -17 -44.5t-43 -18.5t-43 18.5t-17 44.5t17 44t43 18t43 -18
t17 -44zM283 754q0 -26 -17.5 -44.5t-43.5 -18.5t-43 18.5t-17 44.5q0 25 17 43.5t43 18.5t43.5 -18.5t17.5 -43.5z" />
    <glyph glyph-name="Yacute" unicode="&#xdd;" horiz-adv-x="540" 
d="M530 625l-217 -377v-248h-85v249l-218 376h96l166 -292l164 292h94zM441 868l-146 -181h-60l106 181h100z" />
    <glyph glyph-name="Thorn" unicode="&#xde;" horiz-adv-x="531" 
d="M500 321q0 -104 -67.5 -158.5t-186.5 -56.5l-82 -1v-105h-85v625h85v-102h88q123 0 185.5 -55t62.5 -147zM414 317q0 127 -166 127h-84v-259l91 2q78 1 118.5 35t40.5 95z" />
    <glyph glyph-name="germandbls" unicode="&#xdf;" horiz-adv-x="580" 
d="M88 0v383l-80 6l4 52l75 22v4.5v10t0.5 14t0.5 13v9.5t0 2q1 94 51.5 137t129.5 43q76 0 125 -44t49 -112q0 -36 -21.5 -67t-42.5 -54t-21 -39q0 -29 20 -50.5t49 -37.5t57.5 -34t48.5 -49.5t20 -75.5q0 -68 -45.5 -108.5t-122.5 -40.5q-76 0 -145 43l21 75
q67 -46 125 -46q41 0 63 18t22 50q0 31 -20 53.5t-48.5 37.5t-57 32t-48.5 46t-20 70q0 28 12.5 51.5t27 38t27 36t12.5 46.5q0 39 -24.5 64t-63.5 25q-47 0 -72.5 -26.5t-25.5 -75.5v-522h-82z" />
    <glyph glyph-name="agrave" unicode="&#xe0;" horiz-adv-x="451" 
d="M306 104v124q-102 -13 -144 -36.5t-42 -65.5q0 -31 22 -51t59 -20q59 0 105 49zM309 49h-4q-55 -64 -126 -64q-64 0 -105 37.5t-41 93.5q0 151 273 164v13q0 56 -24 80t-79 24q-72 0 -148 -51l-16 74q76 53 172 53q93 0 135.5 -42.5t41.5 -135.5v-192q0 -29 7.5 -37
t37.5 -8l-5 -69q-99 -8 -119 60zM251 520h-60l-146 181h100z" />
    <glyph glyph-name="aacute" unicode="&#xe1;" horiz-adv-x="451" 
d="M306 104v124q-102 -13 -144 -36.5t-42 -65.5q0 -31 22 -51t59 -20q59 0 105 49zM309 49h-4q-55 -64 -126 -64q-64 0 -105 37.5t-41 93.5q0 151 273 164v13q0 56 -24 80t-79 24q-72 0 -148 -51l-16 74q76 53 172 53q93 0 135.5 -42.5t41.5 -135.5v-192q0 -29 7.5 -37
t37.5 -8l-5 -69q-99 -8 -119 60zM373 701l-146 -181h-60l106 181h100z" />
    <glyph glyph-name="acircumflex" unicode="&#xe2;" horiz-adv-x="451" 
d="M306 104v124q-102 -13 -144 -36.5t-42 -65.5q0 -31 22 -51t59 -20q59 0 105 49zM309 49h-4q-55 -64 -126 -64q-64 0 -105 37.5t-41 93.5q0 151 273 164v13q0 56 -24 80t-79 24q-72 0 -148 -51l-16 74q76 53 172 53q93 0 135.5 -42.5t41.5 -135.5v-192q0 -29 7.5 -37
t37.5 -8l-5 -69q-99 -8 -119 60zM373 520h-60l-98 127h-1l-99 -127h-60l115 187h88z" />
    <glyph glyph-name="atilde" unicode="&#xe3;" horiz-adv-x="451" 
d="M306 104v124q-102 -13 -144 -36.5t-42 -65.5q0 -31 22 -51t59 -20q59 0 105 49zM309 49h-4q-55 -64 -126 -64q-64 0 -105 37.5t-41 93.5q0 151 273 164v13q0 56 -24 80t-79 24q-72 0 -148 -51l-16 74q76 53 172 53q93 0 135.5 -42.5t41.5 -135.5v-192q0 -29 7.5 -37
t37.5 -8l-5 -69q-99 -8 -119 60zM385 649q-7 -65 -29.5 -95.5t-67.5 -30.5q-34 0 -86 34.5t-67 34.5q-29 0 -38 -62h-1h-1h-1h-1h-1h-1h-1h-1h-1h-1h-2h-1h-1h-2h-1h-1h-2h-1h-2h-2h-1h-2h-2h-1h-2h-2h-2h-2h-2h-2h-2h-10q7 66 29.5 96.5t67.5 30.5q34 0 86 -35t67 -35
q29 0 37 62h1h1h1h1h1h1h1h1h1h1h1h1h1h2h1h1h2h1h1h2h2h1h2h1h2h2h1h2h2h2h2h2h2h2h8z" />
    <glyph glyph-name="adieresis" unicode="&#xe4;" horiz-adv-x="451" 
d="M306 104v124q-102 -13 -144 -36.5t-42 -65.5q0 -31 22 -51t59 -20q59 0 105 49zM309 49h-4q-55 -64 -126 -64q-64 0 -105 37.5t-41 93.5q0 151 273 164v13q0 56 -24 80t-79 24q-72 0 -148 -51l-16 74q76 53 172 53q93 0 135.5 -42.5t41.5 -135.5v-192q0 -29 7.5 -37
t37.5 -8l-5 -69q-99 -8 -119 60zM376 587q0 -26 -17 -44.5t-43 -18.5t-43 18.5t-17 44.5t17 44t43 18t43 -18t17 -44zM172 587q0 -26 -17.5 -44.5t-43.5 -18.5t-43 18.5t-17 44.5q0 25 17 43.5t43 18.5t43.5 -18.5t17.5 -43.5z" />
    <glyph glyph-name="aring" unicode="&#xe5;" horiz-adv-x="451" 
d="M306 104v124q-102 -13 -144 -36.5t-42 -65.5q0 -31 22 -51t59 -20q59 0 105 49zM309 49h-4q-55 -64 -126 -64q-64 0 -105 37.5t-41 93.5q0 151 273 164v13q0 56 -24 80t-79 24q-72 0 -148 -51l-16 74q76 53 172 53q93 0 135.5 -42.5t41.5 -135.5v-192q0 -29 7.5 -37
t37.5 -8l-5 -69q-99 -8 -119 60zM338 631q1 -46 -33.5 -77.5t-90.5 -31.5t-90 31.5t-34 77.5q0 47 34 78.5t90 31.5t89.5 -31.5t34.5 -78.5zM286 632q0 28 -19.5 47t-52.5 19q-32 0 -51.5 -19t-19.5 -47t19.5 -47.5t51.5 -19.5q33 0 52.5 19.5t19.5 47.5z" />
    <glyph glyph-name="ae" unicode="&#xe6;" horiz-adv-x="754" 
d="M354 79q-27 -41 -72 -67.5t-103 -26.5q-64 0 -105 37.5t-41 93.5q0 154 283 164v10q0 59 -27.5 83t-85.5 24q-72 0 -148 -51l-16 74q76 53 172 53q124 0 161 -77q60 77 167 77q82 0 128.5 -48t46.5 -131q0 -40 -10 -73l-308 -2v-4q2 -68 43.5 -111t107.5 -43q81 0 137 38
l15 -76q-62 -38 -154 -38q-125 0 -191 94zM400 279l235 2v7q0 53 -26 83t-78 30q-55 0 -90 -36.5t-41 -85.5zM316 228q-105 -10 -150.5 -34.5t-45.5 -67.5q0 -32 23 -51.5t63 -19.5q33 0 69 19.5t56 46.5q-5 14 -10 51t-5 56z" />
    <glyph glyph-name="ccedilla" unicode="&#xe7;" horiz-adv-x="456" 
d="M241 -68q58 0 90.5 -22t32.5 -60q0 -90 -164 -111l-6 52q106 6 106 54q0 53 -120 34l-8 42l66 65q-94 9 -145.5 74t-51.5 169q0 109 65 176.5t166 67.5q85 0 148 -39l-21 -75q-56 38 -127 38q-70 0 -108 -44.5t-38 -122.5q0 -79 39.5 -124t104.5 -45q76 0 132 38l15 -76
q-50 -31 -121 -37z" />
    <glyph glyph-name="egrave" unicode="&#xe8;" horiz-adv-x="480" 
d="M124 219v-4q2 -68 43.5 -111t107.5 -43q81 0 137 38l15 -76q-62 -38 -154 -38q-103 0 -167.5 67t-64.5 172q0 110 64.5 179.5t161.5 69.5q82 0 128.5 -48t46.5 -131q0 -40 -10 -73zM128 279l235 2v7q0 53 -26 83t-78 30q-55 0 -90 -36.5t-41 -85.5zM293 520h-60l-146 181
h100z" />
    <glyph glyph-name="eacute" unicode="&#xe9;" horiz-adv-x="480" 
d="M124 219v-4q2 -68 43.5 -111t107.5 -43q81 0 137 38l15 -76q-62 -38 -154 -38q-103 0 -167.5 67t-64.5 172q0 110 64.5 179.5t161.5 69.5q82 0 128.5 -48t46.5 -131q0 -40 -10 -73zM128 279l235 2v7q0 53 -26 83t-78 30q-55 0 -90 -36.5t-41 -85.5zM415 701l-146 -181
h-60l106 181h100z" />
    <glyph glyph-name="ecircumflex" unicode="&#xea;" horiz-adv-x="480" 
d="M124 219v-4q2 -68 43.5 -111t107.5 -43q81 0 137 38l15 -76q-62 -38 -154 -38q-103 0 -167.5 67t-64.5 172q0 110 64.5 179.5t161.5 69.5q82 0 128.5 -48t46.5 -131q0 -40 -10 -73zM128 279l235 2v7q0 53 -26 83t-78 30q-55 0 -90 -36.5t-41 -85.5zM395 520h-60l-98 127
h-1l-99 -127h-60l115 187h88z" />
    <glyph glyph-name="edieresis" unicode="&#xeb;" horiz-adv-x="480" 
d="M124 219v-4q2 -68 43.5 -111t107.5 -43q81 0 137 38l15 -76q-62 -38 -154 -38q-103 0 -167.5 67t-64.5 172q0 110 64.5 179.5t161.5 69.5q82 0 128.5 -48t46.5 -131q0 -40 -10 -73zM128 279l235 2v7q0 53 -26 83t-78 30q-55 0 -90 -36.5t-41 -85.5zM403 587
q0 -26 -17 -44.5t-43 -18.5t-43 18.5t-17 44.5t17 44t43 18t43 -18t17 -44zM199 587q0 -26 -17.5 -44.5t-43.5 -18.5t-43 18.5t-17 44.5q0 25 17 43.5t43 18.5t43.5 -18.5t17.5 -43.5z" />
    <glyph glyph-name="igrave" unicode="&#xec;" horiz-adv-x="224" 
d="M156 0h-82v451l82 13v-464zM152 520h-60l-146 181h100z" />
    <glyph glyph-name="iacute" unicode="&#xed;" horiz-adv-x="224" 
d="M156 0h-82v451l82 13v-464zM284 701l-146 -181h-60l106 181h100z" />
    <glyph glyph-name="icircumflex" unicode="&#xee;" horiz-adv-x="224" 
d="M156 0h-82v451l82 13v-464zM274 520h-60l-98 127h-1l-99 -127h-60l115 187h88z" />
    <glyph glyph-name="idieresis" unicode="&#xef;" horiz-adv-x="224" 
d="M156 0h-82v451l82 13v-464zM277 587q0 -26 -17 -44.5t-43 -18.5t-43 18.5t-17 44.5t17 44t43 18t43 -18t17 -44zM73 587q0 -26 -17.5 -44.5t-43.5 -18.5t-43 18.5t-17 44.5q0 25 17 43.5t43 18.5t43.5 -18.5t17.5 -43.5z" />
    <glyph glyph-name="eth" unicode="&#xf0;" horiz-adv-x="534" 
d="M493 243q0 -114 -59 -186t-166 -72q-101 0 -164 62.5t-63 157.5q0 103 62.5 166t136.5 63q90 0 146 -68l2 1q-26 71 -144 191l-103 -28l-14 55l70 19q-45 44 -79 70l93 22q43 -35 75 -67l103 27l14 -55l-72 -19q162 -179 162 -339zM412 224q0 47 -18 87q-14 22 -52.5 36
t-84.5 14q-53 0 -90.5 -39.5t-37.5 -104.5q0 -74 39 -116t103 -42q63 0 102 43.5t39 121.5z" />
    <glyph glyph-name="ntilde" unicode="&#xf1;" horiz-adv-x="517" 
d="M450 0h-82v288q0 58 -22.5 82t-72.5 24q-68 0 -120 -50v-344h-82v460l82 13v-69q69 69 149 69q70 0 109 -42t39 -116v-315zM432 649q-7 -65 -29.5 -95.5t-67.5 -30.5q-34 0 -86 34.5t-67 34.5q-29 0 -38 -62h-1h-1h-1h-1h-1h-1h-1h-1h-1h-1h-2h-1h-1h-2h-1h-1h-2h-1h-2
h-2h-1h-2h-2h-1h-2h-2h-2h-2h-2h-2h-2h-10q7 66 29.5 96.5t67.5 30.5q34 0 86 -35t67 -35q29 0 37 62h1h1h1h1h1h1h1h1h1h1h1h1h1h2h1h1h2h1h1h2h2h1h2h1h2h2h1h2h2h2h2h2h2h2h8z" />
    <glyph glyph-name="ograve" unicode="&#xf2;" horiz-adv-x="528" 
d="M487 229q0 -109 -63.5 -176.5t-161.5 -67.5t-159.5 67t-61.5 177t63 177.5t163 67.5q99 0 159.5 -67t60.5 -178zM406 228q0 75 -38.5 123.5t-104.5 48.5q-67 0 -104 -47t-37 -123q0 -75 38.5 -123t104.5 -48q67 0 104 46.5t37 122.5zM324 520h-60l-146 181h100z" />
    <glyph glyph-name="oacute" unicode="&#xf3;" horiz-adv-x="528" 
d="M487 229q0 -109 -63.5 -176.5t-161.5 -67.5t-159.5 67t-61.5 177t63 177.5t163 67.5q99 0 159.5 -67t60.5 -178zM406 228q0 75 -38.5 123.5t-104.5 48.5q-67 0 -104 -47t-37 -123q0 -75 38.5 -123t104.5 -48q67 0 104 46.5t37 122.5zM416 701l-146 -181h-60l106 181h100z
" />
    <glyph glyph-name="ocircumflex" unicode="&#xf4;" horiz-adv-x="528" 
d="M487 229q0 -109 -63.5 -176.5t-161.5 -67.5t-159.5 67t-61.5 177t63 177.5t163 67.5q99 0 159.5 -67t60.5 -178zM406 228q0 75 -38.5 123.5t-104.5 48.5q-67 0 -104 -47t-37 -123q0 -75 38.5 -123t104.5 -48q67 0 104 46.5t37 122.5zM426 520h-60l-98 127h-1l-99 -127
h-60l115 187h88z" />
    <glyph glyph-name="otilde" unicode="&#xf5;" horiz-adv-x="528" 
d="M487 229q0 -109 -63.5 -176.5t-161.5 -67.5t-159.5 67t-61.5 177t63 177.5t163 67.5q99 0 159.5 -67t60.5 -178zM406 228q0 75 -38.5 123.5t-104.5 48.5q-67 0 -104 -47t-37 -123q0 -75 38.5 -123t104.5 -48q67 0 104 46.5t37 122.5zM438 649q-7 -65 -29.5 -95.5
t-67.5 -30.5q-34 0 -86 34.5t-67 34.5q-29 0 -38 -62h-1h-1h-1h-1h-1h-1h-1h-1h-1h-1h-2h-1h-1h-2h-1h-1h-2h-1h-2h-2h-1h-2h-2h-1h-2h-2h-2h-2h-2h-2h-2h-10q7 66 29.5 96.5t67.5 30.5q34 0 86 -35t67 -35q29 0 37 62h1h1h1h1h1h1h1h1h1h1h1h1h1h2h1h1h2h1h1h2h2h1h2h1h2h2
h1h2h2h2h2h2h2h2h8z" />
    <glyph glyph-name="odieresis" unicode="&#xf6;" horiz-adv-x="528" 
d="M487 229q0 -109 -63.5 -176.5t-161.5 -67.5t-159.5 67t-61.5 177t63 177.5t163 67.5q99 0 159.5 -67t60.5 -178zM406 228q0 75 -38.5 123.5t-104.5 48.5q-67 0 -104 -47t-37 -123q0 -75 38.5 -123t104.5 -48q67 0 104 46.5t37 122.5zM429 587q0 -26 -17 -44.5t-43 -18.5
t-43 18.5t-17 44.5t17 44t43 18t43 -18t17 -44zM225 587q0 -26 -17.5 -44.5t-43.5 -18.5t-43 18.5t-17 44.5q0 25 17 43.5t43 18.5t43.5 -18.5t17.5 -43.5z" />
    <glyph glyph-name="divide" unicode="&#xf7;" horiz-adv-x="484" 
d="M446 199h-406l3 71h400zM311 82q0 -27 -19 -47t-47 -20q-29 0 -48.5 20t-19.5 47t19.5 46t48.5 19t47.5 -19t18.5 -46zM311 387q0 -27 -19.5 -46t-48.5 -19t-47.5 19t-18.5 46t19 47t47 20q29 0 48.5 -20t19.5 -47z" />
    <glyph glyph-name="oslash" unicode="&#xf8;" horiz-adv-x="528" 
d="M490 229q0 -109 -63.5 -176.5t-161.5 -67.5q-50 0 -94 19l-41 -71h-66q4 6 10 17t19 33t21 37l8 15q-78 67 -78 194q0 110 63 177.5t163 67.5q50 0 94 -19l41 71h66l-59 -102q78 -68 78 -195zM326 388q-26 12 -60 12q-67 0 -104 -47t-37 -123q0 -80 37 -126zM409 228
q0 80 -37 126l-163 -284q27 -11 59 -11q67 0 104 46.5t37 122.5z" />
    <glyph glyph-name="ugrave" unicode="&#xf9;" horiz-adv-x="517" 
d="M67 458h82v-288q0 -58 22 -82t68 -24q73 0 125 50v344h82v-460l-82 -13v67q-67 -67 -154 -67q-66 0 -104.5 42t-38.5 116v315zM308 520h-60l-146 181h100z" />
    <glyph glyph-name="uacute" unicode="&#xfa;" horiz-adv-x="517" 
d="M67 458h82v-288q0 -58 22 -82t68 -24q73 0 125 50v344h82v-460l-82 -13v67q-67 -67 -154 -67q-66 0 -104.5 42t-38.5 116v315zM420 701l-146 -181h-60l106 181h100z" />
    <glyph glyph-name="ucircumflex" unicode="&#xfb;" horiz-adv-x="517" 
d="M67 458h82v-288q0 -58 22 -82t68 -24q73 0 125 50v344h82v-460l-82 -13v67q-67 -67 -154 -67q-66 0 -104.5 42t-38.5 116v315zM420 520h-60l-98 127h-1l-99 -127h-60l115 187h88z" />
    <glyph glyph-name="udieresis" unicode="&#xfc;" horiz-adv-x="517" 
d="M67 458h82v-288q0 -58 22 -82t68 -24q73 0 125 50v344h82v-460l-82 -13v67q-67 -67 -154 -67q-66 0 -104.5 42t-38.5 116v315zM418 587q0 -26 -17 -44.5t-43 -18.5t-43 18.5t-17 44.5t17 44t43 18t43 -18t17 -44zM214 587q0 -26 -17.5 -44.5t-43.5 -18.5t-43 18.5
t-17 44.5q0 25 17 43.5t43 18.5t43.5 -18.5t17.5 -43.5z" />
    <glyph glyph-name="yacute" unicode="&#xfd;" horiz-adv-x="441" 
d="M439 458l-183 -463l-31 -82q-32 -85 -69 -118t-92 -33q-44 0 -97 24l24 76q44 -22 73 -22q27 0 46.5 20.5t41.5 78.5l28 71l-178 448h88l133 -356l129 356h87zM392 701l-146 -181h-60l106 181h100z" />
    <glyph glyph-name="thorn" unicode="&#xfe;" horiz-adv-x="520" 
d="M153 -3v-243h-82v920l82 13v-266q66 52 123 52q98 0 153.5 -67.5t55.5 -174.5q0 -105 -65.5 -175.5t-167.5 -70.5q-56 0 -99 12zM153 353v-1v-1v-1v-1v-1v-1v-1v-1v-1v-1v-1v-1v-1v-1v-1v-1v-1v-1v-1v-1v-1v-1v-1v-1v-1v-1v-1v-1v-1v-1v-1v-1v-1v-1v-1v-1v-1v-1v-1v-1v-1
v-1v-1v-1v-1v-1v-1v-1v-1v-1v-1v-1v-1v-1v-1v-2v-1v-1v-1v-1v-1v-2v-1v-1v-1v-1v-1v-2v-1v-1v-1v-2v-1v-1v-1v-2v-1v-1v-2v-1v-1v-1v-2v-1v-1v-2v-1v-1v-2v-1v-2v-1v-1v-2v-1v-1v-2v-1v-2v-1v-2v-1v-1v-2v-1v-2v-1v-2v-1v-2v-1v-2v-1v-2v-1v-2v-1v-2v-1v-2v-1v-2v-2v-1v-2
v-1v-2v-1v-2v-2v-1v-2v-1v-2v-2v-1v-2v-1v-2v-2v-1v-2v-2v-1v-2v-2v-1v-2v-2v-2v-1v-2v-2v-1v-2v-2v-2v-1v-2v-2v-2v-1v-2v-2v-2v-1v-2v-2v-2v-2v-1v-2v-2v-2v-2v-1v-2v-2v-2v-2v-2v-1v-2v-2v-9q41 -33 102 -33q68 0 106.5 48.5t38.5 121.5q0 76 -36.5 122t-99.5 46
q-60 0 -111 -44z" />
    <glyph glyph-name="ydieresis" unicode="&#xff;" horiz-adv-x="441" 
d="M439 458l-183 -463l-31 -82q-32 -85 -69 -118t-92 -33q-44 0 -97 24l24 76q44 -22 73 -22q27 0 46.5 20.5t41.5 78.5l28 71l-178 448h88l133 -356l129 356h87zM385 587q0 -26 -17 -44.5t-43 -18.5t-43 18.5t-17 44.5t17 44t43 18t43 -18t17 -44zM181 587
q0 -26 -17.5 -44.5t-43.5 -18.5t-43 18.5t-17 44.5q0 25 17 43.5t43 18.5t43.5 -18.5t17.5 -43.5z" />
    <glyph glyph-name="Amacron" unicode="&#x100;" horiz-adv-x="574" 
d="M337 625l232 -625h-87l-59 164h-271l-59 -164h-88l235 625h97zM395 241l-107 296l-108 -296h215zM425 705h-275l4 53h266z" />
    <glyph glyph-name="amacron" unicode="&#x101;" horiz-adv-x="451" 
d="M306 104v124q-102 -13 -144 -36.5t-42 -65.5q0 -31 22 -51t59 -20q59 0 105 49zM309 49h-4q-55 -64 -126 -64q-64 0 -105 37.5t-41 93.5q0 151 273 164v13q0 56 -24 80t-79 24q-72 0 -148 -51l-16 74q76 53 172 53q93 0 135.5 -42.5t41.5 -135.5v-192q0 -29 7.5 -37
t37.5 -8l-5 -69q-99 -8 -119 60zM351 538h-275l4 53h266z" />
    <glyph glyph-name="Abreve" unicode="&#x102;" horiz-adv-x="574" 
d="M337 625l232 -625h-87l-59 164h-271l-59 -164h-88l235 625h97zM395 241l-107 296l-108 -296h215zM448 873q-11 -85 -51 -136t-109 -51t-109 51t-51 136h67q22 -122 93 -122q37 0 60.5 34t32.5 88h67z" />
    <glyph glyph-name="abreve" unicode="&#x103;" horiz-adv-x="451" 
d="M306 104v124q-102 -13 -144 -36.5t-42 -65.5q0 -31 22 -51t59 -20q59 0 105 49zM309 49h-4q-55 -64 -126 -64q-64 0 -105 37.5t-41 93.5q0 151 273 164v13q0 56 -24 80t-79 24q-72 0 -148 -51l-16 74q76 53 172 53q93 0 135.5 -42.5t41.5 -135.5v-192q0 -29 7.5 -37
t37.5 -8l-5 -69q-99 -8 -119 60zM393 706q-11 -85 -51 -136t-109 -51t-109 51t-51 136h67q22 -122 93 -122q37 0 60.5 34t32.5 88h67z" />
    <glyph glyph-name="Aogonek" unicode="&#x104;" horiz-adv-x="574" 
d="M337 625l232 -625q-46 -10 -79 -37.5t-33 -57.5q0 -49 45 -49q30 0 51 16l18 -62q-38 -27 -90 -27q-47 0 -76.5 26t-29.5 70t32 77.5t74 44.5l-58 163h-271l-59 -164h-88l235 625h97zM395 241l-107 296l-108 -296h215z" />
    <glyph glyph-name="aogonek" unicode="&#x105;" horiz-adv-x="451" 
d="M309 49h-4q-55 -64 -126 -64q-64 0 -105 37.5t-41 93.5q0 151 273 164v13q0 56 -24 80t-79 24q-72 0 -148 -51l-16 74q76 53 172 53q93 0 135.5 -42.5t41.5 -135.5v-192q0 -29 7.5 -37t37.5 -8l-5 -69q-52 -2 -82.5 -23.5t-30.5 -60.5q0 -49 45 -49q30 0 51 16l18 -62
q-38 -27 -90 -27q-47 0 -76.5 26t-29.5 70q0 43 28 77.5t71 54.5q-17 15 -23 38zM306 104v124q-102 -13 -144 -36.5t-42 -65.5q0 -31 22 -51t59 -20q59 0 105 49z" />
    <glyph glyph-name="Cacute" unicode="&#x106;" horiz-adv-x="601" 
d="M557 588l-27 -77q-81 53 -171 53q-103 0 -165 -67t-62 -182q0 -116 63 -185t166 -69q98 0 177 61l14 -85q-83 -52 -193 -52q-139 0 -226 89t-87 237t87.5 238.5t225.5 90.5q115 0 198 -52zM462 868l-146 -181h-60l106 181h100z" />
    <glyph glyph-name="cacute" unicode="&#x107;" horiz-adv-x="456" 
d="M417 23q-62 -38 -151 -38q-107 0 -166 66.5t-59 177.5q0 109 65 176.5t166 67.5q85 0 148 -39l-21 -75q-56 38 -127 38q-70 0 -108 -44.5t-38 -122.5q0 -79 39.5 -124t104.5 -45q76 0 132 38zM387 701l-146 -181h-60l106 181h100z" />
    <glyph glyph-name="Ccircumflex" unicode="&#x108;" horiz-adv-x="601" 
d="M557 588l-27 -77q-81 53 -171 53q-103 0 -165 -67t-62 -182q0 -116 63 -185t166 -69q98 0 177 61l14 -85q-83 -52 -193 -52q-139 0 -226 89t-87 237t87.5 238.5t225.5 90.5q115 0 198 -52zM482 687h-60l-98 127h-1l-99 -127h-60l115 187h88z" />
    <glyph glyph-name="ccircumflex" unicode="&#x109;" horiz-adv-x="456" 
d="M417 23q-62 -38 -151 -38q-107 0 -166 66.5t-59 177.5q0 109 65 176.5t166 67.5q85 0 148 -39l-21 -75q-56 38 -127 38q-70 0 -108 -44.5t-38 -122.5q0 -79 39.5 -124t104.5 -45q76 0 132 38zM418 520h-60l-98 127h-1l-99 -127h-60l115 187h88z" />
    <glyph glyph-name="Cdotaccent" unicode="&#x10a;" horiz-adv-x="601" 
d="M557 588l-27 -77q-81 53 -171 53q-103 0 -165 -67t-62 -182q0 -116 63 -185t166 -69q98 0 177 61l14 -85q-83 -52 -193 -52q-139 0 -226 89t-87 237t87.5 238.5t225.5 90.5q115 0 198 -52zM396 752q0 -25 -16 -42.5t-42 -17.5q-25 0 -41 17.5t-16 42.5t16 43t41 18
q26 0 42 -18t16 -43z" />
    <glyph glyph-name="cdotaccent" unicode="&#x10b;" horiz-adv-x="456" 
d="M417 23q-62 -38 -151 -38q-107 0 -166 66.5t-59 177.5q0 109 65 176.5t166 67.5q85 0 148 -39l-21 -75q-56 38 -127 38q-70 0 -108 -44.5t-38 -122.5q0 -79 39.5 -124t104.5 -45q76 0 132 38zM328 585q0 -25 -16 -42.5t-42 -17.5q-25 0 -41 17.5t-16 42.5t16 43t41 18
q26 0 42 -18t16 -43z" />
    <glyph glyph-name="Ccaron" unicode="&#x10c;" horiz-adv-x="601" 
d="M557 588l-27 -77q-81 53 -171 53q-103 0 -165 -67t-62 -182q0 -116 63 -185t166 -69q98 0 177 61l14 -85q-83 -52 -193 -52q-139 0 -226 89t-87 237t87.5 238.5t225.5 90.5q115 0 198 -52zM482 874l-115 -187h-88l-115 187h60l98 -127h1l99 127h60z" />
    <glyph glyph-name="ccaron" unicode="&#x10d;" horiz-adv-x="456" 
d="M417 23q-62 -38 -151 -38q-107 0 -166 66.5t-59 177.5q0 109 65 176.5t166 67.5q85 0 148 -39l-21 -75q-56 38 -127 38q-70 0 -108 -44.5t-38 -122.5q0 -79 39.5 -124t104.5 -45q76 0 132 38zM416 707l-115 -187h-88l-115 187h60l98 -127h1l99 127h60z" />
    <glyph glyph-name="Dcaron" unicode="&#x10e;" horiz-adv-x="644" 
d="M598 317q0 -147 -88 -232t-247 -85h-184v625h188q154 0 242.5 -83.5t88.5 -224.5zM513 311q0 114 -65 174.5t-185 60.5h-99v-467h103q114 0 180 59.5t66 172.5zM446 874l-115 -187h-88l-115 187h60l98 -127h1l99 127h60z" />
    <glyph glyph-name="dcaron" unicode="&#x10f;" horiz-adv-x="745" 
d="M373 458v216l82 13v-687h-82v42q-61 -57 -128 -57q-95 0 -149.5 68t-54.5 174q0 105 65.5 175.5t167.5 70.5q51 0 99 -15zM373 366q-41 33 -102 33q-68 0 -106.5 -48.5t-38.5 -121.5q0 -76 36.5 -122t99.5 -46q60 0 111 44v1v1v1v1v1v1v1v1v1v1v1v1v1v1v1v1v1v1v1v1v1v1
v1v1v1v1v1v1v1v1v1v1v1v1v1v1v1v1v1v1v1v1v1v1v1v1v1v1v1v1v1v1v1v1v1v2v1v1v1v1v1v2v1v1v1v1v1v2v1v1v1v2v1v1v1v2v1v1v2v1v1v1v2v1v1v2v1v1v2v1v2v1v1v2v1v1v2v1v2v1v2v1v1v2v1v2v1v2v1v2v1v2v1v2v1v2v1v2v1v2v1v2v2v1v2v1v2v1v2v2v1v2v1v2v2v1v2v1v2v2v1v2v2v1v2v2v1v2v2
v2v1v2v2v1v2v2v2v1v2v2v2v1v2v2v2v1v2v2v2v2v1v2v2v2v2v1v2v2v2v2v2v1v2v2v9zM567 634q3 26 20.5 42.5t47.5 16.5q32 0 58.5 -26.5t26.5 -64.5q0 -97 -148 -195l-35 34q102 74 102 127q0 19 -15.5 33t-56.5 33z" />
    <glyph glyph-name="Dcroat" unicode="&#x110;" horiz-adv-x="659" 
d="M184 353h159v-73h-159v-201h103q114 0 180 59.5t66 172.5q0 114 -65 174.5t-185 60.5h-99v-193zM99 280h-83v73h83v272h188q154 0 242.5 -83.5t88.5 -224.5q0 -147 -88 -232t-247 -85h-184v280z" />
    <glyph glyph-name="dcroat" unicode="&#x111;" horiz-adv-x="526" 
d="M373 458v80h-109l5 53h104v83l82 13v-97l64 1l4 -53h-68v-538h-82v42q-61 -57 -128 -57q-95 0 -149.5 68t-54.5 174q0 105 65.5 175.5t167.5 70.5q51 0 99 -15zM373 366q-41 33 -102 33q-68 0 -106.5 -48.5t-38.5 -121.5q0 -76 36.5 -122t99.5 -46q60 0 111 44v261z" />
    <glyph glyph-name="Emacron" unicode="&#x112;" horiz-adv-x="523" 
d="M475 0h-396v625h396v-79h-311v-193h259v-79h-259v-195h311v-79zM413 705h-275l4 53h266z" />
    <glyph glyph-name="emacron" unicode="&#x113;" horiz-adv-x="480" 
d="M124 219v-4q2 -68 43.5 -111t107.5 -43q81 0 137 38l15 -76q-62 -38 -154 -38q-103 0 -167.5 67t-64.5 172q0 110 64.5 179.5t161.5 69.5q82 0 128.5 -48t46.5 -131q0 -40 -10 -73zM128 279l235 2v7q0 53 -26 83t-78 30q-55 0 -90 -36.5t-41 -85.5zM390 538h-275l4 53
h266z" />
    <glyph glyph-name="Ebreve" unicode="&#x114;" horiz-adv-x="523" 
d="M475 0h-396v625h396v-79h-311v-193h259v-79h-259v-195h311v-79zM448 873q-11 -85 -51 -136t-109 -51t-109 51t-51 136h67q22 -122 93 -122q37 0 60.5 34t32.5 88h67z" />
    <glyph glyph-name="ebreve" unicode="&#x115;" horiz-adv-x="480" 
d="M124 219v-4q2 -68 43.5 -111t107.5 -43q81 0 137 38l15 -76q-62 -38 -154 -38q-103 0 -167.5 67t-64.5 172q0 110 64.5 179.5t161.5 69.5q82 0 128.5 -48t46.5 -131q0 -40 -10 -73zM128 279l235 2v7q0 53 -26 83t-78 30q-55 0 -90 -36.5t-41 -85.5zM412 706
q-11 -85 -51 -136t-109 -51t-109 51t-51 136h67q22 -122 93 -122q37 0 60.5 34t32.5 88h67z" />
    <glyph glyph-name="Edotaccent" unicode="&#x116;" horiz-adv-x="523" 
d="M475 0h-396v625h396v-79h-311v-193h259v-79h-259v-195h311v-79zM339 752q0 -25 -16 -42.5t-42 -17.5q-25 0 -41 17.5t-16 42.5t16 43t41 18q26 0 42 -18t16 -43z" />
    <glyph glyph-name="edotaccent" unicode="&#x117;" horiz-adv-x="480" 
d="M124 219v-4q2 -68 43.5 -111t107.5 -43q81 0 137 38l15 -76q-62 -38 -154 -38q-103 0 -167.5 67t-64.5 172q0 110 64.5 179.5t161.5 69.5q82 0 128.5 -48t46.5 -131q0 -40 -10 -73zM128 279l235 2v7q0 53 -26 83t-78 30q-55 0 -90 -36.5t-41 -85.5zM311 585
q0 -25 -16 -42.5t-42 -17.5q-25 0 -41 17.5t-16 42.5t16 43t41 18q26 0 42 -18t16 -43z" />
    <glyph glyph-name="Eogonek" unicode="&#x118;" horiz-adv-x="523" 
d="M475 0h-54q-60 -45 -60 -95q0 -49 45 -49q30 0 51 16l18 -62q-38 -27 -90 -27q-47 0 -76.5 26t-29.5 70q0 73 79 121h-279v625h396v-79h-311v-193h259v-79h-259v-195h311v-79z" />
    <glyph glyph-name="eogonek" unicode="&#x119;" horiz-adv-x="480" 
d="M124 219v-4q2 -68 43.5 -111t107.5 -43q81 0 137 38l15 -76q-46 -13 -80.5 -46t-34.5 -72q0 -49 45 -49q30 0 51 16l18 -62q-38 -27 -90 -27q-47 0 -76.5 26t-29.5 70q0 62 58 106h-15q-103 0 -167.5 67t-64.5 172q0 110 64.5 179.5t161.5 69.5q82 0 128.5 -48t46.5 -131
q0 -40 -10 -73zM128 279l235 2v7q0 53 -26 83t-78 30q-55 0 -90 -36.5t-41 -85.5z" />
    <glyph glyph-name="Ecaron" unicode="&#x11a;" horiz-adv-x="523" 
d="M475 0h-396v625h396v-79h-311v-193h259v-79h-259v-195h311v-79zM446 874l-115 -187h-88l-115 187h60l98 -127h1l99 127h60z" />
    <glyph glyph-name="ecaron" unicode="&#x11b;" horiz-adv-x="480" 
d="M124 219v-4q2 -68 43.5 -111t107.5 -43q81 0 137 38l15 -76q-62 -38 -154 -38q-103 0 -167.5 67t-64.5 172q0 110 64.5 179.5t161.5 69.5q82 0 128.5 -48t46.5 -131q0 -40 -10 -73zM128 279l235 2v7q0 53 -26 83t-78 30q-55 0 -90 -36.5t-41 -85.5zM411 707l-115 -187
h-88l-115 187h60l98 -127h1l99 127h60z" />
    <glyph glyph-name="Gcircumflex" unicode="&#x11c;" horiz-adv-x="640" 
d="M579 45q-47 -29 -107 -44.5t-113 -15.5q-139 0 -226 89t-87 237t87.5 238.5t225.5 90.5q55 0 112 -14.5t96 -39.5l-28 -78q-87 56 -180 56q-103 0 -165 -67t-62 -182q0 -116 63 -185t166 -69q70 0 136 32v148h-175v79h257v-275zM490 687h-60l-98 127h-1l-99 -127h-60
l115 187h88z" />
    <glyph glyph-name="gcircumflex" unicode="&#x11d;" horiz-adv-x="476" 
d="M127 299q0 -46 29 -74t78 -28q45 0 71.5 29.5t26.5 77.5q0 47 -27 75t-78 28q-45 0 -72.5 -30t-27.5 -78zM167 -22q-36 -10 -57.5 -29.5t-21.5 -44.5q0 -37 40 -61t105 -24q66 0 110 26t44 67q0 36 -32 49t-105 13q-43 0 -83 4zM105 -7q-60 26 -60 77q0 28 20.5 52.5
t55.5 36.5q-76 44 -76 141q0 71 50.5 122t135.5 51q60 0 118 -26l118 11l3 -81l-88 16q13 -12 22 -40t9 -54q0 -70 -52 -119t-131 -49q-27 0 -64 11q-17 -6 -31 -19t-14 -29q0 -22 21.5 -32.5t82.5 -10.5h1h1h1h1h1h2h1h1h1h2h1h2h1h2h2h2h2h2h2h2h2h10q200 0 200 -123
q0 -75 -71.5 -125.5t-175.5 -50.5q-92 0 -152.5 37t-60.5 97q0 40 26 69t72 38zM389 520h-60l-98 127h-1l-99 -127h-60l115 187h88z" />
    <glyph glyph-name="Gbreve" unicode="&#x11e;" horiz-adv-x="640" 
d="M579 45q-47 -29 -107 -44.5t-113 -15.5q-139 0 -226 89t-87 237t87.5 238.5t225.5 90.5q55 0 112 -14.5t96 -39.5l-28 -78q-87 56 -180 56q-103 0 -165 -67t-62 -182q0 -116 63 -185t166 -69q70 0 136 32v148h-175v79h257v-275zM480 873q-11 -85 -51 -136t-109 -51
t-109 51t-51 136h67q22 -122 93 -122q37 0 60.5 34t32.5 88h67z" />
    <glyph glyph-name="gbreve" unicode="&#x11f;" horiz-adv-x="476" 
d="M127 299q0 -46 29 -74t78 -28q45 0 71.5 29.5t26.5 77.5q0 47 -27 75t-78 28q-45 0 -72.5 -30t-27.5 -78zM167 -22q-36 -10 -57.5 -29.5t-21.5 -44.5q0 -37 40 -61t105 -24q66 0 110 26t44 67q0 36 -32 49t-105 13q-43 0 -83 4zM105 -7q-60 26 -60 77q0 28 20.5 52.5
t55.5 36.5q-76 44 -76 141q0 71 50.5 122t135.5 51q60 0 118 -26l118 11l3 -81l-88 16q13 -12 22 -40t9 -54q0 -70 -52 -119t-131 -49q-27 0 -64 11q-17 -6 -31 -19t-14 -29q0 -22 21.5 -32.5t82.5 -10.5h1h1h1h1h1h2h1h1h1h2h1h2h1h2h2h2h2h2h2h2h2h10q200 0 200 -123
q0 -75 -71.5 -125.5t-175.5 -50.5q-92 0 -152.5 37t-60.5 97q0 40 26 69t72 38zM400 706q-11 -85 -51 -136t-109 -51t-109 51t-51 136h67q22 -122 93 -122q37 0 60.5 34t32.5 88h67z" />
    <glyph glyph-name="Gdotaccent" unicode="&#x120;" horiz-adv-x="640" 
d="M579 45q-47 -29 -107 -44.5t-113 -15.5q-139 0 -226 89t-87 237t87.5 238.5t225.5 90.5q55 0 112 -14.5t96 -39.5l-28 -78q-87 56 -180 56q-103 0 -165 -67t-62 -182q0 -116 63 -185t166 -69q70 0 136 32v148h-175v79h257v-275zM408 752q0 -25 -16 -42.5t-42 -17.5
q-25 0 -41 17.5t-16 42.5t16 43t41 18q26 0 42 -18t16 -43z" />
    <glyph glyph-name="gdotaccent" unicode="&#x121;" horiz-adv-x="476" 
d="M127 299q0 -46 29 -74t78 -28q45 0 71.5 29.5t26.5 77.5q0 47 -27 75t-78 28q-45 0 -72.5 -30t-27.5 -78zM167 -22q-36 -10 -57.5 -29.5t-21.5 -44.5q0 -37 40 -61t105 -24q66 0 110 26t44 67q0 36 -32 49t-105 13q-43 0 -83 4zM105 -7q-60 26 -60 77q0 28 20.5 52.5
t55.5 36.5q-76 44 -76 141q0 71 50.5 122t135.5 51q60 0 118 -26l118 11l3 -81l-88 16q13 -12 22 -40t9 -54q0 -70 -52 -119t-131 -49q-27 0 -64 11q-17 -6 -31 -19t-14 -29q0 -22 21.5 -32.5t82.5 -10.5h1h1h1h1h1h2h1h1h1h2h1h2h1h2h2h2h2h2h2h2h2h10q200 0 200 -123
q0 -75 -71.5 -125.5t-175.5 -50.5q-92 0 -152.5 37t-60.5 97q0 40 26 69t72 38zM293 585q0 -25 -16 -42.5t-42 -17.5q-25 0 -41 17.5t-16 42.5t16 43t41 18q26 0 42 -18t16 -43z" />
    <glyph glyph-name="Gcommaaccent" unicode="&#x122;" horiz-adv-x="640" 
d="M579 45q-47 -29 -107 -44.5t-113 -15.5q-139 0 -226 89t-87 237t87.5 238.5t225.5 90.5q55 0 112 -14.5t96 -39.5l-28 -78q-87 56 -180 56q-103 0 -165 -67t-62 -182q0 -116 63 -185t166 -69q70 0 136 32v148h-175v79h257v-275zM299 -100q3 19 18 34t39 15
q30 0 50.5 -21.5t20.5 -53.5q0 -78 -108 -142l-30 26q65 43 65 86q0 19 -11 30.5t-44 25.5z" />
    <glyph glyph-name="gcommaaccent" unicode="&#x123;" horiz-adv-x="476" 
d="M127 299q0 -46 29 -74t78 -28q45 0 71.5 29.5t26.5 77.5q0 47 -27 75t-78 28q-45 0 -72.5 -30t-27.5 -78zM167 -22q-36 -10 -57.5 -29.5t-21.5 -44.5q0 -37 40 -61t105 -24q66 0 110 26t44 67q0 36 -32 49t-105 13q-43 0 -83 4zM105 -7q-60 26 -60 77q0 28 20.5 52.5
t55.5 36.5q-76 44 -76 141q0 71 50.5 122t135.5 51q60 0 118 -26l118 11l3 -81l-88 16q13 -12 22 -40t9 -54q0 -70 -52 -119t-131 -49q-27 0 -64 11q-17 -6 -31 -19t-14 -29q0 -22 21.5 -32.5t82.5 -10.5h1h1h1h1h1h2h1h1h1h2h1h2h1h2h2h2h2h2h2h2h2h10q200 0 200 -123
q0 -75 -71.5 -125.5t-175.5 -50.5q-92 0 -152.5 37t-60.5 97q0 40 26 69t72 38zM293 568q-3 -19 -18 -34t-39 -15q-30 0 -50.5 21.5t-20.5 53.5q0 78 108 142l30 -26q-65 -43 -65 -86q0 -19 11 -30.5t44 -25.5z" />
    <glyph glyph-name="Hcircumflex" unicode="&#x124;" horiz-adv-x="670" 
d="M591 0h-84v276h-343v-276h-85v625h85v-272h343v272h84v-625zM497 687h-60l-98 127h-1l-99 -127h-60l115 187h88z" />
    <glyph glyph-name="hcircumflex" unicode="&#x125;" horiz-adv-x="517" 
d="M450 0h-82v288q0 58 -22 82t-68 24q-73 0 -125 -50v-344h-82v674l82 13v-281q67 67 154 67q66 0 104.5 -42t38.5 -116v-315zM276 687h-60l-98 127h-1l-99 -127h-60l115 187h88z" />
    <glyph glyph-name="Hbar" unicode="&#x126;" horiz-adv-x="670" 
d="M591 0h-84v276h-343v-276h-85v448h-80l4 53h76v124h85v-124h343v124h84v-124h70l5 -53h-75v-448zM164 353h343v95h-343v-95z" />
    <glyph glyph-name="hbar" unicode="&#x127;" horiz-adv-x="517" 
d="M450 0h-82v288q0 58 -22 82t-68 24q-73 0 -125 -50v-344h-82v538h-68l4 53h64v83l82 13v-96h104l5 -53h-109v-132q67 67 154 67q66 0 104.5 -42t38.5 -116v-315z" />
    <glyph glyph-name="Imacron" unicode="&#x12a;" horiz-adv-x="247" 
d="M165 0h-84v625h84v-625zM263 705h-275l4 53h266z" />
    <glyph glyph-name="imacron" unicode="&#x12b;" horiz-adv-x="224" 
d="M156 0h-82v451l82 13v-464zM252 538h-275l4 53h266z" />
    <glyph glyph-name="Ibreve" unicode="&#x12c;" horiz-adv-x="247" 
d="M165 0h-84v625h84v-625zM286 873q-11 -85 -51 -136t-109 -51t-109 51t-51 136h67q22 -122 93 -122q37 0 60.5 34t32.5 88h67z" />
    <glyph glyph-name="ibreve" unicode="&#x12d;" horiz-adv-x="224" 
d="M156 0h-82v451l82 13v-464zM275 706q-11 -85 -51 -136t-109 -51t-109 51t-51 136h67q22 -122 93 -122q37 0 60.5 34t32.5 88h67z" />
    <glyph glyph-name="Iogonek" unicode="&#x12e;" horiz-adv-x="247" 
d="M129 -217q-47 0 -76.5 26t-29.5 70q0 73 78 121h-20v625h84v-625q-60 -47 -60 -95q0 -49 45 -49q30 0 51 16l18 -62q-38 -27 -90 -27z" />
    <glyph glyph-name="iogonek" unicode="&#x12f;" horiz-adv-x="224" 
d="M117 -217q-47 0 -76.5 26t-29.5 70q0 75 79 121h-19v460l82 13v-473q-60 -47 -60 -95q0 -49 45 -49q30 0 51 16l18 -62q-38 -27 -90 -27zM166 618q0 -25 -14 -42t-40 -17t-40 17t-14 42t14 42t40 17t40 -17t14 -42z" />
    <glyph glyph-name="Idotaccent" unicode="&#x130;" horiz-adv-x="247" 
d="M165 0h-84v625h84v-625zM183 752q0 -25 -16 -42.5t-42 -17.5q-25 0 -41 17.5t-16 42.5t16 43t41 18q26 0 42 -18t16 -43z" />
    <glyph glyph-name="dotlessi" unicode="&#x131;" horiz-adv-x="224" 
d="M156 0h-82v451l82 13v-464z" />
    <glyph glyph-name="Jcircumflex" unicode="&#x134;" horiz-adv-x="418" 
d="M340 190q0 -95 -46.5 -150t-141.5 -55q-77 0 -138 39l13 82q64 -44 124 -44q105 0 105 132v431h84v-435zM454 687h-60l-98 127h-1l-99 -127h-60l115 187h88z" />
    <glyph glyph-name="jcircumflex" unicode="&#x135;" horiz-adv-x="221" 
d="M46 -249l-55 58q44 21 62 57t18 109v1v1v1v1v1v1v1v1v1v1v1v1v1v1v1v1v1v1v1v1v1v1v1v1v1v1v1v1v1v1v1v1v1v1v1v1v1v1v1v1v1v1v1v1v1v1v1v1v1v1v1v1v1v1v1v1v1v1v1v1v1v1v1v1v1v1v1v1v1v1v1v1v1v1v1v1v1v1v1v1v1v1v1v1v1v1v1v1v1v1v1v2v1v1v1v1v1v1v1v1v1v2v1v1v1v1v1v1
v1v2v1v1v1v1v1v2v1v1v1v1v2v1v1v1v1v2v1v1v1v2v1v1v1v2v1v1v1v2v1v1v1v2v1v1v2v1v1v1v2v1v1v2v1v1v2v1v1v2v1v1v2v1v1v2v1v1v2v1v2v1v1v2v1v1v2v1v2v1v1v2v1v2v1v2v1v1v2v1v2v1v2v1v2v1v1v2v1v2v1v2v1v2v1v2v1v2v1v2v1v2v1v2v1v2v1v2v1v2v1v2v1v2v2v1v2v1v2v1v2v1v2v2v1v2v1
v2v1v2v2v1v2v1v2v2v1v2v1v2v2v1v2v2v1v2v2v1v2v1v2v2v1v2v2v1v2v2v1v2v2v1v2v2v1v2v2v2v1v2v2v1v2v2v2v1v2v2v1v2v2v2v1v2v2v2v1v2v2v2v1v2v2v2v1v2v2v2v2v1v2v2v2v2v1v2v2v2v2v1v2v2v2v2v2v1v2v2v2v2v2v1v2v2v2v2v2v2v1v2v2v2v2v2v2v2v1v9l82 13v-1v-1v-1v-1v-1v-1v-1v-1
v-1v-1v-1v-1v-1v-1v-1v-1v-1v-1v-1v-1v-1v-1v-1v-1v-1v-1v-1v-1v-1v-1v-1v-1v-1v-1v-1v-1v-1v-1v-1v-1v-1v-1v-1v-1v-1v-1v-1v-1v-1v-1v-1v-1v-1v-1v-1v-1v-1v-1v-1v-1v-1v-1v-1v-1v-1v-1v-1v-1v-1v-1v-1v-1v-1v-1v-1v-1v-1v-1v-1v-1v-1v-1v-1v-1v-1v-1v-1v-2v-1v-1v-1v-1
v-1v-1v-1v-1v-1v-1v-2v-1v-1v-1v-1v-1v-1v-2v-1v-1v-1v-1v-1v-2v-1v-1v-1v-1v-2v-1v-1v-1v-1v-2v-1v-1v-1v-2v-1v-1v-1v-2v-1v-1v-1v-2v-1v-1v-2v-1v-1v-1v-2v-1v-1v-2v-1v-1v-2v-1v-1v-2v-1v-1v-2v-1v-1v-2v-1v-2v-1v-1v-2v-1v-1v-2v-1v-2v-1v-1v-2v-1v-2v-1v-1v-2v-1v-2
v-1v-2v-1v-2v-1v-1v-2v-1v-2v-1v-2v-1v-2v-1v-2v-1v-2v-1v-2v-1v-2v-1v-2v-1v-2v-1v-2v-1v-2v-1v-2v-2v-1v-2v-1v-2v-1v-2v-1v-2v-2v-1v-2v-1v-2v-2v-1v-2v-1v-2v-2v-1v-2v-1v-2v-2v-1v-2v-2v-1v-2v-1v-2v-2v-1v-2v-2v-1v-2v-2v-1v-2v-2v-2v-1v-2v-2v-1v-2v-2v-1v-2v-2v-2
v-1v-2v-2v-2v-1v-2v-2v-1v-2v-2v-2v-2v-1v-2v-2v-2v-1v-2v-2v-2v-2v-1v-2v-2v-2v-2v-1v-2v-2v-2v-2v-2v-1v-2v-2v-2v-2v-2v-2v-1v-2v-2v-2v-2v-2v-2v-2v-2v-2v-1v-2v-2v-2v-2v-2v-2v-2v-2v-2v-2v-2v-2v-2v-2v-2v-2v-2v-2v-2v-2v-2v-2v-2v-3v-2v-2v-2v-2v-2v-10
q0 -97 -24 -147.5t-83 -82.5zM272 520h-60l-98 127h-1l-99 -127h-60l115 187h88z" />
    <glyph glyph-name="Kcommaaccent" unicode="&#x136;" horiz-adv-x="548" 
d="M164 327h1l265 298h107l-289 -309l292 -316h-109l-266 297h-1v-297h-85v625h85v-298zM231 -100q3 19 18 34t39 15q30 0 50.5 -21.5t20.5 -53.5q0 -78 -108 -142l-30 26q65 43 65 86q0 19 -11 30.5t-44 25.5z" />
    <glyph glyph-name="kcommaaccent" unicode="&#x137;" horiz-adv-x="456" 
d="M155 226h-2v-226h-82v674l82 13v-439h2l189 210h104l-210 -217l211 -241h-105zM176 -100q3 19 18 34t39 15q30 0 50.5 -21.5t20.5 -53.5q0 -78 -108 -142l-30 26q65 43 65 86q0 19 -11 30.5t-44 25.5z" />
    <glyph glyph-name="Lacute" unicode="&#x139;" horiz-adv-x="494" 
d="M466 0h-387v625h85v-545h302v-80zM284 868l-146 -181h-60l106 181h100z" />
    <glyph glyph-name="lacute" unicode="&#x13a;" horiz-adv-x="224" 
d="M153 0h-82v674l82 13v-687zM272 899l-146 -181h-60l106 181h100z" />
    <glyph glyph-name="Lcommaaccent" unicode="&#x13b;" horiz-adv-x="494" 
d="M466 0h-387v625h85v-545h302v-80zM196 -100q3 19 18 34t39 15q30 0 50.5 -21.5t20.5 -53.5q0 -78 -108 -142l-30 26q65 43 65 86q0 19 -11 30.5t-44 25.5z" />
    <glyph glyph-name="lcommaaccent" unicode="&#x13c;" horiz-adv-x="224" 
d="M153 0h-82v674l82 13v-687zM50 -100q3 19 18 34t39 15q30 0 50.5 -21.5t20.5 -53.5q0 -78 -108 -142l-30 26q65 43 65 86q0 19 -11 30.5t-44 25.5z" />
    <glyph glyph-name="Lcaron" unicode="&#x13d;" horiz-adv-x="604" 
d="M466 0h-387v625h85v-545h302v-80zM473 579q3 26 20.5 42.5t47.5 16.5q32 0 58.5 -26.5t26.5 -64.5q0 -97 -148 -195l-35 34q102 74 102 127q0 19 -15.5 33t-56.5 33z" />
    <glyph glyph-name="lcaron" unicode="&#x13e;" horiz-adv-x="444" 
d="M153 0h-82v674l82 13v-687zM265 637q3 26 20.5 42.5t47.5 16.5q32 0 58.5 -26.5t26.5 -64.5q0 -97 -148 -195l-35 34q102 74 102 127q0 19 -15.5 33t-56.5 33z" />
    <glyph glyph-name="Ldot" unicode="&#x13f;" horiz-adv-x="557" 
d="M466 0h-387v625h85v-545h302v-80zM613 313q0 -26 -18 -45.5t-45 -19.5q-28 0 -46.5 19.5t-18.5 45.5t18.5 44.5t46.5 18.5q27 0 45 -18.5t18 -44.5z" />
    <glyph glyph-name="ldotaccent" unicode="&#x140;" horiz-adv-x="397" 
d="M153 0h-82v674l82 13v-687zM372 313q0 -26 -18 -45.5t-45 -19.5q-28 0 -46.5 19.5t-18.5 45.5t18.5 44.5t46.5 18.5q27 0 45 -18.5t18 -44.5z" />
    <glyph glyph-name="Lslash" unicode="&#x141;" horiz-adv-x="511" 
d="M186 268v-186h302v-82h-386v1v1v1v1v1v1v1v1v1v1v1v1v1v1v1v1v1v1v1v1v1v1v1v1v1v1v1v1v1v1v1v1v1v1v1v1v1v1v1v1v1v1v1v1v1v1v2v1v1v1v1v1v1v1v1v2v1v1v1v1v2v1v1v1v1v2v1v1v1v2v1v1v2v1v1v1v2v1v1v2v1v2v1v1v2v1v1v2v1v2v1v1v2v1v2v1v2v1v2v1v2v1v1v2v2v1v2v1v2v1v2v1
v2v1v2v1v2v2v1v2v1v2v2v1v2v1v2v2v1v2v2v1v2v2v1v2v2v1v2v2v2v1v2v2v1v2v2v2v1v2v2v2v2v1v2v2v2v2v1v2v2v2v2v1v2v2v2v2v2v2v1v10l-84 -22v73l84 23v306h84v-284l156 42v-73z" />
    <glyph glyph-name="lslash" unicode="&#x142;" horiz-adv-x="261" 
d="M176 266v-266h-82v244l-84 -22v76q5 1 14 3.5t27.5 7.5t30.5 8l12 3v354l82 13v-345l84 23v-76z" />
    <glyph glyph-name="Nacute" unicode="&#x143;" horiz-adv-x="668" 
d="M506 121v504h83v-631h-92l-335 510v-504h-83v625h94zM476 868l-146 -181h-60l106 181h100z" />
    <glyph glyph-name="nacute" unicode="&#x144;" horiz-adv-x="517" 
d="M450 0h-82v288q0 58 -22.5 82t-72.5 24q-68 0 -120 -50v-344h-82v460l82 13v-69q69 69 149 69q70 0 109 -42t39 -116v-315zM389 701l-146 -181h-60l106 181h100z" />
    <glyph glyph-name="Ncommaaccent" unicode="&#x145;" horiz-adv-x="668" 
d="M506 121v504h83v-631h-92l-335 510v-504h-83v625h94zM272 -100q3 19 18 34t39 15q30 0 50.5 -21.5t20.5 -53.5q0 -78 -108 -142l-30 26q65 43 65 86q0 19 -11 30.5t-44 25.5z" />
    <glyph glyph-name="ncommaaccent" unicode="&#x146;" horiz-adv-x="517" 
d="M450 0h-82v288q0 58 -22.5 82t-72.5 24q-68 0 -120 -50v-344h-82v460l82 13v-69q69 69 149 69q70 0 109 -42t39 -116v-315zM199 -100q3 19 18 34t39 15q30 0 50.5 -21.5t20.5 -53.5q0 -78 -108 -142l-30 26q65 43 65 86q0 19 -11 30.5t-44 25.5z" />
    <glyph glyph-name="Ncaron" unicode="&#x147;" horiz-adv-x="668" 
d="M506 121v504h83v-631h-92l-335 510v-504h-83v625h94zM496 874l-115 -187h-88l-115 187h60l98 -127h1l99 127h60z" />
    <glyph glyph-name="ncaron" unicode="&#x148;" horiz-adv-x="517" 
d="M450 0h-82v288q0 58 -22.5 82t-72.5 24q-68 0 -120 -50v-344h-82v460l82 13v-69q69 69 149 69q70 0 109 -42t39 -116v-315zM414 707l-115 -187h-88l-115 187h60l98 -127h1l99 127h60z" />
    <glyph glyph-name="Omacron" unicode="&#x14c;" horiz-adv-x="720" 
d="M674 315q0 -141 -88.5 -235.5t-225.5 -94.5q-139 0 -226.5 89.5t-87.5 236.5q0 141 88.5 235t225.5 94q139 0 226.5 -89t87.5 -236zM589 311q0 115 -64 184t-167 69q-100 0 -163 -68.5t-63 -180.5q0 -115 63.5 -184.5t166.5 -69.5q100 0 163.5 69t63.5 181zM492 705h-275
l4 53h266z" />
    <glyph glyph-name="omacron" unicode="&#x14d;" horiz-adv-x="528" 
d="M487 229q0 -109 -63.5 -176.5t-161.5 -67.5t-159.5 67t-61.5 177t63 177.5t163 67.5q99 0 159.5 -67t60.5 -178zM406 228q0 75 -38.5 123.5t-104.5 48.5q-67 0 -104 -47t-37 -123q0 -75 38.5 -123t104.5 -48q67 0 104 46.5t37 122.5zM398 538h-275l4 53h266z" />
    <glyph glyph-name="Obreve" unicode="&#x14e;" horiz-adv-x="720" 
d="M674 315q0 -141 -88.5 -235.5t-225.5 -94.5q-139 0 -226.5 89.5t-87.5 236.5q0 141 88.5 235t225.5 94q139 0 226.5 -89t87.5 -236zM589 311q0 115 -64 184t-167 69q-100 0 -163 -68.5t-63 -180.5q0 -115 63.5 -184.5t166.5 -69.5q100 0 163.5 69t63.5 181zM511 873
q-11 -85 -51 -136t-109 -51t-109 51t-51 136h67q22 -122 93 -122q37 0 60.5 34t32.5 88h67z" />
    <glyph glyph-name="obreve" unicode="&#x14f;" horiz-adv-x="528" 
d="M487 229q0 -109 -63.5 -176.5t-161.5 -67.5t-159.5 67t-61.5 177t63 177.5t163 67.5q99 0 159.5 -67t60.5 -178zM406 228q0 75 -38.5 123.5t-104.5 48.5q-67 0 -104 -47t-37 -123q0 -75 38.5 -123t104.5 -48q67 0 104 46.5t37 122.5zM415 706q-11 -85 -51 -136t-109 -51
t-109 51t-51 136h67q22 -122 93 -122q37 0 60.5 34t32.5 88h67z" />
    <glyph glyph-name="Ohungarumlaut" unicode="&#x150;" horiz-adv-x="720" 
d="M674 315q0 -141 -88.5 -235.5t-225.5 -94.5q-139 0 -226.5 89.5t-87.5 236.5q0 141 88.5 235t225.5 94q139 0 226.5 -89t87.5 -236zM589 311q0 115 -64 184t-167 69q-100 0 -163 -68.5t-63 -180.5q0 -115 63.5 -184.5t166.5 -69.5q100 0 163.5 69t63.5 181zM578 864
l-147 -177h-71l134 177h84zM392 864l-124 -177h-70l111 177h83z" />
    <glyph glyph-name="ohungarumlaut" unicode="&#x151;" horiz-adv-x="528" 
d="M487 229q0 -109 -63.5 -176.5t-161.5 -67.5t-159.5 67t-61.5 177t63 177.5t163 67.5q99 0 159.5 -67t60.5 -178zM406 228q0 75 -38.5 123.5t-104.5 48.5q-67 0 -104 -47t-37 -123q0 -75 38.5 -123t104.5 -48q67 0 104 46.5t37 122.5zM487 697l-147 -177h-71l134 177h84z
M301 697l-124 -177h-70l111 177h83z" />
    <glyph glyph-name="OE" unicode="&#x152;" horiz-adv-x="922" 
d="M879 625v-79h-311v-193h259v-79h-259v-195h311v-79h-499q-154 0 -242.5 83.5t-88.5 224.5q0 147 88 232t247 85h495zM134 314q0 -114 65 -174.5t185 -60.5h99v467h-103q-114 0 -180 -59.5t-66 -172.5z" />
    <glyph glyph-name="oe" unicode="&#x153;" horiz-adv-x="850" 
d="M498 279l235 2v7q0 53 -26 83t-78 30q-55 0 -90 -36.5t-41 -85.5zM122 230q0 -75 38.5 -123t104.5 -48q67 0 104 46.5t37 122.5q0 75 -38.5 123.5t-104.5 48.5q-67 0 -104 -47t-37 -123zM447 88q-60 -103 -185 -103q-98 0 -159.5 67t-61.5 177t63 177.5t163 67.5
q126 0 183 -105q30 49 79 76.5t108 27.5q82 0 128.5 -48t46.5 -131q0 -40 -10 -73l-308 -2v-4q2 -68 43.5 -111t107.5 -43q81 0 137 38l15 -76q-62 -38 -154 -38q-132 0 -196 103z" />
    <glyph glyph-name="Racute" unicode="&#x154;" horiz-adv-x="545" 
d="M164 241v-241h-85v625h187q111 0 170.5 -49t59.5 -134q0 -134 -141 -180l169 -262h-101l-152 248zM164 316l103 3q64 2 104 32.5t40 86.5q0 54 -41 81.5t-114 27.5h-92v-231zM386 868l-146 -181h-60l106 181h100z" />
    <glyph glyph-name="racute" unicode="&#x155;" horiz-adv-x="381" 
d="M153 299v-299h-82v460l82 13v-81q51 81 128 81q49 0 86 -23l-21 -77q-35 21 -73 21q-69 0 -120 -95zM357 701l-146 -181h-60l106 181h100z" />
    <glyph glyph-name="Rcommaaccent" unicode="&#x156;" horiz-adv-x="545" 
d="M164 241v-241h-85v625h187q111 0 170.5 -49t59.5 -134q0 -134 -141 -180l169 -262h-101l-152 248zM164 316l103 3q64 2 104 32.5t40 86.5q0 54 -41 81.5t-114 27.5h-92v-231zM210 -100q3 19 18 34t39 15q30 0 50.5 -21.5t20.5 -53.5q0 -78 -108 -142l-30 26q65 43 65 86
q0 19 -11 30.5t-44 25.5z" />
    <glyph glyph-name="rcommaaccent" unicode="&#x157;" horiz-adv-x="381" 
d="M153 299v-299h-82v460l82 13v-81q51 81 128 81q49 0 86 -23l-21 -77q-35 21 -73 21q-69 0 -120 -95zM54 -100q3 19 18 34t39 15q30 0 50.5 -21.5t20.5 -53.5q0 -78 -108 -142l-30 26q65 43 65 86q0 19 -11 30.5t-44 25.5z" />
    <glyph glyph-name="Rcaron" unicode="&#x158;" horiz-adv-x="545" 
d="M164 241v-241h-85v625h187q111 0 170.5 -49t59.5 -134q0 -134 -141 -180l169 -262h-101l-152 248zM164 316l103 3q64 2 104 32.5t40 86.5q0 54 -41 81.5t-114 27.5h-92v-231zM420 874l-115 -187h-88l-115 187h60l98 -127h1l99 127h60z" />
    <glyph glyph-name="rcaron" unicode="&#x159;" horiz-adv-x="381" 
d="M153 299v-299h-82v460l82 13v-81q51 81 128 81q49 0 86 -23l-21 -77q-35 21 -73 21q-69 0 -120 -95zM356 707l-115 -187h-88l-115 187h60l98 -127h1l99 127h60z" />
    <glyph glyph-name="Sacute" unicode="&#x15a;" horiz-adv-x="509" 
d="M247 61q59 0 97.5 29.5t38.5 75.5t-34 69.5t-116 45.5q-40 11 -68 22.5t-58 32t-45.5 53t-15.5 75.5q0 79 58 127.5t151 48.5q108 0 197 -55l-30 -74q-78 52 -166 52q-64 0 -95.5 -25.5t-31.5 -67.5q0 -44 34.5 -66.5t117.5 -45.5q83 -22 133.5 -64t50.5 -122
q0 -82 -61 -134.5t-159 -52.5q-116 0 -209 59l28 77q91 -60 183 -60zM382 868l-146 -181h-60l106 181h100z" />
    <glyph glyph-name="sacute" unicode="&#x15b;" horiz-adv-x="401" 
d="M364 130q0 -65 -48.5 -105.5t-124.5 -40.5q-91 0 -160 43l21 75q63 -43 141 -43q40 0 65.5 17.5t25.5 47.5q0 16 -8 28.5t-26.5 21.5t-32.5 14t-41 12q-61 17 -98.5 47t-37.5 87q0 63 47 101t117 38q80 0 148 -34l-21 -75q-62 34 -131 34q-37 0 -59 -15t-22 -42
q0 -30 26.5 -45t79.5 -29q62 -17 100.5 -47.5t38.5 -89.5zM348 701l-146 -181h-60l106 181h100z" />
    <glyph glyph-name="Scircumflex" unicode="&#x15c;" horiz-adv-x="509" 
d="M247 61q59 0 97.5 29.5t38.5 75.5t-34 69.5t-116 45.5q-40 11 -68 22.5t-58 32t-45.5 53t-15.5 75.5q0 79 58 127.5t151 48.5q108 0 197 -55l-30 -74q-78 52 -166 52q-64 0 -95.5 -25.5t-31.5 -67.5q0 -44 34.5 -66.5t117.5 -45.5q83 -22 133.5 -64t50.5 -122
q0 -82 -61 -134.5t-159 -52.5q-116 0 -209 59l28 77q91 -60 183 -60zM414 687h-60l-98 127h-1l-99 -127h-60l115 187h88z" />
    <glyph glyph-name="scircumflex" unicode="&#x15d;" horiz-adv-x="401" 
d="M364 130q0 -65 -48.5 -105.5t-124.5 -40.5q-91 0 -160 43l21 75q63 -43 141 -43q40 0 65.5 17.5t25.5 47.5q0 16 -8 28.5t-26.5 21.5t-32.5 14t-41 12q-61 17 -98.5 47t-37.5 87q0 63 47 101t117 38q80 0 148 -34l-21 -75q-62 34 -131 34q-37 0 -59 -15t-22 -42
q0 -30 26.5 -45t79.5 -29q62 -17 100.5 -47.5t38.5 -89.5zM370 520h-60l-98 127h-1l-99 -127h-60l115 187h88z" />
    <glyph glyph-name="Scedilla" unicode="&#x15e;" horiz-adv-x="509" 
d="M229 -68q58 0 90.5 -22t32.5 -60q0 -90 -164 -111l-6 52q106 6 106 54q0 53 -120 34l-8 42l65 65q-107 5 -189 58l28 77q91 -60 183 -60q59 0 97.5 29.5t38.5 75.5t-34 69.5t-116 45.5q-40 11 -68 22.5t-58 32t-45.5 53t-15.5 75.5q0 79 58 127.5t151 48.5q108 0 197 -55
l-30 -74q-78 52 -166 52q-64 0 -95.5 -25.5t-31.5 -67.5q0 -44 34.5 -66.5t117.5 -45.5q83 -22 133.5 -64t50.5 -122q0 -72 -49 -122.5t-130 -61.5z" />
    <glyph glyph-name="scedilla" unicode="&#x15f;" horiz-adv-x="401" 
d="M173 -68q58 0 90.5 -22t32.5 -60q0 -90 -164 -111l-6 52q106 6 106 54q0 53 -120 34l-8 42l65 64q-83 7 -138 42l21 75q63 -43 141 -43q40 0 65.5 17.5t25.5 47.5q0 16 -8 28.5t-26.5 21.5t-32.5 14t-41 12q-61 17 -98.5 47t-37.5 87q0 63 47 101t117 38q80 0 148 -34
l-21 -75q-62 34 -131 34q-37 0 -59 -15t-22 -42q0 -30 26.5 -45t79.5 -29q62 -17 100.5 -47.5t38.5 -89.5q0 -56 -37 -94.5t-98 -48.5z" />
    <glyph glyph-name="Scaron" unicode="&#x160;" horiz-adv-x="509" 
d="M247 61q59 0 97.5 29.5t38.5 75.5t-34 69.5t-116 45.5q-40 11 -68 22.5t-58 32t-45.5 53t-15.5 75.5q0 79 58 127.5t151 48.5q108 0 197 -55l-30 -74q-78 52 -166 52q-64 0 -95.5 -25.5t-31.5 -67.5q0 -44 34.5 -66.5t117.5 -45.5q83 -22 133.5 -64t50.5 -122
q0 -82 -61 -134.5t-159 -52.5q-116 0 -209 59l28 77q91 -60 183 -60zM416 874l-115 -187h-88l-115 187h60l98 -127h1l99 127h60z" />
    <glyph glyph-name="scaron" unicode="&#x161;" horiz-adv-x="401" 
d="M364 130q0 -65 -48.5 -105.5t-124.5 -40.5q-91 0 -160 43l21 75q63 -43 141 -43q40 0 65.5 17.5t25.5 47.5q0 16 -8 28.5t-26.5 21.5t-32.5 14t-41 12q-61 17 -98.5 47t-37.5 87q0 63 47 101t117 38q80 0 148 -34l-21 -75q-62 34 -131 34q-37 0 -59 -15t-22 -42
q0 -30 26.5 -45t79.5 -29q62 -17 100.5 -47.5t38.5 -89.5zM362 707l-115 -187h-88l-115 187h60l98 -127h1l99 127h60z" />
    <glyph glyph-name="Tcommaaccent" unicode="&#x162;" horiz-adv-x="560" 
d="M541 545h-219v-545h-84v545h-219v80h522v-80zM218 -100q3 19 18 34t39 15q30 0 50.5 -21.5t20.5 -53.5q0 -78 -108 -142l-30 26q65 43 65 86q0 19 -11 30.5t-44 25.5z" />
    <glyph glyph-name="tcommaaccent" unicode="&#x163;" horiz-adv-x="339" 
d="M312 5q-52 -20 -103 -20q-137 0 -133 143l7 256l-76 5l3 52l76 23l2 99h79l-3 -105h143l-3 -74h-143l-7 -259q-2 -65 60 -65q37 0 83 17zM130 -100q3 19 18 34t39 15q30 0 50.5 -21.5t20.5 -53.5q0 -78 -108 -142l-30 26q65 43 65 86q0 19 -11 30.5t-44 25.5z" />
    <glyph glyph-name="Tcaron" unicode="&#x164;" horiz-adv-x="560" 
d="M541 545h-219v-545h-84v545h-219v80h522v-80zM442 874l-115 -187h-88l-115 187h60l98 -127h1l99 127h60z" />
    <glyph glyph-name="tcaron" unicode="&#x165;" horiz-adv-x="379" 
d="M312 5q-52 -20 -103 -20q-137 0 -133 143l7 256l-76 5l3 52l76 23l2 99h79l-3 -105h143l-3 -74h-143l-7 -259q-2 -65 60 -65q37 0 83 17zM230 666q2 21 16 34.5t38 13.5q26 0 47 -21.5t21 -51.5q0 -78 -118 -156l-28 27q81 59 81 102q0 15 -12 26t-45 26z" />
    <glyph glyph-name="Umacron" unicode="&#x16a;" horiz-adv-x="646" 
d="M568 241q0 -121 -62.5 -188.5t-183.5 -67.5q-116 0 -180 66.5t-64 180.5v393h84v-380q0 -86 41.5 -133t123.5 -47q74 0 115.5 44t41.5 130v1v1v1v1v1v1v1v1v1v1v1v1v1v1v1v1v1v1v1v1v1v1v1v1v1v1v1v1v1v1v1v1v1v1v1v1v1v1v1v1v1v1v1v1v1v1v1v1v1v1v1v1v1v1v1v1v1v1v1v1v1
v1v1v1v1v1v1v2v1v1v1v1v1v1v1v1v1v1v1v2v1v1v1v1v1v1v1v2v1v1v1v1v1v2v1v1v1v1v2v1v1v1v2v1v1v1v2v1v1v1v2v1v1v1v2v1v1v2v1v1v2v1v1v2v1v1v2v1v1v2v1v1v2v1v1v2v1v2v1v1v2v1v2v1v1v2v1v2v1v2v1v1v2v1v2v1v2v1v2v1v2v1v2v1v2v1v2v1v2v1v2v1v2v1v2v1v2v1v2v2v1v2v1v2v1v2v2v1
v2v1v2v1v2v2v1v2v2v1v2v1v2v2v1v2v2v1v2v2v1v2v2v1v2v2v1v2v2v1v2v2v1v2v2v2v1v2v2v1v2v2v2v1v2v2v2v1v2v2v2v1v2v2v2v1v2v2v2v2v1v2v2v2v2v2v1v2v2v2v2v1v2v2v2v2v2v2v1v2v2v2v2v2v2v9h84v-384zM463 705h-275l4 53h266z" />
    <glyph glyph-name="umacron" unicode="&#x16b;" horiz-adv-x="517" 
d="M67 458h82v-288q0 -58 22 -82t68 -24q73 0 125 50v344h82v-460l-82 -13v67q-67 -67 -154 -67q-66 0 -104.5 42t-38.5 116v315zM394 538h-275l4 53h266z" />
    <glyph glyph-name="Ubreve" unicode="&#x16c;" horiz-adv-x="646" 
d="M568 241q0 -121 -62.5 -188.5t-183.5 -67.5q-116 0 -180 66.5t-64 180.5v393h84v-380q0 -86 41.5 -133t123.5 -47q74 0 115.5 44t41.5 130v1v1v1v1v1v1v1v1v1v1v1v1v1v1v1v1v1v1v1v1v1v1v1v1v1v1v1v1v1v1v1v1v1v1v1v1v1v1v1v1v1v1v1v1v1v1v1v1v1v1v1v1v1v1v1v1v1v1v1v1v1
v1v1v1v1v1v1v2v1v1v1v1v1v1v1v1v1v1v1v2v1v1v1v1v1v1v1v2v1v1v1v1v1v2v1v1v1v1v2v1v1v1v2v1v1v1v2v1v1v1v2v1v1v1v2v1v1v2v1v1v2v1v1v2v1v1v2v1v1v2v1v1v2v1v1v2v1v2v1v1v2v1v2v1v1v2v1v2v1v2v1v1v2v1v2v1v2v1v2v1v2v1v2v1v2v1v2v1v2v1v2v1v2v1v2v1v2v1v2v2v1v2v1v2v1v2v2v1
v2v1v2v1v2v2v1v2v2v1v2v1v2v2v1v2v2v1v2v2v1v2v2v1v2v2v1v2v2v1v2v2v1v2v2v2v1v2v2v1v2v2v2v1v2v2v2v1v2v2v2v1v2v2v2v1v2v2v2v2v1v2v2v2v2v2v1v2v2v2v2v1v2v2v2v2v2v2v1v2v2v2v2v2v2v9h84v-384zM486 873q-11 -85 -51 -136t-109 -51t-109 51t-51 136h67q22 -122 93 -122
q37 0 60.5 34t32.5 88h67z" />
    <glyph glyph-name="ubreve" unicode="&#x16d;" horiz-adv-x="517" 
d="M67 458h82v-288q0 -58 22 -82t68 -24q73 0 125 50v344h82v-460l-82 -13v67q-67 -67 -154 -67q-66 0 -104.5 42t-38.5 116v315zM414 706q-11 -85 -51 -136t-109 -51t-109 51t-51 136h67q22 -122 93 -122q37 0 60.5 34t32.5 88h67z" />
    <glyph glyph-name="Uring" unicode="&#x16e;" horiz-adv-x="646" 
d="M568 241q0 -121 -62.5 -188.5t-183.5 -67.5q-116 0 -180 66.5t-64 180.5v393h84v-380q0 -86 41.5 -133t123.5 -47q74 0 115.5 44t41.5 130v1v1v1v1v1v1v1v1v1v1v1v1v1v1v1v1v1v1v1v1v1v1v1v1v1v1v1v1v1v1v1v1v1v1v1v1v1v1v1v1v1v1v1v1v1v1v1v1v1v1v1v1v1v1v1v1v1v1v1v1v1
v1v1v1v1v1v1v2v1v1v1v1v1v1v1v1v1v1v1v2v1v1v1v1v1v1v1v2v1v1v1v1v1v2v1v1v1v1v2v1v1v1v2v1v1v1v2v1v1v1v2v1v1v1v2v1v1v2v1v1v2v1v1v2v1v1v2v1v1v2v1v1v2v1v1v2v1v2v1v1v2v1v2v1v1v2v1v2v1v2v1v1v2v1v2v1v2v1v2v1v2v1v2v1v2v1v2v1v2v1v2v1v2v1v2v1v2v1v2v2v1v2v1v2v1v2v2v1
v2v1v2v1v2v2v1v2v2v1v2v1v2v2v1v2v2v1v2v2v1v2v2v1v2v2v1v2v2v1v2v2v1v2v2v2v1v2v2v1v2v2v2v1v2v2v2v1v2v2v2v1v2v2v2v1v2v2v2v2v1v2v2v2v2v2v1v2v2v2v2v1v2v2v2v2v2v2v1v2v2v2v2v2v2v9h84v-384zM450 778q1 -46 -33.5 -77.5t-90.5 -31.5t-90 31.5t-34 77.5q0 47 34 78.5
t90 31.5t89.5 -31.5t34.5 -78.5zM398 779q0 28 -19.5 47t-52.5 19q-32 0 -51.5 -19t-19.5 -47t19.5 -47.5t51.5 -19.5q33 0 52.5 19.5t19.5 47.5z" />
    <glyph glyph-name="uring" unicode="&#x16f;" horiz-adv-x="517" 
d="M67 458h82v-288q0 -58 22 -82t68 -24q73 0 125 50v344h82v-460l-82 -13v67q-67 -67 -154 -67q-66 0 -104.5 42t-38.5 116v315zM382 631q1 -46 -33.5 -77.5t-90.5 -31.5t-90 31.5t-34 77.5q0 47 34 78.5t90 31.5t89.5 -31.5t34.5 -78.5zM330 632q0 28 -19.5 47t-52.5 19
q-32 0 -51.5 -19t-19.5 -47t19.5 -47.5t51.5 -19.5q33 0 52.5 19.5t19.5 47.5z" />
    <glyph glyph-name="Uhungarumlaut" unicode="&#x170;" horiz-adv-x="646" 
d="M568 241q0 -121 -62.5 -188.5t-183.5 -67.5q-116 0 -180 66.5t-64 180.5v393h84v-380q0 -86 41.5 -133t123.5 -47q74 0 115.5 44t41.5 130v1v1v1v1v1v1v1v1v1v1v1v1v1v1v1v1v1v1v1v1v1v1v1v1v1v1v1v1v1v1v1v1v1v1v1v1v1v1v1v1v1v1v1v1v1v1v1v1v1v1v1v1v1v1v1v1v1v1v1v1v1
v1v1v1v1v1v1v2v1v1v1v1v1v1v1v1v1v1v1v2v1v1v1v1v1v1v1v2v1v1v1v1v1v2v1v1v1v1v2v1v1v1v2v1v1v1v2v1v1v1v2v1v1v1v2v1v1v2v1v1v2v1v1v2v1v1v2v1v1v2v1v1v2v1v1v2v1v2v1v1v2v1v2v1v1v2v1v2v1v2v1v1v2v1v2v1v2v1v2v1v2v1v2v1v2v1v2v1v2v1v2v1v2v1v2v1v2v1v2v2v1v2v1v2v1v2v2v1
v2v1v2v1v2v2v1v2v2v1v2v1v2v2v1v2v2v1v2v2v1v2v2v1v2v2v1v2v2v1v2v2v1v2v2v2v1v2v2v1v2v2v2v1v2v2v2v1v2v2v2v1v2v2v2v1v2v2v2v2v1v2v2v2v2v2v1v2v2v2v2v1v2v2v2v2v2v2v1v2v2v2v2v2v2v9h84v-384zM554 864l-147 -177h-71l134 177h84zM368 864l-124 -177h-70l111 177h83z" />
    <glyph glyph-name="uhungarumlaut" unicode="&#x171;" horiz-adv-x="517" 
d="M67 458h82v-288q0 -58 22 -82t68 -24q73 0 125 50v344h82v-460l-82 -13v67q-67 -67 -154 -67q-66 0 -104.5 42t-38.5 116v315zM482 697l-147 -177h-71l134 177h84zM296 697l-124 -177h-70l111 177h83z" />
    <glyph glyph-name="Uogonek" unicode="&#x172;" horiz-adv-x="646" 
d="M568 241q0 -163 -114 -230q-80 -47 -80 -106q0 -49 45 -49q30 0 51 16l18 -62q-38 -27 -90 -27q-47 0 -76.5 26t-29.5 70q0 63 59 107q-5 0 -14.5 -0.5t-14.5 -0.5q-116 0 -180 66.5t-64 180.5v393h84v-380q0 -86 41.5 -133t123.5 -47q74 0 115.5 44t41.5 130v386h84
v-384z" />
    <glyph glyph-name="uogonek" unicode="&#x173;" horiz-adv-x="517" 
d="M67 458h82v-288q0 -58 22 -82t68 -24q73 0 125 50v344h82v-460q-44 -9 -83.5 -37.5t-39.5 -55.5q0 -49 45 -49q30 0 51 16l18 -62q-38 -27 -90 -27q-47 0 -76.5 26t-29.5 70q0 48 35.5 85.5t87.5 55.5v32q-67 -67 -154 -67q-66 0 -104.5 42t-38.5 116v315z" />
    <glyph glyph-name="Wcircumflex" unicode="&#x174;" horiz-adv-x="898" 
d="M450 520l-158 -520h-83l-178 625h89l135 -509l147 509h98l151 -509l133 509h83l-177 -625h-85zM611 687h-60l-98 127h-1l-99 -127h-60l115 187h88z" />
    <glyph glyph-name="wcircumflex" unicode="&#x175;" horiz-adv-x="684" 
d="M230 -2h-75l-141 460h88l97 -340l106 338h75l117 -339l84 341h91l-138 -460h-75l-117 342zM504 520h-60l-98 127h-1l-99 -127h-60l115 187h88z" />
    <glyph glyph-name="Ycircumflex" unicode="&#x176;" horiz-adv-x="540" 
d="M530 625l-217 -377v-248h-85v249l-218 376h96l166 -292l164 292h94zM434 687h-60l-98 127h-1l-99 -127h-60l115 187h88z" />
    <glyph glyph-name="ycircumflex" unicode="&#x177;" horiz-adv-x="441" 
d="M439 458l-183 -463l-31 -82q-32 -85 -69 -118t-92 -33q-44 0 -97 24l24 76q44 -22 73 -22q27 0 46.5 20.5t41.5 78.5l28 71l-178 448h88l133 -356l129 356h87zM379 520h-60l-98 127h-1l-99 -127h-60l115 187h88z" />
    <glyph glyph-name="Ydieresis" unicode="&#x178;" horiz-adv-x="540" 
d="M530 625l-217 -377v-248h-85v249l-218 376h96l166 -292l164 292h94zM434 754q0 -26 -17 -44.5t-43 -18.5t-43 18.5t-17 44.5t17 44t43 18t43 -18t17 -44zM230 754q0 -26 -17.5 -44.5t-43.5 -18.5t-43 18.5t-17 44.5q0 25 17 43.5t43 18.5t43.5 -18.5t17.5 -43.5z" />
    <glyph glyph-name="Zacute" unicode="&#x179;" horiz-adv-x="521" 
d="M482 0h-459v64l354 482h-348v79h454v-66l-353 -480h352v-79zM402 868l-146 -181h-60l106 181h100z" />
    <glyph glyph-name="zacute" unicode="&#x17a;" horiz-adv-x="410" 
d="M386 0h-365v70l266 313h-257v75h356v-68l-266 -315h266v-75zM340 701l-146 -181h-60l106 181h100z" />
    <glyph glyph-name="Zdotaccent" unicode="&#x17b;" horiz-adv-x="521" 
d="M482 0h-459v64l354 482h-348v79h454v-66l-353 -480h352v-79zM311 752q0 -25 -16 -42.5t-42 -17.5q-25 0 -41 17.5t-16 42.5t16 43t41 18q26 0 42 -18t16 -43z" />
    <glyph glyph-name="zdotaccent" unicode="&#x17c;" horiz-adv-x="410" 
d="M386 0h-365v70l266 313h-257v75h356v-68l-266 -315h266v-75zM260 585q0 -25 -16 -42.5t-42 -17.5q-25 0 -41 17.5t-16 42.5t16 43t41 18q26 0 42 -18t16 -43z" />
    <glyph glyph-name="Zcaron" unicode="&#x17d;" horiz-adv-x="521" 
d="M482 0h-459v64l354 482h-348v79h454v-66l-353 -480h352v-79zM409 874l-115 -187h-88l-115 187h60l98 -127h1l99 127h60z" />
    <glyph glyph-name="zcaron" unicode="&#x17e;" horiz-adv-x="410" 
d="M386 0h-365v70l266 313h-257v75h356v-68l-266 -315h266v-75zM357 707l-115 -187h-88l-115 187h60l98 -127h1l99 127h60z" />
    <glyph glyph-name="florin" unicode="&#x192;" horiz-adv-x="356" 
d="M87 140l36 190l-109 6l14 52l110 22l15 73q15 74 48.5 111t94.5 37q59 0 106 -35l-35 -69q-41 27 -71 27q-28 0 -43 -17.5t-24 -62.5l-13 -69h119l-11 -74h-122l-38 -198q-13 -67 -51.5 -104t-109.5 -47l-19 75q89 10 103 83z" />
    <glyph glyph-name="Aringacute" unicode="&#x1fa;" horiz-adv-x="574" 
d="M395 241l-107 296l-108 -296h215zM225 587q-60 31 -60 95q0 46 34 77.5t89 31.5q56 0 89 -31.5t34 -77.5q1 -30 -15 -55.5t-45 -39.5l218 -587h-87l-59 164h-271l-59 -164h-88zM361 683q0 28 -20 47t-53 19q-32 0 -51.5 -19t-19.5 -47t19.5 -47.5t51.5 -19.5
q33 0 53 19.5t20 47.5zM399 996l-146 -181h-60l106 181h100z" />
    <glyph glyph-name="aringacute" unicode="&#x1fb;" horiz-adv-x="451" 
d="M349 949l-146 -181h-60l106 181h100zM306 104v124q-102 -13 -144 -36.5t-42 -65.5q0 -31 22 -51t59 -20q59 0 105 49zM309 49h-4q-55 -64 -126 -64q-64 0 -105 37.5t-41 93.5q0 151 273 164v13q0 56 -24 80t-79 24q-72 0 -148 -51l-16 74q76 53 172 53q93 0 135.5 -42.5
t41.5 -135.5v-192q0 -29 7.5 -37t37.5 -8l-5 -69q-99 -8 -119 60zM338 631q1 -46 -33.5 -77.5t-90.5 -31.5t-90 31.5t-34 77.5q0 47 34 78.5t90 31.5t89.5 -31.5t34.5 -78.5zM286 632q0 28 -19.5 47t-52.5 19q-32 0 -51.5 -19t-19.5 -47t19.5 -47.5t51.5 -19.5
q33 0 52.5 19.5t19.5 47.5z" />
    <glyph glyph-name="AEacute" unicode="&#x1fc;" horiz-adv-x="832" 
d="M222 242h172v305zM177 163l-91 -163h-94l357 625h441v-79h-312v-193h260v-79h-260v-195h312v-79h-396v163h-217zM652 868l-146 -181h-60l106 181h100z" />
    <glyph glyph-name="aeacute" unicode="&#x1fd;" horiz-adv-x="754" 
d="M354 79q-27 -41 -72 -67.5t-103 -26.5q-64 0 -105 37.5t-41 93.5q0 154 283 164v10q0 59 -27.5 83t-85.5 24q-72 0 -148 -51l-16 74q76 53 172 53q124 0 161 -77q60 77 167 77q82 0 128.5 -48t46.5 -131q0 -40 -10 -73l-308 -2v-4q2 -68 43.5 -111t107.5 -43q81 0 137 38
l15 -76q-62 -38 -154 -38q-125 0 -191 94zM400 279l235 2v7q0 53 -26 83t-78 30q-55 0 -90 -36.5t-41 -85.5zM316 228q-105 -10 -150.5 -34.5t-45.5 -67.5q0 -32 23 -51.5t63 -19.5q33 0 69 19.5t56 46.5q-5 14 -10 51t-5 56zM529 701l-146 -181h-60l106 181h100z" />
    <glyph glyph-name="Oslashacute" unicode="&#x1fe;" horiz-adv-x="720" 
d="M677 315q0 -141 -88.5 -235.5t-225.5 -94.5q-74 0 -140 29l-46 -81h-64l62 108q-60 43 -93 112.5t-33 157.5q0 141 88.5 235t225.5 94q72 0 140 -29l47 81h64l-62 -108q125 -91 125 -269zM464 542q-45 22 -103 22q-100 0 -163.5 -68.5t-63.5 -180.5q0 -131 82 -202z
M510 512l-248 -429q45 -22 103 -22q100 0 163 69t63 181q0 131 -81 201zM530 868l-146 -181h-60l106 181h100z" />
    <glyph glyph-name="oslashacute" unicode="&#x1ff;" horiz-adv-x="528" 
d="M490 229q0 -109 -63.5 -176.5t-161.5 -67.5q-50 0 -94 19l-41 -71h-66q4 6 10 17t19 33t21 37l8 15q-78 67 -78 194q0 110 63 177.5t163 67.5q50 0 94 -19l41 71h66l-59 -102q78 -68 78 -195zM326 388q-26 12 -60 12q-67 0 -104 -47t-37 -123q0 -80 37 -126zM409 228
q0 80 -37 126l-163 -284q27 -11 59 -11q67 0 104 46.5t37 122.5zM384 701l-146 -181h-60l106 181h100z" />
    <glyph glyph-name="Scommaaccent" unicode="&#x218;" horiz-adv-x="509" 
d="M247 61q59 0 97.5 29.5t38.5 75.5t-34 69.5t-116 45.5q-40 11 -68 22.5t-58 32t-45.5 53t-15.5 75.5q0 79 58 127.5t151 48.5q108 0 197 -55l-30 -74q-78 52 -166 52q-64 0 -95.5 -25.5t-31.5 -67.5q0 -44 34.5 -66.5t117.5 -45.5q83 -22 133.5 -64t50.5 -122
q0 -82 -61 -134.5t-159 -52.5q-116 0 -209 59l28 77q91 -60 183 -60zM193 -100q3 19 18 34t39 15q30 0 50.5 -21.5t20.5 -53.5q0 -78 -108 -142l-30 26q65 43 65 86q0 19 -11 30.5t-44 25.5z" />
    <glyph glyph-name="scommaaccent" unicode="&#x219;" horiz-adv-x="401" 
d="M364 130q0 -65 -48.5 -105.5t-124.5 -40.5q-91 0 -160 43l21 75q63 -43 141 -43q40 0 65.5 17.5t25.5 47.5q0 16 -8 28.5t-26.5 21.5t-32.5 14t-41 12q-61 17 -98.5 47t-37.5 87q0 63 47 101t117 38q80 0 148 -34l-21 -75q-62 34 -131 34q-37 0 -59 -15t-22 -42
q0 -30 26.5 -45t79.5 -29q62 -17 100.5 -47.5t38.5 -89.5zM128 -100q3 19 18 34t39 15q30 0 50.5 -21.5t20.5 -53.5q0 -78 -108 -142l-30 26q65 43 65 86q0 19 -11 30.5t-44 25.5z" />
    <glyph glyph-name="uni021A" unicode="&#x21a;" horiz-adv-x="560" 
d="M541 545h-219v-545h-84v545h-219v80h522v-80zM218 -100q3 19 18 34t39 15q30 0 50.5 -21.5t20.5 -53.5q0 -78 -108 -142l-30 26q65 43 65 86q0 19 -11 30.5t-44 25.5z" />
    <glyph glyph-name="uni021B" unicode="&#x21b;" horiz-adv-x="339" 
d="M312 5q-52 -20 -103 -20q-137 0 -133 143l7 256l-76 5l3 52l76 23l2 99h79l-3 -105h143l-3 -74h-143l-7 -259q-2 -65 60 -65q37 0 83 17zM130 -100q3 19 18 34t39 15q30 0 50.5 -21.5t20.5 -53.5q0 -78 -108 -142l-30 26q65 43 65 86q0 19 -11 30.5t-44 25.5z" />
    <glyph glyph-name="dotlessj" unicode="&#x237;" horiz-adv-x="221" 
d="M46 -249l-55 58q44 21 62 57t18 109v1v1v1v1v1v1v1v1v1v1v1v1v1v1v1v1v1v1v1v1v1v1v1v1v1v1v1v1v1v1v1v1v1v1v1v1v1v1v1v1v1v1v1v1v1v1v1v1v1v1v1v1v1v1v1v1v1v1v1v1v1v1v1v1v1v1v1v1v1v1v1v1v1v1v1v1v1v1v1v1v1v1v1v1v1v1v1v1v1v1v1v2v1v1v1v1v1v1v1v1v1v2v1v1v1v1v1v1
v1v2v1v1v1v1v1v2v1v1v1v1v2v1v1v1v1v2v1v1v1v2v1v1v1v2v1v1v1v2v1v1v1v2v1v1v2v1v1v1v2v1v1v2v1v1v2v1v1v2v1v1v2v1v1v2v1v1v2v1v2v1v1v2v1v1v2v1v2v1v1v2v1v2v1v2v1v1v2v1v2v1v2v1v2v1v1v2v1v2v1v2v1v2v1v2v1v2v1v2v1v2v1v2v1v2v1v2v1v2v1v2v1v2v2v1v2v1v2v1v2v1v2v2v1v2v1
v2v1v2v2v1v2v1v2v2v1v2v1v2v2v1v2v2v1v2v2v1v2v1v2v2v1v2v2v1v2v2v1v2v2v1v2v2v1v2v2v2v1v2v2v1v2v2v2v1v2v2v1v2v2v2v1v2v2v2v1v2v2v2v1v2v2v2v1v2v2v2v2v1v2v2v2v2v1v2v2v2v2v1v2v2v2v2v2v1v2v2v2v2v2v1v2v2v2v2v2v2v1v2v2v2v2v2v2v2v1v9l82 13v-1v-1v-1v-1v-1v-1v-1v-1
v-1v-1v-1v-1v-1v-1v-1v-1v-1v-1v-1v-1v-1v-1v-1v-1v-1v-1v-1v-1v-1v-1v-1v-1v-1v-1v-1v-1v-1v-1v-1v-1v-1v-1v-1v-1v-1v-1v-1v-1v-1v-1v-1v-1v-1v-1v-1v-1v-1v-1v-1v-1v-1v-1v-1v-1v-1v-1v-1v-1v-1v-1v-1v-1v-1v-1v-1v-1v-1v-1v-1v-1v-1v-1v-1v-1v-1v-1v-1v-2v-1v-1v-1v-1
v-1v-1v-1v-1v-1v-1v-2v-1v-1v-1v-1v-1v-1v-2v-1v-1v-1v-1v-1v-2v-1v-1v-1v-1v-2v-1v-1v-1v-1v-2v-1v-1v-1v-2v-1v-1v-1v-2v-1v-1v-1v-2v-1v-1v-2v-1v-1v-1v-2v-1v-1v-2v-1v-1v-2v-1v-1v-2v-1v-1v-2v-1v-1v-2v-1v-2v-1v-1v-2v-1v-1v-2v-1v-2v-1v-1v-2v-1v-2v-1v-1v-2v-1v-2
v-1v-2v-1v-2v-1v-1v-2v-1v-2v-1v-2v-1v-2v-1v-2v-1v-2v-1v-2v-1v-2v-1v-2v-1v-2v-1v-2v-1v-2v-1v-2v-2v-1v-2v-1v-2v-1v-2v-1v-2v-2v-1v-2v-1v-2v-2v-1v-2v-1v-2v-2v-1v-2v-1v-2v-2v-1v-2v-2v-1v-2v-1v-2v-2v-1v-2v-2v-1v-2v-2v-1v-2v-2v-2v-1v-2v-2v-1v-2v-2v-1v-2v-2v-2
v-1v-2v-2v-2v-1v-2v-2v-1v-2v-2v-2v-2v-1v-2v-2v-2v-1v-2v-2v-2v-2v-1v-2v-2v-2v-2v-1v-2v-2v-2v-2v-2v-1v-2v-2v-2v-2v-2v-2v-1v-2v-2v-2v-2v-2v-2v-2v-2v-2v-1v-2v-2v-2v-2v-2v-2v-2v-2v-2v-2v-2v-2v-2v-2v-2v-2v-2v-2v-2v-2v-2v-2v-2v-3v-2v-2v-2v-2v-2v-10
q0 -97 -24 -147.5t-83 -82.5z" />
    <glyph glyph-name="circumflex" unicode="&#x2c6;" horiz-adv-x="394" 
d="M359 520h-60l-98 127h-1l-99 -127h-60l115 187h88z" />
    <glyph glyph-name="caron" unicode="&#x2c7;" horiz-adv-x="394" 
d="M359 707l-115 -187h-88l-115 187h60l98 -127h1l99 127h60z" />
    <glyph glyph-name="breve" unicode="&#x2d8;" horiz-adv-x="394" 
d="M360 706q-11 -85 -51 -136t-109 -51t-109 51t-51 136h67q22 -122 93 -122q37 0 60.5 34t32.5 88h67z" />
    <glyph glyph-name="dotaccent" unicode="&#x2d9;" horiz-adv-x="394" 
d="M257 585q0 -25 -16 -42.5t-42 -17.5q-25 0 -41 17.5t-16 42.5t16 43t41 18q26 0 42 -18t16 -43z" />
    <glyph glyph-name="ring" unicode="&#x2da;" horiz-adv-x="394" 
d="M324 631q1 -46 -33.5 -77.5t-90.5 -31.5t-90 31.5t-34 77.5q0 47 34 78.5t90 31.5t89.5 -31.5t34.5 -78.5zM272 632q0 28 -19.5 47t-52.5 19q-32 0 -51.5 -19t-19.5 -47t19.5 -47.5t51.5 -19.5q33 0 52.5 19.5t19.5 47.5z" />
    <glyph glyph-name="ogonek" unicode="&#x2db;" horiz-adv-x="400" 
d="M224 -217q-47 0 -76.5 26t-29.5 70q0 51 39.5 90t94.5 55h43q-95 -60 -95 -119q0 -49 45 -49q30 0 51 16l18 -62q-38 -27 -90 -27z" />
    <glyph glyph-name="tilde" unicode="&#x2dc;" horiz-adv-x="394" 
d="M371 649q-7 -65 -29.5 -95.5t-67.5 -30.5q-34 0 -86 34.5t-67 34.5q-29 0 -38 -62h-1h-1h-1h-1h-1h-1h-1h-1h-1h-1h-2h-1h-1h-2h-1h-1h-2h-1h-2h-2h-1h-2h-2h-1h-2h-2h-2h-2h-2h-2h-2h-10q7 66 29.5 96.5t67.5 30.5q34 0 86 -35t67 -35q29 0 37 62h1h1h1h1h1h1h1h1h1h1h1
h1h1h2h1h1h2h1h1h2h2h1h2h1h2h2h1h2h2h2h2h2h2h2h8z" />
    <glyph glyph-name="hungarumlaut" unicode="&#x2dd;" horiz-adv-x="394" 
d="M451 697l-147 -177h-71l134 177h84zM265 697l-124 -177h-70l111 177h83z" />
    <glyph glyph-name="Wgrave" unicode="&#x1e80;" horiz-adv-x="898" 
d="M450 520l-158 -520h-83l-178 625h89l135 -509l147 509h98l151 -509l133 509h83l-177 -625h-85zM495 687h-60l-146 181h100z" />
    <glyph glyph-name="wgrave" unicode="&#x1e81;" horiz-adv-x="684" 
d="M230 -2h-75l-141 460h88l97 -340l106 338h75l117 -339l84 341h91l-138 -460h-75l-117 342zM378 520h-60l-146 181h100z" />
    <glyph glyph-name="Wacute" unicode="&#x1e82;" horiz-adv-x="898" 
d="M450 520l-158 -520h-83l-178 625h89l135 -509l147 509h98l151 -509l133 509h83l-177 -625h-85zM614 868l-146 -181h-60l106 181h100z" />
    <glyph glyph-name="wacute" unicode="&#x1e83;" horiz-adv-x="684" 
d="M230 -2h-75l-141 460h88l97 -340l106 338h75l117 -339l84 341h91l-138 -460h-75l-117 342zM504 701l-146 -181h-60l106 181h100z" />
    <glyph glyph-name="Wdieresis" unicode="&#x1e84;" horiz-adv-x="898" 
d="M450 520l-158 -520h-83l-178 625h89l135 -509l147 509h98l151 -509l133 509h83l-177 -625h-85zM614 754q0 -26 -17 -44.5t-43 -18.5t-43 18.5t-17 44.5t17 44t43 18t43 -18t17 -44zM410 754q0 -26 -17.5 -44.5t-43.5 -18.5t-43 18.5t-17 44.5q0 25 17 43.5t43 18.5
t43.5 -18.5t17.5 -43.5z" />
    <glyph glyph-name="wdieresis" unicode="&#x1e85;" horiz-adv-x="684" 
d="M230 -2h-75l-141 460h88l97 -340l106 338h75l117 -339l84 341h91l-138 -460h-75l-117 342zM507 587q0 -26 -17 -44.5t-43 -18.5t-43 18.5t-17 44.5t17 44t43 18t43 -18t17 -44zM303 587q0 -26 -17.5 -44.5t-43.5 -18.5t-43 18.5t-17 44.5q0 25 17 43.5t43 18.5
t43.5 -18.5t17.5 -43.5z" />
    <glyph glyph-name="thinspace" unicode="&#x2009;" horiz-adv-x="76" 
 />
    <glyph glyph-name="endash" unicode="&#x2013;" horiz-adv-x="461" 
d="M433 207h-403l3 59h397z" />
    <glyph glyph-name="emdash" unicode="&#x2014;" horiz-adv-x="931" 
d="M903 207h-873l3 59h867z" />
    <glyph glyph-name="quoteleft" unicode="&#x2018;" horiz-adv-x="220" 
d="M179 438q-3 -26 -20.5 -42.5t-47.5 -16.5q-32 0 -58.5 26.5t-26.5 64.5q0 98 149 195l34 -34q-101 -73 -101 -127q0 -19 15.5 -33t55.5 -33z" />
    <glyph glyph-name="quoteright" unicode="&#x2019;" horiz-adv-x="220" 
d="M41 608q3 26 20.5 42.5t47.5 16.5q32 0 58.5 -26.5t26.5 -64.5q0 -97 -148 -195l-35 34q102 74 102 127q0 19 -15.5 33t-56.5 33z" />
    <glyph glyph-name="quotesinglbase" unicode="&#x201a;" horiz-adv-x="220" 
d="M41 72q3 26 20.5 42.5t47.5 16.5q32 0 58.5 -26.5t26.5 -64.5q0 -97 -148 -195l-35 34q102 74 102 127q0 19 -15.5 33t-56.5 33z" />
    <glyph glyph-name="quotedblleft" unicode="&#x201c;" horiz-adv-x="434" 
d="M393 438q-3 -26 -20.5 -42.5t-47.5 -16.5q-32 0 -58.5 26.5t-26.5 64.5q0 98 149 195l34 -34q-101 -73 -101 -127q0 -19 15.5 -33t55.5 -33zM179 438q-3 -26 -20.5 -42.5t-47.5 -16.5q-32 0 -58.5 26.5t-26.5 64.5q0 98 149 195l34 -34q-101 -73 -101 -127
q0 -19 15.5 -33t55.5 -33z" />
    <glyph glyph-name="quotedblright" unicode="&#x201d;" horiz-adv-x="434" 
d="M255 608q3 26 20.5 42.5t47.5 16.5q32 0 58.5 -26.5t26.5 -64.5q0 -97 -148 -195l-35 34q102 74 102 127q0 19 -15.5 33t-56.5 33zM41 608q3 26 20.5 42.5t47.5 16.5q32 0 58.5 -26.5t26.5 -64.5q0 -97 -148 -195l-35 34q102 74 102 127q0 19 -15.5 33t-56.5 33z" />
    <glyph glyph-name="quotedblbase" unicode="&#x201e;" horiz-adv-x="420" 
d="M255 72q3 26 20.5 42.5t47.5 16.5q32 0 58.5 -26.5t26.5 -64.5q0 -97 -148 -195l-35 34q102 74 102 127q0 19 -15.5 33t-56.5 33zM41 72q3 26 20.5 42.5t47.5 16.5q32 0 58.5 -26.5t26.5 -64.5q0 -97 -148 -195l-35 34q102 74 102 127q0 19 -15.5 33t-56.5 33z" />
    <glyph glyph-name="dagger" unicode="&#x2020;" horiz-adv-x="463" 
d="M201 386h-166l-3 56h169v183h60v-183h170l-3 -56h-167v-512h-60v512z" />
    <glyph glyph-name="daggerdbl" unicode="&#x2021;" horiz-adv-x="463" 
d="M201 401h-166l-3 56h169v168h60v-168h170l-3 -56h-167v-304h167l3 -56h-170v-167h-60v167h-169l3 56h166v304z" />
    <glyph glyph-name="bullet" unicode="&#x2022;" horiz-adv-x="449" 
d="M417 232q0 -22 -20 -71.5t-36 -65.5q-15 -15 -65 -35.5t-72 -20.5q-21 0 -71 20.5t-64 35.5q-15 16 -36 66t-21 71q0 22 21 71.5t36 64.5t65 35.5t71 20.5q22 0 71.5 -20.5t64.5 -35.5t35.5 -64.5t20.5 -71.5z" />
    <glyph glyph-name="ellipsis" unicode="&#x2026;" horiz-adv-x="672" 
d="M627 50q0 -26 -18 -45.5t-46 -19.5q-27 0 -46 19.5t-19 45.5t19 44.5t46 18.5q28 0 46 -18.5t18 -44.5zM401 50q0 -26 -18 -45.5t-45 -19.5q-28 0 -47 19.5t-19 45.5t19 44.5t47 18.5q27 0 45 -18.5t18 -44.5zM175 50q0 -26 -18 -45.5t-45 -19.5q-28 0 -46.5 19.5
t-18.5 45.5t18.5 44.5t46.5 18.5q27 0 45 -18.5t18 -44.5z" />
    <glyph glyph-name="perthousand" unicode="&#x2030;" horiz-adv-x="1120" 
d="M346 482q0 -69 -45.5 -117t-120.5 -48q-74 0 -120 48t-46 117q0 70 45.5 118.5t120.5 48.5t120.5 -48t45.5 -119zM651 639l-498 -654h-63l498 654h63zM726 142q0 -70 -45.5 -118.5t-120.5 -48.5t-120.5 48t-45.5 119q0 69 45.5 117t120.5 48q74 0 120 -48t46 -117z
M292 482q0 49 -30.5 82t-81.5 33t-81.5 -33t-30.5 -82q0 -47 30.5 -80t81.5 -33t81.5 33t30.5 80zM672 142q0 47 -30.5 80t-81.5 33t-81.5 -33t-30.5 -80q0 -49 30.5 -82t81.5 -33t81.5 33t30.5 82zM1106 142q0 -70 -45.5 -118.5t-120.5 -48.5t-120.5 48t-45.5 119
q0 69 45.5 117t120.5 48q74 0 120 -48t46 -117zM1052 142q0 47 -30.5 80t-81.5 33t-81.5 -33t-30.5 -80q0 -49 30.5 -82t81.5 -33t81.5 33t30.5 82z" />
    <glyph glyph-name="guilsinglleft" unicode="&#x2039;" horiz-adv-x="342" 
d="M300 85l-8 -60l-262 162v94l262 162l8 -60l-200 -148v-2z" />
    <glyph glyph-name="guilsinglright" unicode="&#x203a;" horiz-adv-x="342" 
d="M312 187l-262 -162l-8 60l200 148v2l-200 148l8 60l262 -162v-94z" />
    <glyph glyph-name="fraction" unicode="&#x2044;" horiz-adv-x="575" 
d="M568 639l-499 -654h-62l500 654h61z" />
    <glyph glyph-name="zerosuperior" unicode="&#x2070;" horiz-adv-x="330" 
d="M309 462q0 -92 -38.5 -145t-106.5 -53t-105.5 52t-37.5 145q0 92 39 144.5t106 52.5t105 -52t38 -144zM244 460q0 76 -22 112.5t-58 36.5q-78 0 -78 -148q0 -74 22 -109.5t58 -35.5q78 0 78 144z" />
    <glyph glyph-name="foursuperior" unicode="&#x2074;" horiz-adv-x="330" 
d="M322 367h-60v-94h-59v94h-183l-6 42l174 244h74v-236h58zM203 417v174l-124 -174h124z" />
    <glyph glyph-name="fivesuperior" unicode="&#x2075;" horiz-adv-x="330" 
d="M107 497q44 4 45 4q64 0 103 -30t39 -82q0 -55 -40.5 -90t-107.5 -35q-69 0 -116 25l10 55q48 -27 105 -27q38 0 61 18t23 52q0 30 -23.5 47.5t-65.5 17.5q-52 0 -88 -15l-11 10l27 203h219l2 -55h-168z" />
    <glyph glyph-name="sixsuperior" unicode="&#x2076;" horiz-adv-x="330" 
d="M24 424q0 83 59.5 148t169.5 87l16 -51q-149 -31 -180 -136l3 -1q45 38 102 38q50 0 82.5 -32t32.5 -84q0 -56 -38.5 -92.5t-101.5 -36.5q-70 0 -107.5 45t-37.5 115zM89 406q0 -39 22 -65t61 -26q32 0 52 20.5t20 53.5t-18.5 51t-51.5 18q-49 0 -82 -29q-3 -11 -3 -23z
" />
    <glyph glyph-name="sevensuperior" unicode="&#x2077;" horiz-adv-x="330" 
d="M237 595h-213l2 55h273l5 -49l-181 -328h-65z" />
    <glyph glyph-name="eightsuperior" unicode="&#x2078;" horiz-adv-x="330" 
d="M308 374q0 -48 -37.5 -79t-106.5 -31q-68 0 -105 29t-37 75q0 63 80 94q-73 34 -73 87q0 49 37 79.5t102 30.5q64 0 98.5 -29t34.5 -75q0 -59 -72 -90q37 -18 58 -38.5t21 -52.5zM238 550q0 27 -20.5 44t-51.5 17q-34 0 -53 -16.5t-19 -40.5q0 -49 92 -72q52 23 52 68z
M244 369q0 51 -98 77q-60 -23 -60 -71q0 -28 22.5 -45t58.5 -17q77 0 77 56z" />
    <glyph glyph-name="ninesuperior" unicode="&#x2079;" horiz-adv-x="330" 
d="M306 500q0 -84 -60 -149.5t-170 -86.5l-15 51q149 32 179 136h-2q-45 -37 -103 -37q-49 0 -81.5 31.5t-32.5 83.5q0 57 38 93.5t101 36.5q70 0 108 -45t38 -114zM240 517q0 38 -21.5 64.5t-60.5 26.5q-33 0 -52.5 -20.5t-19.5 -53.5q0 -32 18.5 -51t51.5 -19q47 0 82 29
q2 8 2 24z" />
    <glyph glyph-name="plussuperior" unicode="&#x207a;" horiz-adv-x="330" 
d="M300 440h-103v-105h-43v105h-104l1 43h103v104h43v-104h101z" />
    <glyph glyph-name="minussuperior" unicode="&#x207b;" horiz-adv-x="330" 
d="M300 440h-250l1 43h247z" />
    <glyph glyph-name="zeroinferior" unicode="&#x2080;" horiz-adv-x="330" 
d="M309 46q0 -92 -38.5 -145t-106.5 -53t-105.5 52t-37.5 145q0 92 39 144.5t106 52.5t105 -52t38 -144zM244 44q0 76 -22 112.5t-58 36.5q-78 0 -78 -148q0 -74 22 -109.5t58 -35.5q78 0 78 144z" />
    <glyph glyph-name="oneinferior" unicode="&#x2081;" horiz-adv-x="330" 
d="M159 -143v311l-101 -23l-2 55l168 39v-382h-65z" />
    <glyph glyph-name="twoinferior" unicode="&#x2082;" horiz-adv-x="330" 
d="M296 -143h-267l-2 54q19 17 48.5 42t43.5 37t34 30.5t29 29t19 25t13.5 26.5t3.5 25q0 28 -19.5 45t-51.5 17q-48 0 -96 -39l-22 50q52 43 126 43q59 0 94 -31t35 -81q0 -26 -9.5 -48t-38.5 -52t-52.5 -50.5t-82.5 -68.5q-1 0 18.5 0h48h57.5h49h20z" />
    <glyph glyph-name="threeinferior" unicode="&#x2083;" horiz-adv-x="330" 
d="M179 56q58 0 89 -26t31 -65q0 -53 -44 -85t-110 -32q-68 0 -118 26l11 52q56 -25 107 -25q38 0 63 16t25 45q0 27 -23.5 43.5t-67.5 16.5q-17 -1 -61 -6v47q67 14 101.5 32t34.5 46q0 48 -68 48q-53 0 -97 -36l-24 51q56 38 125 38q59 0 94.5 -24.5t35.5 -67.5
q0 -68 -104 -94z" />
    <glyph glyph-name="fourinferior" unicode="&#x2084;" horiz-adv-x="330" 
d="M322 -49h-60v-94h-59v94h-183l-6 42l174 244h74v-236h58zM203 1v174l-124 -174h124z" />
    <glyph glyph-name="fiveinferior" unicode="&#x2085;" horiz-adv-x="330" 
d="M107 81q44 4 45 4q64 0 103 -30t39 -82q0 -55 -40.5 -90t-107.5 -35q-69 0 -116 25l10 55q48 -27 105 -27q38 0 61 18t23 52q0 30 -23.5 47.5t-65.5 17.5q-52 0 -88 -15l-11 10l27 203h219l2 -55h-168z" />
    <glyph glyph-name="sixinferior" unicode="&#x2086;" horiz-adv-x="330" 
d="M24 8q0 83 59.5 148t169.5 87l16 -51q-149 -31 -180 -136l3 -1q45 38 102 38q50 0 82.5 -32t32.5 -84q0 -56 -38.5 -92.5t-101.5 -36.5q-70 0 -107.5 45t-37.5 115zM89 -10q0 -39 22 -65t61 -26q32 0 52 20.5t20 53.5t-18.5 51t-51.5 18q-49 0 -82 -29q-3 -11 -3 -23z
" />
    <glyph glyph-name="seveninferior" unicode="&#x2087;" horiz-adv-x="330" 
d="M237 179h-213l2 55h273l5 -49l-181 -328h-65z" />
    <glyph glyph-name="eightinferior" unicode="&#x2088;" horiz-adv-x="330" 
d="M308 -42q0 -48 -37.5 -79t-106.5 -31q-68 0 -105 29t-37 75q0 63 80 94q-73 34 -73 87q0 49 37 79.5t102 30.5q64 0 98.5 -29t34.5 -75q0 -59 -72 -90q37 -18 58 -38.5t21 -52.5zM238 134q0 27 -20.5 44t-51.5 17q-34 0 -53 -16.5t-19 -40.5q0 -49 92 -72q52 23 52 68z
M244 -47q0 51 -98 77q-60 -23 -60 -71q0 -28 22.5 -45t58.5 -17q77 0 77 56z" />
    <glyph glyph-name="nineinferior" unicode="&#x2089;" horiz-adv-x="330" 
d="M306 84q0 -84 -60 -149.5t-170 -86.5l-15 51q149 32 179 136h-2q-45 -37 -103 -37q-49 0 -81.5 31.5t-32.5 83.5q0 57 38 93.5t101 36.5q70 0 108 -45t38 -114zM240 101q0 38 -21.5 64.5t-60.5 26.5q-33 0 -52.5 -20.5t-19.5 -53.5q0 -32 18.5 -51t51.5 -19q47 0 82 29
q2 8 2 24z" />
    <glyph glyph-name="Euro" unicode="&#x20ac;" horiz-adv-x="502" 
d="M105 369h-1h-1h-1h-1h-1h-1h-1h-1h-1h-1h-1h-1h-1h-1h-2h-1h-1h-1h-1h-2h-1h-1h-1h-2h-1h-2h-1h-1h-2h-1h-2h-1h-2h-1h-2h-1h-2h-2h-1h-2h-2h-1h-2h-2h-1h-2h-2h-9l-3 55h83q21 110 81.5 163t145.5 53q91 0 153 -38l-20 -73q-56 37 -133 37q-115 0 -144 -142h227l-3 -55
h-231q-2 -32 -2 -52q0 -32 3 -59h200l3 -55h-195q32 -144 141 -144q80 0 137 37l14 -74q-62 -37 -153 -37q-192 0 -226 218h-81l3 55h72q-2 32 -2 51q0 22 2 60z" />
    <glyph glyph-name="trademark" unicode="&#x2122;" horiz-adv-x="949" 
d="M863 252h-64l1 305h-11l-106 -294h-70l-93 293h-11l-5 -304h-58l7 374h114l80 -289h11l92 289h108zM395 565h-150v-313h-63v313h-139v61h352v-61z" />
    <glyph glyph-name="minus" unicode="&#x2212;" horiz-adv-x="484" 
d="M446 199h-406l3 71h400z" />
    <glyph glyph-name="uni2215" unicode="&#x2215;" horiz-adv-x="575" 
d="M568 639l-499 -654h-62l500 654h61z" />
    <glyph glyph-name="approxequal" unicode="&#x2248;" horiz-adv-x="484" 
d="M425 210q-10 -52 -41 -83t-70 -31q-29 0 -80.5 24.5t-66.5 24.5q-35 0 -46 -44h-62q10 52 41 83t70 31q29 0 82 -24.5t65 -24.5q17 0 28 8.5t19 35.5h61zM425 368q-10 -52 -41 -83t-70 -31q-29 0 -80.5 24.5t-66.5 24.5q-35 0 -46 -44h-62q10 52 41 83t70 31
q29 0 82 -24.5t65 -24.5q17 0 28 8.5t19 35.5h61z" />
    <glyph glyph-name="notequal" unicode="&#x2260;" horiz-adv-x="464" 
d="M134 -33l37 141h-137l5 71h150l29 111h-179l-5 71h203l34 131h71l-34 -131h124l-5 -71h-138l-29 -111h167l5 -71h-190l-37 -141h-71z" />
    <glyph glyph-name="lessequal" unicode="&#x2264;" horiz-adv-x="484" 
d="M422 161v-72l-361 152v88l361 152v-73l-285 -119v-9zM423 0h-355l3 68h349z" />
    <glyph glyph-name="greaterequal" unicode="&#x2265;" horiz-adv-x="484" 
d="M62 89v72l285 119v9l-285 119v73l361 -152v-88zM416 0h-355l3 68h349z" />
    <glyph glyph-name="pcircle" unicode="&#x24df;" horiz-adv-x="728" 
d="M364 -16q-136 0 -231.5 95.5t-95.5 231.5t95.5 232t231.5 96t231.5 -96t95.5 -232t-95.5 -231.5t-231.5 -95.5zM661 311q0 123 -87 211.5t-210 88.5t-210 -88.5t-87 -211.5t87 -211t210 -88t210 88t87 211zM519 365q0 -61 -39 -93t-109 -32h-50v-112h-62v354h116
q71 0 107.5 -32t36.5 -85zM456 363q0 64 -85 64h-51v-133l55 1q81 1 81 68z" />
    <glyph glyph-name="commaaccent" unicode="&#xf6c3;" horiz-adv-x="394" 
d="M135 -100q3 19 18 34t39 15q30 0 50.5 -21.5t20.5 -53.5q0 -78 -108 -142l-30 26q65 43 65 86q0 19 -11 30.5t-44 25.5z" />
    <glyph glyph-name="ff" unicode="&#xfb00;" horiz-adv-x="642" 
d="M170 384v-384h-82v383l-80 6l4 52l75 22l1 48q3 175 151 175q44 0 92 -22q0 -1 -5 -20t-10 -37.5t-5 -17.5q-47 20 -73 20q-35 0 -51.5 -23t-16.5 -74v-54h243l1 63q3 175 151 175q44 0 92 -22q0 -1 -5 -20t-10 -37.5t-5 -17.5q-47 20 -73 20q-35 0 -51.5 -23t-16.5 -74
v-64h145l-3 -74h-142v-384h-82v384h-244z" />
    <glyph glyph-name="fi" unicode="&#xfb01;" horiz-adv-x="537" 
d="M482 618q0 -25 -14 -42t-40 -17t-40 17t-14 42t14 42t40 17t40 -17t14 -42zM331 674q0 -1 -5 -20t-10 -37.5t-5 -17.5q-47 20 -73 20q-35 0 -51.5 -23t-16.5 -74v-64h145l-3 -74h-142v-384h-82v383l-80 6l4 52l75 22l1 58q3 175 151 175q44 0 92 -22zM469 0h-82v460
l82 13v-473z" />
    <glyph glyph-name="fl" unicode="&#xfb02;" horiz-adv-x="540" 
d="M331 674q0 -1 -5 -20t-10 -37.5t-5 -17.5q-47 20 -73 20q-35 0 -51.5 -23t-16.5 -74v-64h145l-3 -74h-142v-384h-82v383l-80 6l4 52l75 22l1 58q3 175 151 175q44 0 92 -22zM469 0h-82v674l82 13v-687z" />
    <glyph glyph-name="ffi" unicode="&#xfb03;" horiz-adv-x="863" 
d="M808 618q0 -25 -14 -42t-40 -17t-40 17t-14 42t14 42t40 17t40 -17t14 -42zM170 384v-384h-82v383l-80 6l4 52l75 22l1 48q3 175 151 175q44 0 92 -22q0 -1 -5 -20t-10 -37.5t-5 -17.5q-47 20 -73 20q-35 0 -51.5 -23t-16.5 -74v-54h243l1 63q3 175 151 175q44 0 92 -22
q0 -1 -5 -20t-10 -37.5t-5 -17.5q-47 20 -73 20q-35 0 -51.5 -23t-16.5 -74v-64h145l-3 -74h-142v-384h-82v384h-244zM795 0h-82v460l82 13v-473z" />
    <glyph glyph-name="ffl" unicode="&#xfb04;" horiz-adv-x="866" 
d="M170 384v-384h-82v383l-80 6l4 52l75 22l1 48q3 175 151 175q44 0 92 -22q0 -1 -5 -20t-10 -37.5t-5 -17.5q-47 20 -73 20q-35 0 -51.5 -23t-16.5 -74v-54h243l1 63q3 175 151 175q44 0 92 -22q0 -1 -5 -20t-10 -37.5t-5 -17.5q-47 20 -73 20q-35 0 -51.5 -23t-16.5 -74
v-64h145l-3 -74h-142v-384h-82v384h-244zM795 0h-82v674l82 13v-687z" />
    <glyph glyph-name="J.alt" horiz-adv-x="371" 
d="M308 177q0 -95 -44.5 -143.5t-128.5 -48.5q-63 0 -118 33l12 81q54 -36 104 -36q47 0 69 27.5t22 87.5v447h84v-448z" />
    <glyph glyph-name="a.alt" horiz-adv-x="526" 
d="M373 366q-43 35 -102 35q-67 0 -106 -49t-39 -123q0 -77 36.5 -123.5t99.5 -46.5q58 0 111 46v1v1v1v1v1v1v1v1v1v1v1v1v1v1v1v1v1v1v1v1v1v1v1v1v1v1v1v1v1v1v1v1v1v1v1v1v1v1v1v1v1v1v1v1v1v1v1v1v1v1v1v1v1v1v1v2v1v1v1v1v1v2v1v1v1v1v1v2v1v1v1v2v1v1v1v2v1v1v2v1v1
v1v2v1v1v2v1v1v2v1v2v1v1v2v1v1v2v1v2v1v2v1v1v2v1v2v1v2v1v2v1v2v1v2v1v2v1v2v1v2v1v2v2v1v2v1v2v1v2v2v1v2v1v2v2v1v2v1v2v2v1v2v2v1v2v2v1v2v2v2v1v2v2v1v2v2v2v1v2v2v2v1v2v2v2v1v2v2v2v2v1v2v2v2v2v1v2v2v2v2v2v1v2v2v9zM245 -15q-95 0 -149.5 68t-54.5 174
q0 105 65.5 175.5t167.5 70.5q55 0 117 -17l64 17v-370q0 -29 7.5 -37t37.5 -8l-5 -69q-52 -4 -83.5 13.5t-38.5 46.5q-55 -64 -128 -64z" />
    <glyph glyph-name="g.alt" horiz-adv-x="528" 
d="M457 -4q0 -234 -211 -234q-86 0 -160 38l21 76q65 -37 139 -37q129 0 129 150v55q-61 -57 -128 -57q-95 0 -150.5 67t-55.5 173q0 105 66.5 175.5t168.5 70.5q55 0 117 -17l64 17v-477zM375 107v1v1v1v1v1v1v1v1v1v1v1v1v1v1v1v1v1v1v1v1v1v1v1v1v1v1v1v1v1v1v1v1v1v1v1
v1v1v1v1v1v1v1v1v1v1v1v1v1v1v1v1v1v2v1v1v1v1v1v1v2v1v1v1v1v1v2v1v1v1v2v1v1v1v2v1v1v1v2v1v1v2v1v1v2v1v1v2v1v1v2v1v1v2v1v2v1v1v2v1v2v1v2v1v1v2v1v2v1v2v1v2v1v2v1v2v1v2v1v2v2v1v2v1v2v1v2v2v1v2v1v2v2v1v2v1v2v2v1v2v2v1v2v2v1v2v2v1v2v2v1v2v2v2v1v2v2v1v2v2v2v1v2
v2v2v2v1v2v2v2v2v1v2v2v2v2v1v2v2v2v2v2v1v10q-43 35 -102 35q-68 0 -107.5 -49.5t-39.5 -122.5q0 -76 37.5 -122t100.5 -46q58 0 111 46z" />
    <glyph glyph-name="agrave.alt" horiz-adv-x="526" 
d="M373 366q-43 35 -102 35q-67 0 -106 -49t-39 -123q0 -77 36.5 -123.5t99.5 -46.5q58 0 111 46v1v1v1v1v1v1v1v1v1v1v1v1v1v1v1v1v1v1v1v1v1v1v1v1v1v1v1v1v1v1v1v1v1v1v1v1v1v1v1v1v1v1v1v1v1v1v1v1v1v1v1v1v1v1v1v2v1v1v1v1v1v2v1v1v1v1v1v2v1v1v1v2v1v1v1v2v1v1v2v1v1
v1v2v1v1v2v1v1v2v1v2v1v1v2v1v1v2v1v2v1v2v1v1v2v1v2v1v2v1v2v1v2v1v2v1v2v1v2v1v2v1v2v2v1v2v1v2v1v2v2v1v2v1v2v2v1v2v1v2v2v1v2v2v1v2v2v1v2v2v2v1v2v2v1v2v2v2v1v2v2v2v1v2v2v2v1v2v2v2v2v1v2v2v2v2v1v2v2v2v2v2v1v2v2v9zM245 -15q-95 0 -149.5 68t-54.5 174
q0 105 65.5 175.5t167.5 70.5q55 0 117 -17l64 17v-370q0 -29 7.5 -37t37.5 -8l-5 -69q-52 -4 -83.5 13.5t-38.5 46.5q-55 -64 -128 -64zM343 520h-60l-146 181h100z" />
    <glyph glyph-name="aacute.alt" horiz-adv-x="526" 
d="M373 366q-43 35 -102 35q-67 0 -106 -49t-39 -123q0 -77 36.5 -123.5t99.5 -46.5q58 0 111 46v1v1v1v1v1v1v1v1v1v1v1v1v1v1v1v1v1v1v1v1v1v1v1v1v1v1v1v1v1v1v1v1v1v1v1v1v1v1v1v1v1v1v1v1v1v1v1v1v1v1v1v1v1v1v1v2v1v1v1v1v1v2v1v1v1v1v1v2v1v1v1v2v1v1v1v2v1v1v2v1v1
v1v2v1v1v2v1v1v2v1v2v1v1v2v1v1v2v1v2v1v2v1v1v2v1v2v1v2v1v2v1v2v1v2v1v2v1v2v1v2v1v2v2v1v2v1v2v1v2v2v1v2v1v2v2v1v2v1v2v2v1v2v2v1v2v2v1v2v2v2v1v2v2v1v2v2v2v1v2v2v2v1v2v2v2v1v2v2v2v2v1v2v2v2v2v1v2v2v2v2v2v1v2v2v9zM245 -15q-95 0 -149.5 68t-54.5 174
q0 105 65.5 175.5t167.5 70.5q55 0 117 -17l64 17v-370q0 -29 7.5 -37t37.5 -8l-5 -69q-52 -4 -83.5 13.5t-38.5 46.5q-55 -64 -128 -64zM460 701l-146 -181h-60l106 181h100z" />
    <glyph glyph-name="acircumflex.alt" horiz-adv-x="526" 
d="M373 366q-43 35 -102 35q-67 0 -106 -49t-39 -123q0 -77 36.5 -123.5t99.5 -46.5q58 0 111 46v1v1v1v1v1v1v1v1v1v1v1v1v1v1v1v1v1v1v1v1v1v1v1v1v1v1v1v1v1v1v1v1v1v1v1v1v1v1v1v1v1v1v1v1v1v1v1v1v1v1v1v1v1v1v1v2v1v1v1v1v1v2v1v1v1v1v1v2v1v1v1v2v1v1v1v2v1v1v2v1v1
v1v2v1v1v2v1v1v2v1v2v1v1v2v1v1v2v1v2v1v2v1v1v2v1v2v1v2v1v2v1v2v1v2v1v2v1v2v1v2v1v2v2v1v2v1v2v1v2v2v1v2v1v2v2v1v2v1v2v2v1v2v2v1v2v2v1v2v2v2v1v2v2v1v2v2v2v1v2v2v2v1v2v2v2v1v2v2v2v2v1v2v2v2v2v1v2v2v2v2v2v1v2v2v9zM245 -15q-95 0 -149.5 68t-54.5 174
q0 105 65.5 175.5t167.5 70.5q55 0 117 -17l64 17v-370q0 -29 7.5 -37t37.5 -8l-5 -69q-52 -4 -83.5 13.5t-38.5 46.5q-55 -64 -128 -64zM442 520h-60l-98 127h-1l-99 -127h-60l115 187h88z" />
    <glyph glyph-name="atilde.alt" horiz-adv-x="526" 
d="M373 366q-43 35 -102 35q-67 0 -106 -49t-39 -123q0 -77 36.5 -123.5t99.5 -46.5q58 0 111 46v1v1v1v1v1v1v1v1v1v1v1v1v1v1v1v1v1v1v1v1v1v1v1v1v1v1v1v1v1v1v1v1v1v1v1v1v1v1v1v1v1v1v1v1v1v1v1v1v1v1v1v1v1v1v1v2v1v1v1v1v1v2v1v1v1v1v1v2v1v1v1v2v1v1v1v2v1v1v2v1v1
v1v2v1v1v2v1v1v2v1v2v1v1v2v1v1v2v1v2v1v2v1v1v2v1v2v1v2v1v2v1v2v1v2v1v2v1v2v1v2v1v2v2v1v2v1v2v1v2v2v1v2v1v2v2v1v2v1v2v2v1v2v2v1v2v2v1v2v2v2v1v2v2v1v2v2v2v1v2v2v2v1v2v2v2v1v2v2v2v2v1v2v2v2v2v1v2v2v2v2v2v1v2v2v9zM245 -15q-95 0 -149.5 68t-54.5 174
q0 105 65.5 175.5t167.5 70.5q55 0 117 -17l64 17v-370q0 -29 7.5 -37t37.5 -8l-5 -69q-52 -4 -83.5 13.5t-38.5 46.5q-55 -64 -128 -64zM453 649q-7 -65 -29.5 -95.5t-67.5 -30.5q-34 0 -86 34.5t-67 34.5q-29 0 -38 -62h-1h-1h-1h-1h-1h-1h-1h-1h-1h-1h-2h-1h-1h-2h-1h-1
h-2h-1h-2h-2h-1h-2h-2h-1h-2h-2h-2h-2h-2h-2h-2h-10q7 66 29.5 96.5t67.5 30.5q34 0 86 -35t67 -35q29 0 37 62h1h1h1h1h1h1h1h1h1h1h1h1h1h2h1h1h2h1h1h2h2h1h2h1h2h2h1h2h2h2h2h2h2h2h8z" />
    <glyph glyph-name="adieresis.alt" horiz-adv-x="526" 
d="M373 366q-43 35 -102 35q-67 0 -106 -49t-39 -123q0 -77 36.5 -123.5t99.5 -46.5q58 0 111 46v1v1v1v1v1v1v1v1v1v1v1v1v1v1v1v1v1v1v1v1v1v1v1v1v1v1v1v1v1v1v1v1v1v1v1v1v1v1v1v1v1v1v1v1v1v1v1v1v1v1v1v1v1v1v1v2v1v1v1v1v1v2v1v1v1v1v1v2v1v1v1v2v1v1v1v2v1v1v2v1v1
v1v2v1v1v2v1v1v2v1v2v1v1v2v1v1v2v1v2v1v2v1v1v2v1v2v1v2v1v2v1v2v1v2v1v2v1v2v1v2v1v2v2v1v2v1v2v1v2v2v1v2v1v2v2v1v2v1v2v2v1v2v2v1v2v2v1v2v2v2v1v2v2v1v2v2v2v1v2v2v2v1v2v2v2v1v2v2v2v2v1v2v2v2v2v1v2v2v2v2v2v1v2v2v9zM245 -15q-95 0 -149.5 68t-54.5 174
q0 105 65.5 175.5t167.5 70.5q55 0 117 -17l64 17v-370q0 -29 7.5 -37t37.5 -8l-5 -69q-52 -4 -83.5 13.5t-38.5 46.5q-55 -64 -128 -64zM449 587q0 -26 -17 -44.5t-43 -18.5t-43 18.5t-17 44.5t17 44t43 18t43 -18t17 -44zM245 587q0 -26 -17.5 -44.5t-43.5 -18.5t-43 18.5
t-17 44.5q0 25 17 43.5t43 18.5t43.5 -18.5t17.5 -43.5z" />
    <glyph glyph-name="aring.alt" horiz-adv-x="526" 
d="M373 366q-43 35 -102 35q-67 0 -106 -49t-39 -123q0 -77 36.5 -123.5t99.5 -46.5q58 0 111 46v1v1v1v1v1v1v1v1v1v1v1v1v1v1v1v1v1v1v1v1v1v1v1v1v1v1v1v1v1v1v1v1v1v1v1v1v1v1v1v1v1v1v1v1v1v1v1v1v1v1v1v1v1v1v1v2v1v1v1v1v1v2v1v1v1v1v1v2v1v1v1v2v1v1v1v2v1v1v2v1v1
v1v2v1v1v2v1v1v2v1v2v1v1v2v1v1v2v1v2v1v2v1v1v2v1v2v1v2v1v2v1v2v1v2v1v2v1v2v1v2v1v2v2v1v2v1v2v1v2v2v1v2v1v2v2v1v2v1v2v2v1v2v2v1v2v2v1v2v2v2v1v2v2v1v2v2v2v1v2v2v2v1v2v2v2v1v2v2v2v2v1v2v2v2v2v1v2v2v2v2v2v1v2v2v9zM245 -15q-95 0 -149.5 68t-54.5 174
q0 105 65.5 175.5t167.5 70.5q55 0 117 -17l64 17v-370q0 -29 7.5 -37t37.5 -8l-5 -69q-52 -4 -83.5 13.5t-38.5 46.5q-55 -64 -128 -64zM405 631q1 -46 -33.5 -77.5t-90.5 -31.5t-90 31.5t-34 77.5q0 47 34 78.5t90 31.5t89.5 -31.5t34.5 -78.5zM353 632q0 28 -19.5 47
t-52.5 19q-32 0 -51.5 -19t-19.5 -47t19.5 -47.5t51.5 -19.5q33 0 52.5 19.5t19.5 47.5z" />
    <glyph glyph-name="aringacute.alt" horiz-adv-x="526" 
d="M409 949l-146 -181h-60l106 181h100zM373 366q-43 35 -102 35q-67 0 -106 -49t-39 -123q0 -77 36.5 -123.5t99.5 -46.5q58 0 111 46v1v1v1v1v1v1v1v1v1v1v1v1v1v1v1v1v1v1v1v1v1v1v1v1v1v1v1v1v1v1v1v1v1v1v1v1v1v1v1v1v1v1v1v1v1v1v1v1v1v1v1v1v1v1v1v2v1v1v1v1v1v2v1v1
v1v1v1v2v1v1v1v2v1v1v1v2v1v1v2v1v1v1v2v1v1v2v1v1v2v1v2v1v1v2v1v1v2v1v2v1v2v1v1v2v1v2v1v2v1v2v1v2v1v2v1v2v1v2v1v2v1v2v2v1v2v1v2v1v2v2v1v2v1v2v2v1v2v1v2v2v1v2v2v1v2v2v1v2v2v2v1v2v2v1v2v2v2v1v2v2v2v1v2v2v2v1v2v2v2v2v1v2v2v2v2v1v2v2v2v2v2v1v2v2v9zM245 -15
q-95 0 -149.5 68t-54.5 174q0 105 65.5 175.5t167.5 70.5q55 0 117 -17l64 17v-370q0 -29 7.5 -37t37.5 -8l-5 -69q-52 -4 -83.5 13.5t-38.5 46.5q-55 -64 -128 -64zM405 631q1 -46 -33.5 -77.5t-90.5 -31.5t-90 31.5t-34 77.5q0 47 34 78.5t90 31.5t89.5 -31.5t34.5 -78.5z
M353 632q0 28 -19.5 47t-52.5 19q-32 0 -51.5 -19t-19.5 -47t19.5 -47.5t51.5 -19.5q33 0 52.5 19.5t19.5 47.5z" />
    <glyph glyph-name="amacron.alt" horiz-adv-x="526" 
d="M373 366q-43 35 -102 35q-67 0 -106 -49t-39 -123q0 -77 36.5 -123.5t99.5 -46.5q58 0 111 46v1v1v1v1v1v1v1v1v1v1v1v1v1v1v1v1v1v1v1v1v1v1v1v1v1v1v1v1v1v1v1v1v1v1v1v1v1v1v1v1v1v1v1v1v1v1v1v1v1v1v1v1v1v1v1v2v1v1v1v1v1v2v1v1v1v1v1v2v1v1v1v2v1v1v1v2v1v1v2v1v1
v1v2v1v1v2v1v1v2v1v2v1v1v2v1v1v2v1v2v1v2v1v1v2v1v2v1v2v1v2v1v2v1v2v1v2v1v2v1v2v1v2v2v1v2v1v2v1v2v2v1v2v1v2v2v1v2v1v2v2v1v2v2v1v2v2v1v2v2v2v1v2v2v1v2v2v2v1v2v2v2v1v2v2v2v1v2v2v2v2v1v2v2v2v2v1v2v2v2v2v2v1v2v2v9zM245 -15q-95 0 -149.5 68t-54.5 174
q0 105 65.5 175.5t167.5 70.5q55 0 117 -17l64 17v-370q0 -29 7.5 -37t37.5 -8l-5 -69q-52 -4 -83.5 13.5t-38.5 46.5q-55 -64 -128 -64zM427 538h-275l4 53h266z" />
    <glyph glyph-name="abreve.alt" horiz-adv-x="526" 
d="M373 366q-43 35 -102 35q-67 0 -106 -49t-39 -123q0 -77 36.5 -123.5t99.5 -46.5q58 0 111 46v1v1v1v1v1v1v1v1v1v1v1v1v1v1v1v1v1v1v1v1v1v1v1v1v1v1v1v1v1v1v1v1v1v1v1v1v1v1v1v1v1v1v1v1v1v1v1v1v1v1v1v1v1v1v1v2v1v1v1v1v1v2v1v1v1v1v1v2v1v1v1v2v1v1v1v2v1v1v2v1v1
v1v2v1v1v2v1v1v2v1v2v1v1v2v1v1v2v1v2v1v2v1v1v2v1v2v1v2v1v2v1v2v1v2v1v2v1v2v1v2v1v2v2v1v2v1v2v1v2v2v1v2v1v2v2v1v2v1v2v2v1v2v2v1v2v2v1v2v2v2v1v2v2v1v2v2v2v1v2v2v2v1v2v2v2v1v2v2v2v2v1v2v2v2v2v1v2v2v2v2v2v1v2v2v9zM245 -15q-95 0 -149.5 68t-54.5 174
q0 105 65.5 175.5t167.5 70.5q55 0 117 -17l64 17v-370q0 -29 7.5 -37t37.5 -8l-5 -69q-52 -4 -83.5 13.5t-38.5 46.5q-55 -64 -128 -64zM451 706q-11 -85 -51 -136t-109 -51t-109 51t-51 136h67q22 -122 93 -122q37 0 60.5 34t32.5 88h67z" />
    <glyph glyph-name="aogonek.alt" horiz-adv-x="526" 
d="M245 -15q-95 0 -149.5 68t-54.5 174q0 105 65.5 175.5t167.5 70.5q55 0 117 -17l64 17v-370q0 -29 7.5 -37t37.5 -8l-5 -69q-51 0 -82.5 -22.5t-31.5 -61.5q0 -49 45 -49q30 0 51 16l18 -62q-38 -27 -90 -27q-47 0 -76.5 26t-29.5 70q0 43 28 77.5t71 54.5q-20 16 -25 38
q-55 -64 -128 -64zM373 366q-43 35 -102 35q-67 0 -106 -49t-39 -123q0 -77 36.5 -123.5t99.5 -46.5q58 0 111 46v261z" />
    <glyph glyph-name="gcircumflex.alt" horiz-adv-x="528" 
d="M457 -4q0 -234 -211 -234q-86 0 -160 38l21 76q65 -37 139 -37q129 0 129 150v55q-61 -57 -128 -57q-95 0 -150.5 67t-55.5 173q0 105 66.5 175.5t168.5 70.5q55 0 117 -17l64 17v-477zM375 107v1v1v1v1v1v1v1v1v1v1v1v1v1v1v1v1v1v1v1v1v1v1v1v1v1v1v1v1v1v1v1v1v1v1v1
v1v1v1v1v1v1v1v1v1v1v1v1v1v1v1v1v1v2v1v1v1v1v1v1v2v1v1v1v1v1v2v1v1v1v2v1v1v1v2v1v1v1v2v1v1v2v1v1v2v1v1v2v1v1v2v1v1v2v1v2v1v1v2v1v2v1v2v1v1v2v1v2v1v2v1v2v1v2v1v2v1v2v1v2v2v1v2v1v2v1v2v2v1v2v1v2v2v1v2v1v2v2v1v2v2v1v2v2v1v2v2v1v2v2v1v2v2v2v1v2v2v1v2v2v2v1v2
v2v2v2v1v2v2v2v2v1v2v2v2v2v1v2v2v2v2v2v1v10q-43 35 -102 35q-68 0 -107.5 -49.5t-39.5 -122.5q0 -76 37.5 -122t100.5 -46q58 0 111 46zM435 520h-60l-98 127h-1l-99 -127h-60l115 187h88z" />
    <glyph glyph-name="gbreve.alt" horiz-adv-x="528" 
d="M457 -4q0 -234 -211 -234q-86 0 -160 38l21 76q65 -37 139 -37q129 0 129 150v55q-61 -57 -128 -57q-95 0 -150.5 67t-55.5 173q0 105 66.5 175.5t168.5 70.5q55 0 117 -17l64 17v-477zM375 107v1v1v1v1v1v1v1v1v1v1v1v1v1v1v1v1v1v1v1v1v1v1v1v1v1v1v1v1v1v1v1v1v1v1v1
v1v1v1v1v1v1v1v1v1v1v1v1v1v1v1v1v1v2v1v1v1v1v1v1v2v1v1v1v1v1v2v1v1v1v2v1v1v1v2v1v1v1v2v1v1v2v1v1v2v1v1v2v1v1v2v1v1v2v1v2v1v1v2v1v2v1v2v1v1v2v1v2v1v2v1v2v1v2v1v2v1v2v1v2v2v1v2v1v2v1v2v2v1v2v1v2v2v1v2v1v2v2v1v2v2v1v2v2v1v2v2v1v2v2v1v2v2v2v1v2v2v1v2v2v2v1v2
v2v2v2v1v2v2v2v2v1v2v2v2v2v1v2v2v2v2v2v1v10q-43 35 -102 35q-68 0 -107.5 -49.5t-39.5 -122.5q0 -76 37.5 -122t100.5 -46q58 0 111 46zM445 706q-11 -85 -51 -136t-109 -51t-109 51t-51 136h67q22 -122 93 -122q37 0 60.5 34t32.5 88h67z" />
    <glyph glyph-name="gdotaccent.alt" horiz-adv-x="528" 
d="M457 -4q0 -234 -211 -234q-86 0 -160 38l21 76q65 -37 139 -37q129 0 129 150v55q-61 -57 -128 -57q-95 0 -150.5 67t-55.5 173q0 105 66.5 175.5t168.5 70.5q55 0 117 -17l64 17v-477zM375 107v1v1v1v1v1v1v1v1v1v1v1v1v1v1v1v1v1v1v1v1v1v1v1v1v1v1v1v1v1v1v1v1v1v1v1
v1v1v1v1v1v1v1v1v1v1v1v1v1v1v1v1v1v2v1v1v1v1v1v1v2v1v1v1v1v1v2v1v1v1v2v1v1v1v2v1v1v1v2v1v1v2v1v1v2v1v1v2v1v1v2v1v1v2v1v2v1v1v2v1v2v1v2v1v1v2v1v2v1v2v1v2v1v2v1v2v1v2v1v2v2v1v2v1v2v1v2v2v1v2v1v2v2v1v2v1v2v2v1v2v2v1v2v2v1v2v2v1v2v2v1v2v2v2v1v2v2v1v2v2v2v1v2
v2v2v2v1v2v2v2v2v1v2v2v2v2v1v2v2v2v2v2v1v10q-43 35 -102 35q-68 0 -107.5 -49.5t-39.5 -122.5q0 -76 37.5 -122t100.5 -46q58 0 111 46zM333 585q0 -25 -16 -42.5t-42 -17.5q-25 0 -41 17.5t-16 42.5t16 43t41 18q26 0 42 -18t16 -43z" />
    <glyph glyph-name="gcommaaccent.alt" horiz-adv-x="528" 
d="M457 -4q0 -234 -211 -234q-86 0 -160 38l21 76q65 -37 139 -37q129 0 129 150v55q-61 -57 -128 -57q-95 0 -150.5 67t-55.5 173q0 105 66.5 175.5t168.5 70.5q55 0 117 -17l64 17v-477zM375 107v1v1v1v1v1v1v1v1v1v1v1v1v1v1v1v1v1v1v1v1v1v1v1v1v1v1v1v1v1v1v1v1v1v1v1
v1v1v1v1v1v1v1v1v1v1v1v1v1v1v1v1v1v2v1v1v1v1v1v1v2v1v1v1v1v1v2v1v1v1v2v1v1v1v2v1v1v1v2v1v1v2v1v1v2v1v1v2v1v1v2v1v1v2v1v2v1v1v2v1v2v1v2v1v1v2v1v2v1v2v1v2v1v2v1v2v1v2v1v2v2v1v2v1v2v1v2v2v1v2v1v2v2v1v2v1v2v2v1v2v2v1v2v2v1v2v2v1v2v2v1v2v2v2v1v2v2v1v2v2v2v1v2
v2v2v2v1v2v2v2v2v1v2v2v2v2v1v2v2v2v2v2v1v10q-43 35 -102 35q-68 0 -107.5 -49.5t-39.5 -122.5q0 -76 37.5 -122t100.5 -46q58 0 111 46zM336 568q-3 -19 -18 -34t-39 -15q-30 0 -50.5 21.5t-20.5 53.5q0 78 108 142l30 -26q-65 -43 -65 -86q0 -19 11 -30.5t44 -25.5z" />
    <glyph glyph-name="Jcircumflex.alt" horiz-adv-x="371" 
d="M308 177q0 -95 -44.5 -143.5t-128.5 -48.5q-63 0 -118 33l12 81q54 -36 104 -36q47 0 69 27.5t22 87.5v447h84v-448zM424 687h-60l-98 127h-1l-99 -127h-60l115 187h88z" />
    <glyph glyph-name="dot" horiz-adv-x="220" 
d="M175 228q0 -26 -18 -45.5t-45 -19.5q-28 0 -46.5 19.5t-18.5 45.5t18.5 44.5t46.5 18.5q27 0 45 -18.5t18 -44.5z" />
    <glyph glyph-name="a.smallcap" horiz-adv-x="494" 
d="M295 472l172 -472h-80l-42 117h-197l-41 -117h-82l176 472h94zM322 186l-75 213l-75 -213h150z" />
    <glyph glyph-name="b.smallcap" horiz-adv-x="481" 
d="M346 243q41 -11 65 -40.5t24 -68.5q0 -134 -173 -134h-188v472h184q162 0 162 -126q0 -72 -74 -103zM340 339q0 65 -89 65h-99v-136h95q93 0 93 71zM355 136q0 68 -102 68h-101v-136h105q98 0 98 68z" />
    <glyph glyph-name="c.smallcap" horiz-adv-x="483" 
d="M439 445l-25 -69q-63 38 -127 38q-73 0 -115.5 -47t-42.5 -129q0 -83 43 -131.5t116 -48.5t131 44l16 -76q-63 -37 -149 -37q-107 0 -171.5 66t-64.5 180q0 112 65 180t172 68q89 0 152 -38z" />
    <glyph glyph-name="d.smallcap" horiz-adv-x="528" 
d="M478 239q0 -110 -67 -174.5t-190 -64.5h-147v472h152q118 0 185 -63t67 -170zM398 235q0 82 -46.5 124.5t-132.5 42.5h-66v-332h70q81 0 128 42.5t47 122.5z" />
    <glyph glyph-name="e.smallcap" horiz-adv-x="437" 
d="M384 0h-310v472h310v-70h-232v-130h193v-71h-193v-131h232v-70z" />
    <glyph glyph-name="f.smallcap" horiz-adv-x="417" 
d="M74 0v472h303v-71h-225v-137h186v-72h-186v-192h-78z" />
    <glyph glyph-name="g.smallcap" horiz-adv-x="523" 
d="M128 238q0 -84 44.5 -132.5t119.5 -48.5q54 0 96 22v99h-121v71h196v-216q-73 -44 -172 -44q-108 0 -174.5 66.5t-66.5 179.5q0 112 67 180t174 68q97 0 163 -40l-26 -71q-63 42 -136 42q-74 0 -119 -47.5t-45 -128.5z" />
    <glyph glyph-name="h.smallcap" horiz-adv-x="545" 
d="M471 0h-79v202h-239v-202h-79v472h79v-199h239v199h79v-472z" />
    <glyph glyph-name="i.smallcap" horiz-adv-x="229" 
d="M154 0h-79v472h79v-472z" />
    <glyph glyph-name="j.smallcap" horiz-adv-x="352" 
d="M288 150q0 -76 -37 -118.5t-112 -42.5q-64 0 -112 30l10 73q53 -34 95 -34q77 0 77 97v317h79v-322z" />
    <glyph glyph-name="j.smallcap.alt" horiz-adv-x="326" 
d="M262 141q0 -152 -138 -152q-58 0 -97 27l10 72q43 -29 81 -29q65 0 65 83v330h79v-331z" />
    <glyph glyph-name="k.smallcap" horiz-adv-x="459" 
d="M153 251h1l187 221h97l-209 -232l211 -240h-98l-188 220h-1v-220h-79v472h79v-221z" />
    <glyph glyph-name="l.smallcap" horiz-adv-x="406" 
d="M377 0h-303v472h79v-401h224v-71z" />
    <glyph glyph-name="m.smallcap" horiz-adv-x="632" 
d="M572 0h-80l-6 371l-129 -371h-83l-131 372l-5 -372h-78l15 472h110l132 -381l132 381h108z" />
    <glyph glyph-name="n.smallcap" horiz-adv-x="546" 
d="M399 115l-2 357h76v-477h-85l-240 362l2 -357h-76v472h87z" />
    <glyph glyph-name="o.smallcap" horiz-adv-x="580" 
d="M530 238q0 -108 -68 -178.5t-172 -70.5q-106 0 -173 67t-67 179q0 108 67.5 178t172.5 70t172.5 -66.5t67.5 -178.5zM450 235q0 82 -44.5 131t-117.5 49q-71 0 -115 -49t-44 -128q0 -82 44.5 -131.5t117.5 -49.5q71 0 115 49t44 129z" />
    <glyph glyph-name="p.smallcap" horiz-adv-x="460" 
d="M417 317q0 -81 -51.5 -123t-145.5 -42h-67v-152h-79v472h153q93 0 141.5 -42.5t48.5 -112.5zM337 314q0 88 -116 88h-69v-182l73 2q112 3 112 92z" />
    <glyph glyph-name="q.smallcap" horiz-adv-x="580" 
d="M402 18l140 -69l-32 -67l-203 107h-17q-106 0 -173 67t-67 179q0 108 67.5 178t172.5 70t172.5 -66.5t67.5 -178.5q0 -73 -34.5 -131.5t-93.5 -88.5zM450 235q0 82 -44.5 131t-117.5 49q-71 0 -115 -49t-44 -128q0 -82 44.5 -131.5t117.5 -49.5q71 0 115 49t44 129z" />
    <glyph glyph-name="r.smallcap" horiz-adv-x="489" 
d="M153 164v-164h-79v472h166q87 0 134.5 -39t47.5 -108q0 -101 -92 -138l117 -187h-91l-104 170zM152 231l81 1q109 1 109 88q0 82 -110 82h-80v-171z" />
    <glyph glyph-name="s.smallcap" horiz-adv-x="429" 
d="M207 57q41 0 68 19.5t27 50.5t-24 47t-85 33q-65 17 -104.5 48t-39.5 93q0 61 44.5 98t119.5 37q89 0 157 -41l-23 -68q-64 40 -133 40q-43 0 -65 -17.5t-22 -44.5q0 -30 25.5 -45.5t85.5 -31.5q64 -18 102.5 -49.5t38.5 -92.5q0 -63 -48 -103.5t-125 -40.5
q-90 0 -165 44l21 69q73 -45 145 -45z" />
    <glyph glyph-name="t.smallcap" horiz-adv-x="464" 
d="M434 401h-162v-401h-80v401h-162v71h404v-71z" />
    <glyph glyph-name="u.smallcap" horiz-adv-x="508" 
d="M445 185q0 -94 -49.5 -145t-141.5 -51q-90 0 -140.5 49.5t-50.5 138.5v295h79v-284q0 -128 114 -128q110 0 110 124v288h79v-287z" />
    <glyph glyph-name="v.smallcap" horiz-adv-x="485" 
d="M459 472l-170 -472h-95l-169 472h83l134 -392l138 392h79z" />
    <glyph glyph-name="w.smallcap" horiz-adv-x="737" 
d="M369 377l-113 -377h-79l-132 472h83l92 -369l105 369h90l106 -369l92 369h79l-132 -472h-81z" />
    <glyph glyph-name="x.smallcap" horiz-adv-x="481" 
d="M239 185l-123 -185h-91l169 236l-164 236h95l115 -177l119 177h92l-164 -231l168 -241h-95z" />
    <glyph glyph-name="y.smallcap" horiz-adv-x="456" 
d="M432 472l-164 -288v-184h-79v185l-164 287h86l118 -212l116 212h87z" />
    <glyph glyph-name="z.smallcap" horiz-adv-x="442" 
d="M393 0h-357v57l260 344h-256v71h354v-58l-258 -343h257v-71z" />
    <glyph glyph-name="fi.smallcap" horiz-adv-x="646" 
d="M571 0h-79v472h79v-472zM74 0v472h303v-71h-225v-137h186v-72h-186v-192h-78z" />
    <glyph glyph-name="fl.smallcap" horiz-adv-x="823" 
d="M794 0h-303v472h79v-401h224v-71zM74 0v472h303v-71h-225v-137h186v-72h-186v-192h-78z" />
    <glyph glyph-name="ff.smallcap" horiz-adv-x="834" 
d="M491 0v472h303v-71h-225v-137h186v-72h-186v-192h-78zM74 0v472h303v-71h-225v-137h186v-72h-186v-192h-78z" />
    <glyph glyph-name="ffi.smallcap" horiz-adv-x="1063" 
d="M988 0h-79v472h79v-472zM491 0v472h303v-71h-225v-137h186v-72h-186v-192h-78zM74 0v472h303v-71h-225v-137h186v-72h-186v-192h-78z" />
    <glyph glyph-name="ffl.smallcap" horiz-adv-x="1240" 
d="M1211 0h-303v472h79v-401h224v-71zM491 0v472h303v-71h-225v-137h186v-72h-186v-192h-78zM74 0v472h303v-71h-225v-137h186v-72h-186v-192h-78z" />
    <glyph glyph-name="germandbls.smallcap" horiz-adv-x="858" 
d="M638 57q41 0 68 19.5t27 50.5t-24 47t-85 33q-65 17 -104.5 48t-39.5 93q0 61 44.5 98t119.5 37q89 0 157 -41l-23 -68q-64 40 -133 40q-43 0 -65 -17.5t-22 -44.5q0 -30 25.5 -45.5t85.5 -31.5q64 -18 102.5 -49.5t38.5 -92.5q0 -63 -48 -103.5t-125 -40.5
q-90 0 -165 44l21 69q73 -45 145 -45zM209 57q41 0 68 19.5t27 50.5t-24 47t-85 33q-65 17 -104.5 48t-39.5 93q0 61 44.5 98t119.5 37q89 0 157 -41l-23 -68q-64 40 -133 40q-43 0 -65 -17.5t-22 -44.5q0 -30 25.5 -45.5t85.5 -31.5q64 -18 102.5 -49.5t38.5 -92.5
q0 -63 -48 -103.5t-125 -40.5q-90 0 -165 44l21 69q73 -45 145 -45z" />
    <glyph glyph-name="agrave.smallcap" horiz-adv-x="488" 
d="M295 472l172 -472h-80l-42 117h-197l-41 -117h-82l176 472h94zM322 186l-75 213l-75 -213h150zM281 520h-60l-146 181h100z" />
    <glyph glyph-name="aacute.smallcap" horiz-adv-x="488" 
d="M295 472l172 -472h-80l-42 117h-197l-41 -117h-82l176 472h94zM322 186l-75 213l-75 -213h150zM413 701l-146 -181h-60l106 181h100z" />
    <glyph glyph-name="acircumflex.smallcap" horiz-adv-x="488" 
d="M295 472l172 -472h-80l-42 117h-197l-41 -117h-82l176 472h94zM322 186l-75 213l-75 -213h150zM402 520h-60l-98 127h-1l-99 -127h-60l115 187h88z" />
    <glyph glyph-name="atilde.smallcap" horiz-adv-x="488" 
d="M295 472l172 -472h-80l-42 117h-197l-41 -117h-82l176 472h94zM322 186l-75 213l-75 -213h150zM414 649q-7 -65 -29.5 -95.5t-67.5 -30.5q-34 0 -86 34.5t-67 34.5q-29 0 -38 -62h-1h-1h-1h-1h-1h-1h-1h-1h-1h-1h-2h-1h-1h-2h-1h-1h-2h-1h-2h-2h-1h-2h-2h-1h-2h-2h-2h-2
h-2h-2h-2h-10q7 66 29.5 96.5t67.5 30.5q34 0 86 -35t67 -35q29 0 37 62h1h1h1h1h1h1h1h1h1h1h1h1h1h2h1h1h2h1h1h2h2h1h2h1h2h2h1h2h2h2h2h2h2h2h8z" />
    <glyph glyph-name="adieresis.smallcap" horiz-adv-x="488" 
d="M295 472l172 -472h-80l-42 117h-197l-41 -117h-82l176 472h94zM322 186l-75 213l-75 -213h150zM405 587q0 -26 -17 -44.5t-43 -18.5t-43 18.5t-17 44.5t17 44t43 18t43 -18t17 -44zM201 587q0 -26 -17.5 -44.5t-43.5 -18.5t-43 18.5t-17 44.5q0 25 17 43.5t43 18.5
t43.5 -18.5t17.5 -43.5z" />
    <glyph glyph-name="aring.smallcap" horiz-adv-x="488" 
d="M186 441q-31 13 -48 39t-17 58q0 46 33.5 77.5t89.5 31.5q55 0 88.5 -31t34.5 -78q1 -32 -16.5 -57.5t-48.5 -39.5l162 -441h-80l-42 117h-197l-41 -117h-82zM316 539q0 28 -19.5 47t-52.5 19t-52.5 -19t-19.5 -47t19.5 -47.5t52.5 -19.5t52.5 19.5t19.5 47.5zM319 186
l-75 213l-75 -213h150z" />
    <glyph glyph-name="aringacute.smallcap" horiz-adv-x="488" 
d="M186 441q-31 13 -48 39t-17 58q0 46 33.5 77.5t89.5 31.5q55 0 88.5 -31t34.5 -78q1 -32 -16.5 -57.5t-48.5 -39.5l162 -441h-80l-42 117h-197l-41 -117h-82zM316 539q0 28 -19.5 47t-52.5 19t-52.5 -19t-19.5 -47t19.5 -47.5t52.5 -19.5t52.5 19.5t19.5 47.5zM319 186
l-75 213l-75 -213h150zM383 851l-146 -181h-60l106 181h100z" />
    <glyph glyph-name="amacron.smallcap" horiz-adv-x="494" 
d="M295 472l172 -472h-80l-42 117h-197l-41 -117h-82l176 472h94zM322 186l-75 213l-75 -213h150zM385 538h-275l4 53h266z" />
    <glyph glyph-name="abreve.smallcap" horiz-adv-x="494" 
d="M295 472l172 -472h-80l-42 117h-197l-41 -117h-82l176 472h94zM322 186l-75 213l-75 -213h150zM407 706q-11 -85 -51 -136t-109 -51t-109 51t-51 136h67q22 -122 93 -122q37 0 60.5 34t32.5 88h67z" />
    <glyph glyph-name="aogonek.smallcap" horiz-adv-x="494" 
d="M295 472l172 -472q-34 -14 -55.5 -41t-21.5 -54q0 -49 45 -49q30 0 51 16l18 -62q-38 -27 -90 -27q-47 0 -76.5 26t-29.5 70q0 74 79 121l-42 117h-197l-41 -117h-82l176 472h94zM322 186l-75 213l-75 -213h150z" />
    <glyph glyph-name="ae.smallcap" horiz-adv-x="692" 
d="M172 117l-63 -117h-87l259 472h358v-70h-233v-130h194v-71h-194v-131h233v-70h-311v117h-156zM208 187h120v220z" />
    <glyph glyph-name="aeacute.smallcap" horiz-adv-x="692" 
d="M172 117l-63 -117h-87l259 472h358v-70h-233v-130h194v-71h-194v-131h233v-70h-311v117h-156zM208 187h120v220zM558 701l-146 -181h-60l106 181h100z" />
    <glyph glyph-name="ccedilla.smallcap" horiz-adv-x="490" 
d="M249 -9q-92 11 -145.5 76t-53.5 168q0 112 65 180t172 68q89 0 152 -38l-25 -69q-63 38 -127 38q-73 0 -115.5 -47t-42.5 -129q0 -83 43 -131.5t116 -48.5t131 44l16 -76q-53 -31 -129 -36l-59 -58q58 0 90.5 -22t32.5 -60q0 -90 -164 -111l-6 52q106 6 106 54
q0 53 -120 34l-8 42z" />
    <glyph glyph-name="cacute.smallcap" horiz-adv-x="483" 
d="M439 445l-25 -69q-63 38 -127 38q-73 0 -115.5 -47t-42.5 -129q0 -83 43 -131.5t116 -48.5t131 44l16 -76q-63 -37 -149 -37q-107 0 -171.5 66t-64.5 180q0 112 65 180t172 68q89 0 152 -38zM423 701l-146 -181h-60l106 181h100z" />
    <glyph glyph-name="ccircumflex.smallcap" horiz-adv-x="483" 
d="M439 445l-25 -69q-63 38 -127 38q-73 0 -115.5 -47t-42.5 -129q0 -83 43 -131.5t116 -48.5t131 44l16 -76q-63 -37 -149 -37q-107 0 -171.5 66t-64.5 180q0 112 65 180t172 68q89 0 152 -38zM435 520h-60l-98 127h-1l-99 -127h-60l115 187h88z" />
    <glyph glyph-name="cdotaccent.smallcap" horiz-adv-x="483" 
d="M439 445l-25 -69q-63 38 -127 38q-73 0 -115.5 -47t-42.5 -129q0 -83 43 -131.5t116 -48.5t131 44l16 -76q-63 -37 -149 -37q-107 0 -171.5 66t-64.5 180q0 112 65 180t172 68q89 0 152 -38zM335 585q0 -25 -16 -42.5t-42 -17.5q-25 0 -41 17.5t-16 42.5t16 43t41 18
q26 0 42 -18t16 -43z" />
    <glyph glyph-name="ccaron.smallcap" horiz-adv-x="483" 
d="M439 445l-25 -69q-63 38 -127 38q-73 0 -115.5 -47t-42.5 -129q0 -83 43 -131.5t116 -48.5t131 44l16 -76q-63 -37 -149 -37q-107 0 -171.5 66t-64.5 180q0 112 65 180t172 68q89 0 152 -38zM443 707l-115 -187h-88l-115 187h60l98 -127h1l99 127h60z" />
    <glyph glyph-name="dcaron.smallcap" horiz-adv-x="528" 
d="M392 707l-115 -187h-88l-115 187h60l98 -127h1l99 127h60zM478 239q0 -110 -67 -174.5t-190 -64.5h-147v472h152q118 0 185 -63t67 -170zM398 235q0 82 -46.5 124.5t-132.5 42.5h-66v-332h70q81 0 128 42.5t47 122.5z" />
    <glyph glyph-name="eth.smallcap" horiz-adv-x="567" 
d="M517 239q0 -110 -67.5 -174.5t-189.5 -64.5h-148v202h-78v72h78v198h152q118 0 185.5 -63t67.5 -170zM437 235q0 82 -46.5 124.5t-133.5 42.5h-66v-128h130v-72h-130v-132h70q81 0 128.5 42.5t47.5 122.5z" />
    <glyph glyph-name="dcroat.smallcap" horiz-adv-x="567" 
d="M517 239q0 -110 -67.5 -174.5t-189.5 -64.5h-148v202h-78v72h78v198h152q118 0 185.5 -63t67.5 -170zM437 235q0 82 -46.5 124.5t-133.5 42.5h-66v-128h130v-72h-130v-132h70q81 0 128.5 42.5t47.5 122.5z" />
    <glyph glyph-name="egrave.smallcap" horiz-adv-x="437" 
d="M384 0h-310v472h310v-70h-232v-130h193v-71h-193v-131h232v-70zM266 520h-60l-146 181h100z" />
    <glyph glyph-name="eacute.smallcap" horiz-adv-x="437" 
d="M384 0h-310v472h310v-70h-232v-130h193v-71h-193v-131h232v-70zM398 701l-146 -181h-60l106 181h100z" />
    <glyph glyph-name="ecircumflex.smallcap" horiz-adv-x="437" 
d="M384 0h-310v472h310v-70h-232v-130h193v-71h-193v-131h232v-70zM388 520h-60l-98 127h-1l-99 -127h-60l115 187h88z" />
    <glyph glyph-name="edieresis.smallcap" horiz-adv-x="437" 
d="M384 0h-310v472h310v-70h-232v-130h193v-71h-193v-131h232v-70zM394 587q0 -26 -17 -44.5t-43 -18.5t-43 18.5t-17 44.5t17 44t43 18t43 -18t17 -44zM190 587q0 -26 -17.5 -44.5t-43.5 -18.5t-43 18.5t-17 44.5q0 25 17 43.5t43 18.5t43.5 -18.5t17.5 -43.5z" />
    <glyph glyph-name="emacron.smallcap" horiz-adv-x="437" 
d="M384 0h-310v472h310v-70h-232v-130h193v-71h-193v-131h232v-70zM367 538h-275l4 53h266z" />
    <glyph glyph-name="ebreve.smallcap" horiz-adv-x="437" 
d="M384 0h-310v472h310v-70h-232v-130h193v-71h-193v-131h232v-70zM393 706q-11 -85 -51 -136t-109 -51t-109 51t-51 136h67q22 -122 93 -122q37 0 60.5 34t32.5 88h67z" />
    <glyph glyph-name="edotaccent.smallcap" horiz-adv-x="437" 
d="M384 0h-310v472h310v-70h-232v-130h193v-71h-193v-131h232v-70zM294 585q0 -25 -16 -42.5t-42 -17.5q-25 0 -41 17.5t-16 42.5t16 43t41 18q26 0 42 -18t16 -43z" />
    <glyph glyph-name="eogonek.smallcap" horiz-adv-x="437" 
d="M384 0h-39q-73 -51 -73 -105q0 -49 45 -49q30 0 51 16l18 -62q-38 -27 -90 -27q-47 0 -76.5 26t-29.5 70q0 42 27.5 76t70.5 55h-214v472h310v-70h-232v-130h193v-71h-193v-131h232v-70z" />
    <glyph glyph-name="ecaron.smallcap" horiz-adv-x="437" 
d="M384 0h-310v472h310v-70h-232v-130h193v-71h-193v-131h232v-70zM396 707l-115 -187h-88l-115 187h60l98 -127h1l99 127h60z" />
    <glyph glyph-name="gcircumflex.smallcap" horiz-adv-x="523" 
d="M128 238q0 -84 44.5 -132.5t119.5 -48.5q54 0 96 22v99h-121v71h196v-216q-73 -44 -172 -44q-108 0 -174.5 66.5t-66.5 179.5q0 112 67 180t174 68q97 0 163 -40l-26 -71q-63 42 -136 42q-74 0 -119 -47.5t-45 -128.5zM433 520h-60l-98 127h-1l-99 -127h-60l115 187h88z
" />
    <glyph glyph-name="gbreve.smallcap" horiz-adv-x="523" 
d="M128 238q0 -84 44.5 -132.5t119.5 -48.5q54 0 96 22v99h-121v71h196v-216q-73 -44 -172 -44q-108 0 -174.5 66.5t-66.5 179.5q0 112 67 180t174 68q97 0 163 -40l-26 -71q-63 42 -136 42q-74 0 -119 -47.5t-45 -128.5zM434 706q-11 -85 -51 -136t-109 -51t-109 51
t-51 136h67q22 -122 93 -122q37 0 60.5 34t32.5 88h67z" />
    <glyph glyph-name="gdotaccent.smallcap" horiz-adv-x="523" 
d="M128 238q0 -84 44.5 -132.5t119.5 -48.5q54 0 96 22v99h-121v71h196v-216q-73 -44 -172 -44q-108 0 -174.5 66.5t-66.5 179.5q0 112 67 180t174 68q97 0 163 -40l-26 -71q-63 42 -136 42q-74 0 -119 -47.5t-45 -128.5zM331 585q0 -25 -16 -42.5t-42 -17.5q-25 0 -41 17.5
t-16 42.5t16 43t41 18q26 0 42 -18t16 -43z" />
    <glyph glyph-name="gcommaaccent.smallcap" horiz-adv-x="523" 
d="M128 238q0 -84 44.5 -132.5t119.5 -48.5q54 0 96 22v99h-121v71h196v-216q-73 -44 -172 -44q-108 0 -174.5 66.5t-66.5 179.5q0 112 67 180t174 68q97 0 163 -40l-26 -71q-63 42 -136 42q-74 0 -119 -47.5t-45 -128.5zM212 -101q3 19 18 34t39 15q30 0 50.5 -21.5
t20.5 -53.5q0 -78 -108 -142l-30 26q65 43 65 86q0 19 -11 30.5t-44 25.5z" />
    <glyph glyph-name="hcircumflex.smallcap" horiz-adv-x="545" 
d="M471 0h-79v202h-239v-202h-79v472h79v-199h239v199h79v-472zM434 522h-60l-98 127h-1l-99 -127h-60l115 187h88z" />
    <glyph glyph-name="hbar.smallcap" horiz-adv-x="545" 
d="M471 0h-79v202h-239v-202h-79v339h-76l4 53h72v80h79v-80h239v80h79v-80h70l5 -53h-75v-339zM153 273h239v66h-239v-66z" />
    <glyph glyph-name="igrave.smallcap" horiz-adv-x="229" 
d="M154 0h-79v472h79v-472zM158 520h-60l-146 181h100z" />
    <glyph glyph-name="iacute.smallcap" horiz-adv-x="229" 
d="M154 0h-79v472h79v-472zM279 701l-146 -181h-60l106 181h100z" />
    <glyph glyph-name="icircumflex.smallcap" horiz-adv-x="229" 
d="M154 0h-79v472h79v-472zM273 520h-60l-98 127h-1l-99 -127h-60l115 187h88z" />
    <glyph glyph-name="idieresis.smallcap" horiz-adv-x="229" 
d="M154 0h-79v472h79v-472zM276 587q0 -26 -17 -44.5t-43 -18.5t-43 18.5t-17 44.5t17 44t43 18t43 -18t17 -44zM72 587q0 -26 -17.5 -44.5t-43.5 -18.5t-43 18.5t-17 44.5q0 25 17 43.5t43 18.5t43.5 -18.5t17.5 -43.5z" />
    <glyph glyph-name="imacron.smallcap" horiz-adv-x="229" 
d="M154 0h-79v472h79v-472zM254 538h-275l4 53h266z" />
    <glyph glyph-name="ibreve.smallcap" horiz-adv-x="229" 
d="M154 0h-79v472h79v-472zM277 706q-11 -85 -51 -136t-109 -51t-109 51t-51 136h67q22 -122 93 -122q37 0 60.5 34t32.5 88h67z" />
    <glyph glyph-name="iogonek.smallcap" horiz-adv-x="229" 
d="M154 0q-60 -47 -60 -95q0 -49 45 -49q30 0 51 16l18 -62q-38 -27 -90 -27q-47 0 -76.5 26t-29.5 70q0 73 79 121h-16v472h79v-472z" />
    <glyph glyph-name="idotaccent.smallcap" horiz-adv-x="229" 
d="M154 0h-79v472h79v-472zM174 599q0 -25 -16 -42.5t-42 -17.5q-25 0 -41 17.5t-16 42.5t16 43t41 18q26 0 42 -18t16 -43z" />
    <glyph glyph-name="dotlessi.smallcap" horiz-adv-x="229" 
d="M154 0h-79v472h79v-472z" />
    <glyph glyph-name="jcircumflex.smallcap" horiz-adv-x="352" 
d="M288 150q0 -76 -37 -118.5t-112 -42.5q-64 0 -112 30l10 73q53 -34 95 -34q77 0 77 97v317h79v-322zM409 519h-60l-98 127h-1l-99 -127h-60l115 187h88z" />
    <glyph glyph-name="jcircumflex.smallcap.alt" horiz-adv-x="352" 
d="M288 150q0 -76 -37 -118.5t-112 -42.5q-64 0 -112 30l10 73q53 -34 95 -34q77 0 77 97v317h79v-322zM409 519h-60l-98 127h-1l-99 -127h-60l115 187h88z" />
    <glyph glyph-name="dotlessj.smallcap" horiz-adv-x="352" 
d="M288 150q0 -76 -37 -118.5t-112 -42.5q-64 0 -112 30l10 73q53 -34 95 -34q77 0 77 97v317h79v-322z" />
    <glyph glyph-name="kcommaaccent.smallcap" horiz-adv-x="459" 
d="M153 251h1l187 221h97l-209 -232l211 -240h-98l-188 220h-1v-220h-79v472h79v-221zM161 -100q3 19 18 34t39 15q30 0 50.5 -21.5t20.5 -53.5q0 -78 -108 -142l-30 26q65 43 65 86q0 19 -11 30.5t-44 25.5z" />
    <glyph glyph-name="lacute.smallcap" horiz-adv-x="406" 
d="M377 0h-303v472h79v-401h224v-71zM281 699l-146 -181h-60l106 181h100z" />
    <glyph glyph-name="lcommaaccent.smallcap" horiz-adv-x="406" 
d="M377 0h-303v472h79v-401h224v-71zM162 -100q3 19 18 34t39 15q30 0 50.5 -21.5t20.5 -53.5q0 -78 -108 -142l-30 26q65 43 65 86q0 19 -11 30.5t-44 25.5z" />
    <glyph glyph-name="lcaron.smallcap" horiz-adv-x="626" 
d="M377 0h-303v472h79v-401h224v-71zM438 425q3 26 20.5 42.5t47.5 16.5q32 0 58.5 -26.5t26.5 -64.5q0 -97 -148 -195l-35 34q102 74 102 127q0 19 -15.5 33t-56.5 33z" />
    <glyph glyph-name="ldotaccent.smallcap" horiz-adv-x="579" 
d="M564 241q0 -26 -18 -45.5t-45 -19.5q-28 0 -46.5 19.5t-18.5 45.5t18.5 44.5t46.5 18.5q27 0 45 -18.5t18 -44.5zM377 0h-303v472h79v-401h224v-71z" />
    <glyph glyph-name="lslash.smallcap" horiz-adv-x="426" 
d="M173 196v-125h224v-71h-303v174l-19 -5l-38 -10l-19 -5v73q5 1 13 3.5t24.5 7t27.5 6.5l11 3v225h79v-203l118 32v-73z" />
    <glyph glyph-name="ntilde.smallcap" horiz-adv-x="546" 
d="M399 115l-2 357h76v-477h-85l-240 362l2 -357h-76v472h87zM443 649q-7 -65 -29.5 -95.5t-67.5 -30.5q-34 0 -86 34.5t-67 34.5q-29 0 -38 -62h-1h-1h-1h-1h-1h-1h-1h-1h-1h-1h-2h-1h-1h-2h-1h-1h-2h-1h-2h-2h-1h-2h-2h-1h-2h-2h-2h-2h-2h-2h-2h-10q7 66 29.5 96.5
t67.5 30.5q34 0 86 -35t67 -35q29 0 37 62h1h1h1h1h1h1h1h1h1h1h1h1h1h2h1h1h2h1h1h2h2h1h2h1h2h2h1h2h2h2h2h2h2h2h8z" />
    <glyph glyph-name="nacute.smallcap" horiz-adv-x="546" 
d="M399 115l-2 357h76v-477h-85l-240 362l2 -357h-76v472h87zM435 701l-146 -181h-60l106 181h100z" />
    <glyph glyph-name="ncommaaccent.smallcap" horiz-adv-x="546" 
d="M399 115l-2 357h76v-477h-85l-240 362l2 -357h-76v472h87zM194 -100q3 19 18 34t39 15q30 0 50.5 -21.5t20.5 -53.5q0 -78 -108 -142l-30 26q65 43 65 86q0 19 -11 30.5t-44 25.5z" />
    <glyph glyph-name="ncaron.smallcap" horiz-adv-x="546" 
d="M399 115l-2 357h76v-477h-85l-240 362l2 -357h-76v472h87zM446 707l-115 -187h-88l-115 187h60l98 -127h1l99 127h60z" />
    <glyph glyph-name="ograve.smallcap" horiz-adv-x="580" 
d="M530 238q0 -108 -68 -178.5t-172 -70.5q-106 0 -173 67t-67 179q0 108 67.5 178t172.5 70t172.5 -66.5t67.5 -178.5zM450 235q0 82 -44.5 131t-117.5 49q-71 0 -115 -49t-44 -128q0 -82 44.5 -131.5t117.5 -49.5q71 0 115 49t44 129zM336 520h-60l-146 181h100z" />
    <glyph glyph-name="oacute.smallcap" horiz-adv-x="580" 
d="M530 238q0 -108 -68 -178.5t-172 -70.5q-106 0 -173 67t-67 179q0 108 67.5 178t172.5 70t172.5 -66.5t67.5 -178.5zM450 235q0 82 -44.5 131t-117.5 49q-71 0 -115 -49t-44 -128q0 -82 44.5 -131.5t117.5 -49.5q71 0 115 49t44 129zM450 701l-146 -181h-60l106 181h100z
" />
    <glyph glyph-name="ocircumflex.smallcap" horiz-adv-x="580" 
d="M530 238q0 -108 -68 -178.5t-172 -70.5q-106 0 -173 67t-67 179q0 108 67.5 178t172.5 70t172.5 -66.5t67.5 -178.5zM450 235q0 82 -44.5 131t-117.5 49q-71 0 -115 -49t-44 -128q0 -82 44.5 -131.5t117.5 -49.5q71 0 115 49t44 129zM449 520h-60l-98 127h-1l-99 -127
h-60l115 187h88z" />
    <glyph glyph-name="otilde.smallcap" horiz-adv-x="580" 
d="M530 238q0 -108 -68 -178.5t-172 -70.5q-106 0 -173 67t-67 179q0 108 67.5 178t172.5 70t172.5 -66.5t67.5 -178.5zM450 235q0 82 -44.5 131t-117.5 49q-71 0 -115 -49t-44 -128q0 -82 44.5 -131.5t117.5 -49.5q71 0 115 49t44 129zM461 649q-7 -65 -29.5 -95.5
t-67.5 -30.5q-34 0 -86 34.5t-67 34.5q-29 0 -38 -62h-1h-1h-1h-1h-1h-1h-1h-1h-1h-1h-2h-1h-1h-2h-1h-1h-2h-1h-2h-2h-1h-2h-2h-1h-2h-2h-2h-2h-2h-2h-2h-10q7 66 29.5 96.5t67.5 30.5q34 0 86 -35t67 -35q29 0 37 62h1h1h1h1h1h1h1h1h1h1h1h1h1h2h1h1h2h1h1h2h2h1h2h1h2h2
h1h2h2h2h2h2h2h2h8z" />
    <glyph glyph-name="odieresis.smallcap" horiz-adv-x="580" 
d="M530 238q0 -108 -68 -178.5t-172 -70.5q-106 0 -173 67t-67 179q0 108 67.5 178t172.5 70t172.5 -66.5t67.5 -178.5zM450 235q0 82 -44.5 131t-117.5 49q-71 0 -115 -49t-44 -128q0 -82 44.5 -131.5t117.5 -49.5q71 0 115 49t44 129zM452 587q0 -26 -17 -44.5t-43 -18.5
t-43 18.5t-17 44.5t17 44t43 18t43 -18t17 -44zM248 587q0 -26 -17.5 -44.5t-43.5 -18.5t-43 18.5t-17 44.5q0 25 17 43.5t43 18.5t43.5 -18.5t17.5 -43.5z" />
    <glyph glyph-name="omacron.smallcap" horiz-adv-x="580" 
d="M530 238q0 -108 -68 -178.5t-172 -70.5q-106 0 -173 67t-67 179q0 108 67.5 178t172.5 70t172.5 -66.5t67.5 -178.5zM450 235q0 82 -44.5 131t-117.5 49q-71 0 -115 -49t-44 -128q0 -82 44.5 -131.5t117.5 -49.5q71 0 115 49t44 129zM427 538h-275l4 53h266z" />
    <glyph glyph-name="obreve.smallcap" horiz-adv-x="580" 
d="M530 238q0 -108 -68 -178.5t-172 -70.5q-106 0 -173 67t-67 179q0 108 67.5 178t172.5 70t172.5 -66.5t67.5 -178.5zM450 235q0 82 -44.5 131t-117.5 49q-71 0 -115 -49t-44 -128q0 -82 44.5 -131.5t117.5 -49.5q71 0 115 49t44 129zM461 706q-11 -85 -51 -136t-109 -51
t-109 51t-51 136h67q22 -122 93 -122q37 0 60.5 34t32.5 88h67z" />
    <glyph glyph-name="ohungarumlaut.smallcap" horiz-adv-x="580" 
d="M530 238q0 -108 -68 -178.5t-172 -70.5q-106 0 -173 67t-67 179q0 108 67.5 178t172.5 70t172.5 -66.5t67.5 -178.5zM450 235q0 82 -44.5 131t-117.5 49q-71 0 -115 -49t-44 -128q0 -82 44.5 -131.5t117.5 -49.5q71 0 115 49t44 129zM537 697l-147 -177h-71l134 177h84z
M351 697l-124 -177h-70l111 177h83z" />
    <glyph glyph-name="oslash.smallcap" horiz-adv-x="580" 
d="M397 374l-175 -303q31 -14 69 -14q71 0 115 49t44 129q0 89 -53 139zM182 98l176 303q-33 14 -70 14q-71 0 -115 -49t-44 -128q0 -90 53 -140zM144 33q-94 66 -94 202q0 108 67.5 178t172.5 70q56 0 104 -20l16 28h55l-30 -51q95 -66 95 -202q0 -108 -68 -178.5
t-172 -70.5q-56 0 -104 20l-16 -28h-56z" />
    <glyph glyph-name="oslashacute.smallcap" horiz-adv-x="580" 
d="M397 374l-175 -303q31 -14 69 -14q71 0 115 49t44 129q0 89 -53 139zM182 98l176 303q-33 14 -70 14q-71 0 -115 -49t-44 -128q0 -90 53 -140zM144 33q-94 66 -94 202q0 108 67.5 178t172.5 70q56 0 104 -20l16 28h55l-30 -51q95 -66 95 -202q0 -108 -68 -178.5
t-172 -70.5q-56 0 -104 20l-16 -28h-56zM446 700l-146 -181h-60l106 181h100z" />
    <glyph glyph-name="oe.smallcap" horiz-adv-x="741" 
d="M688 472v-70h-233v-130h194v-71h-194v-131h233v-70h-385q-118 0 -185.5 63t-67.5 170q0 111 66.5 175t189.5 64h382zM130 237q0 -82 46.5 -124.5t132.5 -42.5h67v332h-70q-81 0 -128.5 -42.5t-47.5 -122.5z" />
    <glyph glyph-name="thorn.smallcap" horiz-adv-x="460" 
d="M417 238q0 -81 -51.5 -123t-145.5 -42h-67v-73h-79v472h79v-79h74q94 0 142 -42t48 -113zM337 235q0 88 -116 88h-69v-182l73 2q112 3 112 92z" />
    <glyph glyph-name="racute.smallcap" horiz-adv-x="489" 
d="M153 164v-164h-79v472h166q87 0 134.5 -39t47.5 -108q0 -101 -92 -138l117 -187h-91l-104 170zM152 231l81 1q109 1 109 88q0 82 -110 82h-80v-171zM375 701l-146 -181h-60l106 181h100z" />
    <glyph glyph-name="rcommaaccent.smallcap" horiz-adv-x="489" 
d="M153 164v-164h-79v472h166q87 0 134.5 -39t47.5 -108q0 -101 -92 -138l117 -187h-91l-104 170zM152 231l81 1q109 1 109 88q0 82 -110 82h-80v-171zM173 -100q3 19 18 34t39 15q30 0 50.5 -21.5t20.5 -53.5q0 -78 -108 -142l-30 26q65 43 65 86q0 19 -11 30.5t-44 25.5z
" />
    <glyph glyph-name="rcaron.smallcap" horiz-adv-x="489" 
d="M153 164v-164h-79v472h166q87 0 134.5 -39t47.5 -108q0 -101 -92 -138l117 -187h-91l-104 170zM152 231l81 1q109 1 109 88q0 82 -110 82h-80v-171zM384 707l-115 -187h-88l-115 187h60l98 -127h1l99 127h60z" />
    <glyph glyph-name="sacute.smallcap" horiz-adv-x="429" 
d="M207 57q41 0 68 19.5t27 50.5t-24 47t-85 33q-65 17 -104.5 48t-39.5 93q0 61 44.5 98t119.5 37q89 0 157 -41l-23 -68q-64 40 -133 40q-43 0 -65 -17.5t-22 -44.5q0 -30 25.5 -45.5t85.5 -31.5q64 -18 102.5 -49.5t38.5 -92.5q0 -63 -48 -103.5t-125 -40.5
q-90 0 -165 44l21 69q73 -45 145 -45zM364 701l-146 -181h-60l106 181h100z" />
    <glyph glyph-name="scircumflex.smallcap" horiz-adv-x="429" 
d="M207 57q41 0 68 19.5t27 50.5t-24 47t-85 33q-65 17 -104.5 48t-39.5 93q0 61 44.5 98t119.5 37q89 0 157 -41l-23 -68q-64 40 -133 40q-43 0 -65 -17.5t-22 -44.5q0 -30 25.5 -45.5t85.5 -31.5q64 -18 102.5 -49.5t38.5 -92.5q0 -63 -48 -103.5t-125 -40.5
q-90 0 -165 44l21 69q73 -45 145 -45zM375 520h-60l-98 127h-1l-99 -127h-60l115 187h88z" />
    <glyph glyph-name="scedilla.smallcap" horiz-adv-x="429" 
d="M190 -68q58 0 90.5 -22t32.5 -60q0 -90 -164 -111l-6 52q106 6 106 54q0 53 -120 34l-8 42l69 69q-82 3 -149 43l21 69q73 -45 145 -45q41 0 68 19.5t27 50.5t-24 47t-85 33q-65 17 -104.5 48t-39.5 93q0 61 44.5 98t119.5 37q89 0 157 -41l-23 -68q-64 40 -133 40
q-43 0 -65 -17.5t-22 -44.5q0 -30 25.5 -45.5t85.5 -31.5q64 -18 102.5 -49.5t38.5 -92.5q0 -53 -34 -90.5t-92 -48.5z" />
    <glyph glyph-name="scommaaccent.smallcap" horiz-adv-x="429" 
d="M207 57q41 0 68 19.5t27 50.5t-24 47t-85 33q-65 17 -104.5 48t-39.5 93q0 61 44.5 98t119.5 37q89 0 157 -41l-23 -68q-64 40 -133 40q-43 0 -65 -17.5t-22 -44.5q0 -30 25.5 -45.5t85.5 -31.5q64 -18 102.5 -49.5t38.5 -92.5q0 -63 -48 -103.5t-125 -40.5
q-90 0 -165 44l21 69q73 -45 145 -45zM151 -100q3 19 18 34t39 15q30 0 50.5 -21.5t20.5 -53.5q0 -78 -108 -142l-30 26q65 43 65 86q0 19 -11 30.5t-44 25.5z" />
    <glyph glyph-name="scaron.smallcap" horiz-adv-x="429" 
d="M207 57q41 0 68 19.5t27 50.5t-24 47t-85 33q-65 17 -104.5 48t-39.5 93q0 61 44.5 98t119.5 37q89 0 157 -41l-23 -68q-64 40 -133 40q-43 0 -65 -17.5t-22 -44.5q0 -30 25.5 -45.5t85.5 -31.5q64 -18 102.5 -49.5t38.5 -92.5q0 -63 -48 -103.5t-125 -40.5
q-90 0 -165 44l21 69q73 -45 145 -45zM383 708l-115 -187h-88l-115 187h60l98 -127h1l99 127h60z" />
    <glyph glyph-name="tcommaaccent.smallcap" horiz-adv-x="464" 
d="M434 401h-162v-401h-80v401h-162v71h404v-71zM166 -100q3 19 18 34t39 15q30 0 50.5 -21.5t20.5 -53.5q0 -78 -108 -142l-30 26q65 43 65 86q0 19 -11 30.5t-44 25.5z" />
    <glyph glyph-name="tcaron.smallcap" horiz-adv-x="464" 
d="M389 707l-115 -187h-88l-115 187h60l98 -127h1l99 127h60zM434 401h-162v-401h-80v401h-162v71h404v-71z" />
    <glyph glyph-name="ugrave.smallcap" horiz-adv-x="508" 
d="M445 185q0 -94 -49.5 -145t-141.5 -51q-90 0 -140.5 49.5t-50.5 138.5v295h79v-284q0 -128 114 -128q110 0 110 124v288h79v-287zM300 520h-60l-146 181h100z" />
    <glyph glyph-name="uacute.smallcap" horiz-adv-x="508" 
d="M445 185q0 -94 -49.5 -145t-141.5 -51q-90 0 -140.5 49.5t-50.5 138.5v295h79v-284q0 -128 114 -128q110 0 110 124v288h79v-287zM414 701l-146 -181h-60l106 181h100z" />
    <glyph glyph-name="ucircumflex.smallcap" horiz-adv-x="508" 
d="M445 185q0 -94 -49.5 -145t-141.5 -51q-90 0 -140.5 49.5t-50.5 138.5v295h79v-284q0 -128 114 -128q110 0 110 124v288h79v-287zM413 520h-60l-98 127h-1l-99 -127h-60l115 187h88z" />
    <glyph glyph-name="udieresis.smallcap" horiz-adv-x="508" 
d="M445 185q0 -94 -49.5 -145t-141.5 -51q-90 0 -140.5 49.5t-50.5 138.5v295h79v-284q0 -128 114 -128q110 0 110 124v288h79v-287zM416 587q0 -26 -17 -44.5t-43 -18.5t-43 18.5t-17 44.5t17 44t43 18t43 -18t17 -44zM212 587q0 -26 -17.5 -44.5t-43.5 -18.5t-43 18.5
t-17 44.5q0 25 17 43.5t43 18.5t43.5 -18.5t17.5 -43.5z" />
    <glyph glyph-name="umacron.smallcap" horiz-adv-x="508" 
d="M445 185q0 -94 -49.5 -145t-141.5 -51q-90 0 -140.5 49.5t-50.5 138.5v295h79v-284q0 -128 114 -128q110 0 110 124v288h79v-287zM404 538h-275l4 53h266z" />
    <glyph glyph-name="ubreve.smallcap" horiz-adv-x="508" 
d="M445 185q0 -94 -49.5 -145t-141.5 -51q-90 0 -140.5 49.5t-50.5 138.5v295h79v-284q0 -128 114 -128q110 0 110 124v288h79v-287zM427 706q-11 -85 -51 -136t-109 -51t-109 51t-51 136h67q22 -122 93 -122q37 0 60.5 34t32.5 88h67z" />
    <glyph glyph-name="uring.smallcap" horiz-adv-x="508" 
d="M445 185q0 -94 -49.5 -145t-141.5 -51q-90 0 -140.5 49.5t-50.5 138.5v295h79v-284q0 -128 114 -128q110 0 110 124v288h79v-287zM383 631q1 -46 -33.5 -77.5t-90.5 -31.5t-90 31.5t-34 77.5q0 47 34 78.5t90 31.5t89.5 -31.5t34.5 -78.5zM331 632q0 28 -19.5 47
t-52.5 19q-32 0 -51.5 -19t-19.5 -47t19.5 -47.5t51.5 -19.5q33 0 52.5 19.5t19.5 47.5z" />
    <glyph glyph-name="uhungarumlaut.smallcap" horiz-adv-x="508" 
d="M445 185q0 -94 -49.5 -145t-141.5 -51q-90 0 -140.5 49.5t-50.5 138.5v295h79v-284q0 -128 114 -128q110 0 110 124v288h79v-287zM511 697l-147 -177h-71l134 177h84zM325 697l-124 -177h-70l111 177h83z" />
    <glyph glyph-name="uogonek.smallcap" horiz-adv-x="508" 
d="M445 185q0 -122 -86 -175q-78 -48 -78 -105q0 -49 45 -49q30 0 51 16l18 -62q-38 -27 -90 -27q-47 0 -76.5 26t-29.5 70q0 64 63 110h-8q-90 0 -140.5 49.5t-50.5 138.5v295h79v-284q0 -128 114 -128q110 0 110 124v288h79v-287z" />
    <glyph glyph-name="wcircumflex.smallcap" horiz-adv-x="737" 
d="M369 377l-113 -377h-79l-132 472h83l92 -369l105 369h90l106 -369l92 369h79l-132 -472h-81zM530 520h-60l-98 127h-1l-99 -127h-60l115 187h88z" />
    <glyph glyph-name="wgrave.smallcap" horiz-adv-x="737" 
d="M369 377l-113 -377h-79l-132 472h83l92 -369l105 369h90l106 -369l92 369h79l-132 -472h-81zM408 520h-60l-146 181h100z" />
    <glyph glyph-name="wacute.smallcap" horiz-adv-x="737" 
d="M369 377l-113 -377h-79l-132 472h83l92 -369l105 369h90l106 -369l92 369h79l-132 -472h-81zM537 701l-146 -181h-60l106 181h100z" />
    <glyph glyph-name="wdieresis.smallcap" horiz-adv-x="737" 
d="M369 377l-113 -377h-79l-132 472h83l92 -369l105 369h90l106 -369l92 369h79l-132 -472h-81zM533 587q0 -26 -17 -44.5t-43 -18.5t-43 18.5t-17 44.5t17 44t43 18t43 -18t17 -44zM329 587q0 -26 -17.5 -44.5t-43.5 -18.5t-43 18.5t-17 44.5q0 25 17 43.5t43 18.5
t43.5 -18.5t17.5 -43.5z" />
    <glyph glyph-name="yacute.smallcap" horiz-adv-x="456" 
d="M432 472l-164 -288v-184h-79v185l-164 287h86l118 -212l116 212h87zM396 701l-146 -181h-60l106 181h100z" />
    <glyph glyph-name="ycircumflex.smallcap" horiz-adv-x="456" 
d="M432 472l-164 -288v-184h-79v185l-164 287h86l118 -212l116 212h87zM390 520h-60l-98 127h-1l-99 -127h-60l115 187h88z" />
    <glyph glyph-name="ydieresis.smallcap" horiz-adv-x="456" 
d="M432 472l-164 -288v-184h-79v185l-164 287h86l118 -212l116 212h87zM389 587q0 -26 -17 -44.5t-43 -18.5t-43 18.5t-17 44.5t17 44t43 18t43 -18t17 -44zM185 587q0 -26 -17.5 -44.5t-43.5 -18.5t-43 18.5t-17 44.5q0 25 17 43.5t43 18.5t43.5 -18.5t17.5 -43.5z" />
    <glyph glyph-name="zacute.smallcap" horiz-adv-x="442" 
d="M393 0h-357v57l260 344h-256v71h354v-58l-258 -343h257v-71zM365 701l-146 -181h-60l106 181h100z" />
    <glyph glyph-name="zdotaccent.smallcap" horiz-adv-x="442" 
d="M393 0h-357v57l260 344h-256v71h354v-58l-258 -343h257v-71zM280 585q0 -25 -16 -42.5t-42 -17.5q-25 0 -41 17.5t-16 42.5t16 43t41 18q26 0 42 -18t16 -43z" />
    <glyph glyph-name="zcaron.smallcap" horiz-adv-x="442" 
d="M393 0h-357v57l260 344h-256v71h354v-58l-258 -343h257v-71zM370 707l-115 -187h-88l-115 187h60l98 -127h1l99 127h60z" />
    <glyph glyph-name="solidus" horiz-adv-x="198" 
d="M396 625l-531 -741h-63l531 741h63z" />
    <glyph glyph-name="plusinferior" horiz-adv-x="330" 
d="M300 24h-103v-105h-43v105h-104l1 43h103v104h43v-104h101z" />
    <glyph glyph-name="minusinferior" horiz-adv-x="330" 
d="M300 24h-250l1 43h247z" />
    <glyph glyph-name="zero.lnum" 
d="M465 314q0 -151 -59 -240t-158 -89t-156 87.5t-57 239.5q0 150 59 239t158 89t156 -87.5t57 -238.5zM383 311q0 129 -37 193t-98 64q-60 0 -95.5 -63t-35.5 -192q0 -126 37.5 -190t97.5 -64t95.5 62.5t35.5 189.5z" />
    <glyph glyph-name="one.lnum" 
d="M251 0v533l-156 -42l-3 76l237 66v-633h-78z" />
    <glyph glyph-name="two.lnum" 
d="M449 0h-400l-4 81q28 26 67 62t60.5 56t50.5 48t44 45.5t33 40t26.5 40t14 38t5.5 40.5q0 51 -33 82t-85 31q-78 0 -149 -67l-29 72q32 29 81.5 49.5t101.5 20.5q88 0 142.5 -51.5t54.5 -134.5q0 -33 -11.5 -64.5t-30 -59.5t-54.5 -65.5t-70.5 -70t-92.5 -84.5
q-25 -22 -38 -34h312z" />
    <glyph glyph-name="three.lnum" 
d="M265 331q90 0 136.5 -44.5t46.5 -107.5q0 -87 -65 -140.5t-160 -53.5q-45 0 -95.5 12.5t-81.5 30.5l15 76q81 -45 163 -45q59 0 99.5 29.5t40.5 81.5q0 49 -37.5 79t-104.5 30q-43 0 -92 -9v68q101 24 156 57t55 83q0 40 -29 63.5t-81 23.5q-37 0 -78.5 -17t-72.5 -46
l-31 73q35 28 84.5 46.5t98.5 18.5q86 0 139 -40.5t53 -111.5q0 -111 -159 -157z" />
    <glyph glyph-name="four.lnum" 
d="M488 159h-98v-159h-74v159h-284l-9 56l282 415h85v-400h95zM316 230v302l-205 -302h205z" />
    <glyph glyph-name="five.lnum" 
d="M152 367q34 8 73 8q96 0 156 -49.5t60 -135.5q0 -91 -60.5 -148t-157.5 -57q-102 0 -172 43l15 78q75 -46 158 -46q62 0 99 32.5t37 93.5q0 53 -37.5 85t-103.5 32q-80 0 -134 -27l-17 15l43 334h319l3 -78h-258z" />
    <glyph glyph-name="six.lnum" 
d="M42 244q0 137 88 246t254 148l20 -67q-111 -28 -184 -92t-97 -156l3 -1q67 64 161 64q76 0 126 -53.5t50 -139.5q0 -90 -56.5 -149t-148.5 -59q-104 0 -160 74t-56 185zM121 221q0 -69 37.5 -116t103.5 -47q54 0 87.5 36.5t33.5 94.5t-31.5 91t-85.5 33q-40 0 -78 -16
t-62 -38q-5 -18 -5 -38z" />
    <glyph glyph-name="seven.lnum" 
d="M372 547h-333l3 78h405l9 -68l-280 -557h-82z" />
    <glyph glyph-name="eight.lnum" 
d="M460 165q0 -77 -55.5 -128.5t-155.5 -51.5q-103 0 -156.5 49t-53.5 123q0 103 122 161q-111 57 -111 143q0 80 55.5 130t149.5 50q95 0 145 -49.5t50 -122.5q0 -96 -108 -155q56 -29 87 -63.5t31 -85.5zM371 461q0 49 -34 79t-85 30q-58 0 -90 -28.5t-32 -71.5
q0 -45 43 -77.5t112 -50.5q86 40 86 119zM380 155q0 93 -161 136q-101 -42 -101 -126q0 -49 37.5 -79t97.5 -30q62 0 94.5 26t32.5 73z" />
    <glyph glyph-name="nine.lnum" 
d="M457 381q0 -137 -88 -246t-254 -148l-20 67q112 28 184.5 92t96.5 156l-3 1q-67 -64 -161 -64q-76 0 -125.5 53.5t-49.5 139.5q0 90 56 149t148 59q104 0 160 -74t56 -185zM378 404q0 69 -37.5 116t-102.5 47q-55 0 -88.5 -36.5t-33.5 -94.5t31.5 -91t85.5 -33
q40 0 78 16t62 38q5 18 5 38z" />
    <glyph glyph-name="dollar.lnum" 
d="M228 61h10q60 0 98 29.5t38 75.5q0 41 -27 64t-91 42zM264 640l12 90h48l-13 -95q74 -13 133 -50l-30 -74q-50 33 -113 46l-7 -49q-6 -50 -13 -100l-7 -50q82 -22 132.5 -64t50.5 -122q0 -82 -61.5 -134.5t-159.5 -52.5h-19l-3 -27l-8 -54l-3 -27h-48l15 114
q-79 12 -142 53l28 77q62 -42 124 -54l30 218q-37 11 -63.5 23t-53.5 32t-41 51.5t-14 72.5q0 79 58 127.5t150 48.5h18zM228 371l26 192h-7q-64 0 -95 -25.5t-31 -67.5q0 -38 25.5 -59.5t81.5 -39.5z" />
    <glyph glyph-name="cent.lnum" 
d="M353 468q52 -9 93 -34l-20 -72q-40 26 -83 33l-45 -337q72 0 131 38l14 -73q-63 -38 -147 -38h-8l-14 -108h-47l15 113q-80 17 -126.5 81t-46.5 158q0 108 64 176t164 68h10l12 90h47zM297 400q-70 0 -108 -45.5t-38 -124.5q0 -65 26.5 -108.5t74.5 -57.5z" />
    <glyph glyph-name="sterling.lnum" 
d="M118 328q-3 54 -3 98q0 105 55 159.5t144 54.5q80 0 148 -43l-20 -73q-62 42 -128 42q-58 0 -87.5 -36t-29.5 -96q0 -24 4 -106h196l-3 -54h-191q2 -60 2 -90q0 -39 -7 -67q32 -27 70.5 -42t67.5 -15q81 0 100 107l63 -14q-5 -79 -49.5 -123.5t-106.5 -44.5
q-81 0 -169 77q-38 -54 -139 -79q-1 2 -1.5 5.5t-3 12.5t-4.5 17l-4 16t-3.5 12t-1.5 3q63 17 84.5 44t21.5 83q0 47 -3 98h-92l-3 54h93z" />
    <glyph glyph-name="yen.lnum" 
d="M209 263h-174l-3 55h153l-195 307h95l165 -275l164 275h92l-194 -307h153l-3 -55h-174v-78h174l3 -54h-176v-131h-81v131h-176l3 54h174v78z" />
    <glyph glyph-name="Euro.lnum" horiz-adv-x="502" 
d="M105 369h-1h-1h-1h-1h-1h-1h-1h-1h-1h-1h-1h-1h-1h-1h-2h-1h-1h-1h-1h-2h-1h-1h-1h-2h-1h-2h-1h-1h-2h-1h-2h-1h-2h-1h-2h-1h-2h-2h-1h-2h-2h-1h-2h-2h-1h-2h-2h-9l-3 55h83q21 110 81.5 163t145.5 53q91 0 153 -38l-20 -73q-56 37 -133 37q-115 0 -144 -142h227l-3 -55
h-231q-2 -32 -2 -52q0 -32 3 -59h200l3 -55h-195q32 -144 141 -144q80 0 137 37l14 -74q-62 -37 -153 -37q-192 0 -226 218h-81l3 55h72q-2 32 -2 51q0 22 2 60z" />
    <glyph glyph-name="degree.lnum" 
d="M413 476q0 -68 -45 -115.5t-119 -47.5q-73 0 -118 47.5t-45 115.5q0 69 45 116.5t118 47.5q74 0 119 -47.5t45 -116.5zM360 476q0 49 -30 81.5t-81 32.5q-50 0 -80 -32.5t-30 -81.5q0 -47 30 -79.5t80 -32.5q51 0 81 32.5t30 79.5z" />
    <glyph glyph-name="plus.lnum" 
d="M454 199h-167v-170h-70v170h-169l3 71h166v169h70v-169h164z" />
    <glyph glyph-name="minus.lnum" 
d="M454 199h-406l3 71h400z" />
    <glyph glyph-name="plusminus.lnum" 
d="M454 229h-167v-140h-70v140h-169l3 71h166v140h70v-140h164zM454 0h-406l3 71h400z" />
    <glyph glyph-name="logicalnot.lnum" 
d="M452 330v-213h-70v142h-334l3 71h401z" />
    <glyph glyph-name="equal.lnum" 
d="M445 290h-388l-5 71h398zM450 108h-398l5 71h388z" />
    <glyph glyph-name="notequal.lnum" 
d="M152 -33l37 141h-137l5 71h150l29 111h-179l-5 71h203l34 131h71l-34 -131h124l-5 -71h-138l-29 -111h167l5 -71h-190l-37 -141h-71z" />
    <glyph glyph-name="approxequal.lnum" 
d="M433 210q-10 -52 -41 -83t-70 -31q-29 0 -80.5 24.5t-66.5 24.5q-35 0 -46 -44h-62q10 52 41 83t70 31q29 0 82 -24.5t65 -24.5q17 0 28 8.5t19 35.5h61zM433 368q-10 -52 -41 -83t-70 -31q-29 0 -80.5 24.5t-66.5 24.5q-35 0 -46 -44h-62q10 52 41 83t70 31
q29 0 82 -24.5t65 -24.5q17 0 28 8.5t19 35.5h61z" />
    <glyph glyph-name="multiply.lnum" 
d="M458 77l-48 -48l-157 159l-157 -159l-48 48l159 157l-159 157l48 48l157 -159l157 159l48 -48l-159 -157z" />
    <glyph glyph-name="divide.lnum" 
d="M454 199h-406l3 71h400zM319 82q0 -27 -19 -47t-47 -20q-29 0 -48.5 20t-19.5 47t19.5 46t48.5 19t47.5 -19t18.5 -46zM319 387q0 -27 -19.5 -46t-48.5 -19t-47.5 19t-18.5 46t19 47t47 20q29 0 48.5 -20t19.5 -47z" />
    <glyph glyph-name="less.lnum" 
d="M448 96v-79l-402 189v59l401 189v-79l-297 -135v-10z" />
    <glyph glyph-name="greater.lnum" 
d="M444 206l-402 -189v79l298 134v10l-297 135v79l401 -189v-59z" />
    <glyph glyph-name="lessequal.lnum" 
d="M430 161v-72l-361 152v88l361 152v-73l-285 -119v-9zM431 0h-355l3 68h349z" />
    <glyph glyph-name="greaterequal.lnum" 
d="M70 89v72l285 119v9l-285 119v73l361 -152v-88zM424 0h-355l3 68h349z" />
    <glyph glyph-name="bar.lnum" horiz-adv-x="250" 
d="M92 -199v901h67v-901h-67z" />
    <glyph glyph-name="brokenbar.lnum" horiz-adv-x="250" 
d="M92 307v335h67v-335h-67zM92 -139v335h67v-335h-67z" />
    <glyph glyph-name="bullet.lnum" 
d="M442 232q0 -22 -20 -71.5t-36 -65.5q-15 -15 -65 -35.5t-72 -20.5q-21 0 -71 20.5t-64 35.5q-15 16 -36 66t-21 71q0 22 21 71.5t36 64.5t65 35.5t71 20.5q22 0 71.5 -20.5t64.5 -35.5t35.5 -64.5t20.5 -71.5z" />
    <glyph glyph-name="asciitilde.lnum" 
d="M424 304q-7 -65 -29.5 -95.5t-67.5 -30.5q-34 0 -86 34.5t-67 34.5q-29 0 -38 -62h-1h-1h-1h-1h-1h-1h-1h-1h-1h-1h-2h-1h-1h-2h-1h-1h-2h-1h-2h-2h-1h-2h-2h-1h-2h-2h-2h-2h-2h-2h-2h-10q7 66 29.5 96.5t67.5 30.5q34 0 86 -35t67 -35q29 0 37 62h1h1h1h1h1h1h1h1h1h1h1
h1h1h2h1h1h2h1h1h2h2h1h2h1h2h2h1h2h2h2h2h2h2h2h8z" />
    <glyph glyph-name="quotesingle.lnum" horiz-adv-x="250" 
d="M77 398h-34l115 247l75 -36z" />
    <glyph glyph-name="quotedbl.lnum" 
d="M277 398h-34l115 247l75 -36zM127 398h-34l115 247l75 -36z" />
    <glyph glyph-name="parenleft.lnum" 
d="M415 -257q-48 24 -94.5 65.5t-89.5 100.5t-69.5 140t-26.5 170t26.5 170.5t69.5 140.5t89.5 100.5t93.5 65.5l36 -52q-94 -51 -168.5 -165.5t-74.5 -259.5q0 -75 22.5 -145.5t59 -123.5t77.5 -92.5t84 -62.5z" />
    <glyph glyph-name="parenright.lnum" 
d="M85 -257l-35 52q43 23 84.5 62.5t77.5 92.5t58.5 123.5t22.5 145.5q0 145 -74 259.5t-169 165.5l36 52q47 -24 93.5 -65.5t89.5 -100.5t69.5 -140.5t26.5 -170.5t-26.5 -170t-69.5 -140t-89.5 -100.5t-94.5 -65.5z" />
    <glyph glyph-name="bracketleft.lnum" 
d="M424 -222h-274v897h274v-65h-203v-767h203v-65z" />
    <glyph glyph-name="bracketright.lnum" 
d="M77 -222v65h203v767h-203v65h274v-897h-274z" />
    <glyph glyph-name="asterisk.lnum" 
d="M244 454l-101 -111l-55 70l141 61v5l-137 63l50 71l102 -116l4 1l19 150l81 -26l-78 -132l3 -3l144 29v-84l-144 30l-3 -3l75 -133l-81 -24l-17 151z" />
    <glyph glyph-name="braceleft.lnum" 
d="M402 -229q-112 5 -167.5 36t-55.5 98q0 43 23.5 109t23.5 95q0 41 -28 59t-94 23l-3 40l3 40q66 5 94 22.5t28 59.5q0 29 -23.5 95t-23.5 109q0 67 55.5 98.5t167.5 36.5v-57q-80 -6 -114.5 -23.5t-34.5 -49.5q0 -29 24 -91.5t24 -103.5q0 -57 -35 -92t-100 -39v-10
q65 -4 100 -39.5t35 -92.5q0 -41 -24 -102.5t-24 -88.5q0 -34 34.5 -52.5t114.5 -23.5v-56z" />
    <glyph glyph-name="braceright.lnum" 
d="M398 231l-3 -40q-66 -5 -94.5 -23t-28.5 -59q0 -29 24 -95t24 -109q0 -67 -55.5 -98t-167.5 -36v56q79 5 114 23t35 52q0 28 -23.5 89.5t-23.5 102.5q0 57 34.5 92.5t99.5 39.5v10q-65 4 -99.5 38.5t-34.5 92.5q0 41 23.5 103.5t23.5 91.5q0 32 -35 49.5t-114 23.5v57
q112 -5 167.5 -36.5t55.5 -98.5q0 -43 -24 -109t-24 -95q0 -42 28.5 -59.5t94.5 -22.5z" />
    <glyph glyph-name="section.lnum" 
d="M469 294q0 -44 -27 -76.5t-72 -47.5q48 -35 48 -90q0 -64 -48.5 -105t-123.5 -41q-90 0 -158 43l20 72q63 -43 140 -43q41 0 67 18t26 49q0 16 -9.5 28.5t-32 22.5t-39.5 16t-51 15q-31 9 -49.5 15t-44 18t-40 24.5t-25 32.5t-10.5 45q0 41 30.5 74.5t74.5 47.5
q-55 36 -55 91q0 63 46.5 101.5t116.5 38.5q79 0 147 -34l-21 -72q-62 34 -130 34q-38 0 -60.5 -15.5t-22.5 -43.5q0 -15 9 -26t28.5 -20t36 -14.5t46.5 -13.5q7 -2 11 -3q38 -11 62.5 -20t53 -25.5t42.5 -40.5t14 -55zM395 277q0 23 -22 41t-49 27t-71 23t-69 25
q-71 -42 -71 -85q0 -29 32 -47t95 -36.5t92 -32.5q63 35 63 85z" />
    <glyph glyph-name="paragraph.lnum" 
d="M341 261q-33 -7 -63 -7q-114 0 -173 50.5t-59 131.5q0 91 64.5 140t172.5 49h-1h-1h1h1h1h1h1h1h1h1h1h1h1h1h1h1h1h1h1h1h1h1h1h1h1h1h1h1h1h1h1h1h2h1h1h1h2h1h1h1h2h1h1h2h1h1h2h1h1h2h1h2h1h2h1h2h1h2h1h2h1h2h1h2h1h2h2h1h2h2h1h2h2h1h2h2h1h2h2h1h2h2h2h1h2h2h2h2
h1h10v-689h-67v325z" />
    <glyph glyph-name="period.lnum" horiz-adv-x="250" 
d="M190 50q0 -26 -18 -45.5t-45 -19.5q-28 0 -46.5 19.5t-18.5 45.5t18.5 44.5t46.5 18.5q27 0 45 -18.5t18 -44.5z" />
    <glyph glyph-name="comma.lnum" horiz-adv-x="250" 
d="M56 63q3 26 20.5 42.5t47.5 16.5q32 0 58.5 -26.5t26.5 -65.5q0 -95 -148 -195l-35 35q102 74 102 127q0 19 -15.5 33t-56.5 33z" />
    <glyph glyph-name="colon.lnum" horiz-adv-x="250" 
d="M190 358q0 -26 -18 -45.5t-45 -19.5q-28 0 -46.5 19.5t-18.5 45.5t18.5 44.5t46.5 18.5q27 0 45 -18.5t18 -44.5zM190 50q0 -26 -18 -45.5t-45 -19.5q-28 0 -46.5 19.5t-18.5 45.5t18.5 44.5t46.5 18.5q27 0 45 -18.5t18 -44.5z" />
    <glyph glyph-name="semicolon.lnum" horiz-adv-x="250" 
d="M190 358q0 -26 -18 -45.5t-45 -19.5q-28 0 -46.5 19.5t-18.5 45.5t18.5 44.5t46.5 18.5q27 0 45 -18.5t18 -44.5zM56 63q3 26 20.5 42.5t47.5 16.5q32 0 58.5 -26.5t26.5 -65.5q0 -95 -148 -195l-35 35q102 74 102 127q0 19 -15.5 33t-56.5 33z" />
    <glyph glyph-name="guilsinglleft.lnum" horiz-adv-x="342" 
d="M300 85l-8 -60l-262 162v94l262 162l8 -60l-200 -148v-2z" />
    <glyph glyph-name="guilsinglright.lnum" horiz-adv-x="342" 
d="M312 187l-262 -162l-8 60l200 148v2l-200 148l8 60l262 -162v-94z" />
    <glyph glyph-name="guillemotleft.lnum" horiz-adv-x="580" 
d="M554 85l-7 -60l-262 162v94l262 162l7 -60l-194 -148v-2zM277 92l-8 -56l-249 153v90l249 153l8 -56l-185 -141v-2z" />
    <glyph glyph-name="guillemotright.lnum" horiz-adv-x="586" 
d="M566 189l-249 -153l-8 56l185 141v2l-185 141l8 56l249 -153v-90zM301 187l-262 -162l-7 60l194 148v2l-194 148l7 60l262 -162v-94z" />
    <glyph glyph-name="periodcentered.lnum" horiz-adv-x="250" 
d="M190 228q0 -26 -18 -45.5t-45 -19.5q-28 0 -46.5 19.5t-18.5 45.5t18.5 44.5t46.5 18.5q27 0 45 -18.5t18 -44.5z" />
    <glyph glyph-name="hyphen.lnum" horiz-adv-x="310" 
d="M279 204h-246v77h246v-77z" />
    <glyph glyph-name="endash.lnum" horiz-adv-x="461" 
d="M433 207h-403l3 59h397z" />
    <glyph glyph-name="emdash.lnum" horiz-adv-x="931" 
d="M903 207h-873l3 59h867z" />
    <glyph glyph-name="tribol_north.orn" horiz-adv-x="750" 
d="M88 45l288 539l286 -539h-574zM502 137l-127 261l-127 -261h254z" />
    <glyph glyph-name="tribol_east.orn" horiz-adv-x="750" 
d="M145 600l539 -288l-539 -286v574zM237 186l261 127l-261 127v-254z" />
    <glyph glyph-name="tribol_south.orn" horiz-adv-x="750" 
d="M88 584h574l-286 -539zM502 492h-254l127 -261z" />
    <glyph glyph-name="tribol_west.orn" horiz-adv-x="750" 
d="M604 600v-574l-539 286zM512 186v254l-261 -127z" />
    <glyph glyph-name="trisol_north.orn" horiz-adv-x="750" 
d="M88 45l288 539l286 -539h-574z" />
    <glyph glyph-name="trisol_east.orn" horiz-adv-x="750" 
d="M145 600l539 -288l-539 -286v574z" />
    <glyph glyph-name="trisol_south.orn" horiz-adv-x="750" 
d="M88 584h574l-286 -539z" />
    <glyph glyph-name="trisol_west.orn" horiz-adv-x="750" 
d="M604 600v-574l-539 286z" />
    <glyph glyph-name="arrow_north.orn" horiz-adv-x="750" 
d="M333 -10l6 512l-221 -231l-59 54l312 315h7l313 -315l-59 -54l-222 231l6 -512h-83z" />
    <glyph glyph-name="arrow_east.orn" horiz-adv-x="750" 
d="M390 -4l-54 59l231 221l-512 -6v83l512 -6l-231 222l54 59l315 -313v-7z" />
    <glyph glyph-name="arrow_south.orn" horiz-adv-x="750" 
d="M370 -15l-313 315l59 54l222 -231l-6 512h83l-6 -512l221 231l59 -54l-312 -315h-7z" />
    <glyph glyph-name="arrow_west.orn" horiz-adv-x="750" 
d="M360 -4l-315 312v7l315 313l54 -59l-231 -222l512 6v-83l-512 6l231 -221z" />
    <glyph glyph-name="sqrreg_2.orn" 
d="M41 417h418v-417h-418v417zM406 53v313h-313v-313h313z" />
    <glyph glyph-name="sqrbol_2.orn" 
d="M41 417h418v-417h-418v417zM368 91v236h-236v-236h236z" />
    <glyph glyph-name="sqrshd_2.orn" 
d="M41 417h418v-417h-418v417zM414 373h-37l37 -37v37zM414 307l-65 66h-65l130 -130v64zM414 215l-158 158h-64l222 -222v64zM414 123l-250 250h-64l314 -314v64zM400 46l-314 313v-65l250 -248h64zM307 46l-221 220v-64l157 -156h64zM214 46l-128 127v-64l64 -63h64z
M122 46l-36 36v-36h36z" />
    <glyph glyph-name="sqrsol_2.orn" 
d="M41 0v417h418v-417h-418z" />
    <glyph glyph-name="sqrreg_1.orn" horiz-adv-x="750" 
d="M688 626v-626h-626v626h626zM633 55v516h-516v-516h516z" />
    <glyph glyph-name="sqrbol_1.orn" horiz-adv-x="750" 
d="M688 626v-626h-626v626h626zM177 511v-396h396v396h-396z" />
    <glyph glyph-name="sqrshd_1.orn" horiz-adv-x="750" 
d="M688 626v-626h-626v626h626zM633 493v78h-78zM633 351v116l-104 104h-116zM633 209v116l-246 246h-116zM633 68v116l-387 387h-116zM505 55h116l-504 504v-116zM117 417v-116l246 -246h116zM221 55h116l-220 220v-116zM117 135v-80h80z" />
    <glyph glyph-name="sqrsol_1.orn" horiz-adv-x="750" 
d="M688 626v-626h-626v626h626z" />
    <glyph glyph-name="crcreg_2.orn" 
d="M250 -10q-92 0 -155.5 63.5t-63.5 155.5t63.5 155t155.5 63t155.5 -63t63.5 -155t-63.5 -155.5t-155.5 -63.5zM416 209q0 70 -48 119t-118 49t-118 -49t-48 -119t48 -119t118 -49t118 49t48 119z" />
    <glyph glyph-name="crcbol_2.orn" 
d="M250 -10q-92 0 -155.5 63.5t-63.5 155.5t63.5 155t155.5 63t155.5 -63t63.5 -155t-63.5 -155.5t-155.5 -63.5zM376 209q0 53 -36.5 90.5t-89.5 37.5t-89.5 -37.5t-36.5 -90.5q0 -54 36 -91t90 -37t90 37t36 91z" />
    <glyph glyph-name="crcshd_2.orn" 
d="M250 -10q-92 0 -155.5 63.5t-63.5 155.5t63.5 155t155.5 63t155.5 -63t63.5 -155t-63.5 -155.5t-155.5 -63.5zM376 337q-45 43 -101 50l151 -151q-7 58 -50 101zM428 205l-184 184q-32 -2 -55 -11l228 -229q9 24 11 56zM410 128l-241 242q-18 -7 -38 -27l253 -254
q17 17 26 39zM370 75l-254 254q-17 -17 -26 -40l242 -241q19 8 38 27zM311 39l-229 229q-8 -24 -10 -55l184 -184q31 0 55 10zM74 182q7 -60 53 -104q42 -41 98 -48z" />
    <glyph glyph-name="crcsol_2.orn" 
d="M250 -10q-92 0 -155.5 63.5t-63.5 155.5t63.5 155t155.5 63t155.5 -63t63.5 -155t-63.5 -155.5t-155.5 -63.5z" />
    <glyph glyph-name="crcreg_1.orn" horiz-adv-x="750" 
d="M703 313q0 -138 -95 -233t-233 -95t-233 95t-95 233t95 233t233 95t233 -95t95 -233zM375 37q116 0 194.5 80.5t78.5 195.5t-78.5 195.5t-194.5 80.5t-194.5 -80.5t-78.5 -195.5t78.5 -195.5t194.5 -80.5z" />
    <glyph glyph-name="crcbol_1.orn" horiz-adv-x="750" 
d="M703 313q0 -138 -95 -233t-233 -95t-233 95t-95 233t95 233t233 95t233 -95t95 -233zM375 529q-90 0 -151.5 -63t-61.5 -153t61.5 -153t151.5 -63t151.5 63t61.5 153t-61.5 153t-151.5 63z" />
    <glyph glyph-name="crcshd_1.orn" horiz-adv-x="750" 
d="M703 313q0 -138 -95 -233t-233 -95t-233 95t-95 233t95 234t233 96t233 -96t95 -234zM647 337q-8 102 -78.5 173t-172.5 78zM629 212q17 45 19 98l-279 279q-53 -2 -97 -19l60 -60t115 -115.5t130 -130.5zM576 125q28 29 46 69l-92 92q-91 92 -183 184l-92 92
q-38 -18 -68 -48zM496 64q38 18 68 48l-390 390q-27 -28 -46 -70zM120 414q-16 -45 -18 -98l279 -279q49 0 97 19zM103 289q8 -102 78.5 -173t172.5 -78z" />
    <glyph glyph-name="crcsol_1.orn" horiz-adv-x="750" 
d="M703 313q0 -138 -95 -233t-233 -95t-233 95t-95 233t95 233t233 95t233 -95t95 -233z" />
    <glyph glyph-name="apple" horiz-adv-x="758" 
d="M763 233l-180 -85l69 -189l-189 69l-85 -181l-84 180l-187 -68l68 187l-181 86l181 83l-68 189l187 -69l86 181l83 -181l189 69l-69 -189zM663 232l-132 62l50 139l-139 -50l-63 133l-63 -133l-139 50l51 -139l-134 -63l134 -63l-51 -138l139 51l62 -135l64 135l139 -51
l-50 140z" />
  </font>
</defs>
</svg>
