<svg xmlns="http://www.w3.org/2000/svg" width="49.452" height="49.452" viewBox="0 0 49.452 49.452"><defs><style>.a{fill:#fff;}.a,.b{fill-rule:evenodd;}.b{fill:#f15b2b;}</style></defs><g transform="translate(24.726 24.726)"><g transform="translate(-24.726 -24.726)"><path class="a" d="M5.495,49.452H43.957a5.5,5.5,0,0,0,5.495-5.495V5.495A5.5,5.5,0,0,0,43.957,0H5.495A5.5,5.5,0,0,0,0,5.495V43.957A5.5,5.5,0,0,0,5.495,49.452Z"/><path class="b" d="M18,25.485v14a1.33,1.33,0,0,0,1.326,1.379H41.177A1.335,1.335,0,0,0,42.5,39.486v-14A1.345,1.345,0,0,0,41.177,24H19.326A1.336,1.336,0,0,0,18,25.485m2.015,1.22a.488.488,0,0,1,.53-.53c.2,0,8.142,5.031,8.623,5.326l1.243.773c.394-.264.79-.49,1.2-.763.834-.533,8.25-5.336,8.454-5.336a.487.487,0,0,1,.53.53c0,.357-.688.712-1.137.986-2.816,1.716-5.632,3.588-8.42,5.368-.163.11-.478.345-.714.309-.263-.041-8.343-5.232-9.813-6.1-.221-.13-.495-.249-.495-.567" transform="translate(-5.637 -7.516)"/></g></g></svg>