<svg xmlns="http://www.w3.org/2000/svg" width="48.958" height="48.958" viewBox="0 0 48.958 48.958"><defs><style>.a{fill:#fff;}.a,.b{fill-rule:evenodd;}.b{fill:#f15b2b;}</style></defs><g transform="translate(24.479 24.479)"><g transform="translate(-24.479 -24.479)"><path class="a" d="M5.44,48.958H43.519a5.44,5.44,0,0,0,5.44-5.44V5.44A5.44,5.44,0,0,0,43.519,0H5.44A5.44,5.44,0,0,0,0,5.44V43.519A5.44,5.44,0,0,0,5.44,48.958Z"/><path class="b" d="M45.359,45.359H38.094V32.985c0-3.393-1.289-5.289-3.974-5.289-2.921,0-4.447,1.973-4.447,5.289V45.359h-7V21.786h7v3.175a8.224,8.224,0,0,1,7.107-3.9c5,0,8.58,3.053,8.58,9.368ZM14.317,18.7a4.35,4.35,0,1,1,4.316-4.35A4.334,4.334,0,0,1,14.317,18.7ZM10.7,45.359H18V21.786H10.7Z" transform="translate(-3.2 -3.2)"/></g></g></svg>