<svg xmlns="http://www.w3.org/2000/svg" width="48.957" height="48.957" viewBox="0 0 48.957 48.957"><defs><style>.a{fill:#fff;}.a,.b{fill-rule:evenodd;}.b{fill:#f15b2b;}</style></defs><g transform="translate(24.479 24.479)"><g transform="translate(-24.479 -24.479)"><path class="a" d="M5.44,48.957H43.517a5.44,5.44,0,0,0,5.44-5.44V5.44A5.44,5.44,0,0,0,43.517,0H5.44A5.44,5.44,0,0,0,0,5.44V43.517A5.44,5.44,0,0,0,5.44,48.957Z"/><path class="b" d="M41.3,22.606c.423,9.418-6.6,19.919-19.033,19.919A18.953,18.953,0,0,1,12,39.516a13.463,13.463,0,0,0,9.913-2.773,6.7,6.7,0,0,1-6.254-4.65,6.716,6.716,0,0,0,3.023-.114,6.7,6.7,0,0,1-5.371-6.651,6.662,6.662,0,0,0,3.034.836,6.7,6.7,0,0,1-2.072-8.939,19.008,19.008,0,0,0,13.8,7,6.7,6.7,0,0,1,11.41-6.109,13.392,13.392,0,0,0,4.252-1.625,6.709,6.709,0,0,1-2.944,3.7,13.374,13.374,0,0,0,3.846-1.054A13.594,13.594,0,0,1,41.3,22.606" transform="translate(-3.84 -3.121)"/></g></g></svg>