<svg width="1921" height="248" viewBox="0 0 1921 248" fill="none" xmlns="http://www.w3.org/2000/svg" style="width: 100%; height: auto;" preserveAspectRatio="xMidYMid meet">
<g clip-path="url(#clip0_59_673)">
<path d="M1285.83 223.677C1294.02 222.191 1302.19 220.651 1310.36 219.044C1318.5 217.437 1326.65 215.776 1334.78 214.048C1342.88 212.334 1350.97 210.553 1359.03 208.718C1367.12 206.883 1375.19 204.981 1383.24 203.039C1391.22 201.111 1399.19 199.115 1407.14 197.08C1415.05 195.044 1422.94 192.955 1430.83 190.812C1438.66 188.683 1446.48 186.5 1454.28 184.263C1462.03 182.04 1469.76 179.763 1477.47 177.446C1485.13 175.143 1492.77 172.786 1500.4 170.375C1507.97 167.991 1515.51 165.54 1523.03 163.049C1530.49 160.585 1537.93 158.067 1545.35 155.496C1553.46 152.683 1561.58 149.857 1569.69 147.058C1578.4 144.058 1587.09 141.059 1595.8 138.072C1604.39 135.126 1613.01 132.193 1621.62 129.3C1630.16 126.434 1638.72 123.595 1647.3 120.822C1655.82 118.063 1664.35 115.372 1672.92 112.76C1681.43 110.162 1689.97 107.644 1698.53 105.22C1700.67 104.617 1702.82 104.041 1704.96 103.439C1703.47 103.506 1701.97 103.573 1700.49 103.64C1699.24 103.988 1697.98 104.323 1696.74 104.684C1688.18 107.122 1679.63 109.653 1671.13 112.251C1662.57 114.876 1654.03 117.581 1645.51 120.34C1636.89 123.139 1628.27 125.992 1619.68 128.885C1611.05 131.791 1602.44 134.724 1593.84 137.67C1585.15 140.657 1576.47 143.657 1567.79 146.643C1559.77 149.416 1551.78 152.215 1543.75 154.973C1536.32 157.531 1528.87 160.049 1521.41 162.513C1513.86 165.004 1506.29 167.455 1498.7 169.839C1491.05 172.25 1483.38 174.607 1475.69 176.924C1467.96 179.241 1460.22 181.518 1452.47 183.727C1444.66 185.964 1436.84 188.134 1429.01 190.263C1421.12 192.392 1413.22 194.482 1405.3 196.504C1397.35 198.54 1389.38 200.522 1381.39 202.45C1373.36 204.392 1365.3 206.267 1357.23 208.102C1349.13 209.937 1341.03 211.704 1332.9 213.419C1324.77 215.133 1316.63 216.794 1308.49 218.387C1300.32 219.981 1292.13 221.521 1283.94 222.994C1275.73 224.468 1267.52 225.887 1259.28 227.24C1252.16 228.418 1245.02 229.53 1237.87 230.601C1240.08 230.601 1242.27 230.601 1244.48 230.601C1250.04 229.744 1255.6 228.86 1261.16 227.95C1269.38 226.584 1277.6 225.164 1285.8 223.677H1285.83Z" fill="#6BA3B7"/>
<path d="M1209.7 234.606C1201.4 235.704 1193.09 236.722 1184.79 237.686C1176.5 238.637 1168.21 239.521 1159.92 240.338C1151.63 241.141 1143.34 241.891 1135.04 242.548C1126.76 243.217 1118.47 243.807 1110.18 244.315C1101.92 244.824 1093.64 245.266 1085.36 245.628C1077.09 245.99 1068.81 246.271 1060.53 246.458C1052.28 246.659 1044.04 246.766 1035.79 246.806C1027.59 246.833 1019.39 246.793 1011.2 246.646C1003.04 246.512 994.884 246.284 986.728 245.976C978.612 245.668 970.51 245.266 962.407 244.784C954.345 244.302 946.296 243.726 938.247 243.043C930.198 242.374 922.162 241.61 914.14 240.74C906.212 239.882 898.283 238.932 890.368 237.887C882.507 236.842 874.659 235.691 866.824 234.445C859.043 233.2 851.275 231.86 843.521 230.414C836.236 229.048 828.977 227.588 821.731 226.035C820.7 226.155 819.669 226.262 818.638 226.383C819.87 226.651 821.089 226.932 822.321 227.2C829.981 228.834 837.669 230.36 845.383 231.78C853.137 233.213 860.918 234.539 868.699 235.758C876.547 236.99 884.395 238.115 892.27 239.146C900.185 240.177 908.114 241.115 916.055 241.958C924.037 242.802 932.046 243.552 940.042 244.208C948.117 244.865 956.193 245.427 964.282 245.909C972.412 246.391 980.541 246.766 988.684 247.061C996.84 247.356 1005 247.57 1013.15 247.69C1021.35 247.811 1029.54 247.851 1037.74 247.798C1045.98 247.757 1054.2 247.623 1062.44 247.409C1070.7 247.195 1078.95 246.914 1087.2 246.539C1095.48 246.164 1103.75 245.722 1112.03 245.199C1120.32 244.677 1128.61 244.074 1136.89 243.405C1145.19 242.735 1153.48 241.985 1161.77 241.155C1170.11 240.324 1178.44 239.427 1186.77 238.463C1195.06 237.499 1203.34 236.467 1211.62 235.369C1219.89 234.271 1228.16 233.106 1236.42 231.874C1236.93 231.793 1237.44 231.713 1237.96 231.633C1235.78 231.633 1233.58 231.606 1231.4 231.592C1224.17 232.651 1216.92 233.668 1209.67 234.619L1209.7 234.606Z" fill="#6BA3B7"/>
<path d="M41.5451 10.5477C49.8887 9.2486 58.2457 8.07005 66.616 7.05221C74.8659 6.03438 83.1425 5.16386 91.4191 4.42726C99.602 3.70406 107.785 3.11479 115.981 2.65944C124.097 2.21749 132.213 1.92285 140.342 1.76214C148.405 1.60143 156.467 1.58803 164.529 1.72196C172.565 1.85589 180.6 2.12374 188.636 2.53891C196.645 2.95408 204.64 3.50318 212.622 4.19959C220.577 4.89601 228.533 5.72635 236.461 6.70401C244.403 7.68167 252.345 8.79325 260.246 10.0522C268.188 11.3111 276.116 12.7039 284.018 14.2306C291.973 15.7708 299.902 17.4449 307.803 19.2395C315.772 21.0609 323.714 23.0028 331.629 25.0653C339.624 27.1545 347.593 29.3777 355.521 31.708C363.583 34.0785 371.592 36.5829 379.574 39.1945C387.677 41.8462 395.739 44.6185 403.761 47.4979C411.904 50.4174 419.993 53.4442 428.055 56.578C436.265 59.7655 444.421 63.0601 452.537 66.4618C460.827 69.9305 469.064 73.4929 477.26 77.1491C485.63 80.8856 493.947 84.7025 502.224 88.6265C510.688 92.6309 519.098 96.7157 527.482 100.881C536.053 105.14 544.571 109.492 553.062 113.912C561.74 118.438 570.379 123.046 578.99 127.72C587.347 132.273 595.664 136.88 603.954 141.554C604.664 141.675 605.387 141.782 606.097 141.902C606.324 141.942 606.552 141.983 606.78 142.009C605.548 141.313 604.315 140.59 603.07 139.893C594.351 134.992 585.606 130.157 576.807 125.389C568.222 120.742 559.598 116.162 550.919 111.648C542.442 107.256 533.937 102.93 525.379 98.6844C516.969 94.5193 508.518 90.4345 500.014 86.4436C491.737 82.5597 483.434 78.7562 475.077 75.0598C466.894 71.4304 458.671 67.9082 450.408 64.4663C442.292 61.0914 434.136 57.8236 425.939 54.6629C417.89 51.5558 409.801 48.5559 401.672 45.6631C393.677 42.8238 385.641 40.0784 377.565 37.4668C369.57 34.8686 361.521 32.391 353.459 30.0473C345.53 27.7304 337.575 25.5474 329.58 23.4715C321.678 21.4225 313.736 19.5073 305.768 17.7261C297.866 15.9583 289.938 14.311 281.996 12.7976C274.094 11.2977 266.166 9.93162 258.224 8.6995C250.309 7.48078 242.38 6.38258 234.425 5.43171C226.443 4.48084 218.448 3.66389 210.453 2.99426C202.484 2.32463 194.502 1.80232 186.52 1.41393C178.511 1.02554 170.489 0.784478 162.467 0.677337C154.405 0.570196 146.329 0.610374 138.266 0.79787C130.137 0.985367 122.008 1.30679 113.892 1.77553C105.669 2.24427 97.4458 2.86033 89.2361 3.62371C80.9193 4.38709 72.6293 5.29778 64.3393 6.34241C55.9555 7.40042 47.5985 8.59236 39.2416 9.91823C30.7506 11.2709 22.2865 12.7575 13.8492 14.3646C6.52343 15.7708 -0.788925 17.2842 -8.08789 18.8779V19.8957C-0.0255461 18.1279 8.06359 16.4672 16.1795 14.9405C24.6168 13.3467 33.0676 11.8869 41.5451 10.5611V10.5477Z" fill="#6BA3B7"/>
<path d="M775.192 214.57C767.786 212.508 760.42 210.325 753.08 208.021C745.795 205.731 738.536 203.334 731.317 200.816C724.139 198.312 717.014 195.687 709.93 192.941C702.885 190.209 695.881 187.357 688.93 184.383C682.006 181.41 675.149 178.33 668.345 175.116C661.529 171.902 654.765 168.553 648.082 165.071C641.453 161.629 634.877 158.054 628.382 154.357C622.007 150.728 615.659 147.072 609.297 143.442C608.923 143.375 608.548 143.308 608.173 143.255C607.61 143.161 607.034 143.067 606.472 142.974C614.32 147.42 622.114 151.987 629.976 156.42C636.484 160.089 643.074 163.638 649.73 167.053C656.399 170.482 663.136 173.79 669.939 176.964C676.756 180.151 683.64 183.218 690.577 186.165C697.541 189.124 704.559 191.964 711.63 194.669C718.728 197.401 725.867 199.999 733.059 202.49C740.291 204.995 747.549 207.365 754.848 209.628C762.214 211.919 769.62 214.075 777.053 216.124C784.526 218.186 792.04 220.142 799.58 221.976C804.91 223.276 810.267 224.508 815.637 225.7C816.655 225.592 817.686 225.472 818.704 225.351C811.713 223.825 804.722 222.218 797.772 220.503C790.218 218.642 782.705 216.66 775.205 214.57H775.192Z" fill="#6BA3B7"/>
<path d="M1881.62 75.3543C1872.46 75.4213 1863.31 75.7159 1854.17 76.2248C1845.15 76.7338 1836.17 77.457 1827.18 78.381C1818.3 79.3051 1809.44 80.4167 1800.61 81.7158C1791.78 83.0149 1782.99 84.5015 1774.21 86.1488C1765.52 87.7826 1756.86 89.5773 1748.22 91.5192C1739.59 93.4611 1731 95.537 1722.42 97.7334C1716.53 99.2467 1710.67 100.827 1704.81 102.448C1706.31 102.381 1707.83 102.314 1709.33 102.247C1714.28 100.907 1719.25 99.5815 1724.22 98.3092C1732.79 96.1262 1741.39 94.0638 1750.03 92.1486C1758.69 90.2201 1767.38 88.4389 1776.1 86.8318C1784.85 85.2113 1793.63 83.7515 1802.44 82.4792C1811.3 81.1935 1820.16 80.1087 1829.07 79.2114C1838.06 78.3141 1847.07 77.6177 1856.08 77.1355C1865.23 76.6534 1874.4 76.3855 1883.56 76.3588C1892.91 76.332 1902.26 76.5329 1911.59 76.9882C1914.55 77.1355 1917.5 77.3096 1920.45 77.4971V76.4927C1916.83 76.265 1913.21 76.0507 1909.6 75.89C1900.28 75.4749 1890.94 75.3007 1881.61 75.3677L1881.62 75.3543Z" fill="#6BA3B7"/>
<path d="M1890.11 105.153C1882.44 104.456 1874.74 103.84 1867.05 103.318C1859.31 102.782 1851.56 102.34 1843.81 101.965C1836.01 101.59 1828.21 101.296 1820.4 101.081C1812.52 100.854 1804.63 100.706 1796.75 100.639C1788.76 100.559 1780.78 100.546 1772.78 100.613C1764.66 100.666 1756.55 100.787 1748.43 100.974C1740.17 101.162 1731.89 101.403 1723.63 101.697C1718.87 101.872 1714.11 102.059 1709.35 102.26C1707.85 102.327 1706.34 102.394 1704.84 102.461C1702.7 102.555 1700.54 102.648 1698.4 102.756C1689.84 103.171 1681.28 103.559 1672.72 104.001C1664.25 104.43 1655.77 104.912 1647.29 105.421C1638.77 105.93 1630.27 106.479 1621.77 107.055C1613.33 107.63 1604.9 108.246 1596.47 108.889C1588 109.532 1579.54 110.215 1571.07 110.938C1562.68 111.648 1554.29 112.385 1545.91 113.162C1537.51 113.938 1529.12 114.742 1520.73 115.586C1512.36 116.416 1503.99 117.286 1495.62 118.184C1487.28 119.081 1478.92 120.005 1470.58 120.956C1462.25 121.907 1453.93 122.885 1445.61 123.902C1437.34 124.907 1429.06 125.938 1420.8 126.996C1412.49 128.054 1404.19 129.152 1395.89 130.264C1387.66 131.362 1379.45 132.5 1371.23 133.652C1362.97 134.817 1354.72 135.996 1346.47 137.201C1338.28 138.407 1330.11 139.625 1321.93 140.871C1313.72 142.116 1305.51 143.389 1297.32 144.688C1289.19 145.973 1281.06 147.273 1272.93 148.598C1264.8 149.924 1256.67 151.277 1248.54 152.643C1240.44 154.009 1232.34 155.388 1224.23 156.795C1216.16 158.201 1208.07 159.62 1200.01 161.054C1191.96 162.487 1183.89 163.933 1175.85 165.406C1167.81 166.866 1159.79 168.352 1151.77 169.852C1143.76 171.339 1135.76 172.852 1127.77 174.379C1119.81 175.893 1111.87 177.419 1103.93 178.959C1095.96 180.513 1087.98 182.067 1080.01 183.647C1072.09 185.214 1064.19 186.794 1056.28 188.374C1048.13 189.995 1039.99 191.589 1031.83 193.142C1023.72 194.696 1015.6 196.209 1007.47 197.682C999.29 199.169 991.094 200.629 982.884 202.048C974.728 203.468 966.572 204.847 958.403 206.187C955.47 206.669 952.537 207.124 949.617 207.593C949.724 207.606 949.845 207.633 949.952 207.646C950.93 207.794 951.921 207.928 952.898 208.075C955.349 207.673 957.8 207.298 960.251 206.896C968.447 205.544 976.63 204.151 984.813 202.731C992.982 201.312 1001.15 199.852 1009.32 198.365C1017.45 196.879 1025.57 195.365 1033.68 193.812C1041.84 192.258 1049.98 190.665 1058.12 189.031C1066.03 187.45 1073.91 185.87 1081.82 184.316C1089.76 182.75 1097.71 181.196 1105.67 179.656C1113.64 178.116 1121.62 176.576 1129.59 175.062C1137.56 173.549 1145.54 172.049 1153.52 170.562C1161.57 169.062 1169.62 167.576 1177.68 166.116C1185.7 164.656 1193.74 163.21 1201.76 161.79C1209.86 160.357 1217.96 158.924 1226.08 157.531C1234.16 156.138 1242.23 154.759 1250.32 153.393C1258.45 152.027 1266.58 150.674 1274.71 149.348C1282.87 148.023 1291.02 146.71 1299.18 145.424C1307.33 144.139 1315.48 142.88 1323.63 141.634C1331.86 140.389 1340.09 139.157 1348.33 137.951C1356.52 136.746 1364.73 135.581 1372.93 134.429C1381.19 133.277 1389.46 132.139 1397.72 131.027C1406 129.916 1414.27 128.831 1422.55 127.786C1430.83 126.728 1439.09 125.71 1447.37 124.706C1455.71 123.702 1464.07 122.724 1472.42 121.773C1480.74 120.822 1489.06 119.911 1497.39 119.028C1505.76 118.13 1514.13 117.273 1522.5 116.443C1530.9 115.612 1539.28 114.809 1547.68 114.032C1556.06 113.269 1564.46 112.532 1572.84 111.822C1581.31 111.112 1589.77 110.429 1598.23 109.787C1606.67 109.144 1615.1 108.541 1623.53 107.965C1632.01 107.389 1640.5 106.854 1648.98 106.345C1657.48 105.836 1665.99 105.367 1674.49 104.939C1683.02 104.51 1691.55 104.108 1700.1 103.706C1700.23 103.706 1700.38 103.706 1700.51 103.693C1702 103.626 1703.5 103.559 1704.99 103.492C1711.79 103.184 1718.58 102.903 1725.38 102.662C1733.61 102.381 1741.84 102.139 1750.08 101.965C1758.21 101.791 1766.35 101.684 1774.48 101.631C1782.44 101.59 1790.39 101.604 1798.35 101.697C1806.22 101.791 1814.11 101.939 1821.98 102.18C1829.79 102.407 1837.59 102.715 1845.38 103.104C1853.11 103.479 1860.82 103.947 1868.54 104.483C1876.28 105.032 1884.02 105.648 1891.75 106.372C1899.43 107.081 1907.11 107.871 1914.78 108.755C1916.67 108.97 1918.56 109.211 1920.46 109.438V108.434C1918.08 108.139 1915.69 107.845 1913.3 107.577C1905.58 106.706 1897.85 105.916 1890.11 105.206V105.153Z" fill="#6BA3B7"/>
<path d="M30.9647 185.602C39.2011 185.214 47.4375 184.973 55.674 184.879C63.8569 184.799 72.0398 184.866 80.2226 185.093C88.4725 185.321 96.7089 185.723 104.945 186.272C113.182 186.834 121.405 187.558 129.615 188.441C137.998 189.352 146.382 190.37 154.739 191.482C163.042 192.58 171.332 193.798 179.609 195.098C187.725 196.37 195.814 197.736 203.903 199.142C211.966 200.548 220.015 202.008 228.05 203.508C236.005 204.981 243.961 206.481 251.902 207.968C259.911 209.468 267.92 210.968 275.929 212.441C283.857 213.887 291.799 215.32 299.727 216.713C307.589 218.093 315.45 219.418 323.339 220.664C331.24 221.923 339.155 223.101 347.07 224.226C354.985 225.351 362.9 226.396 370.829 227.4C378.837 228.405 386.846 229.342 394.868 230.213C402.85 231.083 410.846 231.9 418.855 232.637C426.904 233.387 434.952 234.083 443.015 234.713C451.091 235.342 459.18 235.918 467.269 236.44C475.345 236.949 483.434 237.405 491.523 237.807C499.679 238.208 507.848 238.557 516.004 238.838C524.134 239.119 532.263 239.36 540.406 239.534C548.589 239.708 556.758 239.842 564.941 239.909C573.137 239.976 581.334 239.99 589.53 239.963C597.713 239.923 605.909 239.842 614.092 239.695C622.342 239.561 630.605 239.36 638.855 239.119C647.064 238.878 655.287 238.583 663.497 238.248C671.747 237.914 679.997 237.525 688.247 237.083C696.51 236.641 704.76 236.159 713.01 235.637C721.273 235.101 729.536 234.525 737.799 233.909C746.063 233.28 754.326 232.61 762.589 231.9C770.825 231.191 779.075 230.427 787.298 229.637C795.588 228.833 803.878 227.99 812.168 227.092C814.325 226.865 816.481 226.597 818.65 226.369C819.682 226.262 820.713 226.142 821.744 226.021C826.793 225.459 831.829 224.909 836.878 224.32C845.141 223.356 853.391 222.338 861.641 221.293C869.877 220.249 878.114 219.151 886.35 218.026C894.56 216.901 902.769 215.736 910.966 214.53C919.215 213.325 927.465 212.066 935.702 210.794C940.349 210.07 944.983 209.307 949.63 208.557C948.572 208.396 947.501 208.222 946.443 208.062C942.224 208.731 938.005 209.428 933.773 210.084C925.564 211.356 917.34 212.602 909.104 213.794C900.881 214.999 892.645 216.164 884.408 217.289C876.158 218.414 867.908 219.499 859.645 220.543C851.395 221.588 843.146 222.593 834.882 223.557C829.485 224.186 824.088 224.776 818.691 225.365C817.673 225.472 816.642 225.592 815.624 225.713C813.789 225.914 811.954 226.128 810.106 226.329C801.87 227.2 793.633 228.043 785.397 228.833C777.107 229.637 768.817 230.387 760.526 231.097C752.29 231.807 744.054 232.463 735.817 233.079C727.527 233.695 719.251 234.271 710.961 234.793C702.737 235.316 694.501 235.784 686.278 236.213C678.001 236.641 669.725 237.03 661.448 237.351C653.238 237.686 645.029 237.967 636.806 238.195C628.583 238.423 620.36 238.61 612.123 238.744C603.914 238.878 595.704 238.958 587.481 238.985C579.284 239.012 571.088 238.985 562.892 238.905C554.709 238.824 546.54 238.69 538.357 238.503C530.227 238.315 522.098 238.074 513.969 237.78C505.813 237.485 497.643 237.124 489.487 236.708C481.398 236.293 473.322 235.838 465.246 235.316C457.131 234.793 449.028 234.204 440.926 233.561C432.89 232.918 424.868 232.222 416.859 231.458C408.81 230.695 400.761 229.865 392.726 228.981C384.757 228.097 376.802 227.159 368.847 226.155C360.891 225.151 352.936 224.079 344.981 222.941C337.066 221.802 329.151 220.61 321.263 219.338C313.388 218.079 305.513 216.753 297.665 215.347C289.683 213.928 281.714 212.508 273.732 211.035C265.75 209.562 257.768 208.075 249.786 206.575C241.804 205.075 233.836 203.575 225.854 202.102C217.858 200.629 209.85 199.182 201.841 197.789C193.685 196.37 185.529 195.017 177.346 193.758C169.096 192.486 160.833 191.294 152.556 190.209C144.172 189.111 135.775 188.093 127.378 187.209C119.168 186.352 110.959 185.656 102.722 185.133C94.4857 184.611 86.2493 184.236 77.9995 184.035C69.8166 183.834 61.6337 183.794 53.4508 183.901C45.201 184.008 36.9645 184.29 28.7281 184.705C20.4113 185.12 12.1079 185.696 3.81785 186.406C-0.15975 186.741 -4.13735 187.129 -8.10156 187.531V188.535C-3.38737 188.053 1.34022 187.611 6.06781 187.223C14.3578 186.54 22.6478 185.991 30.9513 185.602H30.9647Z" fill="#6BA3B7"/>
<path d="M15.4432 137.63C22.635 136.291 29.8536 135.072 37.0856 133.974C44.3444 132.876 51.6166 131.884 58.9022 131.014C66.2681 130.13 73.634 129.353 81.0134 128.657C88.5266 127.96 96.0532 127.358 103.58 126.822C111.307 126.286 119.035 125.818 126.762 125.429C134.744 125.027 142.726 124.679 150.708 124.385C159.025 124.077 167.342 123.836 175.659 123.594C184.136 123.34 192.627 123.099 201.105 122.871C209.622 122.644 218.14 122.416 226.658 122.215C235.189 122.014 243.707 121.827 252.238 121.679C260.742 121.519 269.246 121.385 277.751 121.278C286.282 121.17 294.813 121.09 303.344 121.05C311.875 121.01 320.406 120.996 328.937 121.036C337.468 121.063 345.999 121.144 354.53 121.264C363.062 121.385 371.579 121.545 380.097 121.76C388.615 121.974 397.132 122.242 405.65 122.577C414.154 122.898 422.659 123.286 431.163 123.728C439.654 124.17 448.145 124.679 456.636 125.255C465.113 125.831 473.591 126.474 482.068 127.197C490.532 127.92 498.996 128.71 507.447 129.581C515.898 130.451 524.349 131.416 532.786 132.42C541.237 133.438 549.661 134.523 558.098 135.675C566.455 136.813 574.812 138.018 583.142 139.291C590.923 140.469 598.691 141.701 606.445 142.974C607.008 143.067 607.584 143.161 608.146 143.255C608.521 143.322 608.896 143.389 609.271 143.442C617.2 144.755 625.115 146.107 633.03 147.5C641.266 148.96 649.503 150.447 657.739 151.987C665.975 153.527 674.212 155.094 682.435 156.688C690.645 158.281 698.854 159.902 707.064 161.549C715.26 163.183 723.443 164.844 731.639 166.518C739.822 168.192 747.992 169.866 756.174 171.553C764.344 173.241 772.514 174.928 780.683 176.616C784.754 177.46 788.839 178.276 792.897 179.174C796.928 180.071 800.959 180.955 805.004 181.826C813.093 183.58 821.182 185.294 829.285 186.968C837.401 188.642 845.53 190.276 853.659 191.87C861.802 193.464 869.958 195.017 878.114 196.517C886.284 198.031 894.467 199.49 902.649 200.91C910.846 202.33 919.055 203.709 927.265 205.048C933.64 206.079 940.028 207.071 946.417 208.048C947.474 208.209 948.546 208.383 949.604 208.544C950.354 208.664 951.117 208.785 951.867 208.892C960.117 210.137 968.367 211.329 976.63 212.481C984.893 213.633 993.157 214.731 1001.42 215.789C1009.71 216.847 1018 217.852 1026.3 218.802C1034.58 219.753 1042.87 220.664 1051.16 221.508C1059.49 222.365 1067.82 223.168 1076.15 223.918C1084.49 224.668 1092.84 225.365 1101.18 226.021C1109.54 226.664 1117.9 227.253 1126.27 227.802C1134.64 228.338 1143.01 228.82 1151.38 229.249C1159.76 229.677 1168.14 230.052 1176.53 230.36C1184.93 230.668 1193.31 230.936 1201.71 231.124C1210.1 231.325 1218.51 231.458 1226.91 231.539C1228.4 231.552 1229.9 231.552 1231.38 231.566C1233.57 231.579 1235.76 231.592 1237.95 231.606C1242.67 231.619 1247.4 231.619 1252.14 231.606C1260.55 231.566 1268.98 231.458 1277.39 231.298C1285.81 231.137 1294.22 230.909 1302.65 230.615C1311.04 230.32 1319.44 229.972 1327.82 229.557C1336.25 229.142 1344.67 228.659 1353.1 228.11C1361.52 227.561 1369.94 226.945 1378.37 226.276C1386.79 225.593 1395.22 224.843 1403.63 224.026C1411.84 223.235 1420.05 222.418 1428.26 221.548C1436.43 220.677 1444.59 219.767 1452.75 218.829C1460.88 217.892 1469.01 216.914 1477.13 215.91C1485.21 214.919 1493.3 213.887 1501.39 212.856C1509.45 211.825 1517.5 210.78 1525.57 209.722C1533.6 208.678 1541.62 207.62 1549.66 206.575C1557.67 205.53 1565.68 204.499 1573.69 203.481C1581.68 202.463 1589.66 201.459 1597.66 200.495C1605.64 199.531 1613.62 198.58 1621.6 197.669C1629.57 196.758 1637.56 195.901 1645.52 195.071C1653.49 194.254 1661.46 193.477 1669.44 192.767C1677.41 192.057 1685.39 191.401 1693.38 190.812C1701.33 190.223 1709.29 189.714 1717.25 189.272C1725.25 188.83 1733.26 188.468 1741.25 188.2C1749.28 187.933 1757.3 187.745 1765.31 187.665C1773.33 187.584 1781.34 187.598 1789.36 187.718C1797.44 187.839 1805.51 188.08 1813.57 188.428C1821.69 188.776 1829.79 189.258 1837.9 189.861C1846.05 190.464 1854.21 191.2 1862.34 192.071C1870.56 192.941 1878.76 193.959 1886.94 195.111C1895.2 196.276 1903.45 197.589 1911.66 199.062C1914.58 199.584 1917.5 200.147 1920.41 200.696V199.664C1916.94 199.008 1913.48 198.352 1910.01 197.749C1901.8 196.316 1893.55 195.017 1885.3 193.879C1877.14 192.74 1868.97 191.749 1860.76 190.892C1852.63 190.049 1844.47 189.325 1836.33 188.736C1828.23 188.147 1820.12 187.691 1812.01 187.357C1803.94 187.022 1795.87 186.794 1787.79 186.687C1779.76 186.58 1771.71 186.58 1763.66 186.674C1755.64 186.767 1747.62 186.968 1739.61 187.25C1731.6 187.531 1723.6 187.906 1715.61 188.348C1707.61 188.803 1699.63 189.325 1691.65 189.915C1683.67 190.504 1675.68 191.174 1667.72 191.897C1659.73 192.62 1651.76 193.397 1643.8 194.227C1635.81 195.057 1627.85 195.928 1619.88 196.839C1611.89 197.749 1603.91 198.7 1595.93 199.678C1587.94 200.655 1579.94 201.66 1571.96 202.678C1563.95 203.696 1555.94 204.74 1547.93 205.785C1539.9 206.829 1531.87 207.887 1523.84 208.932C1515.78 209.977 1507.73 211.021 1499.66 212.053C1491.58 213.084 1483.49 214.102 1475.4 215.093C1467.27 216.084 1459.15 217.061 1451.01 217.999C1442.84 218.936 1434.67 219.847 1426.5 220.704C1418.25 221.575 1410 222.378 1401.75 223.168C1393.34 223.972 1384.92 224.709 1376.49 225.378C1368.08 226.048 1359.66 226.651 1351.22 227.186C1342.8 227.722 1334.39 228.191 1325.95 228.606C1317.53 229.008 1309.11 229.356 1300.69 229.637C1292.28 229.918 1283.86 230.133 1275.43 230.293C1267.02 230.454 1258.61 230.534 1250.19 230.575C1248.29 230.575 1246.38 230.575 1244.48 230.575C1242.27 230.575 1240.08 230.575 1237.87 230.575C1233.57 230.561 1229.27 230.534 1224.96 230.481C1216.56 230.387 1208.15 230.24 1199.75 230.039C1191.35 229.838 1182.96 229.57 1174.57 229.249C1166.19 228.927 1157.81 228.552 1149.42 228.11C1141.05 227.668 1132.68 227.186 1124.31 226.637C1115.95 226.088 1107.58 225.485 1099.24 224.843C1090.9 224.186 1082.55 223.476 1074.21 222.726C1065.88 221.963 1057.55 221.16 1049.22 220.289C1040.9 219.432 1032.58 218.508 1024.28 217.544C1015.98 216.579 1007.69 215.561 999.398 214.503C991.134 213.445 982.885 212.334 974.635 211.182C967.362 210.164 960.09 209.093 952.831 207.995C951.854 207.847 950.863 207.713 949.885 207.566C949.778 207.553 949.657 207.526 949.55 207.512C941.421 206.28 933.305 204.995 925.203 203.669C916.993 202.33 908.783 200.937 900.587 199.504C892.404 198.071 884.221 196.598 876.052 195.084C867.896 193.571 859.74 192.017 851.597 190.41C843.467 188.816 835.352 187.169 827.236 185.495C819.133 183.821 811.044 182.093 802.968 180.339C798.937 179.455 794.906 178.518 790.861 177.674C786.777 176.817 782.692 175.986 778.607 175.143C770.438 173.455 762.268 171.768 754.099 170.08C745.916 168.393 737.746 166.705 729.563 165.045C721.381 163.37 713.184 161.723 704.988 160.076C696.778 158.442 688.569 156.822 680.359 155.228C672.149 153.634 663.953 152.081 655.73 150.554C647.467 149.027 639.204 147.527 630.94 146.081C622.878 144.661 614.802 143.295 606.727 141.969C606.499 141.929 606.271 141.889 606.044 141.862C605.334 141.741 604.61 141.634 603.901 141.514C596.28 140.282 588.66 139.076 581.04 137.925C572.669 136.666 564.285 135.46 555.902 134.335C547.491 133.197 539.067 132.126 530.643 131.135C522.206 130.13 513.755 129.193 505.304 128.335C496.854 127.478 488.39 126.702 479.925 125.992C471.448 125.282 462.97 124.652 454.493 124.09C446.002 123.528 437.511 123.032 429.007 122.59C420.502 122.161 411.998 121.786 403.494 121.465C394.976 121.144 386.458 120.889 377.941 120.675C369.423 120.461 360.892 120.313 352.361 120.193C343.83 120.086 335.299 120.019 326.768 119.992C318.237 119.965 309.705 119.992 301.174 120.032C292.643 120.086 284.112 120.166 275.581 120.273C267.05 120.38 258.519 120.528 249.988 120.688C241.457 120.849 232.939 121.036 224.408 121.237C215.89 121.438 207.373 121.666 198.855 121.894C190.351 122.121 181.833 122.376 173.329 122.63C165.039 122.871 156.762 123.126 148.472 123.434C140.517 123.728 132.548 124.09 124.593 124.505C116.879 124.907 109.178 125.389 101.464 125.938C93.9506 126.474 86.4374 127.103 78.9375 127.813C71.5716 128.523 64.2057 129.313 56.8531 130.224C49.5809 131.121 42.3221 132.126 35.0767 133.237C27.8447 134.349 20.6261 135.581 13.4343 136.947C6.21568 138.313 -0.989534 139.8 -8.16797 141.42V142.465C-7.53852 142.317 -6.90906 142.17 -6.26622 142.023C0.925607 140.416 8.13083 138.942 15.3762 137.603L15.4432 137.63Z" fill="#6BA3B7"/>
</g>
<defs>
<clipPath id="clip0_59_673">
<rect width="1928.53" height="247.187" fill="white" transform="translate(-8.08789 0.623779)"/>
</clipPath>
</defs>
</svg>
