<svg width="1921" height="249" viewBox="0 0 1921 249" fill="none" xmlns="http://www.w3.org/2000/svg">
<g clip-path="url(#clip0_59_824)">
<path d="M635.067 224C626.871 222.513 618.702 220.973 610.532 219.366C602.39 217.759 594.247 216.098 586.118 214.37C578.015 212.656 569.926 210.875 561.864 209.04C553.774 207.205 545.699 205.303 537.65 203.362C529.668 201.433 521.699 199.437 513.757 197.402C505.842 195.366 497.954 193.277 490.066 191.134C482.231 189.005 474.41 186.822 466.615 184.585C458.861 182.362 451.134 180.085 443.419 177.768C435.759 175.465 428.125 173.108 420.491 170.697C412.924 168.313 405.384 165.862 397.858 163.371C390.398 160.907 382.965 158.389 375.546 155.818C367.43 153.005 359.314 150.179 351.198 147.38C342.493 144.38 333.801 141.381 325.096 138.394C316.498 135.448 307.886 132.515 299.275 129.622C290.73 126.756 282.172 123.917 273.588 121.144C265.07 118.385 256.539 115.694 247.968 113.082C239.463 110.484 230.919 107.966 222.361 105.542C220.218 104.939 218.076 104.363 215.933 103.761C217.419 103.828 218.919 103.895 220.406 103.962C221.651 104.31 222.91 104.645 224.156 105.006C232.714 107.444 241.258 109.975 249.762 112.573C258.32 115.198 266.865 117.903 275.382 120.662C284.007 123.461 292.619 126.314 301.217 129.207C309.842 132.113 318.453 135.046 327.051 137.992C335.743 140.979 344.421 143.979 353.1 146.965C361.122 149.738 369.117 152.537 377.139 155.295C384.572 157.853 392.019 160.371 399.478 162.835C407.032 165.327 414.599 167.777 422.192 170.161C429.839 172.572 437.513 174.929 445.201 177.246C452.928 179.563 460.669 181.84 468.423 184.049C476.231 186.286 484.052 188.456 491.887 190.585C499.775 192.714 507.677 194.804 515.592 196.826C523.547 198.862 531.516 200.844 539.498 202.772C547.533 204.714 555.596 206.589 563.658 208.424C571.761 210.259 579.863 212.027 587.993 213.741C596.122 215.455 604.265 217.116 612.407 218.709C620.577 220.303 628.76 221.843 636.956 223.316C645.166 224.79 653.375 226.209 661.612 227.562C668.736 228.74 675.875 229.852 683.026 230.923C680.817 230.923 678.62 230.923 676.41 230.923C670.852 230.066 665.295 229.182 659.737 228.272C651.514 226.906 643.291 225.486 635.094 224H635.067Z" fill="#6BA3B7"/>
<path d="M711.191 234.928C719.495 236.026 727.798 237.044 736.102 238.008C744.392 238.959 752.682 239.843 760.972 240.66C769.262 241.463 777.552 242.213 785.855 242.87C794.132 243.539 802.422 244.129 810.712 244.637C818.975 245.146 827.252 245.588 835.528 245.95C843.805 246.312 852.082 246.593 860.358 246.78C868.608 246.981 876.858 247.088 885.108 247.129C893.304 247.155 901.5 247.115 909.697 246.968C917.853 246.834 926.009 246.606 934.165 246.298C942.281 245.99 950.383 245.588 958.486 245.106C966.548 244.624 974.597 244.048 982.646 243.365C990.695 242.696 998.731 241.932 1006.75 241.062C1014.68 240.205 1022.61 239.254 1030.52 238.209C1038.39 237.164 1046.23 236.013 1054.07 234.767C1061.85 233.522 1069.62 232.182 1077.37 230.736C1084.66 229.37 1091.92 227.91 1099.16 226.357C1100.19 226.477 1101.22 226.584 1102.26 226.705C1101.02 226.973 1099.8 227.254 1098.57 227.522C1090.91 229.156 1083.22 230.682 1075.51 232.102C1067.76 233.535 1059.97 234.861 1052.19 236.08C1044.35 237.312 1036.5 238.437 1028.62 239.468C1020.71 240.499 1012.78 241.437 1004.84 242.28C996.856 243.124 988.847 243.874 980.851 244.53C972.776 245.187 964.7 245.749 956.611 246.231C948.482 246.713 940.352 247.088 932.209 247.383C924.053 247.678 915.897 247.892 907.741 248.012C899.545 248.133 891.349 248.173 883.152 248.12C874.916 248.079 866.693 247.945 858.456 247.731C850.193 247.517 841.943 247.236 833.694 246.861C825.417 246.486 817.14 246.044 808.864 245.521C800.574 244.999 792.284 244.396 784.007 243.727C775.704 243.057 767.414 242.307 759.124 241.477C750.78 240.646 742.45 239.749 734.12 238.785C725.83 237.821 717.553 236.789 709.276 235.691C701 234.593 692.736 233.428 684.473 232.196C683.964 232.115 683.455 232.035 682.933 231.955C685.116 231.955 687.312 231.928 689.495 231.915C696.727 232.973 703.973 233.99 711.218 234.941L711.191 234.928Z" fill="#6BA3B7"/>
<path d="M1879.35 10.8697C1871 9.57062 1862.65 8.39207 1854.28 7.37424C1846.03 6.3564 1837.75 5.48588 1829.47 4.74929C1821.29 4.02609 1813.11 3.43681 1804.91 2.98146C1796.8 2.53951 1788.68 2.24487 1780.55 2.08416C1772.49 1.92345 1764.43 1.91006 1756.36 2.04398C1748.33 2.17791 1740.29 2.44576 1732.26 2.86093C1724.25 3.2761 1716.25 3.8252 1708.27 4.52161C1700.32 5.21803 1692.36 6.04837 1684.43 7.02603C1676.49 8.00369 1668.55 9.11527 1660.65 10.3742C1652.7 11.6331 1644.78 13.0259 1636.87 14.5527C1628.92 16.0928 1620.99 17.7669 1613.09 19.5615C1605.12 21.3829 1597.18 23.3248 1589.26 25.3873C1581.27 27.4765 1573.3 29.6997 1565.37 32.03C1557.31 34.4005 1549.3 36.9049 1541.32 39.5165C1533.22 42.1682 1525.15 44.9405 1517.13 47.8199C1508.99 50.7395 1500.9 53.7662 1492.84 56.9001C1484.63 60.0875 1476.47 63.3821 1468.36 66.7838C1460.07 70.2525 1451.83 73.8149 1443.63 77.4711C1435.26 81.2076 1426.95 85.0245 1418.67 88.9486C1410.2 92.9529 1401.79 97.0377 1393.41 101.203C1384.84 105.462 1376.32 109.814 1367.83 114.234C1359.15 118.76 1350.51 123.368 1341.9 128.042C1333.55 132.595 1325.23 137.202 1316.94 141.876C1316.23 141.997 1315.51 142.104 1314.8 142.224C1314.57 142.264 1314.34 142.305 1314.11 142.331C1315.35 141.635 1316.58 140.912 1317.82 140.215C1326.54 135.314 1335.29 130.479 1344.09 125.711C1352.67 121.064 1361.29 116.484 1369.97 111.97C1378.45 107.578 1386.96 103.252 1395.51 99.0064C1403.92 94.8413 1412.37 90.7566 1420.88 86.7656C1429.16 82.8817 1437.46 79.0782 1445.82 75.3819C1454 71.7525 1462.22 68.2302 1470.48 64.7883C1478.6 61.4134 1486.76 58.1456 1494.95 54.9849C1503 51.8778 1511.09 48.8779 1519.22 45.9851C1527.22 43.1459 1535.25 40.4004 1543.33 37.7888C1551.32 35.1907 1559.37 32.713 1567.43 30.3693C1575.36 28.0524 1583.32 25.8694 1591.31 23.7936C1599.21 21.7445 1607.16 19.8294 1615.12 18.0481C1623.03 16.2803 1630.95 14.633 1638.9 13.1197C1646.8 11.6197 1654.73 10.2536 1662.67 9.02153C1670.58 7.8028 1678.51 6.70461 1686.47 5.75373C1694.45 4.80286 1702.44 3.98591 1710.44 3.31628C1718.41 2.64665 1726.39 2.12434 1734.37 1.73595C1742.38 1.34757 1750.4 1.1065 1758.43 0.999358C1766.49 0.892218 1774.56 0.932395 1782.63 1.11989C1790.76 1.30739 1798.88 1.62881 1807 2.09755C1815.22 2.56629 1823.45 3.18235 1831.66 3.94573C1839.97 4.70911 1848.26 5.61981 1856.55 6.66443C1864.94 7.72244 1873.29 8.91438 1881.65 10.2403C1890.14 11.5929 1898.61 13.0795 1907.04 14.6866C1914.37 16.0928 1921.68 17.6062 1928.98 19.1999V20.2177C1920.92 18.4499 1912.83 16.7892 1904.71 15.2625C1896.28 13.6688 1887.83 12.209 1879.35 10.8831V10.8697Z" fill="#6BA3B7"/>
<path d="M1145.7 214.892C1153.11 212.83 1160.47 210.647 1167.81 208.343C1175.1 206.053 1182.36 203.656 1189.58 201.138C1196.75 198.634 1203.88 196.009 1210.96 193.263C1218.01 190.531 1225.01 187.679 1231.96 184.705C1238.89 181.732 1245.74 178.652 1252.55 175.438C1259.36 172.224 1266.13 168.875 1272.81 165.393C1279.44 161.951 1286.02 158.376 1292.51 154.679C1298.89 151.05 1305.23 147.394 1311.6 143.764C1311.97 143.697 1312.35 143.63 1312.72 143.577C1313.28 143.483 1313.86 143.389 1314.42 143.296C1306.57 147.742 1298.78 152.309 1290.92 156.742C1284.41 160.411 1277.82 163.96 1271.16 167.375C1264.49 170.804 1257.76 174.112 1250.95 177.286C1244.14 180.473 1237.25 183.54 1230.32 186.487C1223.35 189.446 1216.33 192.286 1209.26 194.991C1202.16 197.723 1195.03 200.321 1187.83 202.812C1180.6 205.317 1173.34 207.687 1166.04 209.951C1158.68 212.241 1151.27 214.397 1143.84 216.446C1136.37 218.508 1128.85 220.464 1121.31 222.298C1115.98 223.598 1110.63 224.83 1105.26 226.022C1104.24 225.914 1103.21 225.794 1102.19 225.673C1109.18 224.147 1116.17 222.54 1123.12 220.825C1130.67 218.964 1138.19 216.982 1145.69 214.892H1145.7Z" fill="#6BA3B7"/>
<path d="M39.2709 75.6763C48.4315 75.7433 57.5786 76.0379 66.7258 76.5469C75.739 77.0558 84.7254 77.779 93.7119 78.7031C102.591 79.6272 111.457 80.7387 120.283 82.0378C129.108 83.3369 137.907 84.8235 146.68 86.4708C155.371 88.1047 164.036 89.8993 172.675 91.8412C181.299 93.7831 189.898 95.859 198.469 98.0554C204.362 99.5687 210.228 101.149 216.08 102.77C214.58 102.703 213.067 102.636 211.567 102.569C206.612 101.229 201.643 99.9036 196.674 98.6313C188.103 96.4483 179.505 94.3858 170.867 92.4707C162.202 90.5421 153.51 88.7609 144.791 87.1538C136.046 85.5333 127.26 84.0735 118.448 82.8012C109.595 81.5155 100.73 80.4307 91.8235 79.5334C82.8371 78.6361 73.8239 77.9397 64.8107 77.4576C55.6636 76.9754 46.4896 76.7076 37.3291 76.6808C27.981 76.654 18.6329 76.8549 9.29828 77.3102C6.33852 77.4576 3.39217 77.6317 0.445801 77.8192V76.8147C4.0618 76.587 7.67776 76.3728 11.2938 76.212C20.615 75.7969 29.9497 75.6228 39.2843 75.6897L39.2709 75.6763Z" fill="#6BA3B7"/>
<path d="M30.7806 105.475C38.4545 104.778 46.1552 104.162 53.8426 103.64C61.5835 103.104 69.3378 102.662 77.0787 102.287C84.8866 101.912 92.681 101.618 100.489 101.403C108.377 101.176 116.265 101.028 124.14 100.962C132.136 100.881 140.118 100.868 148.113 100.935C156.229 100.988 164.345 101.109 172.461 101.296C180.724 101.484 189.001 101.725 197.264 102.02C202.018 102.194 206.786 102.381 211.54 102.582C213.04 102.649 214.554 102.716 216.054 102.783C218.197 102.877 220.353 102.97 222.496 103.078C231.054 103.493 239.611 103.881 248.169 104.323C256.647 104.752 265.124 105.234 273.602 105.743C282.119 106.252 290.624 106.801 299.128 107.377C307.565 107.952 315.989 108.568 324.427 109.211C332.891 109.854 341.355 110.537 349.819 111.26C358.216 111.97 366.6 112.707 374.984 113.484C383.381 114.26 391.778 115.064 400.162 115.908C408.532 116.738 416.903 117.609 425.273 118.506C433.616 119.403 441.974 120.327 450.317 121.278C458.647 122.229 466.964 123.207 475.281 124.224C483.558 125.229 491.834 126.26 500.097 127.318C508.401 128.376 516.704 129.474 525.008 130.586C533.231 131.684 541.44 132.823 549.663 133.974C557.927 135.139 566.177 136.318 574.426 137.523C582.609 138.729 590.779 139.947 598.962 141.193C607.171 142.438 615.381 143.711 623.577 145.01C631.707 146.295 639.836 147.595 647.965 148.92C656.094 150.246 664.224 151.599 672.353 152.965C680.456 154.331 688.558 155.71 696.661 157.117C704.736 158.523 712.825 159.943 720.888 161.376C728.937 162.809 736.999 164.255 745.048 165.728C753.084 167.188 761.106 168.674 769.128 170.174C777.137 171.661 785.132 173.174 793.127 174.701C801.083 176.215 809.024 177.741 816.966 179.281C824.935 180.835 832.917 182.389 840.885 183.969C848.8 185.536 856.702 187.116 864.617 188.696C872.76 190.317 880.903 191.911 889.059 193.464C897.175 195.018 905.291 196.531 913.42 198.004C921.603 199.491 929.799 200.951 938.009 202.37C946.165 203.79 954.321 205.169 962.49 206.509C965.423 206.991 968.356 207.446 971.276 207.915C971.169 207.928 971.048 207.955 970.941 207.968C969.963 208.116 968.972 208.25 967.995 208.397C965.544 207.995 963.093 207.62 960.642 207.218C952.446 205.866 944.263 204.473 936.08 203.053C927.911 201.634 919.741 200.174 911.572 198.687C903.442 197.201 895.326 195.687 887.211 194.134C879.054 192.58 870.912 190.987 862.769 189.353C854.867 187.772 846.979 186.192 839.077 184.638C831.136 183.072 823.18 181.518 815.225 179.978C807.257 178.438 799.275 176.898 791.306 175.384C783.338 173.871 775.356 172.371 767.374 170.884C759.325 169.384 751.276 167.898 743.213 166.438C735.191 164.978 727.156 163.532 719.133 162.112C711.031 160.679 702.928 159.246 694.812 157.853C686.737 156.46 678.661 155.081 670.572 153.715C662.442 152.349 654.313 150.996 646.184 149.67C638.028 148.345 629.872 147.032 621.716 145.746C613.56 144.461 605.417 143.202 597.261 141.956C589.038 140.711 580.801 139.479 572.565 138.273C564.368 137.068 556.159 135.903 547.962 134.751C539.699 133.599 531.436 132.461 523.173 131.349C514.896 130.238 506.62 129.153 498.343 128.108C490.066 127.05 481.803 126.032 473.526 125.028C465.183 124.024 456.826 123.046 448.469 122.095C440.152 121.144 431.835 120.233 423.505 119.35C415.135 118.452 406.764 117.595 398.394 116.765C389.997 115.934 381.613 115.131 373.216 114.354C364.832 113.591 356.435 112.854 348.051 112.144C339.587 111.435 331.123 110.751 322.659 110.109C314.221 109.466 305.797 108.863 297.36 108.287C288.883 107.711 280.392 107.176 271.914 106.667C263.41 106.158 254.906 105.689 246.401 105.261C237.87 104.832 229.339 104.43 220.795 104.028C220.661 104.028 220.513 104.028 220.38 104.015C218.893 103.948 217.393 103.881 215.906 103.814C209.103 103.506 202.313 103.225 195.51 102.984C187.286 102.703 179.05 102.461 170.813 102.287C162.684 102.113 154.542 102.006 146.412 101.953C138.457 101.912 130.502 101.926 122.547 102.02C114.672 102.113 106.784 102.261 98.9087 102.502C91.1008 102.729 83.3063 103.037 75.5119 103.426C67.7844 103.801 60.0701 104.269 52.356 104.805C44.6151 105.354 36.8742 105.97 29.1467 106.694C21.4594 107.403 13.7853 108.194 6.11133 109.077C4.22296 109.292 2.33466 109.533 0.432861 109.76V108.756C2.81677 108.461 5.20062 108.167 7.5979 107.899C15.312 107.028 23.0396 106.238 30.7806 105.528V105.475Z" fill="#6BA3B7"/>
<path d="M1889.93 185.924C1881.69 185.536 1873.45 185.295 1865.22 185.201C1857.04 185.121 1848.85 185.188 1840.67 185.415C1832.42 185.643 1824.18 186.045 1815.95 186.594C1807.71 187.156 1799.49 187.88 1791.28 188.763C1782.89 189.674 1774.51 190.692 1766.15 191.804C1757.85 192.902 1749.56 194.12 1741.28 195.42C1733.17 196.692 1725.08 198.058 1716.99 199.464C1708.93 200.87 1700.88 202.33 1692.84 203.83C1684.89 205.303 1676.93 206.803 1668.99 208.29C1660.98 209.79 1652.97 211.29 1644.96 212.763C1637.03 214.209 1629.09 215.642 1621.16 217.035C1613.3 218.415 1605.44 219.741 1597.55 220.986C1589.65 222.245 1581.74 223.423 1573.82 224.548C1565.91 225.673 1557.99 226.718 1550.06 227.723C1542.05 228.727 1534.05 229.664 1526.02 230.535C1518.04 231.405 1510.05 232.222 1502.04 232.959C1493.99 233.709 1485.94 234.405 1477.88 235.035C1469.8 235.664 1461.71 236.24 1453.62 236.763C1445.55 237.271 1437.46 237.727 1429.37 238.129C1421.21 238.53 1413.04 238.879 1404.89 239.16C1396.76 239.441 1388.63 239.682 1380.49 239.856C1372.3 240.03 1364.13 240.164 1355.95 240.231C1347.75 240.298 1339.56 240.312 1331.36 240.285C1323.18 240.245 1314.98 240.164 1306.8 240.017C1298.55 239.883 1290.29 239.682 1282.04 239.441C1273.83 239.2 1265.6 238.905 1257.39 238.57C1249.15 238.236 1240.9 237.847 1232.65 237.405C1224.38 236.963 1216.13 236.481 1207.88 235.959C1199.62 235.423 1191.36 234.847 1183.09 234.231C1174.83 233.602 1166.57 232.932 1158.3 232.222C1150.07 231.513 1141.82 230.749 1133.59 229.959C1125.3 229.156 1117.01 228.312 1108.72 227.414C1106.57 227.187 1104.41 226.919 1102.24 226.691C1101.21 226.584 1100.18 226.464 1099.15 226.343C1094.1 225.781 1089.06 225.231 1084.01 224.642C1075.75 223.678 1067.5 222.66 1059.25 221.615C1051.02 220.571 1042.78 219.473 1034.54 218.348C1026.33 217.223 1018.12 216.058 1009.93 214.852C1001.68 213.647 993.427 212.388 985.19 211.116C980.543 210.392 975.909 209.629 971.262 208.879C972.32 208.718 973.391 208.544 974.45 208.384C978.668 209.053 982.887 209.75 987.119 210.406C995.328 211.678 1003.55 212.924 1011.79 214.116C1020.01 215.321 1028.25 216.486 1036.48 217.611C1044.73 218.736 1052.98 219.821 1061.25 220.865C1069.5 221.91 1077.75 222.915 1086.01 223.879C1091.41 224.508 1096.8 225.098 1102.2 225.687C1103.22 225.794 1104.25 225.915 1105.27 226.035C1107.1 226.236 1108.94 226.45 1110.79 226.651C1119.02 227.522 1127.26 228.365 1135.5 229.156C1143.79 229.959 1152.08 230.709 1160.37 231.419C1168.6 232.129 1176.84 232.785 1185.07 233.401C1193.36 234.017 1201.64 234.593 1209.93 235.115C1218.15 235.638 1226.39 236.106 1234.61 236.535C1242.89 236.963 1251.17 237.352 1259.44 237.673C1267.65 238.008 1275.86 238.289 1284.09 238.517C1292.31 238.745 1300.53 238.932 1308.77 239.066C1316.98 239.2 1325.19 239.28 1333.41 239.307C1341.61 239.334 1349.8 239.307 1358 239.227C1366.18 239.146 1374.35 239.012 1382.54 238.825C1390.66 238.637 1398.79 238.396 1406.92 238.102C1415.08 237.807 1423.25 237.446 1431.4 237.03C1439.49 236.615 1447.57 236.16 1455.65 235.638C1463.76 235.115 1471.86 234.526 1479.97 233.883C1488 233.24 1496.02 232.544 1504.03 231.78C1512.08 231.017 1520.13 230.187 1528.17 229.303C1536.14 228.419 1544.09 227.481 1552.05 226.477C1560 225.473 1567.96 224.401 1575.91 223.263C1583.83 222.124 1591.74 220.932 1599.63 219.66C1607.5 218.401 1615.38 217.075 1623.23 215.669C1631.21 214.25 1639.18 212.83 1647.16 211.357C1655.14 209.884 1663.12 208.397 1671.11 206.897C1679.09 205.397 1687.06 203.897 1695.04 202.424C1703.03 200.951 1711.04 199.504 1719.05 198.111C1727.21 196.692 1735.36 195.339 1743.55 194.08C1751.8 192.808 1760.06 191.616 1768.34 190.531C1776.72 189.433 1785.12 188.415 1793.51 187.531C1801.72 186.674 1809.93 185.978 1818.17 185.455C1826.41 184.933 1834.64 184.558 1842.89 184.357C1851.08 184.156 1859.26 184.116 1867.44 184.223C1875.69 184.33 1883.93 184.612 1892.16 185.027C1900.48 185.442 1908.78 186.018 1917.07 186.728C1921.05 187.063 1925.03 187.451 1928.99 187.853V188.857C1924.28 188.375 1919.55 187.933 1914.82 187.545C1906.53 186.862 1898.24 186.313 1889.94 185.924H1889.93Z" fill="#6BA3B7"/>
<path d="M1905.45 137.952C1898.26 136.613 1891.04 135.394 1883.81 134.296C1876.55 133.198 1869.28 132.207 1861.99 131.336C1854.62 130.452 1847.26 129.675 1839.88 128.979C1832.37 128.282 1824.84 127.68 1817.31 127.144C1809.59 126.608 1801.86 126.14 1794.13 125.751C1786.15 125.35 1778.17 125.001 1770.18 124.707C1761.87 124.399 1753.55 124.158 1745.23 123.916C1736.76 123.662 1728.27 123.421 1719.79 123.193C1711.27 122.966 1702.75 122.738 1694.24 122.537C1685.7 122.336 1677.19 122.149 1668.66 122.001C1660.15 121.841 1651.65 121.707 1643.14 121.6C1634.61 121.492 1626.08 121.412 1617.55 121.372C1609.02 121.332 1600.49 121.318 1591.96 121.359C1583.42 121.385 1574.89 121.466 1566.36 121.586C1557.83 121.707 1549.31 121.867 1540.8 122.082C1532.28 122.296 1523.76 122.564 1515.24 122.899C1506.74 123.22 1498.23 123.608 1489.73 124.05C1481.24 124.492 1472.75 125.001 1464.26 125.577C1455.78 126.153 1447.3 126.796 1438.82 127.519C1430.36 128.242 1421.9 129.032 1413.45 129.903C1405 130.774 1396.54 131.738 1388.11 132.742C1379.66 133.76 1371.23 134.845 1362.8 135.997C1354.44 137.135 1346.08 138.34 1337.75 139.613C1329.97 140.791 1322.2 142.023 1314.45 143.296C1313.89 143.389 1313.31 143.483 1312.75 143.577C1312.37 143.644 1312 143.711 1311.62 143.764C1303.69 145.077 1295.78 146.429 1287.86 147.822C1279.63 149.282 1271.39 150.769 1263.15 152.309C1254.92 153.849 1246.68 155.416 1238.46 157.01C1230.25 158.603 1222.04 160.224 1213.83 161.871C1205.63 163.505 1197.45 165.166 1189.25 166.84C1181.07 168.514 1172.9 170.188 1164.72 171.875C1156.55 173.563 1148.38 175.25 1140.21 176.938C1136.14 177.782 1132.05 178.598 1128 179.496C1123.96 180.393 1119.93 181.277 1115.89 182.148C1107.8 183.902 1099.71 185.616 1091.61 187.29C1083.49 188.964 1075.36 190.598 1067.23 192.192C1059.09 193.786 1050.93 195.339 1042.78 196.839C1034.61 198.353 1026.43 199.812 1018.24 201.232C1010.05 202.652 1001.84 204.031 993.628 205.37C987.253 206.402 980.865 207.393 974.477 208.37C973.419 208.531 972.347 208.705 971.289 208.866C970.539 208.986 969.776 209.107 969.026 209.214C960.776 210.459 952.526 211.651 944.263 212.803C936 213.955 927.736 215.053 919.473 216.111C911.183 217.169 902.893 218.174 894.59 219.124C886.313 220.075 878.023 220.986 869.733 221.83C861.403 222.687 853.073 223.49 844.742 224.24C836.399 224.99 828.055 225.687 819.712 226.343C811.355 226.986 802.998 227.575 794.627 228.124C786.257 228.66 777.887 229.142 769.516 229.571C761.132 229.999 752.749 230.374 744.365 230.682C735.968 230.99 727.584 231.258 719.187 231.446C710.79 231.647 702.379 231.78 693.982 231.861C692.495 231.874 690.995 231.874 689.509 231.888C687.326 231.901 685.129 231.914 682.946 231.928C678.219 231.941 673.491 231.941 668.75 231.928C660.34 231.888 651.916 231.781 643.505 231.62C635.081 231.459 626.671 231.231 618.247 230.937C609.85 230.642 601.453 230.294 593.069 229.879C584.645 229.464 576.221 228.981 567.797 228.432C559.373 227.883 550.949 227.267 542.525 226.598C534.101 225.915 525.677 225.165 517.267 224.348C509.057 223.557 500.847 222.74 492.638 221.87C484.468 220.999 476.298 220.089 468.142 219.151C460.013 218.214 451.884 217.236 443.768 216.232C435.679 215.241 427.59 214.209 419.501 213.178C411.438 212.147 403.389 211.102 395.327 210.044C387.291 209 379.269 207.942 371.234 206.897C363.225 205.852 355.216 204.821 347.207 203.803C339.212 202.786 331.23 201.781 323.234 200.817C315.253 199.853 307.271 198.902 299.289 197.991C291.32 197.08 283.338 196.223 275.369 195.393C267.401 194.576 259.432 193.799 251.45 193.089C243.482 192.379 235.5 191.723 227.518 191.134C219.562 190.545 211.607 190.036 203.639 189.594C195.643 189.152 187.635 188.79 179.639 188.522C171.617 188.255 163.595 188.067 155.586 187.987C147.564 187.906 139.555 187.92 131.533 188.04C123.457 188.161 115.381 188.402 107.319 188.75C99.2031 189.098 91.1006 189.58 82.998 190.183C74.8419 190.786 66.6859 191.522 58.5565 192.393C50.3335 193.263 42.1372 194.281 33.9543 195.433C25.6912 196.598 17.4413 197.911 9.23169 199.384C6.31213 199.906 3.39246 200.469 0.486328 201.018V199.986C3.95496 199.33 7.41028 198.674 10.8789 198.071C19.0886 196.638 27.3384 195.339 35.5883 194.201C43.7577 193.062 51.9271 192.071 60.1368 191.214C68.2661 190.371 76.4224 189.647 84.5651 189.058C92.6676 188.469 100.77 188.013 108.886 187.679C116.948 187.344 125.024 187.116 133.1 187.009C141.135 186.902 149.184 186.902 157.233 186.996C165.255 187.089 173.278 187.29 181.286 187.572C189.295 187.853 197.29 188.228 205.286 188.67C213.281 189.125 221.263 189.647 229.245 190.237C237.227 190.826 245.209 191.496 253.178 192.219C261.16 192.942 269.128 193.719 277.097 194.549C285.079 195.379 293.048 196.25 301.016 197.161C308.998 198.071 316.98 199.022 324.962 200C332.958 200.978 340.953 201.982 348.935 203C356.944 204.018 364.953 205.062 372.961 206.107C380.997 207.152 389.019 208.21 397.055 209.254C405.117 210.299 413.166 211.343 421.228 212.375C429.317 213.406 437.406 214.424 445.496 215.415C453.625 216.406 461.741 217.383 469.884 218.321C478.053 219.258 486.222 220.169 494.392 221.026C502.642 221.897 510.892 222.7 519.142 223.49C527.552 224.294 535.976 225.031 544.4 225.7C552.811 226.37 561.235 226.973 569.672 227.508C578.096 228.044 586.506 228.513 594.944 228.928C603.368 229.33 611.778 229.678 620.202 229.959C628.613 230.24 637.037 230.455 645.461 230.615C653.871 230.776 662.282 230.856 670.706 230.897C672.607 230.897 674.509 230.897 676.411 230.897C678.621 230.897 680.817 230.897 683.027 230.897C687.326 230.883 691.625 230.856 695.937 230.803C704.334 230.709 712.745 230.562 721.142 230.361C729.539 230.16 737.937 229.892 746.32 229.571C754.704 229.249 763.088 228.874 771.472 228.432C779.842 227.99 788.212 227.508 796.583 226.959C804.94 226.41 813.31 225.807 821.654 225.165C829.997 224.508 838.341 223.799 846.684 223.049C855.015 222.285 863.345 221.482 871.675 220.611C879.992 219.754 888.309 218.83 896.612 217.866C904.916 216.901 913.205 215.883 921.495 214.825C929.759 213.767 938.009 212.656 946.258 211.504C953.531 210.486 960.803 209.415 968.062 208.317C969.039 208.169 970.03 208.035 971.008 207.888C971.115 207.875 971.236 207.848 971.343 207.835C979.472 206.602 987.588 205.317 995.69 203.991C1003.9 202.652 1012.11 201.259 1020.31 199.826C1028.49 198.393 1036.67 196.92 1044.84 195.406C1053 193.893 1061.15 192.339 1069.3 190.732C1077.43 189.138 1085.54 187.491 1093.66 185.817C1101.76 184.143 1109.85 182.415 1117.92 180.661C1121.96 179.777 1125.99 178.84 1130.03 177.996C1134.12 177.139 1138.2 176.308 1142.29 175.465C1150.46 173.777 1158.62 172.09 1166.79 170.402C1174.98 168.715 1183.15 167.027 1191.33 165.367C1199.51 163.693 1207.71 162.045 1215.91 160.398C1224.11 158.764 1232.32 157.144 1240.53 155.55C1248.74 153.956 1256.94 152.403 1265.16 150.876C1273.43 149.349 1281.69 147.849 1289.95 146.403C1298.02 144.983 1306.09 143.617 1314.17 142.291C1314.39 142.251 1314.62 142.211 1314.85 142.184C1315.56 142.063 1316.28 141.956 1316.99 141.836C1324.61 140.604 1332.23 139.398 1339.85 138.247C1348.22 136.988 1356.61 135.782 1364.99 134.657C1373.4 133.519 1381.83 132.448 1390.25 131.457C1398.69 130.452 1407.14 129.515 1415.59 128.657C1424.04 127.8 1432.5 127.024 1440.97 126.314C1449.45 125.604 1457.92 124.975 1466.4 124.412C1474.89 123.85 1483.38 123.354 1491.89 122.912C1500.39 122.483 1508.89 122.108 1517.4 121.787C1525.92 121.466 1534.43 121.211 1542.95 120.997C1551.47 120.783 1560 120.635 1568.53 120.515C1577.06 120.408 1585.59 120.341 1594.13 120.314C1602.66 120.287 1611.19 120.314 1619.72 120.354C1628.25 120.408 1636.78 120.488 1645.31 120.595C1653.84 120.702 1662.37 120.85 1670.91 121.01C1679.44 121.171 1687.95 121.359 1696.49 121.559C1705 121.76 1713.52 121.988 1722.04 122.216C1730.54 122.443 1739.06 122.698 1747.56 122.952C1755.85 123.193 1764.13 123.448 1772.42 123.756C1780.38 124.05 1788.34 124.412 1796.3 124.827C1804.01 125.229 1811.72 125.711 1819.43 126.26C1826.94 126.796 1834.46 127.425 1841.96 128.135C1849.32 128.845 1856.69 129.635 1864.04 130.546C1871.31 131.443 1878.57 132.448 1885.82 133.559C1893.05 134.671 1900.27 135.903 1907.46 137.269C1914.68 138.635 1921.88 140.122 1929.06 141.742V142.787C1928.43 142.639 1927.8 142.492 1927.16 142.345C1919.97 140.738 1912.76 139.264 1905.52 137.925L1905.45 137.952Z" fill="#6BA3B7"/>
</g>
<defs>
<clipPath id="clip0_59_824">
<rect width="1928.53" height="247.187" fill="white" transform="matrix(-1 0 0 1 1928.98 0.945801)"/>
</clipPath>
</defs>
</svg>
