<svg viewBox="0 0 1920 248" fill="none" xmlns="http://www.w3.org/2000/svg" style="width: 100%; height: auto;" preserveAspectRatio="xMidYMid meet">
<g clip-path="url(#clip0_6_311)">
<path d="M1294.08 223.448C1302.28 221.961 1310.45 220.421 1318.62 218.814C1326.76 217.207 1334.91 215.546 1343.03 213.818C1351.14 212.104 1359.23 210.323 1367.29 208.488C1375.38 206.653 1383.45 204.751 1391.5 202.81C1399.48 200.881 1407.45 198.886 1415.39 196.85C1423.31 194.814 1431.2 192.725 1439.09 190.582C1446.92 188.453 1454.74 186.27 1462.54 184.033C1470.29 181.81 1478.02 179.533 1485.73 177.216C1493.39 174.913 1501.03 172.556 1508.66 170.145C1516.23 167.761 1523.77 165.31 1531.29 162.819C1538.75 160.355 1546.19 157.837 1553.61 155.266C1561.72 152.453 1569.84 149.628 1577.95 146.828C1586.66 143.829 1595.35 140.829 1604.06 137.842C1612.65 134.896 1621.27 131.963 1629.88 129.07C1638.42 126.204 1646.98 123.365 1655.56 120.592C1664.08 117.834 1672.61 115.142 1681.18 112.53C1689.69 109.932 1698.23 107.414 1706.79 104.99C1708.93 104.387 1711.08 103.811 1713.22 103.209C1711.73 103.276 1710.23 103.343 1708.75 103.41C1707.5 103.758 1706.24 104.093 1705 104.454C1696.44 106.892 1687.89 109.423 1679.39 112.021C1670.83 114.646 1662.29 117.351 1653.77 120.11C1645.15 122.909 1636.53 125.762 1627.94 128.655C1619.31 131.561 1610.7 134.494 1602.1 137.44C1593.41 140.427 1584.73 143.427 1576.05 146.413C1568.03 149.186 1560.04 151.985 1552.01 154.744C1544.58 157.302 1537.13 159.819 1529.67 162.284C1522.12 164.775 1514.55 167.225 1506.96 169.609C1499.31 172.02 1491.64 174.377 1483.95 176.694C1476.22 179.011 1468.48 181.288 1460.73 183.497C1452.92 185.734 1445.1 187.904 1437.27 190.033C1429.38 192.162 1421.48 194.252 1413.56 196.274C1405.6 198.31 1397.64 200.292 1389.65 202.22C1381.62 204.162 1373.56 206.037 1365.49 207.872C1357.39 209.707 1349.29 211.475 1341.16 213.189C1333.03 214.903 1324.89 216.564 1316.75 218.157C1308.58 219.751 1300.39 221.291 1292.2 222.765C1283.99 224.238 1275.78 225.657 1267.54 227.01C1260.42 228.189 1253.28 229.3 1246.13 230.372C1248.34 230.372 1250.53 230.372 1252.74 230.372C1258.3 229.514 1263.86 228.631 1269.42 227.72C1277.64 226.354 1285.86 224.934 1294.06 223.448H1294.08Z" fill="#6BA3B7"/>
<path d="M1217.96 234.376C1209.66 235.474 1201.35 236.492 1193.05 237.456C1184.76 238.407 1176.47 239.291 1168.18 240.108C1159.89 240.912 1151.6 241.662 1143.3 242.318C1135.02 242.987 1126.73 243.577 1118.44 244.086C1110.18 244.595 1101.9 245.036 1093.62 245.398C1085.35 245.76 1077.07 246.041 1068.79 246.228C1060.54 246.429 1052.29 246.536 1044.04 246.577C1035.85 246.603 1027.65 246.563 1019.46 246.416C1011.3 246.282 1003.14 246.054 994.988 245.746C986.872 245.438 978.769 245.036 970.667 244.554C962.605 244.072 954.556 243.496 946.507 242.813C938.458 242.144 930.422 241.38 922.4 240.51C914.471 239.653 906.543 238.702 898.628 237.657C890.767 236.613 882.919 235.461 875.084 234.215C867.303 232.97 859.535 231.63 851.781 230.184C844.495 228.818 837.236 227.358 829.991 225.805C828.96 225.925 827.929 226.032 826.897 226.153C828.129 226.421 829.348 226.702 830.58 226.97C838.241 228.604 845.928 230.131 853.642 231.55C861.397 232.983 869.178 234.309 876.959 235.528C884.807 236.76 892.655 237.885 900.53 238.916C908.445 239.947 916.373 240.885 924.315 241.728C932.297 242.572 940.306 243.322 948.301 243.978C956.377 244.635 964.453 245.197 972.542 245.679C980.671 246.161 988.8 246.536 996.943 246.831C1005.1 247.126 1013.26 247.34 1021.41 247.461C1029.61 247.581 1037.8 247.621 1046 247.568C1054.24 247.527 1062.46 247.394 1070.7 247.179C1078.96 246.965 1087.21 246.684 1095.46 246.309C1103.74 245.934 1112.01 245.492 1120.29 244.969C1128.58 244.447 1136.87 243.845 1145.15 243.175C1153.45 242.505 1161.74 241.755 1170.03 240.925C1178.37 240.095 1186.7 239.197 1195.03 238.233C1203.32 237.269 1211.6 236.238 1219.88 235.139C1228.15 234.041 1236.42 232.876 1244.68 231.644C1245.19 231.564 1245.7 231.483 1246.22 231.403C1244.04 231.403 1241.84 231.376 1239.66 231.363C1232.43 232.421 1225.18 233.438 1217.93 234.389L1217.96 234.376Z" fill="#6BA3B7"/>
<path d="M49.8051 10.3179C58.1487 9.0188 66.5057 7.84025 74.876 6.82242C83.1259 5.80458 91.4025 4.93406 99.6791 4.19747C107.862 3.47427 116.045 2.88499 124.241 2.42964C132.357 1.98769 140.473 1.69305 148.602 1.53234C156.665 1.37163 164.727 1.35824 172.789 1.49216C180.825 1.62609 188.86 1.89394 196.896 2.30911C204.905 2.72428 212.9 3.27338 220.882 3.96979C228.837 4.66621 236.793 5.49655 244.721 6.47421C252.663 7.45187 260.605 8.56345 268.506 9.82236C276.448 11.0813 284.376 12.4741 292.278 14.0009C300.233 15.541 308.162 17.2151 316.063 19.0097C324.032 20.8311 331.974 22.773 339.889 24.8355C347.884 26.9247 355.853 29.1479 363.781 31.4782C371.844 33.8487 379.852 36.3531 387.834 38.9647C395.937 41.6164 403.999 44.3887 412.021 47.2681C420.164 50.1877 428.253 53.2144 436.315 56.3482C444.525 59.5357 452.681 62.8303 460.797 66.232C469.087 69.7007 477.324 73.2631 485.52 76.9193C493.89 80.6558 502.207 84.4727 510.484 88.3967C518.948 92.4011 527.358 96.4859 535.742 100.651C544.313 104.91 552.831 109.262 561.322 113.682C570 118.209 578.639 122.816 587.25 127.49C595.607 132.043 603.924 136.65 612.214 141.324C612.924 141.445 613.647 141.552 614.357 141.673C614.584 141.713 614.812 141.753 615.04 141.78C613.808 141.083 612.576 140.36 611.33 139.664C602.611 134.762 593.866 129.927 585.067 125.159C576.482 120.512 567.858 115.932 559.179 111.419C550.702 107.026 542.197 102.7 533.639 98.4546C525.229 94.2895 516.778 90.2048 508.274 86.2138C499.997 82.3299 491.694 78.5264 483.337 74.83C475.154 71.2006 466.931 67.6784 458.668 64.2365C450.552 60.8616 442.396 57.5938 434.199 54.4331C426.15 51.326 418.061 48.3261 409.932 45.4333C401.937 42.5941 393.901 39.8486 385.825 37.237C377.83 34.6388 369.781 32.1612 361.719 29.8175C353.79 27.5006 345.835 25.3176 337.84 23.2417C329.938 21.1927 321.996 19.2775 314.028 17.4963C306.126 15.7285 298.198 14.0812 290.256 12.5678C282.354 11.0679 274.426 9.70183 266.484 8.46971C258.569 7.25098 250.641 6.15279 242.685 5.20191C234.703 4.25104 226.708 3.43409 218.713 2.76446C210.744 2.09483 202.762 1.57252 194.78 1.18413C186.771 0.795747 178.749 0.55468 170.727 0.44754C162.665 0.340399 154.589 0.380577 146.526 0.568073C138.397 0.755569 130.268 1.07699 122.152 1.54573C113.929 2.01447 105.706 2.63053 97.4961 3.39391C89.1793 4.15729 80.8893 5.06799 72.5993 6.11261C64.2155 7.17062 55.8586 8.36257 47.5016 9.68843C39.0107 11.0411 30.5465 12.5277 22.1092 14.1348C14.7835 15.541 7.47109 17.0544 0.172127 18.6481V19.6659C8.23447 17.8981 16.3236 16.2374 24.4395 14.7107C32.8769 13.1169 41.3276 11.6571 49.8051 10.3313V10.3179Z" fill="#6BA3B7"/>
<path d="M783.452 214.34C776.046 212.278 768.68 210.095 761.34 207.792C754.055 205.501 746.796 203.104 739.578 200.586C732.399 198.082 725.274 195.457 718.19 192.711C711.145 189.979 704.141 187.127 697.19 184.154C690.266 181.18 683.409 178.1 676.606 174.886C669.789 171.672 663.025 168.324 656.343 164.841C649.713 161.4 643.137 157.824 636.642 154.127C630.267 150.498 623.919 146.842 617.558 143.212C617.183 143.145 616.808 143.078 616.433 143.025C615.87 142.931 615.294 142.837 614.732 142.744C622.58 147.19 630.374 151.757 638.236 156.19C644.745 159.859 651.334 163.408 657.99 166.824C664.659 170.252 671.396 173.56 678.199 176.734C685.016 179.922 691.9 182.988 698.837 185.935C705.801 188.895 712.819 191.734 719.89 194.439C726.989 197.171 734.127 199.769 741.319 202.26C748.551 204.765 755.809 207.135 763.108 209.399C770.474 211.689 777.88 213.845 785.313 215.894C792.786 217.956 800.3 219.912 807.84 221.747C813.17 223.046 818.527 224.278 823.897 225.47C824.915 225.363 825.946 225.242 826.964 225.122C819.973 223.595 812.982 221.988 806.032 220.273C798.478 218.412 790.965 216.43 783.465 214.34H783.452Z" fill="#6BA3B7"/>
<path d="M1889.88 75.1245C1880.72 75.1914 1871.57 75.4861 1862.43 75.995C1853.41 76.5039 1844.43 77.2271 1835.44 78.1512C1826.56 79.0753 1817.7 80.1869 1808.87 81.4859C1800.04 82.785 1791.24 84.2716 1782.47 85.9189C1773.78 87.5528 1765.12 89.3474 1756.48 91.2893C1747.85 93.2313 1739.25 95.3071 1730.68 97.5035C1724.79 99.0169 1718.92 100.597 1713.07 102.218C1714.57 102.151 1716.09 102.084 1717.59 102.017C1722.54 100.678 1727.51 99.3517 1732.48 98.0794C1741.05 95.8964 1749.65 93.8339 1758.29 91.9188C1766.95 89.9902 1775.64 88.209 1784.36 86.6019C1793.11 84.9814 1801.89 83.5216 1810.7 82.2493C1819.56 80.9636 1828.42 79.8788 1837.33 78.9815C1846.32 78.0842 1855.33 77.3878 1864.34 76.9057C1873.49 76.4235 1882.66 76.1557 1891.82 76.1289C1901.17 76.1021 1910.52 76.303 1919.85 76.7584C1922.81 76.9057 1925.76 77.0798 1928.71 77.2673V76.2628C1925.09 76.0352 1921.47 75.8209 1917.86 75.6602C1908.54 75.245 1899.2 75.0709 1889.87 75.1379L1889.88 75.1245Z" fill="#6BA3B7"/>
<path d="M1898.37 104.923C1890.7 104.227 1883 103.611 1875.31 103.088C1867.57 102.553 1859.81 102.111 1852.07 101.736C1844.27 101.361 1836.47 101.066 1828.66 100.852C1820.78 100.624 1812.89 100.477 1805.01 100.41C1797.02 100.329 1789.03 100.316 1781.04 100.383C1772.92 100.436 1764.81 100.557 1756.69 100.744C1748.43 100.932 1740.15 101.173 1731.89 101.468C1727.13 101.642 1722.37 101.829 1717.61 102.03C1716.11 102.097 1714.6 102.164 1713.1 102.231C1710.96 102.325 1708.8 102.419 1706.66 102.526C1698.1 102.941 1689.54 103.329 1680.98 103.771C1672.51 104.2 1664.03 104.682 1655.55 105.191C1647.03 105.7 1638.53 106.249 1630.02 106.825C1621.59 107.401 1613.16 108.017 1604.73 108.66C1596.26 109.302 1587.8 109.985 1579.33 110.709C1570.94 111.418 1562.55 112.155 1554.17 112.932C1545.77 113.709 1537.37 114.512 1528.99 115.356C1520.62 116.186 1512.25 117.057 1503.88 117.954C1495.54 118.851 1487.18 119.775 1478.84 120.726C1470.51 121.677 1462.19 122.655 1453.87 123.673C1445.6 124.677 1437.32 125.708 1429.06 126.766C1420.75 127.824 1412.45 128.923 1404.14 130.034C1395.92 131.132 1387.71 132.271 1379.49 133.422C1371.23 134.588 1362.98 135.766 1354.73 136.971C1346.54 138.177 1338.37 139.396 1330.19 140.641C1321.98 141.887 1313.77 143.159 1305.58 144.458C1297.45 145.744 1289.32 147.043 1281.19 148.369C1273.06 149.694 1264.93 151.047 1256.8 152.413C1248.7 153.779 1240.59 155.159 1232.49 156.565C1224.42 157.971 1216.33 159.391 1208.26 160.824C1200.22 162.257 1192.15 163.703 1184.1 165.176C1176.07 166.636 1168.05 168.123 1160.02 169.623C1152.02 171.109 1144.02 172.623 1136.03 174.149C1128.07 175.663 1120.13 177.189 1112.19 178.73C1104.22 180.283 1096.24 181.837 1088.27 183.417C1080.35 184.984 1072.45 186.564 1064.54 188.145C1056.39 189.765 1048.25 191.359 1040.09 192.912C1031.98 194.466 1023.86 195.979 1015.73 197.452C1007.55 198.939 999.354 200.399 991.144 201.818C982.988 203.238 974.832 204.618 966.662 205.957C963.729 206.439 960.796 206.894 957.877 207.363C957.984 207.376 958.105 207.403 958.212 207.417C959.189 207.564 960.18 207.698 961.158 207.845C963.609 207.443 966.06 207.068 968.511 206.667C976.707 205.314 984.89 203.921 993.073 202.501C1001.24 201.082 1009.41 199.622 1017.58 198.135C1025.71 196.649 1033.83 195.136 1041.94 193.582C1050.1 192.028 1058.24 190.435 1066.38 188.801C1074.29 187.221 1082.17 185.64 1090.08 184.087C1098.02 182.52 1105.97 180.966 1113.93 179.426C1121.9 177.886 1129.88 176.346 1137.85 174.832C1145.82 173.319 1153.8 171.819 1161.78 170.332C1169.83 168.832 1177.88 167.346 1185.94 165.886C1193.96 164.426 1202 162.98 1210.02 161.56C1218.12 160.127 1226.22 158.694 1234.34 157.301C1242.42 155.909 1250.49 154.529 1258.58 153.163C1266.71 151.797 1274.84 150.444 1282.97 149.119C1291.12 147.793 1299.28 146.48 1307.44 145.195C1315.59 143.909 1323.74 142.65 1331.89 141.404C1340.12 140.159 1348.35 138.927 1356.59 137.721C1364.78 136.516 1372.99 135.351 1381.19 134.199C1389.45 133.047 1397.72 131.909 1405.98 130.797C1414.26 129.686 1422.53 128.601 1430.81 127.556C1439.09 126.498 1447.35 125.481 1455.63 124.476C1463.97 123.472 1472.33 122.494 1480.68 121.543C1489 120.592 1497.32 119.682 1505.65 118.798C1514.02 117.9 1522.39 117.043 1530.76 116.213C1539.16 115.383 1547.54 114.579 1555.94 113.802C1564.32 113.039 1572.72 112.302 1581.1 111.593C1589.57 110.883 1598.03 110.2 1606.49 109.557C1614.93 108.914 1623.36 108.311 1631.79 107.735C1640.27 107.16 1648.76 106.624 1657.24 106.115C1665.74 105.606 1674.25 105.137 1682.75 104.709C1691.28 104.28 1699.81 103.878 1708.36 103.477C1708.49 103.477 1708.64 103.477 1708.77 103.463C1710.26 103.396 1711.76 103.329 1713.25 103.262C1720.05 102.954 1726.84 102.673 1733.64 102.432C1741.87 102.151 1750.1 101.91 1758.34 101.736C1766.47 101.561 1774.61 101.454 1782.74 101.401C1790.7 101.361 1798.65 101.374 1806.61 101.468C1814.48 101.561 1822.37 101.709 1830.24 101.95C1838.05 102.178 1845.85 102.486 1853.64 102.874C1861.37 103.249 1869.08 103.718 1876.8 104.253C1884.54 104.802 1892.28 105.419 1900.01 106.142C1907.69 106.852 1915.37 107.642 1923.04 108.526C1924.93 108.74 1926.82 108.981 1928.72 109.209V108.204C1926.34 107.91 1923.95 107.615 1921.55 107.347C1913.84 106.477 1906.11 105.686 1898.37 104.977V104.923Z" fill="#6BA3B7"/>
<path d="M39.225 185.372C47.4614 184.984 55.6978 184.743 63.9343 184.649C72.1172 184.569 80.3001 184.636 88.4829 184.863C96.7328 185.091 104.969 185.493 113.206 186.042C121.442 186.604 129.665 187.328 137.875 188.212C146.259 189.122 154.642 190.14 162.999 191.252C171.303 192.35 179.593 193.569 187.869 194.868C195.985 196.14 204.074 197.506 212.164 198.912C220.226 200.318 228.275 201.778 236.31 203.278C244.266 204.751 252.221 206.251 260.163 207.738C268.171 209.238 276.18 210.738 284.189 212.211C292.117 213.657 300.059 215.091 307.988 216.483C315.849 217.863 323.711 219.189 331.599 220.434C339.5 221.693 347.415 222.872 355.33 223.997C363.246 225.122 371.161 226.166 379.089 227.171C387.098 228.175 395.107 229.113 403.129 229.983C411.111 230.854 419.106 231.671 427.115 232.407C435.164 233.157 443.213 233.854 451.275 234.483C459.351 235.112 467.44 235.688 475.529 236.211C483.605 236.72 491.694 237.175 499.783 237.577C507.939 237.978 516.109 238.327 524.265 238.608C532.394 238.889 540.523 239.13 548.666 239.304C556.849 239.478 565.018 239.612 573.201 239.679C581.398 239.746 589.594 239.76 597.79 239.733C605.973 239.693 614.169 239.612 622.352 239.465C630.602 239.331 638.865 239.13 647.115 238.889C655.325 238.648 663.548 238.353 671.757 238.019C680.007 237.684 688.257 237.295 696.507 236.853C704.77 236.412 713.02 235.929 721.27 235.407C729.533 234.871 737.796 234.295 746.06 233.679C754.323 233.05 762.586 232.38 770.849 231.671C779.086 230.961 787.336 230.197 795.559 229.407C803.849 228.604 812.139 227.76 820.429 226.863C822.585 226.635 824.741 226.367 826.911 226.139C827.942 226.032 828.973 225.912 830.004 225.791C835.053 225.229 840.089 224.68 845.138 224.09C853.401 223.126 861.651 222.108 869.901 221.064C878.137 220.019 886.374 218.921 894.61 217.796C902.82 216.671 911.03 215.506 919.226 214.3C927.476 213.095 935.726 211.836 943.962 210.564C948.609 209.841 953.243 209.077 957.89 208.327C956.832 208.167 955.761 207.992 954.703 207.832C950.484 208.501 946.266 209.198 942.034 209.854C933.824 211.126 925.601 212.372 917.364 213.564C909.141 214.769 900.905 215.934 892.668 217.059C884.419 218.184 876.169 219.269 867.905 220.314C859.656 221.358 851.406 222.363 843.143 223.327C837.745 223.956 832.348 224.546 826.951 225.135C825.933 225.242 824.902 225.363 823.884 225.483C822.049 225.684 820.214 225.898 818.366 226.099C810.13 226.97 801.893 227.813 793.657 228.604C785.367 229.407 777.077 230.157 768.787 230.867C760.55 231.577 752.314 232.233 744.077 232.849C735.788 233.465 727.511 234.041 719.221 234.563C710.998 235.086 702.761 235.554 694.538 235.983C686.262 236.412 677.985 236.8 669.708 237.121C661.499 237.456 653.289 237.737 645.066 237.965C636.843 238.193 628.62 238.38 620.383 238.514C612.174 238.648 603.964 238.728 595.741 238.755C587.545 238.782 579.348 238.755 571.152 238.675C562.969 238.595 554.8 238.461 546.617 238.273C538.488 238.086 530.358 237.845 522.229 237.55C514.073 237.255 505.903 236.894 497.747 236.478C489.658 236.063 481.583 235.608 473.507 235.086C465.391 234.563 457.288 233.974 449.186 233.331C441.15 232.688 433.128 231.992 425.119 231.229C417.07 230.465 409.021 229.635 400.986 228.751C393.017 227.867 385.062 226.93 377.107 225.925C369.152 224.921 361.196 223.849 353.241 222.711C345.326 221.573 337.411 220.381 329.523 219.108C321.648 217.849 313.773 216.524 305.925 215.117C297.943 213.698 289.975 212.278 281.993 210.805C274.011 209.332 266.029 207.845 258.047 206.345C250.065 204.845 242.096 203.345 234.114 201.872C226.119 200.399 218.11 198.952 210.101 197.56C201.945 196.14 193.789 194.787 185.606 193.528C177.356 192.256 169.093 191.064 160.816 189.979C152.433 188.881 144.035 187.863 135.638 186.979C127.429 186.122 119.219 185.426 110.982 184.904C102.746 184.381 94.5096 184.006 86.2598 183.805C78.0769 183.604 69.894 183.564 61.7111 183.671C53.4613 183.779 45.2248 184.06 36.9884 184.475C28.6716 184.89 20.3682 185.466 12.0782 186.176C8.10055 186.511 4.12295 186.899 0.158737 187.301V188.305C4.87293 187.823 9.60052 187.381 14.3281 186.993C22.6181 186.31 30.9081 185.761 39.2116 185.372H39.225Z" fill="#6BA3B7"/>
<path d="M23.7029 137.4C30.8948 136.061 38.1134 134.842 45.3454 133.744C52.6042 132.646 59.8764 131.655 67.1619 130.784C74.5279 129.9 81.8938 129.123 89.2731 128.427C96.7864 127.731 104.313 127.128 111.84 126.592C119.567 126.057 127.295 125.588 135.022 125.199C143.004 124.798 150.986 124.449 158.968 124.155C167.285 123.847 175.602 123.606 183.919 123.365C192.396 123.11 200.887 122.869 209.365 122.641C217.882 122.414 226.4 122.186 234.918 121.985C243.449 121.784 251.966 121.597 260.498 121.45C269.002 121.289 277.506 121.155 286.01 121.048C294.541 120.941 303.073 120.86 311.604 120.82C320.135 120.78 328.666 120.767 337.197 120.807C345.728 120.833 354.259 120.914 362.79 121.034C371.321 121.155 379.839 121.316 388.357 121.53C396.874 121.744 405.392 122.012 413.91 122.347C422.414 122.668 430.918 123.057 439.423 123.499C447.914 123.941 456.404 124.449 464.895 125.025C473.373 125.601 481.85 126.244 490.328 126.967C498.792 127.69 507.256 128.481 515.707 129.351C524.158 130.222 532.608 131.186 541.046 132.19C549.496 133.208 557.92 134.293 566.358 135.445C574.715 136.583 583.072 137.789 591.402 139.061C599.183 140.239 606.951 141.471 614.705 142.744C615.268 142.838 615.843 142.931 616.406 143.025C616.781 143.092 617.156 143.159 617.531 143.213C625.459 144.525 633.374 145.878 641.289 147.27C649.526 148.73 657.762 150.217 665.999 151.757C674.235 153.297 682.472 154.864 690.695 156.458C698.904 158.052 707.114 159.672 715.324 161.319C723.52 162.953 731.703 164.614 739.899 166.288C748.082 167.962 756.251 169.636 764.434 171.324C772.604 173.011 780.773 174.699 788.943 176.386C793.014 177.23 797.099 178.047 801.157 178.944C805.188 179.841 809.219 180.725 813.264 181.596C821.353 183.35 829.442 185.064 837.545 186.738C845.66 188.413 853.79 190.046 861.919 191.64C870.062 193.234 878.218 194.787 886.374 196.287C894.543 197.801 902.726 199.261 910.909 200.68C919.106 202.1 927.315 203.479 935.525 204.818C941.9 205.85 948.288 206.841 954.676 207.818C955.734 207.979 956.806 208.153 957.864 208.314C958.614 208.434 959.377 208.555 960.127 208.662C968.377 209.908 976.627 211.1 984.89 212.251C993.153 213.403 1001.42 214.501 1009.68 215.559C1017.97 216.617 1026.26 217.622 1034.56 218.573C1042.84 219.524 1051.13 220.434 1059.42 221.278C1067.75 222.135 1076.08 222.939 1084.41 223.689C1092.75 224.439 1101.1 225.135 1109.44 225.791C1117.8 226.434 1126.16 227.023 1134.53 227.573C1142.9 228.108 1151.27 228.59 1159.64 229.019C1168.02 229.447 1176.4 229.822 1184.79 230.13C1193.19 230.438 1201.57 230.706 1209.97 230.894C1218.36 231.095 1226.77 231.229 1235.17 231.309C1236.66 231.322 1238.16 231.322 1239.64 231.336C1241.83 231.349 1244.02 231.363 1246.21 231.376C1250.93 231.389 1255.66 231.389 1260.4 231.376C1268.81 231.336 1277.24 231.229 1285.65 231.068C1294.07 230.907 1302.48 230.68 1310.91 230.385C1319.3 230.09 1327.7 229.742 1336.08 229.327C1344.51 228.912 1352.93 228.43 1361.36 227.881C1369.78 227.331 1378.2 226.715 1386.63 226.046C1395.05 225.363 1403.48 224.613 1411.89 223.796C1420.1 223.006 1428.31 222.189 1436.52 221.318C1444.68 220.448 1452.85 219.537 1461.01 218.599C1469.14 217.662 1477.27 216.684 1485.38 215.68C1493.47 214.689 1501.56 213.658 1509.65 212.626C1517.71 211.595 1525.76 210.551 1533.83 209.492C1541.86 208.448 1549.88 207.39 1557.92 206.345C1565.93 205.301 1573.94 204.269 1581.95 203.252C1589.94 202.234 1597.92 201.229 1605.92 200.265C1613.9 199.301 1621.88 198.35 1629.86 197.439C1637.83 196.528 1645.81 195.671 1653.78 194.841C1661.75 194.024 1669.72 193.247 1677.7 192.537C1685.67 191.828 1693.65 191.171 1701.64 190.582C1709.59 189.993 1717.55 189.484 1725.51 189.042C1733.51 188.6 1741.52 188.238 1749.51 187.971C1757.54 187.703 1765.56 187.515 1773.57 187.435C1781.59 187.355 1789.6 187.368 1797.62 187.488C1805.7 187.609 1813.77 187.85 1821.83 188.198C1829.95 188.546 1838.05 189.029 1846.15 189.631C1854.31 190.234 1862.47 190.971 1870.6 191.841C1878.82 192.712 1887.02 193.729 1895.2 194.881C1903.46 196.046 1911.71 197.359 1919.92 198.832C1922.84 199.354 1925.76 199.917 1928.67 200.466V199.435C1925.2 198.778 1921.74 198.122 1918.27 197.52C1910.06 196.086 1901.81 194.787 1893.56 193.649C1885.4 192.511 1877.23 191.52 1869.02 190.662C1860.89 189.819 1852.73 189.096 1844.59 188.506C1836.49 187.917 1828.38 187.462 1820.27 187.127C1812.2 186.792 1804.13 186.564 1796.05 186.457C1788.02 186.35 1779.97 186.35 1771.92 186.444C1763.9 186.538 1755.88 186.738 1747.87 187.02C1739.86 187.301 1731.86 187.676 1723.87 188.118C1715.87 188.573 1707.89 189.096 1699.91 189.685C1691.93 190.274 1683.94 190.944 1675.98 191.667C1667.99 192.39 1660.02 193.167 1652.06 193.997C1644.07 194.828 1636.11 195.698 1628.14 196.609C1620.15 197.519 1612.17 198.47 1604.19 199.448C1596.2 200.426 1588.2 201.43 1580.22 202.448C1572.21 203.466 1564.2 204.51 1556.19 205.555C1548.16 206.6 1540.13 207.658 1532.1 208.702C1524.04 209.747 1515.99 210.792 1507.92 211.823C1499.84 212.854 1491.75 213.872 1483.66 214.863C1475.53 215.854 1467.41 216.832 1459.27 217.769C1451.1 218.707 1442.93 219.617 1434.76 220.474C1426.51 221.345 1418.26 222.148 1410.01 222.939C1401.6 223.742 1393.18 224.479 1384.75 225.148C1376.34 225.818 1367.92 226.421 1359.48 226.956C1351.06 227.492 1342.65 227.961 1334.21 228.376C1325.79 228.778 1317.37 229.126 1308.95 229.407C1300.54 229.689 1292.12 229.903 1283.69 230.064C1275.28 230.224 1266.87 230.305 1258.45 230.345C1256.55 230.345 1254.64 230.345 1252.74 230.345C1250.53 230.345 1248.34 230.345 1246.13 230.345C1241.83 230.331 1237.53 230.305 1233.22 230.251C1224.82 230.157 1216.41 230.01 1208.01 229.809C1199.61 229.608 1191.22 229.34 1182.83 229.019C1174.45 228.697 1166.06 228.322 1157.68 227.881C1149.31 227.439 1140.94 226.956 1132.57 226.407C1124.21 225.858 1115.84 225.256 1107.5 224.613C1099.16 223.956 1090.81 223.247 1082.47 222.497C1074.14 221.733 1065.81 220.93 1057.48 220.059C1049.16 219.202 1040.84 218.278 1032.54 217.314C1024.24 216.349 1015.95 215.332 1007.66 214.274C999.394 213.216 991.144 212.104 982.894 210.952C975.622 209.934 968.35 208.863 961.091 207.765C960.114 207.618 959.123 207.484 958.145 207.336C958.038 207.323 957.917 207.296 957.81 207.283C949.681 206.051 941.565 204.765 933.462 203.439C925.253 202.1 917.043 200.707 908.847 199.274C900.664 197.841 892.481 196.368 884.311 194.854C876.155 193.341 867.999 191.787 859.857 190.18C851.727 188.587 843.611 186.939 835.495 185.265C827.393 183.591 819.304 181.864 811.228 180.109C807.197 179.225 803.166 178.288 799.121 177.444C795.036 176.587 790.952 175.757 786.867 174.913C778.697 173.225 770.528 171.538 762.358 169.85C754.176 168.163 746.006 166.475 737.823 164.815C729.64 163.141 721.444 161.493 713.248 159.846C705.038 158.212 696.828 156.592 688.619 154.998C680.409 153.404 672.213 151.851 663.99 150.324C655.727 148.797 647.463 147.297 639.2 145.851C631.138 144.431 623.062 143.065 614.986 141.739C614.759 141.699 614.531 141.659 614.303 141.632C613.593 141.512 612.87 141.405 612.16 141.284C604.54 140.052 596.92 138.847 589.299 137.695C580.929 136.436 572.545 135.231 564.161 134.106C555.751 132.967 547.327 131.896 538.903 130.905C530.466 129.9 522.015 128.963 513.564 128.106C505.113 127.249 496.649 126.472 488.185 125.762C479.708 125.052 471.23 124.423 462.753 123.86C454.262 123.298 445.771 122.802 437.266 122.36C428.762 121.932 420.258 121.557 411.754 121.235C403.236 120.914 394.718 120.659 386.2 120.445C377.683 120.231 369.152 120.083 360.621 119.963C352.09 119.856 343.558 119.789 335.027 119.762C326.496 119.735 317.965 119.762 309.434 119.802C300.903 119.856 292.372 119.936 283.841 120.043C275.31 120.15 266.779 120.298 258.248 120.458C249.716 120.619 241.199 120.807 232.668 121.008C224.15 121.208 215.632 121.436 207.115 121.664C198.61 121.891 190.093 122.146 181.588 122.4C173.298 122.641 165.022 122.896 156.732 123.204C148.776 123.499 140.808 123.86 132.853 124.275C125.138 124.677 117.438 125.159 109.724 125.708C102.21 126.244 94.6971 126.874 87.1973 127.583C79.8313 128.293 72.4654 129.083 65.1129 129.994C57.8407 130.891 50.5819 131.896 43.3365 133.007C36.1045 134.119 28.8859 135.351 21.694 136.717C14.4754 138.083 7.27022 139.57 0.0917816 141.19V142.235C0.721234 142.088 1.35069 141.94 1.99353 141.793C9.18536 140.186 16.3906 138.713 23.636 137.373L23.7029 137.4Z" fill="#6BA3B7"/>
</g>
<defs>
<clipPath id="clip0_6_311">
<rect width="1928.53" height="247.187" fill="white" transform="translate(0.172142 0.393921)"/>
</clipPath>
</defs>
</svg>
