<svg viewBox="0 0 1920 248" fill="none" xmlns="http://www.w3.org/2000/svg" style="width: 100%; height: auto;" preserveAspectRatio="xMidYMid meet">
<g clip-path="url(#clip0_18_188)">
<path d="M634.621 223.262C626.425 221.775 618.255 220.235 610.086 218.628C601.943 217.021 593.801 215.36 585.671 213.632C577.569 211.918 569.48 210.137 561.417 208.302C553.328 206.467 545.252 204.566 537.203 202.624C529.221 200.695 521.253 198.7 513.311 196.664C505.396 194.628 497.508 192.539 489.619 190.396C481.785 188.267 473.964 186.084 466.169 183.847C458.415 181.624 450.687 179.347 442.973 177.031C435.313 174.727 427.679 172.37 420.045 169.959C412.478 167.575 404.938 165.124 397.411 162.633C389.952 160.169 382.519 157.651 375.099 155.08C366.983 152.268 358.868 149.442 350.752 146.643C342.047 143.643 333.355 140.643 324.65 137.656C316.051 134.71 307.44 131.777 298.829 128.884C290.284 126.018 281.726 123.179 273.141 120.407C264.624 117.648 256.093 114.956 247.521 112.344C239.017 109.746 230.473 107.228 221.915 104.804C219.772 104.202 217.629 103.626 215.486 103.023C216.973 103.09 218.473 103.157 219.96 103.224C221.205 103.572 222.464 103.907 223.71 104.269C232.267 106.706 240.812 109.237 249.316 111.835C257.874 114.46 266.419 117.166 274.936 119.924C283.561 122.724 292.172 125.576 300.77 128.469C309.395 131.375 318.007 134.308 326.605 137.254C335.297 140.241 343.975 143.241 352.653 146.228C360.676 149 368.671 151.799 376.693 154.558C384.126 157.116 391.572 159.634 399.032 162.098C406.585 164.589 414.152 167.04 421.746 169.424C429.393 171.834 437.067 174.191 444.754 176.508C452.482 178.825 460.223 181.102 467.977 183.312C475.785 185.548 483.606 187.718 491.441 189.847C499.329 191.977 507.231 194.066 515.146 196.088C523.101 198.124 531.07 200.106 539.052 202.034C547.087 203.976 555.149 205.851 563.212 207.686C571.314 209.521 579.417 211.289 587.546 213.003C595.676 214.717 603.818 216.378 611.961 217.972C620.13 219.565 628.313 221.106 636.51 222.579C644.719 224.052 652.929 225.472 661.165 226.824C668.29 228.003 675.428 229.114 682.58 230.186C680.37 230.186 678.174 230.186 675.964 230.186C670.406 229.329 664.848 228.445 659.29 227.534C651.067 226.168 642.844 224.748 634.648 223.262H634.621Z" fill="#6BA3B7"/>
<path d="M710.745 234.19C719.049 235.288 727.352 236.306 735.655 237.27C743.945 238.221 752.235 239.105 760.525 239.922C768.815 240.726 777.105 241.476 785.409 242.132C793.686 242.802 801.976 243.391 810.266 243.9C818.529 244.409 826.805 244.851 835.082 245.212C843.359 245.574 851.635 245.855 859.912 246.043C868.162 246.243 876.412 246.351 884.661 246.391C892.858 246.418 901.054 246.377 909.25 246.23C917.406 246.096 925.562 245.869 933.719 245.56C941.834 245.252 949.937 244.851 958.039 244.369C966.102 243.886 974.151 243.311 982.2 242.627C990.249 241.958 998.284 241.194 1006.31 240.324C1014.23 239.467 1022.16 238.516 1030.08 237.471C1037.94 236.427 1045.79 235.275 1053.62 234.029C1061.4 232.784 1069.17 231.445 1076.93 229.998C1084.21 228.632 1091.47 227.172 1098.72 225.619C1099.75 225.739 1100.78 225.847 1101.81 225.967C1100.58 226.235 1099.36 226.516 1098.13 226.784C1090.47 228.418 1082.78 229.945 1075.06 231.364C1067.31 232.797 1059.53 234.123 1051.75 235.342C1043.9 236.574 1036.05 237.699 1028.18 238.73C1020.26 239.761 1012.33 240.699 1004.39 241.543C996.409 242.386 988.401 243.136 980.405 243.793C972.329 244.449 964.254 245.011 956.165 245.494C948.035 245.976 939.906 246.351 931.763 246.645C923.607 246.94 915.451 247.154 907.295 247.275C899.099 247.395 890.902 247.435 882.706 247.382C874.47 247.342 866.247 247.208 858.01 246.993C849.747 246.779 841.497 246.498 833.247 246.123C824.971 245.748 816.694 245.306 808.417 244.784C800.127 244.261 791.837 243.659 783.561 242.989C775.257 242.319 766.967 241.569 758.677 240.739C750.334 239.909 742.003 239.011 733.673 238.047C725.383 237.083 717.107 236.052 708.83 234.954C700.553 233.855 692.29 232.69 684.027 231.458C683.518 231.378 683.009 231.297 682.487 231.217C684.67 231.217 686.866 231.19 689.049 231.177C696.281 232.235 703.526 233.253 710.772 234.204L710.745 234.19Z" fill="#6BA3B7"/>
<path d="M1878.9 10.1321C1870.56 8.83301 1862.2 7.65446 1853.83 6.63663C1845.58 5.61879 1837.3 4.74827 1829.03 4.01168C1820.84 3.28848 1812.66 2.6992 1804.47 2.24385C1796.35 1.8019 1788.23 1.50726 1780.1 1.34655C1772.04 1.18584 1763.98 1.17245 1755.92 1.30637C1747.88 1.4403 1739.85 1.70815 1731.81 2.12332C1723.8 2.53849 1715.81 3.08759 1707.82 3.784C1699.87 4.48042 1691.91 5.31076 1683.99 6.28842C1676.04 7.26608 1668.1 8.37766 1660.2 9.63657C1652.26 10.8955 1644.33 12.2883 1636.43 13.8151C1628.47 15.3552 1620.54 17.0293 1612.64 18.8239C1604.67 20.6453 1596.73 22.5872 1588.82 24.6497C1580.82 26.7389 1572.85 28.9621 1564.93 31.2924C1556.86 33.6629 1548.85 36.1673 1540.87 38.7789C1532.77 41.4306 1524.71 44.2029 1516.68 47.0823C1508.54 50.0019 1500.45 53.0286 1492.39 56.1625C1484.18 59.3499 1476.03 62.6445 1467.91 66.0462C1459.62 69.5149 1451.38 73.0773 1443.19 76.7335C1434.82 80.47 1426.5 84.2869 1418.22 88.211C1409.76 92.2153 1401.35 96.3001 1392.96 100.465C1384.39 104.724 1375.88 109.077 1367.38 113.496C1358.71 118.023 1350.07 122.63 1341.46 127.304C1333.1 131.857 1324.78 136.464 1316.49 141.139C1315.78 141.259 1315.06 141.366 1314.35 141.487C1314.12 141.527 1313.89 141.567 1313.67 141.594C1314.9 140.897 1316.13 140.174 1317.38 139.478C1326.09 134.576 1334.84 129.741 1343.64 124.974C1352.22 120.326 1360.85 115.746 1369.53 111.233C1378 106.84 1386.51 102.514 1395.07 98.2688C1403.48 94.1037 1411.93 90.019 1420.43 86.028C1428.71 82.1441 1437.01 78.3406 1445.37 74.6442C1453.55 71.0149 1461.78 67.4926 1470.04 64.0507C1478.15 60.6758 1486.31 57.408 1494.51 54.2473C1502.56 51.1402 1510.64 48.1403 1518.77 45.2475C1526.77 42.4083 1534.81 39.6628 1542.88 37.0512C1550.88 34.4531 1558.93 31.9754 1566.99 29.6317C1574.92 27.3148 1582.87 25.1318 1590.87 23.056C1598.77 21.0069 1606.71 19.0917 1614.68 17.3105C1622.58 15.5427 1630.51 13.8954 1638.45 12.3821C1646.35 10.8821 1654.28 9.51604 1662.22 8.28392C1670.14 7.06519 1678.07 5.967 1686.02 5.01612C1694 4.06525 1702 3.2483 1709.99 2.57867C1717.96 1.90904 1725.94 1.38673 1733.93 0.998342C1741.94 0.609956 1749.96 0.368889 1757.98 0.261749C1766.04 0.154608 1774.12 0.194786 1782.18 0.382282C1790.31 0.569778 1798.44 0.891201 1806.55 1.35994C1814.78 1.82868 1823 2.44474 1831.21 3.20812C1839.53 3.9715 1847.82 4.8822 1856.11 5.92682C1864.49 6.98483 1872.85 8.17677 1881.2 9.50264C1889.7 10.8553 1898.16 12.3419 1906.6 13.949C1913.92 15.3552 1921.24 16.8686 1928.53 18.4623V19.4801C1920.47 17.7123 1912.38 16.0516 1904.27 14.5249C1895.83 12.9311 1887.38 11.4714 1878.9 10.1455V10.1321Z" fill="#6BA3B7"/>
<path d="M1145.25 214.155C1152.66 212.092 1160.03 209.909 1167.37 207.606C1174.65 205.316 1181.91 202.918 1189.13 200.4C1196.31 197.896 1203.43 195.271 1210.52 192.526C1217.56 189.794 1224.57 186.941 1231.52 183.968C1238.44 180.995 1245.3 177.914 1252.1 174.7C1258.92 171.486 1265.68 168.138 1272.36 164.656C1278.99 161.214 1285.57 157.638 1292.06 153.942C1298.44 150.312 1304.79 146.656 1311.15 143.027C1311.52 142.96 1311.9 142.893 1312.27 142.839C1312.84 142.745 1313.41 142.652 1313.97 142.558C1306.13 147.004 1298.33 151.571 1290.47 156.004C1283.96 159.674 1277.37 163.223 1270.72 166.638C1264.05 170.066 1257.31 173.374 1250.51 176.548C1243.69 179.736 1236.81 182.803 1229.87 185.749C1222.9 188.709 1215.89 191.548 1208.82 194.253C1201.72 196.985 1194.58 199.584 1187.39 202.075C1180.16 204.579 1172.9 206.949 1165.6 209.213C1158.23 211.503 1150.83 213.659 1143.39 215.708C1135.92 217.771 1128.41 219.726 1120.87 221.561C1115.54 222.86 1110.18 224.092 1104.81 225.284C1103.79 225.177 1102.76 225.056 1101.74 224.936C1108.73 223.409 1115.72 221.802 1122.67 220.088C1130.23 218.226 1137.74 216.244 1145.24 214.155H1145.25Z" fill="#6BA3B7"/>
<path d="M38.8246 74.9387C47.9852 75.0056 57.1323 75.3003 66.2795 75.8092C75.2927 76.3181 84.2792 77.0413 93.2656 77.9654C102.145 78.8895 111.011 80.0011 119.836 81.3002C128.662 82.5992 137.461 84.0858 146.233 85.7331C154.925 87.367 163.59 89.1616 172.228 91.1035C180.853 93.0455 189.451 95.1213 198.022 97.3177C203.915 98.8311 209.781 100.411 215.634 102.032C214.134 101.965 212.62 101.898 211.12 101.831C206.165 100.492 201.197 99.1659 196.228 97.8936C187.657 95.7106 179.059 93.6481 170.42 91.733C161.755 89.8044 153.064 88.0232 144.345 86.4161C135.6 84.7956 126.814 83.3358 118.002 82.0635C109.149 80.7778 100.283 79.693 91.3772 78.7957C82.3908 77.8984 73.3776 77.202 64.3644 76.7199C55.2173 76.2378 46.0433 75.9699 36.8828 75.9431C27.5347 75.9163 18.1866 76.1172 8.85199 76.5726C5.89223 76.7199 2.94588 76.894 -0.000488281 77.0815V76.077C3.61551 75.8494 7.23148 75.6351 10.8475 75.4744C20.1687 75.0592 29.5034 74.8851 38.838 74.9521L38.8246 74.9387Z" fill="#6BA3B7"/>
<path d="M30.3343 104.737C38.0082 104.041 45.7089 103.425 53.3963 102.902C61.1372 102.367 68.8915 101.925 76.6324 101.55C84.4403 101.175 92.2347 100.88 100.043 100.666C107.931 100.438 115.819 100.291 123.694 100.224C131.689 100.144 139.671 100.13 147.667 100.197C155.783 100.251 163.899 100.371 172.014 100.559C180.278 100.746 188.554 100.987 196.818 101.282C201.572 101.456 206.34 101.644 211.094 101.844C212.594 101.911 214.107 101.978 215.607 102.045C217.75 102.139 219.907 102.233 222.049 102.34C230.607 102.755 239.165 103.143 247.723 103.585C256.2 104.014 264.678 104.496 273.155 105.005C281.673 105.514 290.177 106.063 298.682 106.639C307.119 107.215 315.543 107.831 323.98 108.474C332.445 109.117 340.909 109.8 349.373 110.523C357.77 111.233 366.154 111.969 374.537 112.746C382.935 113.523 391.332 114.326 399.715 115.17C408.086 116 416.456 116.871 424.827 117.768C433.17 118.666 441.527 119.59 449.871 120.54C458.201 121.491 466.518 122.469 474.835 123.487C483.111 124.491 491.388 125.523 499.651 126.581C507.954 127.639 516.258 128.737 524.561 129.848C532.784 130.947 540.994 132.085 549.217 133.237C557.48 134.402 565.73 135.58 573.98 136.786C582.163 137.991 590.332 139.21 598.515 140.455C606.725 141.701 614.935 142.973 623.131 144.272C631.26 145.558 639.389 146.857 647.519 148.183C655.648 149.509 663.777 150.861 671.907 152.227C680.009 153.593 688.112 154.973 696.214 156.379C704.29 157.785 712.379 159.205 720.442 160.638C728.49 162.071 736.553 163.517 744.602 164.991C752.637 166.45 760.66 167.937 768.682 169.437C776.69 170.923 784.686 172.437 792.681 173.964C800.636 175.477 808.578 177.004 816.52 178.544C824.489 180.097 832.471 181.651 840.439 183.231C848.354 184.798 856.256 186.378 864.171 187.959C872.314 189.579 880.456 191.173 888.612 192.727C896.728 194.28 904.844 195.793 912.974 197.267C921.156 198.753 929.353 200.213 937.562 201.633C945.718 203.052 953.875 204.432 962.044 205.771C964.977 206.253 967.91 206.708 970.83 207.177C970.722 207.191 970.602 207.217 970.495 207.231C969.517 207.378 968.526 207.512 967.548 207.659C965.098 207.258 962.647 206.883 960.196 206.481C952 205.128 943.817 203.735 935.634 202.316C927.464 200.896 919.295 199.436 911.125 197.95C902.996 196.463 894.88 194.95 886.764 193.396C878.608 191.843 870.465 190.249 862.323 188.615C854.421 187.035 846.533 185.454 838.631 183.901C830.689 182.334 822.734 180.78 814.779 179.24C806.81 177.7 798.828 176.16 790.86 174.647C782.891 173.133 774.909 171.633 766.927 170.147C758.878 168.647 750.829 167.16 742.767 165.7C734.745 164.241 726.709 162.794 718.687 161.375C710.585 159.941 702.482 158.508 694.366 157.116C686.29 155.723 678.215 154.343 670.126 152.977C661.996 151.611 653.867 150.259 645.738 148.933C637.581 147.607 629.425 146.294 621.269 145.009C613.113 143.723 604.971 142.464 596.814 141.219C588.591 139.973 580.355 138.741 572.118 137.536C563.922 136.33 555.712 135.165 547.516 134.013C539.253 132.862 530.99 131.723 522.727 130.612C514.45 129.5 506.173 128.415 497.897 127.371C489.62 126.313 481.357 125.295 473.08 124.29C464.737 123.286 456.38 122.308 448.023 121.357C439.706 120.407 431.389 119.496 423.059 118.612C414.688 117.715 406.318 116.858 397.948 116.027C389.551 115.197 381.167 114.393 372.77 113.616C364.386 112.853 355.989 112.117 347.605 111.407C339.141 110.697 330.677 110.014 322.213 109.371C313.775 108.728 305.351 108.126 296.914 107.55C288.436 106.974 279.945 106.438 271.468 105.929C262.964 105.42 254.459 104.951 245.955 104.523C237.424 104.094 228.893 103.693 220.348 103.291C220.215 103.291 220.067 103.291 219.933 103.277C218.447 103.21 216.947 103.143 215.46 103.077C208.657 102.768 201.867 102.487 195.063 102.246C186.84 101.965 178.604 101.724 170.367 101.55C162.238 101.376 154.095 101.269 145.966 101.215C138.011 101.175 130.056 101.188 122.1 101.282C114.226 101.376 106.337 101.523 98.4624 101.764C90.6545 101.992 82.86 102.3 75.0656 102.688C67.3381 103.063 59.6238 103.532 51.9097 104.068C44.1688 104.617 36.4279 105.233 28.7004 105.956C21.0131 106.666 13.339 107.456 5.66504 108.34C3.77667 108.554 1.88837 108.795 -0.0134277 109.023V108.018C2.37048 107.724 4.75433 107.429 7.15161 107.161C14.8657 106.291 22.5933 105.501 30.3343 104.791V104.737Z" fill="#6BA3B7"/>
<path d="M1889.48 185.187C1881.24 184.798 1873.01 184.557 1864.77 184.463C1856.59 184.383 1848.41 184.45 1840.22 184.678C1831.97 184.905 1823.74 185.307 1815.5 185.856C1807.26 186.419 1799.04 187.142 1790.83 188.026C1782.45 188.936 1774.06 189.954 1765.71 191.066C1757.4 192.164 1749.11 193.383 1740.84 194.682C1732.72 195.954 1724.63 197.32 1716.54 198.726C1708.48 200.133 1700.43 201.592 1692.4 203.092C1684.44 204.566 1676.49 206.066 1668.54 207.552C1660.53 209.052 1652.53 210.552 1644.52 212.025C1636.59 213.472 1628.65 214.905 1620.72 216.298C1612.86 217.677 1605 219.003 1597.11 220.248C1589.21 221.507 1581.29 222.686 1573.38 223.811C1565.46 224.936 1557.55 225.98 1549.62 226.985C1541.61 227.989 1533.6 228.927 1525.58 229.797C1517.6 230.668 1509.6 231.485 1501.59 232.221C1493.54 232.971 1485.49 233.668 1477.43 234.297C1469.36 234.927 1461.27 235.503 1453.18 236.025C1445.1 236.534 1437.01 236.989 1428.92 237.391C1420.77 237.793 1412.6 238.141 1404.44 238.422C1396.31 238.703 1388.18 238.944 1380.04 239.119C1371.86 239.293 1363.69 239.427 1355.5 239.494C1347.31 239.56 1339.11 239.574 1330.92 239.547C1322.73 239.507 1314.54 239.427 1306.35 239.279C1298.1 239.145 1289.84 238.944 1281.59 238.703C1273.38 238.462 1265.16 238.168 1256.95 237.833C1248.7 237.498 1240.45 237.11 1232.2 236.668C1223.94 236.226 1215.69 235.744 1207.44 235.221C1199.17 234.686 1190.91 234.11 1182.65 233.494C1174.38 232.864 1166.12 232.195 1157.86 231.485C1149.62 230.775 1141.37 230.012 1133.15 229.221C1124.86 228.418 1116.57 227.574 1108.28 226.677C1106.12 226.449 1103.96 226.181 1101.8 225.954C1100.76 225.846 1099.73 225.726 1098.7 225.605C1093.65 225.043 1088.62 224.494 1083.57 223.905C1075.3 222.94 1067.05 221.922 1058.81 220.878C1050.57 219.833 1042.33 218.735 1034.1 217.61C1025.89 216.485 1017.68 215.32 1009.48 214.115C1001.23 212.909 992.98 211.65 984.744 210.378C980.097 209.655 975.463 208.891 970.816 208.141C971.874 207.981 972.945 207.807 974.003 207.646C978.222 208.316 982.44 209.012 986.673 209.668C994.882 210.94 1003.11 212.186 1011.34 213.378C1019.56 214.583 1027.8 215.748 1036.04 216.873C1044.29 217.998 1052.54 219.083 1060.8 220.128C1069.05 221.172 1077.3 222.177 1085.56 223.141C1090.96 223.771 1096.36 224.36 1101.76 224.949C1102.77 225.056 1103.8 225.177 1104.82 225.297C1106.66 225.498 1108.49 225.713 1110.34 225.913C1118.58 226.784 1126.81 227.628 1135.05 228.418C1143.34 229.221 1151.63 229.971 1159.92 230.681C1168.16 231.391 1176.39 232.047 1184.63 232.663C1192.92 233.279 1201.2 233.855 1209.49 234.378C1217.71 234.9 1225.94 235.369 1234.17 235.797C1242.44 236.226 1250.72 236.614 1259 236.936C1267.21 237.27 1275.42 237.552 1283.64 237.779C1291.86 238.007 1300.09 238.194 1308.32 238.328C1316.53 238.462 1324.74 238.543 1332.97 238.569C1341.16 238.596 1349.36 238.569 1357.55 238.489C1365.74 238.409 1373.91 238.275 1382.09 238.087C1390.22 237.9 1398.35 237.659 1406.48 237.364C1414.63 237.069 1422.8 236.708 1430.96 236.293C1439.05 235.878 1447.12 235.422 1455.2 234.9C1463.32 234.378 1471.42 233.788 1479.52 233.145C1487.56 232.503 1495.58 231.806 1503.59 231.043C1511.64 230.279 1519.68 229.449 1527.72 228.565C1535.69 227.681 1543.64 226.744 1551.6 225.739C1559.55 224.735 1567.51 223.663 1575.46 222.525C1583.38 221.387 1591.29 220.195 1599.18 218.922C1607.06 217.664 1614.93 216.338 1622.78 214.931C1630.76 213.512 1638.73 212.092 1646.71 210.619C1654.7 209.146 1662.68 207.659 1670.66 206.159C1678.64 204.659 1686.61 203.159 1694.59 201.686C1702.59 200.213 1710.6 198.767 1718.6 197.374C1726.76 195.954 1734.92 194.602 1743.1 193.343C1751.35 192.07 1759.61 190.878 1767.89 189.794C1776.27 188.695 1784.67 187.678 1793.07 186.794C1801.28 185.937 1809.49 185.24 1817.72 184.718C1825.96 184.195 1834.2 183.82 1842.45 183.62C1850.63 183.419 1858.81 183.379 1866.99 183.486C1875.24 183.593 1883.48 183.874 1891.72 184.289C1900.03 184.704 1908.34 185.28 1916.63 185.99C1920.61 186.325 1924.58 186.713 1928.55 187.115V188.12C1923.83 187.637 1919.11 187.195 1914.38 186.807C1906.09 186.124 1897.8 185.575 1889.49 185.187H1889.48Z" fill="#6BA3B7"/>
<path d="M1905 137.214C1897.81 135.875 1890.59 134.656 1883.36 133.558C1876.1 132.46 1868.83 131.469 1861.54 130.598C1854.18 129.714 1846.81 128.938 1839.43 128.241C1831.92 127.545 1824.39 126.942 1816.87 126.407C1809.14 125.871 1801.41 125.402 1793.68 125.014C1785.7 124.612 1777.72 124.264 1769.74 123.969C1761.42 123.661 1753.1 123.42 1744.79 123.179C1736.31 122.924 1727.82 122.683 1719.34 122.456C1710.82 122.228 1702.31 122 1693.79 121.799C1685.26 121.599 1676.74 121.411 1668.21 121.264C1659.7 121.103 1651.2 120.969 1642.7 120.862C1634.17 120.755 1625.63 120.674 1617.1 120.634C1608.57 120.594 1600.04 120.581 1591.51 120.621C1582.98 120.648 1574.45 120.728 1565.92 120.849C1557.39 120.969 1548.87 121.13 1540.35 121.344C1531.83 121.558 1523.31 121.826 1514.8 122.161C1506.29 122.482 1497.79 122.871 1489.28 123.313C1480.79 123.755 1472.3 124.264 1463.81 124.84C1455.33 125.415 1446.86 126.058 1438.38 126.781C1429.91 127.505 1421.45 128.295 1413 129.165C1404.55 130.036 1396.1 131 1387.66 132.005C1379.21 133.022 1370.79 134.107 1362.35 135.259C1353.99 136.397 1345.63 137.603 1337.3 138.875C1329.52 140.054 1321.76 141.286 1314 142.558C1313.44 142.652 1312.86 142.745 1312.3 142.839C1311.93 142.906 1311.55 142.973 1311.18 143.027C1303.25 144.339 1295.33 145.692 1287.42 147.085C1279.18 148.544 1270.94 150.031 1262.71 151.571C1254.47 153.111 1246.23 154.678 1238.01 156.272C1229.8 157.866 1221.59 159.486 1213.38 161.134C1205.19 162.767 1197 164.428 1188.81 166.102C1180.62 167.776 1172.46 169.45 1164.27 171.138C1156.1 172.825 1147.93 174.513 1139.76 176.2C1135.69 177.044 1131.61 177.861 1127.55 178.758C1123.52 179.655 1119.49 180.539 1115.44 181.41C1107.35 183.164 1099.26 184.879 1091.16 186.553C1083.05 188.227 1074.92 189.861 1066.79 191.454C1058.64 193.048 1050.49 194.602 1042.33 196.102C1034.16 197.615 1025.98 199.075 1017.8 200.494C1009.6 201.914 1001.39 203.293 993.182 204.633C986.807 205.664 980.419 206.655 974.03 207.633C972.972 207.793 971.901 207.967 970.843 208.128C970.093 208.249 969.329 208.369 968.58 208.476C960.33 209.722 952.08 210.914 943.817 212.066C935.553 213.217 927.29 214.316 919.027 215.374C910.737 216.432 902.447 217.436 894.143 218.387C885.867 219.338 877.577 220.248 869.287 221.092C860.957 221.949 852.626 222.753 844.296 223.503C835.953 224.253 827.609 224.949 819.265 225.605C810.908 226.248 802.552 226.838 794.181 227.387C785.811 227.922 777.44 228.405 769.07 228.833C760.686 229.262 752.302 229.637 743.919 229.945C735.521 230.253 727.138 230.521 718.741 230.708C710.343 230.909 701.933 231.043 693.536 231.123C692.049 231.137 690.549 231.137 689.063 231.15C686.88 231.163 684.683 231.177 682.5 231.19C677.773 231.204 673.045 231.204 668.304 231.19C659.893 231.15 651.469 231.043 643.059 230.882C634.635 230.721 626.224 230.494 617.801 230.199C609.403 229.905 601.006 229.556 592.622 229.141C584.198 228.726 575.775 228.244 567.351 227.695C558.927 227.146 550.503 226.53 542.079 225.86C533.655 225.177 525.231 224.427 516.82 223.61C508.611 222.82 500.401 222.003 492.191 221.132C484.022 220.262 475.852 219.351 467.696 218.414C459.567 217.476 451.438 216.499 443.322 215.494C435.233 214.503 427.143 213.472 419.054 212.441C410.992 211.409 402.943 210.365 394.881 209.307C386.845 208.262 378.823 207.204 370.787 206.159C362.779 205.115 354.77 204.084 346.761 203.066C338.766 202.048 330.784 201.043 322.788 200.079C314.806 199.115 306.824 198.164 298.842 197.253C290.874 196.343 282.892 195.486 274.923 194.655C266.954 193.838 258.986 193.061 251.004 192.352C243.035 191.642 235.053 190.986 227.071 190.396C219.116 189.807 211.161 189.298 203.192 188.856C195.197 188.414 187.188 188.053 179.193 187.785C171.171 187.517 163.148 187.329 155.14 187.249C147.117 187.169 139.109 187.182 131.087 187.303C123.011 187.423 114.935 187.664 106.873 188.012C98.7568 188.361 90.6543 188.843 82.5518 189.445C74.3956 190.048 66.2396 190.785 58.1102 191.655C49.8872 192.526 41.6909 193.544 33.5081 194.695C25.2449 195.861 16.995 197.173 8.7854 198.646C5.86584 199.168 2.94617 199.731 0.0400391 200.28V199.249C3.50867 198.593 6.96399 197.936 10.4326 197.334C18.6423 195.901 26.8921 194.602 35.142 193.463C43.3114 192.325 51.4808 191.334 59.6906 190.477C67.8198 189.633 75.9761 188.91 84.1188 188.32C92.2213 187.731 100.324 187.276 108.44 186.941C116.502 186.606 124.578 186.379 132.654 186.271C140.689 186.164 148.738 186.164 156.787 186.258C164.809 186.352 172.831 186.553 180.84 186.834C188.849 187.115 196.844 187.49 204.839 187.932C212.835 188.387 220.817 188.91 228.799 189.499C236.781 190.088 244.763 190.758 252.731 191.481C260.714 192.204 268.682 192.981 276.651 193.811C284.633 194.642 292.601 195.512 300.57 196.423C308.552 197.334 316.534 198.285 324.516 199.262C332.511 200.24 340.507 201.244 348.489 202.262C356.497 203.28 364.506 204.325 372.515 205.369C380.551 206.414 388.573 207.472 396.608 208.517C404.671 209.561 412.719 210.606 420.782 211.637C428.871 212.668 436.96 213.686 445.049 214.677C453.179 215.668 461.295 216.646 469.437 217.583C477.607 218.521 485.776 219.432 493.946 220.289C502.195 221.159 510.445 221.963 518.695 222.753C527.106 223.556 535.53 224.293 543.954 224.963C552.364 225.632 560.788 226.235 569.226 226.771C577.65 227.306 586.06 227.775 594.497 228.19C602.921 228.592 611.332 228.94 619.756 229.221C628.166 229.503 636.59 229.717 645.014 229.878C653.425 230.038 661.835 230.119 670.259 230.159C672.161 230.159 674.063 230.159 675.965 230.159C678.174 230.159 680.371 230.159 682.581 230.159C686.88 230.146 691.179 230.119 695.491 230.065C703.888 229.971 712.299 229.824 720.696 229.623C729.093 229.422 737.49 229.155 745.874 228.833C754.258 228.512 762.642 228.137 771.025 227.695C779.396 227.253 787.766 226.771 796.136 226.222C804.493 225.672 812.864 225.07 821.207 224.427C829.551 223.771 837.895 223.061 846.238 222.311C854.568 221.548 862.899 220.744 871.229 219.873C879.546 219.016 887.862 218.092 896.166 217.128C904.469 216.164 912.759 215.146 921.049 214.088C929.312 213.03 937.562 211.918 945.812 210.766C953.084 209.749 960.357 208.677 967.615 207.579C968.593 207.432 969.584 207.298 970.562 207.15C970.669 207.137 970.789 207.11 970.896 207.097C979.026 205.865 987.142 204.579 995.244 203.253C1003.45 201.914 1011.66 200.521 1019.86 199.088C1028.04 197.655 1036.23 196.182 1044.4 194.669C1052.55 193.155 1060.71 191.602 1068.85 189.995C1076.98 188.401 1085.1 186.754 1093.21 185.079C1101.31 183.405 1109.4 181.678 1117.48 179.923C1121.51 179.039 1125.54 178.102 1129.59 177.258C1133.67 176.401 1137.75 175.571 1141.84 174.727C1150.01 173.04 1158.18 171.352 1166.35 169.665C1174.53 167.977 1182.7 166.29 1190.88 164.629C1199.07 162.955 1207.26 161.308 1215.46 159.66C1223.67 158.026 1231.88 156.406 1240.09 154.812C1248.3 153.218 1256.49 151.665 1264.72 150.138C1272.98 148.611 1281.24 147.111 1289.51 145.665C1297.57 144.245 1305.64 142.879 1313.72 141.554C1313.95 141.513 1314.18 141.473 1314.4 141.446C1315.11 141.326 1315.84 141.219 1316.55 141.098C1324.17 139.866 1331.79 138.661 1339.41 137.509C1347.78 136.25 1356.16 135.045 1364.55 133.92C1372.96 132.781 1381.38 131.71 1389.8 130.719C1398.24 129.714 1406.69 128.777 1415.14 127.92C1423.59 127.063 1432.06 126.286 1440.52 125.576C1449 124.866 1457.48 124.237 1465.95 123.674C1474.44 123.112 1482.94 122.616 1491.44 122.174C1499.94 121.746 1508.45 121.371 1516.95 121.049C1525.47 120.728 1533.99 120.474 1542.51 120.259C1551.02 120.045 1559.55 119.898 1568.09 119.777C1576.62 119.67 1585.15 119.603 1593.68 119.576C1602.21 119.549 1610.74 119.576 1619.27 119.616C1627.8 119.67 1636.33 119.75 1644.87 119.858C1653.4 119.965 1661.93 120.112 1670.46 120.273C1678.99 120.433 1687.51 120.621 1696.04 120.822C1704.56 121.023 1713.07 121.25 1721.59 121.478C1730.1 121.706 1738.61 121.96 1747.12 122.215C1755.41 122.456 1763.68 122.71 1771.97 123.018C1779.93 123.313 1787.9 123.674 1795.85 124.09C1803.57 124.491 1811.27 124.973 1818.98 125.523C1826.5 126.058 1834.01 126.688 1841.51 127.398C1848.88 128.107 1856.24 128.898 1863.59 129.808C1870.87 130.706 1878.12 131.71 1885.37 132.822C1892.6 133.933 1899.82 135.165 1907.01 136.531C1914.23 137.897 1921.44 139.384 1928.61 141.004V142.049C1927.99 141.902 1927.36 141.754 1926.71 141.607C1919.52 140 1912.32 138.527 1905.07 137.188L1905 137.214Z" fill="#6BA3B7"/>
</g>
<defs>
<clipPath id="clip0_18_188">
<rect width="1928.53" height="247.187" fill="white" transform="translate(0.172142 0.393921)"/>
</clipPath>
</defs>
</svg>
