<svg width="1920" height="249" viewBox="0 0 1920 249" fill="none" xmlns="http://www.w3.org/2000/svg">
<g clip-path="url(#clip0_32_948)">
<path d="M1285.38 223.94C1293.58 222.453 1301.74 220.913 1309.91 219.306C1318.06 217.699 1326.2 216.038 1334.33 214.311C1342.43 212.596 1350.52 210.815 1358.58 208.98C1366.67 207.145 1374.75 205.244 1382.8 203.302C1390.78 201.373 1398.75 199.378 1406.69 197.342C1414.6 195.306 1422.49 193.217 1430.38 191.074C1438.22 188.945 1446.04 186.762 1453.83 184.525C1461.59 182.302 1469.31 180.025 1477.03 177.709C1484.69 175.405 1492.32 173.048 1499.96 170.637C1507.52 168.253 1515.06 165.803 1522.59 163.312C1530.05 160.847 1537.48 158.329 1544.9 155.758C1553.02 152.946 1561.13 150.12 1569.25 147.321C1577.95 144.321 1586.65 141.321 1595.35 138.334C1603.95 135.388 1612.56 132.455 1621.17 129.562C1629.72 126.696 1638.27 123.857 1646.86 121.085C1655.38 118.326 1663.91 115.634 1672.48 113.022C1680.98 110.424 1689.53 107.906 1698.09 105.482C1700.23 104.88 1702.37 104.304 1704.51 103.701C1703.03 103.768 1701.53 103.835 1700.04 103.902C1698.79 104.25 1697.54 104.585 1696.29 104.947C1687.73 107.384 1679.19 109.915 1670.68 112.513C1662.13 115.138 1653.58 117.844 1645.06 120.603C1636.44 123.402 1627.83 126.254 1619.23 129.147C1610.6 132.053 1601.99 134.986 1593.4 137.933C1584.7 140.919 1576.03 143.919 1567.35 146.906C1559.32 149.678 1551.33 152.477 1543.31 155.236C1535.87 157.794 1528.43 160.312 1520.97 162.776C1513.41 165.267 1505.85 167.718 1498.25 170.102C1490.61 172.512 1482.93 174.869 1475.25 177.186C1467.52 179.503 1459.78 181.78 1452.02 183.99C1444.21 186.226 1436.39 188.396 1428.56 190.525C1420.67 192.655 1412.77 194.744 1404.85 196.766C1396.9 198.802 1388.93 200.784 1380.95 202.713C1372.91 204.654 1364.85 206.529 1356.79 208.364C1348.69 210.199 1340.58 211.967 1332.45 213.681C1324.32 215.395 1316.18 217.056 1308.04 218.65C1299.87 220.243 1291.69 221.784 1283.49 223.257C1275.28 224.73 1267.07 226.15 1258.83 227.502C1251.71 228.681 1244.57 229.792 1237.42 230.864C1239.63 230.864 1241.83 230.864 1244.04 230.864C1249.59 230.007 1255.15 229.123 1260.71 228.212C1268.93 226.846 1277.16 225.426 1285.35 223.94H1285.38Z" fill="#6BA3B7"/>
<path d="M1209.26 234.868C1200.95 235.966 1192.65 236.984 1184.35 237.948C1176.06 238.899 1167.77 239.783 1159.48 240.6C1151.19 241.404 1142.89 242.154 1134.59 242.81C1126.31 243.48 1118.02 244.069 1109.73 244.578C1101.47 245.087 1093.2 245.529 1084.92 245.89C1076.64 246.252 1068.37 246.533 1060.09 246.721C1051.84 246.921 1043.59 247.029 1035.34 247.069C1027.14 247.096 1018.95 247.055 1010.75 246.908C1002.59 246.774 994.438 246.546 986.282 246.238C978.166 245.93 970.064 245.529 961.961 245.047C953.899 244.564 945.85 243.988 937.801 243.305C929.752 242.636 921.716 241.872 913.694 241.002C905.766 240.145 897.837 239.194 889.922 238.149C882.061 237.105 874.213 235.953 866.378 234.707C858.597 233.462 850.829 232.123 843.075 230.676C835.789 229.31 828.53 227.85 821.285 226.297C820.254 226.417 819.223 226.525 818.191 226.645C819.424 226.913 820.642 227.194 821.874 227.462C829.535 229.096 837.222 230.623 844.936 232.042C852.691 233.475 860.472 234.801 868.253 236.02C876.101 237.252 883.949 238.377 891.824 239.408C899.739 240.439 907.667 241.377 915.609 242.221C923.591 243.064 931.6 243.814 939.595 244.471C947.671 245.127 955.747 245.689 963.836 246.171C971.965 246.654 980.095 247.029 988.237 247.323C996.393 247.618 1004.55 247.832 1012.71 247.953C1020.9 248.073 1029.1 248.113 1037.29 248.06C1045.53 248.02 1053.75 247.886 1061.99 247.671C1070.25 247.457 1078.5 247.176 1086.75 246.801C1095.03 246.426 1103.31 245.984 1111.58 245.462C1119.87 244.939 1128.16 244.337 1136.44 243.667C1144.74 242.997 1153.03 242.247 1161.32 241.417C1169.67 240.587 1178 239.689 1186.33 238.725C1194.62 237.761 1202.89 236.73 1211.17 235.632C1219.45 234.533 1227.71 233.368 1235.97 232.136C1236.48 232.056 1236.99 231.975 1237.51 231.895C1235.33 231.895 1233.13 231.868 1230.95 231.855C1223.72 232.913 1216.47 233.931 1209.23 234.882L1209.26 234.868Z" fill="#6BA3B7"/>
<path d="M41.0988 10.8101C49.4424 9.51099 57.7994 8.33244 66.1697 7.3146C74.4196 6.29677 82.6962 5.42625 90.9728 4.68965C99.1557 3.96645 107.339 3.37718 115.535 2.92183C123.651 2.47988 131.767 2.18524 139.896 2.02453C147.958 1.86382 156.021 1.85042 164.083 1.98435C172.119 2.11828 180.154 2.38613 188.19 2.8013C196.198 3.21647 204.194 3.76557 212.176 4.46198C220.131 5.1584 228.086 5.98874 236.015 6.9664C243.956 7.94406 251.898 9.05564 259.8 10.3145C267.742 11.5735 275.67 12.9663 283.572 14.493C291.527 16.0332 299.455 17.7073 307.357 19.5019C315.326 21.3233 323.267 23.2652 331.182 25.3277C339.178 27.4169 347.146 29.6401 355.075 31.9704C363.137 34.3409 371.146 36.8453 379.128 39.4568C387.23 42.1086 395.293 44.8808 403.315 47.7603C411.458 50.6798 419.547 53.7066 427.609 56.8404C435.819 60.0279 443.975 63.3225 452.091 66.7242C460.381 70.1929 468.617 73.7553 476.814 77.4115C485.184 81.148 493.501 84.9649 501.777 88.8889C510.242 92.8933 518.652 96.9781 527.036 101.143C535.607 105.402 544.125 109.755 552.616 114.174C561.294 118.701 569.932 123.308 578.544 127.982C586.901 132.535 595.218 137.142 603.508 141.816C604.217 141.937 604.941 142.044 605.65 142.165C605.878 142.205 606.106 142.245 606.333 142.272C605.101 141.575 603.869 140.852 602.624 140.156C593.905 135.254 585.16 130.419 576.361 125.652C567.776 121.004 559.151 116.424 550.473 111.911C541.995 107.518 533.491 103.192 524.933 98.9468C516.523 94.7817 508.072 90.6969 499.568 86.7059C491.291 82.8221 482.988 79.0186 474.631 75.3222C466.448 71.6928 458.225 68.1706 449.961 64.7287C441.846 61.3537 433.689 58.0859 425.493 54.9253C417.444 51.8182 409.355 48.8183 401.226 45.9255C393.23 43.0862 385.195 40.3408 377.119 37.7292C369.124 35.131 361.075 32.6534 353.012 30.3097C345.084 27.9928 337.129 25.8098 329.133 23.7339C321.232 21.6849 313.29 19.7697 305.321 17.9885C297.42 16.2207 289.491 14.5734 281.55 13.06C273.648 11.5601 265.719 10.194 257.778 8.96189C249.863 7.74317 241.934 6.64497 233.979 5.6941C225.997 4.74323 218.002 3.92628 210.006 3.25665C202.038 2.58702 194.056 2.06471 186.074 1.67632C178.065 1.28793 170.043 1.04687 162.021 0.939727C153.958 0.832586 145.882 0.872764 137.82 1.06026C129.691 1.24776 121.562 1.56918 113.446 2.03792C105.223 2.50666 96.9995 3.12272 88.7898 3.8861C80.473 4.64948 72.183 5.56017 63.893 6.6048C55.5092 7.66281 47.1522 8.85475 38.7953 10.1806C30.3044 11.5333 21.8402 13.0199 13.4029 14.627C6.07714 16.0332 -1.23521 17.5466 -8.53418 19.1403V20.1581C-0.471835 18.3903 7.6173 16.7296 15.7332 15.2028C24.1705 13.6091 32.6213 12.1493 41.0988 10.8235V10.8101Z" fill="#6BA3B7"/>
<path d="M774.745 214.833C767.339 212.77 759.973 210.587 752.634 208.284C745.349 205.994 738.09 203.596 730.871 201.078C723.693 198.574 716.568 195.949 709.483 193.204C702.439 190.472 695.434 187.619 688.484 184.646C681.56 181.673 674.703 178.592 667.899 175.378C661.082 172.164 654.319 168.816 647.636 165.334C641.007 161.892 634.431 158.316 627.936 154.62C621.561 150.99 615.213 147.334 608.851 143.705C608.476 143.638 608.101 143.571 607.726 143.517C607.164 143.423 606.588 143.33 606.025 143.236C613.873 147.682 621.668 152.249 629.529 156.682C636.038 160.352 642.627 163.901 649.283 167.316C655.953 170.744 662.689 174.052 669.493 177.226C676.31 180.414 683.194 183.481 690.131 186.427C697.095 189.387 704.113 192.226 711.184 194.931C718.282 197.663 725.42 200.262 732.612 202.753C739.844 205.257 747.103 207.627 754.402 209.891C761.768 212.181 769.174 214.337 776.607 216.386C784.08 218.449 791.593 220.404 799.133 222.239C804.464 223.538 809.821 224.77 815.191 225.962C816.209 225.855 817.24 225.734 818.258 225.614C811.267 224.087 804.276 222.48 797.325 220.766C789.772 218.904 782.259 216.922 774.759 214.833H774.745Z" fill="#6BA3B7"/>
<path d="M1881.18 75.6166C1872.01 75.6836 1862.87 75.9782 1853.72 76.4872C1844.71 76.9961 1835.72 77.7193 1826.73 78.6434C1817.86 79.5675 1808.99 80.679 1800.16 81.9781C1791.34 83.2772 1782.54 84.7638 1773.77 86.4111C1765.07 88.045 1756.41 89.8396 1747.77 91.7815C1739.15 93.7234 1730.55 95.7993 1721.98 97.9957C1716.08 99.509 1710.22 101.089 1704.37 102.71C1705.87 102.643 1707.38 102.576 1708.88 102.509C1713.83 101.17 1718.8 99.8439 1723.77 98.5716C1732.34 96.3886 1740.94 94.3261 1749.58 92.411C1758.24 90.4824 1766.94 88.7012 1775.65 87.0941C1784.4 85.4736 1793.19 84.0138 1802 82.7415C1810.85 81.4558 1819.72 80.371 1828.62 79.4737C1837.61 78.5764 1846.62 77.88 1855.64 77.3979C1864.78 76.9157 1873.96 76.6479 1883.12 76.6211C1892.47 76.5943 1901.81 76.7952 1911.15 77.2505C1914.11 77.3979 1917.05 77.572 1920 77.7595V76.755C1916.38 76.5273 1912.77 76.3131 1909.15 76.1524C1899.83 75.7372 1890.5 75.5631 1881.16 75.63L1881.18 75.6166Z" fill="#6BA3B7"/>
<path d="M1889.67 105.415C1881.99 104.719 1874.29 104.103 1866.6 103.58C1858.86 103.045 1851.11 102.603 1843.37 102.228C1835.56 101.853 1827.77 101.558 1819.96 101.344C1812.07 101.116 1804.18 100.969 1796.31 100.902C1788.31 100.822 1780.33 100.808 1772.33 100.875C1764.22 100.929 1756.1 101.049 1747.99 101.237C1739.72 101.424 1731.45 101.665 1723.18 101.96C1718.43 102.134 1713.66 102.322 1708.91 102.522C1707.41 102.589 1705.89 102.656 1704.39 102.723C1702.25 102.817 1700.09 102.911 1697.95 103.018C1689.39 103.433 1680.84 103.822 1672.28 104.263C1663.8 104.692 1655.32 105.174 1646.85 105.683C1638.33 106.192 1629.82 106.741 1621.32 107.317C1612.88 107.893 1604.46 108.509 1596.02 109.152C1587.56 109.795 1579.09 110.478 1570.63 111.201C1562.23 111.911 1553.85 112.647 1545.46 113.424C1537.07 114.201 1528.67 115.004 1520.29 115.848C1511.91 116.678 1503.54 117.549 1495.17 118.446C1486.83 119.344 1478.47 120.268 1470.13 121.219C1461.8 122.169 1453.48 123.147 1445.17 124.165C1436.89 125.169 1428.61 126.201 1420.35 127.259C1412.05 128.317 1403.74 129.415 1395.44 130.526C1387.22 131.625 1379.01 132.763 1370.78 133.915C1362.52 135.08 1354.27 136.258 1346.02 137.464C1337.84 138.669 1329.67 139.888 1321.49 141.133C1313.28 142.379 1305.07 143.651 1296.87 144.95C1288.74 146.236 1280.61 147.535 1272.48 148.861C1264.35 150.187 1256.22 151.539 1248.09 152.905C1239.99 154.271 1231.89 155.651 1223.79 157.057C1215.71 158.463 1207.62 159.883 1199.56 161.316C1191.51 162.749 1183.45 164.195 1175.4 165.669C1167.36 167.128 1159.34 168.615 1151.32 170.115C1143.31 171.601 1135.31 173.115 1127.32 174.642C1119.36 176.155 1111.42 177.682 1103.48 179.222C1095.51 180.775 1087.53 182.329 1079.56 183.909C1071.65 185.476 1063.74 187.057 1055.83 188.637C1047.69 190.257 1039.54 191.851 1031.39 193.405C1023.27 194.958 1015.16 196.472 1007.03 197.945C998.844 199.431 990.648 200.891 982.438 202.311C974.282 203.73 966.126 205.11 957.956 206.449C955.023 206.931 952.09 207.386 949.171 207.855C949.278 207.869 949.399 207.895 949.506 207.909C950.483 208.056 951.474 208.19 952.452 208.337C954.903 207.936 957.354 207.561 959.805 207.159C968.001 205.806 976.184 204.413 984.367 202.994C992.536 201.574 1000.71 200.114 1008.88 198.628C1017 197.141 1025.12 195.628 1033.24 194.074C1041.39 192.521 1049.54 190.927 1057.68 189.293C1065.58 187.713 1073.47 186.132 1081.37 184.579C1089.31 183.012 1097.27 181.458 1105.22 179.918C1113.19 178.378 1121.17 176.838 1129.14 175.325C1137.11 173.811 1145.09 172.311 1153.07 170.825C1161.12 169.325 1169.17 167.838 1177.23 166.378C1185.26 164.919 1193.29 163.472 1201.31 162.053C1209.42 160.62 1217.52 159.187 1225.63 157.794C1233.71 156.401 1241.79 155.021 1249.87 153.655C1258 152.289 1266.13 150.937 1274.26 149.611C1282.42 148.285 1290.58 146.972 1298.73 145.687C1306.89 144.401 1315.03 143.142 1323.19 141.897C1331.41 140.651 1339.65 139.419 1347.88 138.214C1356.08 137.008 1364.29 135.843 1372.48 134.691C1380.75 133.54 1389.01 132.401 1397.27 131.29C1405.55 130.178 1413.83 129.093 1422.1 128.049C1430.38 126.991 1438.64 125.973 1446.92 124.968C1455.26 123.964 1463.62 122.986 1471.98 122.035C1480.29 121.085 1488.61 120.174 1496.94 119.29C1505.31 118.393 1513.68 117.536 1522.05 116.705C1530.45 115.875 1538.83 115.071 1547.23 114.295C1555.61 113.531 1564.01 112.795 1572.4 112.085C1580.86 111.375 1589.32 110.692 1597.79 110.049C1606.23 109.406 1614.65 108.804 1623.09 108.228C1631.56 107.652 1640.06 107.116 1648.53 106.607C1657.04 106.098 1665.54 105.63 1674.05 105.201C1682.58 104.772 1691.11 104.371 1699.65 103.969C1699.79 103.969 1699.93 103.969 1700.07 103.955C1701.55 103.888 1703.05 103.822 1704.54 103.755C1711.34 103.447 1718.13 103.165 1724.94 102.924C1733.16 102.643 1741.4 102.402 1749.63 102.228C1757.76 102.054 1765.91 101.947 1774.03 101.893C1781.99 101.853 1789.94 101.866 1797.9 101.96C1805.77 102.054 1813.66 102.201 1821.54 102.442C1829.35 102.67 1837.14 102.978 1844.93 103.366C1852.66 103.741 1860.38 104.21 1868.09 104.746C1875.83 105.295 1883.57 105.911 1891.3 106.634C1898.99 107.344 1906.66 108.134 1914.34 109.018C1916.22 109.232 1918.11 109.473 1920.01 109.701V108.696C1917.63 108.402 1915.25 108.107 1912.85 107.839C1905.13 106.969 1897.41 106.179 1889.67 105.469V105.415Z" fill="#6BA3B7"/>
<path d="M30.5184 185.864C38.7548 185.476 46.9913 185.235 55.2277 185.141C63.4106 185.061 71.5935 185.128 79.7764 185.356C88.0262 185.583 96.2626 185.985 104.499 186.534C112.736 187.097 120.959 187.82 129.168 188.704C137.552 189.614 145.936 190.632 154.293 191.744C162.596 192.842 170.886 194.061 179.163 195.36C187.279 196.632 195.368 197.998 203.457 199.404C211.519 200.811 219.568 202.27 227.604 203.77C235.559 205.244 243.514 206.744 251.456 208.23C259.465 209.73 267.474 211.23 275.482 212.703C283.411 214.15 291.353 215.583 299.281 216.976C307.142 218.355 315.004 219.681 322.892 220.926C330.794 222.185 338.709 223.364 346.624 224.489C354.539 225.614 362.454 226.658 370.382 227.663C378.391 228.667 386.4 229.605 394.422 230.475C402.404 231.346 410.399 232.163 418.408 232.899C426.457 233.649 434.506 234.346 442.568 234.975C450.644 235.605 458.733 236.181 466.823 236.703C474.898 237.212 482.987 237.667 491.076 238.069C499.233 238.471 507.402 238.819 515.558 239.1C523.687 239.381 531.817 239.622 539.959 239.797C548.142 239.971 556.312 240.105 564.495 240.171C572.691 240.238 580.887 240.252 589.084 240.225C597.266 240.185 605.463 240.105 613.646 239.957C621.895 239.823 630.159 239.622 638.409 239.381C646.618 239.14 654.841 238.846 663.051 238.511C671.301 238.176 679.551 237.788 687.8 237.346C696.064 236.904 704.313 236.422 712.563 235.899C720.827 235.364 729.09 234.788 737.353 234.172C745.616 233.542 753.88 232.873 762.143 232.163C770.379 231.453 778.629 230.69 786.852 229.899C795.142 229.096 803.432 228.252 811.722 227.355C813.878 227.127 816.035 226.859 818.204 226.632C819.235 226.524 820.267 226.404 821.298 226.283C826.347 225.721 831.382 225.172 836.431 224.583C844.695 223.618 852.945 222.6 861.194 221.556C869.431 220.511 877.667 219.413 885.904 218.288C894.113 217.163 902.323 215.998 910.519 214.793C918.769 213.587 927.019 212.328 935.255 211.056C939.903 210.333 944.536 209.569 949.184 208.819C948.126 208.659 947.054 208.485 945.996 208.324C941.778 208.994 937.559 209.69 933.327 210.346C925.117 211.618 916.894 212.864 908.658 214.056C900.435 215.261 892.198 216.426 883.962 217.551C875.712 218.676 867.462 219.761 859.199 220.806C850.949 221.85 842.699 222.855 834.436 223.819C829.039 224.449 823.642 225.038 818.244 225.627C817.227 225.734 816.195 225.855 815.177 225.975C813.343 226.176 811.508 226.391 809.66 226.591C801.423 227.462 793.187 228.306 784.95 229.096C776.66 229.899 768.37 230.649 760.08 231.359C751.844 232.069 743.607 232.725 735.371 233.341C727.081 233.957 718.804 234.533 710.514 235.056C702.291 235.578 694.055 236.047 685.832 236.475C677.555 236.904 669.278 237.292 661.002 237.614C652.792 237.948 644.582 238.23 636.359 238.457C628.136 238.685 619.913 238.872 611.677 239.006C603.467 239.14 595.258 239.221 587.034 239.247C578.838 239.274 570.642 239.247 562.446 239.167C554.263 239.087 546.093 238.953 537.91 238.765C529.781 238.578 521.652 238.337 513.522 238.042C505.366 237.747 497.197 237.386 489.041 236.971C480.952 236.555 472.876 236.1 464.8 235.578C456.684 235.056 448.582 234.466 440.479 233.823C432.444 233.181 424.422 232.484 416.413 231.721C408.364 230.957 400.315 230.127 392.279 229.243C384.311 228.359 376.355 227.422 368.4 226.417C360.445 225.413 352.49 224.341 344.535 223.203C336.62 222.065 328.705 220.873 320.816 219.6C312.941 218.342 305.067 217.016 297.219 215.609C289.237 214.19 281.268 212.77 273.286 211.297C265.304 209.824 257.322 208.337 249.34 206.837C241.358 205.337 233.389 203.837 225.407 202.364C217.412 200.891 209.403 199.445 201.395 198.052C193.238 196.632 185.082 195.28 176.899 194.021C168.65 192.748 160.386 191.556 152.11 190.472C143.726 189.373 135.329 188.356 126.932 187.472C118.722 186.614 110.512 185.918 102.276 185.396C94.0395 184.873 85.803 184.498 77.5532 184.298C69.3703 184.097 61.1874 184.057 53.0045 184.164C44.7547 184.271 36.5182 184.552 28.2818 184.967C19.965 185.382 11.6616 185.958 3.37156 186.668C-0.606039 187.003 -4.58364 187.391 -8.54785 187.793V188.797C-3.83366 188.315 0.893931 187.873 5.62152 187.485C13.9115 186.802 22.2016 186.253 30.505 185.864H30.5184Z" fill="#6BA3B7"/>
<path d="M14.9969 137.892C22.1887 136.553 29.4073 135.334 36.6393 134.236C43.8981 133.138 51.1703 132.147 58.4559 131.276C65.8218 130.392 73.1877 129.616 80.5671 128.919C88.0803 128.223 95.607 127.62 103.134 127.084C110.861 126.549 118.589 126.08 126.316 125.692C134.298 125.29 142.28 124.942 150.262 124.647C158.579 124.339 166.896 124.098 175.213 123.857C183.69 123.602 192.181 123.361 200.659 123.134C209.176 122.906 217.694 122.678 226.212 122.477C234.743 122.276 243.26 122.089 251.791 121.942C260.296 121.781 268.8 121.647 277.304 121.54C285.835 121.433 294.367 121.352 302.898 121.312C311.429 121.272 319.96 121.259 328.491 121.299C337.022 121.326 345.553 121.406 354.084 121.526C362.615 121.647 371.133 121.808 379.651 122.022C388.168 122.236 396.686 122.504 405.204 122.839C413.708 123.16 422.212 123.549 430.717 123.991C439.208 124.433 447.698 124.942 456.189 125.517C464.667 126.093 473.144 126.736 481.622 127.459C490.086 128.183 498.55 128.973 507.001 129.843C515.452 130.714 523.902 131.678 532.34 132.683C540.79 133.7 549.214 134.785 557.652 135.937C566.009 137.075 574.366 138.281 582.696 139.553C590.477 140.731 598.245 141.964 605.999 143.236C606.561 143.33 607.137 143.423 607.7 143.517C608.075 143.584 608.45 143.651 608.825 143.705C616.753 145.017 624.668 146.37 632.583 147.763C640.82 149.222 649.056 150.709 657.293 152.249C665.529 153.789 673.766 155.356 681.989 156.95C690.198 158.544 698.408 160.164 706.618 161.811C714.814 163.445 722.997 165.106 731.193 166.78C739.376 168.454 747.545 170.128 755.728 171.816C763.898 173.503 772.067 175.191 780.237 176.878C784.308 177.722 788.393 178.539 792.451 179.436C796.482 180.333 800.513 181.217 804.558 182.088C812.647 183.842 820.736 185.557 828.839 187.231C836.954 188.905 845.084 190.539 853.213 192.132C861.356 193.726 869.512 195.28 877.668 196.78C885.837 198.293 894.02 199.753 902.203 201.172C910.399 202.592 918.609 203.971 926.819 205.311C933.194 206.342 939.582 207.333 945.97 208.311C947.028 208.471 948.1 208.645 949.158 208.806C949.908 208.927 950.671 209.047 951.421 209.154C959.671 210.4 967.921 211.592 976.184 212.743C984.447 213.895 992.71 214.993 1000.97 216.051C1009.26 217.109 1017.55 218.114 1025.86 219.065C1034.13 220.016 1042.42 220.926 1050.71 221.77C1059.04 222.627 1067.37 223.431 1075.7 224.181C1084.05 224.931 1092.39 225.627 1100.74 226.283C1109.09 226.926 1117.45 227.516 1125.82 228.065C1134.19 228.6 1142.56 229.082 1150.93 229.511C1159.31 229.94 1167.7 230.315 1176.08 230.623C1184.48 230.931 1192.86 231.198 1201.26 231.386C1209.66 231.587 1218.07 231.721 1226.46 231.801C1227.95 231.815 1229.45 231.815 1230.94 231.828C1233.12 231.841 1235.32 231.855 1237.5 231.868C1242.23 231.882 1246.96 231.882 1251.7 231.868C1260.11 231.828 1268.53 231.721 1276.94 231.56C1285.37 231.399 1293.78 231.172 1302.2 230.877C1310.6 230.582 1318.99 230.234 1327.38 229.819C1335.8 229.404 1344.23 228.922 1352.65 228.373C1361.07 227.824 1369.5 227.208 1377.92 226.538C1386.35 225.855 1394.77 225.105 1403.18 224.288C1411.39 223.498 1419.6 222.681 1427.81 221.81C1435.98 220.94 1444.15 220.029 1452.3 219.092C1460.43 218.154 1468.56 217.176 1476.68 216.172C1484.77 215.181 1492.86 214.15 1500.95 213.118C1509.01 212.087 1517.06 211.043 1525.12 209.985C1533.16 208.94 1541.18 207.882 1549.21 206.837C1557.22 205.793 1565.23 204.761 1573.24 203.744C1581.23 202.726 1589.22 201.721 1597.21 200.757C1605.19 199.793 1613.18 198.842 1621.16 197.931C1629.13 197.021 1637.11 196.163 1645.08 195.333C1653.05 194.516 1661.01 193.739 1669 193.03C1676.97 192.32 1684.95 191.664 1692.93 191.074C1700.88 190.485 1708.84 189.976 1716.81 189.534C1724.8 189.092 1732.81 188.731 1740.81 188.463C1748.83 188.195 1756.85 188.007 1764.86 187.927C1772.88 187.847 1780.89 187.86 1788.91 187.981C1796.99 188.101 1805.07 188.342 1813.13 188.69C1821.24 189.039 1829.35 189.521 1837.45 190.123C1845.6 190.726 1853.76 191.463 1861.89 192.333C1870.11 193.204 1878.31 194.222 1886.49 195.373C1894.76 196.538 1903.01 197.851 1911.22 199.324C1914.13 199.846 1917.05 200.409 1919.96 200.958V199.927C1916.49 199.271 1913.04 198.614 1909.57 198.012C1901.36 196.579 1893.11 195.28 1884.86 194.141C1876.69 193.003 1868.52 192.012 1860.31 191.155C1852.18 190.311 1844.02 189.588 1835.88 188.998C1827.78 188.409 1819.68 187.954 1811.56 187.619C1803.5 187.284 1795.42 187.056 1787.35 186.949C1779.31 186.842 1771.26 186.842 1763.21 186.936C1755.19 187.03 1747.17 187.231 1739.16 187.512C1731.15 187.793 1723.16 188.168 1715.16 188.61C1707.17 189.065 1699.18 189.588 1691.2 190.177C1683.22 190.766 1675.24 191.436 1667.27 192.159C1659.29 192.882 1651.32 193.659 1643.35 194.489C1635.37 195.32 1627.4 196.19 1619.43 197.101C1611.45 198.012 1603.47 198.963 1595.48 199.94C1587.49 200.918 1579.49 201.922 1571.51 202.94C1563.5 203.958 1555.49 205.003 1547.49 206.047C1539.45 207.092 1531.43 208.15 1523.39 209.194C1515.33 210.239 1507.28 211.284 1499.22 212.315C1491.13 213.346 1483.04 214.364 1474.95 215.355C1466.82 216.346 1458.71 217.324 1450.56 218.261C1442.39 219.199 1434.22 220.109 1426.05 220.967C1417.81 221.837 1409.56 222.641 1401.31 223.431C1392.89 224.234 1384.47 224.971 1376.05 225.641C1367.64 226.31 1359.21 226.913 1350.77 227.449C1342.35 227.984 1333.94 228.453 1325.5 228.868C1317.08 229.27 1308.67 229.618 1300.24 229.899C1291.83 230.181 1283.41 230.395 1274.99 230.556C1266.58 230.716 1258.17 230.797 1249.74 230.837C1247.84 230.837 1245.94 230.837 1244.04 230.837C1241.83 230.837 1239.63 230.837 1237.42 230.837C1233.12 230.823 1228.82 230.797 1224.51 230.743C1216.11 230.649 1207.7 230.502 1199.3 230.301C1190.91 230.1 1182.51 229.832 1174.13 229.511C1165.74 229.19 1157.36 228.815 1148.98 228.373C1140.6 227.931 1132.23 227.449 1123.86 226.899C1115.51 226.35 1107.14 225.748 1098.79 225.105C1090.45 224.449 1082.11 223.739 1073.76 222.989C1065.43 222.225 1057.1 221.422 1048.77 220.551C1040.45 219.694 1032.14 218.77 1023.83 217.806C1015.53 216.842 1007.24 215.824 998.951 214.766C990.688 213.708 982.438 212.596 974.188 211.444C966.916 210.427 959.644 209.355 952.385 208.257C951.408 208.11 950.417 207.976 949.439 207.828C949.332 207.815 949.211 207.788 949.104 207.775C940.975 206.543 932.859 205.257 924.756 203.931C916.547 202.592 908.337 201.199 900.141 199.766C891.958 198.333 883.775 196.86 875.605 195.346C867.449 193.833 859.293 192.28 851.151 190.672C843.021 189.079 834.905 187.431 826.789 185.757C818.687 184.083 810.598 182.356 802.522 180.601C798.491 179.717 794.46 178.78 790.415 177.936C786.33 177.079 782.246 176.249 778.161 175.405C769.991 173.717 761.822 172.03 753.652 170.343C745.469 168.655 737.3 166.968 729.117 165.307C720.934 163.633 712.738 161.986 704.542 160.338C696.332 158.704 688.122 157.084 679.913 155.49C671.703 153.896 663.507 152.343 655.284 150.816C647.021 149.289 638.757 147.789 630.494 146.343C622.432 144.923 614.356 143.557 606.28 142.231C606.053 142.191 605.825 142.151 605.597 142.124C604.887 142.004 604.164 141.897 603.454 141.776C595.834 140.544 588.214 139.339 580.593 138.187C572.223 136.928 563.839 135.723 555.455 134.598C547.045 133.459 538.621 132.388 530.197 131.397C521.76 130.392 513.309 129.455 504.858 128.598C496.407 127.741 487.943 126.964 479.479 126.254C471.002 125.544 462.524 124.915 454.047 124.352C445.556 123.79 437.065 123.294 428.56 122.852C420.056 122.424 411.552 122.049 403.048 121.727C394.53 121.406 386.012 121.151 377.494 120.937C368.977 120.723 360.446 120.576 351.915 120.455C343.383 120.348 334.852 120.281 326.321 120.254C317.79 120.227 309.259 120.254 300.728 120.294C292.197 120.348 283.666 120.428 275.135 120.535C266.604 120.643 258.073 120.79 249.542 120.951C241.01 121.111 232.493 121.299 223.962 121.5C215.444 121.701 206.926 121.928 198.409 122.156C189.904 122.384 181.387 122.638 172.882 122.893C164.592 123.134 156.316 123.388 148.026 123.696C140.07 123.991 132.102 124.352 124.147 124.767C116.432 125.169 108.732 125.651 101.018 126.201C93.5043 126.736 85.9911 127.366 78.4912 128.075C71.1253 128.785 63.7594 129.575 56.4068 130.486C49.1346 131.383 41.8759 132.388 34.6305 133.499C27.3984 134.611 20.1798 135.843 12.988 137.209C5.76939 138.575 -1.43582 140.062 -8.61426 141.682V142.727C-7.98481 142.58 -7.35535 142.432 -6.71251 142.285C0.479318 140.678 7.68454 139.205 14.9299 137.865L14.9969 137.892Z" fill="#6BA3B7"/>
</g>
<defs>
<clipPath id="clip0_32_948">
<rect width="1928.53" height="247.187" fill="white" transform="translate(-8.53418 0.886108)"/>
</clipPath>
</defs>
</svg>
