<svg style="width: auto; height: 100%;" viewBox="0 0 76 670" fill="none" xmlns="http://www.w3.org/2000/svg">
<path d="M-0.000350952 619.994L7.21965 625.74L-0.000350952 631.486L1.23965 633.06L6.55965 628.828L0.46965 644.532L2.32965 645.254L7.81965 631.085V777.025H111.62V753.009C111.7 752.147 111.75 751.274 111.75 750.392C111.75 749.51 111.7 748.637 111.62 747.775V627.625L112.01 625.73L111.62 625.65V625.078L112.14 624.968L111.62 622.441V459.353C111.7 458.491 111.75 457.619 111.75 456.736C111.75 455.854 111.7 454.981 111.62 454.119V333.969L112.01 332.074L111.62 331.994V331.422L112.14 331.312L111.62 328.785V166.069C111.7 165.206 111.75 164.334 111.75 163.451C111.75 162.569 111.7 161.697 111.62 160.834V40.6846L112.01 38.7894L111.62 38.7092V38.1376L112.14 38.0273L111.62 35.5004V-105.035H7.82965V33.4247L2.33965 19.2558L0.479645 19.9778L6.56965 35.6909L1.24965 31.4593L0.00965118 33.0336L7.22964 38.7794L0.00965118 44.5251L1.24965 46.0995L6.56965 41.8678L0.479645 57.581L2.33965 58.3029L7.82965 44.134V326.699L2.33965 312.531L0.479645 313.253L6.56965 328.956L1.24965 324.724L0.00965118 326.298L7.22964 332.044L0.00965118 337.79L1.24965 339.364L6.56965 335.133L0.479645 350.836L2.33965 351.558L7.82965 337.389V620.385L2.33965 606.216L0.479645 606.938L6.56965 622.652L1.24965 618.42L0.00965118 619.994H-0.000350952ZM109.62 524.703H100.45C102.47 523.78 104.35 522.497 105.93 520.882C107.46 519.328 108.7 517.493 109.63 515.477V524.703H109.62ZM109.62 627.435L90.8096 718.474C90.1396 721.703 88.0496 723.789 85.4696 723.789C82.8996 723.789 80.7997 721.713 80.1297 718.495L63.3996 638.535L65.9996 645.244L67.8596 644.522L61.7696 628.818L67.0896 633.05L68.3296 631.476L61.1096 625.73L68.3296 619.984L67.0896 618.41L61.7696 622.641L67.8596 606.928L65.9996 606.206L63.3396 613.075L80.2596 532.213C80.9296 528.995 83.0296 526.919 85.5996 526.919C88.1796 526.919 90.2796 529.005 90.9396 532.233L109.62 622.652V627.425V627.435ZM109.62 752.929C108.35 765.243 97.9496 774.879 85.3396 774.879C71.8797 774.879 60.9296 763.899 60.9296 750.402C60.9296 736.905 71.8797 725.925 85.3396 725.925C97.9496 725.925 108.36 735.561 109.62 747.875V752.929ZM24.5396 509.511C24.5897 508.338 24.9996 506.663 26.6596 505.35C29.0496 503.464 32.9497 503.374 35.7197 505.129C38.3297 506.784 39.9296 509.942 39.8096 513.171C39.6196 518.105 35.4097 522.777 30.0097 524.031C24.8797 525.224 18.8496 523.389 14.9996 519.468C11.4097 515.808 9.54964 510.373 10.0296 504.928C10.6996 497.328 15.8196 490.248 23.0696 486.869C29.0497 484.081 36.0196 483.861 41.4196 483.981C47.9296 484.121 71.5596 484.121 78.0596 483.981C83.4596 483.861 90.4296 484.081 96.4196 486.869C103.67 490.238 108.79 497.328 109.46 504.928C109.94 510.383 108.08 515.818 104.49 519.468C100.64 523.389 94.6096 525.214 89.4796 524.031C84.0796 522.777 79.8696 518.105 79.6796 513.171C79.5597 509.932 81.1596 506.774 83.7696 505.129C86.5396 503.374 90.4396 503.464 92.8296 505.35C94.4996 506.663 94.9096 508.338 94.9496 509.511C95.0396 511.637 94.0396 513.933 92.3496 515.508L93.7096 516.982C95.8196 515.016 97.0596 512.128 96.9496 509.431C96.8596 507.145 95.8596 505.189 94.0596 503.775C90.9896 501.359 86.2096 501.218 82.6996 503.444C79.4996 505.47 77.5296 509.321 77.6796 513.261C77.8596 517.934 81.0496 522.396 85.5496 524.713H33.9296C38.4296 522.396 41.6197 517.934 41.7997 513.261C41.9497 509.331 39.9796 505.47 36.7796 503.444C33.2696 501.218 28.4896 501.359 25.4196 503.775C23.6296 505.189 22.6296 507.145 22.5296 509.431C22.4196 512.128 23.6596 515.016 25.7696 516.982L27.1296 515.508C25.4396 513.933 24.4397 511.637 24.5296 509.511H24.5396ZM58.8196 526.708V614.83L41.6696 531.832C41.2197 529.676 40.2496 527.912 38.9296 526.708H58.8196ZM58.8196 725.795V740.505C56.1196 733.817 50.7796 728.472 44.0996 725.795H58.8196ZM39.2296 723.789C40.4396 722.596 41.3297 720.911 41.7496 718.876L58.8096 636.279V723.789H39.2296ZM60.8196 725.795H75.5696C68.8696 728.482 63.5096 733.847 60.8196 740.565V725.795ZM60.8196 723.789V636.038L78.1596 718.906C78.5796 720.921 79.4697 722.596 80.6796 723.789H60.8196ZM34.3596 526.919C36.9397 526.919 39.0396 529.005 39.6996 532.233L57.2696 617.257L52.9796 606.206L51.1196 606.928L57.2096 622.641L51.8896 618.41L50.6496 619.984L57.8696 625.73L50.6496 631.476L51.8896 633.05L57.2096 628.818L51.1196 644.522L52.9796 645.244L57.1096 634.594L39.7796 718.464C39.1096 721.693 37.0197 723.779 34.4397 723.779C31.8697 723.779 29.7696 721.703 29.0996 718.484L11.9496 636.54L15.3196 645.233L17.1796 644.512L11.0896 628.808L16.4096 633.04L17.6497 631.466L10.4296 625.72L17.6497 619.974L16.4096 618.4L11.0896 622.631L17.1796 606.918L15.3196 606.196L11.4296 616.234L29.0196 532.203C29.6896 528.984 31.7896 526.909 34.3596 526.909V526.919ZM27.1396 718.906C27.5596 720.921 28.4496 722.596 29.6596 723.789H9.82965V636.149L27.1497 718.906H27.1396ZM9.81965 725.795H24.5396C17.8596 728.472 12.5097 733.817 9.81965 740.505V725.795ZM34.3196 725.915C47.7796 725.915 58.7296 736.895 58.7296 750.392C58.7296 763.889 47.7796 774.879 34.3196 774.879C20.8596 774.879 9.90965 763.899 9.90965 750.402C9.90965 736.905 20.8596 725.925 34.3196 725.925V725.915ZM58.8196 760.289V775.02H44.0396C50.7496 772.352 56.1196 766.998 58.8196 760.289ZM60.8196 760.229C63.5196 766.968 68.8896 772.342 75.6297 775.02H60.8196V760.229ZM78.2896 531.802L60.8196 615.291V526.708H81.0296C79.7096 527.912 78.7397 529.656 78.2896 531.802ZM109.62 497.679C107.25 492.274 102.85 487.651 97.2796 485.064C96.3396 484.623 95.3796 484.252 94.4096 483.931H109.62V497.679ZM22.2396 485.064C16.6096 487.681 12.1796 492.364 9.82965 497.849V483.931H25.1596C24.1796 484.262 23.1996 484.623 22.2496 485.064H22.2396ZM13.5896 520.882C15.1696 522.487 17.0396 523.77 19.0696 524.703H9.82965V515.317C10.7597 517.393 12.0296 519.288 13.5996 520.882H13.5896ZM9.81965 526.708H29.7896C28.4697 527.912 27.4996 529.656 27.0497 531.802L9.80965 614.168V526.708H9.81965ZM9.81965 760.289C12.5196 766.998 17.8896 772.352 24.5996 775.02H9.81965V760.289ZM109.62 775.02H95.0496C101.59 772.412 106.85 767.278 109.62 760.811V775.02ZM95.1096 725.795H109.62V739.983C106.86 733.536 101.62 728.412 95.1096 725.795ZM109.62 723.789H90.2496C91.4596 722.596 92.3496 720.911 92.7696 718.876L109.62 637.322V723.789ZM92.8996 531.832C92.4496 529.676 91.4796 527.912 90.1596 526.708H109.62V612.774L92.8996 531.832ZM109.62 231.057H100.45C102.47 230.134 104.35 228.851 105.93 227.236C107.46 225.682 108.7 223.847 109.63 221.832V231.057H109.62ZM109.62 333.789L90.8096 424.829C90.1396 428.058 88.0496 430.143 85.4696 430.143C82.8996 430.143 80.7997 428.068 80.1297 424.849L63.3996 344.889L65.9996 351.598L67.8596 350.876L61.7696 335.173L67.0896 339.404L68.3296 337.83L61.1096 332.084L68.3296 326.338L67.0896 324.764L61.7696 328.996L67.8596 313.293L65.9996 312.571L63.3396 319.439L80.2596 238.578C80.9296 235.359 83.0296 233.283 85.5996 233.283C88.1796 233.283 90.2796 235.369 90.9396 238.598L109.62 329.016V333.789ZM109.62 459.283C108.35 471.597 97.9496 481.233 85.3396 481.233C71.8797 481.233 60.9296 470.253 60.9296 456.756C60.9296 443.259 71.8797 432.279 85.3396 432.279C97.9496 432.279 108.36 441.916 109.62 454.229V459.283ZM60.8196 481.374V466.583C63.5196 473.322 68.8896 478.697 75.6297 481.374H60.8196ZM29.0996 424.849L11.9496 342.904L15.3196 351.598L17.1796 350.876L11.0896 335.173L16.4096 339.404L17.6497 337.83L10.4296 332.084L17.6497 326.338L16.4096 324.764L11.0896 328.996L17.1796 313.293L15.3196 312.571L11.4296 322.608L29.0196 238.578C29.6896 235.359 31.7896 233.283 34.3596 233.283C36.9397 233.283 39.0396 235.369 39.6996 238.598L57.2696 323.621L52.9796 312.571L51.1196 313.293L57.2096 328.996L51.8896 324.764L50.6496 326.338L57.8696 332.084L50.6496 337.83L51.8896 339.404L57.2096 335.173L51.1196 350.876L52.9796 351.598L57.1096 340.949L39.7796 424.819C39.1096 428.048 37.0197 430.133 34.4397 430.133C31.8697 430.133 29.7696 428.058 29.0996 424.839V424.849ZM24.5396 215.865C24.5897 214.692 24.9996 213.017 26.6596 211.704C29.0496 209.819 32.9497 209.728 35.7197 211.483C38.3297 213.138 39.9296 216.296 39.8096 219.525C39.6196 224.459 35.4097 229.132 30.0097 230.385C24.8797 231.568 18.8496 229.743 14.9996 225.823C11.4097 222.163 9.54964 216.728 10.0296 211.283C10.6996 203.682 15.8196 196.602 23.0696 193.223C29.0497 190.435 36.0197 190.215 41.4296 190.335C47.9397 190.476 71.5696 190.476 78.0696 190.335C83.4696 190.215 90.4396 190.435 96.4196 193.223C103.67 196.592 108.79 203.682 109.46 211.283C109.94 216.738 108.08 222.173 104.49 225.823C100.64 229.743 94.6096 231.568 89.4796 230.385C84.0796 229.132 79.8696 224.459 79.6796 219.525C79.5597 216.286 81.1596 213.128 83.7696 211.483C86.5396 209.728 90.4396 209.819 92.8296 211.704C94.4996 213.017 94.9096 214.692 94.9496 215.865C95.0396 217.991 94.0396 220.287 92.3496 221.862L93.7096 223.336C95.8196 221.37 97.0596 218.482 96.9496 215.785C96.8596 213.499 95.8596 211.543 94.0596 210.13C90.9896 207.713 86.2096 207.573 82.6996 209.799C79.4996 211.824 77.5296 215.675 77.6796 219.616C77.8596 224.288 81.0496 228.751 85.5496 231.067H33.9296C38.4296 228.751 41.6197 224.288 41.7997 219.616C41.9497 215.685 39.9796 211.824 36.7796 209.799C33.2696 207.573 28.4896 207.713 25.4196 210.13C23.6296 211.543 22.6296 213.499 22.5296 215.785C22.4196 218.482 23.6596 221.37 25.7696 223.336L27.1296 221.862C25.4396 220.287 24.4397 217.991 24.5296 215.865H24.5396ZM58.8196 233.062V321.184L41.6696 238.187C41.2197 236.031 40.2496 234.266 38.9296 233.062H58.8196ZM60.8196 430.143V342.392L78.1596 425.26C78.5796 427.275 79.4697 428.95 80.6796 430.143H60.8196ZM75.5596 432.149C68.8596 434.836 63.4996 440.201 60.8096 446.919V432.149H75.5596ZM58.8196 430.143H39.2396C40.4496 428.95 41.3397 427.265 41.7597 425.23L58.8196 342.633V430.143ZM58.7296 456.756C58.7296 470.253 47.7796 481.233 34.3196 481.233C20.8596 481.233 9.90965 470.253 9.90965 456.756C9.90965 443.259 20.8596 432.279 34.3196 432.279C47.7796 432.279 58.7296 443.259 58.7296 456.756ZM44.0896 432.149H58.8096V446.859C56.1096 440.171 50.7696 434.826 44.0896 432.149ZM78.2896 238.156L60.8196 321.646V233.062H81.0296C79.7096 234.266 78.7397 236.011 78.2896 238.156ZM109.62 204.033C107.25 198.628 102.85 194.005 97.2796 191.418C96.3396 190.977 95.3796 190.606 94.4096 190.285H109.62V204.033ZM22.2396 191.418C16.6096 194.035 12.1796 198.718 9.82965 204.203V190.285H25.1596C24.1796 190.616 23.1996 190.977 22.2496 191.418H22.2396ZM13.5896 227.236C15.1696 228.841 17.0497 230.124 19.0696 231.057H9.82965V221.671C10.7597 223.747 12.0296 225.642 13.5996 227.236H13.5896ZM9.81965 233.062H29.7896C28.4697 234.266 27.4996 236.011 27.0497 238.156L9.80965 320.522V233.062H9.81965ZM27.1396 425.27C27.5596 427.285 28.4496 428.96 29.6596 430.153H9.82965V342.513L27.1497 425.27H27.1396ZM9.81965 432.149H24.5396C17.8596 434.826 12.5097 440.171 9.81965 446.859V432.149ZM9.81965 466.643C12.5196 473.352 17.8896 478.707 24.5996 481.374H9.81965V466.643ZM58.8196 466.643V481.374H44.0396C50.7496 478.707 56.1196 473.352 58.8196 466.643ZM109.62 481.374H95.0496C101.59 478.767 106.85 473.633 109.62 467.165V481.374ZM95.1096 432.149H109.62V446.338C106.86 439.89 101.62 434.766 95.1096 432.149ZM109.62 430.143H90.2496C91.4596 428.95 92.3496 427.265 92.7696 425.23L109.62 343.676V430.153V430.143ZM92.8996 238.187C92.4496 236.031 91.4796 234.266 90.1596 233.062H109.62V319.129L92.8996 238.187ZM41.4296 -102.929C47.9397 -102.789 71.5696 -102.789 78.0696 -102.929C83.4696 -103.05 90.4396 -102.829 96.4196 -100.042C103.67 -96.6723 108.79 -89.5829 109.46 -81.9821C109.94 -76.5271 108.08 -71.0922 104.49 -67.4422C100.64 -63.5214 94.6096 -61.6964 89.4796 -62.8896C84.0796 -64.1431 79.8696 -68.8059 79.6796 -73.7494C79.5597 -76.9883 81.1596 -80.147 83.7696 -81.7915C86.5396 -83.5463 90.4396 -83.4561 92.8296 -81.5709C94.4996 -80.2573 94.9096 -78.5827 94.9496 -77.4095C95.0396 -75.2836 94.0396 -72.9873 92.3496 -71.413L93.7096 -69.939C95.8196 -71.9044 97.0596 -74.7923 96.9496 -77.4897C96.8596 -79.776 95.8596 -81.7313 94.0596 -83.1452C90.9896 -85.5719 86.2096 -85.7123 82.6996 -83.4762C79.4996 -81.4506 77.5296 -77.6 77.6796 -73.6591C77.8596 -68.9863 81.0496 -64.5241 85.5496 -62.2078H33.9296C38.4296 -64.5241 41.6197 -68.9863 41.7997 -73.6591C41.9497 -77.5899 39.9796 -81.4506 36.7796 -83.4762C33.2696 -85.7022 28.4896 -85.5618 25.4196 -83.1452C23.6296 -81.7313 22.6296 -79.776 22.5296 -77.4897C22.4196 -74.7923 23.6596 -71.9044 25.7696 -69.939L27.1296 -71.413C25.4396 -72.9873 24.4397 -75.2836 24.5296 -77.4095C24.5797 -78.5827 24.9896 -80.2573 26.6497 -81.5709C29.0396 -83.4561 32.9397 -83.5463 35.7096 -81.7915C38.3196 -80.137 39.9197 -76.9783 39.7997 -73.7494C39.6096 -68.8159 35.3997 -64.1431 29.9996 -62.8896C24.8697 -61.6964 18.8396 -63.5314 14.9896 -67.4422C11.3997 -71.1022 9.53964 -76.5371 10.0196 -81.9821C10.6896 -89.5829 15.8096 -96.6622 23.0596 -100.042C29.0396 -102.819 36.0096 -103.05 41.4196 -102.929H41.4296ZM109.62 -62.2178H100.45C102.47 -63.1403 104.35 -64.4238 105.93 -66.0383C107.46 -67.5925 108.7 -69.4276 109.63 -71.4431V-62.2178H109.62ZM109.62 40.5141L90.8096 131.554C90.1396 134.783 88.0496 136.869 85.4696 136.869C82.8996 136.869 80.7997 134.793 80.1297 131.574L63.3996 51.6146L65.9996 58.323L67.8596 57.601L61.7696 41.8879L67.0896 46.1195L68.3296 44.5452L61.1096 38.7994L68.3296 33.0536L67.0896 31.4794L61.7696 35.7109L67.8596 19.9978L65.9996 19.2759L63.3396 26.1447L80.2596 -54.7172C80.9296 -57.9361 83.0296 -60.0117 85.5996 -60.0117C88.1796 -60.0117 90.2796 -57.926 90.9396 -54.6972L109.62 35.7209V40.4941V40.5141ZM109.62 166.008C108.35 178.322 97.9496 187.959 85.3396 187.959C71.8797 187.959 60.9296 176.979 60.9296 163.482C60.9296 149.985 71.8797 139.004 85.3396 139.004C97.9496 139.004 108.36 148.641 109.62 160.955V166.008ZM60.8196 188.099V173.309C63.5196 180.047 68.8896 185.422 75.6297 188.099H60.8196ZM29.0996 131.584L11.9496 49.6391L15.3196 58.3331L17.1796 57.611L11.0896 41.8979L16.4096 46.1295L17.6497 44.5552L10.4296 38.8094L17.6497 33.0637L16.4096 31.4894L11.0896 35.7209L17.1796 20.0079L15.3196 19.2859L11.4296 29.3234L29.0196 -54.7072C29.6896 -57.926 31.7896 -60.0017 34.3596 -60.0017C36.9397 -60.0017 39.0396 -57.916 39.6996 -54.6871L57.2696 30.3362L52.9796 19.2859L51.1196 20.0079L57.2096 35.7209L51.8896 31.4894L50.6496 33.0637L57.8696 38.8094L50.6496 44.5552L51.8896 46.1295L57.2096 41.8979L51.1196 57.611L52.9796 58.3331L57.1096 47.6838L39.7796 131.554C39.1096 134.783 37.0197 136.869 34.4397 136.869C31.8697 136.869 29.7696 134.793 29.0996 131.574V131.584ZM60.8196 136.879V49.1277L78.1596 131.995C78.5796 134.021 79.4697 135.685 80.6796 136.879H60.8196ZM75.5596 138.884C68.8596 141.571 63.4996 146.936 60.8096 153.655V138.884H75.5596ZM58.8196 136.879H39.2396C40.4496 135.685 41.3397 134.001 41.7597 131.965L58.8196 49.3685V136.879ZM38.9296 -60.2123H58.8196V27.9095L41.6696 -55.0882C41.2197 -57.2442 40.2496 -58.999 38.9296 -60.2123ZM58.7296 163.482C58.7296 176.979 47.7796 187.959 34.3196 187.959C20.8596 187.959 9.90965 176.979 9.90965 163.482C9.90965 149.985 20.8596 139.004 34.3196 139.004C47.7796 139.004 58.7296 149.985 58.7296 163.482ZM44.0896 138.884H58.8096V153.594C56.1096 146.906 50.7696 141.561 44.0896 138.884ZM78.2896 -55.1082L60.8196 28.3808V-60.2022H81.0296C79.7096 -58.9989 78.7397 -57.2542 78.2896 -55.1082ZM13.5896 -66.0282C15.1696 -64.4238 17.0497 -63.1403 19.0696 -62.2078H9.82965V-71.5935C10.7597 -69.5178 12.0296 -67.6226 13.5996 -66.0282H13.5896ZM9.81965 -60.2123H29.7896C28.4697 -59.009 27.4996 -57.2642 27.0497 -55.1183L9.80965 27.2477V-60.2123H9.81965ZM27.1396 131.995C27.5596 134.021 28.4496 135.685 29.6596 136.879H9.82965V49.2381L27.1497 131.995H27.1396ZM9.81965 138.884H24.5396C17.8596 141.561 12.5097 146.906 9.81965 153.594V138.884ZM9.81965 173.369C12.5196 180.077 17.8896 185.432 24.5996 188.099H9.81965V173.369ZM58.8196 173.369V188.099H44.0396C50.7496 185.432 56.1196 180.077 58.8196 173.369ZM109.62 188.099H95.0496C101.59 185.492 106.85 180.358 109.62 173.89V188.099ZM95.1096 138.884H109.62V153.073C106.86 146.625 101.62 141.501 95.1096 138.884ZM109.62 136.879H90.2496C91.4596 135.685 92.3496 134.001 92.7696 131.965L109.62 50.4012V136.879ZM92.8996 -55.0882C92.4496 -57.2442 91.4796 -58.999 90.1596 -60.2123H109.62V25.8539L92.8996 -55.0882ZM109.62 -89.242C107.25 -94.6468 102.85 -99.2694 97.2796 -101.857C96.3296 -102.298 95.3496 -102.659 94.3696 -102.99H109.62V-89.242ZM25.1096 -102.99C24.1396 -102.669 23.1796 -102.298 22.2396 -101.857C16.6096 -99.2393 12.1796 -94.5565 9.82965 -89.0714V-102.99H25.1096Z" fill="#F3E2D8"/>
</svg>
