<svg style="width: auto; height: 100%;" viewBox="0 0 84 668" fill="none" xmlns="http://www.w3.org/2000/svg">
<path d="M84.14 43.8532L76.92 38.1232L84.14 32.3932L82.9 30.8232L77.58 35.0432L83.67 19.3832L81.81 18.6632L76.32 32.7932V-112.747H-27.48V-88.7968C-27.56 -87.9368 -27.61 -87.0668 -27.61 -86.1868C-27.61 -85.3068 -27.56 -84.4368 -27.48 -83.5768V36.2432L-27.87 38.1332L-27.48 38.2132V38.7832L-28 38.8932L-27.48 41.4132V204.053C-27.56 204.913 -27.61 205.783 -27.61 206.663C-27.61 207.543 -27.56 208.413 -27.48 209.273V329.093L-27.87 330.983L-27.48 331.063V331.633L-28 331.743L-27.48 334.263V496.533C-27.56 497.393 -27.61 498.263 -27.61 499.143C-27.61 500.023 -27.56 500.893 -27.48 501.753V621.573L-27.87 623.463L-27.48 623.543V624.113L-28 624.223L-27.48 626.743V766.893H76.31V628.813L81.8 642.943L83.66 642.223L77.57 626.553L82.89 630.773L84.13 629.203L76.91 623.473L84.13 617.743L82.89 616.173L77.57 620.393L83.66 604.723L81.8 604.003L76.31 618.133V336.343L81.8 350.473L83.66 349.753L77.57 334.093L82.89 338.313L84.13 336.743L76.91 331.013L84.13 325.283L82.89 323.713L77.57 327.933L83.66 312.273L81.8 311.553L76.31 325.683V43.4632L81.8 57.5932L83.66 56.8732L77.57 41.2032L82.89 45.4232L84.13 43.8532H84.14ZM-25.48 138.883H-16.31C-18.33 139.803 -20.21 141.083 -21.79 142.693C-23.32 144.243 -24.56 146.073 -25.49 148.083V138.883H-25.48ZM-25.48 36.4332L-6.67 -54.3568C-6 -57.5768 -3.91 -59.6568 -1.33 -59.6568C1.24 -59.6568 3.34 -57.5868 4.01 -54.3768L20.74 25.3632L18.14 18.6732L16.28 19.3932L22.37 35.0532L17.05 30.8332L15.81 32.4032L23.03 38.1332L15.81 43.8632L17.05 45.4332L22.37 41.2132L16.28 56.8832L18.14 57.6032L20.8 50.7532L3.88 131.393C3.21 134.603 1.11 136.673 -1.46 136.673C-4.04 136.673 -6.14 134.593 -6.8 131.373L-25.48 41.2032V36.4432V36.4332ZM-25.48 -88.7168C-24.21 -100.997 -13.81 -110.607 -1.2 -110.607C12.26 -110.607 23.21 -99.6568 23.21 -86.1968C23.21 -72.7368 12.26 -61.7868 -1.2 -61.7868C-13.81 -61.7868 -24.22 -71.3968 -25.48 -83.6768V-88.7168ZM59.6 154.033C59.55 155.203 59.14 156.873 57.48 158.183C55.09 160.063 51.19 160.153 48.42 158.403C45.81 156.753 44.21 153.603 44.33 150.383C44.52 145.463 48.73 140.803 54.13 139.553C59.26 138.363 65.29 140.193 69.14 144.103C72.73 147.753 74.59 153.173 74.11 158.603C73.44 166.183 68.32 173.243 61.07 176.613C55.09 179.393 48.12 179.613 42.72 179.493C36.21 179.353 12.58 179.353 6.08 179.493C0.680002 179.613 -6.29 179.393 -12.28 176.613C-19.53 173.253 -24.65 166.183 -25.32 158.603C-25.8 153.163 -23.94 147.743 -20.35 144.103C-16.5 140.193 -10.47 138.373 -5.34 139.553C0.0599995 140.803 4.27 145.463 4.46 150.383C4.58 153.613 2.98 156.763 0.370001 158.403C-2.4 160.153 -6.3 160.063 -8.69 158.183C-10.36 156.873 -10.77 155.203 -10.81 154.033C-10.9 151.913 -9.9 149.623 -8.21 148.053L-9.57 146.583C-11.68 148.543 -12.92 151.423 -12.81 154.113C-12.72 156.393 -11.72 158.343 -9.92 159.753C-6.85 162.163 -2.07 162.303 1.44 160.083C4.64 158.063 6.61 154.223 6.46 150.293C6.28 145.633 3.09 141.183 -1.41 138.873H50.21C45.71 141.183 42.52 145.633 42.34 150.293C42.19 154.213 44.16 158.063 47.36 160.083C50.87 162.303 55.65 162.163 58.72 159.753C60.51 158.343 61.51 156.393 61.61 154.113C61.72 151.423 60.48 148.543 58.37 146.583L57.01 148.053C58.7 149.623 59.7 151.913 59.61 154.033H59.6ZM25.32 136.883V49.0032L42.47 131.773C42.92 133.923 43.89 135.683 45.21 136.883H25.32ZM25.32 -61.6568V-76.3268C28.02 -69.6568 33.36 -64.3268 40.04 -61.6568H25.32ZM44.91 -59.6568C43.7 -58.4668 42.81 -56.7868 42.39 -54.7568L25.33 27.6132V-59.6568H44.91ZM23.32 -61.6568H8.57C15.27 -64.3368 20.63 -69.6868 23.32 -76.3868V-61.6568ZM23.32 -59.6568V27.8532L5.98 -54.7868C5.56 -56.7968 4.67 -58.4668 3.46 -59.6568H23.32ZM49.78 136.673C47.2 136.673 45.1 134.593 44.44 131.373L26.87 46.5832L31.16 57.6032L33.02 56.8832L26.93 41.2132L32.25 45.4332L33.49 43.8632L26.27 38.1332L33.49 32.4032L32.25 30.8332L26.93 35.0532L33.02 19.3932L31.16 18.6732L27.03 29.2932L44.36 -54.3468C45.03 -57.5668 47.12 -59.6468 49.7 -59.6468C52.27 -59.6468 54.37 -57.5768 55.04 -54.3668L72.19 27.3532L68.82 18.6832L66.96 19.4032L73.05 35.0632L67.73 30.8432L66.49 32.4132L73.71 38.1432L66.49 43.8732L67.73 45.4432L73.05 41.2232L66.96 56.8932L68.82 57.6132L72.71 47.6032L55.12 131.403C54.45 134.613 52.35 136.683 49.78 136.683V136.673ZM57 -54.7868C56.58 -56.7968 55.69 -58.4668 54.48 -59.6568H74.31V27.7432L56.99 -54.7868H57ZM74.32 -61.6568H59.6C66.28 -64.3268 71.63 -69.6568 74.32 -76.3268V-61.6568ZM49.82 -61.7768C36.36 -61.7768 25.41 -72.7268 25.41 -86.1868C25.41 -99.6468 36.36 -110.607 49.82 -110.607C63.28 -110.607 74.23 -99.6568 74.23 -86.1968C74.23 -72.7368 63.28 -61.7868 49.82 -61.7868V-61.7768ZM25.32 -96.0568V-110.747H40.1C33.39 -108.087 28.02 -102.747 25.32 -96.0568ZM23.32 -95.9968C20.62 -102.717 15.25 -108.077 8.51 -110.747H23.32V-95.9968ZM5.85 131.803L23.32 48.5432V136.883H3.11C4.43 135.683 5.4 133.943 5.85 131.803ZM-25.48 165.833C-23.11 171.223 -18.71 175.833 -13.14 178.413C-12.2 178.853 -11.24 179.223 -10.27 179.543H-25.48V165.833ZM61.9 178.413C67.53 175.803 71.96 171.133 74.31 165.663V179.543H58.98C59.96 179.213 60.94 178.853 61.89 178.413H61.9ZM70.55 142.693C68.97 141.093 67.1 139.813 65.07 138.883H74.31V148.243C73.38 146.173 72.11 144.283 70.54 142.693H70.55ZM74.32 136.883H54.35C55.67 135.683 56.64 133.943 57.09 131.803L74.33 49.6632V136.883H74.32ZM74.32 -96.0568C71.62 -102.747 66.25 -108.087 59.54 -110.747H74.32V-96.0568ZM-25.48 -110.747H-10.91C-17.45 -108.147 -22.71 -103.027 -25.48 -96.5768V-110.747ZM-10.97 -61.6568H-25.48V-75.8068C-22.72 -69.3768 -17.48 -64.2668 -10.97 -61.6568ZM-25.48 -59.6568H-6.11C-7.32 -58.4668 -8.21 -56.7868 -8.63 -54.7568L-25.48 26.5732V-59.6568ZM-8.76 131.773C-8.31 133.923 -7.34 135.683 -6.02 136.883H-25.48V51.0532L-8.76 131.773ZM-25.48 431.723H-16.31C-18.33 432.643 -20.21 433.923 -21.79 435.533C-23.32 437.083 -24.56 438.913 -25.49 440.923V431.723H-25.48ZM-25.48 329.273L-6.67 238.483C-6 235.263 -3.91 233.183 -1.33 233.183C1.24 233.183 3.34 235.253 4.01 238.463L20.74 318.203L18.14 311.513L16.28 312.233L22.37 327.893L17.05 323.673L15.81 325.243L23.03 330.973L15.81 336.703L17.05 338.273L22.37 334.053L16.28 349.713L18.14 350.433L20.8 343.583L3.88 424.223C3.21 427.433 1.11 429.503 -1.46 429.503C-4.04 429.503 -6.14 427.423 -6.8 424.203L-25.48 334.033V329.273ZM-25.48 204.123C-24.21 191.843 -13.81 182.233 -1.2 182.233C12.26 182.233 23.21 193.183 23.21 206.643C23.21 220.103 12.26 231.053 -1.2 231.053C-13.81 231.053 -24.22 221.443 -25.48 209.163V204.123ZM23.32 182.093V196.843C20.62 190.123 15.25 184.763 8.51 182.093H23.32ZM55.04 238.463L72.19 320.183L68.82 311.513L66.96 312.233L73.05 327.893L67.73 323.673L66.49 325.243L73.71 330.973L66.49 336.703L67.73 338.273L73.05 334.053L66.96 349.713L68.82 350.433L72.71 340.423L55.12 424.223C54.45 427.433 52.35 429.503 49.78 429.503C47.2 429.503 45.1 427.423 44.44 424.203L26.87 339.413L31.16 350.433L33.02 349.713L26.93 334.053L32.25 338.273L33.49 336.703L26.27 330.973L33.49 325.243L32.25 323.673L26.93 327.893L33.02 312.233L31.16 311.513L27.03 322.133L44.36 238.493C45.03 235.273 47.12 233.193 49.7 233.193C52.27 233.193 54.37 235.263 55.04 238.473V238.463ZM59.6 446.873C59.55 448.043 59.14 449.713 57.48 451.023C55.09 452.903 51.19 452.993 48.42 451.243C45.81 449.593 44.21 446.443 44.33 443.223C44.52 438.303 48.73 433.643 54.13 432.393C59.26 431.213 65.29 433.033 69.14 436.943C72.73 440.593 74.59 446.013 74.11 451.443C73.44 459.023 68.32 466.083 61.07 469.453C55.09 472.233 48.12 472.453 42.71 472.333C36.2 472.193 12.57 472.193 6.07 472.333C0.67 472.453 -6.3 472.233 -12.28 469.453C-19.53 466.093 -24.65 459.023 -25.32 451.443C-25.8 446.003 -23.94 440.583 -20.35 436.943C-16.5 433.033 -10.47 431.213 -5.34 432.393C0.0599995 433.643 4.27 438.303 4.46 443.223C4.58 446.453 2.98 449.603 0.370001 451.243C-2.4 452.993 -6.3 452.903 -8.69 451.023C-10.36 449.713 -10.77 448.043 -10.81 446.873C-10.9 444.753 -9.9 442.463 -8.21 440.893L-9.57 439.423C-11.68 441.383 -12.92 444.263 -12.81 446.953C-12.72 449.233 -11.72 451.183 -9.92 452.593C-6.85 455.003 -2.07 455.143 1.44 452.923C4.64 450.903 6.61 447.063 6.46 443.133C6.28 438.473 3.09 434.023 -1.41 431.713H50.21C45.71 434.023 42.52 438.473 42.34 443.133C42.19 447.053 44.16 450.903 47.36 452.923C50.87 455.143 55.65 455.003 58.72 452.593C60.51 451.183 61.51 449.233 61.61 446.953C61.72 444.263 60.48 441.383 58.37 439.423L57.01 440.893C58.7 442.463 59.7 444.753 59.61 446.873H59.6ZM25.32 429.723V341.843L42.47 424.613C42.92 426.763 43.89 428.523 45.21 429.723H25.32ZM23.32 233.183V320.693L5.98 238.053C5.56 236.043 4.67 234.373 3.46 233.183H23.32ZM8.58 231.183C15.28 228.503 20.64 223.153 23.33 216.453V231.183H8.58ZM25.32 233.183H44.9C43.69 234.373 42.8 236.053 42.38 238.083L25.32 320.453V233.183ZM25.41 206.643C25.41 193.183 36.36 182.233 49.82 182.233C63.28 182.233 74.23 193.183 74.23 206.643C74.23 220.103 63.28 231.053 49.82 231.053C36.36 231.053 25.41 220.103 25.41 206.643ZM40.05 231.183H25.33V216.513C28.03 223.183 33.37 228.513 40.05 231.183ZM5.85 424.643L23.32 341.383V429.723H3.11C4.43 428.523 5.4 426.783 5.85 424.643ZM-25.48 458.673C-23.11 464.063 -18.71 468.673 -13.14 471.253C-12.2 471.693 -11.24 472.063 -10.27 472.383H-25.48V458.673ZM61.9 471.253C67.53 468.643 71.96 463.973 74.31 458.503V472.383H58.98C59.96 472.053 60.94 471.693 61.89 471.253H61.9ZM70.55 435.533C68.97 433.933 67.09 432.653 65.07 431.723H74.31V441.083C73.38 439.013 72.11 437.123 70.54 435.533H70.55ZM74.32 429.723H54.35C55.67 428.523 56.64 426.783 57.09 424.643L74.33 342.503V429.723H74.32ZM57 238.043C56.58 236.033 55.69 234.363 54.48 233.173H74.31V320.573L56.99 238.043H57ZM74.32 231.183H59.6C66.28 228.513 71.63 223.183 74.32 216.513V231.183ZM74.32 196.783C71.62 190.093 66.25 184.753 59.54 182.093H74.32V196.783ZM25.32 196.783V182.093H40.1C33.39 184.753 28.02 190.093 25.32 196.783ZM-25.48 182.093H-10.91C-17.45 184.693 -22.71 189.813 -25.48 196.263V182.093ZM-10.97 231.183H-25.48V217.033C-22.72 223.463 -17.48 228.573 -10.97 231.183ZM-25.48 233.183H-6.11C-7.32 234.373 -8.21 236.053 -8.63 238.083L-25.48 319.413V233.173V233.183ZM-8.76 424.613C-8.31 426.763 -7.34 428.523 -6.02 429.723H-25.48V343.893L-8.76 424.613ZM42.71 764.793C36.2 764.653 12.57 764.653 6.07 764.793C0.67 764.913 -6.3 764.693 -12.28 761.913C-19.53 758.553 -24.65 751.483 -25.32 743.903C-25.8 738.463 -23.94 733.043 -20.35 729.403C-16.5 725.493 -10.47 723.673 -5.34 724.863C0.0599995 726.113 4.27 730.763 4.46 735.693C4.58 738.923 2.98 742.073 0.370001 743.713C-2.4 745.463 -6.3 745.373 -8.69 743.493C-10.36 742.183 -10.77 740.513 -10.81 739.343C-10.9 737.223 -9.9 734.933 -8.21 733.363L-9.57 731.893C-11.68 733.853 -12.92 736.733 -12.81 739.423C-12.72 741.703 -11.72 743.653 -9.92 745.063C-6.85 747.483 -2.07 747.623 1.44 745.393C4.64 743.373 6.61 739.533 6.46 735.603C6.28 730.943 3.09 726.493 -1.41 724.183H50.21C45.71 726.493 42.52 730.943 42.34 735.603C42.19 739.523 44.16 743.373 47.36 745.393C50.87 747.613 55.65 747.473 58.72 745.063C60.51 743.653 61.51 741.703 61.61 739.423C61.72 736.733 60.48 733.853 58.37 731.893L57.01 733.363C58.7 734.933 59.7 737.223 59.61 739.343C59.56 740.513 59.15 742.183 57.49 743.493C55.1 745.373 51.2 745.463 48.43 743.713C45.82 742.063 44.22 738.913 44.34 735.693C44.53 730.773 48.74 726.113 54.14 724.863C59.27 723.673 65.3 725.503 69.15 729.403C72.74 733.053 74.6 738.473 74.12 743.903C73.45 751.483 68.33 758.543 61.08 761.913C55.1 764.683 48.13 764.913 42.72 764.793H42.71ZM-25.48 724.193H-16.31C-18.33 725.113 -20.21 726.393 -21.79 728.003C-23.32 729.553 -24.56 731.383 -25.49 733.393V724.193H-25.48ZM-25.48 621.743L-6.67 530.953C-6 527.733 -3.91 525.653 -1.33 525.653C1.24 525.653 3.34 527.723 4.01 530.933L20.74 610.673L18.14 603.983L16.28 604.703L22.37 620.373L17.05 616.153L15.81 617.723L23.03 623.453L15.81 629.183L17.05 630.753L22.37 626.533L16.28 642.203L18.14 642.923L20.8 636.073L3.88 716.713C3.21 719.923 1.11 721.993 -1.46 721.993C-4.04 721.993 -6.14 719.913 -6.8 716.693L-25.48 626.523V621.763V621.743ZM-25.48 496.593C-24.21 484.313 -13.81 474.703 -1.2 474.703C12.26 474.703 23.21 485.653 23.21 499.113C23.21 512.573 12.26 523.523 -1.2 523.523C-13.81 523.523 -24.22 513.913 -25.48 501.633V496.593ZM23.32 474.563V489.313C20.62 482.593 15.25 477.233 8.51 474.563H23.32ZM55.04 530.923L72.19 612.643L68.82 603.973L66.96 604.693L73.05 620.363L67.73 616.143L66.49 617.713L73.71 623.443L66.49 629.173L67.73 630.743L73.05 626.523L66.96 642.193L68.82 642.913L72.71 632.903L55.12 716.703C54.45 719.913 52.35 721.983 49.78 721.983C47.2 721.983 45.1 719.903 44.44 716.683L26.87 631.893L31.16 642.913L33.02 642.193L26.93 626.523L32.25 630.743L33.49 629.173L26.27 623.443L33.49 617.713L32.25 616.143L26.93 620.363L33.02 604.693L31.16 603.973L27.03 614.593L44.36 530.953C45.03 527.733 47.12 525.653 49.7 525.653C52.27 525.653 54.37 527.723 55.04 530.933V530.923ZM23.32 525.643V613.153L5.98 530.513C5.56 528.493 4.67 526.833 3.46 525.643H23.32ZM8.58 523.643C15.28 520.963 20.64 515.613 23.33 508.913V523.643H8.58ZM25.32 525.643H44.9C43.69 526.833 42.8 528.513 42.38 530.543L25.32 612.913V525.643ZM45.21 722.193H25.32V634.313L42.47 717.083C42.92 719.233 43.89 720.983 45.21 722.193ZM25.41 499.113C25.41 485.653 36.36 474.703 49.82 474.703C63.28 474.703 74.23 485.653 74.23 499.113C74.23 512.573 63.28 523.523 49.82 523.523C36.36 523.523 25.41 512.573 25.41 499.113ZM40.05 523.643H25.33V508.973C28.03 515.643 33.37 520.973 40.05 523.643ZM5.85 717.103L23.32 633.843V722.183H3.11C4.43 720.983 5.4 719.243 5.85 717.103ZM70.55 727.993C68.97 726.393 67.09 725.113 65.07 724.183H74.31V733.543C73.38 731.473 72.11 729.583 70.54 727.993H70.55ZM74.32 722.193H54.35C55.67 720.993 56.64 719.253 57.09 717.113L74.33 634.973V722.193H74.32ZM57 530.513C56.58 528.493 55.69 526.833 54.48 525.643H74.31V613.043L56.99 530.513H57ZM74.32 523.643H59.6C66.28 520.973 71.63 515.643 74.32 508.973V523.643ZM74.32 489.253C71.62 482.563 66.25 477.223 59.54 474.563H74.32V489.253ZM25.32 489.253V474.563H40.1C33.39 477.223 28.02 482.563 25.32 489.253ZM-25.48 474.563H-10.91C-17.45 477.163 -22.71 482.283 -25.48 488.733V474.563ZM-10.97 523.643H-25.48V509.493C-22.72 515.923 -17.48 521.033 -10.97 523.643ZM-25.48 525.643H-6.11C-7.32 526.833 -8.21 528.513 -8.63 530.543L-25.48 611.883V525.643ZM-8.76 717.083C-8.31 719.233 -7.34 720.983 -6.02 722.193H-25.48V636.363L-8.76 717.083ZM-25.48 751.143C-23.11 756.533 -18.71 761.143 -13.14 763.723C-12.19 764.163 -11.21 764.523 -10.23 764.853H-25.48V751.143ZM59.03 764.853C60 764.533 60.96 764.163 61.9 763.723C67.53 761.113 71.96 756.443 74.31 750.973V764.853H59.03Z" fill="#F3E2D8"/>
</svg>
