<svg width="26" height="27" viewBox="0 0 26 27" fill="none" xmlns="http://www.w3.org/2000/svg">
<g clip-path="url(#clip0_1170_663)">
<path d="M13.022 0.205078C12.0988 0.205078 11.19 0.482702 10.4445 0.916905C9.67789 1.36443 9.13571 2.1118 8.69353 2.88581C8.25134 3.65983 8.01025 4.46715 8.01025 5.39442C8.01025 6.48492 8.35467 7.43551 8.96017 8.28392C8.8824 7.541 8.90018 6.91357 9.15571 6.29725C9.4268 5.64095 9.99675 5.15788 10.5389 4.72035C11.0644 3.87193 11.931 3.23895 13.0209 3.23895C14.1108 3.23895 14.9797 3.87304 15.5452 4.72146C16.0862 5.15899 16.6084 5.66094 16.8795 6.31724C17.135 6.93356 17.2072 7.57543 17.1295 8.31835C17.735 7.46993 18.1816 6.52601 18.1816 5.39553C18.1816 4.46604 17.8239 3.62096 17.3917 2.87471C16.9595 2.12845 16.354 1.40885 15.5829 0.962435C14.8119 0.516017 13.022 0.205078 13.022 0.205078Z" fill="#485361"/>
<path d="M15.3211 6.32402C15.3211 7.57332 14.2712 8.48504 13.0213 8.48504C11.7714 8.48504 10.6426 7.57221 10.6426 6.32402C10.6426 5.07582 11.7725 4.10303 13.0213 4.10303C14.27 4.10303 15.2577 5.07471 15.2577 6.32402" fill="#485361"/>
<path d="M15.5807 25.4932C16.3517 25.0467 16.8917 24.326 17.3394 23.5531C17.7872 22.7802 18.186 21.9907 18.186 21.0623C18.186 19.9318 17.7461 18.9324 17.1394 18.0839C17.2172 18.8235 17.1939 19.5398 16.9417 20.1483C16.6706 20.8035 16.1162 21.2999 15.5718 21.7186C15.0463 22.567 14.1119 23.1478 13.0209 23.1478C11.9299 23.1478 11.0777 22.5292 10.5122 21.6819C9.9745 21.2477 9.53343 20.7236 9.26123 20.0795C8.98903 19.4354 8.80127 18.7147 8.88015 17.9851C8.27465 18.8335 8.03467 19.9296 8.03467 21.0612C8.048 21.9873 8.2091 22.8457 8.64017 23.592C9.07125 24.3382 9.75563 24.9479 10.5233 25.3943C11.2911 25.8407 12.101 26.205 13.0265 26.205C13.0676 26.2017 14.8296 25.9274 15.5807 25.4932Z" fill="#485361"/>
<path d="M15.2163 20.1341C15.2163 21.3834 14.272 22.4073 13.0221 22.4073C11.7722 22.4073 10.7334 21.3823 10.7334 20.1341C10.7334 18.8859 11.7722 17.7954 13.0221 17.7954C14.272 17.7954 15.2797 18.8848 15.2797 20.1341" fill="#485361"/>
<path d="M20.8591 8.06288C19.7281 8.06288 18.8248 8.56593 17.9771 9.17226C18.7204 9.09453 19.3126 9.17559 19.9292 9.4299C20.5858 9.70086 21.1946 10.0873 21.6324 10.6292C22.4812 11.1545 23.1056 12.1795 23.1056 13.27C23.1056 14.3605 22.4156 15.2667 21.5668 15.7919C21.1291 16.3327 20.5702 16.7614 19.9136 17.0323C19.297 17.2878 18.7037 17.4088 17.9604 17.33C18.8093 17.9352 19.7281 18.3971 20.8591 18.3971C21.789 18.3971 22.7067 18.1539 23.4533 17.7208C24.2266 17.2733 24.8132 16.5393 25.2598 15.7686C25.6942 15.0179 26.0009 14.1528 26.0009 13.2289C26.0009 12.305 25.6109 11.4932 25.1765 10.7481C24.7421 10.0029 24.2299 9.19558 23.4544 8.75361C22.6789 8.31163 20.8602 8.06177 20.8602 8.06177L20.8591 8.06288Z" fill="#485361"/>
<path d="M22.1494 13.2291C22.1494 14.4784 21.1784 15.5067 19.9296 15.5067C18.6808 15.5067 17.6064 14.4784 17.6064 13.2291C17.6064 11.9798 18.6797 10.8926 19.9296 10.8926C21.1795 10.8926 22.2105 11.9809 22.2105 13.2291" fill="#485361"/>
<path d="M8.23583 17.36C7.49256 17.4377 6.70485 17.3844 6.08823 17.129C5.43162 16.858 4.91167 16.3339 4.47393 15.7931C3.62511 15.2278 2.9285 14.3183 2.9285 13.2289C2.9285 12.1395 3.58623 11.1845 4.43504 10.6193C4.85056 10.0785 5.46718 9.73865 6.12268 9.46769C6.7404 9.21227 7.40812 9.03237 8.13361 9.11011C7.2848 8.50489 6.276 8.17285 5.14387 8.17285C4.22506 8.18618 3.3118 8.32277 2.56965 8.75808C1.82749 9.1934 1.30975 9.98851 0.866458 10.7548C0.435384 11.4999 0.000976562 12.3083 0.000976562 13.2289C0.000976562 14.1495 0.418719 14.978 0.853126 15.7287C1.29975 16.4993 1.89415 17.1412 2.66742 17.5898C3.44068 18.0385 4.25728 18.3905 5.1872 18.3905C5.19942 18.3905 7.38923 17.9663 8.23805 17.3611L8.23583 17.36Z" fill="#485361"/>
<path d="M8.44048 13.229C8.44048 14.4783 7.36279 15.5578 6.1129 15.5578C4.863 15.5578 3.75977 14.4783 3.75977 13.229C3.75977 11.9797 4.863 11.0425 6.1129 11.0425C7.36279 11.0425 8.42381 11.9797 8.42381 13.229" fill="#485361"/>
</g>
<defs>
<clipPath id="clip0_1170_663">
<rect width="26" height="26" fill="white" transform="translate(0 0.205078)"/>
</clipPath>
</defs>
</svg>
