<?xml version="1.0" standalone="no"?>
<!DOCTYPE svg PUBLIC "-//W3C//DTD SVG 1.1//EN" "http://www.w3.org/Graphics/SVG/1.1/DTD/svg11.dtd" >
<svg xmlns="http://www.w3.org/2000/svg" xmlns:xlink="http://www.w3.org/1999/xlink" version="1.1">
<metadata>
Created by FontForge 20170731 at Wed May 31 19:14:20 2023
 By Aleksey,,,
Copyright (c) 2018 by TipoType Team. All rights reserved. |DCNT
</metadata>
<defs>
<font id="Fieldwork-GeoLight" horiz-adv-x="1349" >
  <font-face 
    font-family="Fieldwork Geo Light"
    font-weight="300"
    font-stretch="normal"
    units-per-em="2048"
    panose-1="0 0 0 0 0 0 0 0 0 0"
    ascent="1407"
    descent="-641"
    x-height="958"
    cap-height="1358"
    bbox="-223 -731 3015 2294"
    underline-thickness="149"
    underline-position="-949"
    unicode-range="U+000D-FB04"
  />
<missing-glyph horiz-adv-x="1417" 
d="M1219 0h-1018v1358h1018v-1358zM711 776l-244 242l-96 -96l241 -240l-243 -246l96 -96l246 242l241 -242l99 96l-244 246l242 240l-99 96z" />
    <glyph glyph-name="ff" unicode="ff" horiz-adv-x="1359" 
d="M1317 961v-138h-295v-823h-160v823h-471v-823h-160v823h-180v138h182v118q0 161 96.5 254.5t262.5 93.5q93 0 158 -32l-19 -129q-53 26 -133 26q-209 0 -209 -225v-106h473v118q0 161 97.5 254.5t263.5 93.5q81 0 157 -30l-18 -129q-56 24 -133 24q-209 0 -209 -225v-106
h297z" />
    <glyph glyph-name="fi" unicode="fi" horiz-adv-x="1228" 
d="M739 1401l-16 -129q-50 20 -125 20q-209 0 -209 -225v-106h297v-138h-295v-823h-160v823h-180v138h182v118q0 161 96.5 254.5t262.5 93.5q79 0 147 -26zM1071 0h-160v961h160v-961zM991 1184q-43 0 -70.5 26.5t-27.5 69.5q0 44 27.5 72t70.5 28t72 -28t29 -70t-29 -70
t-72 -28z" />
    <glyph glyph-name="fl" unicode="fl" horiz-adv-x="1232" 
d="M739 1401l-16 -129q-50 20 -125 20q-209 0 -209 -225v-106h297v-138h-295v-823h-160v823h-180v138h182v118q0 161 96.5 254.5t262.5 93.5q79 0 147 -26zM1067 0h-160v1407h160v-1407z" />
    <glyph glyph-name="ffi" unicode="ffi" horiz-adv-x="1859" 
d="M1317 961v-138h-295v-823h-160v823h-471v-823h-160v823h-180v138h182v118q0 161 96.5 254.5t262.5 93.5q93 0 158 -32l-19 -129q-53 26 -133 26q-209 0 -209 -225v-106h473v118q0 161 97.5 254.5t263.5 93.5q81 0 157 -30l-18 -129q-56 24 -133 24q-209 0 -209 -225v-106
h297zM1702 0h-160v961h160v-961zM1622 1184q-43 0 -70.5 26.5t-27.5 69.5q0 44 27.5 72t70.5 28t70.5 -27.5t27.5 -70.5t-27.5 -70.5t-70.5 -27.5z" />
    <glyph glyph-name="ffl" unicode="ffl" horiz-adv-x="1861" 
d="M1317 961v-138h-295v-823h-160v823h-471v-823h-160v823h-180v138h182v118q0 161 96.5 254.5t262.5 93.5q93 0 158 -32l-19 -129q-53 26 -133 26q-209 0 -209 -225v-106h473v118q0 161 97.5 254.5t263.5 93.5q81 0 157 -30l-18 -129q-56 24 -133 24q-209 0 -209 -225v-106
h297zM1696 0h-160v1407h160v-1407z" />
    <glyph glyph-name="Th" unicode="Th" horiz-adv-x="2324" 
d="M1767 981q189 0 296.5 -106t107.5 -291v-584h-158v545q0 139 -69.5 211.5t-200.5 72.5q-126 0 -211 -79q-86 -80 -86 -207v-543h-160v1407h162v-592q44 74 128.5 120t190.5 46zM1087 1358v-154h-436v-1204h-164v1204h-454v154h1054z" />
    <glyph glyph-name="fj" unicode="fj" horiz-adv-x="1226" 
d="M739 1401l-16 -129q-50 20 -125 20q-209 0 -209 -225v-106h297v-138h-295v-823h-160v823h-180v138h182v118q0 161 96.5 254.5t262.5 93.5q79 0 147 -26zM891 1282q0 43 27.5 70.5t70.5 27.5q44 0 72.5 -27.5t28.5 -70.5q6 -61 -47 -86t-105.5 0t-46.5 86zM909 -84v1045
h160v-1055q0 -156 -78 -241t-225 -85q-94 0 -152 27l19 135q53 -21 123 -21q153 0 153 195z" />
    <glyph glyph-name="ft" unicode="ft" horiz-adv-x="1392" 
d="M1317 961v-138h-307v-520q0 -89 44.5 -134.5t121.5 -45.5q92 0 163 27l23 -138q-71 -32 -203 -32q-143 0 -225 77.5t-82 221.5v544h-461v-823h-160v823h-180v138h182v118q0 161 96.5 254.5t262.5 93.5q79 0 147 -26l-16 -129q-50 20 -125 20q-209 0 -209 -225v-106h463
v307h158v-307h307z" />
    <glyph glyph-name=".notdef" horiz-adv-x="1417" 
d="M1219 0h-1018v1358h1018v-1358zM711 776l-244 242l-96 -96l241 -240l-243 -246l96 -96l246 242l241 -242l99 96l-244 246l242 240l-99 96z" />
    <glyph glyph-name=".null" horiz-adv-x="0" 
 />
    <glyph glyph-name="nonmarkingreturn" horiz-adv-x="682" 
 />
    <glyph glyph-name="CR.001" unicode="&#xd;" horiz-adv-x="483" 
 />
    <glyph glyph-name="CR.001" horiz-adv-x="483" 
 />
    <glyph glyph-name="space" unicode=" " horiz-adv-x="483" 
 />
    <glyph glyph-name="exclam" unicode="!" horiz-adv-x="528" 
d="M332 369h-137l-21 989h182zM334 14q-29 -29 -72 -29t-72 29q-26 29 -26 71t26 71q29 29 72 29t72 -29t29 -71t-29 -71z" />
    <glyph glyph-name="quotedbl" unicode="&#x22;" horiz-adv-x="696" 
d="M297 1427l-29 -471h-116l-29 471h174zM573 1427l-28 -471h-119l-27 471h174z" />
    <glyph glyph-name="numbersign" unicode="#" horiz-adv-x="1382" 
d="M74 365l22 124h252l72 410h-250l23 125h247l62 334h143l-57 -334h323l60 334h145l-59 -334h254l-23 -125h-252l-73 -410h251l-22 -124h-252l-66 -365h-147l68 365h-324l-68 -365h-147l68 365h-250zM893 899h-328l-73 -410h325z" />
    <glyph glyph-name="dollar" unicode="$" horiz-adv-x="1013" 
d="M590 -156h-158l10 246q-184 9 -338 80l15 152q183 -86 373 -86q132 0 207 45.5t75 130.5q0 60 -45.5 98.5t-150.5 71.5l-195 57q-143 44 -216 115.5t-73 189.5q0 131 95 217t264 103l-13 245h158l-10 -243q148 -9 284 -66l-16 -147q-63 29 -155 48t-171 19
q-128 0 -200 -45.5t-72 -126.5q0 -55 41 -96q15 -15 47 -31q29 -16 119 -45l178 -53q155 -48 225 -121.5t70 -191.5q0 -130 -96.5 -215.5t-263.5 -102.5z" />
    <glyph glyph-name="percent" unicode="%" horiz-adv-x="1832" 
d="M61 1018q0 154 105 256q107 104 262 104q158 0 262 -104q107 -101 107 -256q0 -152 -107 -256q-105 -105 -262 -105q-154 0 -262 105q-105 105 -105 256zM266 1182q-65 -68 -65 -164t65 -164q66 -66 162 -66q98 0 164 66q65 68 65 164q0 97 -65 162q-64 67 -164 67
q-97 0 -162 -65zM1012 340q0 155 104 256q107 104 262 104q158 0 262 -104q107 -101 107 -256q0 -152 -107 -256q-104 -104 -262 -104q-155 0 -262 104q-104 104 -104 256zM1217 504q-66 -69 -66 -164q0 -98 63 -164q65 -65 164 -65t164 65q66 69 66 164q0 96 -66 162
q-64 67 -164 67q-96 0 -161 -65zM600 0h-125v27l733 1331h125v-25z" />
    <glyph glyph-name="ampersand" unicode="&#x26;" horiz-adv-x="1351" 
d="M987 1317l-20 -146q-50 26 -130.5 45t-156.5 19q-131 0 -208 -51t-77 -146q0 -84 41 -149q35 -50 117 -129l440 -418q49 67 72.5 176t17.5 219h152q6 -142 -25.5 -270t-99.5 -223l254 -244h-221l-139 129q-168 -149 -406 -149q-224 0 -365 112q-143 113 -143 295
q0 68 24 129t64.5 106.5t82.5 78t89 57.5q-119 125 -119 276q0 161 125 252q127 92 322 92q166 0 309 -61zM895 233l-461 424q-180 -94 -180 -270q0 -115 96.5 -187.5t249.5 -72.5q94 0 172 29.5t123 76.5z" />
    <glyph glyph-name="quotesingle" unicode="'" horiz-adv-x="419" 
d="M297 1427l-29 -471h-116l-29 471h174z" />
    <glyph glyph-name="parenleft" unicode="(" horiz-adv-x="583" 
d="M393 1561h162l-31 -54l-69 -139q-107 -225 -156 -481q-60 -307 -2 -613q10 -49 21.5 -96t26 -92.5t26 -81.5t29.5 -79t28 -68t29.5 -65t25.5 -53t25 -50t20 -39l31 -49h-166q-124 167 -209 434q-84 275 -84 545q0 265 73.5 498.5t219.5 482.5z" />
    <glyph glyph-name="parenright" unicode=")" horiz-adv-x="583" 
d="M57 1511l-28 50h161q147 -245 220 -479.5t73 -501.5q0 -274 -86 -543q-81 -263 -207 -436h-165q10 12 30 51q25 42 70 139q55 112 92 221.5t66 259.5q63 307 2 613q-56 309 -228 626z" />
    <glyph glyph-name="asterisk" unicode="*" horiz-adv-x="882" 
d="M375 1407h133l-12 -287l260 99l41 -127l-267 -74v-2l183 -232l-107 -77l-166 247l-164 -247l-108 77l184 232l-2 2l-264 74l41 127l258 -99z" />
    <glyph glyph-name="plus" unicode="+" horiz-adv-x="1214" 
d="M686 152h-162v450h-448v158h448v444h162v-444h453v-158h-453v-450z" />
    <glyph glyph-name="comma" unicode="," horiz-adv-x="452" 
d="M39 -258l117 473h166l-142 -473h-141z" />
    <glyph glyph-name="hyphen" unicode="-" horiz-adv-x="944" 
d="M143 651h658v-151h-658v151z" />
    <glyph glyph-name="period" unicode="." horiz-adv-x="425" 
d="M285 14q-29 -29 -72 -29t-72 29q-26 29 -26 71t26 71q29 29 72 29t72 -29t29 -71t-29 -71z" />
    <glyph glyph-name="slash" unicode="/" horiz-adv-x="1048" 
d="M834 1530h170l-787 -1929h-170z" />
    <glyph glyph-name="zero" unicode="0" horiz-adv-x="1339" 
d="M119 680q0 121 21.5 226t66 192t109 149t154 96.5t198.5 34.5q137 0 243.5 -53t173.5 -147.5t101.5 -220.5t34.5 -277q0 -153 -34.5 -279.5t-101.5 -221t-173.5 -147t-243.5 -52.5q-179 0 -304.5 92t-185 247.5t-59.5 360.5zM670 1223q-183 0 -285 -147.5t-102 -397.5
q0 -245 98 -393q102 -150 287 -150q186 0 288 150q101 149 101 393q0 250 -102 397.5t-285 147.5z" />
    <glyph glyph-name="one" unicode="1" horiz-adv-x="688" 
d="M485 0h-166v1206h-278v152h444v-1358z" />
    <glyph glyph-name="two" unicode="2" horiz-adv-x="1087" 
d="M639 461l-324 -311h676v-150h-895v145l426 414q130 125 183 216t53 190q0 129 -80 194.5t-215 65.5q-83 0 -172 -28t-158 -73l-24 150q175 102 378 102q92 0 171 -24t142.5 -71.5t99.5 -127.5t36 -184q0 -93 -41 -183q-39 -85 -95.5 -155t-160.5 -170z" />
    <glyph glyph-name="three" unicode="3" horiz-adv-x="1155" 
d="M299 633v129l438 444h-587v152h811v-135l-433 -428q6 2 27 2q69 0 137.5 -14.5t133.5 -46.5t114 -77t79 -112t30 -146q0 -201 -145 -312.5t-398 -111.5q-252 0 -424 99l24 153q190 -96 383 -96q181 0 282 68t101 186q0 128 -101.5 200t-270.5 72q-103 0 -201 -26z" />
    <glyph glyph-name="four" unicode="4" horiz-adv-x="1157" 
d="M506 1358h180l-442 -877h495v359h164v-359h197v-147h-197v-334h-164v334h-676v143z" />
    <glyph glyph-name="five" unicode="5" horiz-adv-x="1116" 
d="M184 664l-28 36l73 658h719v-152h-592l-41 -381q81 23 185 23q146 0 261 -47.5t185 -144.5t70 -230q0 -112 -39.5 -198t-110 -139.5t-164.5 -81t-206 -27.5q-226 0 -404 75l19 154q72 -37 172 -58.5t194 -21.5q168 0 266.5 73t98.5 210q0 142 -103 216t-282 74
q-166 0 -273 -38z" />
    <glyph glyph-name="six" unicode="6" horiz-adv-x="1228" 
d="M639 127q148 0 238 82t90 217q0 139 -89 219t-239 80q-144 0 -233 -84t-89 -213q0 -131 89 -216t233 -85zM721 1378q191 0 328 -61l-15 -152q-133 62 -295 62q-215 0 -333.5 -136.5t-122.5 -414.5q57 92 153.5 142t218.5 50q135 0 241.5 -47t172.5 -147.5t66 -241.5
q0 -204 -138 -330q-137 -122 -360 -122q-131 0 -230.5 45t-162 128.5t-94 197.5t-31.5 257q0 376 154 573t448 197z" />
    <glyph glyph-name="seven" unicode="7" horiz-adv-x="946" 
d="M897 1217l-553 -1217h-180l549 1198h-654v160h838v-141z" />
    <glyph glyph-name="eight" unicode="8" horiz-adv-x="1257" 
d="M629 1378q127 0 233.5 -40t175 -124.5t68.5 -197.5q0 -101 -54 -180.5t-147 -124.5q109 -42 170.5 -131t61.5 -215q0 -92 -41 -166t-111.5 -120.5t-161.5 -71.5t-194 -25q-104 0 -195.5 25t-162 71.5t-111.5 120.5t-41 166q0 126 62 215t171 131q-94 45 -147 124t-53 181
q0 115 67.5 198.5t174 123.5t235.5 40zM631 639q-154 0 -247 -67t-93 -191q0 -121 94 -187.5t246 -66.5q148 0 243 67.5t95 186.5q0 86 -47.5 146t-121.5 86t-169 26zM629 1233q-138 0 -222.5 -62.5t-84.5 -175.5q0 -104 86.5 -165.5t220.5 -61.5t221.5 62t87.5 165
q0 113 -85.5 175.5t-223.5 62.5z" />
    <glyph glyph-name="nine" unicode="9" horiz-adv-x="1228" 
d="M592 1231q-149 0 -239.5 -82t-90.5 -217q0 -139 89 -219t239 -80q144 0 232.5 84t88.5 213q0 130 -89 215.5t-230 85.5zM508 -20q-190 0 -324 61l17 152q128 -64 288 -64q448 0 457 553q-57 -93 -154.5 -144t-218.5 -51q-207 0 -343 115t-136 322t137 329
q137 125 363 125q249 0 382.5 -162t133.5 -452q0 -388 -151.5 -586t-450.5 -198z" />
    <glyph glyph-name="colon" unicode=":" horiz-adv-x="485" 
d="M242 -14q-41 0 -70 28.5t-29 69.5q0 42 28.5 71t70.5 29q43 0 71.5 -28.5t28.5 -71.5q0 -41 -28.5 -69.5t-71.5 -28.5zM242 971q43 0 71.5 -29t28.5 -72q0 -41 -28.5 -68.5t-71.5 -27.5t-71 27.5t-28 68.5q0 43 29 72t70 29z" />
    <glyph glyph-name="semicolon" unicode=";" horiz-adv-x="507" 
d="M61 -258l117 473h166l-141 -473h-142zM338 803q-29 -29 -71 -29t-72 27q-26 29 -26 70.5t26 70.5q29 29 71.5 29t71.5 -29t29 -71t-29 -68z" />
    <glyph glyph-name="less" unicode="&#x3c;" horiz-adv-x="1146" 
d="M254 678l758 -324v-172l-916 400v188l916 414v-174z" />
    <glyph glyph-name="equal" unicode="=" horiz-adv-x="1333" 
d="M152 1012h1032v-162h-1032v162zM152 508h1032v-164h-1032v164z" />
    <glyph glyph-name="greater" unicode="&#x3e;" horiz-adv-x="1146" 
d="M1051 582l-916 -400v172l758 324l-758 332v174l916 -414v-188z" />
    <glyph glyph-name="question" unicode="?" horiz-adv-x="919" 
d="M459 569l-17 -231h-137l-10 311q147 60 252 135q127 91 127 215q0 109 -74 168.5t-201 59.5q-78 0 -157.5 -22t-137.5 -58l-41 137q155 94 349 94q189 0 305 -98q119 -98 119 -272q0 -276 -377 -439zM375 -14q-43 0 -71 28t-28 70q0 43 28 71.5t71 28.5t70.5 -28.5
t27.5 -71.5q0 -42 -28 -70t-70 -28z" />
    <glyph glyph-name="at" unicode="@" horiz-adv-x="1941" 
d="M1225 934h131v-543q0 -96 41.5 -142t113.5 -46q90 0 141.5 105.5t51.5 275.5q3 142 -52 271.5t-151 223.5t-232 149t-288 52q-338 0 -551 -207q-209 -206 -209 -543q0 -207 99 -376.5t271 -266t380 -96.5q211 0 418 107l53 -107q-237 -129 -471 -129q-178 0 -339 64.5
t-280.5 177t-190.5 276.5t-71 352q0 194 71.5 359.5t193.5 277.5t287 175t349 63q170 -1 325.5 -64t270.5 -171t183.5 -261.5t68.5 -326.5q0 -240 -94.5 -370t-265.5 -130q-84 0 -148 49.5t-102 138.5q-37 -73 -123.5 -118t-194.5 -45q-174 0 -288 114q-115 118 -115 305
q0 188 115 306q113 116 288 116q188 0 303 -145zM1210 535q0 118 -82 200q-79 82 -200 82q-122 0 -200.5 -80t-78.5 -202t78 -209q78 -84 199 -84q122 0 202 86q82 85 82 207z" />
    <glyph glyph-name="A" unicode="A" horiz-adv-x="1347" 
d="M578 1358h194l561 -1358h-174l-125 315h-717l-127 -315h-174zM981 457l-305 729l-307 -729h612z" />
    <glyph glyph-name="B" unicode="B" horiz-adv-x="1388" 
d="M1118 379q0 111 -69.5 177.5t-192.5 66.5h-494v-476h494q120 0 191 61.5t71 170.5zM776 1210h-414v-448h416q116 0 186 60.5t70 160.5q0 104 -70 165.5t-188 61.5zM844 0h-645v1358h585q190 0 304 -102t114 -273q0 -180 -155 -268q113 -37 176 -124.5t63 -209.5
q0 -171 -117.5 -276t-324.5 -105z" />
    <glyph glyph-name="C" unicode="C" horiz-adv-x="1370" 
d="M1272 225l26 -157q-114 -49 -200 -66q-113 -22 -226 -22q-342 0 -557 194q-213 195 -213 506q0 153 55.5 283t154.5 221.5t240.5 142.5t309.5 51q117 0 226 -24t186 -62l-17 -153q-177 82 -397 82q-258 0 -422 -150q-162 -149 -162 -391q0 -244 168 -393
q170 -150 441 -150q89 0 182 19q124 26 205 69z" />
    <glyph glyph-name="D" unicode="D" horiz-adv-x="1546" 
d="M199 0v1358h555q222 0 378.5 -87t232 -238.5t75.5 -354.5q0 -321 -177.5 -499.5t-510.5 -178.5h-553zM743 1206h-381v-1054h381q261 0 395 135.5t134 390.5q0 253 -136 390.5t-393 137.5z" />
    <glyph glyph-name="E" unicode="E" horiz-adv-x="1294" 
d="M1194 150v-150h-995v1358h972v-150h-809v-436h705v-149h-705v-473h832z" />
    <glyph glyph-name="F" unicode="F" horiz-adv-x="1191" 
d="M981 770v-149h-619v-621h-163v1358h936v-150h-773v-438h619z" />
    <glyph glyph-name="G" unicode="G" horiz-adv-x="1515" 
d="M1331 1280l-14 -156q-75 39 -190.5 68t-231.5 29q-281 0 -451 -150t-170 -391q0 -245 170 -395q172 -150 451 -150q215 0 330 62v397h-445v147h604v-649q-184 -112 -481 -112q-362 0 -581 192q-220 196 -220 506q0 313 217 506q216 192 576 192q239 0 436 -96z" />
    <glyph glyph-name="H" unicode="H" horiz-adv-x="1542" 
d="M1343 0h-163v621h-818v-621h-163v1358h163v-588h818v588h163v-1358z" />
    <glyph glyph-name="I" unicode="I" horiz-adv-x="561" 
d="M362 0h-163v1358h163v-1358z" />
    <glyph glyph-name="J" unicode="J" horiz-adv-x="1062" 
d="M41 53l25 150q159 -72 323 -72q154 0 238 71t84 216v786h-525v152h691v-944q0 -208 -128.5 -320t-351.5 -112q-85 0 -182.5 20t-173.5 53z" />
    <glyph glyph-name="K" unicode="K" horiz-adv-x="1323" 
d="M1057 1358h190l-418 -701l502 -657h-209l-440 586h-320v-586h-163v1358h163v-623h330z" />
    <glyph glyph-name="L" unicode="L" horiz-adv-x="1198" 
d="M1161 150v-150h-962v1358h166v-1208h796z" />
    <glyph glyph-name="M" unicode="M" horiz-adv-x="1845" 
d="M1485 1102l-539 -635h-41l-543 633v-1100h-163v1358h161l566 -676l563 676h160v-1358h-164v1102z" />
    <glyph glyph-name="N" unicode="N" horiz-adv-x="1658" 
d="M1294 1358h166v-1358h-174l-921 1110v-1110h-166v1358h172l923 -1112v1112z" />
    <glyph glyph-name="O" unicode="O" horiz-adv-x="1634" 
d="M102 672q-2 148 53 280.5t151 226.5t228 147.5t279 51.5q201 3 367.5 -89t261.5 -255.5t92 -361.5q0 -201 -94 -359.5t-258.5 -245.5t-368.5 -87q-147 -3 -279 49t-228 143.5t-151 222t-53 277.5zM272 674q0 -239 152 -391q153 -150 389 -150q242 0 395 150
q156 150 156 391q0 240 -156 393q-153 156 -395 156q-236 0 -389 -156q-152 -155 -152 -393z" />
    <glyph glyph-name="P" unicode="P" horiz-adv-x="1343" 
d="M799 426h-437v-426h-163v1358h600q97 0 181.5 -29t150 -85.5t103.5 -147.5t38 -207q0 -106 -38 -194.5t-103 -146.5t-150.5 -90t-181.5 -32zM778 1206h-416v-631h416q136 0 232 84q94 85 94 230q0 150 -90.5 233.5t-235.5 83.5z" />
    <glyph glyph-name="Q" unicode="Q" horiz-adv-x="1634" 
d="M102 672q-3 147 52 279t150.5 226.5t228.5 148.5t280 52q201 3 367.5 -89t261.5 -255.5t92 -361.5q0 -256 -152 -443q-149 -180 -399 -233q104 -100 248 -155.5t297 -55.5q88 0 162 14v-145q-86 -21 -183 -21q-202 0 -399 93q-192 92 -311 254q-198 3 -357 92.5
t-248.5 246.5t-89.5 353zM272 674q0 -239 152 -391q150 -150 389 -150q244 0 397 150q154 151 154 391t-156 393q-153 156 -395 156q-154 0 -278 -70.5t-193.5 -196.5t-69.5 -282z" />
    <glyph glyph-name="R" unicode="R" horiz-adv-x="1398" 
d="M1137 0l-342 426h-433v-426h-163v1358h600q97 0 181.5 -29t150 -85.5t103.5 -147.5t38 -207q0 -158 -81.5 -272t-219.5 -162l372 -455h-206zM778 1206h-416v-631h416q136 0 232 84q94 85 94 230q0 150 -90.5 233.5t-235.5 83.5z" />
    <glyph glyph-name="S" unicode="S" horiz-adv-x="1150" 
d="M678 580l-229 71q-73 22 -130 50t-105.5 68t-74.5 95.5t-26 124.5q0 181 128.5 285t354.5 104q213 0 399 -73l-16 -154q-77 36 -176.5 57t-192.5 21q-152 0 -237.5 -58.5t-85.5 -164.5q0 -74 45 -123q13 -13 27.5 -23.5t36 -20t33 -14t42 -15t39.5 -13.5q2 -1 5.5 -1.5
t5.5 -1t3 -1.5l213 -68q174 -58 251 -139.5t77 -216.5q0 -174 -133 -283q-130 -106 -357 -106q-120 0 -249 24q-130 27 -217 70l16 155q91 -45 211 -71q123 -27 225 -27q153 0 242.5 62t89.5 172q0 80 -49 129t-166 86z" />
    <glyph glyph-name="T" unicode="T" horiz-adv-x="1138" 
d="M1106 1358v-154h-455v-1204h-164v1204h-454v154h1073z" />
    <glyph glyph-name="U" unicode="U" horiz-adv-x="1544" 
d="M184 485v873h164v-864q0 -168 114.5 -263.5t307.5 -95.5q195 0 309.5 96.5t114.5 262.5v864h166v-873q0 -159 -78 -274.5t-210 -173t-302 -57.5q-266 0 -426 133q-160 136 -160 372z" />
    <glyph glyph-name="V" unicode="V" horiz-adv-x="1337" 
d="M770 0h-203l-544 1358h174l473 -1184l473 1184h174z" />
    <glyph glyph-name="W" unicode="W" horiz-adv-x="2039" 
d="M682 0h-242l-401 1358h170l354 -1188l369 1178h176l369 -1178l356 1188h168l-402 -1358h-241l-338 1106z" />
    <glyph glyph-name="X" unicode="X" horiz-adv-x="1259" 
d="M1022 1358h203l-488 -662l514 -696h-207l-413 567l-418 -567h-203l508 694l-479 664h203l389 -535z" />
    <glyph glyph-name="Y" unicode="Y" horiz-adv-x="1265" 
d="M551 530l-535 828h197l420 -660l420 660h196l-534 -828v-530h-164v530z" />
    <glyph glyph-name="Z" unicode="Z" horiz-adv-x="1236" 
d="M96 0v133l832 1073h-822v152h1027v-152l-824 -1056h836v-150h-1049z" />
    <glyph glyph-name="bracketleft" unicode="[" horiz-adv-x="641" 
d="M342 -272h254v-127h-403v1951h403v-127h-254v-1697z" />
    <glyph glyph-name="backslash" unicode="\" horiz-adv-x="1048" 
d="M831 -399l-786 1929h170l784 -1929h-168z" />
    <glyph glyph-name="bracketright" unicode="]" horiz-adv-x="641" 
d="M47 -399v127h252v1697h-252v127h404v-1951h-404z" />
    <glyph glyph-name="asciicircum" unicode="^" horiz-adv-x="1163" 
d="M903 510l-321 664l-322 -664h-186l418 848h180l418 -848h-187z" />
    <glyph glyph-name="underscore" unicode="_" horiz-adv-x="1193" 
d="M1079 -88v-139h-962v139h962z" />
    <glyph glyph-name="grave" unicode="`" horiz-adv-x="665" 
d="M356 1473l-186 333h178l148 -333h-140z" />
    <glyph glyph-name="a" unicode="a" horiz-adv-x="1271" 
d="M946 961h160v-961h-160v158q-57 -82 -152.5 -130t-215.5 -48q-210 0 -347 143q-139 145 -139 360t139 357q138 141 347 141q121 0 216 -47.5t152 -130.5v158zM594 836q-151 0 -246 -103q-96 -104 -96 -250q0 -149 96 -256q94 -102 246 -102q150 0 252 102
q102 105 102 256q0 148 -102 250q-103 103 -252 103z" />
    <glyph glyph-name="b" unicode="b" horiz-adv-x="1271" 
d="M326 156v-156h-160v1407h160v-604q59 82 154 130t214 48q209 0 346 -143q140 -143 140 -357t-139.5 -357.5t-346.5 -143.5q-120 0 -214.5 47t-153.5 129zM680 125q150 0 244 102q98 104 98 254q0 151 -98 252q-95 103 -244 103q-153 0 -256 -103q-100 -100 -100 -252
q0 -151 100 -254q102 -102 256 -102z" />
    <glyph glyph-name="c" unicode="c" horiz-adv-x="1011" 
d="M92 483q0 221 150 359q151 139 391 139q83 0 161.5 -19.5t125.5 -46.5l-17 -143q-121 59 -270 59q-168 0 -275 -96q-104 -94 -104 -252t104 -256q107 -98 277 -98q147 0 276 61l27 -145q-145 -65 -303 -65q-242 0 -393 139q-150 138 -150 364z" />
    <glyph glyph-name="d" unicode="d" horiz-adv-x="1271" 
d="M1106 0h-160v156q-57 -82 -152.5 -129t-215.5 -47q-207 0 -346.5 143.5t-139.5 357.5q0 215 139 357q137 143 347 143q120 0 215.5 -48t152.5 -130v604h160v-1407zM594 125q150 0 252 102q102 105 102 254q0 150 -102 252q-103 103 -252 103q-151 0 -246 -103
q-96 -104 -96 -252q0 -147 96 -254q94 -102 246 -102z" />
    <glyph glyph-name="e" unicode="e" horiz-adv-x="1144" 
d="M973 217l26 -143q-163 -94 -360 -94q-244 0 -395 139q-152 140 -152 360q0 214 139 359q137 143 355 143q154 2 271 -77.5t166 -209t19 -272.5h-784q20 -135 122.5 -214t250.5 -79q93 0 172.5 20t169.5 68zM262 553h635q-6 125 -89.5 201.5t-217.5 76.5t-226 -77.5
t-102 -200.5z" />
    <glyph glyph-name="f" unicode="f" horiz-adv-x="729" 
d="M686 961v-138h-295v-823h-160v823h-180v138h182v118q0 161 96.5 254.5t262.5 93.5q84 0 158 -30l-19 -129q-53 24 -133 24q-209 0 -209 -225v-106h297z" />
    <glyph glyph-name="g" unicode="g" horiz-adv-x="1271" 
d="M946 51v107q-57 -82 -152.5 -130t-215.5 -48q-210 0 -347 143q-139 145 -139 360t139 357q138 141 347 141q121 0 216 -47.5t152 -130.5v158h160v-898q0 -217 -143 -348q-144 -135 -400 -135q-98 0 -203.5 21.5t-175.5 58.5l27 145q161 -81 350 -81q176 0 280.5 87
t104.5 240zM594 836q-151 0 -246 -103q-96 -104 -96 -250q0 -149 96 -256q94 -102 246 -102q150 0 252 102q102 105 102 256q0 148 -102 250q-103 103 -252 103z" />
    <glyph glyph-name="h" unicode="h" horiz-adv-x="1202" 
d="M647 981q189 0 296.5 -106t107.5 -291v-584h-158v545q0 139 -70 211.5t-200 72.5q-129 0 -213 -80t-84 -206v-543h-160v1407h160v-592q44 74 129.5 120t191.5 46z" />
    <glyph glyph-name="i" unicode="i" horiz-adv-x="491" 
d="M326 0h-160v961h160v-961zM246 1184q-43 0 -71 27t-28 69q0 44 28 72t71 28t70.5 -27.5t27.5 -70.5t-27.5 -70.5t-70.5 -27.5z" />
    <glyph glyph-name="j" unicode="j" horiz-adv-x="503" 
d="M160 1282q0 43 27.5 70.5t70.5 27.5q44 0 72 -27.5t28 -70.5q4 -61 -48.5 -86t-104 0t-45.5 86zM178 -84v1045h160v-1055q0 -156 -78 -241t-225 -85q-93 0 -152 27l19 135q52 -21 123 -21q153 0 153 195z" />
    <glyph glyph-name="k" unicode="k" horiz-adv-x="1040" 
d="M326 0h-160v1407h160v-842h204l258 396h177l-312 -469l363 -492h-187l-309 428h-194v-428z" />
    <glyph glyph-name="l" unicode="l" horiz-adv-x="491" 
d="M326 0h-160v1407h160v-1407z" />
    <glyph glyph-name="m" unicode="m" horiz-adv-x="1894" 
d="M1341 981q185 0 292.5 -106.5t107.5 -286.5v-588h-160v549q0 133 -69.5 206.5t-194.5 73.5q-120 0 -203 -77q-82 -76 -82 -201v-551h-160v549q0 131 -68.5 205.5t-189.5 74.5q-126 0 -207 -78t-81 -206v-545h-160v961h160v-144q42 74 126 119t187 45q127 0 217 -52.5
t135 -150.5q50 94 142.5 148.5t207.5 54.5z" />
    <glyph glyph-name="n" unicode="n" horiz-adv-x="1204" 
d="M647 981q190 0 298 -106t108 -291v-584h-158v545q0 139 -70.5 211.5t-201.5 72.5q-129 0 -213 -80t-84 -206v-543h-160v961h160v-146q44 74 129.5 120t191.5 46z" />
    <glyph glyph-name="o" unicode="o" horiz-adv-x="1202" 
d="M238 125q-148 145 -148 354q0 211 146 357q148 145 364 145q220 0 365 -145t145 -357q0 -211 -145 -356q-143 -143 -365 -143q-217 0 -362 145zM350 729q-100 -100 -100 -250t100 -250q102 -102 250 -102q150 0 252 102q100 100 100 250t-100 250q-102 102 -252 102
q-148 0 -250 -102z" />
    <glyph glyph-name="p" unicode="p" horiz-adv-x="1271" 
d="M166 -399v1360h160v-158q58 84 153 131t215 47q207 0 346.5 -144t139.5 -360q0 -213 -140 -356q-138 -141 -346 -141q-119 0 -214 48t-154 130v-557h-160zM680 836q-154 0 -256 -105q-100 -100 -100 -254q0 -152 100 -252t256 -100q151 0 244 100q98 101 98 252
q0 153 -98 254q-94 105 -244 105z" />
    <glyph glyph-name="q" unicode="q" horiz-adv-x="1271" 
d="M946 961h160v-1360h-160v557q-57 -82 -152.5 -130t-215.5 -48q-209 0 -347 141q-139 142 -139 356q0 216 139.5 360t346.5 144q121 0 216 -47.5t152 -130.5v158zM594 836q-152 0 -246 -105q-96 -104 -96 -254q0 -148 96 -252q93 -100 246 -100q152 0 252 100
q102 102 102 252q0 152 -102 254q-102 105 -252 105z" />
    <glyph glyph-name="r" unicode="r" horiz-adv-x="761" 
d="M166 961h160v-144q38 81 105 122.5t155 41.5q80 0 135 -27l-16 -145q-68 22 -125 22q-109 0 -181.5 -73.5t-72.5 -225.5v-532h-160v961z" />
    <glyph glyph-name="s" unicode="s" horiz-adv-x="927" 
d="M453 561l100 -20q291 -58 291 -275q0 -136 -101.5 -211t-279.5 -75q-216 0 -361 71l23 144q141 -72 326 -72q116 0 176.5 34.5t60.5 100.5q0 60 -48.5 93t-160.5 57l-125 24q-126 25 -194 91.5t-68 170.5q0 129 106.5 208t284.5 79q181 0 308 -53l-21 -140
q-125 52 -276 52q-117 0 -179.5 -37t-62.5 -105q0 -58 44.5 -87t156.5 -50z" />
    <glyph glyph-name="t" unicode="t" horiz-adv-x="763" 
d="M686 961v-138h-305v-520q0 -89 43.5 -134.5t122.5 -45.5q94 0 164 27l20 -138q-68 -32 -201 -32q-145 0 -227 77.5t-82 221.5v544h-176v138h178v307h158v-307h305z" />
    <glyph glyph-name="u" unicode="u" horiz-adv-x="1173" 
d="M864 414v547h158v-572q0 -182 -119 -295q-120 -114 -317 -114q-198 0 -316 112t-118 291v578h157v-547q0 -133 75.5 -209t203.5 -76t202 76t74 209z" />
    <glyph glyph-name="v" unicode="v" horiz-adv-x="1054" 
d="M846 961h172l-393 -961h-197l-391 961h170l319 -809z" />
    <glyph glyph-name="w" unicode="w" horiz-adv-x="1597" 
d="M455 152l260 798h168l260 -798l239 809h168l-299 -961h-213l-239 727l-240 -727h-213l-299 961h168z" />
    <glyph glyph-name="x" unicode="x" horiz-adv-x="997" 
d="M772 958h186l-358 -464l369 -494h-189l-282 381l-283 -381h-184l366 492l-356 466h188l271 -356z" />
    <glyph glyph-name="y" unicode="y" horiz-adv-x="1054" 
d="M205 961l325 -805l322 805h174l-453 -1084q-68 -159 -149.5 -228t-214.5 -69q-104 0 -166 33l20 135q59 -27 136 -27q78 0 131.5 49.5t97.5 157.5l18 45l-415 988h174z" />
    <glyph glyph-name="z" unicode="z" horiz-adv-x="909" 
d="M829 0h-735v133l522 690h-516v138h701v-136l-522 -688h550v-137z" />
    <glyph glyph-name="braceleft" unicode="{" horiz-adv-x="659" 
d="M256 578q115 -53 115 -242v-367q0 -141 35 -194.5t129 -59.5q27 -3 65 0v-129q-46 -4 -70 -4q-183 0 -249 113q-56 98 -56 272v355q0 92 -31.5 135.5t-115.5 50.5q-16 2 -39 2v135q15 -3 37 0q87 7 118 50t31 136v361q0 172 56 270q63 109 249 109q47 0 70 -2v-131
q-35 3 -63 0q-100 -5 -136 -63.5t-36 -217.5v-340q0 -192 -109 -239z" />
    <glyph glyph-name="bar" unicode="|" horiz-adv-x="536" 
d="M193 1757h151v-2156h-151v2156z" />
    <glyph glyph-name="braceright" unicode="}" horiz-adv-x="659" 
d="M391 578q-108 46 -108 239v375q0 134 -38 187.5t-132 58.5q-28 3 -66 0v131q23 2 72 2q74 0 128.5 -19t88 -50.5t53 -81.5t26.5 -103.5t7 -124.5v-361q0 -92 32 -135.5t117 -50.5q25 -3 37 0v-135q-21 0 -37 -2q-85 -7 -117 -50.5t-32 -135.5v-355q0 -175 -55 -272
q-63 -113 -248 -113q-26 0 -72 4v129q41 -3 68 0q95 3 131 64q33 56 33 223v334q0 190 112 242z" />
    <glyph glyph-name="asciitilde" unicode="~" horiz-adv-x="1210" 
d="M414 553q-82 0 -191 -92l-98 121q143 143 295 143q56 0 109 -15.5t87 -37.5q88 -51 181 -51q52 0 91.5 20t96.5 70l100 -121q-149 -146 -294 -146q-111 0 -197 54q-88 55 -180 55z" />
    <glyph glyph-name="uni00A0" unicode="&#xa0;" horiz-adv-x="483" 
 />
    <glyph glyph-name="exclamdown" unicode="&#xa1;" horiz-adv-x="497" 
d="M160 -397l18 989h137l25 -989h-180zM246 971q43 0 71.5 -29t28.5 -72q0 -41 -28.5 -68.5t-71.5 -27.5t-71 27.5t-28 68.5q0 43 29 72t70 29z" />
    <glyph glyph-name="cent" unicode="&#xa2;" horiz-adv-x="1026" 
d="M90 682q0 200 123 332q123 135 326 162l-11 225h158l-10 -223q148 -9 237 -62l-18 -143q-114 57 -268 57q-167 0 -271 -96.5t-104 -251.5q0 -160 104 -258t273 -98q71 0 146.5 17t127.5 44l27 -145q-119 -55 -252 -64l10 -225h-158l11 229q-205 26 -328 161.5t-123 338.5
z" />
    <glyph glyph-name="sterling" unicode="&#xa3;" horiz-adv-x="1189" 
d="M332 627h-234v135h189q-39 98 -39 215q0 127 68 219t178 136t249 44q185 0 334 -67l-16 -154q-139 68 -305 68q-334 0 -334 -265q0 -93 41 -196h477v-135h-430q33 -79 33 -166q0 -96 -47 -177.5t-131 -138.5h737v-145h-973v137q115 59 179.5 139t64.5 175q0 89 -41 176z
" />
    <glyph glyph-name="currency" unicode="&#xa4;" horiz-adv-x="1234" 
d="M1006 657q0 -107 -68 -213l180 -178l-112 -110l-179 180q-103 -62 -213 -62q-105 0 -206 64l-183 -180l-110 108l180 178q-66 107 -66 213q0 110 64 211l-176 172l110 113l172 -172q105 63 215 63q111 0 220 -65l172 172l110 -111l-176 -172q66 -97 66 -211zM614 418
q109 0 181 69q75 69 75 170q0 108 -75 177q-74 71 -181 71q-104 0 -176.5 -72t-72.5 -176q0 -100 73 -170q72 -69 176 -69z" />
    <glyph glyph-name="yen" unicode="&#xa5;" horiz-adv-x="1335" 
d="M537 606l-486 752h197l420 -660l419 660h197l-485 -752h293v-106h-342v-146h335v-106h-335v-248h-164v248h-330v106h330v146h-336v106h287z" />
    <glyph glyph-name="brokenbar" unicode="&#xa6;" horiz-adv-x="536" 
d="M193 1757h151v-848h-151v848zM193 449h151v-848h-151v848z" />
    <glyph glyph-name="section" unicode="&#xa7;" horiz-adv-x="1146" 
d="M1071 446q0 -163 -160 -296q60 -72 60 -170q0 -145 -126.5 -231.5t-307.5 -86.5q-196 0 -355 72l17 127q165 -68 331 -68q137 0 213 51t76 133q0 61 -38.5 94t-141.5 72q-202 77 -303 123q-135 60 -198.5 139t-63.5 189q0 162 166 297q-56 77 -56 166q0 150 119 235
q121 86 297 86q96 0 191 -20t161 -51l-14 -127q-158 67 -330 67q-137 0 -208.5 -50t-71.5 -134q0 -60 38.5 -94t141.5 -74q158 -57 303 -121q134 -60 197 -139t63 -189zM522 733q-10 4 -47.5 19.5t-64.5 25.5q-21 8 -40 15.5t-27 10.5t-9 3q-115 -92 -115 -203
q0 -73 41.5 -120.5t142.5 -92.5q99 -41 340 -131l68 -27q53 38 83 92.5t30 112.5q0 73 -41 119.5t-140 89.5q-68 28 -221 86z" />
    <glyph glyph-name="dieresis" unicode="&#xa8;" horiz-adv-x="882" 
d="M264 1518q-43 0 -69.5 28t-26.5 72q0 43 26.5 69.5t69.5 26.5q62 6 87.5 -45t0 -103t-87.5 -48zM688 1546q-29 -29 -71.5 -29t-71.5 29q-26 29 -26 72.5t26 69.5q29 26 73 26t70 -26q29 -26 29 -69.5t-29 -72.5z" />
    <glyph glyph-name="copyright" unicode="&#xa9;" horiz-adv-x="1654" 
d="M825 1378q144 0 277.5 -54t233 -145.5t159 -222.5t59.5 -276q3 -144 -57.5 -276t-161.5 -225.5t-235.5 -148t-274.5 -50.5q-143 0 -276.5 54t-232.5 146.5t-158.5 223.5t-59.5 276t60.5 276t160.5 223t233 146t273 53zM231 680q-3 -156 80.5 -291.5t222 -213t291.5 -73.5
q114 -3 224.5 43.5t192.5 125t131.5 186.5t47.5 223q3 153 -81 288t-223 213.5t-292 75.5q-116 0 -224.5 -45.5t-190 -122t-130.5 -184t-49 -225.5zM836 1079q132 0 231 -51l-12 -119q-93 43 -213 43q-123 0 -204 -76t-81 -194q0 -122 80.5 -198t208.5 -76q126 0 221 53
l16 -121q-111 -57 -245 -57q-184 0 -303 110q-121 115 -121 287t121 287q118 112 301 112z" />
    <glyph glyph-name="ordfeminine" unicode="&#xaa;" horiz-adv-x="849" 
d="M688 770h-123v84q-31 -43 -85.5 -68.5t-117.5 -25.5q-93 0 -151.5 48.5t-58.5 127.5q0 85 71.5 132.5t194.5 47.5q72 0 141 -16v39q0 123 -166 123q-51 0 -105 -12.5t-89 -32.5l-17 112q81 49 224 49q145 0 213.5 -59.5t68.5 -179.5v-369zM688 651v-121h-524v121h524z
M383 862q75 0 125.5 37.5t50.5 93.5v11q-65 18 -143 18q-68 0 -106 -21t-38 -61q0 -37 31 -57.5t80 -20.5z" />
    <glyph glyph-name="guillemotleft" unicode="&#xab;" horiz-adv-x="972" 
d="M268 479l258 -393h-170l-270 393l270 395h170zM618 479l259 -393h-170l-273 393l273 395h170z" />
    <glyph glyph-name="logicalnot" unicode="&#xac;" horiz-adv-x="1323" 
d="M1184 428h-162v391h-920v160h1082v-551z" />
    <glyph glyph-name="uni00AD" unicode="&#xad;" horiz-adv-x="854" 
d="M143 651h568v-151h-568v151z" />
    <glyph glyph-name="registered" unicode="&#xae;" horiz-adv-x="1247" 
d="M86 1047q0 218 154 366q156 150 381 150q110 0 210.5 -40t173 -108.5t115.5 -164.5t43 -203q0 -222 -155 -371q-157 -148 -387 -148q-144 -3 -268 65.5t-196.5 189.5t-70.5 264zM205 1047q0 -176 119 -289q121 -115 297 -115q179 0 303 115q123 114 123 289
q0 172 -125 288q-123 117 -301 117q-177 0 -297 -117q-119 -113 -119 -288zM631 940h-119v-154h-117v529h246q87 0 145 -54t58 -135q0 -49 -26 -91.5t-70 -67.5l124 -181h-139zM641 1214h-129v-176h129q36 0 58 25t22 63q0 41 -21.5 64.5t-58.5 23.5z" />
    <glyph glyph-name="overscore" unicode="&#xaf;" horiz-adv-x="929" 
d="M760 1671v-125h-590v125h590z" />
    <glyph glyph-name="degree" unicode="&#xb0;" horiz-adv-x="897" 
d="M92 1026q0 151 101 252q100 100 253 100q156 0 256 -100q103 -103 103 -252q0 -150 -103 -250q-101 -98 -256 -98q-152 0 -253 98t-101 250zM227 1024q0 -96 62.5 -159.5t156.5 -63.5q96 0 158 63t62 160q0 100 -61.5 164.5t-158.5 64.5q-94 0 -156.5 -65t-62.5 -164z
" />
    <glyph glyph-name="plusminus" unicode="&#xb1;" horiz-adv-x="1306" 
d="M733 442h-162v381h-424v158h424v375h162v-375h426v-158h-426v-381zM131 213h1045v-160h-1045v160z" />
    <glyph glyph-name="twosuperior" unicode="&#xb2;" horiz-adv-x="716" 
d="M426 811l-172 -158h389v-114h-565v102l256 248q72 69 103.5 122.5t31.5 108.5q0 68 -42.5 105t-115.5 37q-91 0 -202 -66l-21 119q114 63 238 63q129 0 203.5 -68t74.5 -190q0 -82 -45 -155t-133 -154z" />
    <glyph glyph-name="threesuperior" unicode="&#xb3;" horiz-adv-x="743" 
d="M195 897v100l243 246h-332v115h517v-98l-240 -234q131 -1 211 -71.5t80 -176.5q0 -128 -99 -196q-100 -68 -247 -68q-145 0 -262 66l18 120q128 -67 231 -67q104 0 162 37t58 100q0 72 -57 111t-148 39q-51 0 -135 -23z" />
    <glyph glyph-name="acute" unicode="&#xb4;" horiz-adv-x="665" 
d="M315 1806h181l-189 -333h-137z" />
    <glyph glyph-name="mu" unicode="&#xb5;" horiz-adv-x="1255" 
d="M588 -20q-166 0 -246 83v-462h-160v1360h160v-504q0 -166 64.5 -246t205.5 -80q130 0 215.5 79.5t85.5 207.5v543h158v-961h-158v143q-44 -72 -131 -117.5t-194 -45.5z" />
    <glyph glyph-name="paragraph" unicode="&#xb6;" horiz-adv-x="1224" 
d="M66 934q0 184 127 305q128 119 319 119h590v-103h-328v-1654h-131v909h-131q-190 0 -319 117q-127 121 -127 307zM1036 1118v-1517h-116v1517h116z" />
    <glyph glyph-name="middot" unicode="&#xb7;" horiz-adv-x="473" 
d="M236 549q43 0 71.5 -28.5t28.5 -71.5q0 -41 -29 -70t-71 -29t-70.5 28.5t-28.5 70.5q0 43 28.5 71.5t70.5 28.5z" />
    <glyph glyph-name="cedilla" unicode="&#xb8;" horiz-adv-x="686" 
d="M250 -186h-60l82 213h103l-41 -123q94 -8 149.5 -52.5t55.5 -113.5q0 -86 -69 -135t-191 -49q-86 0 -136 20v113q59 -19 125 -19q127 0 127 70q0 76 -145 76z" />
    <glyph glyph-name="onesuperior" unicode="&#xb9;" horiz-adv-x="471" 
d="M338 532h-131v711h-166v115h297v-826z" />
    <glyph glyph-name="ordmasculine" unicode="&#xba;" horiz-adv-x="933" 
d="M147 1067q0 130 91 221q93 90 229 90q137 0 225 -88q92 -89 92 -223q0 -132 -92 -221q-89 -86 -225 -86q-137 0 -229 86q-91 91 -91 221zM766 651v-121h-598v121h598zM279 1067q0 -79 53 -131.5t133 -52.5q82 0 135 52t53 132q0 82 -53 135t-135 53q-80 0 -133 -53.5
t-53 -134.5z" />
    <glyph glyph-name="guillemotright" unicode="&#xbb;" horiz-adv-x="972" 
d="M889 479l-273 -393h-170l259 393l-259 395h170zM539 479l-273 -393h-170l258 393l-258 395h170z" />
    <glyph glyph-name="onequarter" unicode="&#xbc;" horiz-adv-x="1521" 
d="M1116 825h144l-263 -512h254v211h131v-211h117v-114h-117v-199h-131v199h-401v100zM420 0h-125v27l733 1331h123v-25zM365 532h-134v711h-163v115h297v-826z" />
    <glyph glyph-name="onehalf" unicode="&#xbd;" horiz-adv-x="1665" 
d="M420 0h-125v27l733 1331h123v-25zM1350 272l-172 -157h389v-115h-566v102l256 248q74 74 105 126t31 106q0 68 -42.5 104.5t-115.5 36.5q-96 0 -203 -64l-20 117q116 64 237 64q129 0 205 -67.5t76 -188.5q0 -82 -46 -156.5t-134 -155.5zM365 532h-134v711h-163v115h297
v-826z" />
    <glyph glyph-name="threequarters" unicode="&#xbe;" horiz-adv-x="1712" 
d="M612 0h-125v27l734 1331h125v-25zM1309 825h143l-260 -512h252v211h133v-211h115v-114h-115v-199h-133v199h-402v100zM193 897v100l243 246h-332v115h517v-98l-238 -234q129 -1 209 -71.5t80 -176.5q0 -126 -95 -195t-249 -69q-151 0 -265 66l19 120q131 -67 233 -67
q103 0 160 37t57 100q0 72 -56 111t-146 39q-53 0 -137 -23z" />
    <glyph glyph-name="questiondown" unicode="&#xbf;" horiz-adv-x="903" 
d="M453 389l14 234h137l12 -314q-127 -51 -208 -104q-172 -107 -172 -246q0 -107 75 -167t201 -60q77 0 157 22.5t138 59.5l39 -140q-154 -92 -346 -92t-308 99.5t-116 271.5q0 273 377 436zM537 971q43 0 71.5 -29t28.5 -72q0 -41 -28.5 -68.5t-71.5 -27.5t-71 27.5
t-28 68.5q0 43 29 72t70 29z" />
    <glyph glyph-name="Agrave" unicode="&#xc0;" horiz-adv-x="1347" 
d="M578 1358h194l561 -1358h-174l-125 315h-717l-127 -315h-174zM981 457l-305 729l-307 -729h612zM602 1473l-188 333h180l147 -333h-139z" />
    <glyph glyph-name="Aacute" unicode="&#xc1;" horiz-adv-x="1347" 
d="M578 1358h194l561 -1358h-174l-125 315h-717l-127 -315h-174zM981 457l-305 729l-307 -729h612zM766 1806h180l-188 -333h-140z" />
    <glyph glyph-name="Acircumflex" unicode="&#xc2;" horiz-adv-x="1347" 
d="M578 1358h194l561 -1358h-174l-125 315h-717l-127 -315h-174zM981 457l-305 729l-307 -729h612zM639 1839h74l274 -369h-156l-155 222l-156 -222h-155z" />
    <glyph glyph-name="Atilde" unicode="&#xc3;" horiz-adv-x="1347" 
d="M578 1358h194l561 -1358h-174l-125 315h-717l-127 -315h-174zM981 457l-305 729l-307 -729h612zM559 1614q-36 0 -62 -17t-67 -63l-84 72q91 143 209 143q56 0 129 -43q77 -41 117 -41t68.5 19t62.5 63l82 -76q-46 -70 -95.5 -103.5t-115.5 -33.5q-59 0 -133 39
q-74 41 -111 41z" />
    <glyph glyph-name="Adieresis" unicode="&#xc4;" horiz-adv-x="1347" 
d="M578 1358h194l561 -1358h-174l-125 315h-717l-127 -315h-174zM981 457l-305 729l-307 -729h612zM498 1518q-43 0 -71 27.5t-28 70.5t28 70.5t71 27.5t70.5 -27.5t27.5 -70.5t-27.5 -70.5t-70.5 -27.5zM752 1616q0 43 27.5 70.5t70.5 27.5t69.5 -27.5t26.5 -70.5
t-26.5 -70.5t-69.5 -27.5t-70.5 27.5t-27.5 70.5z" />
    <glyph glyph-name="Aring" unicode="&#xc5;" horiz-adv-x="1347" 
d="M578 1358h194l561 -1358h-174l-125 315h-717l-127 -315h-174zM981 457l-305 729l-307 -729h612zM465 1692q0 88 59.5 145t151.5 57t152.5 -57t60.5 -145q0 -86 -60.5 -142.5t-152.5 -56.5t-151.5 56.5t-59.5 142.5zM573 1692q0 -43 29.5 -72t73.5 -29t73 29t29 72
q0 44 -29 74t-73 30t-73.5 -30t-29.5 -74z" />
    <glyph glyph-name="AE" unicode="&#xc6;" horiz-adv-x="1972" 
d="M1872 0h-975v315h-555l-197 -315h-184l836 1358h1052v-150h-786v-436h682v-149h-682v-473h809v-150zM897 457v751l-469 -751h469z" />
    <glyph glyph-name="Ccedilla" unicode="&#xc7;" horiz-adv-x="1370" 
d="M766 -186h-59l63 172q-298 27 -485 217q-183 192 -183 477q0 153 55.5 283t154.5 221.5t240.5 142.5t309.5 51q117 0 226 -24t186 -62l-17 -153q-177 82 -397 82q-258 0 -422 -150q-162 -149 -162 -391q0 -244 168 -393q170 -150 441 -150q89 0 182 19q124 26 205 69
l26 -157q-165 -73 -337 -82q-8 -1 -20.5 -1.5t-32 -1t-34.5 -1.5l-24 -78q93 -8 148 -52.5t55 -113.5q0 -88 -68.5 -136t-191.5 -48q-86 0 -136 20v113q59 -19 125 -19q127 0 127 70q0 76 -143 76z" />
    <glyph glyph-name="Egrave" unicode="&#xc8;" horiz-adv-x="1294" 
d="M1194 150v-150h-995v1358h972v-150h-809v-436h705v-149h-705v-473h832zM657 1473l-188 333h180l148 -333h-140z" />
    <glyph glyph-name="Eacute" unicode="&#xc9;" horiz-adv-x="1294" 
d="M1194 150v-150h-995v1358h972v-150h-809v-436h705v-149h-705v-473h832zM811 1806h180l-188 -333h-139z" />
    <glyph glyph-name="Ecircumflex" unicode="&#xca;" horiz-adv-x="1294" 
d="M1194 150v-150h-995v1358h972v-150h-809v-436h705v-149h-705v-473h832zM666 1839h73l275 -369h-156l-156 222l-155 -222h-156z" />
    <glyph glyph-name="Edieresis" unicode="&#xcb;" horiz-adv-x="1294" 
d="M1194 150v-150h-995v1358h972v-150h-809v-436h705v-149h-705v-473h832zM518 1518q-59 -5 -83.5 46.5t0 103t83.5 46.5q43 0 70.5 -27.5t27.5 -70.5t-27.5 -70.5t-70.5 -27.5zM870 1518q-44 0 -71 27.5t-27 70.5q-3 32 15 56.5t45 35t57.5 5.5t50.5 -27q22 -20 27 -50.5
t-5.5 -57.5t-35 -45t-56.5 -15z" />
    <glyph glyph-name="Igrave" unicode="&#xcc;" horiz-adv-x="561" 
d="M362 0h-163v1358h163v-1358zM215 1473l-188 333h180l147 -333h-139z" />
    <glyph glyph-name="Iacute" unicode="&#xcd;" horiz-adv-x="561" 
d="M362 0h-163v1358h163v-1358zM369 1806h180l-189 -333h-139z" />
    <glyph glyph-name="Icircumflex" unicode="&#xce;" horiz-adv-x="561" 
d="M362 0h-163v1358h163v-1358zM248 1839h74l274 -369h-156l-155 222l-156 -222h-156z" />
    <glyph glyph-name="Idieresis" unicode="&#xcf;" horiz-adv-x="561" 
d="M362 0h-163v1358h163v-1358zM8 1616q0 43 27.5 70.5t70.5 27.5q42 0 70.5 -30t28.5 -68t-29 -72q-20 -21 -51 -25t-58 6t-45 35t-14 56zM457 1518q-43 0 -71 27.5t-28 70.5t28 70.5t71 27.5q61 5 86 -46.5t0 -103t-86 -46.5z" />
    <glyph glyph-name="Eth" unicode="&#xd0;" horiz-adv-x="1556" 
d="M207 768v590h557q221 0 376.5 -87t231.5 -238.5t76 -354.5q0 -321 -178 -499.5t-508 -178.5h-555v625h-144v143h144zM754 1206h-381v-438h501v-143h-501v-473h381q258 0 392 135.5t134 390.5q0 253 -135 390.5t-391 137.5z" />
    <glyph glyph-name="Ntilde" unicode="&#xd1;" horiz-adv-x="1658" 
d="M1294 1358h166v-1358h-174l-921 1110v-1110h-166v1358h172l923 -1112v1112zM709 1614q-35 0 -61.5 -17.5t-65.5 -62.5l-86 72q91 143 209 143q49 0 131.5 -42t113.5 -42q39 0 67.5 18.5t65.5 63.5l80 -76q-44 -69 -94.5 -103t-116.5 -34q-48 0 -131.5 40t-111.5 40z" />
    <glyph glyph-name="Ograve" unicode="&#xd2;" horiz-adv-x="1634" 
d="M102 672q-2 148 53 280.5t151 226.5t228 147.5t279 51.5q201 3 367.5 -89t261.5 -255.5t92 -361.5q0 -201 -94 -359.5t-258.5 -245.5t-368.5 -87q-147 -3 -279 49t-228 143.5t-151 222t-53 277.5zM272 674q0 -239 152 -391q153 -150 389 -150q242 0 395 150
q156 150 156 391q0 240 -156 393q-153 156 -395 156q-236 0 -389 -156q-152 -155 -152 -393zM764 1473l-189 333h181l145 -333h-137z" />
    <glyph glyph-name="Oacute" unicode="&#xd3;" horiz-adv-x="1634" 
d="M102 672q-2 148 53 280.5t151 226.5t228 147.5t279 51.5q201 3 367.5 -89t261.5 -255.5t92 -361.5q0 -201 -94 -359.5t-258.5 -245.5t-368.5 -87q-147 -3 -279 49t-228 143.5t-151 222t-53 277.5zM272 674q0 -239 152 -391q153 -150 389 -150q242 0 395 150
q156 150 156 391q0 240 -156 393q-153 156 -395 156q-236 0 -389 -156q-152 -155 -152 -393zM932 1806h180l-188 -333h-140z" />
    <glyph glyph-name="Ocircumflex" unicode="&#xd4;" horiz-adv-x="1634" 
d="M102 672q-2 148 53 280.5t151 226.5t228 147.5t279 51.5q201 3 367.5 -89t261.5 -255.5t92 -361.5q0 -201 -94 -359.5t-258.5 -245.5t-368.5 -87q-147 -3 -279 49t-228 143.5t-151 222t-53 277.5zM272 674q0 -239 152 -391q153 -150 389 -150q242 0 395 150
q156 150 156 391q0 240 -156 393q-153 156 -395 156q-236 0 -389 -156q-152 -155 -152 -393zM780 1839h74l274 -369h-155l-156 222l-155 -222h-156z" />
    <glyph glyph-name="Otilde" unicode="&#xd5;" horiz-adv-x="1634" 
d="M102 672q-2 148 53 280.5t151 226.5t228 147.5t279 51.5q201 3 367.5 -89t261.5 -255.5t92 -361.5q0 -201 -94 -359.5t-258.5 -245.5t-368.5 -87q-147 -3 -279 49t-228 143.5t-151 222t-53 277.5zM272 674q0 -239 152 -391q153 -150 389 -150q242 0 395 150
q156 150 156 391q0 240 -156 393q-153 156 -395 156q-236 0 -389 -156q-152 -155 -152 -393zM696 1614q-37 0 -63.5 -17.5t-63.5 -62.5l-86 72q91 143 207 143q50 0 133 -42t115 -42q40 0 68.5 19t62.5 63l82 -76q-44 -69 -95 -103t-118 -34q-46 0 -130.5 40t-111.5 40z" />
    <glyph glyph-name="Odieresis" unicode="&#xd6;" horiz-adv-x="1634" 
d="M102 672q-2 148 53 280.5t151 226.5t228 147.5t279 51.5q201 3 367.5 -89t261.5 -255.5t92 -361.5q0 -201 -94 -359.5t-258.5 -245.5t-368.5 -87q-147 -3 -279 49t-228 143.5t-151 222t-53 277.5zM272 674q0 -239 152 -391q153 -150 389 -150q242 0 395 150
q156 150 156 391q0 240 -156 393q-153 156 -395 156q-236 0 -389 -156q-152 -155 -152 -393zM639 1518q-43 0 -70.5 27.5t-27.5 70.5t27.5 70.5t70.5 27.5t70.5 -27.5t27.5 -70.5t-27.5 -70.5t-70.5 -27.5zM893 1616q0 43 26.5 70.5t69.5 27.5q67 0 93 -61.5t-21 -108.5
q-20 -21 -51 -25t-58 6t-45 35t-14 56z" />
    <glyph glyph-name="multiply" unicode="&#xd7;" horiz-adv-x="1212" 
d="M987 1165l115 -112l-383 -383l383 -381l-115 -115l-381 383l-383 -383l-112 115l383 381l-383 383l112 112l383 -383z" />
    <glyph glyph-name="Oslash" unicode="&#xd8;" horiz-adv-x="1636" 
d="M102 672q-2 148 53.5 280.5t151 226.5t228.5 147.5t280 51.5q191 0 346 -82l117 168l129 -88l-117 -164q118 -97 181 -236t63 -304q0 -151 -54.5 -280t-149.5 -219.5t-228.5 -141.5t-286.5 -51q-180 0 -334 71l-114 -166l-125 90l110 158q-120 95 -185 234t-65 305z
M274 674q0 -255 170 -408l625 899q-113 58 -254 58q-236 0 -389 -156q-152 -155 -152 -393zM1364 674q0 122 -43 225.5t-123 177.5l-625 -895q107 -49 242 -49q242 0 395 150q154 151 154 391z" />
    <glyph glyph-name="Ugrave" unicode="&#xd9;" horiz-adv-x="1544" 
d="M184 485v873h164v-864q0 -168 114.5 -263.5t307.5 -95.5q195 0 309.5 96.5t114.5 262.5v864h166v-873q0 -159 -78 -274.5t-210 -173t-302 -57.5q-266 0 -426 133q-160 136 -160 372zM725 1473l-188 333h180l147 -333h-139z" />
    <glyph glyph-name="Uacute" unicode="&#xda;" horiz-adv-x="1544" 
d="M184 485v873h164v-864q0 -168 114.5 -263.5t307.5 -95.5q195 0 309.5 96.5t114.5 262.5v864h166v-873q0 -159 -78 -274.5t-210 -173t-302 -57.5q-266 0 -426 133q-160 136 -160 372zM834 1806h180l-189 -333h-139z" />
    <glyph glyph-name="Ucircumflex" unicode="&#xdb;" horiz-adv-x="1544" 
d="M184 485v873h164v-864q0 -168 114.5 -263.5t307.5 -95.5q195 0 309.5 96.5t114.5 262.5v864h166v-873q0 -159 -78 -274.5t-210 -173t-302 -57.5q-266 0 -426 133q-160 136 -160 372zM733 1839h74l274 -369h-155l-156 222l-156 -222h-155z" />
    <glyph glyph-name="Udieresis" unicode="&#xdc;" horiz-adv-x="1544" 
d="M184 485v873h164v-864q0 -168 114.5 -263.5t307.5 -95.5q195 0 309.5 96.5t114.5 262.5v864h166v-873q0 -159 -78 -274.5t-210 -173t-302 -57.5q-266 0 -426 133q-160 136 -160 372zM844 1616q0 43 27.5 70.5t70.5 27.5q42 0 70.5 -30t28.5 -68t-29 -72q-20 -21 -51 -25
t-58 6t-45 35t-14 56zM592 1518q-43 0 -70.5 27.5t-27.5 70.5t27.5 70.5t70.5 27.5t70.5 -27.5t27.5 -70.5t-27.5 -70.5t-70.5 -27.5z" />
    <glyph glyph-name="Yacute" unicode="&#xdd;" horiz-adv-x="1265" 
d="M551 530l-535 828h197l420 -660l420 660h196l-534 -828v-530h-164v530zM709 1806h180l-189 -333h-139z" />
    <glyph glyph-name="Thorn" unicode="&#xde;" horiz-adv-x="1351" 
d="M199 0v1358h166v-209h415q96 0 180 -29t151 -84.5t105.5 -146.5t38.5 -207q0 -210 -137.5 -336.5t-337.5 -126.5h-415v-219h-166zM750 995h-385v-626h385q153 0 245 84.5t92 226.5q0 152 -89.5 233.5t-247.5 81.5z" />
    <glyph glyph-name="germandbls" unicode="&#xdf;" horiz-adv-x="1292" 
d="M606 635v143q127 0 232.5 80.5t105.5 185.5q0 115 -80.5 178.5t-226.5 63.5q-144 0 -227.5 -88.5t-83.5 -255.5v-942h-160v950q0 224 123.5 350.5t353.5 126.5q217 0 340 -100.5t123 -279.5q0 -104 -62.5 -189.5t-162.5 -120.5q149 -29 235 -127.5t86 -240.5
q0 -180 -124 -284.5t-339 -104.5q-122 0 -231 36l18 142q95 -39 209 -39q137 0 221 66.5t84 183.5q0 127 -92 197.5t-254 70.5q-14 0 -34.5 -0.5t-36 -1t-17.5 -0.5z" />
    <glyph glyph-name="agrave" unicode="&#xe0;" horiz-adv-x="1271" 
d="M946 961h160v-961h-160v158q-57 -82 -152.5 -130t-215.5 -48q-210 0 -347 143q-139 145 -139 360t139 357q138 141 347 141q121 0 216 -47.5t152 -130.5v158zM594 836q-151 0 -246 -103q-96 -104 -96 -250q0 -149 96 -256q94 -102 246 -102q150 0 252 102
q102 105 102 256q0 148 -102 250q-103 103 -252 103zM518 1114l-186 336h180l145 -336h-139z" />
    <glyph glyph-name="aacute" unicode="&#xe1;" horiz-adv-x="1271" 
d="M946 961h160v-961h-160v158q-57 -82 -152.5 -130t-215.5 -48q-210 0 -347 143q-139 145 -139 360t139 357q138 141 347 141q121 0 216 -47.5t152 -130.5v158zM594 836q-151 0 -246 -103q-96 -104 -96 -250q0 -149 96 -256q94 -102 246 -102q150 0 252 102
q102 105 102 256q0 148 -102 250q-103 103 -252 103zM696 1450h181l-189 -336h-137z" />
    <glyph glyph-name="acircumflex" unicode="&#xe2;" horiz-adv-x="1271" 
d="M946 961h160v-961h-160v158q-57 -82 -152.5 -130t-215.5 -48q-210 0 -347 143q-139 145 -139 360t139 357q138 141 347 141q121 0 216 -47.5t152 -130.5v158zM594 836q-151 0 -246 -103q-96 -104 -96 -250q0 -149 96 -256q94 -102 246 -102q150 0 252 102
q102 105 102 256q0 148 -102 250q-103 103 -252 103zM547 1454h74l274 -369h-156l-155 222l-156 -222h-156z" />
    <glyph glyph-name="atilde" unicode="&#xe3;" horiz-adv-x="1271" 
d="M946 961h160v-961h-160v158q-57 -82 -152.5 -130t-215.5 -48q-210 0 -347 143q-139 145 -139 360t139 357q138 141 347 141q121 0 216 -47.5t152 -130.5v158zM594 836q-151 0 -246 -103q-96 -104 -96 -250q0 -149 96 -256q94 -102 246 -102q150 0 252 102
q102 105 102 256q0 148 -102 250q-103 103 -252 103zM469 1255q-37 0 -63.5 -17.5t-63.5 -61.5l-86 71q92 142 209 142q49 0 132 -40t114 -40q41 0 70.5 18.5t62.5 61.5l80 -76q-44 -69 -94.5 -103t-116.5 -34q-48 0 -132 39.5t-112 39.5z" />
    <glyph glyph-name="adieresis" unicode="&#xe4;" horiz-adv-x="1271" 
d="M946 961h160v-961h-160v158q-57 -82 -152.5 -130t-215.5 -48q-210 0 -347 143q-139 145 -139 360t139 357q138 141 347 141q121 0 216 -47.5t152 -130.5v158zM594 836q-151 0 -246 -103q-96 -104 -96 -250q0 -149 96 -256q94 -102 246 -102q150 0 252 102
q102 105 102 256q0 148 -102 250q-103 103 -252 103zM403 1184q-43 0 -69.5 26.5t-26.5 69.5t26.5 70.5t69.5 27.5q62 5 87.5 -46.5t0 -102.5t-87.5 -45zM756 1184q-43 0 -71 27t-28 69q0 43 28 70.5t71 27.5t70.5 -27.5t27.5 -70.5t-27.5 -69.5t-70.5 -26.5z" />
    <glyph glyph-name="aring" unicode="&#xe5;" horiz-adv-x="1271" 
d="M946 961h160v-961h-160v158q-57 -82 -152.5 -130t-215.5 -48q-210 0 -347 143q-139 145 -139 360t139 357q138 141 347 141q121 0 216 -47.5t152 -130.5v158zM594 836q-151 0 -246 -103q-96 -104 -96 -250q0 -149 96 -256q94 -102 246 -102q150 0 252 102
q102 105 102 256q0 148 -102 250q-103 103 -252 103zM371 1286q0 88 60.5 146.5t152.5 58.5t151.5 -58.5t59.5 -146.5q0 -86 -59.5 -142.5t-151.5 -56.5t-152.5 56.5t-60.5 142.5zM481 1286q0 -43 28.5 -70.5t72.5 -27.5q47 0 74.5 27.5t27.5 70.5q7 64 -47.5 91t-108.5 0
t-47 -91z" />
    <glyph glyph-name="ae" unicode="&#xe6;" horiz-adv-x="1748" 
d="M1579 217l27 -143q-149 -94 -330 -94q-142 0 -255 59t-179 168q-54 -105 -165.5 -166t-250.5 -61q-155 0 -248.5 75.5t-93.5 204.5q0 136 117 214.5t319 78.5q136 0 254 -31v72q0 117 -75.5 178.5t-221.5 61.5q-79 0 -168 -21t-149 -53l-17 141q65 36 160 58t184 22
q284 0 385 -174q133 172 351 172q145 2 253.5 -75.5t154.5 -205.5t20 -272h-727q18 -137 113 -217t231 -80q84 0 155 19.5t156 68.5zM444 111q129 0 224 71q97 76 106 176v48q-120 30 -258 30q-129 0 -203.5 -45.5t-74.5 -124.5q0 -73 56 -114t150 -41zM930 557h573
q-8 125 -82 201t-194 76q-121 0 -205 -78q-83 -77 -92 -199z" />
    <glyph glyph-name="ccedilla" unicode="&#xe7;" horiz-adv-x="1011" 
d="M512 -186h-57l65 176q-192 30 -311 164q-117 132 -117 329q0 221 150 359q151 139 391 139q83 0 161.5 -19.5t125.5 -46.5l-17 -143q-121 59 -270 59q-168 0 -275 -96q-104 -94 -104 -252t104 -256q107 -98 277 -98q147 0 276 61l27 -145q-145 -65 -303 -65h-12l-25 -76
q93 -8 148 -52.5t55 -113.5q0 -86 -68.5 -135t-189.5 -49q-85 0 -135 20v113q59 -19 122 -19q129 0 129 70q0 76 -147 76z" />
    <glyph glyph-name="egrave" unicode="&#xe8;" horiz-adv-x="1144" 
d="M973 217l26 -143q-163 -94 -360 -94q-244 0 -395 139q-152 140 -152 360q0 214 139 359q137 143 355 143q154 2 271 -77.5t166 -209t19 -272.5h-784q20 -135 122.5 -214t250.5 -79q93 0 172.5 20t169.5 68zM262 553h635q-6 125 -89.5 201.5t-217.5 76.5t-226 -77.5
t-102 -200.5zM518 1114l-188 336h180l147 -336h-139z" />
    <glyph glyph-name="eacute" unicode="&#xe9;" horiz-adv-x="1144" 
d="M973 217l26 -143q-163 -94 -360 -94q-244 0 -395 139q-152 140 -152 360q0 214 139 359q137 143 355 143q154 2 271 -77.5t166 -209t19 -272.5h-784q20 -135 122.5 -214t250.5 -79q93 0 172.5 20t169.5 68zM262 553h635q-6 125 -89.5 201.5t-217.5 76.5t-226 -77.5
t-102 -200.5zM672 1450h180l-188 -336h-140z" />
    <glyph glyph-name="ecircumflex" unicode="&#xea;" horiz-adv-x="1144" 
d="M973 217l26 -143q-163 -94 -360 -94q-244 0 -395 139q-152 140 -152 360q0 214 139 359q137 143 355 143q154 2 271 -77.5t166 -209t19 -272.5h-784q20 -135 122.5 -214t250.5 -79q93 0 172.5 20t169.5 68zM262 553h635q-6 125 -89.5 201.5t-217.5 76.5t-226 -77.5
t-102 -200.5zM551 1454h74l274 -369h-156l-153 222l-158 -222h-156z" />
    <glyph glyph-name="edieresis" unicode="&#xeb;" horiz-adv-x="1144" 
d="M973 217l26 -143q-163 -94 -360 -94q-244 0 -395 139q-152 140 -152 360q0 214 139 359q137 143 355 143q154 2 271 -77.5t166 -209t19 -272.5h-784q20 -135 122.5 -214t250.5 -79q93 0 172.5 20t169.5 68zM262 553h635q-6 125 -89.5 201.5t-217.5 76.5t-226 -77.5
t-102 -200.5zM317 1280q0 43 28 70.5t71 27.5q33 3 57.5 -15t33.5 -45.5t4.5 -58t-24.5 -51.5t-51 -25t-58.5 6t-46 35t-14.5 56zM768 1182q-43 0 -70.5 27.5t-27.5 70.5t27.5 70.5t70.5 27.5t70.5 -27.5t27.5 -70.5t-27.5 -70.5t-70.5 -27.5z" />
    <glyph glyph-name="igrave" unicode="&#xec;" horiz-adv-x="491" 
d="M326 0h-160v961h160v-961zM170 1114l-186 336h180l145 -336h-139z" />
    <glyph glyph-name="iacute" unicode="&#xed;" horiz-adv-x="491" 
d="M326 0h-160v961h160v-961zM324 1450h180l-189 -336h-139z" />
    <glyph glyph-name="icircumflex" unicode="&#xee;" horiz-adv-x="491" 
d="M326 0h-160v961h160v-961zM209 1456h72l274 -369h-156l-153 222l-158 -222h-156z" />
    <glyph glyph-name="idieresis" unicode="&#xef;" horiz-adv-x="491" 
d="M326 0h-160v961h160v-961zM-29 1282q0 43 28 70.5t71 27.5q67 0 92.5 -61.5t-21.5 -108.5q-20 -20 -51 -24.5t-58.5 5t-46 34t-14.5 57.5zM422 1184q-43 0 -70.5 27t-27.5 71q0 43 27.5 70.5t70.5 27.5t70.5 -27.5t27.5 -70.5t-27.5 -70.5t-70.5 -27.5z" />
    <glyph glyph-name="eth" unicode="&#xf0;" horiz-adv-x="1165" 
d="M827 1507l76 -110l-162 -121q153 -136 233.5 -324t80.5 -413q0 -257 -133 -408t-347 -151t-346 129q-133 130 -133 333q0 207 127 334q129 129 336 129q102 0 185 -40t128 -103q-19 113 -84 224t-167 200l-238 -178l-82 110l203 150q-84 50 -191 86l80 127
q121 -45 238 -117zM256 442q0 -140 86 -227.5t225 -87.5t226.5 87.5t87.5 227.5q0 143 -87.5 232.5t-226.5 89.5t-225 -89.5t-86 -232.5z" />
    <glyph glyph-name="ntilde" unicode="&#xf1;" horiz-adv-x="1204" 
d="M647 981q190 0 298 -106t108 -291v-584h-158v545q0 139 -70.5 211.5t-201.5 72.5q-129 0 -213 -80t-84 -206v-543h-160v961h160v-146q44 74 129.5 120t191.5 46zM496 1255q-36 0 -62.5 -17t-64.5 -62l-86 71q91 144 209 144q49 0 131.5 -41t113.5 -41q40 0 68 17.5
t65 62.5l80 -76q-44 -69 -94.5 -103t-116.5 -34q-48 0 -131.5 39.5t-111.5 39.5z" />
    <glyph glyph-name="ograve" unicode="&#xf2;" horiz-adv-x="1202" 
d="M238 125q-148 145 -148 354q0 211 146 357q148 145 364 145q220 0 365 -145t145 -357q0 -211 -145 -356q-143 -143 -365 -143q-217 0 -362 145zM350 729q-100 -100 -100 -250t100 -250q102 -102 250 -102q150 0 252 102q100 100 100 250t-100 250q-102 102 -252 102
q-148 0 -250 -102zM506 1114l-189 336h181l145 -336h-137z" />
    <glyph glyph-name="oacute" unicode="&#xf3;" horiz-adv-x="1202" 
d="M238 125q-148 145 -148 354q0 211 146 357q148 145 364 145q220 0 365 -145t145 -357q0 -211 -145 -356q-143 -143 -365 -143q-217 0 -362 145zM350 729q-100 -100 -100 -250t100 -250q102 -102 250 -102q150 0 252 102q100 100 100 250t-100 250q-102 102 -252 102
q-148 0 -250 -102zM668 1450h180l-189 -336h-139z" />
    <glyph glyph-name="ocircumflex" unicode="&#xf4;" horiz-adv-x="1202" 
d="M238 125q-148 145 -148 354q0 211 146 357q148 145 364 145q220 0 365 -145t145 -357q0 -211 -145 -356q-143 -143 -365 -143q-217 0 -362 145zM350 729q-100 -100 -100 -250t100 -250q102 -102 250 -102q150 0 252 102q100 100 100 250t-100 250q-102 102 -252 102
q-148 0 -250 -102zM567 1454h74l274 -369h-155l-156 222l-155 -222h-156z" />
    <glyph glyph-name="otilde" unicode="&#xf5;" horiz-adv-x="1202" 
d="M238 125q-148 145 -148 354q0 211 146 357q148 145 364 145q220 0 365 -145t145 -357q0 -211 -145 -356q-143 -143 -365 -143q-217 0 -362 145zM350 729q-100 -100 -100 -250t100 -250q102 -102 250 -102q150 0 252 102q100 100 100 250t-100 250q-102 102 -252 102
q-148 0 -250 -102zM483 1255q-36 0 -63.5 -17.5t-63.5 -61.5l-86 71q92 142 209 142q50 0 132 -40t114 -40q42 0 71 18t62 62l80 -76q-44 -69 -94.5 -103t-116.5 -34q-47 0 -130.5 39.5t-113.5 39.5z" />
    <glyph glyph-name="odieresis" unicode="&#xf6;" horiz-adv-x="1202" 
d="M238 125q-148 145 -148 354q0 211 146 357q148 145 364 145q220 0 365 -145t145 -357q0 -211 -145 -356q-143 -143 -365 -143q-217 0 -362 145zM350 729q-100 -100 -100 -250t100 -250q102 -102 250 -102q150 0 252 102q100 100 100 250t-100 250q-102 102 -252 102
q-148 0 -250 -102zM426 1184q-43 0 -70.5 26.5t-27.5 69.5t27.5 70.5t70.5 27.5t70.5 -27.5t27.5 -70.5t-27.5 -69.5t-70.5 -26.5zM680 1280q0 43 26.5 70.5t69.5 27.5t70.5 -27.5t27.5 -70.5t-27.5 -69.5t-70.5 -26.5t-69.5 26.5t-26.5 69.5z" />
    <glyph glyph-name="divide" unicode="&#xf7;" horiz-adv-x="1247" 
d="M111 758h1026v-158h-1026v158zM696 1010q-26 -26 -70 -26t-73 26q-26 29 -26 72t26 69q29 29 73 29t70 -29q29 -26 29 -69t-29 -72zM526 281q0 43 28 70.5t71 27.5q44 0 72 -27.5t28 -70.5q6 -62 -46.5 -87.5t-105.5 0t-47 87.5z" />
    <glyph glyph-name="oslash" unicode="&#xf8;" horiz-adv-x="1150" 
d="M63 479q0 211 146 357q148 145 364 145q144 0 267 -72l157 195l105 -86l-158 -191q139 -145 139 -348q0 -211 -145 -356q-143 -143 -365 -143q-148 0 -264 67l-153 -188l-103 84l152 186q-142 145 -142 350zM223 479q0 -132 80 -227l438 539q-76 40 -168 40
q-147 0 -249 -102q-101 -101 -101 -250zM926 479q0 131 -80 226l-438 -537q77 -41 165 -41q150 0 252 102q101 101 101 250z" />
    <glyph glyph-name="ugrave" unicode="&#xf9;" horiz-adv-x="1173" 
d="M864 414v547h158v-572q0 -182 -119 -295q-120 -114 -317 -114q-198 0 -316 112t-118 291v578h157v-547q0 -133 75.5 -209t203.5 -76t202 76t74 209zM528 1114l-186 336h178l148 -336h-140z" />
    <glyph glyph-name="uacute" unicode="&#xfa;" horiz-adv-x="1173" 
d="M864 414v547h158v-572q0 -182 -119 -295q-120 -114 -317 -114q-198 0 -316 112t-118 291v578h157v-547q0 -133 75.5 -209t203.5 -76t202 76t74 209zM657 1450h181l-189 -336h-139z" />
    <glyph glyph-name="ucircumflex" unicode="&#xfb;" horiz-adv-x="1173" 
d="M864 414v547h158v-572q0 -182 -119 -295q-120 -114 -317 -114q-198 0 -316 112t-118 291v578h157v-547q0 -133 75.5 -209t203.5 -76t202 76t74 209zM547 1456h74l274 -369h-156l-155 222l-156 -222h-156z" />
    <glyph glyph-name="udieresis" unicode="&#xfc;" horiz-adv-x="1173" 
d="M864 414v547h158v-572q0 -182 -119 -295q-120 -114 -317 -114q-198 0 -316 112t-118 291v578h157v-547q0 -133 75.5 -209t203.5 -76t202 76t74 209zM410 1184q-43 0 -71 27t-28 69q0 43 28 70.5t71 27.5t70.5 -27.5t27.5 -70.5t-27.5 -69.5t-70.5 -26.5zM664 1280
q0 43 27.5 70.5t70.5 27.5t69.5 -27.5t26.5 -70.5t-26.5 -69.5t-69.5 -26.5t-70.5 26.5t-27.5 69.5z" />
    <glyph glyph-name="yacute" unicode="&#xfd;" horiz-adv-x="1054" 
d="M205 961l325 -805l322 805h174l-453 -1084q-68 -159 -149.5 -228t-214.5 -69q-104 0 -166 33l20 135q59 -27 136 -27q78 0 131.5 49.5t97.5 157.5l18 45l-415 988h174zM610 1450h181l-189 -336h-139z" />
    <glyph glyph-name="thorn" unicode="&#xfe;" horiz-adv-x="1271" 
d="M166 -399v1808h160v-606q58 84 153 131t215 47q208 0 346 -141q140 -143 140 -357t-140 -360q-137 -143 -346 -143q-119 0 -214 48t-154 130v-557h-160zM680 836q-153 0 -256 -103q-100 -100 -100 -250q0 -153 100 -256q102 -102 256 -102q150 0 244 102q98 104 98 256
q0 149 -98 250q-95 103 -244 103z" />
    <glyph glyph-name="ydieresis" unicode="&#xff;" horiz-adv-x="1054" 
d="M205 961l325 -805l322 805h174l-453 -1084q-68 -159 -149.5 -228t-214.5 -69q-104 0 -166 33l20 135q59 -27 136 -27q78 0 131.5 49.5t97.5 157.5l18 45l-415 988h174zM346 1184q-43 0 -69.5 26.5t-26.5 69.5t26.5 70.5t69.5 27.5q62 5 87.5 -46.5t0 -102.5t-87.5 -45z
M698 1184q-43 0 -70.5 26.5t-27.5 69.5q-4 31 14 56t45 35.5t58 5.5t51 -27q22 -20 27 -50.5t-5.5 -57t-35 -44.5t-56.5 -14z" />
    <glyph glyph-name="Amacron" unicode="&#x100;" horiz-adv-x="1347" 
d="M578 1358h194l561 -1358h-174l-125 315h-717l-127 -315h-174zM981 457l-305 729l-307 -729h612zM971 1671v-125h-590v125h590z" />
    <glyph glyph-name="amacron" unicode="&#x101;" horiz-adv-x="1271" 
d="M946 961h160v-961h-160v158q-57 -82 -152.5 -130t-215.5 -48q-210 0 -347 143q-139 145 -139 360t139 357q138 141 347 141q121 0 216 -47.5t152 -130.5v158zM594 836q-151 0 -246 -103q-96 -104 -96 -250q0 -149 96 -256q94 -102 246 -102q150 0 252 102
q102 105 102 256q0 148 -102 250q-103 103 -252 103zM889 1333v-125h-592v125h592z" />
    <glyph glyph-name="Abreve" unicode="&#x102;" horiz-adv-x="1347" 
d="M578 1358h194l561 -1358h-174l-125 315h-717l-127 -315h-174zM981 457l-305 729l-307 -729h612zM403 1759h136q6 -64 43.5 -103.5t93.5 -39.5q57 0 93.5 39.5t41.5 103.5h135q-6 -121 -80.5 -193.5t-191.5 -72.5q-116 0 -190.5 72.5t-80.5 193.5z" />
    <glyph glyph-name="abreve" unicode="&#x103;" horiz-adv-x="1271" 
d="M946 961h160v-961h-160v158q-57 -82 -152.5 -130t-215.5 -48q-210 0 -347 143q-139 145 -139 360t139 357q138 141 347 141q121 0 216 -47.5t152 -130.5v158zM594 836q-151 0 -246 -103q-96 -104 -96 -250q0 -149 96 -256q94 -102 246 -102q150 0 252 102
q102 105 102 256q0 148 -102 250q-103 103 -252 103zM311 1407h135q6 -66 43.5 -105.5t94.5 -39.5t93.5 39.5t41.5 105.5h135q-4 -122 -79 -195t-193 -73q-116 0 -190.5 73t-80.5 195z" />
    <glyph glyph-name="Aogonek" unicode="&#x104;" horiz-adv-x="1366" 
d="M578 1358h194l561 -1358q-91 -27 -155 -100q-62 -74 -62 -121q0 -41 28.5 -64.5t78.5 -23.5q57 0 118 30l39 -116q-74 -47 -180 -47q-98 0 -156.5 48t-58.5 130q0 77 46 145t128 119l-125 315h-717l-127 -315h-174zM981 457l-305 729l-307 -729h612z" />
    <glyph glyph-name="aogonek" unicode="&#x105;" horiz-adv-x="1277" 
d="M946 961h160v-961q-39 -22 -68 -41q-143 -107 -143 -186q0 -39 28.5 -62.5t77.5 -23.5q55 0 119 28l39 -116q-71 -45 -180 -45q-104 0 -163.5 50t-59.5 138q0 73 50.5 140t139.5 120v156q-57 -82 -152.5 -130t-215.5 -48q-210 0 -347 143q-139 145 -139 360t139 357
q138 141 347 141q121 0 216 -47.5t152 -130.5v158zM594 836q-151 0 -246 -103q-96 -104 -96 -250q0 -149 96 -256q94 -102 246 -102q150 0 252 102q102 105 102 256q0 148 -102 250q-103 103 -252 103z" />
    <glyph glyph-name="Cacute" unicode="&#x106;" horiz-adv-x="1370" 
d="M1272 225l26 -157q-114 -49 -200 -66q-113 -22 -226 -22q-342 0 -557 194q-213 195 -213 506q0 153 55.5 283t154.5 221.5t240.5 142.5t309.5 51q117 0 226 -24t186 -62l-17 -153q-177 82 -397 82q-258 0 -422 -150q-162 -149 -162 -391q0 -244 168 -393
q170 -150 441 -150q89 0 182 19q124 26 205 69zM905 1806h180l-188 -333h-137z" />
    <glyph glyph-name="cacute" unicode="&#x107;" horiz-adv-x="1011" 
d="M92 483q0 221 150 359q151 139 391 139q83 0 161.5 -19.5t125.5 -46.5l-17 -143q-121 59 -270 59q-168 0 -275 -96q-104 -94 -104 -252t104 -256q107 -98 277 -98q147 0 276 61l27 -145q-145 -65 -303 -65q-242 0 -393 139q-150 138 -150 364zM690 1450h180l-188 -336
h-139z" />
    <glyph glyph-name="Ccircumflex" unicode="&#x108;" horiz-adv-x="1370" 
d="M1272 225l26 -157q-114 -49 -200 -66q-113 -22 -226 -22q-342 0 -557 194q-213 195 -213 506q0 153 55.5 283t154.5 221.5t240.5 142.5t309.5 51q117 0 226 -24t186 -62l-17 -153q-177 82 -397 82q-258 0 -422 -150q-162 -149 -162 -391q0 -244 168 -393
q170 -150 441 -150q89 0 182 19q124 26 205 69zM780 1839h74l274 -369h-155l-154 222l-157 -222h-156z" />
    <glyph glyph-name="ccircumflex" unicode="&#x109;" horiz-adv-x="1011" 
d="M92 483q0 221 150 359q151 139 391 139q83 0 161.5 -19.5t125.5 -46.5l-17 -143q-121 59 -270 59q-168 0 -275 -96q-104 -94 -104 -252t104 -256q107 -98 277 -98q147 0 276 61l27 -145q-145 -65 -303 -65q-242 0 -393 139q-150 138 -150 364zM559 1456h74l274 -369h-155
l-154 222l-158 -222h-155z" />
    <glyph glyph-name="Cdotaccent" unicode="&#x10a;" horiz-adv-x="1370" 
d="M1272 225l26 -157q-114 -49 -200 -66q-113 -22 -226 -22q-342 0 -557 194q-213 195 -213 506q0 153 55.5 283t154.5 221.5t240.5 142.5t309.5 51q117 0 226 -24t186 -62l-17 -153q-177 82 -397 82q-258 0 -422 -150q-162 -149 -162 -391q0 -244 168 -393
q170 -150 441 -150q89 0 182 19q124 26 205 69zM764 1616q0 43 27.5 70.5t70.5 27.5q44 0 72.5 -27.5t28.5 -70.5q0 -42 -29 -70t-72 -28t-70.5 27.5t-27.5 70.5z" />
    <glyph glyph-name="cdotaccent" unicode="&#x10b;" horiz-adv-x="1011" 
d="M92 483q0 221 150 359q151 139 391 139q83 0 161.5 -19.5t125.5 -46.5l-17 -143q-121 59 -270 59q-168 0 -275 -96q-104 -94 -104 -252t104 -256q107 -98 277 -98q147 0 276 61l27 -145q-145 -65 -303 -65q-242 0 -393 139q-150 138 -150 364zM610 1184q-43 0 -70.5 26.5
t-27.5 69.5q0 44 27.5 72t70.5 28q62 4 87.5 -48t0 -103t-87.5 -45z" />
    <glyph glyph-name="Ccaron" unicode="&#x10c;" horiz-adv-x="1370" 
d="M1272 225l26 -157q-114 -49 -200 -66q-113 -22 -226 -22q-342 0 -557 194q-213 195 -213 506q0 153 55.5 283t154.5 221.5t240.5 142.5t309.5 51q117 0 226 -24t186 -62l-17 -153q-177 82 -397 82q-258 0 -422 -150q-162 -149 -162 -391q0 -244 168 -393
q170 -150 441 -150q89 0 182 19q124 26 205 69zM901 1475h-74l-274 368h156l155 -221l156 221h156z" />
    <glyph glyph-name="ccaron" unicode="&#x10d;" horiz-adv-x="1011" 
d="M92 483q0 221 150 359q151 139 391 139q83 0 161.5 -19.5t125.5 -46.5l-17 -143q-121 59 -270 59q-168 0 -275 -96q-104 -94 -104 -252t104 -256q107 -98 277 -98q147 0 276 61l27 -145q-145 -65 -303 -65q-242 0 -393 139q-150 138 -150 364zM635 1087h-74l-274 369h155
l156 -221l156 221h155z" />
    <glyph glyph-name="Dcaron" unicode="&#x10e;" horiz-adv-x="1546" 
d="M199 0v1358h555q222 0 378.5 -87t232 -238.5t75.5 -354.5q0 -321 -177.5 -499.5t-510.5 -178.5h-553zM743 1206h-381v-1054h381q261 0 395 135.5t134 390.5q0 253 -136 390.5t-393 137.5zM709 1475h-74l-275 368h156l154 -221l157 221h156z" />
    <glyph glyph-name="dcaron" unicode="&#x10f;" horiz-adv-x="1275" 
d="M1427 1409l-38 -391h-129v391h167zM1106 1407v-1407h-160v156q-57 -82 -152.5 -129t-215.5 -47q-207 0 -346.5 143.5t-139.5 357.5q0 215 139 357q137 143 347 143q120 0 215.5 -48t152.5 -130v604h160zM594 125q150 0 252 102q102 105 102 254q0 150 -102 252
q-103 103 -252 103q-151 0 -246 -103q-96 -104 -96 -252q0 -147 96 -254q94 -102 246 -102z" />
    <glyph glyph-name="Dcroat" unicode="&#x110;" horiz-adv-x="1556" 
d="M207 768v590h557q221 0 376.5 -87t231.5 -238.5t76 -354.5q0 -321 -178 -499.5t-508 -178.5h-555v625h-144v143h144zM754 1206h-381v-438h501v-143h-501v-473h381q258 0 392 135.5t134 390.5q0 253 -135 390.5t-391 137.5z" />
    <glyph glyph-name="dslash" unicode="&#x111;" horiz-adv-x="1273" 
d="M1106 0h-160v156q-57 -82 -152.5 -129t-215.5 -47q-207 0 -346.5 143.5t-139.5 357.5q0 215 139 357q137 143 347 143q120 0 215.5 -48t152.5 -130v317h-336v135h336v152h160v-152h147v-135h-147v-1120zM594 125q150 0 252 102q102 105 102 254q0 150 -102 252
q-103 103 -252 103q-151 0 -246 -103q-96 -104 -96 -252q0 -147 96 -254q94 -102 246 -102z" />
    <glyph glyph-name="Emacron" unicode="&#x112;" horiz-adv-x="1294" 
d="M1194 150v-150h-995v1358h972v-150h-809v-436h705v-149h-705v-473h832zM983 1671v-125h-592v125h592z" />
    <glyph glyph-name="emacron" unicode="&#x113;" horiz-adv-x="1144" 
d="M973 217l26 -143q-163 -94 -360 -94q-244 0 -395 139q-152 140 -152 360q0 214 139 359q137 143 355 143q154 2 271 -77.5t166 -209t19 -272.5h-784q20 -135 122.5 -214t250.5 -79q93 0 172.5 20t169.5 68zM262 553h635q-6 125 -89.5 201.5t-217.5 76.5t-226 -77.5
t-102 -200.5zM883 1333v-125h-592v125h592z" />
    <glyph glyph-name="Ebreve" unicode="&#x114;" horiz-adv-x="1294" 
d="M1194 150v-150h-995v1358h972v-150h-809v-436h705v-149h-705v-473h832zM416 1759h135q6 -64 43 -103.5t92 -39.5q59 0 95 39t42 104h135q-6 -121 -80.5 -193.5t-191.5 -72.5q-116 0 -190 72.5t-80 193.5z" />
    <glyph glyph-name="ebreve" unicode="&#x115;" horiz-adv-x="1144" 
d="M973 217l26 -143q-163 -94 -360 -94q-244 0 -395 139q-152 140 -152 360q0 214 139 359q137 143 355 143q154 2 271 -77.5t166 -209t19 -272.5h-784q20 -135 122.5 -214t250.5 -79q93 0 172.5 20t169.5 68zM262 553h635q-6 125 -89.5 201.5t-217.5 76.5t-226 -77.5
t-102 -200.5zM322 1407h135q6 -66 43 -105.5t94 -39.5q56 0 93.5 39.5t41.5 105.5h135q-6 -123 -80.5 -195.5t-191.5 -72.5q-116 0 -190 73t-80 195z" />
    <glyph glyph-name="Edotaccent" unicode="&#x116;" horiz-adv-x="1294" 
d="M1194 150v-150h-995v1358h972v-150h-809v-436h705v-149h-705v-473h832zM717 1518q-43 0 -71 27.5t-28 70.5q0 44 28 71t71 27q62 5 87.5 -46.5t0 -103t-87.5 -46.5z" />
    <glyph glyph-name="edotaccent" unicode="&#x117;" horiz-adv-x="1144" 
d="M973 217l26 -143q-163 -94 -360 -94q-244 0 -395 139q-152 140 -152 360q0 214 139 359q137 143 355 143q154 2 271 -77.5t166 -209t19 -272.5h-784q20 -135 122.5 -214t250.5 -79q93 0 172.5 20t169.5 68zM262 553h635q-6 125 -89.5 201.5t-217.5 76.5t-226 -77.5
t-102 -200.5zM659 1210q-26 -26 -70 -26t-73 26q-27 27 -27 70t29 72t72 29t69 -29q29 -29 29 -72.5t-29 -69.5z" />
    <glyph glyph-name="Eogonek" unicode="&#x118;" horiz-adv-x="1286" 
d="M1194 150v-150q-199 -129 -199 -227q0 -39 28.5 -62.5t78.5 -23.5q52 0 119 28l39 -116q-74 -45 -181 -45q-92 0 -153.5 47.5t-61.5 130.5q0 151 178 268h-843v1358h972v-150h-809v-436h705v-149h-705v-473h832z" />
    <glyph glyph-name="eogonek" unicode="&#x119;" horiz-adv-x="1144" 
d="M973 217l26 -143q-87 -54 -186 -74q-199 -129 -199 -227q0 -39 29.5 -62.5t79.5 -23.5q52 0 119 28l37 -116q-68 -45 -179 -45q-106 0 -165.5 50t-59.5 138q0 126 158 238q-241 3 -391 141t-150 358q0 214 139 359q137 143 355 143q154 2 271 -77.5t166 -209t19 -272.5
h-784q20 -135 122.5 -214t250.5 -79q93 0 172.5 20t169.5 68zM262 553h635q-6 125 -89.5 201.5t-217.5 76.5t-226 -77.5t-102 -200.5z" />
    <glyph glyph-name="Ecaron" unicode="&#x11a;" horiz-adv-x="1294" 
d="M1194 150v-150h-995v1358h972v-150h-809v-436h705v-149h-705v-473h832zM745 1475h-71l-277 368h158l154 -221l155 221h158z" />
    <glyph glyph-name="ecaron" unicode="&#x11b;" horiz-adv-x="1144" 
d="M973 217l26 -143q-163 -94 -360 -94q-244 0 -395 139q-152 140 -152 360q0 214 139 359q137 143 355 143q154 2 271 -77.5t166 -209t19 -272.5h-784q20 -135 122.5 -214t250.5 -79q93 0 172.5 20t169.5 68zM262 553h635q-6 125 -89.5 201.5t-217.5 76.5t-226 -77.5
t-102 -200.5zM627 1087h-72l-276 369h155l156 -221l155 221h156z" />
    <glyph glyph-name="Gcircumflex" unicode="&#x11c;" horiz-adv-x="1515" 
d="M1331 1280l-14 -156q-78 40 -192 68.5t-232 28.5q-281 0 -451 -150q-168 -149 -168 -391q0 -245 170 -395t451 -150q213 0 328 62v397h-443v147h604v-649q-187 -112 -483 -112q-360 0 -579 192q-222 195 -222 506q0 313 217 506q216 192 578 192q239 0 436 -96zM805 1839
h72l274 -369h-156l-153 222l-158 -222h-156z" />
    <glyph glyph-name="gcircumflex" unicode="&#x11d;" horiz-adv-x="1271" 
d="M946 51v107q-57 -82 -152.5 -130t-215.5 -48q-210 0 -347 143q-139 145 -139 360t139 357q138 141 347 141q121 0 216 -47.5t152 -130.5v158h160v-898q0 -217 -143 -348q-144 -135 -400 -135q-98 0 -203.5 21.5t-175.5 58.5l27 145q161 -81 350 -81q176 0 280.5 87
t104.5 240zM594 836q-151 0 -246 -103q-96 -104 -96 -250q0 -149 96 -256q94 -102 246 -102q150 0 252 102q102 105 102 256q0 148 -102 250q-103 103 -252 103zM543 1454h71l277 -369h-158l-153 222l-156 -222h-158z" />
    <glyph glyph-name="Gbreve" unicode="&#x11e;" horiz-adv-x="1515" 
d="M1331 1280l-14 -156q-78 40 -192 68.5t-232 28.5q-281 0 -451 -150q-168 -149 -168 -391q0 -245 170 -395t451 -150q213 0 328 62v397h-443v147h604v-649q-187 -112 -483 -112q-360 0 -579 192q-222 195 -222 506q0 313 217 506q216 192 578 192q239 0 436 -96zM545 1759
h135q6 -64 43 -103.5t92 -39.5q56 0 93.5 39.5t43.5 103.5h135q-6 -121 -80.5 -193.5t-191.5 -72.5q-116 0 -190 72.5t-80 193.5z" />
    <glyph glyph-name="gbreve" unicode="&#x11f;" horiz-adv-x="1271" 
d="M946 51v107q-57 -82 -152.5 -130t-215.5 -48q-210 0 -347 143q-139 145 -139 360t139 357q138 141 347 141q121 0 216 -47.5t152 -130.5v158h160v-898q0 -217 -143 -348q-144 -135 -400 -135q-98 0 -203.5 21.5t-175.5 58.5l27 145q161 -81 350 -81q176 0 280.5 87
t104.5 240zM594 836q-151 0 -246 -103q-96 -104 -96 -250q0 -149 96 -256q94 -102 246 -102q150 0 252 102q102 105 102 256q0 148 -102 250q-103 103 -252 103zM309 1407h135q6 -66 43.5 -105.5t94.5 -39.5t93.5 39.5t41.5 105.5h137q-6 -122 -81 -195t-193 -73
q-116 0 -190.5 73t-80.5 195z" />
    <glyph glyph-name="Gdotaccent" unicode="&#x120;" horiz-adv-x="1515" 
d="M1331 1280l-14 -156q-78 40 -192 68.5t-232 28.5q-281 0 -451 -150q-168 -149 -168 -391q0 -245 170 -395t451 -150q213 0 328 62v397h-443v147h604v-649q-187 -112 -483 -112q-360 0 -579 192q-222 195 -222 506q0 313 217 506q216 192 578 192q239 0 436 -96zM752 1616
q0 43 27.5 70.5t70.5 27.5q44 0 72 -27.5t28 -70.5t-27.5 -70.5t-70.5 -27.5t-71.5 27.5t-28.5 70.5z" />
    <glyph glyph-name="gdotaccent" unicode="&#x121;" horiz-adv-x="1271" 
d="M946 51v107q-57 -82 -152.5 -130t-215.5 -48q-210 0 -347 143q-139 145 -139 360t139 357q138 141 347 141q121 0 216 -47.5t152 -130.5v158h160v-898q0 -217 -143 -348q-144 -135 -400 -135q-98 0 -203.5 21.5t-175.5 58.5l27 145q161 -81 350 -81q176 0 280.5 87
t104.5 240zM594 836q-151 0 -246 -103q-96 -104 -96 -250q0 -149 96 -256q94 -102 246 -102q150 0 252 102q102 105 102 256q0 148 -102 250q-103 103 -252 103zM477 1280q0 44 27.5 72t70.5 28q33 3 58.5 -16t35.5 -46t5 -58t-27 -50q-20 -21 -51 -25.5t-58.5 5.5t-46 34.5
t-14.5 55.5z" />
    <glyph glyph-name="Gcommaaccent" unicode="&#x122;" horiz-adv-x="1515" 
d="M1331 1280l-14 -156q-78 40 -192 68.5t-232 28.5q-281 0 -451 -150q-168 -149 -168 -391q0 -245 170 -395t451 -150q213 0 328 62v397h-443v147h604v-649q-187 -112 -483 -112q-360 0 -579 192q-222 195 -222 506q0 313 217 506q216 192 578 192q239 0 436 -96zM893 -512
h-131l12 389h172z" />
    <glyph glyph-name="gcommaaccent" unicode="&#x123;" horiz-adv-x="1271" 
d="M946 51v107q-57 -82 -152.5 -130t-215.5 -48q-210 0 -347 143q-139 145 -139 360t139 357q138 141 347 141q121 0 216 -47.5t152 -130.5v158h160v-898q0 -217 -143 -348q-144 -135 -400 -135q-98 0 -203.5 21.5t-175.5 58.5l27 145q161 -81 350 -81q176 0 280.5 87
t104.5 240zM594 836q-151 0 -246 -103q-96 -104 -96 -250q0 -149 96 -256q94 -102 246 -102q150 0 252 102q102 105 102 256q0 148 -102 250q-103 103 -252 103zM578 1503h131l-15 -391h-170z" />
    <glyph glyph-name="Hcircumflex" unicode="&#x124;" horiz-adv-x="1542" 
d="M1343 0h-163v621h-818v-621h-163v1358h163v-588h818v588h163v-1358zM731 1839h74l274 -369h-155l-156 222l-156 -222h-155z" />
    <glyph glyph-name="hcircumflex" unicode="&#x125;" horiz-adv-x="1198" 
d="M643 981q189 0 296.5 -106t107.5 -291v-584h-158v545q0 138 -70.5 211t-200.5 73q-129 0 -212.5 -79t-83.5 -207v-543h-158v1407h158v-592q44 74 129.5 120t191.5 46zM211 1860h72l274 -369h-156l-153 221l-158 -221h-156z" />
    <glyph glyph-name="Hbar" unicode="&#x126;" horiz-adv-x="1593" 
d="M391 0h-166v1053h-170v145h170v160h166v-160h815v160h166v-160h166v-145h-166v-1053h-166v621h-815v-621zM1206 1053h-815v-283h815v283z" />
    <glyph glyph-name="hbar" unicode="&#x127;" horiz-adv-x="1187" 
d="M633 981q186 0 293.5 -106.5t107.5 -290.5v-584h-157v545q0 138 -70.5 211t-200.5 73q-129 0 -213 -79t-84 -207v-543h-157v1120h-152v135h152v152h157v-152h342v-135h-342v-305q44 74 130.5 120t193.5 46z" />
    <glyph glyph-name="Itilde" unicode="&#x128;" horiz-adv-x="561" 
d="M362 0h-163v1358h163v-1358zM164 1614q-37 0 -63.5 -17.5t-65.5 -62.5l-84 72q91 143 207 143q58 0 131 -43q77 -41 117 -41t68.5 19t62.5 63l81 -76q-46 -70 -96 -103.5t-116 -33.5q-58 0 -132 39q-77 41 -110 41z" />
    <glyph glyph-name="itilde" unicode="&#x129;" horiz-adv-x="491" 
d="M326 0h-160v961h160v-961zM123 1255q-36 0 -62.5 -17t-64.5 -62l-86 71q92 144 209 144q49 0 132 -41t114 -41q40 0 68 17.5t65 62.5l80 -76q-44 -69 -94.5 -103t-116.5 -34q-48 0 -132 39.5t-112 39.5z" />
    <glyph glyph-name="Imacron" unicode="&#x12a;" horiz-adv-x="561" 
d="M362 0h-163v1358h163v-1358zM580 1671v-125h-592v125h592z" />
    <glyph glyph-name="imacron" unicode="&#x12b;" horiz-adv-x="491" 
d="M326 0h-160v961h160v-961zM543 1333v-125h-592v125h592z" />
    <glyph glyph-name="Ibreve" unicode="&#x12c;" horiz-adv-x="561" 
d="M362 0h-163v1358h163v-1358zM10 1759h137q6 -63 43.5 -103t92.5 -40q59 0 95 39t42 104h135q-6 -121 -80.5 -193.5t-191.5 -72.5q-116 0 -191 72.5t-82 193.5z" />
    <glyph glyph-name="ibreve" unicode="&#x12d;" horiz-adv-x="491" 
d="M326 0h-160v961h160v-961zM-27 1407h136q6 -66 43 -105.5t94 -39.5q56 0 93.5 39.5t41.5 105.5h135q-4 -122 -79 -195t-193 -73q-116 0 -190.5 73t-80.5 195z" />
    <glyph glyph-name="Iogonek" unicode="&#x12e;" horiz-adv-x="561" 
d="M199 1358h163v-1272l-8 -86q-94 -61 -145 -119.5t-51 -107.5q0 -39 27.5 -62.5t76.5 -23.5q54 0 121 28l39 -116q-74 -45 -182 -45q-104 0 -164 50t-60 138q0 143 193 260l-10 84v1272z" />
    <glyph glyph-name="iogonek" unicode="&#x12f;" horiz-adv-x="491" 
d="M-20 -258q0 144 192 260l-6 53v906h160v-908l-7 -53q-198 -129 -198 -227q0 -39 28 -62.5t78 -23.5q55 0 119 28l39 -116q-74 -45 -180 -45q-104 0 -164.5 50t-60.5 138zM246 1184q-43 0 -71 27t-28 69q0 44 28 72t71 28t70.5 -27.5t27.5 -70.5t-27.5 -70.5t-70.5 -27.5z
" />
    <glyph glyph-name="Idot" unicode="&#x130;" horiz-adv-x="561" 
d="M362 0h-163v1358h163v-1358zM182 1616q0 43 28 70.5t71 27.5q44 0 72 -27.5t28 -70.5t-28 -70.5t-72 -27.5q-43 0 -71 27.5t-28 70.5z" />
    <glyph glyph-name="dotlessi" unicode="&#x131;" horiz-adv-x="491" 
d="M326 0h-160v961h160v-961z" />
    <glyph glyph-name="IJ" unicode="&#x132;" horiz-adv-x="1671" 
d="M362 0h-163v1358h163v-1358zM649 53l27 150q159 -72 323 -72q154 0 238 71t84 216v786h-524v152h688v-944q0 -208 -128 -320t-351 -112q-84 0 -183 20.5t-174 52.5z" />
    <glyph glyph-name="ij" unicode="&#x133;" horiz-adv-x="964" 
d="M319 0h-159v961h159v-961zM139 1282q0 43 28 70.5t71 27.5q44 0 72 -27.5t28 -70.5q6 -61 -46 -86t-104.5 0t-48.5 86zM729 1184q-43 0 -70.5 26.5t-27.5 69.5q0 44 27.5 72t70.5 28t71.5 -27.5t28.5 -70.5t-28.5 -70.5t-71.5 -27.5zM649 -84v1045h160v-1055
q0 -156 -78.5 -241t-224.5 -85q-94 0 -152 27l19 135q53 -21 121 -21q155 0 155 195z" />
    <glyph glyph-name="Jcircumflex" unicode="&#x134;" horiz-adv-x="1062" 
d="M41 53l25 150q159 -72 323 -72q154 0 238 71t84 216v786h-525v152h691v-944q0 -208 -128.5 -320t-351.5 -112q-85 0 -182.5 20t-173.5 53zM498 1839h73l275 -369h-156l-153 222l-158 -222h-156z" />
    <glyph glyph-name="jcircumflex" unicode="&#x135;" horiz-adv-x="503" 
d="M178 -84v1045h160v-1055q0 -156 -78 -241t-225 -85q-93 0 -152 27l19 135q52 -21 123 -21q153 0 153 195zM223 1454h74l274 -369h-155l-156 224l-156 -224h-155z" />
    <glyph glyph-name="Kcommaaccent" unicode="&#x136;" horiz-adv-x="1323" 
d="M1057 1358h190l-418 -701l502 -657h-209l-440 586h-320v-586h-163v1358h163v-623h330zM711 -512h-133l14 389h172z" />
    <glyph glyph-name="kcommaaccent" unicode="&#x137;" horiz-adv-x="1040" 
d="M326 0h-160v1407h160v-842h204l258 396h177l-312 -469l363 -492h-187l-309 428h-194v-428zM580 -512h-134l15 389h172z" />
    <glyph glyph-name="kgreenlandic" unicode="&#x138;" horiz-adv-x="1026" 
d="M326 0h-160v961h160v-396h204l258 396h177l-312 -469l363 -492h-187l-309 428h-194v-428z" />
    <glyph glyph-name="Lacute" unicode="&#x139;" horiz-adv-x="1198" 
d="M1161 150v-150h-962v1358h166v-1208h796zM383 1806h180l-186 -333h-139z" />
    <glyph glyph-name="lacute" unicode="&#x13a;" horiz-adv-x="491" 
d="M326 0h-160v1407h160v-1407zM326 1827h180l-189 -334h-139z" />
    <glyph glyph-name="Lcommaaccent" unicode="&#x13b;" horiz-adv-x="1198" 
d="M1161 150v-150h-962v1358h166v-1208h796zM690 -512h-133l14 389h172z" />
    <glyph glyph-name="lcommaaccent" unicode="&#x13c;" horiz-adv-x="491" 
d="M326 0h-160v1407h160v-1407zM281 -512h-131l14 389h170z" />
    <glyph glyph-name="Lcaron" unicode="&#x13d;" horiz-adv-x="1202" 
d="M1161 150v-150h-962v1358h166v-1208h796zM887 942h-131l12 391h172z" />
    <glyph glyph-name="lcaron" unicode="&#x13e;" horiz-adv-x="491" 
d="M678 1409l-39 -391h-131v391h170zM326 0h-160v1407h160v-1407z" />
    <glyph glyph-name="Ldot" unicode="&#x13f;" horiz-adv-x="1200" 
d="M1161 150v-150h-962v1358h166v-1208h796zM885 575q-43 0 -71 28.5t-28 72.5q-4 31 14 55.5t45.5 34t58 5t50.5 -25.5q22 -19 27 -50t-5 -58t-35 -46t-56 -16z" />
    <glyph glyph-name="ldot" unicode="&#x140;" horiz-adv-x="690" 
d="M326 0h-160v1407h160v-1407zM502 678q0 43 27.5 70.5t70.5 27.5q44 0 72 -27.5t28 -70.5t-28.5 -70.5t-71.5 -27.5t-70.5 27.5t-27.5 70.5z" />
    <glyph glyph-name="Lslash" unicode="&#x141;" horiz-adv-x="1294" 
d="M1257 150v-150h-962v707l-221 -21v148l221 18v506h166v-492l401 37v-145l-401 -37v-571h796z" />
    <glyph glyph-name="lslash" unicode="&#x142;" horiz-adv-x="491" 
d="M326 0h-160v461l-199 -80v147l199 82v797h160v-731l213 90v-152l-213 -88v-526z" />
    <glyph glyph-name="Nacute" unicode="&#x143;" horiz-adv-x="1658" 
d="M1294 1358h166v-1358h-174l-921 1110v-1110h-166v1358h172l923 -1112v1112zM920 1806h180l-189 -333h-139z" />
    <glyph glyph-name="nacute" unicode="&#x144;" horiz-adv-x="1204" 
d="M647 981q190 0 298 -106t108 -291v-584h-158v545q0 139 -70.5 211.5t-201.5 72.5q-129 0 -213 -80t-84 -206v-543h-160v961h160v-146q44 74 129.5 120t191.5 46zM723 1448h178l-186 -334h-140z" />
    <glyph glyph-name="Ncommaaccent" unicode="&#x145;" horiz-adv-x="1658" 
d="M1294 1358h166v-1358h-174l-921 1110v-1110h-166v1358h172l923 -1112v1112zM868 -512h-131l15 389h170z" />
    <glyph glyph-name="ncommaaccent" unicode="&#x146;" horiz-adv-x="1204" 
d="M647 981q190 0 298 -106t108 -291v-584h-158v545q0 139 -70.5 211.5t-201.5 72.5q-129 0 -213 -80t-84 -206v-543h-160v961h160v-146q44 74 129.5 120t191.5 46zM645 -512h-131l14 389h170z" />
    <glyph glyph-name="Ncaron" unicode="&#x147;" horiz-adv-x="1658" 
d="M1294 1358h166v-1358h-174l-921 1110v-1110h-166v1358h172l923 -1112v1112zM879 1475h-72l-277 368h156l156 -221l155 221h156z" />
    <glyph glyph-name="ncaron" unicode="&#x148;" horiz-adv-x="1204" 
d="M647 981q190 0 298 -106t108 -291v-584h-158v545q0 139 -70.5 211.5t-201.5 72.5q-129 0 -213 -80t-84 -206v-543h-160v961h160v-146q44 74 129.5 120t191.5 46zM666 1087h-72l-277 369h156l156 -221l155 221h156z" />
    <glyph glyph-name="napostrophe" unicode="&#x149;" horiz-adv-x="1433" 
d="M874 981q190 0 298 -106t108 -291v-584h-158v545q0 139 -70.5 211.5t-201.5 72.5q-126 0 -211 -79q-86 -80 -86 -207v-543h-160v961h162v-146q44 74 128.5 120t190.5 46zM29 911l121 475h178l-156 -475h-143z" />
    <glyph glyph-name="Eng" unicode="&#x14a;" horiz-adv-x="1658" 
d="M1294 1358h166v-1462q0 -151 -77 -233.5t-222 -82.5q-89 0 -141 27l18 135q46 -21 113 -21q143 0 143 185v84l-929 1120v-1110h-166v1358h172l923 -1112v1112z" />
    <glyph glyph-name="eng" unicode="&#x14b;" horiz-adv-x="1206" 
d="M647 981q190 0 298 -106t108 -291v-631v-68q0 -144 -74 -224.5t-209 -80.5q-82 0 -135 27l16 135q47 -21 109 -21q135 0 135 175v649q0 139 -70.5 211.5t-201.5 72.5q-129 0 -213 -80t-84 -206v-543h-160v961h160v-146q44 74 129.5 120t191.5 46z" />
    <glyph glyph-name="Omacron" unicode="&#x14c;" horiz-adv-x="1634" 
d="M102 672q-2 148 53 280.5t151 226.5t228 147.5t279 51.5q201 3 367.5 -89t261.5 -255.5t92 -361.5q0 -201 -94 -359.5t-258.5 -245.5t-368.5 -87q-147 -3 -279 49t-228 143.5t-151 222t-53 277.5zM272 674q0 -239 152 -391q153 -150 389 -150q242 0 395 150
q156 150 156 391q0 240 -156 393q-153 156 -395 156q-236 0 -389 -156q-152 -155 -152 -393zM1112 1671v-125h-590v125h590z" />
    <glyph glyph-name="omacron" unicode="&#x14d;" horiz-adv-x="1202" 
d="M238 125q-148 145 -148 354q0 211 146 357q148 145 364 145q220 0 365 -145t145 -357q0 -211 -145 -356q-143 -143 -365 -143q-217 0 -362 145zM350 729q-100 -100 -100 -250t100 -250q102 -102 250 -102q150 0 252 102q100 100 100 250t-100 250q-102 102 -252 102
q-148 0 -250 -102zM899 1333v-125h-592v125h592z" />
    <glyph glyph-name="Obreve" unicode="&#x14e;" horiz-adv-x="1634" 
d="M102 672q-2 148 53 280.5t151 226.5t228 147.5t279 51.5q201 3 367.5 -89t261.5 -255.5t92 -361.5q0 -201 -94 -359.5t-258.5 -245.5t-368.5 -87q-147 -3 -279 49t-228 143.5t-151 222t-53 277.5zM272 674q0 -239 152 -391q153 -150 389 -150q242 0 395 150
q156 150 156 391q0 240 -156 393q-153 156 -395 156q-236 0 -389 -156q-152 -155 -152 -393zM547 1759h135q6 -64 43 -103.5t92 -39.5q56 0 93.5 39.5t43.5 103.5h136q-6 -121 -81 -193.5t-192 -72.5q-116 0 -190 72.5t-80 193.5z" />
    <glyph glyph-name="obreve" unicode="&#x14f;" horiz-adv-x="1202" 
d="M238 125q-148 145 -148 354q0 211 146 357q148 145 364 145q220 0 365 -145t145 -357q0 -211 -145 -356q-143 -143 -365 -143q-217 0 -362 145zM350 729q-100 -100 -100 -250t100 -250q102 -102 250 -102q150 0 252 102q100 100 100 250t-100 250q-102 102 -252 102
q-148 0 -250 -102zM332 1407h137q4 -66 41.5 -105.5t93.5 -39.5q57 0 93.5 39.5t41.5 105.5h138q-6 -122 -80.5 -195t-192.5 -73q-117 0 -191 72.5t-81 195.5z" />
    <glyph glyph-name="Ohungarumlaut" unicode="&#x150;" horiz-adv-x="1634" 
d="M102 672q-2 148 53 280.5t151 226.5t228 147.5t279 51.5q201 3 367.5 -89t261.5 -255.5t92 -361.5q0 -201 -94 -359.5t-258.5 -245.5t-368.5 -87q-147 -3 -279 49t-228 143.5t-151 222t-53 277.5zM272 674q0 -239 152 -391q153 -150 389 -150q242 0 395 150
q156 150 156 391q0 240 -156 393q-153 156 -395 156q-236 0 -389 -156q-152 -155 -152 -393zM717 1806h184l-203 -333h-133zM1040 1806h187l-203 -333h-135z" />
    <glyph glyph-name="ohungarumlaut" unicode="&#x151;" horiz-adv-x="1202" 
d="M238 125q-148 145 -148 354q0 211 146 357q148 145 364 145q220 0 365 -145t145 -357q0 -211 -145 -356q-143 -143 -365 -143q-217 0 -362 145zM350 729q-100 -100 -100 -250t100 -250q102 -102 250 -102q150 0 252 102q100 100 100 250t-100 250q-102 102 -252 102
q-148 0 -250 -102zM522 1450h187l-203 -336h-135zM848 1450h184l-203 -336h-133z" />
    <glyph glyph-name="OE" unicode="&#x152;" horiz-adv-x="2361" 
d="M102 672q0 153 51 284.5t141 224t216.5 145t273.5 52.5q323 0 500 -223v203h954v-150h-788v-436h684v-149h-684v-473h811v-150h-977v197q-86 -105 -213 -161t-287 -56q-196 -3 -353 85.5t-244.5 248t-84.5 358.5zM274 674q0 -239 140 -391q138 -150 370 -150
q233 0 371 150q139 151 139 391q0 244 -139 395q-139 154 -371 154q-231 0 -370 -154q-140 -152 -140 -395z" />
    <glyph glyph-name="oe" unicode="&#x153;" horiz-adv-x="1906" 
d="M580 981q126 0 230.5 -58t168.5 -159q63 102 162.5 158.5t226.5 56.5q114 1 207.5 -45t150 -123t79 -179t1.5 -210h-747q18 -134 116.5 -213.5t237.5 -79.5q89 0 164.5 20t159.5 68l26 -143q-152 -94 -344 -94q-141 0 -255.5 58t-182.5 163q-62 -105 -166.5 -163
t-234.5 -58q-214 0 -351 143t-137 356q0 214 137 357q139 145 351 145zM340 731q-92 -103 -92 -252t92 -252q90 -100 240 -100q149 0 239 100q92 103 92 252t-92 252q-90 100 -239 100q-150 0 -240 -100zM1065 553h598q-8 129 -84.5 205t-204.5 76q-130 0 -215.5 -78
t-93.5 -203z" />
    <glyph glyph-name="Racute" unicode="&#x154;" horiz-adv-x="1398" 
d="M774 1806h180l-188 -333h-139zM1137 0l-342 426h-433v-426h-163v1358h600q97 0 181.5 -29t150 -85.5t103.5 -147.5t38 -207q0 -158 -81.5 -272t-219.5 -162l372 -455h-206zM778 1206h-416v-631h416q136 0 232 84q94 85 94 230q0 150 -90.5 233.5t-235.5 83.5z" />
    <glyph glyph-name="racute" unicode="&#x155;" horiz-adv-x="761" 
d="M166 961h160v-144q38 81 105 122.5t155 41.5q80 0 135 -27l-16 -145q-68 22 -125 22q-109 0 -181.5 -73.5t-72.5 -225.5v-532h-160v961zM524 1450h181l-189 -336h-139z" />
    <glyph glyph-name="Rcommaaccent" unicode="&#x156;" horiz-adv-x="1398" 
d="M737 -512h-131l15 389h172zM1137 0l-342 426h-433v-426h-163v1358h600q97 0 181.5 -29t150 -85.5t103.5 -147.5t38 -207q0 -158 -81.5 -272t-219.5 -162l372 -455h-206zM778 1206h-416v-631h416q136 0 232 84q94 85 94 230q0 150 -90.5 233.5t-235.5 83.5z" />
    <glyph glyph-name="rcommaaccent" unicode="&#x157;" horiz-adv-x="761" 
d="M166 961h160v-144q38 81 105 122.5t155 41.5q80 0 135 -27l-16 -145q-68 22 -125 22q-109 0 -181.5 -73.5t-72.5 -225.5v-532h-160v961zM279 -512h-134l15 389h172z" />
    <glyph glyph-name="Rcaron" unicode="&#x158;" horiz-adv-x="1398" 
d="M715 1475h-74l-274 368h155l154 -221l158 221h155zM1137 0l-342 426h-433v-426h-163v1358h600q97 0 181.5 -29t150 -85.5t103.5 -147.5t38 -207q0 -158 -81.5 -272t-219.5 -162l372 -455h-206zM778 1206h-416v-631h416q136 0 232 84q94 85 94 230q0 150 -90.5 233.5
t-235.5 83.5z" />
    <glyph glyph-name="rcaron" unicode="&#x159;" horiz-adv-x="761" 
d="M166 961h160v-144q38 81 105 122.5t155 41.5q80 0 135 -27l-16 -145q-68 22 -125 22q-109 0 -181.5 -73.5t-72.5 -225.5v-532h-160v961zM487 1087h-73l-275 369h156l154 -221l157 221h156z" />
    <glyph glyph-name="Sacute" unicode="&#x15a;" horiz-adv-x="1150" 
d="M678 580l-229 71q-148 49 -236 117q-100 83 -100 221q0 181 128.5 285t354.5 104q213 0 399 -73l-16 -154q-77 36 -176.5 57t-192.5 21q-152 0 -237.5 -58.5t-85.5 -164.5q0 -74 45 -123q13 -13 27.5 -23.5t36 -20t33 -14t42 -15t39.5 -13.5q2 -1 5.5 -1.5t5.5 -1t3 -1.5
l213 -68q174 -58 251 -139.5t77 -216.5q0 -174 -133 -283q-130 -106 -357 -106q-120 0 -249 24q-130 27 -217 70l16 155q91 -45 211 -71q123 -27 225 -27q153 0 242.5 62t89.5 172q0 80 -49 129t-166 86zM713 1806h180l-188 -333h-140z" />
    <glyph glyph-name="sacute" unicode="&#x15b;" horiz-adv-x="927" 
d="M453 561l100 -20q291 -58 291 -275q0 -136 -101.5 -211t-279.5 -75q-216 0 -361 71l23 144q141 -72 326 -72q116 0 176.5 34.5t60.5 100.5q0 60 -48.5 93t-160.5 57l-125 24q-126 25 -194 91.5t-68 170.5q0 129 106.5 208t284.5 79q181 0 308 -53l-21 -140
q-125 52 -276 52q-117 0 -179.5 -37t-62.5 -105q0 -58 44.5 -87t156.5 -50zM535 1450h180l-189 -336h-139z" />
    <glyph glyph-name="Scircumflex" unicode="&#x15c;" horiz-adv-x="1150" 
d="M678 580l-229 71q-148 49 -236 117q-100 83 -100 221q0 181 128.5 285t354.5 104q213 0 399 -73l-16 -154q-77 36 -176.5 57t-192.5 21q-152 0 -237.5 -58.5t-85.5 -164.5q0 -74 45 -123q13 -13 27.5 -23.5t36 -20t33 -14t42 -15t39.5 -13.5q2 -1 5.5 -1.5t5.5 -1t3 -1.5
l213 -68q174 -58 251 -139.5t77 -216.5q0 -174 -133 -283q-130 -106 -357 -106q-120 0 -249 24q-130 27 -217 70l16 155q91 -45 211 -71q123 -27 225 -27q153 0 242.5 62t89.5 172q0 80 -49 129t-166 86zM575 1839h74l275 -369h-156l-154 222l-157 -222h-156z" />
    <glyph glyph-name="scircumflex" unicode="&#x15d;" horiz-adv-x="927" 
d="M453 561l100 -20q291 -58 291 -275q0 -136 -101.5 -211t-279.5 -75q-216 0 -361 71l23 144q141 -72 326 -72q116 0 176.5 34.5t60.5 100.5q0 60 -48.5 93t-160.5 57l-125 24q-126 25 -194 91.5t-68 170.5q0 129 106.5 208t284.5 79q181 0 308 -53l-21 -140
q-125 52 -276 52q-117 0 -179.5 -37t-62.5 -105q0 -58 44.5 -87t156.5 -50zM451 1454h71l277 -369h-158l-154 222l-155 -222h-158z" />
    <glyph glyph-name="Scedilla" unicode="&#x15e;" horiz-adv-x="1150" 
d="M516 -186h-59l63 168q-109 4 -220.5 29.5t-190.5 62.5l16 155q91 -45 211 -71q123 -27 225 -27q153 0 242.5 62t89.5 172q0 80 -49 129t-166 86l-229 71q-73 22 -130 50t-105.5 68t-74.5 95.5t-26 124.5q0 181 128.5 285t354.5 104q213 0 399 -73l-16 -154
q-77 36 -176.5 57t-192.5 21q-152 0 -237.5 -58.5t-85.5 -164.5q0 -73 39 -115q60 -57 159 -86q57 -21 146 -49l106 -31q173 -56 250.5 -138.5t77.5 -217.5q0 -165 -119 -270t-321 -117l-25 -78q94 -8 149.5 -52.5t55.5 -113.5q0 -86 -69 -135t-191 -49q-85 0 -135 20v113
q59 -19 125 -19q127 0 127 70q0 76 -146 76z" />
    <glyph glyph-name="scedilla" unicode="&#x15f;" horiz-adv-x="927" 
d="M393 -186h-59l63 168q-184 12 -295 69l23 144q141 -72 326 -72q116 0 176.5 34.5t60.5 100.5q0 60 -48.5 93t-160.5 57l-125 24q-126 25 -194 91.5t-68 170.5q0 129 106.5 208t284.5 79q181 0 308 -53l-21 -140q-125 52 -276 52q-117 0 -179.5 -37t-62.5 -105
q0 -58 44.5 -87t156.5 -50l100 -20q291 -58 291 -275q0 -128 -90.5 -202t-251.5 -82l-25 -78q94 -8 149.5 -52.5t55.5 -113.5q0 -86 -69 -135t-191 -49q-85 0 -135 20v113q59 -19 125 -19q127 0 127 70q0 76 -146 76z" />
    <glyph glyph-name="Scaron" unicode="&#x160;" horiz-adv-x="1150" 
d="M678 580l-229 71q-148 49 -236 117q-100 83 -100 221q0 181 128.5 285t354.5 104q213 0 399 -73l-16 -154q-77 36 -176.5 57t-192.5 21q-152 0 -237.5 -58.5t-85.5 -164.5q0 -74 45 -123q13 -13 27.5 -23.5t36 -20t33 -14t42 -15t39.5 -13.5q2 -1 5.5 -1.5t5.5 -1t3 -1.5
l213 -68q174 -58 251 -139.5t77 -216.5q0 -174 -133 -283q-130 -106 -357 -106q-120 0 -249 24q-130 27 -217 70l16 155q91 -45 211 -71q123 -27 225 -27q153 0 242.5 62t89.5 172q0 80 -49 129t-166 86zM641 1475h-74l-274 368h156l155 -221l156 221h155z" />
    <glyph glyph-name="scaron" unicode="&#x161;" horiz-adv-x="927" 
d="M453 561l100 -20q291 -58 291 -275q0 -136 -101.5 -211t-279.5 -75q-216 0 -361 71l23 144q141 -72 326 -72q116 0 176.5 34.5t60.5 100.5q0 60 -48.5 93t-160.5 57l-125 24q-126 25 -194 91.5t-68 170.5q0 129 106.5 208t284.5 79q181 0 308 -53l-21 -140
q-125 52 -276 52q-117 0 -179.5 -37t-62.5 -105q0 -58 44.5 -87t156.5 -50zM514 1085h-72l-274 369h156l153 -219l158 219h156z" />
    <glyph glyph-name="Tcommaaccent" unicode="&#x162;" horiz-adv-x="1138" 
d="M1106 1358v-154h-455v-1204h-164v1204h-454v154h1073zM604 -512h-131l14 389h172z" />
    <glyph glyph-name="tcommaaccent" unicode="&#x163;" horiz-adv-x="763" 
d="M686 961v-138h-305v-520q0 -89 43.5 -134.5t122.5 -45.5q94 0 164 27l20 -138q-68 -32 -201 -32q-145 0 -227 77.5t-82 221.5v544h-176v138h178v307h158v-307h305zM498 -512h-131l14 389h172z" />
    <glyph glyph-name="Tcaron" unicode="&#x164;" horiz-adv-x="1138" 
d="M1106 1358v-154h-455v-1204h-164v1204h-454v154h1073zM606 1475h-71l-277 368h158l153 -221l156 221h158z" />
    <glyph glyph-name="tcaron" unicode="&#x165;" horiz-adv-x="763" 
d="M711 1509l-39 -391h-131v391h170zM686 961v-138h-305v-520q0 -89 43.5 -134.5t122.5 -45.5q94 0 164 27l20 -138q-68 -32 -201 -32q-145 0 -227 77.5t-82 221.5v544h-176v138h178v307h158v-307h305z" />
    <glyph glyph-name="Tbar" unicode="&#x166;" horiz-adv-x="1216" 
d="M1141 1358v-154h-455v-428h379v-139h-379v-637h-164v637h-360v139h360v428h-454v154h1073z" />
    <glyph glyph-name="tbar" unicode="&#x167;" horiz-adv-x="784" 
d="M702 961v-138h-305v-245h305v-138h-305v-137q0 -89 43.5 -134.5t122.5 -45.5q90 0 164 27l21 -138q-68 -32 -201 -32q-145 0 -227 77.5t-82 221.5v161h-168v138h168v245h-177v138h179v307h155v-307h307z" />
    <glyph glyph-name="Utilde" unicode="&#x168;" horiz-adv-x="1544" 
d="M184 485v873h164v-864q0 -168 114.5 -263.5t307.5 -95.5q195 0 309.5 96.5t114.5 262.5v864h166v-873q0 -159 -78 -274.5t-210 -173t-302 -57.5q-266 0 -426 133q-160 136 -160 372zM657 1614q-35 0 -61.5 -17.5t-65.5 -62.5l-86 72q91 143 209 143q49 0 132 -42t114 -42
q39 0 67.5 18.5t65.5 63.5l80 -76q-44 -69 -94.5 -103t-116.5 -34q-48 0 -132 40t-112 40z" />
    <glyph glyph-name="utilde" unicode="&#x169;" horiz-adv-x="1173" 
d="M864 414v547h158v-572q0 -182 -119 -295q-120 -114 -317 -114q-198 0 -316 112t-118 291v578h157v-547q0 -133 75.5 -209t203.5 -76t202 76t74 209zM467 1255q-37 0 -62.5 -17t-64.5 -62l-86 71q92 142 209 142q55 0 129 -41q74 -39 117 -39q41 0 70.5 18.5t60.5 61.5
l82 -76q-46 -70 -95.5 -103.5t-115.5 -33.5q-61 0 -133 38q-74 41 -111 41z" />
    <glyph glyph-name="Umacron" unicode="&#x16a;" horiz-adv-x="1544" 
d="M184 485v873h164v-864q0 -168 114.5 -263.5t307.5 -95.5q195 0 309.5 96.5t114.5 262.5v864h166v-873q0 -159 -78 -274.5t-210 -173t-302 -57.5q-266 0 -426 133q-160 136 -160 372zM1065 1671v-125h-592v125h592z" />
    <glyph glyph-name="umacron" unicode="&#x16b;" horiz-adv-x="1173" 
d="M864 414v547h158v-572q0 -182 -119 -295q-120 -114 -317 -114q-198 0 -316 112t-118 291v578h157v-547q0 -133 75.5 -209t203.5 -76t202 76t74 209zM885 1333v-125h-592v125h592z" />
    <glyph glyph-name="Ubreve" unicode="&#x16c;" horiz-adv-x="1544" 
d="M184 485v873h164v-864q0 -168 114.5 -263.5t307.5 -95.5q195 0 309.5 96.5t114.5 262.5v864h166v-873q0 -159 -78 -274.5t-210 -173t-302 -57.5q-266 0 -426 133q-160 136 -160 372zM498 1759h137q5 -63 42.5 -103t92.5 -40q57 0 93.5 39.5t41.5 103.5h137
q-6 -121 -80.5 -193.5t-191.5 -72.5t-190.5 72t-81.5 194z" />
    <glyph glyph-name="ubreve" unicode="&#x16d;" horiz-adv-x="1173" 
d="M864 414v547h158v-572q0 -182 -119 -295q-120 -114 -317 -114q-198 0 -316 112t-118 291v578h157v-547q0 -133 75.5 -209t203.5 -76t202 76t74 209zM313 1407h136q6 -66 43 -105.5t94 -39.5t93.5 39.5t41.5 105.5h135q-4 -122 -79 -195t-193 -73q-116 0 -190.5 73
t-80.5 195z" />
    <glyph glyph-name="Uring" unicode="&#x16e;" horiz-adv-x="1544" 
d="M184 485v873h164v-864q0 -168 114.5 -263.5t307.5 -95.5q195 0 309.5 96.5t114.5 262.5v864h166v-873q0 -159 -78 -274.5t-210 -173t-302 -57.5q-266 0 -426 133q-160 136 -160 372zM557 1692q0 88 60.5 145t152.5 57t151.5 -57t59.5 -145q0 -86 -59.5 -142.5
t-151.5 -56.5t-152.5 56.5t-60.5 142.5zM668 1692q0 -43 29 -72t73 -29t73 29t29 72q0 44 -29 74t-73 30t-73 -30t-29 -74z" />
    <glyph glyph-name="uring" unicode="&#x16f;" horiz-adv-x="1173" 
d="M864 414v547h158v-572q0 -182 -119 -295q-120 -114 -317 -114q-198 0 -316 112t-118 291v578h157v-547q0 -133 75.5 -209t203.5 -76t202 76t74 209zM373 1286q0 88 60.5 146.5t152.5 58.5t151.5 -58.5t59.5 -146.5q0 -86 -59.5 -142.5t-151.5 -56.5t-152.5 56.5
t-60.5 142.5zM483 1286q0 -43 28.5 -70.5t72.5 -27.5q47 0 74.5 27.5t27.5 70.5q7 64 -47.5 91t-108.5 0t-47 -91z" />
    <glyph glyph-name="Uhungarumlaut" unicode="&#x170;" horiz-adv-x="1544" 
d="M184 485v873h164v-864q0 -168 114.5 -263.5t307.5 -95.5q195 0 309.5 96.5t114.5 262.5v864h166v-873q0 -159 -78 -274.5t-210 -173t-302 -57.5q-266 0 -426 133q-160 136 -160 372zM987 1806h187l-203 -333h-135zM664 1806h184l-203 -333h-133z" />
    <glyph glyph-name="uhungarumlaut" unicode="&#x171;" horiz-adv-x="1173" 
d="M864 414v547h158v-572q0 -182 -119 -295q-120 -114 -317 -114q-198 0 -316 112t-118 291v578h157v-547q0 -133 75.5 -209t203.5 -76t202 76t74 209zM504 1450h182l-203 -336h-133zM827 1450h185l-203 -336h-133z" />
    <glyph glyph-name="Uogonek" unicode="&#x172;" horiz-adv-x="1544" 
d="M184 485v873h164v-864q0 -168 114.5 -263.5t307.5 -95.5q195 0 309.5 96.5t114.5 262.5v864h166v-873q0 -189 -108.5 -315.5t-297.5 -169.5h2q-198 -127 -198 -227q0 -39 28 -62.5t78 -23.5q55 0 119 28l39 -116q-71 -45 -180 -45q-106 0 -166 50t-60 138q0 128 158 240
q-38 0 -78 4q-236 14 -374 146.5t-138 352.5z" />
    <glyph glyph-name="uogonek" unicode="&#x173;" horiz-adv-x="1173" 
d="M864 414v547h158v-572q0 -143 -76.5 -247t-210.5 -142q-94 -61 -145 -119.5t-51 -107.5q0 -39 27.5 -62.5t76.5 -23.5q54 0 121 28l39 -116q-74 -45 -182 -45q-104 0 -164 50t-60 138q0 128 158 240q-184 9 -293 118q-110 113 -110 283v578h157v-547q0 -133 75.5 -209
t203.5 -76t202 76t74 209z" />
    <glyph glyph-name="Wcircumflex" unicode="&#x174;" horiz-adv-x="2039" 
d="M682 0h-242l-401 1358h170l354 -1188l369 1178h176l369 -1178l356 1188h168l-402 -1358h-241l-338 1106zM993 1839h74l274 -369h-155l-154 222l-158 -222h-155z" />
    <glyph glyph-name="wcircumflex" unicode="&#x175;" horiz-adv-x="1597" 
d="M455 152l260 798h168l260 -798l239 809h168l-299 -961h-213l-239 727l-240 -727h-213l-299 961h168zM762 1454h74l274 -369h-156l-153 224l-158 -224h-156z" />
    <glyph glyph-name="Ycircumflex" unicode="&#x176;" horiz-adv-x="1265" 
d="M551 530l-535 828h197l420 -660l420 660h196l-534 -828v-530h-164v530zM600 1839h74l274 -369h-155l-154 222l-158 -222h-155z" />
    <glyph glyph-name="ycircumflex" unicode="&#x177;" horiz-adv-x="1054" 
d="M205 961l325 -805l322 805h174l-453 -1084q-68 -159 -149.5 -228t-214.5 -69q-104 0 -166 33l20 135q59 -27 136 -27q78 0 131.5 49.5t97.5 157.5l18 45l-415 988h174zM489 1456h72l277 -369h-156l-156 222l-155 -222h-158z" />
    <glyph glyph-name="Ydieresis" unicode="&#x178;" horiz-adv-x="1265" 
d="M551 530l-535 828h197l420 -660l420 660h196l-534 -828v-530h-164v530zM713 1616q0 43 27.5 70.5t70.5 27.5q42 0 70.5 -30t28.5 -68t-29 -72q-20 -21 -51 -25t-58 6t-45 35t-14 56zM459 1518q-43 0 -71 27.5t-28 70.5t28 70.5t71 27.5q61 5 86 -46.5t0 -103t-86 -46.5z
" />
    <glyph glyph-name="Zacute" unicode="&#x179;" horiz-adv-x="1236" 
d="M96 0v133l832 1073h-822v152h1027v-152l-824 -1056h836v-150h-1049zM674 1806h180l-188 -333h-140z" />
    <glyph glyph-name="zacute" unicode="&#x17a;" horiz-adv-x="909" 
d="M829 0h-735v133l522 690h-516v138h701v-136l-522 -688h550v-137zM504 1450h180l-188 -336h-140z" />
    <glyph glyph-name="Zdotaccent" unicode="&#x17b;" horiz-adv-x="1236" 
d="M96 0v133l832 1073h-822v152h1027v-152l-824 -1056h836v-150h-1049zM537 1616q0 43 27.5 70.5t70.5 27.5q44 0 71 -27.5t27 -70.5t-27.5 -70.5t-70.5 -27.5t-70.5 27.5t-27.5 70.5z" />
    <glyph glyph-name="zdotaccent" unicode="&#x17c;" horiz-adv-x="909" 
d="M829 0h-735v133l522 690h-516v138h701v-136l-522 -688h550v-137zM471 1182q-43 0 -70.5 27.5t-27.5 70.5t27.5 70.5t70.5 27.5t71.5 -27.5t28.5 -70.5t-28.5 -70.5t-71.5 -27.5z" />
    <glyph glyph-name="Zcaron" unicode="&#x17d;" horiz-adv-x="1236" 
d="M96 0v133l832 1073h-822v152h1027v-152l-824 -1056h836v-150h-1049zM678 1475h-74l-274 368h155l156 -221l156 221h155z" />
    <glyph glyph-name="zcaron" unicode="&#x17e;" horiz-adv-x="909" 
d="M829 0h-735v133l522 690h-516v138h701v-136l-522 -688h550v-137zM494 1087h-72l-277 369h156l156 -221l155 221h156z" />
    <glyph glyph-name="Schwa" unicode="&#x18f;" horiz-adv-x="1478" 
d="M102 651q0 29 7 97h1089q-15 207 -156 342q-137 131 -368 131q-252 0 -481 -113l-29 156q225 114 514 114q316 0 502 -192q190 -190 190 -514q0 -317 -172 -504q-168 -186 -469 -186q-293 0 -461 180q-166 181 -166 489zM729 131q210 0 334.5 126.5t132.5 344.5h-928
q0 -208 123 -340q125 -131 338 -131z" />
    <glyph glyph-name="florin" unicode="&#x192;" horiz-adv-x="1136" 
d="M442 369l45 381h-188l16 137h193l14 131q19 169 120.5 261.5t266.5 92.5q91 0 160 -29l-31 -133q-57 23 -118 23q-215 0 -242 -229l-14 -117h290l-16 -137h-289l-49 -390q-23 -184 -123 -282t-260 -98q-47 0 -93 9.5t-67 22.5l31 133q46 -24 123 -24q195 0 231 248z" />
    <glyph glyph-name="Nhookleft" unicode="&#x19d;" horiz-adv-x="1654" 
d="M1292 1358h164v-1358h-172l-924 1110v-1221q0 -147 -75.5 -228t-216.5 -81q-86 0 -138 27l19 135q47 -21 108 -21q138 0 138 181v1456h174l923 -1112v1112z" />
    <glyph glyph-name="Gcaron" unicode="&#x1e6;" horiz-adv-x="1515" 
d="M1331 1280l-14 -156q-78 40 -192 68.5t-232 28.5q-281 0 -451 -150q-168 -149 -168 -391q0 -245 170 -395t451 -150q213 0 328 62v397h-443v147h604v-649q-187 -112 -483 -112q-360 0 -579 192q-222 195 -222 506q0 313 217 506q216 192 578 192q239 0 436 -96zM879 1475
h-72l-277 368h156l156 -221l155 221h156z" />
    <glyph glyph-name="gcaron" unicode="&#x1e7;" horiz-adv-x="1271" 
d="M946 51v107q-57 -82 -152.5 -130t-215.5 -48q-210 0 -347 143q-139 145 -139 360t139 357q138 141 347 141q121 0 216 -47.5t152 -130.5v158h160v-898q0 -217 -143 -348q-144 -135 -400 -135q-98 0 -203.5 21.5t-175.5 58.5l27 145q161 -81 350 -81q176 0 280.5 87
t104.5 240zM594 836q-151 0 -246 -103q-96 -104 -96 -250q0 -149 96 -256q94 -102 246 -102q150 0 252 102q102 105 102 256q0 148 -102 250q-103 103 -252 103zM618 1087h-73l-275 369h156l154 -221l157 221h156z" />
    <glyph glyph-name="Oogonek" unicode="&#x1ea;" horiz-adv-x="1634" 
d="M102 672q-2 148 53 280.5t151 226.5t228 147.5t279 51.5q201 3 367.5 -89t261.5 -255.5t92 -361.5q0 -253 -148 -436q-149 -184 -387 -236q-198 -129 -198 -227q0 -39 28.5 -62.5t77.5 -23.5q55 0 119 28l39 -116q-71 -45 -180 -45q-104 0 -163.5 50t-59.5 138
q0 131 155 238q-45 0 -86 8q-272 24 -452 213q-177 192 -177 471zM272 674q0 -239 152 -391q153 -150 389 -150q242 0 395 150q156 150 156 391q0 240 -156 393q-153 156 -395 156q-236 0 -389 -156q-152 -155 -152 -393z" />
    <glyph glyph-name="oogonek" unicode="&#x1eb;" horiz-adv-x="1202" 
d="M90 479q0 211 146 357q148 145 364 145q220 0 365 -145t145 -357q0 -174 -100 -303q-101 -130 -262 -176h2q-95 -61 -147 -119.5t-52 -107.5q0 -39 28 -62.5t78 -23.5q55 0 119 28l37 -116q-68 -45 -178 -45q-106 0 -165.5 50t-59.5 138q0 128 157 240
q-206 12 -341.5 153.5t-135.5 343.5zM350 729q-100 -100 -100 -250t100 -250q102 -102 250 -102q150 0 252 102q100 100 100 250t-100 250q-102 102 -252 102q-148 0 -250 -102z" />
    <glyph glyph-name="Aringacute" unicode="&#x1fa;" horiz-adv-x="1347" 
d="M578 1358h194l561 -1358h-174l-125 315h-717l-127 -315h-174zM981 457l-305 729l-307 -729h612zM465 1692q0 88 59.5 145t151.5 57t152.5 -57t60.5 -145q0 -86 -60.5 -142.5t-152.5 -56.5t-151.5 56.5t-59.5 142.5zM573 1692q0 -43 29.5 -72t73.5 -29t73 29t29 72
q0 44 -29 74t-73 30t-73.5 -30t-29.5 -74zM795 2294h180l-189 -334h-139z" />
    <glyph glyph-name="aringacute" unicode="&#x1fb;" horiz-adv-x="1271" 
d="M946 961h160v-961h-160v158q-57 -82 -152.5 -130t-215.5 -48q-210 0 -347 143q-139 145 -139 360t139 357q138 141 347 141q121 0 216 -47.5t152 -130.5v158zM594 836q-151 0 -246 -103q-96 -104 -96 -250q0 -149 96 -256q94 -102 246 -102q150 0 252 102
q102 105 102 256q0 148 -102 250q-103 103 -252 103zM657 1903h181l-189 -334h-137zM371 1286q0 88 60.5 146.5t152.5 58.5t151.5 -58.5t59.5 -146.5q0 -86 -59.5 -142.5t-151.5 -56.5t-152.5 56.5t-60.5 142.5zM481 1286q0 -43 28.5 -70.5t72.5 -27.5q47 0 74.5 27.5
t27.5 70.5q7 64 -47.5 91t-108.5 0t-47 -91z" />
    <glyph glyph-name="AEacute" unicode="&#x1fc;" horiz-adv-x="1972" 
d="M1872 0h-975v315h-555l-197 -315h-184l836 1358h1052v-150h-786v-436h682v-149h-682v-473h809v-150zM897 457v751l-469 -751h469zM1386 1806h181l-189 -333h-139z" />
    <glyph glyph-name="aeacute" unicode="&#x1fd;" horiz-adv-x="1748" 
d="M1579 217l27 -143q-149 -94 -330 -94q-142 0 -255 59t-179 168q-54 -105 -165.5 -166t-250.5 -61q-155 0 -248.5 75.5t-93.5 204.5q0 136 117 214.5t319 78.5q136 0 254 -31v72q0 117 -75.5 178.5t-221.5 61.5q-79 0 -168 -21t-149 -53l-17 141q65 36 160 58t184 22
q284 0 385 -174q133 172 351 172q145 2 253.5 -75.5t154.5 -205.5t20 -272h-727q18 -137 113 -217t231 -80q84 0 155 19.5t156 68.5zM444 111q129 0 224 71q97 76 106 176v48q-120 30 -258 30q-129 0 -203.5 -45.5t-74.5 -124.5q0 -73 56 -114t150 -41zM930 557h573
q-8 125 -82 201t-194 76q-121 0 -205 -78q-83 -77 -92 -199zM928 1450h180l-188 -336h-140z" />
    <glyph glyph-name="Oslashacute" unicode="&#x1fe;" horiz-adv-x="1636" 
d="M102 672q-2 148 53.5 280.5t151 226.5t228.5 147.5t280 51.5q191 0 346 -82l117 168l129 -88l-117 -164q118 -97 181 -236t63 -304q0 -151 -54.5 -280t-149.5 -219.5t-228.5 -141.5t-286.5 -51q-180 0 -334 71l-114 -166l-125 90l110 158q-120 95 -185 234t-65 305z
M274 674q0 -255 170 -408l625 899q-113 58 -254 58q-236 0 -389 -156q-152 -155 -152 -393zM1364 674q0 122 -43 225.5t-123 177.5l-625 -895q107 -49 242 -49q242 0 395 150q154 151 154 391zM932 1806h178l-186 -333h-140z" />
    <glyph glyph-name="oslashacute" unicode="&#x1ff;" horiz-adv-x="1150" 
d="M63 479q0 211 146 357q148 145 364 145q144 0 267 -72l157 195l105 -86l-158 -191q139 -145 139 -348q0 -211 -145 -356q-143 -143 -365 -143q-148 0 -264 67l-153 -188l-103 84l152 186q-142 145 -142 350zM223 479q0 -132 80 -227l438 539q-76 40 -168 40
q-147 0 -249 -102q-101 -101 -101 -250zM926 479q0 131 -80 226l-438 -537q77 -41 165 -41q150 0 252 102q101 101 101 250zM651 1450h180l-188 -336h-139z" />
    <glyph glyph-name="Scommaaccent" unicode="&#x218;" horiz-adv-x="1150" 
d="M678 580l-229 71q-148 49 -236 117q-100 83 -100 221q0 181 128.5 285t354.5 104q213 0 399 -73l-16 -154q-77 36 -176.5 57t-192.5 21q-152 0 -237.5 -58.5t-85.5 -164.5q0 -74 45 -123q13 -13 27.5 -23.5t36 -20t33 -14t42 -15t39.5 -13.5q2 -1 5.5 -1.5t5.5 -1t3 -1.5
l213 -68q174 -58 251 -139.5t77 -216.5q0 -174 -133 -283q-130 -106 -357 -106q-120 0 -249 24q-130 27 -217 70l16 155q91 -45 211 -71q123 -27 225 -27q153 0 242.5 62t89.5 172q0 80 -49 129t-166 86zM633 -512h-131l12 389h172z" />
    <glyph glyph-name="scommaaccent" unicode="&#x219;" horiz-adv-x="927" 
d="M453 561l100 -20q291 -58 291 -275q0 -136 -101.5 -211t-279.5 -75q-216 0 -361 71l23 144q141 -72 326 -72q116 0 176.5 34.5t60.5 100.5q0 60 -48.5 93t-160.5 57l-125 24q-126 25 -194 91.5t-68 170.5q0 129 106.5 208t284.5 79q181 0 308 -53l-21 -140
q-125 52 -276 52q-117 0 -179.5 -37t-62.5 -105q0 -58 44.5 -87t156.5 -50zM512 -512h-133l14 389h172z" />
    <glyph glyph-name="uni021A" unicode="&#x21a;" horiz-adv-x="1138" 
d="M1106 1358v-154h-455v-1204h-28l-33 -96q94 -8 149.5 -52.5t55.5 -113.5q0 -86 -69 -135t-191 -49q-86 0 -136 20v113q59 -19 125 -19q127 0 127 70q0 76 -145 76h-60l70 186h-29v1204h-454v154h1073z" />
    <glyph glyph-name="uni021B" unicode="&#x21b;" horiz-adv-x="763" 
d="M391 -186h-57l69 186q-87 30 -134.5 101t-47.5 178v544h-176v138h178v307h158v-307h305v-138h-305v-520q0 -89 43.5 -134.5t122.5 -45.5q94 0 164 27l20 -138q-68 -32 -201 -32q-22 0 -28 2l-27 -78q94 -8 149.5 -52.5t55.5 -113.5q0 -86 -68.5 -135t-189.5 -49
q-85 0 -135 20v113q59 -19 123 -19q129 0 129 70q0 76 -148 76z" />
    <glyph glyph-name="dotlessj" unicode="&#x237;" horiz-adv-x="503" 
d="M178 -84v1045h160v-1055q0 -156 -78 -241t-225 -85q-93 0 -152 27l19 135q52 -21 123 -21q153 0 153 195z" />
    <glyph glyph-name="schwa" unicode="&#x259;" horiz-adv-x="1144" 
d="M172 741l-29 144q166 96 363 96q242 0 393 -139q154 -139 154 -363q0 -213 -142 -358q-138 -141 -354 -141q-116 -1 -212.5 44.5t-156.5 122.5t-84.5 180t-3.5 212h787q-20 135 -123.5 213.5t-251.5 78.5q-91 0 -171 -20.5t-169 -69.5zM883 408h-637q8 -126 91 -203.5
t216 -77.5q134 0 226 78.5t104 202.5z" />
    <glyph glyph-name="nhookleft" unicode="&#x272;" horiz-adv-x="1212" 
d="M653 981q190 0 298 -106t108 -291v-584h-158v545q0 139 -70.5 211.5t-201.5 72.5q-129 0 -213 -79t-84 -207v-590q3 -53 -6 -123q-12 -119 -84 -184.5t-193 -65.5q-83 0 -135 27l16 135q46 -21 109 -21q133 0 133 175v1065h160v-146q44 74 129.5 120t191.5 46z" />
    <glyph glyph-name="circumflex" unicode="&#x2c6;" horiz-adv-x="960" 
d="M444 1839h72l277 -369h-156l-156 222l-155 -222h-156z" />
    <glyph glyph-name="caron" unicode="&#x2c7;" horiz-adv-x="960" 
d="M516 1475h-72l-274 368h156l153 -221l158 221h156z" />
    <glyph glyph-name="breve" unicode="&#x2d8;" horiz-adv-x="860" 
d="M158 1759h137q5 -63 42.5 -103t92.5 -40q57 0 93.5 39.5t41.5 103.5h137q-6 -121 -80.5 -193.5t-191.5 -72.5t-190.5 72t-81.5 194z" />
    <glyph glyph-name="dotaccent" unicode="&#x2d9;" horiz-adv-x="536" 
d="M266 1518q-43 0 -69.5 27.5t-26.5 70.5q0 44 26.5 71t69.5 27q62 5 87.5 -46.5t0 -103t-87.5 -46.5z" />
    <glyph glyph-name="ring" unicode="&#x2da;" horiz-adv-x="761" 
d="M170 1692q0 88 59.5 145t151.5 57t152.5 -57t60.5 -145q0 -86 -60.5 -142.5t-152.5 -56.5t-151.5 56.5t-59.5 142.5zM279 1692q0 -43 29 -72t73 -29t73 29t29 72q0 44 -29 74t-73 30t-73 -30t-29 -74z" />
    <glyph glyph-name="ogonek" unicode="&#x2db;" horiz-adv-x="684" 
d="M395 33l92 -33q-198 -129 -198 -227q0 -41 27.5 -63.5t78.5 -22.5q55 0 119 28l39 -116q-74 -45 -180 -45q-105 0 -165.5 50t-60.5 138q0 84 67.5 158.5t180.5 132.5z" />
    <glyph glyph-name="tilde" unicode="&#x2dc;" horiz-adv-x="1005" 
d="M383 1614q-39 0 -64 -17t-65 -63l-84 72q88 143 207 143q58 0 131 -43q77 -41 117 -41t68.5 19t62.5 63l82 -76q-46 -69 -96.5 -103t-116.5 -34q-57 0 -131 39q-77 41 -111 41z" />
    <glyph glyph-name="hungarumlaut" unicode="&#x2dd;" horiz-adv-x="999" 
d="M322 1806h184l-205 -333h-131zM645 1806h184l-202 -333h-133z" />
    <glyph glyph-name="acutecomb" unicode="&#x301;" horiz-adv-x="665" 
d="M315 2277h181l-189 -333h-137z" />
    <glyph glyph-name="pi" unicode="&#x3c0;" horiz-adv-x="1282" 
d="M53 1096h1133v-158h-189v-612q0 -113 35 -157t125 -44h23v-141q-10 -2 -54 -2q-282 0 -282 307v649h-449v-938h-155v938h-187v158z" />
    <glyph glyph-name="Wgrave" unicode="&#x1e80;" horiz-adv-x="2039" 
d="M682 0h-242l-401 1358h170l354 -1188l369 1178h176l369 -1178l356 1188h168l-402 -1358h-241l-338 1106zM950 1473l-186 333h178l148 -333h-140z" />
    <glyph glyph-name="wgrave" unicode="&#x1e81;" horiz-adv-x="1597" 
d="M455 152l260 798h168l260 -798l239 809h168l-299 -961h-213l-239 727l-240 -727h-213l-299 961h168zM725 1114l-188 336h180l145 -336h-137z" />
    <glyph glyph-name="Wacute" unicode="&#x1e82;" horiz-adv-x="2039" 
d="M682 0h-242l-401 1358h170l354 -1188l369 1178h176l369 -1178l356 1188h168l-402 -1358h-241l-338 1106zM1130 1806h181l-189 -333h-139z" />
    <glyph glyph-name="wacute" unicode="&#x1e83;" horiz-adv-x="1597" 
d="M455 152l260 798h168l260 -798l239 809h168l-299 -961h-213l-239 727l-240 -727h-213l-299 961h168zM907 1450h180l-188 -336h-137z" />
    <glyph glyph-name="Wdieresis" unicode="&#x1e84;" horiz-adv-x="2039" 
d="M682 0h-242l-401 1358h170l354 -1188l369 1178h176l369 -1178l356 1188h168l-402 -1358h-241l-338 1106zM754 1616q0 43 27.5 70.5t70.5 27.5q42 0 70.5 -30t28.5 -68t-29 -72q-32 -27 -69.5 -27t-68 29t-30.5 70zM1202 1518q-43 0 -69.5 27.5t-26.5 70.5t26.5 70.5
t69.5 27.5q62 5 87.5 -46.5t0 -103t-87.5 -46.5z" />
    <glyph glyph-name="wdieresis" unicode="&#x1e85;" horiz-adv-x="1597" 
d="M455 152l260 798h168l260 -798l239 809h168l-299 -961h-213l-239 727l-240 -727h-213l-299 961h168zM621 1184q-43 0 -71 27t-28 69q-4 31 14 56t45 35.5t58 5.5t51 -27q22 -20 27 -50.5t-5 -57t-35 -44.5t-56 -14zM971 1184q-43 0 -71 27t-28 69q0 43 28 70.5t71 27.5
q61 5 86 -46.5t0 -102.5t-86 -45z" />
    <glyph glyph-name="uni1E9E" unicode="&#x1e9e;" horiz-adv-x="1406" 
d="M1204 1233v-123l-342 -348q197 -9 322 -113q127 -106 127 -268q0 -185 -122 -293t-331 -108q-156 0 -272 43l18 147q107 -45 248 -45q139 0 215 66t76 182q0 121 -95 189.5t-260 68.5q-16 0 -110 -4v135l373 383q-127 80 -306 80q-191 0 -295 -109.5t-104 -310.5v-805
h-166v811q0 272 148.5 419.5t423.5 147.5q242 0 452 -145z" />
    <glyph glyph-name="Adotbelow" unicode="&#x1ea0;" horiz-adv-x="1347" 
d="M578 1358h194l561 -1358h-174l-125 315h-717l-127 -315h-174zM981 457l-305 729l-307 -729h612zM674 -381q-43 0 -71 28t-28 72q0 43 28 70t71 27t70.5 -28t27.5 -71t-27.5 -70.5t-70.5 -27.5z" />
    <glyph glyph-name="adotbelow" unicode="&#x1ea1;" horiz-adv-x="1271" 
d="M946 961h160v-961h-160v158q-57 -82 -152.5 -130t-215.5 -48q-210 0 -347 143q-139 145 -139 360t139 357q138 141 347 141q121 0 216 -47.5t152 -130.5v158zM594 836q-151 0 -246 -103q-96 -104 -96 -250q0 -149 96 -256q94 -102 246 -102q150 0 252 102
q102 105 102 256q0 148 -102 250q-103 103 -252 103zM600 -381q-60 -6 -85.5 46.5t-1 105t84.5 45.5q44 0 73 -28t29 -71t-28.5 -70.5t-71.5 -27.5z" />
    <glyph glyph-name="Edotbelow" unicode="&#x1eb8;" horiz-adv-x="1294" 
d="M1194 150v-150h-995v1358h972v-150h-809v-436h705v-149h-705v-473h832zM715 -381q-43 0 -71 28t-28 72q0 43 28 70t71 27q62 5 87.5 -46.5t0 -103.5t-87.5 -47z" />
    <glyph glyph-name="edotbelow" unicode="&#x1eb9;" horiz-adv-x="1144" 
d="M973 217l26 -143q-163 -94 -360 -94q-244 0 -395 139q-152 140 -152 360q0 214 139 359q137 143 355 143q154 2 271 -77.5t166 -209t19 -272.5h-784q20 -135 122.5 -214t250.5 -79q93 0 172.5 20t169.5 68zM262 553h635q-6 125 -89.5 201.5t-217.5 76.5t-226 -77.5
t-102 -200.5zM502 -283q0 43 27.5 71t70.5 28q44 0 72 -28t28 -71t-28.5 -70.5t-71.5 -27.5t-70.5 27.5t-27.5 70.5z" />
    <glyph glyph-name="Etilde" unicode="&#x1ebc;" horiz-adv-x="1294" 
d="M1194 150v-150h-995v1358h972v-150h-809v-436h705v-149h-705v-473h832zM575 1614q-36 0 -61 -17t-65 -63l-87 72q91 143 209 143q58 0 131 -43q74 -41 115 -41q40 0 68.5 19t62.5 63l82 -76q-46 -70 -95.5 -103.5t-115.5 -33.5q-57 0 -131 39q-77 41 -113 41z" />
    <glyph glyph-name="etilde" unicode="&#x1ebd;" horiz-adv-x="1144" 
d="M973 217l26 -143q-163 -94 -360 -94q-244 0 -395 139q-152 140 -152 360q0 214 139 359q137 143 355 143q154 2 271 -77.5t166 -209t19 -272.5h-784q20 -135 122.5 -214t250.5 -79q93 0 172.5 20t169.5 68zM262 553h635q-6 125 -89.5 201.5t-217.5 76.5t-226 -77.5
t-102 -200.5zM453 1255q-36 0 -63.5 -17.5t-63.5 -61.5l-86 71q92 142 209 142q49 0 131.5 -40t113.5 -40q41 0 70.5 18.5t62.5 61.5l80 -76q-44 -69 -94.5 -103t-116.5 -34q-48 0 -131.5 39.5t-111.5 39.5z" />
    <glyph glyph-name="Idotbelow" unicode="&#x1eca;" horiz-adv-x="561" 
d="M362 0h-163v1358h163v-1358zM182 -283q0 43 28 71t71 28q44 0 72 -28t28 -71t-28 -70.5t-72 -27.5q-43 0 -71 27.5t-28 70.5z" />
    <glyph glyph-name="idotbelow" unicode="&#x1ecb;" horiz-adv-x="491" 
d="M326 0h-160v961h160v-961zM150 1282q0 43 27.5 70.5t70.5 27.5q44 0 72 -27.5t28 -70.5q6 -61 -45.5 -86t-104 0t-48.5 86zM147 -283q0 43 28 71t71 28q44 0 72 -28t28 -71t-27.5 -70.5t-70.5 -27.5t-72 28t-29 70z" />
    <glyph glyph-name="Odotbelow" unicode="&#x1ecc;" horiz-adv-x="1634" 
d="M102 672q-2 148 53 280.5t151 226.5t228 147.5t279 51.5q201 3 367.5 -89t261.5 -255.5t92 -361.5q0 -201 -94 -359.5t-258.5 -245.5t-368.5 -87q-147 -3 -279 49t-228 143.5t-151 222t-53 277.5zM272 674q0 -239 152 -391q153 -150 389 -150q242 0 395 150
q156 150 156 391q0 240 -156 393q-153 156 -395 156q-236 0 -389 -156q-152 -155 -152 -393zM717 -283q0 43 27.5 71t70.5 28q44 0 72 -28t28 -71t-28 -70.5t-72 -27.5q-43 0 -70.5 27.5t-27.5 70.5z" />
    <glyph glyph-name="odotbelow" unicode="&#x1ecd;" horiz-adv-x="1202" 
d="M238 125q-148 145 -148 354q0 211 146 357q148 145 364 145q220 0 365 -145t145 -357q0 -211 -145 -356q-143 -143 -365 -143q-217 0 -362 145zM350 729q-100 -100 -100 -250t100 -250q102 -102 250 -102q150 0 252 102q100 100 100 250t-100 250q-102 102 -252 102
q-148 0 -250 -102zM606 -381q-43 0 -69.5 28t-26.5 72q0 43 26.5 70t69.5 27q62 5 87.5 -46.5t0 -103.5t-87.5 -47z" />
    <glyph glyph-name="Udotbelow" unicode="&#x1ee4;" horiz-adv-x="1544" 
d="M184 485v873h164v-864q0 -168 114.5 -263.5t307.5 -95.5q195 0 309.5 96.5t114.5 262.5v864h166v-873q0 -159 -78 -274.5t-210 -173t-302 -57.5q-266 0 -426 133q-160 136 -160 372zM670 -283q0 43 27.5 71t70.5 28t70.5 -28t27.5 -71t-27.5 -70.5t-70.5 -27.5
t-70.5 27.5t-27.5 70.5z" />
    <glyph glyph-name="udotbelow" unicode="&#x1ee5;" horiz-adv-x="1173" 
d="M864 414v547h158v-572q0 -182 -119 -295q-120 -114 -317 -114q-198 0 -316 112t-118 291v578h157v-547q0 -133 75.5 -209t203.5 -76t202 76t74 209zM592 -381q-43 0 -70.5 28t-27.5 72q0 43 27.5 70t70.5 27t70.5 -28t27.5 -71t-27.5 -70.5t-70.5 -27.5z" />
    <glyph glyph-name="Ygrave" unicode="&#x1ef2;" horiz-adv-x="1265" 
d="M551 530l-535 828h197l420 -660l420 660h196l-534 -828v-530h-164v530zM575 1473l-188 333h180l148 -333h-140z" />
    <glyph glyph-name="ygrave" unicode="&#x1ef3;" horiz-adv-x="1054" 
d="M205 961l325 -805l322 805h174l-453 -1084q-68 -159 -149.5 -228t-214.5 -69q-104 0 -166 33l20 135q59 -27 136 -27q78 0 131.5 49.5t97.5 157.5l18 45l-415 988h174zM467 1114l-188 336h180l145 -336h-137z" />
    <glyph glyph-name="Ytilde" unicode="&#x1ef8;" horiz-adv-x="1265" 
d="M551 530l-535 828h197l420 -660l420 660h196l-534 -828v-530h-164v530zM516 1614q-36 0 -62 -17t-65 -63l-86 72q91 143 209 143q49 0 132 -42t114 -42q39 0 67.5 18.5t65.5 63.5l80 -76q-44 -69 -94.5 -103t-116.5 -34q-48 0 -132 40t-112 40z" />
    <glyph glyph-name="ytilde" unicode="&#x1ef9;" horiz-adv-x="1054" 
d="M205 961l325 -805l322 805h174l-453 -1084q-68 -159 -149.5 -228t-214.5 -69q-104 0 -166 33l20 135q59 -27 136 -27q78 0 131.5 49.5t97.5 157.5l18 45l-415 988h174zM403 1255q-36 0 -63.5 -17.5t-63.5 -61.5l-86 71q92 142 209 142q50 0 132 -40t114 -40
q41 0 70.5 18.5t62.5 61.5l80 -76q-44 -69 -94.5 -103t-116.5 -34q-48 0 -132 39.5t-112 39.5z" />
    <glyph glyph-name="uni2000" unicode="&#x2000;" horiz-adv-x="1146" 
 />
    <glyph glyph-name="uni2001" unicode="&#x2001;" horiz-adv-x="2293" 
 />
    <glyph glyph-name="uni2002" unicode="&#x2002;" horiz-adv-x="1146" 
 />
    <glyph glyph-name="uni2003" unicode="&#x2003;" horiz-adv-x="2293" 
 />
    <glyph glyph-name="uni2004" unicode="&#x2004;" horiz-adv-x="763" 
 />
    <glyph glyph-name="uni2005" unicode="&#x2005;" horiz-adv-x="573" 
 />
    <glyph glyph-name="uni2006" unicode="&#x2006;" horiz-adv-x="382" 
 />
    <glyph glyph-name="uni2007" unicode="&#x2007;" horiz-adv-x="382" 
 />
    <glyph glyph-name="uni2008" unicode="&#x2008;" horiz-adv-x="286" 
 />
    <glyph glyph-name="uni2009" unicode="&#x2009;" horiz-adv-x="458" 
 />
    <glyph glyph-name="uni200A" unicode="&#x200a;" horiz-adv-x="126" 
 />
    <glyph glyph-name="uni2010" unicode="&#x2010;" horiz-adv-x="944" 
d="M143 651h658v-151h-658v151z" />
    <glyph glyph-name="uni2011" unicode="&#x2011;" horiz-adv-x="944" 
d="M143 651h658v-151h-658v151z" />
    <glyph glyph-name="figuredash" unicode="&#x2012;" horiz-adv-x="944" 
d="M143 651h658v-151h-658v151z" />
    <glyph glyph-name="endash" unicode="&#x2013;" horiz-adv-x="1273" 
d="M143 651h987v-151h-987v151z" />
    <glyph glyph-name="emdash" unicode="&#x2014;" horiz-adv-x="2316" 
d="M143 651h2030v-151h-2030v151z" />
    <glyph glyph-name="quoteleft" unicode="&#x2018;" horiz-adv-x="460" 
d="M391 1427l-121 -475h-180l156 475h145z" />
    <glyph glyph-name="quoteright" unicode="&#x2019;" horiz-adv-x="448" 
d="M100 952l121 475h178l-153 -475h-146z" />
    <glyph glyph-name="quotesinglbase" unicode="&#x201a;" horiz-adv-x="446" 
d="M23 -268l120 475h179l-154 -475h-145z" />
    <glyph glyph-name="quotedblleft" unicode="&#x201c;" horiz-adv-x="776" 
d="M391 1427l-121 -475h-180l156 475h145zM707 1427l-121 -475h-180l153 475h148z" />
    <glyph glyph-name="quotedblright" unicode="&#x201d;" horiz-adv-x="763" 
d="M416 952l121 475h178l-156 -475h-143zM100 952l121 475h178l-153 -475h-146z" />
    <glyph glyph-name="quotedblbase" unicode="&#x201e;" horiz-adv-x="768" 
d="M338 -272l121 475h180l-156 -475h-145zM23 -272l120 475h181l-154 -475h-147z" />
    <glyph glyph-name="dagger" unicode="&#x2020;" horiz-adv-x="772" 
d="M455 1311h233v-123h-233v-680h-140v680h-231v123h231v297h140v-297z" />
    <glyph glyph-name="daggerdbl" unicode="&#x2021;" horiz-adv-x="845" 
d="M492 1384h233v-124h-233v-406h233v-123h-233v-254h-140v254h-231v123h231v406h-231v124h231v254h140v-254z" />
    <glyph glyph-name="bullet" unicode="&#x2022;" horiz-adv-x="702" 
d="M350 850q75 0 126.5 -51.5t51.5 -126.5q0 -74 -51.5 -125t-126.5 -51t-125.5 51t-50.5 125q0 75 50.5 126.5t125.5 51.5z" />
    <glyph glyph-name="ellipsis" unicode="&#x2026;" horiz-adv-x="1265" 
d="M285 14q-29 -29 -72 -29t-72 29q-26 29 -26 71t26 71q29 29 72 29t72 -29t29 -71t-29 -71zM705 14q-29 -29 -72 -29t-72 29q-26 29 -26 71t26 71q29 29 72 29t69 -29q29 -29 29.5 -71t-26.5 -71zM1053 -14q-43 0 -71 28t-28 70q0 43 28 71.5t71 28.5t70.5 -28.5
t27.5 -71.5q0 -42 -28 -70t-70 -28z" />
    <glyph glyph-name="uni202F" unicode="&#x202f;" horiz-adv-x="458" 
 />
    <glyph glyph-name="perthousand" unicode="&#x2030;" horiz-adv-x="2633" 
d="M61 1018q0 154 105 256q107 104 262 104q158 0 262 -104q107 -101 107 -256q0 -152 -107 -256q-105 -105 -262 -105q-154 0 -262 105q-105 105 -105 256zM1012 340q0 155 104 256q107 104 262 104q158 0 262 -104q107 -101 107 -256q0 -152 -107 -256
q-104 -104 -262 -104q-155 0 -262 104q-104 104 -104 256zM1845 340q0 154 105 256q107 104 262 104q158 0 262 -104q106 -100 106 -256q0 -153 -106 -256q-104 -104 -262 -104q-155 0 -262 104q-105 105 -105 256zM600 0h-125v27l733 1331h125v-25zM1217 504
q-66 -69 -66 -164q0 -98 63 -164q65 -65 164 -65t164 65q66 69 66 164q0 96 -66 162q-64 67 -164 67q-96 0 -161 -65zM2050 504q-65 -68 -65 -164t65 -164q65 -65 162 -65q99 0 164 65q65 68 65 164q0 97 -65 162q-64 67 -164 67q-97 0 -162 -65zM266 1182q-65 -68 -65 -164
t65 -164q66 -66 162 -66q98 0 164 66q65 68 65 164q0 97 -65 162q-64 67 -164 67q-97 0 -162 -65z" />
    <glyph glyph-name="guilsinglleft" unicode="&#x2039;" horiz-adv-x="622" 
d="M268 479l258 -393h-170l-270 393l270 395h170z" />
    <glyph glyph-name="guilsinglright" unicode="&#x203a;" horiz-adv-x="622" 
d="M539 479l-273 -393h-170l258 393l-258 395h170z" />
    <glyph glyph-name="fraction" unicode="&#x2044;" horiz-adv-x="405" 
d="M-98 0h-125v27l733 1331h125v-25z" />
    <glyph glyph-name="uni205F" unicode="&#x205f;" horiz-adv-x="573" 
 />
    <glyph glyph-name="zerosuperior" unicode="&#x2070;" horiz-adv-x="858" 
d="M428 522q-88 0 -155.5 35t-107.5 96t-59.5 135.5t-19.5 161.5q0 86 19 160.5t58.5 136t107 96.5t157.5 35q73 0 132.5 -23.5t98.5 -63.5t65.5 -95t38 -116.5t11.5 -129.5q0 -69 -11.5 -130.5t-38.5 -116.5t-66 -94.5t-98 -63t-132 -23.5zM217 950q0 -138 55 -223.5
t156 -85.5q107 0 161 87.5t54 219.5q0 134 -54 223t-161 89q-72 0 -121 -45t-69.5 -113t-20.5 -152z" />
    <glyph glyph-name="foursuperior" unicode="&#x2074;" horiz-adv-x="757" 
d="M319 1358h144l-260 -512h252v211h133v-211h114v-117h-114v-197h-133v197h-402v100z" />
    <glyph glyph-name="fivesuperior" unicode="&#x2075;" horiz-adv-x="731" 
d="M137 924l-26 34l45 400h458v-115h-352l-20 -190q40 6 88 6q85 0 156.5 -27t120 -88.5t48.5 -148.5q0 -75 -27.5 -130.5t-75 -87t-104.5 -46.5t-124 -15q-138 0 -252 51l14 123q111 -57 223 -57q96 0 151.5 38t55.5 115q0 85 -60.5 122.5t-154.5 37.5q-78 0 -164 -22z" />
    <glyph glyph-name="sixsuperior" unicode="&#x2076;" horiz-adv-x="796" 
d="M410 635q82 0 131 45.5t49 120.5q0 78 -48 122t-128 44q-74 0 -125 -47.5t-51 -116.5q0 -71 48 -119.5t124 -48.5zM459 1378q113 0 213 -41l-13 -123q-95 50 -190 50q-109 0 -172.5 -67.5t-75.5 -195.5q83 74 205 74q129 0 214 -71t85 -199q0 -130 -87.5 -206.5
t-234.5 -76.5q-83 0 -145.5 30t-99 84t-54.5 121.5t-18 149.5q0 229 92.5 350t280.5 121z" />
    <glyph glyph-name="sevensuperior" unicode="&#x2077;" horiz-adv-x="622" 
d="M584 1260l-332 -728h-146l324 705h-377v121h531v-98z" />
    <glyph glyph-name="eightsuperior" unicode="&#x2078;" horiz-adv-x="811" 
d="M707 1147q0 -113 -105 -178q123 -65 123 -207q0 -113 -89.5 -178.5t-229.5 -65.5q-139 0 -229.5 65.5t-90.5 178.5q0 140 125 207q-105 65 -105 178q0 106 89 168q86 63 211 63q128 0 214.5 -64t86.5 -167zM223 770q0 -64 52 -100.5t133 -36.5t132.5 36.5t51.5 100.5
q0 70 -50.5 106.5t-133.5 36.5t-134 -36.5t-51 -106.5zM408 1264q-74 0 -120 -34.5t-46 -94.5q0 -56 46 -88.5t120 -32.5q71 0 117 32.5t46 88.5q0 60 -46 94.5t-117 34.5z" />
    <glyph glyph-name="ninesuperior" unicode="&#x2079;" horiz-adv-x="794" 
d="M387 1266q-82 0 -131 -45.5t-49 -120.5t47.5 -119.5t128.5 -44.5q77 0 125.5 46.5t48.5 115.5q0 72 -47.5 120t-122.5 48zM338 522q-115 0 -211 41l10 123q92 -47 191 -47q106 0 170.5 66.5t76.5 193.5q-89 -76 -206 -76q-128 0 -212.5 74.5t-84.5 198.5q0 130 86 206
t233 76q156 0 236 -102t80 -285q0 -228 -92.5 -348.5t-276.5 -120.5z" />
    <glyph glyph-name="zeroinferior" unicode="&#x2080;" horiz-adv-x="858" 
d="M428 -20q-88 0 -155.5 35t-107.5 96t-59.5 135.5t-19.5 161.5t19 161.5t58.5 135.5t107 96t157.5 35q91 0 159.5 -35t108.5 -96t59 -135.5t19 -161.5q0 -69 -11.5 -130.5t-38.5 -116.5t-66 -94.5t-98 -63t-132 -23.5zM217 408q0 -138 55 -224t156 -86q107 0 161 89.5
t54 220.5q0 134 -54 222.5t-161 88.5q-72 0 -121 -44.5t-69.5 -112.5t-20.5 -154z" />
    <glyph glyph-name="oneinferior" unicode="&#x2081;" horiz-adv-x="471" 
d="M340 0h-133v711h-166v114h299v-825z" />
    <glyph glyph-name="twoinferior" unicode="&#x2082;" horiz-adv-x="716" 
d="M424 272l-172 -157h389v-115h-565v102l258 248q72 67 102.5 121t30.5 111q0 68 -42 104.5t-116 36.5q-96 0 -203 -64l-20 117q119 64 240 64q127 0 202.5 -67.5t75.5 -188.5q0 -157 -180 -312z" />
    <glyph glyph-name="threeinferior" unicode="&#x2083;" horiz-adv-x="743" 
d="M195 362v101l243 246h-332v114h517v-98l-240 -233q132 -4 211.5 -73.5t79.5 -174.5q0 -129 -99 -197q-98 -67 -247 -67q-147 0 -262 65l18 121q130 -68 231 -68q104 0 162 37.5t58 100.5q0 72 -56.5 109.5t-148.5 37.5q-58 0 -135 -21z" />
    <glyph glyph-name="fourinferior" unicode="&#x2084;" horiz-adv-x="757" 
d="M322 825h143l-262 -512h254v211h131v-211h117v-114h-117v-199h-131v199h-402v100z" />
    <glyph glyph-name="fiveinferior" unicode="&#x2085;" horiz-adv-x="731" 
d="M137 387l-26 37l45 397h458v-114h-352l-20 -191q40 6 88 6q85 0 156.5 -26.5t120 -88t48.5 -149.5q0 -97 -48.5 -161.5t-120.5 -90.5t-162 -26q-134 0 -252 53l14 121q113 -58 223 -58q96 0 151.5 38.5t55.5 115.5q0 58 -31.5 96t-77.5 52t-106 14q-78 0 -164 -25z" />
    <glyph glyph-name="sixinferior" unicode="&#x2086;" horiz-adv-x="796" 
d="M410 92q82 0 131 45.5t49 120.5q0 80 -48 123t-128 43q-74 0 -125 -46.5t-51 -117.5t48 -119.5t124 -48.5zM459 836q118 0 213 -39l-13 -125q-92 51 -190 51q-109 0 -172.5 -68t-75.5 -196q82 76 205 76q129 0 214 -72t85 -201q0 -130 -87.5 -206t-234.5 -76
q-83 0 -145.5 30t-99 84t-54.5 122t-18 151q0 227 93 348t280 121z" />
    <glyph glyph-name="seveninferior" unicode="&#x2087;" horiz-adv-x="622" 
d="M586 727l-334 -727h-143l321 707h-377v118h533v-98z" />
    <glyph glyph-name="eightinferior" unicode="&#x2088;" horiz-adv-x="811" 
d="M707 608q0 -115 -105 -180q123 -65 123 -205q0 -113 -89.5 -178t-229.5 -65q-139 0 -229.5 65.5t-90.5 177.5q0 141 125 205q-105 65 -105 180q0 106 89 168q88 64 211 64q128 0 214.5 -64.5t86.5 -167.5zM223 231q0 -64 52.5 -101.5t132.5 -37.5t132 37.5t52 101.5
q0 67 -51 105.5t-133 38.5t-133.5 -38.5t-51.5 -105.5zM408 725q-74 0 -120 -34.5t-46 -94.5q0 -56 46 -88.5t120 -32.5q71 0 117 32.5t46 88.5q0 60 -46 94.5t-117 34.5z" />
    <glyph glyph-name="nineinferior" unicode="&#x2089;" horiz-adv-x="794" 
d="M387 725q-82 0 -131 -45t-49 -123q0 -75 47.5 -119.5t128.5 -44.5q77 0 125.5 46.5t48.5 115.5q0 73 -48 121.5t-122 48.5zM338 -20q-118 0 -211 40l10 123q92 -47 191 -47q106 0 170.5 66.5t76.5 195.5q-84 -75 -206 -75q-128 0 -212.5 73t-84.5 199q0 129 86.5 205
t232.5 76q155 0 235.5 -101.5t80.5 -283.5q0 -230 -92.5 -350.5t-276.5 -120.5z" />
    <glyph glyph-name="Euro" unicode="&#x20ac;" horiz-adv-x="1443" 
d="M1319 227l27 -157q-172 -88 -392 -88q-260 0 -444 135t-242 370h-196l14 101h166q-6 37 -6 94q0 41 2 51h-174l12 98h172q47 256 234 400q189 145 452 145q105 0 205.5 -22.5t173.5 -61.5l-18 -155q-155 82 -363 82q-190 0 -328 -105q-138 -102 -178 -283h559l-14 -98
h-559q-2 -23 -2 -51q0 -48 6 -94h539l-15 -101h-499q54 -163 192 -256.5t322 -93.5q83 0 170 19q117 27 184 71z" />
    <glyph glyph-name="trademark" unicode="&#x2122;" horiz-adv-x="1572" 
d="M836 1219v-416h-129v604h118l232 -256l229 256h121v-604h-129v416l-215 -236h-8zM406 803h-140v487h-190v117h520v-117h-190v-487z" />
    <glyph glyph-name="estimated" unicode="&#x212e;" horiz-adv-x="1730" 
d="M1659 668v-23h-1258q-10 0 -10 -8v-361q0 -20 17 -47q188 -176 479 -176q150 0 278 51.5t219 147.5h113q-106 -127 -266 -199.5t-346 -72.5q-159 -3 -304.5 52.5t-249.5 150t-164.5 224t-57.5 269.5q-4 141 58.5 272t168 226t250.5 151t299 53q209 0 387.5 -96
t282.5 -260t104 -354zM1374 725v358q0 25 -16 47q-87 84 -210.5 129.5t-260.5 45.5q-294 0 -475 -175q-21 -24 -21 -53v-352q0 -12 10 -12h967q6 0 6 12z" />
    <glyph glyph-name="onethird" unicode="&#x2153;" horiz-adv-x="1705" 
d="M1124 362v101l244 246h-332v114h516v-98l-237 -233q130 -4 209.5 -73.5t79.5 -174.5q0 -129 -99 -197q-98 -67 -248 -67q-147 0 -262 65l19 121q133 -68 231 -68q104 0 161.5 37.5t57.5 100.5q0 72 -56 109.5t-148 37.5q-60 0 -136 -21zM420 0h-125v27l733 1331h123v-25z
M365 532h-134v711h-163v115h297v-826z" />
    <glyph glyph-name="twothirds" unicode="&#x2154;" horiz-adv-x="1906" 
d="M639 0h-127v27l735 1331h123v-25zM1346 362v101l241 246h-330v114h515v-98l-238 -233q130 -4 209.5 -73.5t79.5 -174.5q0 -129 -99 -197q-94 -67 -247 -67q-148 0 -263 65l21 121q130 -68 231 -68q103 0 161.5 38t58.5 100q0 72 -57 109.5t-148 37.5q-59 0 -135 -21z
M420 811l-172 -158h391v-114h-567v102l258 248q72 69 102.5 122t30.5 109q0 68 -42 105t-116 37q-92 0 -203 -66l-18 119q114 63 238 63q126 0 202 -68.5t76 -189.5q0 -81 -45.5 -154t-134.5 -155z" />
    <glyph glyph-name="minus" unicode="&#x2212;" horiz-adv-x="1220" 
d="M152 766h917v-160h-917v160z" />
    <glyph glyph-name="uni2215" unicode="&#x2215;" horiz-adv-x="815" 
d="M106 0h-124v27l733 1331h125v-25z" />
    <glyph glyph-name="uni2219" unicode="&#x2219;" horiz-adv-x="686" 
d="M342 549q43 0 71.5 -28.5t28.5 -71.5q0 -41 -29 -70t-71 -29t-70 28.5t-28 70.5q0 43 27.5 71.5t70.5 28.5z" />
    <glyph glyph-name="approxequal" unicode="&#x2248;" horiz-adv-x="1236" 
d="M422 860q-84 0 -193 -92l-98 123q146 143 295 143q58 0 111.5 -15.5t87.5 -37.5q84 -53 180 -53q48 0 91 21t101 69l97 -121q-146 -143 -295 -143q-113 0 -197 53t-180 53zM432 416q-82 0 -192 -90l-99 120q147 144 295 144q115 0 199 -53q86 -54 178 -54q51 0 93.5 21
t101.5 69l96 -120q-147 -144 -295 -144q-113 0 -197 53q-86 54 -180 54z" />
    <glyph glyph-name="notequal" unicode="&#x2260;" horiz-adv-x="1333" 
d="M664 508h520v-164h-592l-148 -324l-114 50l123 274h-301v164h372l152 342h-524v162h598l139 311l121 -45l-119 -266h293v-162h-367z" />
    <glyph glyph-name="lessequal" unicode="&#x2264;" horiz-adv-x="1341" 
d="M332 655h848v-157h-1035v223l1029 487v-178zM143 238h1033v-162h-1033v162z" />
    <glyph glyph-name="greaterequal" unicode="&#x2265;" horiz-adv-x="1345" 
d="M166 498v157h848l-844 375v178l1028 -487v-223h-1032zM168 76v162h1032v-162h-1032z" />
    <glyph glyph-name="uni25FC" unicode="&#x25fc;" horiz-adv-x="960" 
d="M0 0v961h961v-961h-961z" />
    <glyph glyph-name="commaaccent" unicode="&#xf6c3;" horiz-adv-x="522" 
d="M301 -512h-131l12 389h172z" />
    <glyph glyph-name="NULL" horiz-adv-x="0" 
 />
    <glyph glyph-name="CR" horiz-adv-x="681" 
 />
    <glyph glyph-name="_443" horiz-adv-x="0" 
 />
    <glyph glyph-name="A.alt" horiz-adv-x="1503" 
d="M348 813v-227h807v227q0 200 -101.5 303t-297.5 103q-408 0 -408 -406zM1155 0v434h-807v-434h-166v856q0 242 148 380t426 138q268 0 415 -141q150 -141 150 -377v-856h-166z" />
    <glyph glyph-name="A.alt.smcp" horiz-adv-x="1167" 
d="M1022 639v-639h-160v303h-559v-303h-158v637q0 178 120 280.5t319 102.5q200 0 319 -102t119 -279zM303 618v-176h559v176q0 123 -74 188.5t-204 65.5q-131 0 -206 -66.5t-75 -187.5z" />
    <glyph glyph-name="A.smcp" horiz-adv-x="1052" 
d="M1030 0h-168l-90 225h-491l-88 -225h-170l407 999h193zM719 360l-193 488l-190 -488h383z" />
    <glyph glyph-name="A.swsh" horiz-adv-x="1589" 
d="M1376 66l-98 249h-719l-125 -315h-176l508 1223h-225q-192 0 -279.5 -96.5t-75.5 -299.5l-139 27q-25 233 109.5 368.5t392.5 135.5h467l524 -1284q149 -364 301 -516q151 -151 379 -154l-31 -135q-189 4 -325 81t-250.5 245.5t-237.5 470.5zM1223 457l-305 729
l-306 -729h611z" />
    <glyph glyph-name="AE.smcp" horiz-adv-x="1523" 
d="M1432 137v-137h-742v219h-397l-135 -219h-178l622 999h817v-137h-567v-282h494v-136h-494v-307h580zM690 356v506l-311 -506h311z" />
    <glyph glyph-name="AEacute.smcp" horiz-adv-x="1523" 
d="M1073 1489h180l-186 -334h-139zM1432 137v-137h-742v219h-397l-135 -219h-178l622 999h817v-137h-567v-282h494v-136h-494v-307h580zM690 356v506l-311 -506h311z" />
    <glyph glyph-name="Aacute.alt" horiz-adv-x="1503" 
d="M348 813v-227h807v227q0 200 -101.5 303t-297.5 103q-408 0 -408 -406zM1155 0v434h-807v-434h-166v856q0 242 148 380t426 138q268 0 415 -141q150 -141 150 -377v-856h-166zM836 1806h180l-189 -333h-139z" />
    <glyph glyph-name="Aacute.alt.smcp" horiz-adv-x="1167" 
d="M1022 639v-639h-160v303h-559v-303h-158v637q0 178 120 280.5t319 102.5q200 0 319 -102t119 -279zM303 618v-176h559v176q0 123 -74 188.5t-204 65.5q-131 0 -206 -66.5t-75 -187.5zM655 1489h181l-189 -334h-137z" />
    <glyph glyph-name="Aacute.smcp" horiz-adv-x="1052" 
d="M618 1489h181l-189 -334h-139zM1030 0h-168l-90 225h-491l-88 -225h-170l407 999h193zM719 360l-193 488l-190 -488h383z" />
    <glyph glyph-name="Aacute.swsh" horiz-adv-x="1589" 
d="M1024 1806h180l-186 -333h-139zM1376 66l-98 249h-719l-125 -315h-176l508 1223h-225q-192 0 -279.5 -96.5t-75.5 -299.5l-139 27q-25 233 109.5 368.5t392.5 135.5h467l524 -1284q149 -364 301 -516q151 -151 379 -154l-31 -135q-189 4 -325 81t-250.5 245.5
t-237.5 470.5zM1223 457l-305 729l-306 -729h611z" />
    <glyph glyph-name="Abreve.alt" horiz-adv-x="1503" 
d="M1155 0v434h-807v-434h-166v856q0 242 148 380t426 138q268 0 415 -141q150 -141 150 -377v-856h-166zM348 813v-227h807v227q0 200 -101.5 303t-297.5 103q-408 0 -408 -406zM473 1759h137q6 -64 43 -103.5t92 -39.5q56 0 94 39.5t44 103.5h135q-6 -121 -81 -193.5
t-192 -72.5q-116 0 -190.5 72.5t-81.5 193.5z" />
    <glyph glyph-name="Abreve.alt.smcp" horiz-adv-x="1167" 
d="M1022 639v-639h-160v303h-559v-303h-158v637q0 178 120 280.5t319 102.5q200 0 319 -102t119 -279zM303 618v-176h559v176q0 123 -74 188.5t-204 65.5q-131 0 -206 -66.5t-75 -187.5zM311 1444h135q6 -66 43.5 -106t94.5 -40q56 0 93.5 40t41.5 106h135
q-4 -121 -79.5 -194.5t-192.5 -73.5q-116 0 -190.5 73.5t-80.5 194.5z" />
    <glyph glyph-name="Abreve.smcp" horiz-adv-x="1052" 
d="M1030 0h-168l-90 225h-491l-88 -225h-170l407 999h193zM719 360l-193 488l-190 -488h383zM256 1446h135q6 -66 43 -106t92 -40q59 0 95.5 39.5t42.5 106.5h135q-6 -122 -80.5 -195t-192.5 -73q-116 0 -190 73t-80 195z" />
    <glyph glyph-name="Abreve.swsh" horiz-adv-x="1589" 
d="M651 1759h135q6 -64 44 -103.5t94 -39.5q57 0 93.5 39.5t41.5 103.5h135q-4 -121 -79 -193.5t-193 -72.5q-116 0 -190.5 72.5t-80.5 193.5zM1376 66l-98 249h-719l-125 -315h-176l508 1223h-225q-192 0 -279.5 -96.5t-75.5 -299.5l-139 27q-25 233 109.5 368.5
t392.5 135.5h467l524 -1284q149 -364 301 -516q151 -151 379 -154l-31 -135q-189 4 -325 81t-250.5 245.5t-237.5 470.5zM1223 457l-305 729l-306 -729h611z" />
    <glyph glyph-name="Acircumflex.alt" horiz-adv-x="1503" 
d="M348 813v-227h807v227q0 200 -101.5 303t-297.5 103q-408 0 -408 -406zM1155 0v434h-807v-434h-166v856q0 242 148 380t426 138q268 0 415 -141q150 -141 150 -377v-856h-166zM707 1839h71l277 -369h-158l-154 222l-155 -222h-158z" />
    <glyph glyph-name="Acircumflex.alt.smcp" horiz-adv-x="1167" 
d="M1022 639v-639h-160v303h-559v-303h-158v637q0 178 120 280.5t319 102.5q200 0 319 -102t119 -279zM303 618v-176h559v176q0 123 -74 188.5t-204 65.5q-131 0 -206 -66.5t-75 -187.5zM553 1495h72l274 -369h-156l-153 222l-158 -222h-156z" />
    <glyph glyph-name="Acircumflex.smcp" horiz-adv-x="1052" 
d="M489 1495h72l277 -369h-156l-156 224l-155 -224h-158zM1030 0h-168l-90 225h-491l-88 -225h-170l407 999h193zM719 360l-193 488l-190 -488h383z" />
    <glyph glyph-name="Acircumflex.swsh" horiz-adv-x="1589" 
d="M889 1839h74l274 -369h-156l-153 222l-158 -222h-156zM1376 66l-98 249h-719l-125 -315h-176l508 1223h-225q-192 0 -279.5 -96.5t-75.5 -299.5l-139 27q-25 233 109.5 368.5t392.5 135.5h467l524 -1284q149 -364 301 -516q151 -151 379 -154l-31 -135q-189 4 -325 81
t-250.5 245.5t-237.5 470.5zM1223 457l-305 729l-306 -729h611z" />
    <glyph glyph-name="Adieresis.alt" horiz-adv-x="1503" 
d="M348 813v-227h807v227q0 200 -101.5 303t-297.5 103q-408 0 -408 -406zM1155 0v434h-807v-434h-166v856q0 242 148 380t426 138q268 0 415 -141q150 -141 150 -377v-856h-166zM469 1616q0 43 26.5 70.5t69.5 27.5q67 0 93 -61.5t-21 -108.5q-20 -21 -51 -25t-58 6t-45 35
t-14 56zM918 1518q-43 0 -71 27.5t-28 70.5t28 70.5t71 27.5t70.5 -27.5t27.5 -70.5t-27.5 -70.5t-70.5 -27.5z" />
    <glyph glyph-name="Adieresis.alt.smcp" horiz-adv-x="1167" 
d="M1022 639v-639h-160v303h-559v-303h-158v637q0 178 120 280.5t319 102.5q200 0 319 -102t119 -279zM303 618v-176h559v176q0 123 -74 188.5t-204 65.5q-131 0 -206 -66.5t-75 -187.5zM827 1249q-26 -26 -69 -26t-72 26q-26 26 -26 70t26 70q29 29 72 29t69 -29
q26 -26 26 -70t-26 -70zM406 1223q-43 0 -71 27t-28 69q0 44 28 71t71 27t70.5 -27.5t27.5 -70.5t-27.5 -69.5t-70.5 -26.5z" />
    <glyph glyph-name="Adieresis.smcp" horiz-adv-x="1052" 
d="M348 1223q-43 0 -69.5 27.5t-26.5 70.5t26.5 69.5t69.5 26.5q62 6 87.5 -45t0 -102.5t-87.5 -46.5zM700 1223q-43 0 -70.5 27.5t-27.5 70.5q-4 31 14 55.5t45.5 34.5t58 5.5t50.5 -25.5q22 -20 27 -50.5t-5.5 -57.5t-35 -45t-56.5 -15zM1030 0h-168l-90 225h-491
l-88 -225h-170l407 999h193zM719 360l-193 488l-190 -488h383z" />
    <glyph glyph-name="Adieresis.swsh" horiz-adv-x="1589" 
d="M999 1616q0 43 28 70.5t71 27.5q33 3 57.5 -15t33.5 -45.5t4.5 -58t-24.5 -51.5t-51 -25t-58.5 6t-46 35t-14.5 56zM748 1518q-43 0 -71 27.5t-28 70.5t28 70.5t71 27.5t70.5 -27.5t27.5 -70.5t-27.5 -70.5t-70.5 -27.5zM1376 66l-98 249h-719l-125 -315h-176l508 1223
h-225q-192 0 -279.5 -96.5t-75.5 -299.5l-139 27q-25 233 109.5 368.5t392.5 135.5h467l524 -1284q149 -364 301 -516q151 -151 379 -154l-31 -135q-189 4 -325 81t-250.5 245.5t-237.5 470.5zM1223 457l-305 729l-306 -729h611z" />
    <glyph glyph-name="Adotbelow.alt" horiz-adv-x="1503" 
d="M348 813v-227h807v227q0 200 -101.5 303t-297.5 103q-408 0 -408 -406zM1155 0v434h-807v-434h-166v856q0 242 148 380t426 138q268 0 415 -141q150 -141 150 -377v-856h-166zM645 -283q0 43 27.5 71t70.5 28q44 0 72.5 -28t28.5 -71t-28 -70.5t-71 -27.5t-71.5 27.5
t-28.5 70.5z" />
    <glyph glyph-name="Adotbelow.alt.smcp" horiz-adv-x="1167" 
d="M1022 639v-639h-160v303h-559v-303h-158v637q0 178 120 280.5t319 102.5q200 0 319 -102t119 -279zM303 618v-176h559v176q0 123 -74 188.5t-204 65.5q-131 0 -206 -66.5t-75 -187.5zM489 -283q0 43 28 71t71 28q44 0 71 -28t27 -71t-27 -70.5t-71 -27.5q-43 0 -71 27.5
t-28 70.5z" />
    <glyph glyph-name="Adotbelow.smcp" horiz-adv-x="1052" 
d="M428 -283q0 43 27.5 71t70.5 28q44 0 72.5 -28t28.5 -71q0 -42 -29 -70t-72 -28t-70.5 27.5t-27.5 70.5zM1030 0h-168l-90 225h-491l-88 -225h-170l407 999h193zM719 360l-193 488l-190 -488h383z" />
    <glyph glyph-name="Adotbelow.swsh" horiz-adv-x="1589" 
d="M821 -283q0 43 28 71t71 28q44 0 72 -28t28 -71t-27.5 -70.5t-70.5 -27.5t-72 28t-29 70zM1376 66l-98 249h-719l-125 -315h-176l508 1223h-225q-192 0 -279.5 -96.5t-75.5 -299.5l-139 27q-25 233 109.5 368.5t392.5 135.5h467l524 -1284q149 -364 301 -516
q151 -151 379 -154l-31 -135q-189 4 -325 81t-250.5 245.5t-237.5 470.5zM1223 457l-305 729l-306 -729h611z" />
    <glyph glyph-name="Agrave.alt" horiz-adv-x="1503" 
d="M348 813v-227h807v227q0 200 -101.5 303t-297.5 103q-408 0 -408 -406zM1155 0v434h-807v-434h-166v856q0 242 148 380t426 138q268 0 415 -141q150 -141 150 -377v-856h-166zM694 1473l-188 333h180l148 -333h-140z" />
    <glyph glyph-name="Agrave.alt.smcp" horiz-adv-x="1167" 
d="M1022 639v-639h-160v303h-559v-303h-158v637q0 178 120 280.5t319 102.5q200 0 319 -102t119 -279zM303 618v-176h559v176q0 123 -74 188.5t-204 65.5q-131 0 -206 -66.5t-75 -187.5zM514 1155l-186 334h180l145 -334h-139z" />
    <glyph glyph-name="Agrave.smcp" horiz-adv-x="1052" 
d="M455 1155l-189 334h180l148 -334h-139zM1030 0h-168l-90 225h-491l-88 -225h-170l407 999h193zM719 360l-193 488l-190 -488h383z" />
    <glyph glyph-name="Agrave.swsh" horiz-adv-x="1589" 
d="M811 1473l-186 333h180l145 -333h-139zM1376 66l-98 249h-719l-125 -315h-176l508 1223h-225q-192 0 -279.5 -96.5t-75.5 -299.5l-139 27q-25 233 109.5 368.5t392.5 135.5h467l524 -1284q149 -364 301 -516q151 -151 379 -154l-31 -135q-189 4 -325 81t-250.5 245.5
t-237.5 470.5zM1223 457l-305 729l-306 -729h611z" />
    <glyph glyph-name="Amacron.alt" horiz-adv-x="1503" 
d="M348 813v-227h807v227q0 200 -101.5 303t-297.5 103q-408 0 -408 -406zM1155 0v434h-807v-434h-166v856q0 242 148 380t426 138q268 0 415 -141q150 -141 150 -377v-856h-166zM1051 1671v-125h-592v125h592z" />
    <glyph glyph-name="Amacron.alt.smcp" horiz-adv-x="1167" 
d="M1022 639v-639h-160v303h-559v-303h-158v637q0 178 120 280.5t319 102.5q200 0 319 -102t119 -279zM303 618v-176h559v176q0 123 -74 188.5t-204 65.5q-131 0 -206 -66.5t-75 -187.5zM879 1372v-125h-592v125h592z" />
    <glyph glyph-name="Amacron.smcp" horiz-adv-x="1052" 
d="M823 1374v-125h-592v125h592zM1030 0h-168l-90 225h-491l-88 -225h-170l407 999h193zM719 360l-193 488l-190 -488h383z" />
    <glyph glyph-name="Amacron.swsh" horiz-adv-x="1589" 
d="M1217 1671v-125h-590v125h590zM1376 66l-98 249h-719l-125 -315h-176l508 1223h-225q-192 0 -279.5 -96.5t-75.5 -299.5l-139 27q-25 233 109.5 368.5t392.5 135.5h467l524 -1284q149 -364 301 -516q151 -151 379 -154l-31 -135q-189 4 -325 81t-250.5 245.5
t-237.5 470.5zM1223 457l-305 729l-306 -729h611z" />
    <glyph glyph-name="Aogonek.alt" horiz-adv-x="1517" 
d="M1155 2v432h-807v-434h-166v856q0 242 148 380t426 138q268 0 415 -141q150 -141 150 -377v-856q-85 -22 -150 -96t-65 -137q0 -80 104 -80q55 0 119 28l39 -116q-71 -45 -178 -45q-100 0 -157.5 47t-57.5 129q0 81 47 150.5t133 121.5zM348 813v-227h807v227
q0 200 -101.5 303t-297.5 103q-408 0 -408 -406z" />
    <glyph glyph-name="Aogonek.alt.smcp" horiz-adv-x="1167" 
d="M672 -258q0 73 50.5 140t139.5 120v301h-559v-303h-158v637q0 178 120 280.5t319 102.5q200 0 319 -102t119 -279v-639q-39 -22 -68 -41q-143 -107 -143 -186q0 -39 29 -62.5t78 -23.5q54 0 118 28l39 -116q-71 -45 -180 -45q-104 0 -163.5 50t-59.5 138zM303 618v-176
h559v176q0 123 -74 188.5t-204 65.5q-131 0 -206 -66.5t-75 -187.5z" />
    <glyph glyph-name="Aogonek.smcp" horiz-adv-x="1052" 
d="M674 -258q0 142 186 258l-88 225h-491l-88 -225h-170l407 999h193l407 -999q-87 -24 -153 -102q-64 -79 -64 -125q0 -39 29 -62.5t78 -23.5q54 0 118 28l39 -116q-71 -45 -180 -45q-104 0 -163.5 50t-59.5 138zM719 360l-193 488l-190 -488h383z" />
    <glyph glyph-name="Aring.alt" horiz-adv-x="1503" 
d="M348 813v-227h807v227q0 200 -101.5 303t-297.5 103q-408 0 -408 -406zM1155 0v434h-807v-434h-166v856q0 242 148 380t426 138q268 0 415 -141q150 -141 150 -377v-856h-166zM530 1692q0 88 60.5 145t152.5 57t151.5 -57t59.5 -145q0 -86 -59.5 -142.5t-151.5 -56.5
t-152.5 56.5t-60.5 142.5zM639 1692q0 -44 28.5 -72.5t75.5 -28.5q44 0 73.5 29t29.5 72q0 44 -29.5 74t-73.5 30q-47 0 -75.5 -29.5t-28.5 -74.5z" />
    <glyph glyph-name="Aring.alt.smcp" horiz-adv-x="1167" 
d="M1022 639v-639h-160v303h-559v-303h-158v637q0 178 120 280.5t319 102.5q200 0 319 -102t119 -279zM303 618v-176h559v176q0 123 -74 188.5t-204 65.5q-131 0 -206 -66.5t-75 -187.5zM371 1329q0 88 59.5 145.5t151.5 57.5t152.5 -57.5t60.5 -145.5t-60.5 -144.5
t-152.5 -56.5t-151.5 56.5t-59.5 144.5zM479 1327q0 -43 29.5 -70.5t73.5 -27.5t73 27.5t29 70.5q0 45 -29 75t-73 30t-73.5 -30.5t-29.5 -74.5z" />
    <glyph glyph-name="Aring.smcp" horiz-adv-x="1052" 
d="M313 1327q0 88 60.5 146.5t152.5 58.5t151.5 -58.5t59.5 -146.5q0 -86 -59.5 -142.5t-151.5 -56.5t-152.5 56.5t-60.5 142.5zM424 1327q0 -43 27.5 -70.5t74.5 -27.5q44 0 73.5 27.5t29.5 70.5q0 44 -29.5 74.5t-73.5 30.5q-46 0 -74 -30t-28 -75zM1030 0h-168l-90 225
h-491l-88 -225h-170l407 999h193zM719 360l-193 488l-190 -488h383z" />
    <glyph glyph-name="Aring.swsh" horiz-adv-x="1589" 
d="M713 1692q0 88 59.5 145t151.5 57t152.5 -57t60.5 -145q0 -86 -60.5 -142.5t-152.5 -56.5t-151.5 56.5t-59.5 142.5zM821 1692q0 -43 29.5 -72t73.5 -29t73 29t29 72q0 44 -29 74t-73 30t-73.5 -30t-29.5 -74zM1376 66l-98 249h-719l-125 -315h-176l508 1223h-225
q-192 0 -279.5 -96.5t-75.5 -299.5l-139 27q-25 233 109.5 368.5t392.5 135.5h467l524 -1284q149 -364 301 -516q151 -151 379 -154l-31 -135q-189 4 -325 81t-250.5 245.5t-237.5 470.5zM1223 457l-305 729l-306 -729h611z" />
    <glyph glyph-name="Aringacute.alt" horiz-adv-x="1503" 
d="M348 813v-227h807v227q0 200 -101.5 303t-297.5 103q-408 0 -408 -406zM1155 0v434h-807v-434h-166v856q0 242 148 380t426 138q268 0 415 -141q150 -141 150 -377v-856h-166zM860 2294h180l-188 -334h-139zM530 1692q0 88 59.5 145t151.5 57t152.5 -57t60.5 -145
q0 -86 -60.5 -142.5t-152.5 -56.5t-151.5 56.5t-59.5 142.5zM639 1692q0 -43 29 -72t73 -29t73.5 29t29.5 72q0 44 -29.5 74t-73.5 30t-73 -30t-29 -74z" />
    <glyph glyph-name="Aringacute.alt.smcp" horiz-adv-x="1167" 
d="M1022 639v-639h-160v303h-559v-303h-158v637q0 178 120 280.5t319 102.5q200 0 319 -102t119 -279zM303 618v-176h559v176q0 123 -74 188.5t-204 65.5q-131 0 -206 -66.5t-75 -187.5zM371 1329q0 88 60.5 145.5t152.5 57.5t151.5 -57.5t59.5 -145.5q0 -87 -59.5 -144
t-151.5 -57t-152.5 57.5t-60.5 143.5zM479 1329q0 -44 29 -72t76 -28q44 0 72 28t28 72q0 45 -28 75t-72 30q-47 0 -76 -30t-29 -75zM657 1929h181l-189 -334h-137z" />
    <glyph glyph-name="Aringacute.smcp" horiz-adv-x="1052" 
d="M313 1329q0 88 60.5 145.5t152.5 57.5t151.5 -57.5t59.5 -145.5q0 -87 -59.5 -144t-151.5 -57t-152.5 57.5t-60.5 143.5zM424 1329q-7 -62 47.5 -87.5t109 0t48.5 87.5q0 45 -29 75t-76 30q-44 0 -72 -30t-28 -75zM612 1929h181l-189 -334h-137zM1030 0h-168l-90 225
h-491l-88 -225h-170l407 999h193zM719 360l-193 488l-190 -488h383z" />
    <glyph glyph-name="Aringacute.swsh" horiz-adv-x="1589" 
d="M713 1692q0 88 60.5 145t152.5 57t151.5 -57t59.5 -145q0 -86 -59.5 -142.5t-151.5 -56.5t-152.5 56.5t-60.5 142.5zM821 1692q0 -43 29 -72t76 -29q44 0 72 29t28 72q0 45 -28 74.5t-72 29.5q-47 0 -76 -29.5t-29 -74.5zM1042 2294h181l-189 -334h-139zM1376 66l-98 249
h-719l-125 -315h-176l508 1223h-225q-192 0 -279.5 -96.5t-75.5 -299.5l-139 27q-25 233 109.5 368.5t392.5 135.5h467l524 -1284q149 -364 301 -516q151 -151 379 -154l-31 -135q-189 4 -325 81t-250.5 245.5t-237.5 470.5zM1223 457l-305 729l-306 -729h611z" />
    <glyph glyph-name="Atilde.alt" horiz-adv-x="1503" 
d="M348 813v-227h807v227q0 200 -101.5 303t-297.5 103q-408 0 -408 -406zM1155 0v434h-807v-434h-166v856q0 242 148 380t426 138q268 0 415 -141q150 -141 150 -377v-856h-166zM625 1614q-35 0 -61.5 -17.5t-65.5 -62.5l-86 72q91 143 209 143q49 0 131.5 -42t113.5 -42
q39 0 67.5 18.5t65.5 63.5l80 -76q-44 -69 -94.5 -103t-116.5 -34q-48 0 -131.5 40t-111.5 40z" />
    <glyph glyph-name="Atilde.alt.smcp" horiz-adv-x="1167" 
d="M1022 639v-639h-160v303h-559v-303h-158v637q0 178 120 280.5t319 102.5q200 0 319 -102t119 -279zM303 618v-176h559v176q0 123 -74 188.5t-204 65.5q-131 0 -206 -66.5t-75 -187.5zM459 1294q-37 0 -63 -17t-64 -63l-86 72q92 144 209 144q57 0 131 -41t114 -41
t69.5 18.5t61.5 60.5l82 -73q-45 -71 -95 -104t-116 -33q-61 0 -133 38q-71 39 -110 39z" />
    <glyph glyph-name="Atilde.smcp" horiz-adv-x="1052" 
d="M406 1294q-35 0 -61.5 -17t-65.5 -60l-86 69q91 144 208 144q49 0 132 -41t114 -41q39 0 67.5 18.5t65.5 63.5l80 -76q-43 -70 -93.5 -103.5t-117.5 -33.5q-48 0 -131.5 38.5t-111.5 38.5zM1030 0h-168l-90 225h-491l-88 -225h-170l407 999h193zM719 360l-193 488
l-190 -488h383z" />
    <glyph glyph-name="Atilde.swsh" horiz-adv-x="1589" 
d="M803 1614q-35 0 -61.5 -17.5t-65.5 -62.5l-86 72q91 143 209 143q49 0 131.5 -42t113.5 -42q40 0 68.5 18.5t65.5 63.5l79 -76q-44 -69 -94 -103t-116 -34q-48 0 -132 40t-112 40zM1376 66l-98 249h-719l-125 -315h-176l508 1223h-225q-192 0 -279.5 -96.5t-75.5 -299.5
l-139 27q-25 233 109.5 368.5t392.5 135.5h467l524 -1284q149 -364 301 -516q151 -151 379 -154l-31 -135q-189 4 -325 81t-250.5 245.5t-237.5 470.5zM1223 457l-305 729l-306 -729h611z" />
    <glyph glyph-name="B.smcp" horiz-adv-x="1071" 
d="M821 283q0 73 -46 115t-124 42h-336v-303h336q78 0 124 39.5t46 106.5zM598 862h-283v-287h285q78 0 122 39t44 107q0 66 -46 103.5t-122 37.5zM655 0h-497v999h454q146 0 232 -72.5t86 -195.5q0 -69 -32.5 -123.5t-92.5 -83.5q87 -23 134.5 -89.5t47.5 -158.5
q0 -128 -89 -202t-243 -74z" />
    <glyph glyph-name="B.swsh" horiz-adv-x="1835" 
d="M1290 0h-645v1223h-119q-190 0 -278 -96.5t-76 -299.5l-137 27q-26 233 108 368.5t392 135.5h696q188 0 303 -103q117 -102 117 -272q0 -178 -158 -268q113 -37 176.5 -124.5t63.5 -209.5q0 -171 -118 -276t-325 -105zM1303 623h-492v-476h494q117 0 188.5 62.5
t71.5 169.5q0 111 -69.5 177.5t-192.5 66.5zM1223 1210h-412v-448h414q116 0 186 60.5t70 160.5q0 105 -68.5 166t-189.5 61z" />
    <glyph glyph-name="C.smcp" horiz-adv-x="1054" 
d="M664 129q160 0 299 68l26 -146q-148 -71 -330 -71q-257 0 -415 143q-158 146 -158 379q0 226 158 372t409 146q176 0 312 -62l-15 -147q-127 59 -293 59q-183 0 -297 -102q-112 -100 -112 -266q0 -164 114 -269q116 -104 302 -104z" />
    <glyph glyph-name="Cacute.smcp" horiz-adv-x="1054" 
d="M721 1489h180l-188 -334h-140zM664 129q160 0 299 68l26 -146q-148 -71 -330 -71q-257 0 -415 143q-158 146 -158 379q0 226 158 372t409 146q176 0 312 -62l-15 -147q-127 59 -293 59q-183 0 -297 -102q-112 -100 -112 -266q0 -164 114 -269q116 -104 302 -104z" />
    <glyph glyph-name="Ccaron.smcp" horiz-adv-x="1054" 
d="M682 1126h-74l-274 369h155l156 -219l156 219h155zM664 129q160 0 299 68l26 -146q-148 -71 -330 -71q-257 0 -415 143q-158 146 -158 379q0 226 158 372t409 146q176 0 312 -62l-15 -147q-127 59 -293 59q-183 0 -297 -102q-112 -100 -112 -266q0 -164 114 -269
q116 -104 302 -104z" />
    <glyph glyph-name="Ccedilla.smcp" horiz-adv-x="1054" 
d="M664 129q160 0 299 68l26 -146q-148 -71 -327 -71l-25 -76q93 -8 148 -52.5t55 -113.5q0 -86 -68.5 -135t-189.5 -49q-86 0 -136 20v113q59 -19 123 -19q129 0 129 70q0 76 -145 76h-59l63 172q-212 27 -344 168q-127 142 -127 348q0 226 158 372t409 146q176 0 312 -62
l-15 -147q-127 59 -293 59q-183 0 -297 -102q-112 -100 -112 -266q0 -164 114 -269q116 -104 302 -104z" />
    <glyph glyph-name="Ccircumflex.smcp" horiz-adv-x="1054" 
d="M598 1495h74l274 -369h-155l-156 222l-156 -222h-155zM664 129q160 0 299 68l26 -146q-148 -71 -330 -71q-257 0 -415 143q-158 146 -158 379q0 226 158 372t409 146q176 0 312 -62l-15 -147q-127 59 -293 59q-183 0 -297 -102q-112 -100 -112 -266q0 -164 114 -269
q116 -104 302 -104z" />
    <glyph glyph-name="Cdotaccent.smcp" horiz-adv-x="1054" 
d="M721 1249q-26 -26 -70 -26t-73 26q-26 29 -26 72.5t26 69.5q29 29 73 29t70 -29q29 -26 29 -69.5t-29 -72.5zM664 129q160 0 299 68l26 -146q-148 -71 -330 -71q-257 0 -415 143q-158 146 -158 379q0 226 158 372t409 146q176 0 312 -62l-15 -147q-127 59 -293 59
q-183 0 -297 -102q-112 -100 -112 -266q0 -164 114 -269q116 -104 302 -104z" />
    <glyph glyph-name="D.smcp" horiz-adv-x="1185" 
d="M158 0v999h422q244 0 380 -132.5t136 -366.5t-137 -367t-381 -133h-420zM571 862h-254v-725h254q175 0 268 95t93 268q0 174 -92.5 268t-268.5 94z" />
    <glyph glyph-name="D.swsh" horiz-adv-x="1990" 
d="M1194 0h-553v1223h-115q-190 0 -278 -96.5t-76 -299.5l-137 27q-26 233 108 368.5t392 135.5h661q222 0 378.5 -87t232 -238.5t75.5 -354.5q0 -321 -177.5 -499.5t-510.5 -178.5zM1188 1206h-381v-1054h381q258 0 392 135.5t134 390.5q0 253 -135 390.5t-391 137.5z" />
    <glyph glyph-name="Dcaron.smcp" horiz-adv-x="1185" 
d="M580 1126h-74l-275 369h156l154 -221l157 221h156zM158 0v999h422q244 0 380 -132.5t136 -366.5t-137 -367t-381 -133h-420zM571 862h-254v-725h254q175 0 268 95t93 268q0 174 -92.5 268t-268.5 94z" />
    <glyph glyph-name="Dcaron.swsh" horiz-adv-x="1970" 
d="M535 1358h643q221 0 376.5 -87t231.5 -238.5t76 -354.5q0 -321 -178 -499.5t-508 -178.5h-555v1223h-95q-190 0 -278 -96.5t-76 -299.5l-137 27q-26 233 108 368.5t392 135.5zM1167 1206h-381v-1054h381q258 0 392.5 135.5t134.5 390.5q0 252 -135.5 390t-391.5 138z
M1194 1475h-74l-274 368h155l154 -221l158 221h155z" />
    <glyph glyph-name="Dcroat.smcp" horiz-adv-x="1185" 
d="M158 580v419h422q244 0 380 -132.5t136 -366.5t-137 -367t-381 -133h-420v444h-129v136h129zM571 862h-254v-282h349v-136h-349v-307h254q175 0 268 95t93 268q0 174 -92.5 268t-268.5 94z" />
    <glyph glyph-name="Dcroat.swsh" horiz-adv-x="1970" 
d="M477 618v154h144v451h-95q-190 0 -278 -96.5t-76 -299.5l-137 27q-26 233 108 368.5t392 135.5h643q221 0 376.5 -87t231.5 -238.5t76 -354.5q0 -321 -178 -499.5t-508 -178.5h-555v618h-144zM1167 1206h-381v-434h478v-154h-478v-466h381q258 0 392.5 135.5t134.5 390.5
q0 252 -135.5 390t-391.5 138z" />
    <glyph glyph-name="E.smcp" horiz-adv-x="1005" 
d="M913 137v-137h-755v999h741v-137h-584v-282h510v-136h-510v-307h598z" />
    <glyph glyph-name="E.swsh" horiz-adv-x="1726" 
d="M1626 0h-995v1223h-105q-191 0 -278.5 -96.5t-75.5 -299.5l-137 27q-26 233 108 368.5t392 135.5h1071v-150h-809v-436h702v-149h-702v-473h829v-150z" />
    <glyph glyph-name="Eacute.smcp" horiz-adv-x="1005" 
d="M616 1489h181l-189 -334h-139zM913 137v-137h-755v999h741v-137h-584v-282h510v-136h-510v-307h598z" />
    <glyph glyph-name="Ebreve.smcp" horiz-adv-x="1005" 
d="M913 137v-137h-755v999h741v-137h-584v-282h510v-136h-510v-307h598zM266 1444h137q6 -66 43.5 -106t92.5 -40q59 0 95 39.5t42 106.5h135q-6 -121 -80.5 -194.5t-191.5 -73.5q-116 0 -191 73.5t-82 194.5z" />
    <glyph glyph-name="Ecaron.smcp" horiz-adv-x="1005" 
d="M588 1126h-74l-274 369h155l156 -221l156 221h155zM913 137v-137h-755v999h741v-137h-584v-282h510v-136h-510v-307h598z" />
    <glyph glyph-name="Ecircumflex.smcp" horiz-adv-x="1005" 
d="M498 1495h71l277 -369h-158l-153 222l-156 -222h-158zM913 137v-137h-755v999h741v-137h-584v-282h510v-136h-510v-307h598z" />
    <glyph glyph-name="Edieresis.smcp" horiz-adv-x="1005" 
d="M362 1223q-43 0 -70.5 26.5t-27.5 69.5t27.5 70.5t70.5 27.5q62 5 87.5 -46.5t0 -102.5t-87.5 -45zM715 1223q-60 -6 -85.5 45t-1 102.5t84.5 46.5q62 5 87.5 -46.5t0 -102.5t-85.5 -45zM913 137v-137h-755v999h741v-137h-584v-282h510v-136h-510v-307h598z" />
    <glyph glyph-name="Edotaccent.smcp" horiz-adv-x="1005" 
d="M543 1223q-43 0 -71 27t-28 69q0 44 28 72t71 28q62 5 87.5 -46.5t0 -103t-87.5 -46.5zM913 137v-137h-755v999h741v-137h-584v-282h510v-136h-510v-307h598z" />
    <glyph glyph-name="Edotbelow.smcp" horiz-adv-x="1005" 
d="M449 -283q0 43 27.5 71t70.5 28q44 0 71 -28t27 -71t-27.5 -70.5t-70.5 -27.5t-70.5 27.5t-27.5 70.5zM913 137v-137h-755v999h741v-137h-584v-282h510v-136h-510v-307h598z" />
    <glyph glyph-name="Egrave.smcp" horiz-adv-x="1005" 
d="M485 1155l-188 334h180l148 -334h-140zM913 137v-137h-755v999h741v-137h-584v-282h510v-136h-510v-307h598z" />
    <glyph glyph-name="Emacron.smcp" horiz-adv-x="1005" 
d="M825 1372v-125h-592v125h592zM913 137v-137h-755v999h741v-137h-584v-282h510v-136h-510v-307h598z" />
    <glyph glyph-name="Eng.smcp" horiz-adv-x="1265" 
d="M950 999h160v-1132q0 -137 -70 -212t-190 -75q-83 0 -141 25l16 133q49 -19 104 -19q121 0 121 156v119l-635 768v-762h-157v999h161l631 -759v759z" />
    <glyph glyph-name="Eogonek.smcp" horiz-adv-x="1005" 
d="M913 137v-137q-198 -127 -198 -227q0 -39 28 -62.5t78 -23.5q55 0 119 28l39 -116q-71 -45 -180 -45q-106 0 -166 50t-60 138q0 140 189 258h-604v999h741v-137h-584v-282h510v-136h-510v-307h598z" />
    <glyph glyph-name="Eth.smcp" horiz-adv-x="1185" 
d="M158 580v419h422q244 0 380 -132.5t136 -366.5t-137 -367t-381 -133h-420v444h-129v136h129zM571 862h-254v-282h349v-136h-349v-307h254q175 0 268 95t93 268q0 174 -92.5 268t-268.5 94z" />
    <glyph glyph-name="Etilde.smcp" horiz-adv-x="1005" 
d="M408 1296q-37 0 -63.5 -17.5t-63.5 -61.5l-86 71q92 142 206 142q48 0 91.5 -20t82 -40t74.5 -20q40 0 69 18t62 62l82 -76q-46 -70 -96 -103.5t-117 -33.5q-46 0 -130 39.5t-111 39.5zM913 137v-137h-755v999h741v-137h-584v-282h510v-136h-510v-307h598z" />
    <glyph glyph-name="Euro.onum" horiz-adv-x="1243" 
d="M377 467h426l-15 -100h-382q44 -111 149.5 -174.5t245.5 -63.5q156 0 297 72l28 -146q-147 -75 -331 -75q-213 0 -363 104t-201 283h-149l12 100h117q-2 23 -2 68v40h-127l14 99h127q43 186 195 301q147 112 370 112q179 0 312 -65l-15 -145q-125 61 -292 61
q-147 0 -254.5 -71t-145.5 -193h441l-15 -99h-446q-2 -18 -2 -40q0 -31 6 -68z" />
    <glyph glyph-name="Euro.onum.tnum" 
d="M446 467h426l-12 -100h-385q48 -111 151.5 -174.5t243.5 -63.5q158 0 299 72l27 -146q-147 -75 -332 -75q-210 0 -361 104t-202 283h-149l14 100h117q-4 46 -4 68q0 30 2 40h-127l14 99h127q43 186 194 301q147 112 371 112q175 0 311 -65l-14 -145q-128 61 -293 61
q-147 0 -254 -71t-145 -193h440l-14 -99h-447q-2 -18 -2 -40q0 -18 4 -68z" />
    <glyph glyph-name="Euro.tnum" 
d="M1284 227l27 -157q-169 -88 -389 -88q-260 0 -445 135q-183 134 -241 370h-197l12 101h166q-4 70 -4 94v51h-172l12 98h172q47 258 232 400q189 145 454 145q103 0 204.5 -23t172.5 -61l-16 -155q-158 82 -363 82q-189 0 -327 -105q-139 -103 -179 -283h560l-15 -98h-561
q-2 -10 -2 -51q0 -48 6 -94h539l-12 -101h-502q55 -163 193.5 -256.5t322.5 -93.5q83 0 170 19q114 26 182 71z" />
    <glyph glyph-name="F.smcp" horiz-adv-x="929" 
d="M760 580v-138h-445v-442h-157v999h712v-137h-555v-282h445z" />
    <glyph glyph-name="F.swsh" horiz-adv-x="1589" 
d="M1376 770v-149h-614v-621h-166v1223h-70q-190 0 -278 -96.5t-76 -299.5l-137 27q-26 233 108 368.5t392 135.5h997v-150h-770v-438h614z" />
    <glyph glyph-name="G.alt" horiz-adv-x="1472" 
d="M1300 1282l-16 -154q-190 99 -422 99q-170 0 -301 -61t-208 -186t-77 -298q-2 -164 78 -292t218.5 -196t308.5 -65q196 0 321 64v198v199h158v-496q-95 -56 -223 -85t-265 -29q-219 0 -393.5 85t-275.5 246t-101 371q0 162 58.5 294.5t162 220t243.5 134.5t304 47
q230 0 430 -96z" />
    <glyph glyph-name="G.alt.smcp" horiz-adv-x="1153" 
d="M1012 948l-13 -145q-143 67 -317 67q-196 0 -315 -102t-119 -268q0 -164 117 -269q117 -102 309 -102q135 0 223 39v283h160v-381q-156 -90 -377 -90q-270 0 -432 143t-162 377q0 231 162 374q166 146 430 146q175 0 334 -72z" />
    <glyph glyph-name="G.smcp" horiz-adv-x="1163" 
d="M1012 948l-13 -145q-143 67 -317 67q-196 0 -315 -102t-119 -268q0 -164 117 -269q117 -102 309 -102q135 0 223 39v258h-309v135h469v-491q-156 -90 -377 -90q-270 0 -432 143t-162 377q0 231 162 374q166 146 430 146q175 0 334 -72z" />
    <glyph glyph-name="Gbreve.alt" horiz-adv-x="1472" 
d="M1300 1282l-16 -154q-190 99 -422 99q-170 0 -301 -61t-208 -186t-77 -298q-2 -164 78 -292t218.5 -196t308.5 -65q196 0 321 64v198v199h158v-496q-95 -56 -223 -85t-265 -29q-219 0 -393.5 85t-275.5 246t-101 371q0 162 58.5 294.5t162 220t243.5 134.5t304 47
q230 0 430 -96zM580 1759h137q6 -64 43 -103.5t92 -39.5q57 0 93.5 39.5t41.5 103.5h137q-6 -121 -80.5 -193.5t-191.5 -72.5t-190.5 72t-81.5 194z" />
    <glyph glyph-name="Gbreve.alt.smcp" horiz-adv-x="1153" 
d="M1012 948l-13 -145q-143 67 -317 67q-196 0 -315 -102t-119 -268q0 -164 117 -269q117 -102 309 -102q135 0 223 39v283h160v-381q-156 -90 -377 -90q-270 0 -432 143t-162 377q0 231 162 374q166 146 430 146q175 0 334 -72zM395 1444h137q6 -66 43.5 -106t92.5 -40
q57 0 94 40t43 106h135q-6 -121 -80.5 -194.5t-191.5 -73.5q-116 0 -191 73.5t-82 194.5z" />
    <glyph glyph-name="Gbreve.smcp" horiz-adv-x="1163" 
d="M1012 948l-13 -145q-143 67 -317 67q-196 0 -315 -102t-119 -268q0 -164 117 -269q117 -102 309 -102q135 0 223 39v258h-309v135h469v-491q-156 -90 -377 -90q-270 0 -432 143t-162 377q0 231 162 374q166 146 430 146q175 0 334 -72zM383 1444h137q6 -66 43 -106
t92 -40q59 0 95.5 39.5t42.5 106.5h135q-6 -121 -81 -194.5t-192 -73.5q-116 0 -190.5 73.5t-81.5 194.5z" />
    <glyph glyph-name="Gcaron.alt" horiz-adv-x="1472" 
d="M1300 1282l-16 -154q-190 99 -422 99q-170 0 -301 -61t-208 -186t-77 -298q-2 -164 78 -292t218.5 -196t308.5 -65q196 0 321 64v198v199h158v-496q-95 -56 -223 -85t-265 -29q-219 0 -393.5 85t-275.5 246t-101 371q0 162 58.5 294.5t162 220t243.5 134.5t304 47
q230 0 430 -96zM895 1475h-72l-274 368h156l153 -221l158 221h155z" />
    <glyph glyph-name="Gcaron.alt.smcp" horiz-adv-x="1153" 
d="M705 1126h-74l-275 369h156l154 -221l157 221h156zM1012 948l-13 -145q-143 67 -317 67q-196 0 -315 -102t-119 -268q0 -164 117 -269q117 -102 309 -102q135 0 223 39v283h160v-381q-156 -90 -377 -90q-270 0 -432 143t-162 377q0 231 162 374q166 146 430 146
q175 0 334 -72z" />
    <glyph glyph-name="Gcaron.smcp" horiz-adv-x="1163" 
d="M705 1126h-74l-275 369h156l154 -219l157 219h156zM1012 948l-13 -145q-143 67 -317 67q-196 0 -315 -102t-119 -268q0 -164 117 -269q117 -102 309 -102q135 0 223 39v258h-309v135h469v-491q-156 -90 -377 -90q-270 0 -432 143t-162 377q0 231 162 374q166 146 430 146
q175 0 334 -72z" />
    <glyph glyph-name="Gcircumflex.alt" horiz-adv-x="1472" 
d="M1300 1282l-16 -154q-190 99 -422 99q-170 0 -301 -61t-208 -186t-77 -298q-2 -164 78 -292t218.5 -196t308.5 -65q196 0 321 64v198v199h158v-496q-95 -56 -223 -85t-265 -29q-219 0 -393.5 85t-275.5 246t-101 371q0 162 58.5 294.5t162 220t243.5 134.5t304 47
q230 0 430 -96zM805 1839h74l274 -369h-156l-153 222l-158 -222h-156z" />
    <glyph glyph-name="Gcircumflex.alt.smcp" horiz-adv-x="1153" 
d="M612 1495h74l275 -369h-156l-156 222l-155 -222h-156zM1012 948l-13 -145q-143 67 -317 67q-196 0 -315 -102t-119 -268q0 -164 117 -269q117 -102 309 -102q135 0 223 39v283h160v-381q-156 -90 -377 -90q-270 0 -432 143t-162 377q0 231 162 374q166 146 430 146
q175 0 334 -72z" />
    <glyph glyph-name="Gcircumflex.smcp" horiz-adv-x="1163" 
d="M606 1495h74l274 -369h-155l-156 222l-156 -222h-155zM1012 948l-13 -145q-143 67 -317 67q-196 0 -315 -102t-119 -268q0 -164 117 -269q117 -102 309 -102q135 0 223 39v258h-309v135h469v-491q-156 -90 -377 -90q-270 0 -432 143t-162 377q0 231 162 374
q166 146 430 146q175 0 334 -72z" />
    <glyph glyph-name="Gcommaaccent.alt" horiz-adv-x="1472" 
d="M1300 1282l-16 -154q-190 99 -422 99q-170 0 -301 -61t-208 -186t-77 -298q-2 -164 78 -292t218.5 -196t308.5 -65q196 0 321 64v198v199h158v-496q-95 -56 -223 -85t-265 -29q-219 0 -393.5 85t-275.5 246t-101 371q0 162 58.5 294.5t162 220t243.5 134.5t304 47
q230 0 430 -96zM958 -512h-133l15 389h172z" />
    <glyph glyph-name="Gcommaaccent.alt.smcp" horiz-adv-x="1153" 
d="M686 -512h-131l12 389h172zM1012 948l-13 -145q-143 67 -317 67q-196 0 -315 -102t-119 -268q0 -164 117 -269q117 -102 309 -102q135 0 223 39v283h160v-381q-156 -90 -377 -90q-270 0 -432 143t-162 377q0 231 162 374q166 146 430 146q175 0 334 -72z" />
    <glyph glyph-name="Gcommaaccent.smcp" horiz-adv-x="1163" 
d="M698 -512h-133l15 389h172zM1012 948l-13 -145q-143 67 -317 67q-196 0 -315 -102t-119 -268q0 -164 117 -269q117 -102 309 -102q135 0 223 39v258h-309v135h469v-491q-156 -90 -377 -90q-270 0 -432 143t-162 377q0 231 162 374q166 146 430 146q175 0 334 -72z" />
    <glyph glyph-name="Gdotaccent.alt" horiz-adv-x="1472" 
d="M1300 1282l-16 -154q-190 99 -422 99q-170 0 -301 -61t-208 -186t-77 -298q-2 -164 78 -292t218.5 -196t308.5 -65q196 0 321 64v198v199h158v-496q-95 -56 -223 -85t-265 -29q-219 0 -393.5 85t-275.5 246t-101 371q0 162 58.5 294.5t162 220t243.5 134.5t304 47
q230 0 430 -96zM766 1616q0 43 27.5 70.5t70.5 27.5q44 0 72.5 -27.5t28.5 -70.5q0 -42 -29 -70t-72 -28t-70.5 27.5t-27.5 70.5z" />
    <glyph glyph-name="Gdotaccent.alt.smcp" horiz-adv-x="1153" 
d="M659 1223q-43 0 -70.5 27.5t-27.5 70.5t27.5 70.5t70.5 27.5t72 -28t29 -70t-29 -70t-72 -28zM1012 948l-13 -145q-143 67 -317 67q-196 0 -315 -102t-119 -268q0 -164 117 -269q117 -102 309 -102q135 0 223 39v283h160v-381q-156 -90 -377 -90q-270 0 -432 143
t-162 377q0 231 162 374q166 146 430 146q175 0 334 -72z" />
    <glyph glyph-name="Gdotaccent.smcp" horiz-adv-x="1163" 
d="M733 1249q-26 -26 -69 -26t-72 26q-29 29 -29 72t27 70q29 29 73 29t70 -29q29 -26 29 -69.5t-29 -72.5zM1012 948l-13 -145q-143 67 -317 67q-196 0 -315 -102t-119 -268q0 -164 117 -269q117 -102 309 -102q135 0 223 39v258h-309v135h469v-491q-156 -90 -377 -90
q-270 0 -432 143t-162 377q0 231 162 374q166 146 430 146q175 0 334 -72z" />
    <glyph glyph-name="H.smcp" horiz-adv-x="1191" 
d="M1034 0h-157v444h-562v-444h-157v999h157v-417h562v417h157v-999z" />
    <glyph glyph-name="Hbar.smcp" horiz-adv-x="1222" 
d="M1051 0h-160v444h-559v-444h-160v737h-117v129h117v133h160v-133h559v133h160v-133h116v-129h-116v-737zM332 737v-155h559v155h-559z" />
    <glyph glyph-name="Hcircumflex.smcp" horiz-adv-x="1191" 
d="M559 1495h74l274 -369h-155l-156 222l-156 -222h-155zM1034 0h-157v444h-562v-444h-157v999h157v-417h562v417h157v-999z" />
    <glyph glyph-name="I.alt" horiz-adv-x="1046" 
d="M98 1358h848v-156h-344v-1046h344v-156h-848v156h340v1046h-340v156z" />
    <glyph glyph-name="I.alt.smcp" horiz-adv-x="835" 
d="M90 999h655v-137h-247v-725h247v-137h-655v137h250v725h-250v137z" />
    <glyph glyph-name="I.smcp" horiz-adv-x="473" 
d="M315 0h-157v999h157v-999z" />
    <glyph glyph-name="IJ.smcp" horiz-adv-x="1327" 
d="M315 0h-157v999h157v-999zM530 41l25 143q113 -55 250 -55q99 0 158 46.5t59 141.5v545h-383v137h541v-692q0 -156 -99.5 -241.5t-269.5 -85.5q-168 0 -281 61z" />
    <glyph glyph-name="IJacute" horiz-adv-x="1671" 
d="M362 0h-163v1358h163v-1358zM369 1806h180l-189 -333h-139zM649 53l27 150q159 -72 323 -72q154 0 238 71t84 216v786h-524v152h688v-944q0 -208 -128 -320t-351 -112q-84 0 -183 20.5t-174 52.5zM1247 1806h180l-188 -333h-137z" />
    <glyph glyph-name="IJacute.smcp" horiz-adv-x="1323" 
d="M315 1489h181l-189 -334h-137zM315 0h-157v999h157v-999zM530 41l25 143q113 -55 248 -55q101 0 160 46.5t59 141.5v545h-383v137h541v-692q0 -156 -100 -241.5t-269 -85.5q-168 0 -281 61zM983 1489h180l-186 -334h-139z" />
    <glyph glyph-name="Iacute.alt" horiz-adv-x="1046" 
d="M98 1358h848v-156h-344v-1046h344v-156h-848v156h340v1046h-340v156zM631 1806h180l-188 -333h-140z" />
    <glyph glyph-name="Iacute.alt.smcp" horiz-adv-x="835" 
d="M498 1489h180l-189 -334h-139zM90 999h655v-137h-247v-725h247v-137h-655v137h250v725h-250v137z" />
    <glyph glyph-name="Iacute.smcp" horiz-adv-x="473" 
d="M315 1489h181l-189 -334h-137zM315 0h-157v999h157v-999z" />
    <glyph glyph-name="Ibreve.alt" horiz-adv-x="1046" 
d="M98 1358h848v-156h-344v-1046h344v-156h-848v156h340v1046h-340v156zM252 1759h135q6 -63 44 -103t93 -40q57 0 93.5 39.5t41.5 103.5h138q-6 -121 -81.5 -193.5t-193.5 -72.5q-116 0 -190 72.5t-80 193.5z" />
    <glyph glyph-name="Ibreve.alt.smcp" horiz-adv-x="835" 
d="M90 999h655v-137h-247v-725h247v-137h-655v137h250v725h-250v137zM147 1444h138q6 -66 43 -106t92 -40q57 0 93.5 40t41.5 106h137q-6 -121 -80.5 -194.5t-191.5 -73.5t-191 73t-82 195z" />
    <glyph glyph-name="Ibreve.smcp" horiz-adv-x="473" 
d="M315 0h-157v999h157v-999zM-35 1446h137q6 -66 43.5 -106t92.5 -40q57 0 94 40t43 106h135q-6 -123 -80.5 -195.5t-191.5 -72.5q-116 0 -191 73t-82 195z" />
    <glyph glyph-name="Icircumflex.alt" horiz-adv-x="1046" 
d="M98 1358h848v-156h-344v-1046h344v-156h-848v156h340v1046h-340v156zM492 1839h73l275 -369h-156l-154 222l-157 -222h-156z" />
    <glyph glyph-name="Icircumflex.alt.smcp" horiz-adv-x="835" 
d="M381 1495h72l274 -369h-156l-153 222l-158 -222h-156zM90 999h655v-137h-247v-725h247v-137h-655v137h250v725h-250v137z" />
    <glyph glyph-name="Icircumflex.smcp" horiz-adv-x="473" 
d="M201 1495h73l275 -369h-156l-153 222l-158 -222h-156zM315 0h-157v999h157v-999z" />
    <glyph glyph-name="Idieresis.alt" horiz-adv-x="1046" 
d="M98 1358h848v-156h-344v-1046h344v-156h-848v156h340v1046h-340v156zM248 1616q0 43 27.5 70.5t70.5 27.5q42 0 70.5 -30t28.5 -68t-29 -72q-20 -21 -51 -25t-58 6t-45 35t-14 56zM696 1518q-43 0 -70.5 27.5t-27.5 70.5t27.5 70.5t70.5 27.5q62 5 87.5 -46.5t0 -103
t-87.5 -46.5z" />
    <glyph glyph-name="Idieresis.alt.smcp" horiz-adv-x="835" 
d="M242 1223q-43 0 -71 27t-28 69q0 44 28 71t71 27t70.5 -27.5t27.5 -70.5t-27.5 -69.5t-70.5 -26.5zM664 1249q-26 -26 -69.5 -26t-72.5 26q-26 26 -26 70t26 70q29 29 72.5 29t69.5 -29q26 -26 26 -70t-26 -70zM90 999h655v-137h-247v-725h247v-137h-655v137h250v725
h-250v137z" />
    <glyph glyph-name="Idieresis.smcp" horiz-adv-x="473" 
d="M59 1223q-43 0 -69.5 26.5t-26.5 69.5q0 44 26.5 71t69.5 27q62 5 87.5 -46.5t0 -102.5t-87.5 -45zM412 1417q43 0 70.5 -27.5t27.5 -70.5t-27.5 -69.5t-70.5 -26.5t-71 27t-28 69q0 43 28 70.5t71 27.5zM315 0h-157v999h157v-999z" />
    <glyph glyph-name="Idotaccent.alt" horiz-adv-x="1046" 
d="M98 1358h848v-156h-344v-1046h344v-156h-848v156h340v1046h-340v156zM418 1616q0 43 26.5 70.5t69.5 27.5q44 0 72 -27.5t28 -70.5t-28 -70.5t-72 -27.5q-43 0 -69.5 27.5t-26.5 70.5z" />
    <glyph glyph-name="Idotaccent.alt.smcp" horiz-adv-x="835" 
d="M492 1249q-26 -26 -70.5 -26t-73.5 26q-26 29 -26 72.5t26 69.5q29 29 73.5 29t70.5 -29q26 -26 26 -69.5t-26 -72.5zM90 999h655v-137h-247v-725h247v-137h-655v137h250v725h-250v137z" />
    <glyph glyph-name="Idotaccent.smcp" horiz-adv-x="473" 
d="M139 1321q0 43 28 70.5t71 27.5q44 0 72 -27.5t28 -70.5t-28 -70.5t-72 -27.5q-43 0 -71 27.5t-28 70.5zM315 0h-157v999h157v-999z" />
    <glyph glyph-name="Idotbelow.alt" horiz-adv-x="1046" 
d="M98 1358h848v-156h-344v-1046h344v-156h-848v156h340v1046h-340v156zM422 -283q0 43 27 71t69 28q44 0 72 -28t28 -71t-28 -70.5t-72 -27.5q-43 0 -69.5 27.5t-26.5 70.5z" />
    <glyph glyph-name="Idotbelow.alt.smcp" horiz-adv-x="835" 
d="M315 -283q0 43 28 71t71 28q44 0 72 -28t28 -71t-27.5 -70.5t-70.5 -27.5t-72 28t-29 70zM90 999h655v-137h-247v-725h247v-137h-655v137h250v725h-250v137z" />
    <glyph glyph-name="Idotbelow.smcp" horiz-adv-x="473" 
d="M137 -283q0 43 28 71t71 28q44 0 72 -28t28 -71t-28 -70.5t-72 -27.5q-43 0 -71 27.5t-28 70.5zM315 0h-157v999h157v-999z" />
    <glyph glyph-name="Igrave.alt" horiz-adv-x="1046" 
d="M98 1358h848v-156h-344v-1046h344v-156h-848v156h340v1046h-340v156zM459 1473l-189 333h181l147 -333h-139z" />
    <glyph glyph-name="Igrave.alt.smcp" horiz-adv-x="835" 
d="M348 1155l-186 334h180l145 -334h-139zM90 999h655v-137h-247v-725h247v-137h-655v137h250v725h-250v137z" />
    <glyph glyph-name="Igrave.smcp" horiz-adv-x="473" 
d="M170 1155l-188 334h180l145 -334h-137zM315 0h-157v999h157v-999z" />
    <glyph glyph-name="Imacron.alt" horiz-adv-x="1046" 
d="M98 1358h848v-156h-344v-1046h344v-156h-848v156h340v1046h-340v156zM817 1671v-125h-592v125h592z" />
    <glyph glyph-name="Imacron.alt.smcp" horiz-adv-x="835" 
d="M717 1372v-125h-592v125h592zM90 999h655v-137h-247v-725h247v-137h-655v137h250v725h-250v137z" />
    <glyph glyph-name="Imacron.smcp" horiz-adv-x="473" 
d="M535 1374v-125h-592v125h592zM315 0h-157v999h157v-999z" />
    <glyph glyph-name="Iogonek.alt" horiz-adv-x="1046" 
d="M98 1358h848v-156h-344v-1046h344v-156h-338q-198 -129 -198 -227q0 -39 28.5 -62.5t77.5 -23.5q55 0 119 28l39 -116q-74 -45 -180 -45q-105 0 -165.5 50t-60.5 138q0 72 51 138.5t140 119.5h-361v156h340v1046h-340v156z" />
    <glyph glyph-name="Iogonek.alt.smcp" horiz-adv-x="835" 
d="M90 999h655v-137h-247v-725h247v-137h-256q-93 -60 -144.5 -119t-51.5 -106q0 -42 27.5 -65t78.5 -23q57 0 119 30l37 -116q-74 -47 -178 -47q-106 0 -165.5 50t-59.5 138q0 141 188 258h-250v137h250v725h-250v137z" />
    <glyph glyph-name="Iogonek.smcp" horiz-adv-x="473" 
d="M-29 -258q0 143 193 260l-6 55v942h157v-950l-4 -49q-198 -129 -198 -227q0 -39 28.5 -62.5t77.5 -23.5q55 0 119 28l39 -116q-74 -45 -180 -45q-105 0 -165.5 50t-60.5 138z" />
    <glyph glyph-name="Itilde.alt" horiz-adv-x="1046" 
d="M98 1358h848v-156h-344v-1046h344v-156h-848v156h340v1046h-340v156zM403 1614q-37 0 -63.5 -17.5t-63.5 -62.5l-86 72q91 143 207 143q50 0 133 -42t115 -42q40 0 68.5 19t62.5 63l82 -76q-46 -70 -96 -103.5t-117 -33.5q-46 0 -130.5 40t-111.5 40z" />
    <glyph glyph-name="Itilde.alt.smcp" horiz-adv-x="837" 
d="M295 1294q-37 0 -63.5 -17.5t-63.5 -62.5l-86 72q89 141 207 141q37 0 73 -12.5t59.5 -27t55 -27t60.5 -12.5q41 0 69.5 17.5t61.5 61.5l82 -75q-90 -138 -213 -138q-46 0 -130.5 40t-111.5 40zM86 999h657v-137h-247v-725h247v-137h-657v137h250v725h-250v137z" />
    <glyph glyph-name="Itilde.smcp" horiz-adv-x="473" 
d="M119 1294q-37 0 -63 -16.5t-64 -60.5l-86 69q91 144 209 144q55 0 129 -41q77 -41 116 -41q40 0 69.5 19t62.5 63l81 -76q-45 -71 -95 -104t-116 -33q-61 0 -133 38q-71 39 -110 39zM315 0h-157v999h157v-999z" />
    <glyph glyph-name="J.alt" horiz-adv-x="571" 
d="M377 1358v-1051q0 -94 -9.5 -171t-36 -157t-70.5 -143t-116 -120.5t-170 -98.5l-69 127q177 95 241 215q66 123 66 344v1055h164z" />
    <glyph glyph-name="J.alt.smcp" horiz-adv-x="479" 
d="M164 999h158v-931q0 -96 -13.5 -166.5t-49 -133t-99 -109t-160.5 -81.5l-59 121q128 59 176 139q47 77 47 228v933z" />
    <glyph glyph-name="J.smcp" horiz-adv-x="843" 
d="M45 41l25 143q113 -55 249 -55q101 0 159.5 46.5t58.5 141.5v545h-381v137h540v-692q0 -156 -99.5 -241.5t-268.5 -85.5q-167 0 -283 61z" />
    <glyph glyph-name="Jcircumflex.alt" horiz-adv-x="571" 
d="M377 1358v-1051q0 -94 -9.5 -171t-36 -157t-70.5 -143t-116 -120.5t-170 -98.5l-69 127q177 95 241 215q66 123 66 344v1055h164zM260 1839h74l274 -369h-155l-154 222l-158 -222h-155z" />
    <glyph glyph-name="Jcircumflex.alt.smcp" horiz-adv-x="481" 
d="M207 1495h74l274 -369h-156l-155 222l-156 -222h-156zM164 999h160v-931q0 -97 -13.5 -167t-49 -132.5t-99 -108.5t-160.5 -82l-61 121q128 59 176 139q47 77 47 228v933z" />
    <glyph glyph-name="Jcircumflex.smcp" horiz-adv-x="831" 
d="M395 1495h74l274 -369h-155l-156 222l-156 -222h-155zM45 41l25 143q113 -55 249 -55q101 0 159.5 46.5t58.5 141.5v545h-381v137h540v-692q0 -156 -99.5 -241.5t-268.5 -85.5q-167 0 -283 61z" />
    <glyph glyph-name="K.alt" horiz-adv-x="1402" 
d="M1059 1358h190l-430 -713q31 -35 172 -246q36 -48 61.5 -80t62.5 -71.5t68.5 -63.5t69.5 -40.5t74 -16.5q37 0 64 6v-141q-47 -12 -103 -12q-73 0 -146 40t-125 91.5t-116 130.5q-43 56 -128 185t-118 159h-293v-586h-163v1358h163v-623h320z" />
    <glyph glyph-name="K.alt.smcp" horiz-adv-x="1099" 
d="M786 999h185l-316 -522q4 -6 11 -17.5t20 -32t23 -36.5q16 -25 38.5 -59t26.5 -41l68 -82q82 -88 172 -88q29 0 57 4v-133q-27 -12 -84 -12q-89 4 -151.5 39.5t-122.5 107.5q-50 62 -68 88l-65 102q-46 73 -66 101h-199v-418h-157v999h157v-444h207z" />
    <glyph glyph-name="K.alt.swsh" horiz-adv-x="1323" 
d="M1059 1358h188l-428 -717q141 -302 298.5 -517.5t332 -346.5t360 -191.5t398.5 -60.5q198 0 346 53v-158q-137 -55 -359 -55q-187 0 -361 46t-338.5 142.5t-310.5 239.5t-276 343.5t-235 449.5h-312v-586h-163v1358h163v-623h326z" />
    <glyph glyph-name="K.smcp" horiz-adv-x="1044" 
d="M315 0h-157v999h157v-444h217l256 444h181l-303 -514l376 -485h-196l-318 418h-213v-418z" />
    <glyph glyph-name="K.swsh" horiz-adv-x="1748" 
d="M1485 1358h188l-428 -717q141 -302 298.5 -517.5t332 -346.5t360 -191.5t398.5 -60.5q195 0 346 53v-158q-137 -55 -359 -55q-187 0 -361 46t-338.5 142.5t-310.5 239.5t-276 343.5t-235 449.5h-312v-586h-165v1223h-97q-190 0 -278 -96.5t-76 -299.5l-137 27
q-26 233 108 368.5t392 135.5h253v-623h326z" />
    <glyph glyph-name="K.swsh.ss01" horiz-adv-x="1814" 
d="M1470 1358h193l-430 -713q38 -48 78 -108l94 -138q41 -57 76 -99t79 -84.5t90 -65.5t91 -23q36 0 63 6v-141q-46 -12 -100 -12q-57 0 -111 20.5t-103.5 60t-89 81.5t-85.5 100q-57 71 -98 137q-37 64 -80 122.5t-70 84.5h-291v-586h-164v1223h-86q-190 0 -278 -96.5
t-76 -299.5l-137 27q-26 233 108 368.5t392 135.5h241v-623h320z" />
    <glyph glyph-name="Kcommaaccent.alt" horiz-adv-x="1380" 
d="M739 -512h-131l15 389h172zM1036 1358h193l-432 -713q39 -45 174 -246q195 -281 334 -272q36 0 63 6v-141q-44 -12 -100 -12t-109.5 20.5t-103 60t-89 81.5t-85.5 100q-45 58 -130 186t-118 158h-271v-586h-163v1358h163v-623h300z" />
    <glyph glyph-name="Kcommaaccent.alt.smcp" horiz-adv-x="1099" 
d="M567 -512h-131l15 389h170zM786 999h185l-316 -522q4 -6 11 -17.5t20 -32t23 -36.5q16 -25 38.5 -59t26.5 -41l68 -82q82 -88 172 -88q29 0 57 4v-133q-27 -12 -84 -12q-89 4 -151.5 39.5t-122.5 107.5q-50 62 -68 88l-65 102q-46 73 -66 101h-199v-418h-157v999h157
v-444h207z" />
    <glyph glyph-name="Kcommaaccent.alt.swsh" horiz-adv-x="1454" 
d="M1059 1358h188l-428 -717q141 -302 298.5 -517.5t332 -346.5t360 -191.5t398.5 -60.5q198 0 346 53v-158q-137 -55 -359 -55q-187 0 -361 46t-338.5 142.5t-310.5 239.5t-276 343.5t-235 449.5h-312v-586h-163v1358h163v-623h326zM698 -512h-131l15 389h172z" />
    <glyph glyph-name="Kcommaaccent.smcp" horiz-adv-x="1044" 
d="M561 -512h-133l14 389h172zM315 0h-157v999h157v-444h217l256 444h181l-303 -514l376 -485h-196l-318 418h-213v-418z" />
    <glyph glyph-name="Kcommaaccent.swsh" horiz-adv-x="1882" 
d="M1485 1358h188l-428 -717q141 -302 298.5 -517.5t332 -346.5t360 -191.5t398.5 -60.5q195 0 346 53v-158q-137 -55 -359 -55q-187 0 -361 46t-338.5 142.5t-310.5 239.5t-276 343.5t-235 449.5h-312v-586h-165v1223h-97q-190 0 -278 -96.5t-76 -299.5l-137 27
q-26 233 108 368.5t392 135.5h253v-623h326zM1124 -512h-133l15 389h172z" />
    <glyph glyph-name="Kcommaaccent.swsh.ss01" horiz-adv-x="1849" 
d="M1505 1358h193l-430 -713q38 -48 78 -108l94 -138q39 -56 74.5 -98.5t80.5 -86.5t91.5 -67t89.5 -20q36 0 63 6v-141q-47 -12 -102 -12q-72 0 -144.5 38t-129.5 95t-114 129.5t-97.5 137t-81.5 123.5t-66 83h-273v-586h-163v1223h-142q-190 0 -278 -96.5t-76 -299.5
l-137 27q-26 233 108 368.5t392 135.5h296v-623h299zM1184 -512h-133l14 389h172z" />
    <glyph glyph-name="L.smcp" horiz-adv-x="933" 
d="M891 137v-137h-733v999h157v-862h576z" />
    <glyph glyph-name="L.swsh" horiz-adv-x="1652" 
d="M1616 150v-150h-963v1223h-127q-190 0 -278 -96.5t-76 -299.5l-137 27q-26 233 108 368.5t392 135.5h282v-1208h799z" />
    <glyph glyph-name="Lacute.smcp" horiz-adv-x="933" 
d="M311 1489h181l-189 -334h-137zM891 137v-137h-733v999h157v-862h576z" />
    <glyph glyph-name="Lacute.swsh" horiz-adv-x="1658" 
d="M1622 150v-150h-963v1223h-133q-190 0 -278 -96.5t-76 -299.5l-137 27q-26 233 108 368.5t392 135.5h288v-1208h799zM834 1806h180l-189 -333h-139z" />
    <glyph glyph-name="Lcaron.smcp" horiz-adv-x="937" 
d="M694 641h-123l11 346h161zM891 137v-137h-733v999h157v-862h576z" />
    <glyph glyph-name="Lcaron.swsh" horiz-adv-x="1662" 
d="M1622 150v-150h-963v1223h-133q-190 0 -278 -96.5t-76 -299.5l-137 27q-26 233 108 368.5t392 135.5h288v-1208h799zM1348 942h-131l14 391h170z" />
    <glyph glyph-name="Lcommaaccent.smcp" horiz-adv-x="933" 
d="M559 -512h-131l14 389h170zM891 137v-137h-733v999h157v-862h576z" />
    <glyph glyph-name="Lcommaaccent.swsh" horiz-adv-x="1658" 
d="M1622 150v-150h-963v1223h-133q-190 0 -278 -96.5t-76 -299.5l-137 27q-26 233 108 368.5t392 135.5h288v-1208h799zM1212 -512h-131l15 389h170z" />
    <glyph glyph-name="Ldot.smcp" horiz-adv-x="935" 
d="M582 496q-6 62 46.5 87.5t104.5 0t45 -87.5q0 -43 -27 -71t-71 -28q-43 0 -70.5 28t-27.5 71zM891 137v-137h-733v999h157v-862h576z" />
    <glyph glyph-name="Ldot.swsh" horiz-adv-x="1660" 
d="M1622 150v-150h-963v1223h-133q-190 0 -278 -96.5t-76 -299.5l-137 27q-26 233 108 368.5t392 135.5h288v-1208h799zM1415 604q-26 -29 -69 -29t-72 29t-29 71.5t27 69.5q29 26 73 26t70 -26q29 -26 29 -69t-29 -72z" />
    <glyph glyph-name="Lslash.smcp" horiz-adv-x="989" 
d="M944 137v-137h-731v506l-147 -14v133l147 12v362h160v-350l301 29v-131l-301 -29v-381h571z" />
    <glyph glyph-name="Lslash.swsh" horiz-adv-x="1658" 
d="M1622 150v-150h-963v713l-233 -15v146l233 12v367h-133q-190 0 -278 -96.5t-76 -299.5l-137 27q-26 233 108 368.5t392 135.5h288v-492l377 23v-146l-377 -20v-573h799z" />
    <glyph glyph-name="M.smcp" horiz-adv-x="1406" 
d="M1092 754l-369 -426h-39l-369 426v-754h-157v999h147l400 -471l397 471h147v-999h-157v754z" />
    <glyph glyph-name="M.swsh" horiz-adv-x="2289" 
d="M1927 1102l-538 -635h-39l-545 633v-1100h-164v1223h-115q-190 0 -278 -96.5t-76 -299.5l-137 27q-26 233 108 368.5t392 135.5h268l565 -676l563 676h160v-1358h-164v1102z" />
    <glyph glyph-name="N.smcp" horiz-adv-x="1265" 
d="M950 999h160v-999h-164l-631 762v-762h-157v999h161l631 -759v759z" />
    <glyph glyph-name="N.swsh" horiz-adv-x="2111" 
d="M1749 1358h166v-1358h-174l-924 1110v-1110h-166v1223h-125q-190 0 -278 -96.5t-76 -299.5l-137 27q-26 233 108 368.5t392 135.5h290l924 -1112v1112z" />
    <glyph glyph-name="Nacute.smcp" horiz-adv-x="1265" 
d="M696 1489h181l-189 -334h-139zM950 999h160v-999h-164l-631 762v-762h-157v999h161l631 -759v759z" />
    <glyph glyph-name="Nacute.swsh" horiz-adv-x="2111" 
d="M1749 1358h166v-1358h-174l-924 1110v-1110h-166v1223h-125q-190 0 -278 -96.5t-76 -299.5l-137 27q-26 233 108 368.5t392 135.5h290l924 -1112v1112zM1311 1806h180l-188 -333h-140z" />
    <glyph glyph-name="Ncaron.smcp" horiz-adv-x="1265" 
d="M676 1126h-74l-274 369h155l154 -221l158 221h155zM950 999h160v-999h-164l-631 762v-762h-157v999h161l631 -759v759z" />
    <glyph glyph-name="Ncaron.swsh" horiz-adv-x="2111" 
d="M1749 1358h166v-1358h-174l-924 1110v-1110h-166v1223h-125q-190 0 -278 -96.5t-76 -299.5l-137 27q-26 233 108 368.5t392 135.5h290l924 -1112v1112zM1292 1475h-73l-275 368h156l153 -221l158 221h156z" />
    <glyph glyph-name="Ncommaaccent.smcp" horiz-adv-x="1265" 
d="M676 -512h-131l12 389h172zM950 999h160v-999h-164l-631 762v-762h-157v999h161l631 -759v759z" />
    <glyph glyph-name="Ncommaaccent.swsh" horiz-adv-x="2111" 
d="M1749 1358h166v-1358h-174l-924 1110v-1110h-166v1223h-125q-190 0 -278 -96.5t-76 -299.5l-137 27q-26 233 108 368.5t392 135.5h290l924 -1112v1112zM1307 -512h-133l14 389h172z" />
    <glyph glyph-name="Nhookleft.smcp" horiz-adv-x="1288" 
d="M973 999h160v-999h-162l-631 762v-895q0 -138 -69.5 -212.5t-192.5 -74.5q-81 0 -139 25l16 133q49 -19 102 -19q123 0 123 156v1124h162l631 -759v759z" />
    <glyph glyph-name="Ntilde.smcp" horiz-adv-x="1265" 
d="M512 1294q-37 0 -63 -17t-66 -63l-84 72q91 144 209 144q55 0 129 -41q77 -41 117 -41t69.5 18.5t61.5 60.5l82 -73q-45 -71 -95 -104t-116 -33q-61 0 -133 38q-71 39 -111 39zM950 999h160v-999h-164l-631 762v-762h-157v999h161l631 -759v759z" />
    <glyph glyph-name="Ntilde.swsh" horiz-adv-x="2111" 
d="M1749 1358h166v-1358h-174l-924 1110v-1110h-166v1223h-125q-190 0 -278 -96.5t-76 -299.5l-137 27q-26 233 108 368.5t392 135.5h290l924 -1112v1112zM1126 1614q-36 0 -62 -17t-65 -63l-86 72q91 143 209 143q58 0 131 -43q74 -41 115 -41q40 0 68.5 19t62.5 63l82 -76
q-46 -70 -95.5 -103.5t-115.5 -33.5q-57 0 -131 39q-77 41 -113 41z" />
    <glyph glyph-name="O.smcp" horiz-adv-x="1236" 
d="M236 127q-150 147 -150 373q0 225 150 372q151 148 382 148q230 0 381 -148q152 -149 152 -372q0 -224 -152 -373q-150 -147 -381 -147q-232 0 -382 147zM618 872q-162 0 -266 -104t-104 -268q0 -162 104 -269q104 -104 266 -104q163 0 267 104q104 107 104 269
q0 164 -104 268t-267 104z" />
    <glyph glyph-name="OE.smcp" horiz-adv-x="1796" 
d="M1706 137v-137h-752v115q-148 -135 -346 -135q-229 0 -377 145q-145 145 -145 375q0 229 145 374q149 146 377 146q95 0 185.5 -35.5t160.5 -97.5v112h738v-137h-580v-282h506v-136h-506v-307h594zM608 127q158 0 256 104q99 105 99 269q0 166 -99 268q-98 104 -256 104
q-159 0 -260 -104q-100 -100 -100 -268q0 -166 100 -269q101 -104 260 -104z" />
    <glyph glyph-name="Oacute.smcp" horiz-adv-x="1236" 
d="M690 1489h180l-188 -334h-139zM236 127q-150 147 -150 373q0 225 150 372q151 148 382 148q230 0 381 -148q152 -149 152 -372q0 -224 -152 -373q-150 -147 -381 -147q-232 0 -382 147zM618 872q-162 0 -266 -104t-104 -268q0 -162 104 -269q104 -104 266 -104
q163 0 267 104q104 107 104 269q0 164 -104 268t-267 104z" />
    <glyph glyph-name="Obreve.smcp" horiz-adv-x="1236" 
d="M236 127q-150 147 -150 373q0 225 150 372q151 148 382 148q230 0 381 -148q152 -149 152 -372q0 -224 -152 -373q-150 -147 -381 -147q-232 0 -382 147zM618 872q-162 0 -266 -104t-104 -268q0 -162 104 -269q104 -104 266 -104q163 0 267 104q104 107 104 269
q0 164 -104 268t-267 104zM346 1444h137q6 -66 43 -106t92 -40q57 0 94.5 40t43.5 106h135q-6 -121 -81 -194.5t-192 -73.5q-116 0 -190.5 73.5t-81.5 194.5z" />
    <glyph glyph-name="Ocircumflex.smcp" horiz-adv-x="1236" 
d="M580 1495h73l275 -369h-156l-156 222l-155 -222h-156zM236 127q-150 147 -150 373q0 225 150 372q151 148 382 148q230 0 381 -148q152 -149 152 -372q0 -224 -152 -373q-150 -147 -381 -147q-232 0 -382 147zM618 872q-162 0 -266 -104t-104 -268q0 -162 104 -269
q104 -104 266 -104q163 0 267 104q104 107 104 269q0 164 -104 268t-267 104z" />
    <glyph glyph-name="Odieresis.smcp" horiz-adv-x="1236" 
d="M442 1221q-43 0 -69.5 27.5t-26.5 70.5t26.5 69.5t69.5 26.5q62 6 87.5 -45t0 -102.5t-87.5 -46.5zM696 1319q-5 59 46.5 83.5t103.5 0t47 -83.5q0 -43 -27.5 -70.5t-70.5 -27.5t-71 27.5t-28 70.5zM236 127q-150 147 -150 373q0 225 150 372q151 148 382 148
q230 0 381 -148q152 -149 152 -372q0 -224 -152 -373q-150 -147 -381 -147q-232 0 -382 147zM618 872q-162 0 -266 -104t-104 -268q0 -162 104 -269q104 -104 266 -104q163 0 267 104q104 107 104 269q0 164 -104 268t-267 104z" />
    <glyph glyph-name="Odotbelow.smcp" horiz-adv-x="1236" 
d="M616 -381q-43 0 -70.5 28t-27.5 72q0 43 27.5 70t70.5 27q62 5 87.5 -46.5t0 -103.5t-87.5 -47zM236 127q-150 147 -150 373q0 225 150 372q151 148 382 148q230 0 381 -148q152 -149 152 -372q0 -224 -152 -373q-150 -147 -381 -147q-232 0 -382 147zM618 872
q-162 0 -266 -104t-104 -268q0 -162 104 -269q104 -104 266 -104q163 0 267 104q104 107 104 269q0 164 -104 268t-267 104z" />
    <glyph glyph-name="Ograve.smcp" horiz-adv-x="1236" 
d="M553 1155l-188 334h180l145 -334h-137zM236 127q-150 147 -150 373q0 225 150 372q151 148 382 148q230 0 381 -148q152 -149 152 -372q0 -224 -152 -373q-150 -147 -381 -147q-232 0 -382 147zM618 872q-162 0 -266 -104t-104 -268q0 -162 104 -269q104 -104 266 -104
q163 0 267 104q104 107 104 269q0 164 -104 268t-267 104z" />
    <glyph glyph-name="Ohungarumlaut.smcp" horiz-adv-x="1236" 
d="M524 1489h187l-203 -334h-135zM850 1489h184l-203 -334h-133zM236 127q-150 147 -150 373q0 225 150 372q151 148 382 148q230 0 381 -148q152 -149 152 -372q0 -224 -152 -373q-150 -147 -381 -147q-232 0 -382 147zM618 872q-162 0 -266 -104t-104 -268
q0 -162 104 -269q104 -104 266 -104q163 0 267 104q104 107 104 269q0 164 -104 268t-267 104z" />
    <glyph glyph-name="Omacron.smcp" horiz-adv-x="1236" 
d="M915 1372v-125h-591v125h591zM236 127q-150 147 -150 373q0 225 150 372q151 148 382 148q230 0 381 -148q152 -149 152 -372q0 -224 -152 -373q-150 -147 -381 -147q-232 0 -382 147zM618 872q-162 0 -266 -104t-104 -268q0 -162 104 -269q104 -104 266 -104
q163 0 267 104q104 107 104 269q0 164 -104 268t-267 104z" />
    <glyph glyph-name="Oogonek.smcp" horiz-adv-x="1236" 
d="M86 500q0 225 150 372q151 148 382 148q230 0 381 -148q152 -149 152 -372q0 -186 -104 -320q-103 -133 -275 -180q-199 -129 -199 -227q0 -39 29.5 -62.5t79.5 -23.5q52 0 119 28l37 -116q-68 -45 -179 -45q-106 0 -165.5 50t-59.5 138q0 128 158 240q-221 9 -365 153
q-141 144 -141 365zM618 872q-162 0 -266 -104t-104 -268q0 -162 104 -269q104 -104 266 -104q163 0 267 104q104 107 104 269q0 164 -104 268t-267 104z" />
    <glyph glyph-name="Oslash.smcp" horiz-adv-x="1202" 
d="M68 500q0 224 151 372t381 148q152 0 281 -72l141 174l104 -86l-139 -168q148 -148 148 -368q0 -224 -152 -373q-150 -147 -383 -147q-158 0 -278 69l-142 -172l-102 84l137 170q-147 144 -147 369zM973 500q0 140 -86 243l-467 -573q79 -43 180 -43q164 0 268 104
q105 108 105 269zM231 500q0 -143 84 -244l467 571q-80 45 -182 45q-160 0 -264 -104q-105 -105 -105 -268z" />
    <glyph glyph-name="Oslashacute.smcp" horiz-adv-x="1202" 
d="M68 500q0 224 151 372t381 148q152 0 281 -72l141 174l104 -86l-139 -168q148 -148 148 -368q0 -224 -152 -373q-150 -147 -383 -147q-158 0 -278 69l-142 -172l-102 84l137 170q-147 144 -147 369zM973 500q0 140 -86 243l-467 -573q79 -43 180 -43q164 0 268 104
q105 108 105 269zM231 500q0 -143 84 -244l467 571q-80 45 -182 45q-160 0 -264 -104q-105 -105 -105 -268zM674 1489h180l-188 -334h-140z" />
    <glyph glyph-name="Otilde.smcp" horiz-adv-x="1236" 
d="M502 1294q-37 0 -63.5 -17.5t-63.5 -62.5l-86 72q91 144 207 144q50 0 132.5 -41t114.5 -41q40 0 68.5 18t62.5 61l82 -73q-45 -70 -96 -103.5t-117 -33.5q-46 0 -130 38.5t-111 38.5zM236 127q-150 147 -150 373q0 225 150 372q151 148 382 148q230 0 381 -148
q152 -149 152 -372q0 -224 -152 -373q-150 -147 -381 -147q-232 0 -382 147zM618 872q-162 0 -266 -104t-104 -268q0 -162 104 -269q104 -104 266 -104q163 0 267 104q104 107 104 269q0 164 -104 268t-267 104z" />
    <glyph glyph-name="P.smcp" horiz-adv-x="1038" 
d="M612 301h-297v-301h-157v999h454q166 0 266.5 -94t100.5 -254q0 -159 -102 -254q-104 -96 -265 -96zM600 862h-285v-424h285q94 0 153.5 59.5t59.5 153.5q0 98 -57.5 154.5t-155.5 56.5z" />
    <glyph glyph-name="P.swsh" horiz-adv-x="1769" 
d="M1225 426h-434v-426h-166v1223h-99q-190 0 -278 -96.5t-76 -299.5l-137 27q-26 233 108 368.5t392 135.5h690q77 0 147 -18t130 -55.5t104 -92t69 -132.5t25 -171q0 -106 -38.5 -194.5t-104 -146.5t-151 -90t-181.5 -32zM1204 1206h-413v-631h413q136 0 232 84
q94 85 94 230q0 150 -90.5 233.5t-235.5 83.5z" />
    <glyph glyph-name="Q.alt" horiz-adv-x="1636" 
d="M102 672q-2 148 53 280.5t151 226.5t228 147.5t279 51.5q201 3 367.5 -89t261.5 -255.5t92 -361.5q0 -200 -92.5 -358t-257.5 -246l289 -355l-148 -119l-301 414q-106 -28 -211 -28q-147 -3 -279 49t-228 143.5t-151 222t-53 277.5zM272 674q0 -239 152 -391
q153 -150 389 -150q242 0 395 150q156 150 156 391q0 240 -156 393q-153 156 -395 156q-236 0 -389 -156q-152 -155 -152 -393z" />
    <glyph glyph-name="Q.alt.smcp" horiz-adv-x="1236" 
d="M1151 500q0 -142 -63.5 -258t-176.5 -185l217 -262l-135 -104l-225 309q-70 -20 -150 -20q-232 0 -382 147t-150 373q0 225 150 372q151 148 382 148q230 0 381 -148q152 -149 152 -372zM618 872q-162 0 -266 -104t-104 -268q0 -162 104 -269q104 -104 266 -104
q163 0 267 104q104 107 104 269q0 164 -104 268t-267 104z" />
    <glyph glyph-name="Q.smcp" horiz-adv-x="1193" 
d="M86 500q0 225 150 372q151 148 382 148q230 0 381 -148q152 -149 152 -372q0 -187 -109 -326q-109 -136 -284 -176q144 -129 360 -129q69 0 135 14v-137q-61 -20 -157 -20q-148 0 -289 69.5t-234 186.5q-214 15 -350 157q-137 143 -137 361zM618 872q-162 0 -266 -104
t-104 -268q0 -162 104 -269q104 -104 266 -104q163 0 267 104q104 107 104 269q0 164 -104 268t-267 104z" />
    <glyph glyph-name="Q.swsh" horiz-adv-x="1624" 
d="M102 672q-2 148 53 280.5t151 226.5t228 147.5t279 51.5q201 3 367.5 -89t261.5 -255.5t92 -361.5q0 -226 -119 -397.5t-323 -245.5q243 -250 552 -378t660 -128q161 0 313 30.5t256 84.5v-162q-76 -42 -250 -76q-173 -37 -329 -37q-372 0 -740 160q-362 159 -645 461
l2 2q-46 -6 -98 -6q-147 -3 -279 49t-228 143.5t-151 222t-53 277.5zM272 674q0 -239 152 -391q153 -150 389 -150q244 0 397 150q154 151 154 391t-156 393q-153 156 -395 156q-236 0 -389 -156q-152 -155 -152 -393z" />
    <glyph glyph-name="R.alt" horiz-adv-x="1433" 
d="M1354 127v-137l-4 -2q-4 0 -33.5 -4t-52.5 -4q-95 0 -170.5 46.5t-153.5 131.5q-33 37 -78 98q-78 120 -125 170h-375v-426h-163v1358h600q97 0 181.5 -29t150 -85.5t103.5 -147.5t38 -207q0 -168 -92 -287t-244 -158l45 -63l49 -68q5 -8 21.5 -27t25.5 -30
q15 -18 26.5 -30t27.5 -26t21.5 -18t29.5 -22q59 -39 123 -39q25 0 49 6zM778 1206h-416v-631h416q136 0 232 84q94 85 94 230q0 150 -90.5 233.5t-235.5 83.5z" />
    <glyph glyph-name="R.alt.smcp" horiz-adv-x="1110" 
d="M979 649q0 -123 -69 -211t-183 -119q63 -91 109 -139q64 -61 143 -61q19 0 51 4v-133q-30 -10 -78 -10q-69 0 -123 26.5t-108 75.5q-26 26 -84 104q-34 59 -82 115h-240v-301h-157v999h456q166 0 265.5 -93.5t99.5 -256.5zM602 862h-287v-424h287q93 0 152 59t59 152
q0 98 -57 155.5t-154 57.5z" />
    <glyph glyph-name="R.alt.swsh" horiz-adv-x="1382" 
d="M801 426h-439v-426h-163v1358h600q97 0 181.5 -29t150 -85.5t103.5 -147.5t38 -207q0 -159 -83 -274t-222 -160q280 -487 592 -701q314 -215 718 -215q200 0 392 66v-158q-154 -68 -404 -68q-911 0 -1464 1047zM778 1206h-416v-631h416q139 0 231.5 87t92.5 227
q0 150 -90 233.5t-234 83.5z" />
    <glyph glyph-name="R.smcp" horiz-adv-x="1095" 
d="M846 0l-244 301h-287v-301h-157v999h456q166 0 265.5 -93.5t99.5 -256.5q0 -108 -56.5 -191.5t-154.5 -125.5l276 -332h-198zM602 862h-287v-424h287q93 0 152 59t59 152q0 98 -57 155.5t-154 57.5z" />
    <glyph glyph-name="R.swsh" horiz-adv-x="1794" 
d="M1217 426h-441v-426h-166v1223h-84q-190 0 -278 -96.5t-76 -299.5l-137 27q-26 233 108 368.5t392 135.5h675q98 0 182.5 -29t151 -85.5t104.5 -147.5t38 -207q0 -158 -84 -273t-224 -163q131 -248 259 -414.5t280 -282.5q153 -116 333 -170.5t404 -54.5q190 0 361 57
v-157q-126 -60 -371 -60q-233 -1 -427.5 56t-370.5 183t-331 327.5t-298 488.5zM1192 1206h-416v-631h416q133 0 229 84q95 86 95 230q0 150 -90 233.5t-234 83.5z" />
    <glyph glyph-name="R.swsh.ss01" horiz-adv-x="1921" 
d="M1841 127v-137l-4 -2q-2 0 -32 -4t-54 -4q-93 0 -168.5 47t-152.5 131q-33 37 -78 98q-78 120 -125 170h-375v-426h-166v1223h-160q-190 0 -278 -96.5t-76 -299.5l-137 27q-26 233 108 368.5t392 135.5h751q98 0 182.5 -29t150.5 -85.5t104 -147.5t38 -207
q0 -168 -92 -287t-246 -158l47 -63l50 -66q3 -4 19 -23.5t26 -35.5q10 -12 19.5 -22.5t16.5 -17t17.5 -15.5t15 -13t17.5 -14t18 -14q59 -39 123 -39q28 0 49 6zM1268 1206h-416v-631h416q139 0 231 87t92 227q0 150 -89.5 233.5t-233.5 83.5z" />
    <glyph glyph-name="Racute.alt" horiz-adv-x="1433" 
d="M766 1806h180l-188 -333h-140zM1354 127v-137l-4 -2q-4 0 -33.5 -4t-52.5 -4q-95 0 -170.5 46.5t-153.5 131.5q-33 37 -78 98q-78 120 -125 170h-375v-426h-163v1358h600q97 0 181.5 -29t150 -85.5t103.5 -147.5t38 -207q0 -168 -92 -287t-244 -158l45 -63l49 -68
q5 -8 21.5 -27t25.5 -30q15 -18 26.5 -30t27.5 -26t21.5 -18t29.5 -22q59 -39 123 -39q25 0 49 6zM778 1206h-416v-631h416q136 0 232 84q94 85 94 230q0 150 -90.5 233.5t-235.5 83.5z" />
    <glyph glyph-name="Racute.alt.smcp" horiz-adv-x="1110" 
d="M979 649q0 -123 -69 -211t-183 -119q63 -91 109 -139q64 -61 143 -61q19 0 51 4v-133q-30 -10 -78 -10q-69 0 -123 26.5t-108 75.5q-26 26 -84 104q-34 59 -82 115h-240v-301h-157v999h456q166 0 265.5 -93.5t99.5 -256.5zM602 862h-287v-424h287q93 0 152 59t59 152
q0 98 -57 155.5t-154 57.5zM586 1489h180l-188 -334h-140z" />
    <glyph glyph-name="Racute.alt.swsh" horiz-adv-x="1382" 
d="M801 426h-439v-426h-163v1358h600q97 0 181.5 -29t150 -85.5t103.5 -147.5t38 -207q0 -159 -83 -274t-222 -160q280 -487 592 -701q314 -215 718 -215q200 0 392 66v-158q-154 -68 -404 -68q-911 0 -1464 1047zM778 1206h-416v-631h416q139 0 231.5 87t92.5 227
q0 150 -90 233.5t-234 83.5zM774 1806h180l-188 -333h-139z" />
    <glyph glyph-name="Racute.smcp" horiz-adv-x="1095" 
d="M580 1489h180l-189 -334h-139zM846 0l-244 301h-287v-301h-157v999h456q166 0 265.5 -93.5t99.5 -256.5q0 -108 -56.5 -191.5t-154.5 -125.5l276 -332h-198zM602 862h-287v-424h287q93 0 152 59t59 152q0 98 -57 155.5t-154 57.5z" />
    <glyph glyph-name="Racute.swsh" horiz-adv-x="1794" 
d="M1217 426h-441v-426h-166v1223h-84q-190 0 -278 -96.5t-76 -299.5l-137 27q-26 233 108 368.5t392 135.5h675q98 0 182.5 -29t151 -85.5t104.5 -147.5t38 -207q0 -158 -84 -273t-224 -163q131 -248 259 -414.5t280 -282.5q153 -116 333 -170.5t404 -54.5q190 0 361 57
v-157q-126 -60 -371 -60q-233 -1 -427.5 56t-370.5 183t-331 327.5t-298 488.5zM1192 1206h-416v-631h416q133 0 229 84q95 86 95 230q0 150 -90 233.5t-234 83.5zM1180 1806h180l-189 -333h-139z" />
    <glyph glyph-name="Racute.swsh.ss01" horiz-adv-x="1921" 
d="M1198 1806h180l-186 -333h-139zM1841 127v-137l-4 -2q-2 0 -32 -4t-54 -4q-93 0 -168.5 47t-152.5 131q-33 37 -78 98q-78 120 -125 170h-375v-426h-166v1223h-160q-190 0 -278 -96.5t-76 -299.5l-137 27q-26 233 108 368.5t392 135.5h751q98 0 182.5 -29t150.5 -85.5
t104 -147.5t38 -207q0 -168 -92 -287t-246 -158l47 -63l50 -66q3 -4 19 -23.5t26 -35.5q10 -12 19.5 -22.5t16.5 -17t17.5 -15.5t15 -13t17.5 -14t18 -14q59 -39 123 -39q28 0 49 6zM1268 1206h-416v-631h416q139 0 231 87t92 227q0 150 -89.5 233.5t-233.5 83.5z" />
    <glyph glyph-name="Rcaron.alt" horiz-adv-x="1433" 
d="M727 1475h-72l-274 368h156l153 -221l158 221h156zM1354 127v-137l-4 -2q-4 0 -33.5 -4t-52.5 -4q-95 0 -170.5 46.5t-153.5 131.5q-33 37 -78 98q-78 120 -125 170h-375v-426h-163v1358h600q97 0 181.5 -29t150 -85.5t103.5 -147.5t38 -207q0 -168 -92 -287t-244 -158
l45 -63l49 -68q5 -8 21.5 -27t25.5 -30q15 -18 26.5 -30t27.5 -26t21.5 -18t29.5 -22q59 -39 123 -39q25 0 49 6zM778 1206h-416v-631h416q136 0 232 84q94 85 94 230q0 150 -90.5 233.5t-235.5 83.5z" />
    <glyph glyph-name="Rcaron.alt.smcp" horiz-adv-x="1110" 
d="M979 649q0 -123 -69 -211t-183 -119q63 -91 109 -139q64 -61 143 -61q19 0 51 4v-133q-30 -10 -78 -10q-69 0 -123 26.5t-108 75.5q-26 26 -84 104q-34 59 -82 115h-240v-301h-157v999h456q166 0 265.5 -93.5t99.5 -256.5zM602 862h-287v-424h287q93 0 152 59t59 152
q0 98 -57 155.5t-154 57.5zM547 1126h-74l-274 369h155l156 -219l156 219h155z" />
    <glyph glyph-name="Rcaron.alt.swsh" horiz-adv-x="1382" 
d="M801 426h-439v-426h-163v1358h600q97 0 181.5 -29t150 -85.5t103.5 -147.5t38 -207q0 -159 -83 -274t-222 -160q280 -487 592 -701q314 -215 718 -215q200 0 392 66v-158q-154 -68 -404 -68q-911 0 -1464 1047zM778 1206h-416v-631h416q139 0 231.5 87t92.5 227
q0 150 -90 233.5t-234 83.5zM707 1475h-74l-275 368h156l156 -221l155 221h156z" />
    <glyph glyph-name="Rcaron.smcp" horiz-adv-x="1095" 
d="M559 1126h-74l-274 369h156l153 -221l158 221h156zM846 0l-244 301h-287v-301h-157v999h456q166 0 265.5 -93.5t99.5 -256.5q0 -108 -56.5 -191.5t-154.5 -125.5l276 -332h-198zM602 862h-287v-424h287q93 0 152 59t59 152q0 98 -57 155.5t-154 57.5z" />
    <glyph glyph-name="Rcaron.swsh" horiz-adv-x="1794" 
d="M1217 426h-441v-426h-166v1223h-84q-190 0 -278 -96.5t-76 -299.5l-137 27q-26 233 108 368.5t392 135.5h675q98 0 182.5 -29t151 -85.5t104.5 -147.5t38 -207q0 -158 -84 -273t-224 -163q131 -248 259 -414.5t280 -282.5q153 -116 333 -170.5t404 -54.5q190 0 361 57
v-157q-126 -60 -371 -60q-233 -1 -427.5 56t-370.5 183t-331 327.5t-298 488.5zM1192 1206h-416v-631h416q133 0 229 84q95 86 95 230q0 150 -90 233.5t-234 83.5zM1079 1475h-71l-277 368h158l153 -221l156 221h158z" />
    <glyph glyph-name="Rcaron.swsh.ss01" horiz-adv-x="1921" 
d="M1200 1475h-74l-274 368h156l153 -221l158 221h156zM1841 127v-137l-4 -2q-2 0 -32 -4t-54 -4q-93 0 -168.5 47t-152.5 131q-33 37 -78 98q-78 120 -125 170h-375v-426h-166v1223h-160q-190 0 -278 -96.5t-76 -299.5l-137 27q-26 233 108 368.5t392 135.5h751
q98 0 182.5 -29t150.5 -85.5t104 -147.5t38 -207q0 -168 -92 -287t-246 -158l47 -63l50 -66q3 -4 19 -23.5t26 -35.5q10 -12 19.5 -22.5t16.5 -17t17.5 -15.5t15 -13t17.5 -14t18 -14q59 -39 123 -39q28 0 49 6zM1268 1206h-416v-631h416q139 0 231 87t92 227
q0 150 -89.5 233.5t-233.5 83.5z" />
    <glyph glyph-name="Rcommaaccent.alt" horiz-adv-x="1433" 
d="M756 -512h-131l14 389h172zM1354 127v-137l-4 -2q-4 0 -33.5 -4t-52.5 -4q-95 0 -170.5 46.5t-153.5 131.5q-33 37 -78 98q-78 120 -125 170h-375v-426h-163v1358h600q97 0 181.5 -29t150 -85.5t103.5 -147.5t38 -207q0 -168 -92 -287t-244 -158l45 -63l49 -68
q5 -8 21.5 -27t25.5 -30q15 -18 26.5 -30t27.5 -26t21.5 -18t29.5 -22q59 -39 123 -39q25 0 49 6zM778 1206h-416v-631h416q136 0 232 84q94 85 94 230q0 150 -90.5 233.5t-235.5 83.5z" />
    <glyph glyph-name="Rcommaaccent.alt.smcp" horiz-adv-x="1110" 
d="M979 649q0 -123 -69 -211t-183 -119q63 -91 109 -139q64 -61 143 -61q19 0 51 4v-133q-30 -10 -78 -10q-69 0 -123 26.5t-108 75.5q-26 26 -84 104q-34 59 -82 115h-240v-301h-157v999h456q166 0 265.5 -93.5t99.5 -256.5zM602 862h-287v-424h287q93 0 152 59t59 152
q0 98 -57 155.5t-154 57.5zM563 -512h-133l14 389h172z" />
    <glyph glyph-name="Rcommaaccent.alt.swsh" horiz-adv-x="1382" 
d="M801 426h-439v-426h-163v1358h600q97 0 181.5 -29t150 -85.5t103.5 -147.5t38 -207q0 -159 -83 -274t-222 -160q280 -487 592 -701q314 -215 718 -215q200 0 392 66v-158q-154 -68 -404 -68q-911 0 -1464 1047zM778 1206h-416v-631h416q139 0 231.5 87t92.5 227
q0 150 -90 233.5t-234 83.5zM735 -512h-131l14 389h170z" />
    <glyph glyph-name="Rcommaaccent.smcp" horiz-adv-x="1095" 
d="M575 -512h-133l15 389h172zM846 0l-244 301h-287v-301h-157v999h456q166 0 265.5 -93.5t99.5 -256.5q0 -108 -56.5 -191.5t-154.5 -125.5l276 -332h-198zM602 862h-287v-424h287q93 0 152 59t59 152q0 98 -57 155.5t-154 57.5z" />
    <glyph glyph-name="Rcommaaccent.swsh" horiz-adv-x="1794" 
d="M1217 426h-441v-426h-166v1223h-84q-190 0 -278 -96.5t-76 -299.5l-137 27q-26 233 108 368.5t392 135.5h675q98 0 182.5 -29t151 -85.5t104.5 -147.5t38 -207q0 -158 -84 -273t-224 -163q131 -248 259 -414.5t280 -282.5q153 -116 333 -170.5t404 -54.5q190 0 361 57
v-157q-126 -60 -371 -60q-233 -1 -427.5 56t-370.5 183t-331 327.5t-298 488.5zM1192 1206h-416v-631h416q133 0 229 84q95 86 95 230q0 150 -90 233.5t-234 83.5zM1120 -512h-131l15 389h170z" />
    <glyph glyph-name="Rcommaaccent.swsh.ss01" horiz-adv-x="1921" 
d="M1255 -512h-131l15 389h172zM1841 127v-137l-4 -2q-2 0 -32 -4t-54 -4q-93 0 -168.5 47t-152.5 131q-33 37 -78 98q-78 120 -125 170h-375v-426h-166v1223h-160q-190 0 -278 -96.5t-76 -299.5l-137 27q-26 233 108 368.5t392 135.5h751q98 0 182.5 -29t150.5 -85.5
t104 -147.5t38 -207q0 -168 -92 -287t-246 -158l47 -63l50 -66q3 -4 19 -23.5t26 -35.5q10 -12 19.5 -22.5t16.5 -17t17.5 -15.5t15 -13t17.5 -14t18 -14q59 -39 123 -39q28 0 49 6zM1268 1206h-416v-631h416q139 0 231 87t92 227q0 150 -89.5 233.5t-233.5 83.5z" />
    <glyph glyph-name="S.smcp" horiz-adv-x="901" 
d="M512 412l-170 51q-124 37 -185 99t-61 167q0 137 98.5 214t276.5 77q163 0 305 -59l-14 -150q-57 26 -138.5 43.5t-148.5 17.5q-104 0 -160.5 -34t-56.5 -101q0 -31 11 -53t37 -38t45 -23.5t57 -20.5l12 -4l155 -47q135 -43 192.5 -106.5t57.5 -172.5
q0 -131 -103.5 -211.5t-275.5 -80.5q-203 0 -352 73l15 150q155 -76 327 -76q105 0 166.5 38t61.5 105q0 53 -35.5 85t-116.5 57z" />
    <glyph glyph-name="Sacute.smcp" horiz-adv-x="901" 
d="M526 1489h181l-189 -334h-139zM512 412l-170 51q-124 37 -185 99t-61 167q0 137 98.5 214t276.5 77q163 0 305 -59l-14 -150q-57 26 -138.5 43.5t-148.5 17.5q-104 0 -160.5 -34t-56.5 -101q0 -31 11 -53t37 -38t45 -23.5t57 -20.5l12 -4l155 -47q135 -43 192.5 -106.5
t57.5 -172.5q0 -131 -103.5 -211.5t-275.5 -80.5q-203 0 -352 73l15 150q155 -76 327 -76q105 0 166.5 38t61.5 105q0 53 -35.5 85t-116.5 57z" />
    <glyph glyph-name="Scaron.smcp" horiz-adv-x="901" 
d="M498 1126h-72l-276 369h155l156 -221l155 221h156zM512 412l-170 51q-124 37 -185 99t-61 167q0 137 98.5 214t276.5 77q163 0 305 -59l-14 -150q-57 26 -138.5 43.5t-148.5 17.5q-104 0 -160.5 -34t-56.5 -101q0 -31 11 -53t37 -38t45 -23.5t57 -20.5l12 -4l155 -47
q135 -43 192.5 -106.5t57.5 -172.5q0 -131 -103.5 -211.5t-275.5 -80.5q-203 0 -352 73l15 150q155 -76 327 -76q105 0 166.5 38t61.5 105q0 53 -35.5 85t-116.5 57z" />
    <glyph glyph-name="Scedilla.smcp" horiz-adv-x="901" 
d="M512 412l-170 51q-124 37 -185 99t-61 167q0 137 98.5 214t276.5 77q163 0 305 -59l-14 -150q-57 26 -138.5 43.5t-148.5 17.5q-104 0 -160.5 -34t-56.5 -101q0 -66 55 -98q61 -28 115 -43l18 -6l129 -39q135 -43 192.5 -106.5t57.5 -172.5q0 -121 -87 -198.5t-236 -89.5
l-27 -80q94 -8 149.5 -52.5t55.5 -113.5q0 -86 -69 -135t-191 -49q-85 0 -135 20v113q59 -19 125 -19q127 0 127 70q0 76 -146 76h-59l63 168q-174 9 -301 71l15 150q155 -76 327 -76q105 0 166.5 38t61.5 105q0 50 -35.5 82.5t-116.5 59.5z" />
    <glyph glyph-name="Schwa.smcp" horiz-adv-x="1171" 
d="M170 776l-31 146q171 98 396 98q250 0 399 -143t149 -377q0 -224 -143 -373q-141 -147 -360 -147q-171 0 -293 82t-171 213.5t-22 283.5h819q-19 151 -120.5 231t-268.5 80q-191 0 -354 -94zM911 426h-665q6 -137 92.5 -217t236.5 -80q142 0 233.5 81.5t102.5 215.5z" />
    <glyph glyph-name="Scircumflex.smcp" horiz-adv-x="901" 
d="M430 1495h74l274 -369h-155l-156 222l-156 -222h-155zM512 412l-170 51q-124 37 -185 99t-61 167q0 137 98.5 214t276.5 77q163 0 305 -59l-14 -150q-57 26 -138.5 43.5t-148.5 17.5q-104 0 -160.5 -34t-56.5 -101q0 -31 11 -53t37 -38t45 -23.5t57 -20.5l12 -4l155 -47
q135 -43 192.5 -106.5t57.5 -172.5q0 -131 -103.5 -211.5t-275.5 -80.5q-203 0 -352 73l15 150q155 -76 327 -76q105 0 166.5 38t61.5 105q0 53 -35.5 85t-116.5 57z" />
    <glyph glyph-name="Scommaaccent.smcp" horiz-adv-x="901" 
d="M502 -512h-133l14 389h172zM512 412l-170 51q-124 37 -185 99t-61 167q0 137 98.5 214t276.5 77q163 0 305 -59l-14 -150q-57 26 -138.5 43.5t-148.5 17.5q-104 0 -160.5 -34t-56.5 -101q0 -31 11 -53t37 -38t45 -23.5t57 -20.5l12 -4l155 -47q135 -43 192.5 -106.5
t57.5 -172.5q0 -131 -103.5 -211.5t-275.5 -80.5q-203 0 -352 73l15 150q155 -76 327 -76q105 0 166.5 38t61.5 105q0 53 -35.5 85t-116.5 57z" />
    <glyph glyph-name="T.smcp" horiz-adv-x="884" 
d="M844 999v-137h-322v-862h-160v862h-321v137h803z" />
    <glyph glyph-name="Tbar.smcp" horiz-adv-x="933" 
d="M868 999v-137h-321v-278h262v-133h-262v-451h-160v451h-262v133h262v278h-321v137h802z" />
    <glyph glyph-name="Tcaron.smcp" horiz-adv-x="884" 
d="M477 1126h-71l-277 369h158l153 -221l158 221h156zM844 999v-137h-322v-862h-160v862h-321v137h803z" />
    </font>
</defs>
</svg>
