<?xml version="1.0" standalone="no"?>
<!DOCTYPE svg PUBLIC "-//W3C//DTD SVG 1.1//EN" "http://www.w3.org/Graphics/SVG/1.1/DTD/svg11.dtd" >
<svg xmlns="http://www.w3.org/2000/svg" xmlns:xlink="http://www.w3.org/1999/xlink" version="1.1">
<metadata>
Created by FontForge 20170731 at Wed May 31 19:14:16 2023
 By Aleksey,,,
Copyright (c) 2018 by TipoType Team. All rights reserved. |DCNT
</metadata>
<defs>
<font id="Fieldwork-GeoThin" horiz-adv-x="1349" >
  <font-face 
    font-family="Fieldwork Geo Thin"
    font-weight="250"
    font-stretch="normal"
    units-per-em="2048"
    panose-1="0 0 0 0 0 0 0 0 0 0"
    ascent="1407"
    descent="-641"
    x-height="958"
    cap-height="1358"
    bbox="-188 -702 3066 2294"
    underline-thickness="149"
    underline-position="-949"
    unicode-range="U+000D-FB04"
  />
<missing-glyph horiz-adv-x="1417" 
d="M1219 0h-1018v1358h1018v-1358zM711 776l-244 242l-96 -96l241 -240l-243 -246l96 -96l246 242l241 -242l99 96l-244 246l242 240l-99 96z" />
    <glyph glyph-name="ff" unicode="ff" horiz-adv-x="1452" 
d="M1401 961v-107h-311v-854h-121v854h-611v-854h-118v854h-183v107h183v133q0 157 92 245t252 88q89 0 157 -26l-16 -92q-47 20 -135 20q-46 0 -85.5 -12.5t-73.5 -39.5t-53.5 -76.5t-19.5 -117.5v-122h611v133q0 157 93 245t253 88q87 0 155 -26l-16 -92q-47 20 -133 20
q-47 0 -86.5 -12.5t-73 -39.5t-52.5 -76.5t-19 -117.5v-122h311z" />
    <glyph glyph-name="fi" unicode="fi" horiz-adv-x="1200" 
d="M672 961v-107h-314v-854h-118v854h-183v107h183v133q0 157 92 245t252 88q89 0 157 -26l-16 -92q-47 20 -135 20q-46 0 -85.5 -12.5t-73.5 -39.5t-53.5 -76.5t-19.5 -117.5v-122h314zM1030 0h-121v961h121v-961zM1024 1229q-23 -23 -55.5 -23t-53.5 21q-20 23 -20 55.5
t20 52.5q20 23 53.5 23t53.5 -23q23 -20 23 -52.5t-21 -53.5z" />
    <glyph glyph-name="fl" unicode="fl" horiz-adv-x="1200" 
d="M672 961v-107h-314v-854h-118v854h-183v107h183v133q0 157 92 245t252 88q89 0 157 -26l-16 -92q-47 20 -135 20q-46 0 -85.5 -12.5t-73.5 -39.5t-53.5 -76.5t-19.5 -117.5v-122h314zM1014 0h-119v1407h119v-1407z" />
    <glyph glyph-name="ffi" unicode="ffi" horiz-adv-x="1931" 
d="M1401 961v-107h-311v-854h-121v854h-611v-854h-118v854h-183v107h183v133q0 157 92 245t252 88q89 0 157 -26l-16 -92q-47 20 -135 20q-46 0 -85.5 -12.5t-73.5 -39.5t-53.5 -76.5t-19.5 -117.5v-122h611v133q0 157 93 245t253 88q87 0 155 -26l-16 -92q-47 20 -133 20
q-47 0 -86.5 -12.5t-73 -39.5t-52.5 -76.5t-19 -117.5v-122h311zM1759 0h-119v961h119v-961zM1753 1229q-20 -23 -53.5 -23t-54.5 21q-20 23 -20 55.5t20 52.5q20 23 54 23t54 -23q23 -20 23 -53t-23 -53z" />
    <glyph glyph-name="ffl" unicode="ffl" horiz-adv-x="1929" 
d="M1401 961v-107h-311v-854h-121v854h-611v-854h-118v854h-183v107h183v133q0 157 92 245t252 88q89 0 157 -26l-16 -92q-47 20 -135 20q-46 0 -85.5 -12.5t-73.5 -39.5t-53.5 -76.5t-19.5 -117.5v-122h611v133q0 157 93 245t253 88q87 0 155 -26l-16 -92q-47 20 -133 20
q-47 0 -86.5 -12.5t-73 -39.5t-52.5 -76.5t-19 -117.5v-122h311zM1745 0h-121v1407h121v-1407z" />
    <glyph glyph-name="Th" unicode="Th" horiz-adv-x="2351" 
d="M1774 981q188 0 296.5 -103.5t108.5 -291.5v-586h-117v551q0 317 -309 317q-138 0 -233 -92t-95 -231v-545h-120v1407h120v-614q54 92 146 140t203 48zM1079 1358v-111h-461v-1247h-118v1247h-461v111h1040z" />
    <glyph glyph-name="fj" unicode="fj" horiz-adv-x="1214" 
d="M672 961v-107h-314v-854h-118v854h-183v107h183v133q0 157 92 245t252 88q89 0 157 -26l-16 -92q-47 20 -135 20q-46 0 -85.5 -12.5t-73.5 -39.5t-53.5 -76.5t-19.5 -117.5v-122h314zM1036 1229q-20 -23 -53.5 -23t-54.5 21q-20 23 -20 55.5t20 52.5q20 23 54 23t54 -23
q23 -20 23 -53t-23 -53zM924 -113v1074h118v-1084q0 -140 -71.5 -218.5t-198.5 -78.5q-88 0 -143 25l14 102q53 -18 123 -18q158 0 158 198z" />
    <glyph glyph-name="ft" unicode="ft" horiz-adv-x="1456" 
d="M1386 961v-107h-327v-557q0 -103 46 -156t128 -53q102 0 172 31l16 -105q-74 -34 -194 -34q-135 0 -212 74.5t-77 213.5v586h-580v-854h-118v854h-183v107h183v133q0 157 92 245t252 88q89 0 157 -26l-16 -92q-47 20 -135 20q-46 0 -85.5 -12.5t-73.5 -39.5t-53.5 -76.5
t-19.5 -117.5v-122h578v307h123v-307h327z" />
    <glyph glyph-name=".notdef" horiz-adv-x="1417" 
d="M1219 0h-1018v1358h1018v-1358zM711 776l-244 242l-96 -96l241 -240l-243 -246l96 -96l246 242l241 -242l99 96l-244 246l242 240l-99 96z" />
    <glyph glyph-name=".null" horiz-adv-x="0" 
 />
    <glyph glyph-name="nonmarkingreturn" horiz-adv-x="682" 
 />
    <glyph glyph-name="CR.001" unicode="&#xd;" horiz-adv-x="483" 
 />
    <glyph glyph-name="CR.001" horiz-adv-x="483" 
 />
    <glyph glyph-name="space" unicode=" " horiz-adv-x="483" 
 />
    <glyph glyph-name="exclam" unicode="!" horiz-adv-x="522" 
d="M311 369h-100l-10 989h121zM313 14q-20 -20 -52.5 -20t-55.5 20q-20 20 -20 53.5t20 53.5q23 23 55.5 23t52.5 -23q23 -20 23 -53.5t-23 -53.5z" />
    <glyph glyph-name="quotedbl" unicode="&#x22;" horiz-adv-x="614" 
d="M266 1427l-22 -432h-82l-25 432h129zM477 1427l-22 -432h-84l-23 432h129z" />
    <glyph glyph-name="numbersign" unicode="#" horiz-adv-x="1361" 
d="M84 377l16 94h256l80 444h-258l19 97h256l63 346h115l-64 -346h338l64 346h114l-61 -346h258l-16 -97h-260l-78 -444h258l-19 -94h-258l-65 -377h-117l68 377h-338l-68 -377h-115l68 377h-256zM889 915h-338l-80 -444h338z" />
    <glyph glyph-name="dollar" unicode="$" horiz-adv-x="1007" 
d="M578 -160h-119l8 248q-173 6 -344 80l12 119q177 -86 359 -86q143 0 223 52t80 146q0 67 -46 112t-147 81l-203 63q-150 48 -222.5 120.5t-72.5 182.5q0 133 93.5 213.5t261.5 92.5l-8 252h118l-8 -250q150 -9 283 -62l-15 -110q-158 61 -309 61q-137 0 -214 -51
t-77 -143q0 -84 70 -130q61 -40 141 -63l191 -61q157 -54 223 -126t66 -188q0 -128 -92.5 -207t-260.5 -96z" />
    <glyph glyph-name="percent" unicode="%" horiz-adv-x="1888" 
d="M49 1036q0 146 101 244t247 98q150 0 248 -98q100 -97 100 -244q0 -146 -100 -243q-99 -99 -248 -99q-145 0 -247 99q-101 101 -101 243zM158 1036q0 -103 68 -172t171 -69q104 0 173 69t69 172t-69 172.5t-173 69.5q-102 0 -170.5 -69.5t-68.5 -172.5zM993 322
q0 145 101 243q102 99 247 99q149 0 248 -99q101 -98 101 -243q0 -146 -101 -244q-98 -98 -248 -98q-146 0 -247 98t-101 244zM1102 322q0 -103 67.5 -172.5t171.5 -69.5t173 69.5t69 172.5t-69 172t-173 69t-171.5 -69t-67.5 -172zM557 0h-104v27l733 1331h102v-25z" />
    <glyph glyph-name="ampersand" unicode="&#x26;" horiz-adv-x="1302" 
d="M979 1315l-21 -109q-54 26 -132 44t-154 18q-134 0 -216.5 -59t-82.5 -156q0 -79 29 -139t102 -134l500 -479q56 76 81.5 196.5t14.5 239.5h110q18 -308 -125 -512l228 -225h-160l-145 141q-175 -163 -410 -161q-217 0 -356 112q-140 116 -140 289q0 58 17.5 111t43 91.5
t64.5 75t71.5 60t74.5 47.5q-60 65 -90.5 131.5t-30.5 149.5q0 147 117 239q118 92 303 92q172 0 307 -63zM938 221l-504 467q-213 -106 -213 -307q0 -127 107 -209t268 -82q208 0 342 131z" />
    <glyph glyph-name="quotesingle" unicode="'" horiz-adv-x="405" 
d="M266 1427l-22 -432h-82l-25 432h129z" />
    <glyph glyph-name="parenleft" unicode="(" horiz-adv-x="559" 
d="M401 1561h127l-32 -54q-35 -68 -68 -139q-54 -119 -90 -226t-64 -255q-60 -307 -2 -613q20 -106 49 -203.5t68.5 -186.5t58 -126.5t54.5 -107.5l30 -49h-131q-122 170 -204 434q-84 275 -84 545q0 266 72 501t216 480z" />
    <glyph glyph-name="parenright" unicode=")" horiz-adv-x="561" 
d="M47 1534l-14 27h127q144 -246 216.5 -481t72.5 -500q0 -270 -84 -545q-81 -262 -205 -434h-131q10 12 30 51q25 42 70 139q40 84 88 213q39 107 70 268q30 156 30 308q0 305 -112 610q-71 208 -158 344z" />
    <glyph glyph-name="asterisk" unicode="*" horiz-adv-x="890" 
d="M389 1405h111l-15 -299l275 104l35 -104l-277 -76l-2 -4l189 -233l-91 -66l-170 260l-170 -260l-88 66l187 233v4l-277 76l33 104l274 -104z" />
    <glyph glyph-name="plus" unicode="+" horiz-adv-x="1234" 
d="M676 152h-119v471h-471v118h471v463h119v-463h475v-118h-475v-471z" />
    <glyph glyph-name="comma" unicode="," horiz-adv-x="421" 
d="M43 -256l107 434h124l-124 -434h-107z" />
    <glyph glyph-name="hyphen" unicode="-" horiz-adv-x="980" 
d="M162 637h655v-119h-655v119z" />
    <glyph glyph-name="period" unicode="." horiz-adv-x="407" 
d="M258 14q-20 -20 -54 -20t-54 20t-20 53.5t20 53.5q20 23 54 23t54 -23q23 -20 23 -53.5t-23 -53.5z" />
    <glyph glyph-name="slash" unicode="/" horiz-adv-x="1013" 
d="M840 1530h125l-787 -1929h-125z" />
    <glyph glyph-name="zero" unicode="0" horiz-adv-x="1359" 
d="M1079 166q-143 -186 -399 -186q-257 0 -401 184q-146 190 -146 514q0 327 146 514q143 186 401 186t401 -186q146 -187 146 -514q0 -326 -148 -512zM680 90q201 0 314.5 156.5t113.5 431.5q0 277 -113.5 433.5t-314.5 156.5t-314.5 -156.5t-113.5 -433.5
q0 -275 113.5 -431.5t314.5 -156.5z" />
    <glyph glyph-name="one" unicode="1" horiz-adv-x="692" 
d="M465 0h-121v1247h-299v111h420v-1358z" />
    <glyph glyph-name="two" unicode="2" horiz-adv-x="1093" 
d="M631 469l-373 -358h729v-111h-878v119l432 420q134 131 196 231q58 94 58 205q0 142 -94 215.5t-232 73.5q-85 0 -173.5 -28.5t-158.5 -76.5l-18 115q169 102 370 102q89 0 166 -23t139 -69.5t98 -125.5t36 -181q0 -137 -86 -264q-70 -103 -211 -244z" />
    <glyph glyph-name="three" unicode="3" horiz-adv-x="1163" 
d="M315 655v105l469 487h-616v111h782v-88l-471 -484q63 5 78 5q219 0 350 -107q135 -108 135 -289q0 -195 -140 -305t-390 -110q-248 0 -420 90l23 120q185 -90 389 -90q191 0 299 75t108 208q0 141 -102.5 221t-282.5 80q-101 0 -211 -29z" />
    <glyph glyph-name="four" unicode="4" horiz-adv-x="1144" 
d="M524 1358h138l-455 -903h551v381h119v-381h204v-111h-204v-344h-119v344h-686v100z" />
    <glyph glyph-name="five" unicode="5" horiz-adv-x="1134" 
d="M201 684l-27 37l68 637h710v-113h-618l-45 -434q85 31 207 31q236 0 381 -115t145 -305q0 -208 -135.5 -325t-374.5 -117q-237 0 -408 71l15 119q74 -36 176.5 -57t202.5 -21q185 0 290 83.5t105 230.5q0 154 -109.5 240.5t-304.5 86.5q-159 0 -278 -49z" />
    <glyph glyph-name="six" unicode="6" horiz-adv-x="1239" 
d="M1012 420q0 147 -103 239q-103 95 -262 95q-161 0 -264 -95q-100 -90 -100 -239t100 -239.5t264 -90.5t264.5 90.5t100.5 239.5zM721 1378q184 0 323 -65l-12 -107q-145 62 -307 62q-465 0 -477 -639q52 107 159 171t244 64q216 0 348 -123q136 -121 136 -315
q0 -197 -136 -324q-131 -122 -348 -122q-250 0 -384 157.5t-134 450.5q0 210 43 364.5t123 246.5t184.5 135.5t237.5 43.5z" />
    <glyph glyph-name="seven" unicode="7" horiz-adv-x="937" 
d="M885 1260l-568 -1260h-129l562 1237h-682v121h817v-98z" />
    <glyph glyph-name="eight" unicode="8" horiz-adv-x="1269" 
d="M635 1380q128 0 233.5 -42.5t169.5 -127t64 -196.5q0 -105 -61 -182t-169 -121q263 -95 263 -355q0 -116 -69 -202.5t-181 -129t-250 -42.5q-140 0 -252.5 42.5t-181 129t-68.5 202.5q0 261 260 355q-107 44 -167 121t-60 182q0 112 64.5 196.5t170 127t234.5 42.5z
M635 657q-168 0 -273.5 -74.5t-105.5 -217.5q0 -87 51 -151t136 -95t192 -31q159 0 268 74t109 203q0 139 -104 215.5t-273 76.5zM635 1274q-155 0 -250.5 -70.5t-95.5 -193.5q0 -114 98 -181q101 -67 246 -67q147 0 248 67q100 66 100 181q0 122 -97.5 193t-248.5 71z" />
    <glyph glyph-name="nine" unicode="9" horiz-adv-x="1239" 
d="M229 938q0 -148 101 -242q103 -92 262 -92q161 0 264 92q100 93 100 242t-100 239.5t-264 90.5q-162 0 -262.5 -90.5t-100.5 -239.5zM518 -20q-180 0 -313 65l12 107q142 -62 299 -62q236 0 350.5 152t126.5 487q-55 -107 -162 -171t-243 -64q-216 0 -348 120
q-134 125 -134 318q0 196 134 321q131 125 348 125q244 0 381 -149.5t137 -427.5q0 -220 -39.5 -379t-117 -255.5t-184 -141.5t-247.5 -45z" />
    <glyph glyph-name="colon" unicode=":" horiz-adv-x="475" 
d="M291 14q-20 -20 -53 -20t-56 20q-20 20 -20 53.5t20 53.5q23 23 56 23t53 -23q23 -20 23 -53.5t-23 -53.5zM291 834q-20 -20 -53 -20t-56 20q-20 20 -20 54t20 54q23 20 56 20t53 -20q23 -20 23 -54t-23 -54z" />
    <glyph glyph-name="semicolon" unicode=";" horiz-adv-x="483" 
d="M70 -256l104 434h125l-125 -434h-104zM301 834q-20 -20 -52.5 -20t-55.5 20q-20 20 -20 54t20 54q23 20 55.5 20t52.5 -20q23 -20 23 -54t-23 -54z" />
    <glyph glyph-name="less" unicode="&#x3c;" horiz-adv-x="1181" 
d="M207 678l821 -350v-129l-919 397v160l919 411v-127z" />
    <glyph glyph-name="equal" unicode="=" 
d="M170 997h1010v-123h-1010v123zM170 483h1010v-123h-1010v123z" />
    <glyph glyph-name="greater" unicode="&#x3e;" horiz-adv-x="1181" 
d="M1071 596l-917 -397v129l821 350l-821 362v127l917 -411v-160z" />
    <glyph glyph-name="question" unicode="?" horiz-adv-x="886" 
d="M414 582l-11 -244h-108l-10 313q144 50 260 133q127 94 127 226q0 117 -75 184.5t-208 67.5q-154 0 -287 -80l-30 104q142 92 323 92q186 0 292 -100.5t106 -263.5q0 -138 -102 -251.5t-277 -180.5zM401 14q-20 -20 -54 -20t-54 20t-20 53.5t20 53.5q20 23 54 23t54 -23
q23 -20 23 -53.5t-23 -53.5z" />
    <glyph glyph-name="at" unicode="@" horiz-adv-x="1968" 
d="M1251 928h115v-539q0 -102 43.5 -151.5t120.5 -49.5q95 0 149 110t54 286q0 197 -95 359t-264.5 256.5t-378.5 94.5q-226 3 -404.5 -93.5t-277.5 -272t-96 -398.5q0 -213 102 -386.5t277 -271t387 -97.5q213 0 420 104q5 -14 24 -49t23 -45q-239 -127 -467 -127
q-177 0 -338 65t-281.5 178t-192 277.5t-71.5 353.5q0 155 46.5 293t130.5 243.5t196 183t248 117.5t283 40q171 0 327 -63.5t271 -172.5t183 -263t68 -326q0 -239 -93 -368.5t-263 -129.5q-164 0 -252 201q-38 -78 -127 -127t-194 -49q-173 0 -287 114q-113 113 -113 301
q0 186 115 301q114 117 285 117q185 0 317 -166zM1237 532q0 124 -84 211q-83 86 -213 86q-128 0 -211 -86q-80 -83 -80 -211q0 -130 80 -219q82 -88 211 -88t213 90t84 217z" />
    <glyph glyph-name="A" unicode="A" horiz-adv-x="1318" 
d="M584 1358h157l562 -1358h-123l-144 346h-747l-144 -346h-127zM991 455l-329 794l-328 -794h657z" />
    <glyph glyph-name="B" unicode="B" horiz-adv-x="1425" 
d="M1190 375q0 126 -78.5 199t-228.5 73h-541v-538h541q140 0 223.5 69t83.5 197zM811 1251h-469v-499h463q129 0 210 67t81 176q0 118 -73.5 187t-211.5 69zM854 0h-631v1358h584q188 0 300 -93.5t112 -267.5q0 -89 -44 -161t-128 -109q124 -33 194 -123t70 -227
q0 -172 -118.5 -274.5t-338.5 -102.5z" />
    <glyph glyph-name="C" unicode="C" horiz-adv-x="1374" 
d="M1270 182l22 -114q-18 -14 -73 -31q-160 -57 -340 -57q-164 -2 -307 49.5t-244 144t-158 224.5t-55 284q0 309 207 502.5t538 193.5q229 0 402 -84l-15 -112q-174 82 -389 82q-277 0 -448 -162q-170 -164 -170 -420q0 -262 176 -426q177 -162 463 -162q221 0 374 78z" />
    <glyph glyph-name="D" unicode="D" horiz-adv-x="1576" 
d="M223 0v1358h537q170 0 303 -50t218 -141t129 -215t44 -274q0 -327 -178 -502.5t-520 -175.5h-533zM770 1245h-428v-1132h428q267 0 416 147.5t149 417.5q0 264 -150.5 415.5t-414.5 151.5z" />
    <glyph glyph-name="E" unicode="E" horiz-adv-x="1320" 
d="M1206 109v-109h-983v1358h961v-109h-842v-495h737v-111h-737v-534h864z" />
    <glyph glyph-name="F" unicode="F" horiz-adv-x="1214" 
d="M999 752v-107h-657v-645h-119v1358h926v-109h-807v-497h657z" />
    <glyph glyph-name="G" unicode="G" horiz-adv-x="1540" 
d="M1337 1278l-10 -119q-193 105 -444 105q-288 0 -465 -162q-178 -163 -178 -420q0 -261 182 -428q182 -164 477 -164q244 0 379 78v457h-471v108h586v-635q-190 -118 -486 -118q-171 -2 -319.5 49.5t-253.5 144t-163.5 224.5t-55.5 284q0 153 56.5 282.5t157 220.5
t244.5 142t314 51q251 0 450 -100z" />
    <glyph glyph-name="H" unicode="H" horiz-adv-x="1581" 
d="M1360 0h-121v645h-897v-645h-119v1358h119v-602h897v602h121v-1358z" />
    <glyph glyph-name="I" unicode="I" horiz-adv-x="565" 
d="M342 0h-119v1358h119v-1358z" />
    <glyph glyph-name="J" unicode="J" horiz-adv-x="1071" 
d="M45 57l27 107q147 -72 309 -72q180 0 270 78t90 246v831h-555v111h676v-952q0 -202 -123.5 -314t-351.5 -112q-69 0 -176 22q-97 23 -166 55z" />
    <glyph glyph-name="K" unicode="K" horiz-adv-x="1306" 
d="M1087 1358h142l-420 -701l504 -657h-152l-456 600h-363v-600h-119v1358h119v-647h363z" />
    <glyph glyph-name="L" unicode="L" horiz-adv-x="1206" 
d="M1165 111v-111h-942v1358h119v-1247h823z" />
    <glyph glyph-name="M" unicode="M" horiz-adv-x="1873" 
d="M1534 1192l-578 -707h-32l-582 707v-1192h-119v1358h133l582 -709l580 709h133v-1358h-117v1192z" />
    <glyph glyph-name="N" unicode="N" horiz-adv-x="1683" 
d="M1339 1358h121v-1358h-135l-981 1194v-1194h-121v1358h135l981 -1190v1190z" />
    <glyph glyph-name="O" unicode="O" horiz-adv-x="1660" 
d="M115 672q-3 198 91.5 361.5t259 255.5t361.5 89q199 3 365.5 -89t262 -255.5t91.5 -361.5q0 -201 -93.5 -359.5t-257.5 -245.5t-368 -87q-197 -4 -361.5 85t-259 249.5t-91.5 357.5zM236 672q0 -166 77 -300t212 -209t302 -75q258 0 428 164q170 167 170 420
q0 258 -170 428q-168 168 -428 168q-168 0 -303 -76.5t-211.5 -212.5t-76.5 -307z" />
    <glyph glyph-name="P" unicode="P" horiz-adv-x="1361" 
d="M809 436h-467v-436h-119v1358h586q77 0 146 -17.5t129 -55t104 -91t69 -130.5t25 -169q0 -209 -137.5 -334t-335.5 -125zM809 1247h-467v-700h467q149 0 250 94q102 95 102 254q0 171 -100 261.5t-252 90.5z" />
    <glyph glyph-name="Q" unicode="Q" horiz-adv-x="1660" 
d="M115 672q0 150 54 281t148 224.5t226.5 147t283.5 53.5q201 3 367.5 -90t261 -256.5t90.5 -359.5q0 -267 -164 -455q-163 -186 -424 -227q93 -110 259 -178q165 -68 325 -68q77 0 146 16l8 -108q-87 -17 -166 -17q-208 0 -406 95q-195 95 -305 250q-197 -1 -359.5 90
t-254.5 250t-90 352zM236 672q0 -253 165 -418q169 -166 426 -166q171 0 308 76t213.5 209.5t76.5 298.5q0 256 -170 426t-428 170q-165 3 -302 -75t-214.5 -216.5t-74.5 -304.5z" />
    <glyph glyph-name="R" unicode="R" horiz-adv-x="1402" 
d="M834 436h-25h-467v-436h-119v1358h586q77 0 146 -17.5t129 -55t104 -91t69 -130.5t25 -169q0 -162 -86.5 -277t-232.5 -159l376 -459h-155zM809 1247h-467v-700h467q149 0 250 94q102 95 102 254q0 171 -100 261.5t-252 90.5z" />
    <glyph glyph-name="S" unicode="S" horiz-adv-x="1153" 
d="M696 596l-239 82q-172 59 -253 137t-81 199q0 170 126 267t349 97q205 0 385 -73l-16 -109q-189 74 -367 74q-165 0 -258.5 -67.5t-93.5 -186.5q0 -78 49 -127q21 -21 57 -41q17 -10 34.5 -18t30 -12.5t36.5 -13.5t41 -16q4 -2 8 -2l227 -77q177 -62 250.5 -145.5
t73.5 -215.5q0 -172 -129.5 -270t-360.5 -98q-216 0 -440 94l14 119q97 -49 210.5 -76t213.5 -27q176 0 275.5 70.5t99.5 193.5q0 85 -56 141.5t-186 100.5z" />
    <glyph glyph-name="T" unicode="T" horiz-adv-x="1118" 
d="M1079 1358v-111h-461v-1247h-118v1247h-461v111h1040z" />
    <glyph glyph-name="U" unicode="U" horiz-adv-x="1589" 
d="M207 496v862h121v-862q0 -183 125 -293q126 -111 342 -111q214 0 340 111q129 114 129 293v862h118v-862q0 -231 -159 -375q-159 -141 -428 -141q-273 0 -430 139q-158 143 -158 377z" />
    <glyph glyph-name="V" unicode="V" horiz-adv-x="1333" 
d="M745 0h-155l-565 1358h131l510 -1233l514 1233h129z" />
    <glyph glyph-name="W" unicode="W" horiz-adv-x="2031" 
d="M614 0h-145l-426 1358h127l377 -1208l405 1208h127l408 -1206l375 1206h127l-426 -1358h-146l-401 1206z" />
    <glyph glyph-name="X" unicode="X" horiz-adv-x="1218" 
d="M1040 1358h146l-500 -662l522 -696h-147l-451 602l-454 -602h-144l523 696l-498 662h147l428 -567z" />
    <glyph glyph-name="Y" unicode="Y" horiz-adv-x="1226" 
d="M553 539l-535 819h144l450 -694l453 694h141l-532 -817v-541h-121v539z" />
    <glyph glyph-name="Z" unicode="Z" horiz-adv-x="1261" 
d="M106 0v100l889 1147h-868v111h1006v-133l-871 -1114h893v-111h-1049z" />
    <glyph glyph-name="bracketleft" unicode="[" horiz-adv-x="636" 
d="M330 -287h254v-112h-369v1951h369v-112h-254v-1727z" />
    <glyph glyph-name="backslash" unicode="\" horiz-adv-x="1013" 
d="M836 -399l-787 1929h125l787 -1929h-125z" />
    <glyph glyph-name="bracketright" unicode="]" horiz-adv-x="636" 
d="M53 -399v112h252v1727h-252v112h369v-1951h-369z" />
    <glyph glyph-name="asciicircum" unicode="^" horiz-adv-x="1150" 
d="M938 510l-363 727l-362 -727h-129l418 848h147l418 -848h-129z" />
    <glyph glyph-name="underscore" unicode="_" horiz-adv-x="1222" 
d="M1094 -88v-107h-965v107h965z" />
    <glyph glyph-name="grave" unicode="`" horiz-adv-x="659" 
d="M362 1473l-172 333h138l141 -333h-107z" />
    <glyph glyph-name="a" unicode="a" horiz-adv-x="1294" 
d="M989 961h121v-961h-121v184q-58 -93 -163.5 -148.5t-233.5 -55.5q-211 0 -348 143q-140 146 -140 358q0 209 140 355q139 145 348 145q128 0 233.5 -55t163.5 -148v183zM598 870q-162 0 -268 -112q-107 -113 -107 -277q0 -165 107 -278t268 -113q170 0 283 113
q114 114 114 278q0 163 -114 277q-112 112 -283 112z" />
    <glyph glyph-name="b" unicode="b" horiz-adv-x="1294" 
d="M305 182v-182h-119v1407h119v-633q58 94 165 150.5t235 56.5q207 0 346 -145t139 -357q0 -211 -139 -356q-137 -143 -346 -143q-129 0 -235.5 55t-164.5 147zM696 90q159 0 267 111q108 114 108 278q0 165 -108 279q-106 112 -267 112q-172 0 -284 -112
q-113 -113 -113 -279q0 -165 113 -278q114 -111 284 -111z" />
    <glyph glyph-name="c" unicode="c" horiz-adv-x="1032" 
d="M104 481q0 222 148 361q151 139 387 139q86 0 163.5 -18.5t125.5 -44.5l-13 -111q-112 59 -276 59q-185 0 -297 -106q-113 -107 -113 -279q0 -171 115 -280q113 -107 299 -107q79 0 157.5 17.5t127.5 46.5l22 -111q-59 -30 -143.5 -48.5t-163.5 -18.5q-238 0 -389 139
q-150 138 -150 362z" />
    <glyph glyph-name="d" unicode="d" horiz-adv-x="1294" 
d="M1110 0h-121v182q-58 -92 -163.5 -147t-233.5 -55q-211 0 -348 143q-140 146 -140 356q0 211 140 357q139 145 348 145q128 0 233.5 -56.5t163.5 -150.5v633h121v-1407zM598 90q169 0 283 111q114 114 114 278q0 165 -114 279q-112 112 -283 112q-162 0 -268 -112
q-107 -113 -107 -279q0 -165 107 -278q108 -111 268 -111z" />
    <glyph glyph-name="e" unicode="e" horiz-adv-x="1169" 
d="M981 182l27 -106q-158 -96 -357 -96q-244 0 -395 139q-152 140 -152 360q0 216 140 359q137 143 354 143q121 1 218.5 -45.5t155.5 -123.5t81 -175t4 -201h-824q15 -160 134 -250q121 -92 270 -92q108 0 185.5 18t158.5 70zM236 539h708q-6 145 -98.5 236t-243.5 91
t-254 -92q-100 -90 -112 -235z" />
    <glyph glyph-name="f" unicode="f" horiz-adv-x="722" 
d="M672 961v-107h-314v-854h-118v854h-183v107h183v133q0 157 92 245t252 88q89 0 157 -26l-16 -92q-47 20 -135 20q-46 0 -85.5 -12.5t-73.5 -39.5t-53.5 -76.5t-19.5 -117.5v-122h314z" />
    <glyph glyph-name="g" unicode="g" horiz-adv-x="1294" 
d="M989 53v131q-58 -93 -163.5 -148.5t-233.5 -55.5q-211 0 -348 143q-140 146 -140 358q0 209 140 355q139 145 348 145q128 0 233.5 -55t163.5 -148v183h121v-887q0 -102 -33.5 -190.5t-99.5 -157t-172.5 -107.5t-243.5 -39q-87 0 -191 21t-175 57l18 113q165 -82 352 -82
q71 0 133.5 13.5t116 42.5t92 71.5t60.5 103t22 133.5zM598 870q-162 0 -268 -112q-107 -113 -107 -277q0 -165 107 -278t268 -113q170 0 283 113q114 114 114 278q0 163 -114 277q-112 112 -283 112z" />
    <glyph glyph-name="h" unicode="h" horiz-adv-x="1232" 
d="M653 981q189 0 298.5 -103.5t109.5 -291.5v-586h-119v551q0 317 -307 317q-141 0 -236 -92q-94 -91 -94 -231v-545h-119v1407h119v-614q54 91 146.5 139.5t201.5 48.5z" />
    <glyph glyph-name="i" unicode="i" horiz-adv-x="491" 
d="M305 0h-119v961h119v-961zM299 1229q-20 -23 -52.5 -23t-56.5 21q-20 23 -20 55.5t20 52.5q23 23 56 23t53 -23q23 -20 23 -53t-23 -53z" />
    <glyph glyph-name="j" unicode="j" horiz-adv-x="501" 
d="M309 1229q-20 -23 -52 -23t-56 21q-20 23 -20 55.5t20 52.5q23 23 55.5 23t52.5 -23q23 -20 23 -53t-23 -53zM197 -113v1074h118v-1084q0 -140 -71.5 -218.5t-198.5 -78.5q-88 0 -143 25l14 102q52 -18 123 -18q158 0 158 198z" />
    <glyph glyph-name="k" unicode="k" horiz-adv-x="1034" 
d="M305 0h-119v1407h119v-858h234l272 412h135l-315 -472l364 -489h-145l-326 442h-219v-442z" />
    <glyph glyph-name="l" unicode="l" horiz-adv-x="491" 
d="M305 0h-119v1407h119v-1407z" />
    <glyph glyph-name="m" unicode="m" horiz-adv-x="1939" 
d="M1364 981q183 0 293 -106t110 -283v-592h-118v555q0 147 -81.5 230t-224.5 83q-131 0 -221 -90q-88 -88 -88 -229v-549h-119v555q0 146 -78 229.5t-214 83.5q-135 0 -228 -90q-90 -90 -90 -229v-549h-119v961h119v-166q53 90 142 138t196 48q130 0 225 -59.5t136 -165.5
q50 110 145 167.5t215 57.5z" />
    <glyph glyph-name="n" unicode="n" horiz-adv-x="1232" 
d="M653 981q189 0 298.5 -103.5t109.5 -291.5v-586h-119v551q0 317 -307 317q-141 0 -236 -92q-94 -91 -94 -231v-545h-119v961h119v-168q54 91 146.5 139.5t201.5 48.5z" />
    <glyph glyph-name="o" unicode="o" horiz-adv-x="1224" 
d="M248 125q-146 146 -146 354q0 211 146 357q145 145 362 145q220 0 365 -145q147 -144 147 -357q0 -212 -147 -356q-143 -143 -365 -143q-217 0 -362 145zM334 758q-113 -113 -113 -279q0 -162 111 -276q113 -113 278 -113q169 0 279 113q112 112 112 276q0 167 -112 279
q-109 112 -279 112q-167 0 -276 -112z" />
    <glyph glyph-name="p" unicode="p" horiz-adv-x="1294" 
d="M186 -399v1360h119v-183q58 92 165 147.5t235 55.5q207 0 346 -145t139 -355q0 -213 -139 -358q-137 -143 -346 -143q-128 0 -235 55.5t-165 148.5v-583h-119zM696 870q-172 0 -284 -112q-113 -113 -113 -277q0 -165 113 -278t284 -113q160 0 267 113q108 114 108 278
q0 163 -108 277q-106 112 -267 112z" />
    <glyph glyph-name="q" unicode="q" horiz-adv-x="1294" 
d="M989 961h121v-1360h-121v583q-58 -93 -163.5 -148.5t-233.5 -55.5q-211 0 -348 143q-140 146 -140 358q0 209 140 355q139 145 348 145q128 0 233.5 -55t163.5 -148v183zM598 870q-162 0 -268 -112q-107 -113 -107 -277q0 -165 107 -278t268 -113q170 0 283 113
q114 114 114 278q0 163 -114 277q-112 112 -283 112z" />
    <glyph glyph-name="r" unicode="r" horiz-adv-x="749" 
d="M186 961h119v-154q38 85 108.5 129.5t159.5 44.5q83 0 142 -27l-13 -110q-68 24 -135 24q-118 0 -189 -86t-71 -239v-543h-121v961z" />
    <glyph glyph-name="s" unicode="s" horiz-adv-x="929" 
d="M465 543l88 -17q139 -26 212 -93t73 -167q0 -133 -100 -209.5t-273 -76.5q-200 0 -354 71l18 115q125 -76 328 -76q123 0 192.5 43t69.5 121q0 72 -57.5 110t-186.5 62l-106 20q-265 50 -265 246q0 135 101.5 212t279.5 77q174 0 293 -49l-18 -107q-127 47 -264 47
q-125 0 -196 -44.5t-71 -122.5q1 -73 56 -106.5t180 -55.5z" />
    <glyph glyph-name="t" unicode="t" horiz-adv-x="751" 
d="M682 961v-107h-328v-557q0 -103 46 -156t128 -53q105 0 172 31l17 -105q-74 -34 -195 -34q-135 0 -212 74.5t-77 213.5v586h-184v107h182v307h123v-307h328z" />
    <glyph glyph-name="u" unicode="u" horiz-adv-x="1206" 
d="M920 410v551h116v-572q0 -182 -116 -295q-114 -114 -316 -114t-317 112q-117 114 -117 291v578h119v-551q0 -153 83.5 -235.5t231.5 -82.5t232 82.5t84 235.5z" />
    <glyph glyph-name="v" unicode="v" horiz-adv-x="1050" 
d="M881 961h129l-408 -961h-156l-405 961h129l354 -850z" />
    <glyph glyph-name="w" unicode="w" horiz-adv-x="1613" 
d="M446 111l297 839h127l297 -841l267 852h127l-316 -961h-155l-283 774l-283 -774h-155l-316 961h127z" />
    <glyph glyph-name="x" unicode="x" horiz-adv-x="974" 
d="M784 958h144l-363 -462l375 -496h-147l-310 403l-307 -403h-141l373 496l-363 462h150l294 -376z" />
    <glyph glyph-name="y" unicode="y" horiz-adv-x="1024" 
d="M164 961l354 -852l344 852h133l-446 -1084q-67 -155 -146.5 -226t-191.5 -71t-168 33l14 104q62 -26 146 -26q134 0 235 235l13 33l-416 1002h129z" />
    <glyph glyph-name="z" unicode="z" horiz-adv-x="917" 
d="M827 0h-721v102l549 752h-544v107h690v-105l-549 -750h575v-106z" />
    <glyph glyph-name="braceleft" unicode="{" horiz-adv-x="606" 
d="M221 578q109 -47 109 -242v-399q0 -141 35.5 -194.5t128.5 -53.5q37 0 47 2v-103q-14 -2 -72 -2q-72 0 -122 23.5t-77 68.5t-38 100.5t-11 129.5v414q0 98 -31 143.5t-114 52.5q-21 3 -33 0v117q19 0 33 2q83 7 114 52t31 142v416q0 73 11 128t38 100.5t77 69.5t122 24
q44 0 72 -4v-103q-10 2 -47 2q-93 0 -128.5 -53.5t-35.5 -193.5v-400q0 -192 -109 -239z" />
    <glyph glyph-name="bar" unicode="|" horiz-adv-x="542" 
d="M215 1757h113v-2156h-113v2156z" />
    <glyph glyph-name="braceright" unicode="}" horiz-adv-x="606" 
d="M373 578q-109 47 -109 239v400q0 140 -35.5 193.5t-128.5 53.5q-37 0 -47 -2v103q28 4 72 4q73 0 123 -24t76.5 -69.5t37.5 -100.5t11 -128v-416q0 -97 31 -142t114 -52q14 -2 33 -2v-117q-12 3 -33 0q-83 -7 -114 -52.5t-31 -143.5v-414q0 -75 -11 -129.5t-37.5 -100
t-76.5 -69t-123 -23.5q-58 0 -72 2v103q10 -2 47 -2q93 0 128.5 53.5t35.5 194.5v399q0 195 109 242z" />
    <glyph glyph-name="asciitilde" unicode="~" horiz-adv-x="1218" 
d="M408 580q-92 0 -191 -99l-78 86q52 61 128.5 100.5t150.5 39.5q59 0 115.5 -17.5t93.5 -38t87 -38t97 -17.5q89 0 190 98l78 -86q-53 -60 -129.5 -99.5t-148.5 -39.5q-59 0 -115.5 17.5t-93.5 38t-87 38t-97 17.5z" />
    <glyph glyph-name="uni00A0" unicode="&#xa0;" horiz-adv-x="483" 
 />
    <glyph glyph-name="exclamdown" unicode="&#xa1;" horiz-adv-x="487" 
d="M180 -397l10 989h103l8 -989h-121zM295 834q-20 -20 -53 -20t-56 20q-20 20 -20 54t20 54q23 20 56 20t53 -20q23 -20 23 -54t-23 -54z" />
    <glyph glyph-name="cent" unicode="&#xa2;" horiz-adv-x="1044" 
d="M100 680q0 206 127 342q128 137 338 158l-8 221h121l-8 -219q156 -9 243 -64l-12 -110q-109 59 -270 59q-183 0 -295 -106q-113 -107 -113 -281t113 -281q114 -108 297 -108q76 0 153.5 17t126.5 46l23 -112q-111 -57 -264 -66l8 -223h-121l8 225q-211 21 -340 156
q-127 139 -127 346z" />
    <glyph glyph-name="sterling" unicode="&#xa3;" horiz-adv-x="1196" 
d="M344 647h-233v86h204q-49 113 -49 252q0 91 37.5 166t102 123.5t150.5 75t185 26.5q167 0 340 -78l-14 -106q-153 78 -315 78q-167 0 -266 -78.5t-99 -218.5q0 -129 51 -240h502v-86h-471q43 -87 43 -196q0 -100 -56.5 -193t-154.5 -156h795v-102h-955v104
q120 64 188 150.5t68 181.5q0 119 -53 211z" />
    <glyph glyph-name="currency" unicode="&#xa4;" horiz-adv-x="1236" 
d="M999 655q0 -61 -17.5 -113t-59.5 -116l188 -182l-80 -74l-182 182q-110 -73 -232 -73q-120 0 -229 75l-184 -184l-74 74l186 182q-77 115 -77 229q0 64 17 115t56 113l-182 178l78 76l176 -176q118 75 233 75q116 0 238 -78l176 177l74 -74l-180 -178q75 -100 75 -228z
M614 393q117 0 199 76q84 78 84 186q0 115 -82 191q-83 80 -201 80q-114 0 -194 -80q-80 -77 -80 -191q0 -109 80 -186q82 -76 194 -76z" />
    <glyph glyph-name="yen" unicode="&#xa5;" horiz-adv-x="1304" 
d="M551 602l-494 756h144l450 -694l453 694h141l-491 -756h317v-100h-358v-152h358v-98h-358v-252h-121v252h-342v98h342v152h-342v100h301z" />
    <glyph glyph-name="brokenbar" unicode="&#xa6;" horiz-adv-x="542" 
d="M215 1757h113v-848h-113v848zM215 449h113v-848h-113v848z" />
    <glyph glyph-name="section" unicode="&#xa7;" horiz-adv-x="1136" 
d="M1051 453q0 -168 -160 -297q70 -70 70 -181q0 -95 -58 -167.5t-151.5 -109t-206.5 -36.5q-99 0 -197 20.5t-168 51.5l17 104q162 -67 344 -67q144 0 219.5 55.5t75.5 146.5q0 69 -45 105q-2 2 -8 7.5t-8 7t-6.5 6t-7 6l-7.5 4.5t-9.5 5t-10.5 5t-13 6q-78 36 -92 41
l-283 115q-136 56 -200 130.5t-64 178.5q0 163 160 295q-70 73 -70 180q0 144 117.5 228.5t290.5 84.5q96 0 191 -20t161 -51l-17 -105q-157 68 -333 68q-141 0 -212 -55.5t-71 -147.5q0 -63 43 -106q7 -5 19.5 -15t22.5 -16.5t26 -14.5q64 -26 96 -38l280 -115
q137 -57 201 -131.5t64 -177.5zM737 662l-356 137q-21 7 -47 20q-127 -89 -127 -217q0 -78 41.5 -126.5t146.5 -96.5l359 -137l45 -21q127 89 127 217q0 79 -43 129t-146 95z" />
    <glyph glyph-name="dieresis" unicode="&#xa8;" horiz-adv-x="874" 
d="M315 1563q-20 -23 -52 -23t-56 21q-20 23 -20 55.5t20 52.5q23 23 55.5 23t52.5 -23q23 -20 23 -53t-23 -53zM666 1563q-20 -23 -52.5 -23t-56.5 21q-20 23 -20 55.5t20 52.5q23 23 56 23t53 -23q23 -20 23 -53t-23 -53z" />
    <glyph glyph-name="copyright" unicode="&#xa9;" horiz-adv-x="1679" 
d="M838 1378q192 0 359 -90.5t268.5 -252t101.5 -355.5q3 -144 -57.5 -276t-161.5 -225.5t-235.5 -148t-274.5 -50.5q-143 0 -276.5 54t-232.5 146.5t-158.5 223.5t-59.5 276t60 276t159.5 223t232.5 146t275 53zM231 680q-3 -120 47 -231t134 -190.5t196.5 -125.5
t229.5 -43q118 -3 230.5 43.5t196.5 126.5t134.5 190.5t48.5 229.5q0 161 -84 297.5t-224.5 214.5t-301.5 78q-116 3 -228 -44t-196 -126.5t-134.5 -190.5t-48.5 -229zM426 682q0 176 117 287q119 110 309 110q140 0 229 -51l-10 -108q-83 45 -219 45q-135 0 -218 -78
t-83 -205q0 -128 84 -207.5t219 -79.5q137 0 227 51l19 -110q-46 -24 -114 -38.5t-132 -14.5q-190 0 -309 110t-119 289z" />
    <glyph glyph-name="ordfeminine" unicode="&#xaa;" horiz-adv-x="878" 
d="M696 772h-104v94q-29 -49 -85 -76.5t-124 -27.5q-92 0 -152.5 48t-60.5 126q0 85 70.5 132.5t193.5 47.5q82 0 152 -18v43q0 137 -176 137q-50 0 -104.5 -13.5t-90.5 -33.5l-14 98q36 23 95.5 36t121.5 13q142 0 210 -59t68 -178v-369zM698 647v-100h-501v100h501z
M397 852q73 0 127 37.5t62 93.5v29q-82 16 -154 16q-73 0 -115.5 -24t-42.5 -66q0 -41 33.5 -63.5t89.5 -22.5z" />
    <glyph glyph-name="guillemotleft" unicode="&#xab;" horiz-adv-x="905" 
d="M233 479l265 -393h-129l-273 393l273 395h129zM535 479l264 -393h-131l-273 393l273 395h131z" />
    <glyph glyph-name="logicalnot" unicode="&#xac;" horiz-adv-x="1339" 
d="M1182 449h-117v409h-950v121h1067v-530z" />
    <glyph glyph-name="uni00AD" unicode="&#xad;" horiz-adv-x="890" 
d="M162 637h567v-119h-567v119z" />
    <glyph glyph-name="registered" unicode="&#xae;" horiz-adv-x="1269" 
d="M96 1047q-2 105 40 201.5t114.5 166t173 110t209.5 38.5q229 0 385 -150q158 -152 158 -366q3 -140 -70.5 -261t-200 -191t-272.5 -67q-227 0 -383 150q-154 151 -154 369zM633 633q180 0 305 119q127 121 127 295q0 173 -127 294t-305 121q-179 0 -303 -121
q-123 -120 -123 -294q0 -175 123 -295q122 -119 303 -119zM651 944h-135v-158h-106v529h239q88 0 145.5 -52.5t57.5 -132.5q0 -49 -25.5 -91.5t-68.5 -65.5l114 -187h-129zM662 1225h-146v-191h146q35 0 56 27t21 69q0 43 -21 69t-56 26z" />
    <glyph glyph-name="overscore" unicode="&#xaf;" horiz-adv-x="972" 
d="M782 1667v-104h-592v104h592z" />
    <glyph glyph-name="degree" unicode="&#xb0;" horiz-adv-x="917" 
d="M104 1026q0 147 103 250q102 102 252 102t252 -102t102 -250q0 -146 -102 -248q-100 -100 -252 -100t-252 100q-103 103 -103 248zM219 1026q0 -103 68.5 -172.5t171.5 -69.5q99 0 166 70q69 69 69 172q0 104 -68 175t-167 71q-102 0 -171 -71.5t-69 -174.5z" />
    <glyph glyph-name="plusminus" unicode="&#xb1;" horiz-adv-x="1327" 
d="M723 457h-119v395h-440v119h440v385h119v-385h442v-119h-442v-395zM147 184h1033v-121h-1033v121z" />
    <glyph glyph-name="twosuperior" unicode="&#xb2;" horiz-adv-x="729" 
d="M422 813l-201 -182h426v-96h-561v90l264 249q78 72 112 130t34 118q0 73 -47 115.5t-127 42.5q-98 0 -203 -57l-17 96q115 59 230 59q128 0 200 -68t72 -186q0 -76 -43 -150t-139 -161z" />
    <glyph glyph-name="threesuperior" unicode="&#xb3;" horiz-adv-x="755" 
d="M207 907v88l262 269h-350v94h504v-74l-261 -260h7q139 0 223 -70t84 -182q0 -88 -51 -149t-127 -87t-168 -26q-149 0 -256 61l16 105q130 -68 229 -68q114 0 179 42.5t65 115.5q0 81 -59 123.5t-154 42.5q-57 0 -143 -25z" />
    <glyph glyph-name="acute" unicode="&#xb4;" horiz-adv-x="659" 
d="M332 1806h137l-172 -333h-107z" />
    <glyph glyph-name="mu" unicode="&#xb5;" horiz-adv-x="1298" 
d="M616 -20q-204 0 -292 108v-487h-119v1360h119v-549q0 -318 313 -318q141 0 237 90q97 91 97 234v543h121v-961h-121v168q-53 -90 -148 -139t-207 -49z" />
    <glyph glyph-name="paragraph" unicode="&#xb6;" horiz-adv-x="1169" 
d="M74 963q0 174 119 284q120 111 299 111h538v-82h-305v-1675h-113v964h-120q-179 0 -299 111q-119 110 -119 287zM967 1139v-1538h-97v1538h97z" />
    <glyph glyph-name="middot" unicode="&#xb7;" horiz-adv-x="460" 
d="M285 381q-20 -20 -53 -20t-56 20q-20 20 -20 54t20 54q23 20 56 20t53 -20q23 -20 23 -54t-23 -54z" />
    <glyph glyph-name="cedilla" unicode="&#xb8;" horiz-adv-x="698" 
d="M258 -182h-47l76 209h88l-45 -129q93 -6 147.5 -49.5t54.5 -112.5q0 -80 -64.5 -126t-176.5 -46q-73 0 -129 16v101q58 -21 119 -21q139 0 139 76q0 82 -162 82z" />
    <glyph glyph-name="onesuperior" unicode="&#xb9;" horiz-adv-x="481" 
d="M332 530h-109v734h-178v94h287v-828z" />
    <glyph glyph-name="ordmasculine" unicode="&#xba;" horiz-adv-x="962" 
d="M256 850q-90 90 -90 217q0 131 90 221q93 90 225 90q134 0 224 -90q92 -89 92 -221q0 -128 -92 -217q-88 -88 -224 -88q-134 0 -225 88zM766 647v-100h-569v100h569zM332 1214q-60 -60 -60 -145t60 -145q63 -60 149 -60q88 0 148 60q61 60 61 145t-61 145q-60 60 -148 60
q-86 0 -149 -60z" />
    <glyph glyph-name="guillemotright" unicode="&#xbb;" horiz-adv-x="905" 
d="M809 479l-272 -393h-129l264 393l-264 395h129zM510 479l-272 -393h-132l265 393l-265 395h132z" />
    <glyph glyph-name="onequarter" unicode="&#xbc;" horiz-adv-x="1517" 
d="M1120 827h121l-266 -528h285v229h106v-229h121v-94h-121v-205h-106v205h-410v78zM401 0h-104v27l733 1331h103v-25zM354 530h-106v734h-178v94h284v-828z" />
    <glyph glyph-name="onehalf" unicode="&#xbd;" horiz-adv-x="1638" 
d="M401 0h-104v27l733 1331h103v-25zM1329 279l-199 -185h426v-94h-561v88l265 252q77 75 111 132t34 116q0 73 -47 115t-129 42q-94 0 -203 -59l-16 98q117 60 229 60q128 0 201 -68t73 -186q0 -76 -43.5 -150t-140.5 -161zM354 530h-106v734h-178v94h284v-828z" />
    <glyph glyph-name="threequarters" unicode="&#xbe;" horiz-adv-x="1722" 
d="M567 0h-104v27l733 1331h104v-25zM1286 827h121l-266 -528h284v229h109v-229h119v-94h-119v-205h-109v205h-409v78zM166 907v88l260 269h-348v94h502v-74l-261 -260h9q138 0 222.5 -70.5t84.5 -181.5q0 -88 -51 -149t-127.5 -87t-169.5 -26q-146 0 -256 61l16 105
q133 -68 229 -68q116 0 180 42.5t64 115.5q0 81 -59 123.5t-154 42.5q-55 0 -141 -25z" />
    <glyph glyph-name="questiondown" unicode="&#xbf;" horiz-adv-x="870" 
d="M465 379l8 244h111l10 -314q-141 -49 -260 -137q-60 -43 -93.5 -100.5t-33.5 -120.5q0 -117 75 -184.5t205 -67.5q154 0 287 80l33 -107q-143 -90 -326 -90t-289 101t-106 264q0 137 102 251t277 181zM582 834q-20 -20 -53 -20t-56 20q-20 20 -20 54t20 54q23 20 56 20
t53 -20q23 -20 23 -54t-23 -54z" />
    <glyph glyph-name="Agrave" unicode="&#xc0;" horiz-adv-x="1318" 
d="M584 1358h157l562 -1358h-123l-144 346h-747l-144 -346h-127zM991 455l-329 794l-328 -794h657zM600 1473l-174 333h139l142 -333h-107z" />
    <glyph glyph-name="Aacute" unicode="&#xc1;" horiz-adv-x="1318" 
d="M584 1358h157l562 -1358h-123l-144 346h-747l-144 -346h-127zM991 455l-329 794l-328 -794h657zM754 1806h139l-174 -333h-107z" />
    <glyph glyph-name="Acircumflex" unicode="&#xc2;" horiz-adv-x="1318" 
d="M584 1358h157l562 -1358h-123l-144 346h-747l-144 -346h-127zM991 455l-329 794l-328 -794h657zM627 1839h71l263 -369h-123l-174 256l-179 -256h-123z" />
    <glyph glyph-name="Atilde" unicode="&#xc3;" horiz-adv-x="1318" 
d="M584 1358h157l562 -1358h-123l-144 346h-747l-144 -346h-127zM991 455l-329 794l-328 -794h657zM543 1626q-36 0 -64 -18t-67 -60l-68 56q88 125 199 125q53 0 137 -41q79 -39 121 -39q36 0 63 17.5t68 59.5l67 -55q-88 -125 -194 -125q-60 0 -139 39q-84 41 -123 41z
" />
    <glyph glyph-name="Adieresis" unicode="&#xc4;" horiz-adv-x="1318" 
d="M584 1358h157l562 -1358h-123l-144 346h-747l-144 -346h-127zM991 455l-329 794l-328 -794h657zM541 1563q-23 -23 -55.5 -23t-53.5 21q-20 23 -20 55.5t20 52.5q20 23 53.5 23t53.5 -23q23 -20 23 -52.5t-21 -53.5zM891 1563q-23 -23 -55.5 -23t-53.5 21
q-20 23 -20 55.5t20 52.5q20 23 53.5 23t53.5 -23q23 -20 23 -52.5t-21 -53.5z" />
    <glyph glyph-name="Aring" unicode="&#xc5;" horiz-adv-x="1318" 
d="M584 1358h157l562 -1358h-123l-144 346h-747l-144 -346h-127zM991 455l-329 794l-328 -794h657zM444 1694q0 88 64 147.5t156 59.5t154.5 -59.5t62.5 -147.5t-62.5 -147.5t-154.5 -59.5t-156 59.5t-64 147.5zM545 1694q0 -52 33 -85.5t86 -33.5t85.5 33.5t32.5 85.5
t-32.5 86.5t-85.5 34.5t-86 -34.5t-33 -86.5z" />
    <glyph glyph-name="AE" unicode="&#xc6;" horiz-adv-x="1951" 
d="M1837 0h-963v346h-555l-213 -346h-139l836 1358h1014v-109h-822v-495h715v-111h-715v-534h842v-109zM874 455v794l-489 -794h489z" />
    <glyph glyph-name="Ccedilla" unicode="&#xc7;" horiz-adv-x="1374" 
d="M754 -182h-49l63 168q-297 34 -475 221t-178 475q0 309 207 502.5t538 193.5q229 0 402 -84l-15 -112q-174 82 -389 82q-277 0 -448 -162q-170 -164 -170 -420q0 -262 176 -426q177 -162 463 -162q221 0 374 78l17 10l22 -114q-18 -14 -73 -31q-160 -57 -340 -57
q-3 0 -14 1l-11 1l-29 -84q91 -6 146 -49.5t55 -112.5q0 -80 -64 -126t-176 -46q-73 0 -129 16v101q58 -21 119 -21q139 0 139 76q0 82 -161 82z" />
    <glyph glyph-name="Egrave" unicode="&#xc8;" horiz-adv-x="1320" 
d="M1206 109v-109h-983v1358h961v-109h-842v-495h737v-111h-737v-534h864zM686 1473l-174 333h139l142 -333h-107z" />
    <glyph glyph-name="Eacute" unicode="&#xc9;" horiz-adv-x="1320" 
d="M1206 109v-109h-983v1358h961v-109h-842v-495h737v-111h-737v-534h864zM819 1806h139l-174 -333h-106z" />
    <glyph glyph-name="Ecircumflex" unicode="&#xca;" horiz-adv-x="1320" 
d="M1206 109v-109h-983v1358h961v-109h-842v-495h737v-111h-737v-534h864zM694 1839h74l262 -369h-123l-174 256l-178 -256h-123z" />
    <glyph glyph-name="Edieresis" unicode="&#xcb;" horiz-adv-x="1320" 
d="M1206 109v-109h-983v1358h961v-109h-842v-495h737v-111h-737v-534h864zM598 1563q-23 -23 -55.5 -23t-53.5 21q-20 23 -20 55.5t20 52.5q20 23 53.5 23t53.5 -23q23 -20 23 -52.5t-21 -53.5zM946 1563q-20 -23 -52 -23t-56 21q-20 23 -20 55.5t20 52.5q23 23 55.5 23
t52.5 -23q23 -20 23 -53t-23 -53z" />
    <glyph glyph-name="Igrave" unicode="&#xcc;" horiz-adv-x="565" 
d="M342 0h-119v1358h119v-1358zM213 1473l-172 333h137l144 -333h-109z" />
    <glyph glyph-name="Iacute" unicode="&#xcd;" horiz-adv-x="565" 
d="M342 0h-119v1358h119v-1358zM379 1806h137l-174 -333h-106z" />
    <glyph glyph-name="Icircumflex" unicode="&#xce;" horiz-adv-x="565" 
d="M342 0h-119v1358h119v-1358zM254 1839h72l262 -369h-123l-174 256l-178 -256h-123z" />
    <glyph glyph-name="Idieresis" unicode="&#xcf;" horiz-adv-x="565" 
d="M342 0h-119v1358h119v-1358zM162 1563q-20 -23 -52.5 -23t-56.5 21q-20 23 -20 55.5t20 52.5q23 23 56 23t53 -23q23 -20 23 -53t-23 -53zM512 1563q-20 -23 -52.5 -23t-56.5 21q-20 23 -20 55.5t20 52.5q23 23 56 23t53 -23q23 -20 23 -53t-23 -53z" />
    <glyph glyph-name="Eth" unicode="&#xd0;" horiz-adv-x="1576" 
d="M223 750v608h539q170 0 303 -50t218 -141t129 -215t44 -274q0 -327 -178 -502.5t-520 -175.5h-535v645h-151v105h151zM770 1245h-428v-495h547v-105h-547v-532h428q269 0 417 147t148 418q0 264 -150.5 415.5t-414.5 151.5z" />
    <glyph glyph-name="Ntilde" unicode="&#xd1;" horiz-adv-x="1683" 
d="M1339 1358h121v-1358h-135l-981 1194v-1194h-121v1358h135l981 -1190v1190zM725 1626q-38 0 -64.5 -17.5t-66.5 -60.5l-68 56q88 125 199 125q55 0 135 -41q79 -39 123 -39q36 0 63 17.5t66 59.5l70 -55q-88 -125 -195 -125q-60 0 -139 39q-84 41 -123 41z" />
    <glyph glyph-name="Ograve" unicode="&#xd2;" horiz-adv-x="1660" 
d="M115 672q-3 198 91.5 361.5t259 255.5t361.5 89q199 3 365.5 -89t262 -255.5t91.5 -361.5q0 -201 -93.5 -359.5t-257.5 -245.5t-368 -87q-197 -4 -361.5 85t-259 249.5t-91.5 357.5zM236 672q0 -166 77 -300t212 -209t302 -75q258 0 428 164q170 167 170 420
q0 258 -170 428q-168 168 -428 168q-168 0 -303 -76.5t-211.5 -212.5t-76.5 -307zM772 1473l-172 333h137l144 -333h-109z" />
    <glyph glyph-name="Oacute" unicode="&#xd3;" horiz-adv-x="1660" 
d="M115 672q-3 198 91.5 361.5t259 255.5t361.5 89q199 3 365.5 -89t262 -255.5t91.5 -361.5q0 -201 -93.5 -359.5t-257.5 -245.5t-368 -87q-197 -4 -361.5 85t-259 249.5t-91.5 357.5zM236 672q0 -166 77 -300t212 -209t302 -75q258 0 428 164q170 167 170 420
q0 258 -170 428q-168 168 -428 168q-168 0 -303 -76.5t-211.5 -212.5t-76.5 -307zM938 1806h137l-174 -333h-106z" />
    <glyph glyph-name="Ocircumflex" unicode="&#xd4;" horiz-adv-x="1660" 
d="M115 672q-3 198 91.5 361.5t259 255.5t361.5 89q199 3 365.5 -89t262 -255.5t91.5 -361.5q0 -201 -93.5 -359.5t-257.5 -245.5t-368 -87q-197 -4 -361.5 85t-259 249.5t-91.5 357.5zM236 672q0 -166 77 -300t212 -209t302 -75q258 0 428 164q170 167 170 420
q0 258 -170 428q-168 168 -428 168q-168 0 -303 -76.5t-211.5 -212.5t-76.5 -307zM801 1839h71l263 -369h-123l-174 256l-179 -256h-122z" />
    <glyph glyph-name="Otilde" unicode="&#xd5;" horiz-adv-x="1660" 
d="M115 672q-3 198 91.5 361.5t259 255.5t361.5 89q199 3 365.5 -89t262 -255.5t91.5 -361.5q0 -201 -93.5 -359.5t-257.5 -245.5t-368 -87q-197 -4 -361.5 85t-259 249.5t-91.5 357.5zM236 672q0 -166 77 -300t212 -209t302 -75q258 0 428 164q170 167 170 420
q0 258 -170 428q-168 168 -428 168q-168 0 -303 -76.5t-211.5 -212.5t-76.5 -307zM709 1626q-36 0 -64 -18t-67 -60l-68 56q88 125 199 125q57 0 137 -41q79 -39 121 -39q36 0 64.5 18t66.5 59l67 -55q-88 -125 -194 -125q-61 0 -140 39q-84 41 -122 41z" />
    <glyph glyph-name="Odieresis" unicode="&#xd6;" horiz-adv-x="1660" 
d="M115 672q-3 198 91.5 361.5t259 255.5t361.5 89q199 3 365.5 -89t262 -255.5t91.5 -361.5q0 -201 -93.5 -359.5t-257.5 -245.5t-368 -87q-197 -4 -361.5 85t-259 249.5t-91.5 357.5zM236 672q0 -166 77 -300t212 -209t302 -75q258 0 428 164q170 167 170 420
q0 258 -170 428q-168 168 -428 168q-168 0 -303 -76.5t-211.5 -212.5t-76.5 -307zM715 1563q-23 -23 -55.5 -23t-53.5 21q-20 23 -20 55.5t20 52.5q20 23 53.5 23t53.5 -23q23 -20 23 -52.5t-21 -53.5zM1065 1563q-23 -23 -55.5 -23t-53.5 21q-20 23 -20 55.5t20 52.5
q20 23 53.5 23t53.5 -23q23 -20 23 -52.5t-21 -53.5z" />
    <glyph glyph-name="multiply" unicode="&#xd7;" horiz-adv-x="1228" 
d="M1022 1151l82 -82l-408 -407l408 -406l-82 -84l-408 408l-407 -408l-82 84l407 406l-407 407l82 82l407 -408z" />
    <glyph glyph-name="Oslash" unicode="&#xd8;" horiz-adv-x="1662" 
d="M117 672q0 201 91.5 361.5t254.5 252.5q164 92 364 92t367 -92l117 166l88 -68l-111 -157q123 -98 190.5 -241.5t67.5 -313.5q0 -151 -54.5 -280t-149.5 -219.5t-228.5 -141.5t-286.5 -51q-196 0 -352 81l-117 -167l-84 69l109 156q-128 94 -197 237.5t-69 315.5z
M236 672q0 -141 56 -259.5t157 -199.5l681 981q-139 74 -303 74q-254 0 -424 -170q-167 -167 -167 -426zM1427 672q0 140 -53.5 259t-150.5 199l-682 -974q133 -68 286 -68q260 0 430 164q170 167 170 420z" />
    <glyph glyph-name="Ugrave" unicode="&#xd9;" horiz-adv-x="1589" 
d="M207 496v862h121v-862q0 -183 125 -293q126 -111 342 -111q214 0 340 111q129 114 129 293v862h118v-862q0 -231 -159 -375q-159 -141 -428 -141q-273 0 -430 139q-158 143 -158 377zM752 1473l-172 333h137l141 -333h-106z" />
    <glyph glyph-name="Uacute" unicode="&#xda;" horiz-adv-x="1589" 
d="M207 496v862h121v-862q0 -183 125 -293q126 -111 342 -111q214 0 340 111q129 114 129 293v862h118v-862q0 -231 -159 -375q-159 -141 -428 -141q-273 0 -430 139q-158 143 -158 377zM866 1806h138l-173 -333h-106z" />
    <glyph glyph-name="Ucircumflex" unicode="&#xdb;" horiz-adv-x="1589" 
d="M207 496v862h121v-862q0 -183 125 -293q126 -111 342 -111q214 0 340 111q129 114 129 293v862h118v-862q0 -231 -159 -375q-159 -141 -428 -141q-273 0 -430 139q-158 143 -158 377zM762 1839h72l262 -369h-123l-174 256l-178 -256h-123z" />
    <glyph glyph-name="Udieresis" unicode="&#xdc;" horiz-adv-x="1589" 
d="M207 496v862h121v-862q0 -183 125 -293q126 -111 342 -111q214 0 340 111q129 114 129 293v862h118v-862q0 -231 -159 -375q-159 -141 -428 -141q-273 0 -430 139q-158 143 -158 377zM1024 1563q-23 -23 -55.5 -23t-53.5 21q-20 23 -20 55.5t20 52.5q20 23 53.5 23
t53.5 -23q23 -20 23 -52.5t-21 -53.5zM674 1563q-23 -23 -55.5 -23t-53.5 21q-20 23 -20 55.5t20 52.5q20 23 53.5 23t53.5 -23q23 -20 23 -52.5t-21 -53.5z" />
    <glyph glyph-name="Yacute" unicode="&#xdd;" horiz-adv-x="1226" 
d="M553 539l-535 819h144l450 -694l453 694h141l-532 -817v-541h-121v539zM709 1806h139l-174 -333h-107z" />
    <glyph glyph-name="Thorn" unicode="&#xde;" horiz-adv-x="1357" 
d="M223 0v1358h121v-217h430q93 0 176.5 -28t151 -82.5t107.5 -144.5t40 -204q0 -138 -65 -243t-172 -158.5t-238 -53.5h-430v-227h-121zM750 1028h-406v-690h406q178 0 279 91t101 251q0 171 -98 259.5t-282 88.5z" />
    <glyph glyph-name="germandbls" unicode="&#xdf;" horiz-adv-x="1294" 
d="M723 653h-86v119q67 -3 143 38.5t128 110.5t50 138q0 122 -87 191t-244 69q-67 0 -123.5 -21.5t-102 -66t-71 -121t-25.5 -178.5v-932h-119v938q0 226 110.5 357.5t342.5 131.5q209 0 325.5 -97t116.5 -269q0 -110 -66.5 -199.5t-174.5 -118.5q167 -23 260.5 -125
t93.5 -258q-2 -173 -126.5 -276.5t-334.5 -103.5q-95 0 -196 26l-29 10l12 115q93 -43 207 -43q93 0 168 29t123.5 93.5t48.5 154.5q0 136 -91 212t-253 76z" />
    <glyph glyph-name="agrave" unicode="&#xe0;" horiz-adv-x="1294" 
d="M989 961h121v-961h-121v184q-58 -93 -163.5 -148.5t-233.5 -55.5q-211 0 -348 143q-140 146 -140 358q0 209 140 355q139 145 348 145q128 0 233.5 -55t163.5 -148v183zM598 870q-162 0 -268 -112q-107 -113 -107 -277q0 -165 107 -278t268 -113q170 0 283 113
q114 114 114 278q0 163 -114 277q-112 112 -283 112zM537 1114l-175 336h140l141 -336h-106z" />
    <glyph glyph-name="aacute" unicode="&#xe1;" horiz-adv-x="1294" 
d="M989 961h121v-961h-121v184q-58 -93 -163.5 -148.5t-233.5 -55.5q-211 0 -348 143q-140 146 -140 358q0 209 140 355q139 145 348 145q128 0 233.5 -55t163.5 -148v183zM598 870q-162 0 -268 -112q-107 -113 -107 -277q0 -165 107 -278t268 -113q170 0 283 113
q114 114 114 278q0 163 -114 277q-112 112 -283 112zM721 1450h137l-174 -336h-106z" />
    <glyph glyph-name="acircumflex" unicode="&#xe2;" horiz-adv-x="1294" 
d="M989 961h121v-961h-121v184q-58 -93 -163.5 -148.5t-233.5 -55.5q-211 0 -348 143q-140 146 -140 358q0 209 140 355q139 145 348 145q128 0 233.5 -55t163.5 -148v183zM598 870q-162 0 -268 -112q-107 -113 -107 -277q0 -165 107 -278t268 -113q170 0 283 113
q114 114 114 278q0 163 -114 277q-112 112 -283 112zM555 1454h72l264 -369h-123l-174 256l-178 -256h-123z" />
    <glyph glyph-name="atilde" unicode="&#xe3;" horiz-adv-x="1294" 
d="M989 961h121v-961h-121v184q-58 -93 -163.5 -148.5t-233.5 -55.5q-211 0 -348 143q-140 146 -140 358q0 209 140 355q139 145 348 145q128 0 233.5 -55t163.5 -148v183zM598 870q-162 0 -268 -112q-107 -113 -107 -277q0 -165 107 -278t268 -113q170 0 283 113
q114 114 114 278q0 163 -114 277q-112 112 -283 112zM481 1272q-36 0 -63.5 -18t-65.5 -62l-67 55q88 125 198 125q55 0 135 -41q79 -39 123 -39q36 0 63 18t66 60l68 -55q-88 -125 -193 -125q-57 0 -141 41t-123 41z" />
    <glyph glyph-name="adieresis" unicode="&#xe4;" horiz-adv-x="1294" 
d="M989 961h121v-961h-121v184q-58 -93 -163.5 -148.5t-233.5 -55.5q-211 0 -348 143q-140 146 -140 358q0 209 140 355q139 145 348 145q128 0 233.5 -55t163.5 -148v183zM598 870q-162 0 -268 -112q-107 -113 -107 -277q0 -165 107 -278t268 -113q170 0 283 113
q114 114 114 278q0 163 -114 277q-112 112 -283 112zM467 1229q-20 -23 -52.5 -23t-56.5 21q-20 23 -20 55.5t20 52.5q23 23 56 23t53 -23q23 -20 23 -53t-23 -53zM817 1229q-20 -23 -53.5 -23t-54.5 21q-20 23 -20 55.5t20 52.5q20 23 54 23t54 -23q23 -20 23 -53t-23 -53z
" />
    <glyph glyph-name="aring" unicode="&#xe5;" horiz-adv-x="1294" 
d="M989 961h121v-961h-121v184q-58 -93 -163.5 -148.5t-233.5 -55.5q-211 0 -348 143q-140 146 -140 358q0 209 140 355q139 145 348 145q128 0 233.5 -55t163.5 -148v183zM598 870q-162 0 -268 -112q-107 -113 -107 -277q0 -165 107 -278t268 -113q170 0 283 113
q114 114 114 278q0 163 -114 277q-112 112 -283 112zM373 1292q0 87 63 147t154 60q92 0 155.5 -59.5t63.5 -147.5t-63.5 -147.5t-155.5 -59.5q-91 0 -154 60t-63 147zM471 1292q0 -51 34 -84.5t85 -33.5q54 0 87.5 33.5t33.5 84.5q0 52 -34 86.5t-87 34.5q-51 0 -85 -35
t-34 -86z" />
    <glyph glyph-name="ae" unicode="&#xe6;" horiz-adv-x="1806" 
d="M1622 182l25 -106q-143 -96 -318 -96q-152 0 -269 67t-179 189q-49 -116 -168.5 -186t-263.5 -70q-155 0 -249 74t-94 202q0 136 117.5 215.5t313.5 79.5q143 0 292 -35v78q0 130 -84 201t-243 71q-78 0 -167 -20.5t-155 -52.5l-12 110q68 35 163 56.5t177 21.5
q145 0 247 -51t152 -146q62 93 158 144t213 51q109 1 197.5 -44.5t141.5 -120t75 -171t4 -197.5h-744q8 -106 64.5 -189.5t136.5 -124.5t164 -38q95 0 162.5 18t142.5 70zM453 80q136 0 245 80q111 85 131 192v74q-149 31 -299 31q-141 0 -223 -51t-82 -144q0 -84 62 -133
t166 -49zM954 549h629q-5 141 -87.5 230t-215.5 89t-225 -92t-101 -227z" />
    <glyph glyph-name="ccedilla" unicode="&#xe7;" horiz-adv-x="1032" 
d="M528 -182h-49l64 170q-197 27 -320 162q-119 131 -119 331q0 222 148 361q151 139 387 139q86 0 163.5 -18.5t125.5 -44.5l-13 -111q-112 59 -276 59q-185 0 -297 -106q-113 -107 -113 -279q0 -171 115 -280q113 -107 299 -107q79 0 157.5 17.5t127.5 46.5l22 -111
q-59 -30 -143.5 -48.5t-163.5 -18.5q-1 0 -7 1t-7 1l-29 -84q92 -6 147.5 -50t55.5 -112q0 -80 -65 -126t-177 -46q-73 0 -129 16v101q58 -21 119 -21q139 0 139 76q0 82 -162 82z" />
    <glyph glyph-name="egrave" unicode="&#xe8;" horiz-adv-x="1169" 
d="M981 182l27 -106q-158 -96 -357 -96q-244 0 -395 139q-152 140 -152 360q0 216 140 359q137 143 354 143q121 1 218.5 -45.5t155.5 -123.5t81 -175t4 -201h-824q15 -160 134 -250q121 -92 270 -92q108 0 185.5 18t158.5 70zM236 539h708q-6 145 -98.5 236t-243.5 91
t-254 -92q-100 -90 -112 -235zM551 1114l-174 336h137l143 -336h-106z" />
    <glyph glyph-name="eacute" unicode="&#xe9;" horiz-adv-x="1169" 
d="M981 182l27 -106q-158 -96 -357 -96q-244 0 -395 139q-152 140 -152 360q0 216 140 359q137 143 354 143q121 1 218.5 -45.5t155.5 -123.5t81 -175t4 -201h-824q15 -160 134 -250q121 -92 270 -92q108 0 185.5 18t158.5 70zM236 539h708q-6 145 -98.5 236t-243.5 91
t-254 -92q-100 -90 -112 -235zM684 1450h137l-172 -336h-106z" />
    <glyph glyph-name="ecircumflex" unicode="&#xea;" horiz-adv-x="1169" 
d="M981 182l27 -106q-158 -96 -357 -96q-244 0 -395 139q-152 140 -152 360q0 216 140 359q137 143 354 143q121 1 218.5 -45.5t155.5 -123.5t81 -175t4 -201h-824q15 -160 134 -250q121 -92 270 -92q108 0 185.5 18t158.5 70zM236 539h708q-6 145 -98.5 236t-243.5 91
t-254 -92q-100 -90 -112 -235zM559 1454h72l264 -369h-125l-172 256l-178 -256h-123z" />
    <glyph glyph-name="edieresis" unicode="&#xeb;" horiz-adv-x="1169" 
d="M981 182l27 -106q-158 -96 -357 -96q-244 0 -395 139q-152 140 -152 360q0 216 140 359q137 143 354 143q121 1 218.5 -45.5t155.5 -123.5t81 -175t4 -201h-824q15 -160 134 -250q121 -92 270 -92q108 0 185.5 18t158.5 70zM236 539h708q-6 145 -98.5 236t-243.5 91
t-254 -92q-100 -90 -112 -235zM483 1227q-20 -23 -53.5 -23t-54.5 21q-20 23 -20 55.5t20 52.5q20 23 54 23t54 -23q23 -20 23 -53t-23 -53zM834 1227q-23 -23 -55.5 -23t-53.5 21q-20 23 -20 55.5t20 52.5q20 23 53 23t53 -23q23 -20 23.5 -53t-20.5 -53z" />
    <glyph glyph-name="igrave" unicode="&#xec;" horiz-adv-x="491" 
d="M305 0h-119v961h119v-961zM186 1114l-174 336h140l141 -336h-107z" />
    <glyph glyph-name="iacute" unicode="&#xed;" horiz-adv-x="491" 
d="M305 0h-119v961h119v-961zM334 1450h137l-172 -336h-106z" />
    <glyph glyph-name="icircumflex" unicode="&#xee;" horiz-adv-x="491" 
d="M305 0h-119v961h119v-961zM209 1456h72l264 -369h-123l-174 256l-178 -256h-123z" />
    <glyph glyph-name="idieresis" unicode="&#xef;" horiz-adv-x="491" 
d="M305 0h-119v961h119v-961zM125 1229q-20 -23 -52.5 -23t-56.5 21q-20 23 -20 55.5t20 52.5q23 23 56 23t53 -23q23 -20 23 -53t-23 -53zM475 1229q-20 -23 -53.5 -23t-54.5 21q-20 23 -20 55.5t20 52.5q20 23 54 23t54 -23q23 -20 23 -53t-23 -53z" />
    <glyph glyph-name="eth" unicode="&#xf0;" horiz-adv-x="1187" 
d="M852 1499l57 -88l-170 -127q156 -136 241 -328.5t85 -418.5q0 -259 -133 -410q-132 -147 -346 -147t-346 129q-134 134 -134 340q0 202 130 329t333 127q122 0 214 -48t149 -130q-66 310 -283 492l-262 -195l-61 86l235 174q-90 60 -213 102l60 95q126 -47 245 -127z
M227 449q0 -156 97 -261q98 -98 254 -98q158 0 256 98q98 101 98 261q0 157 -98 251q-102 97 -256 97q-156 0 -253.5 -96.5t-97.5 -251.5z" />
    <glyph glyph-name="ntilde" unicode="&#xf1;" horiz-adv-x="1232" 
d="M653 981q189 0 298.5 -103.5t109.5 -291.5v-586h-119v551q0 317 -307 317q-141 0 -236 -92q-94 -91 -94 -231v-545h-119v961h119v-168q54 91 146.5 139.5t201.5 48.5zM510 1272q-38 0 -64.5 -17.5t-66.5 -60.5l-68 55q88 125 199 125q55 0 135 -41q84 -41 123 -41
q36 0 63.5 18t65.5 62l70 -55q-88 -125 -195 -125q-60 0 -139 39q-84 41 -123 41z" />
    <glyph glyph-name="ograve" unicode="&#xf2;" horiz-adv-x="1224" 
d="M248 125q-146 146 -146 354q0 211 146 357q145 145 362 145q220 0 365 -145q147 -144 147 -357q0 -212 -147 -356q-143 -143 -365 -143q-217 0 -362 145zM334 758q-113 -113 -113 -279q0 -162 111 -276q113 -113 278 -113q169 0 279 113q112 112 112 276q0 167 -112 279
q-109 112 -279 112q-167 0 -276 -112zM559 1114l-172 336h137l144 -336h-109z" />
    <glyph glyph-name="oacute" unicode="&#xf3;" horiz-adv-x="1224" 
d="M248 125q-146 146 -146 354q0 211 146 357q145 145 362 145q220 0 365 -145q147 -144 147 -357q0 -212 -147 -356q-143 -143 -365 -143q-217 0 -362 145zM334 758q-113 -113 -113 -279q0 -162 111 -276q113 -113 278 -113q169 0 279 113q112 112 112 276q0 167 -112 279
q-109 112 -279 112q-167 0 -276 -112zM715 1450h137l-172 -336h-109z" />
    <glyph glyph-name="ocircumflex" unicode="&#xf4;" horiz-adv-x="1224" 
d="M248 125q-146 146 -146 354q0 211 146 357q145 145 362 145q220 0 365 -145q147 -144 147 -357q0 -212 -147 -356q-143 -143 -365 -143q-217 0 -362 145zM334 758q-113 -113 -113 -279q0 -162 111 -276q113 -113 278 -113q169 0 279 113q112 112 112 276q0 167 -112 279
q-109 112 -279 112q-167 0 -276 -112zM573 1454h72l264 -369h-123l-174 256l-178 -256h-123z" />
    <glyph glyph-name="otilde" unicode="&#xf5;" horiz-adv-x="1224" 
d="M248 125q-146 146 -146 354q0 211 146 357q145 145 362 145q220 0 365 -145q147 -144 147 -357q0 -212 -147 -356q-143 -143 -365 -143q-217 0 -362 145zM334 758q-113 -113 -113 -279q0 -162 111 -276q113 -113 278 -113q169 0 279 113q112 112 112 276q0 167 -112 279
q-109 112 -279 112q-167 0 -276 -112zM483 1272q-37 0 -65.5 -18.5t-65.5 -61.5l-67 55q88 125 198 125q58 0 138 -41q79 -39 120 -39q36 0 64 18t67 60l68 -55q-88 -125 -195 -125q-55 0 -139 41t-123 41z" />
    <glyph glyph-name="odieresis" unicode="&#xf6;" horiz-adv-x="1224" 
d="M248 125q-146 146 -146 354q0 211 146 357q145 145 362 145q220 0 365 -145q147 -144 147 -357q0 -212 -147 -356q-143 -143 -365 -143q-217 0 -362 145zM334 758q-113 -113 -113 -279q0 -162 111 -276q113 -113 278 -113q169 0 279 113q112 112 112 276q0 167 -112 279
q-109 112 -279 112q-167 0 -276 -112zM492 1227q-23 -20 -56 -20t-53 20t-20 54t20 54t53 20t53 -20q23 -20 23.5 -54t-20.5 -54zM842 1227q-23 -20 -56 -20t-53 20t-20 54t20 54t53.5 20t53.5 -20q23 -20 23 -53.5t-21 -54.5z" />
    <glyph glyph-name="divide" unicode="&#xf7;" horiz-adv-x="1224" 
d="M125 739h975v-118h-975v118zM670 1014q-23 -23 -55.5 -23t-53.5 21q-20 23 -20 55.5t20 52.5q20 23 53.5 23t53.5 -23q23 -20 23 -52.5t-21 -53.5zM670 240q-23 -23 -55.5 -23t-53.5 21q-20 23 -20 55.5t20 52.5q20 23 53.5 23t53.5 -23q23 -20 23 -52.5t-21 -53.5z" />
    <glyph glyph-name="oslash" unicode="&#xf8;" horiz-adv-x="1136" 
d="M59 479q0 211 146 357q145 145 364 145q154 0 281 -80l145 180l78 -63l-143 -178q70 -70 109.5 -163.5t39.5 -197.5q0 -212 -147 -356q-143 -143 -363 -143q-155 0 -276 75l-139 -172l-76 62l137 170q-74 68 -115 163.5t-41 200.5zM178 479q0 -160 111 -274l489 606
q-92 59 -209 59q-168 0 -280 -112q-111 -114 -111 -279zM958 479q0 158 -102 269l-491 -605q95 -53 204 -53q167 0 277 113q112 112 112 276z" />
    <glyph glyph-name="ugrave" unicode="&#xf9;" horiz-adv-x="1206" 
d="M920 410v551h116v-572q0 -182 -116 -295q-114 -114 -316 -114t-317 112q-117 114 -117 291v578h119v-551q0 -153 83.5 -235.5t231.5 -82.5t232 82.5t84 235.5zM541 1114l-174 336h139l141 -336h-106z" />
    <glyph glyph-name="uacute" unicode="&#xfa;" horiz-adv-x="1206" 
d="M920 410v551h116v-572q0 -182 -116 -295q-114 -114 -316 -114t-317 112q-117 114 -117 291v578h119v-551q0 -153 83.5 -235.5t231.5 -82.5t232 82.5t84 235.5zM674 1450h137l-172 -336h-107z" />
    <glyph glyph-name="ucircumflex" unicode="&#xfb;" horiz-adv-x="1206" 
d="M920 410v551h116v-572q0 -182 -116 -295q-114 -114 -316 -114t-317 112q-117 114 -117 291v578h119v-551q0 -153 83.5 -235.5t231.5 -82.5t232 82.5t84 235.5zM569 1454h72l262 -367h-123l-174 256l-178 -256h-123z" />
    <glyph glyph-name="udieresis" unicode="&#xfc;" horiz-adv-x="1206" 
d="M920 410v551h116v-572q0 -182 -116 -295q-114 -114 -316 -114t-317 112q-117 114 -117 291v578h119v-551q0 -153 83.5 -235.5t231.5 -82.5t232 82.5t84 235.5zM481 1227q-20 -20 -54 -20t-54 20t-20 54t20 54t54 20t54 -20q23 -20 23 -54t-23 -54zM831 1227
q-20 -20 -54 -20t-54 20t-20 54t20 54t54 20t54 -20q23 -20 23 -54t-23 -54z" />
    <glyph glyph-name="yacute" unicode="&#xfd;" horiz-adv-x="1024" 
d="M164 961l354 -852l344 852h133l-446 -1084q-67 -155 -146.5 -226t-191.5 -71t-168 33l14 104q62 -26 146 -26q134 0 235 235l13 33l-416 1002h129zM596 1450h137l-174 -336h-106z" />
    <glyph glyph-name="thorn" unicode="&#xfe;" horiz-adv-x="1294" 
d="M186 -399v1806h119v-629q58 92 165 147.5t235 55.5q207 0 346 -145t139 -355q0 -213 -139 -358q-137 -143 -346 -143q-128 0 -235 55.5t-165 148.5v-583h-119zM696 870q-172 0 -284 -112q-113 -113 -113 -277q0 -165 113 -278t284 -113q160 0 267 113q108 114 108 278
q0 163 -108 277q-106 112 -267 112z" />
    <glyph glyph-name="ydieresis" unicode="&#xff;" horiz-adv-x="1024" 
d="M164 961l354 -852l344 852h133l-446 -1084q-67 -155 -146.5 -226t-191.5 -71t-168 33l14 104q62 -26 146 -26q134 0 235 235l13 33l-416 1002h129zM391 1227q-20 -20 -52.5 -20t-55.5 20q-20 20 -20 54t20 54q23 20 55.5 20t52.5 -20q23 -20 23 -54t-23 -54zM741 1227
q-20 -20 -52.5 -20t-55.5 20q-20 20 -20 54t20 54q23 20 55.5 20t52.5 -20q23 -20 23 -54t-23 -54z" />
    <glyph glyph-name="Amacron" unicode="&#x100;" horiz-adv-x="1318" 
d="M584 1358h157l562 -1358h-123l-144 346h-747l-144 -346h-127zM991 455l-329 794l-328 -794h657zM958 1667v-104h-591v104h591z" />
    <glyph glyph-name="amacron" unicode="&#x101;" horiz-adv-x="1294" 
d="M989 961h121v-961h-121v184q-58 -93 -163.5 -148.5t-233.5 -55.5q-211 0 -348 143q-140 146 -140 358q0 209 140 355q139 145 348 145q128 0 233.5 -55t163.5 -148v183zM598 870q-162 0 -268 -112q-107 -113 -107 -277q0 -165 107 -278t268 -113q170 0 283 113
q114 114 114 278q0 163 -114 277q-112 112 -283 112zM907 1325v-106h-592v106h592z" />
    <glyph glyph-name="Abreve" unicode="&#x102;" horiz-adv-x="1318" 
d="M584 1358h157l562 -1358h-123l-144 346h-747l-144 -346h-127zM991 455l-329 794l-328 -794h657zM395 1749h111q6 -69 49.5 -112.5t106.5 -43.5t107 43.5t48 112.5h113q-6 -115 -80.5 -185.5t-187.5 -70.5q-111 0 -186 70.5t-81 185.5z" />
    <glyph glyph-name="abreve" unicode="&#x103;" horiz-adv-x="1294" 
d="M989 961h121v-961h-121v184q-58 -93 -163.5 -148.5t-233.5 -55.5q-211 0 -348 143q-140 146 -140 358q0 209 140 355q139 145 348 145q128 0 233.5 -55t163.5 -148v183zM598 870q-162 0 -268 -112q-107 -113 -107 -277q0 -165 107 -278t268 -113q170 0 283 113
q114 114 114 278q0 163 -114 277q-112 112 -283 112zM334 1401h110q6 -71 49 -114.5t107 -43.5q66 0 109 43t49 115h110q-6 -117 -79 -187.5t-189 -70.5q-111 0 -185 71t-81 187z" />
    <glyph glyph-name="Aogonek" unicode="&#x104;" horiz-adv-x="1353" 
d="M584 1358h157l562 -1358q-94 -57 -150.5 -120.5t-56.5 -112.5q0 -45 29.5 -72t85.5 -27t124 33l31 -92q-68 -45 -172 -45q-98 0 -154.5 49t-56.5 135q0 146 197 254l-144 344h-747l-144 -346h-127zM991 455l-329 794l-328 -794h657z" />
    <glyph glyph-name="aogonek" unicode="&#x105;" horiz-adv-x="1306" 
d="M989 961h121v-961q-94 -57 -150.5 -120.5t-56.5 -112.5q0 -70 67 -92t173 26l31 -92q-68 -45 -173 -45q-99 0 -154.5 48.5t-55.5 135.5q0 74 52 140t146 116v180q-58 -93 -163.5 -148.5t-233.5 -55.5q-211 0 -348 143q-140 146 -140 358q0 209 140 355q139 145 348 145
q128 0 233.5 -55t163.5 -148v183zM598 870q-162 0 -268 -112q-107 -113 -107 -277q0 -165 107 -278t268 -113q170 0 283 113q114 114 114 278q0 163 -114 277q-112 112 -283 112z" />
    <glyph glyph-name="Cacute" unicode="&#x106;" horiz-adv-x="1374" 
d="M1270 182l22 -114q-18 -14 -73 -31q-160 -57 -340 -57q-164 -2 -307 49.5t-244 144t-158 224.5t-55 284q0 309 207 502.5t538 193.5q229 0 402 -84l-15 -112q-174 82 -389 82q-277 0 -448 -162q-170 -164 -170 -420q0 -262 176 -426q177 -162 463 -162q221 0 374 78z
M920 1806h139l-174 -333h-107z" />
    <glyph glyph-name="cacute" unicode="&#x107;" horiz-adv-x="1032" 
d="M104 481q0 222 148 361q151 139 387 139q86 0 163.5 -18.5t125.5 -44.5l-13 -111q-112 59 -276 59q-185 0 -297 -106q-113 -107 -113 -279q0 -171 115 -280q113 -107 299 -107q79 0 157.5 17.5t127.5 46.5l22 -111q-59 -30 -143.5 -48.5t-163.5 -18.5q-238 0 -389 139
q-150 138 -150 362zM725 1450h139l-174 -336h-106z" />
    <glyph glyph-name="Ccircumflex" unicode="&#x108;" horiz-adv-x="1374" 
d="M1270 182l22 -114q-18 -14 -73 -31q-160 -57 -340 -57q-164 -2 -307 49.5t-244 144t-158 224.5t-55 284q0 309 207 502.5t538 193.5q229 0 402 -84l-15 -112q-174 82 -389 82q-277 0 -448 -162q-170 -164 -170 -420q0 -262 176 -426q177 -162 463 -162q221 0 374 78z
M776 1839h72l262 -369h-123l-174 256l-176 -256h-125z" />
    <glyph glyph-name="ccircumflex" unicode="&#x109;" horiz-adv-x="1032" 
d="M104 481q0 222 148 361q151 139 387 139q86 0 163.5 -18.5t125.5 -44.5l-13 -111q-112 59 -276 59q-185 0 -297 -106q-113 -107 -113 -279q0 -171 115 -280q113 -107 299 -107q79 0 157.5 17.5t127.5 46.5l22 -111q-59 -30 -143.5 -48.5t-163.5 -18.5q-238 0 -389 139
q-150 138 -150 362zM582 1454h71l262 -369h-122l-175 256l-178 -256h-123z" />
    <glyph glyph-name="Cdotaccent" unicode="&#x10a;" horiz-adv-x="1374" 
d="M1270 182l22 -114q-18 -14 -73 -31q-160 -57 -340 -57q-164 -2 -307 49.5t-244 144t-158 224.5t-55 284q0 309 207 502.5t538 193.5q229 0 402 -84l-15 -112q-174 82 -389 82q-277 0 -448 -162q-170 -164 -170 -420q0 -262 176 -426q177 -162 463 -162q221 0 374 78z
M895 1563q-20 -23 -53 -23t-54 21q-20 23 -20 55.5t20 52.5q20 23 53.5 23t53.5 -23q23 -20 23 -53t-23 -53z" />
    <glyph glyph-name="cdotaccent" unicode="&#x10b;" horiz-adv-x="1032" 
d="M104 481q0 222 148 361q151 139 387 139q86 0 163.5 -18.5t125.5 -44.5l-13 -111q-112 59 -276 59q-185 0 -297 -106q-113 -107 -113 -279q0 -171 115 -280q113 -107 299 -107q79 0 157.5 17.5t127.5 46.5l22 -111q-59 -30 -143.5 -48.5t-163.5 -18.5q-238 0 -389 139
q-150 138 -150 362zM672 1227q-23 -20 -56 -20t-53 20t-20 54t20 54t53.5 20t53.5 -20q23 -20 23 -53.5t-21 -54.5z" />
    <glyph glyph-name="Ccaron" unicode="&#x10c;" horiz-adv-x="1374" 
d="M1270 182l22 -114q-18 -14 -73 -31q-160 -57 -340 -57q-164 -2 -307 49.5t-244 144t-158 224.5t-55 284q0 309 207 502.5t538 193.5q229 0 402 -84l-15 -112q-174 82 -389 82q-277 0 -448 -162q-170 -164 -170 -420q0 -262 176 -426q177 -162 463 -162q221 0 374 78z
M891 1466h-72l-264 369h125l174 -256l176 256h123z" />
    <glyph glyph-name="ccaron" unicode="&#x10d;" horiz-adv-x="1032" 
d="M104 481q0 222 148 361q151 139 387 139q86 0 163.5 -18.5t125.5 -44.5l-13 -111q-112 59 -276 59q-185 0 -297 -106q-113 -107 -113 -279q0 -171 115 -280q113 -107 299 -107q79 0 157.5 17.5t127.5 46.5l22 -111q-59 -30 -143.5 -48.5t-163.5 -18.5q-238 0 -389 139
q-150 138 -150 362zM655 1087h-71l-262 369h122l174 -256l179 256h123z" />
    <glyph glyph-name="Dcaron" unicode="&#x10e;" horiz-adv-x="1576" 
d="M223 0v1358h537q170 0 303 -50t218 -141t129 -215t44 -274q0 -327 -178 -502.5t-520 -175.5h-533zM770 1245h-428v-1132h428q267 0 416 147.5t149 417.5q0 264 -150.5 415.5t-414.5 151.5zM725 1466h-74l-262 369h123l174 -256l178 256h123z" />
    <glyph glyph-name="dcaron" unicode="&#x10f;" horiz-adv-x="1269" 
d="M1397 1409l-37 -381h-94v381h131zM1110 1407v-1407h-121v182q-58 -92 -163.5 -147t-233.5 -55q-211 0 -348 143q-140 146 -140 356q0 211 140 357q139 145 348 145q128 0 233.5 -56.5t163.5 -150.5v633h121zM598 90q169 0 283 111q114 114 114 278q0 165 -114 279
q-112 112 -283 112q-162 0 -268 -112q-107 -113 -107 -279q0 -165 107 -278q108 -111 268 -111z" />
    <glyph glyph-name="Dcroat" unicode="&#x110;" horiz-adv-x="1576" 
d="M223 750v608h539q170 0 303 -50t218 -141t129 -215t44 -274q0 -327 -178 -502.5t-520 -175.5h-535v645h-151v105h151zM770 1245h-428v-495h547v-105h-547v-532h428q269 0 417 147t148 418q0 264 -150.5 415.5t-414.5 151.5z" />
    <glyph glyph-name="dslash" unicode="&#x111;" horiz-adv-x="1298" 
d="M1110 0h-121v182q-58 -92 -163.5 -147t-233.5 -55q-211 0 -348 143q-140 146 -140 356q0 211 140 357q139 145 348 145q128 0 233.5 -56.5t163.5 -150.5v367h-321v104h321v162h121v-162h166v-104h-166v-1141zM598 90q169 0 283 111q114 114 114 278q0 165 -114 279
q-112 112 -283 112q-162 0 -268 -112q-107 -113 -107 -279q0 -165 107 -278q108 -111 268 -111z" />
    <glyph glyph-name="Emacron" unicode="&#x112;" horiz-adv-x="1320" 
d="M1206 109v-109h-983v1358h961v-109h-842v-495h737v-111h-737v-534h864zM997 1667v-104h-591v104h591z" />
    <glyph glyph-name="emacron" unicode="&#x113;" horiz-adv-x="1169" 
d="M981 182l27 -106q-158 -96 -357 -96q-244 0 -395 139q-152 140 -152 360q0 216 140 359q137 143 354 143q121 1 218.5 -45.5t155.5 -123.5t81 -175t4 -201h-824q15 -160 134 -250q121 -92 270 -92q108 0 185.5 18t158.5 70zM236 539h708q-6 145 -98.5 236t-243.5 91
t-254 -92q-100 -90 -112 -235zM899 1325v-106h-592v106h592z" />
    <glyph glyph-name="Ebreve" unicode="&#x114;" horiz-adv-x="1320" 
d="M1206 109v-109h-983v1358h961v-109h-842v-495h737v-111h-737v-534h864zM434 1749h111q6 -69 49 -112.5t106 -43.5q66 0 108.5 43.5t47.5 112.5h113q-6 -115 -81 -185.5t-188 -70.5q-111 0 -185.5 70.5t-80.5 185.5z" />
    <glyph glyph-name="ebreve" unicode="&#x115;" horiz-adv-x="1169" 
d="M981 182l27 -106q-158 -96 -357 -96q-244 0 -395 139q-152 140 -152 360q0 216 140 359q137 143 354 143q121 1 218.5 -45.5t155.5 -123.5t81 -175t4 -201h-824q15 -160 134 -250q121 -92 270 -92q108 0 185.5 18t158.5 70zM236 539h708q-6 145 -98.5 236t-243.5 91
t-254 -92q-100 -90 -112 -235zM338 1401h111q6 -72 49 -115t106 -43q66 0 109 43t49 115h110q-6 -117 -79 -187.5t-189 -70.5q-111 0 -185.5 71t-80.5 187z" />
    <glyph glyph-name="Edotaccent" unicode="&#x116;" horiz-adv-x="1320" 
d="M1206 109v-109h-983v1358h961v-109h-842v-495h737v-111h-737v-534h864zM784 1563q-20 -23 -52 -23t-56 21q-20 23 -20 55.5t20 52.5q23 23 55.5 23t52.5 -23q23 -20 23 -53t-23 -53z" />
    <glyph glyph-name="edotaccent" unicode="&#x117;" horiz-adv-x="1169" 
d="M981 182l27 -106q-158 -96 -357 -96q-244 0 -395 139q-152 140 -152 360q0 216 140 359q137 143 354 143q121 1 218.5 -45.5t155.5 -123.5t81 -175t4 -201h-824q15 -160 134 -250q121 -92 270 -92q108 0 185.5 18t158.5 70zM236 539h708q-6 145 -98.5 236t-243.5 91
t-254 -92q-100 -90 -112 -235zM659 1227q-20 -20 -52.5 -20t-55.5 20q-20 20 -20 54t20 54q23 20 55.5 20t52.5 -20q23 -20 23 -54t-23 -54z" />
    <glyph glyph-name="Eogonek" unicode="&#x118;" horiz-adv-x="1300" 
d="M1206 109v-109q-94 -57 -150.5 -120.5t-56.5 -112.5q0 -70 68 -91.5t172 25.5l33 -92q-71 -45 -174 -45q-98 0 -153.5 49t-55.5 135q0 144 188 252h-854v1358h961v-109h-842v-495h737v-111h-737v-534h864z" />
    <glyph glyph-name="eogonek" unicode="&#x119;" horiz-adv-x="1169" 
d="M981 182l27 -106q-82 -52 -183 -76q-94 -57 -150.5 -120.5t-56.5 -112.5q0 -70 68 -91.5t172 25.5l33 -92q-71 -45 -174 -45q-98 0 -153.5 49t-55.5 135q0 130 156 232h-13q-244 0 -395 139q-152 140 -152 360q0 216 140 359q137 143 354 143q121 1 218.5 -45.5
t155.5 -123.5t81 -175t4 -201h-824q15 -160 134 -250q121 -92 270 -92q108 0 185.5 18t158.5 70zM236 539h708q-6 145 -98.5 236t-243.5 91t-254 -92q-100 -90 -112 -235z" />
    <glyph glyph-name="Ecaron" unicode="&#x11a;" horiz-adv-x="1320" 
d="M1206 109v-109h-983v1358h961v-109h-842v-495h737v-111h-737v-534h864zM760 1466h-72l-262 369h123l174 -256l176 256h125z" />
    <glyph glyph-name="ecaron" unicode="&#x11b;" horiz-adv-x="1169" 
d="M981 182l27 -106q-158 -96 -357 -96q-244 0 -395 139q-152 140 -152 360q0 216 140 359q137 143 354 143q121 1 218.5 -45.5t155.5 -123.5t81 -175t4 -201h-824q15 -160 134 -250q121 -92 270 -92q108 0 185.5 18t158.5 70zM236 539h708q-6 145 -98.5 236t-243.5 91
t-254 -92q-100 -90 -112 -235zM635 1087h-72l-264 369h125l174 -256l176 256h123z" />
    <glyph glyph-name="Gcircumflex" unicode="&#x11c;" horiz-adv-x="1538" 
d="M1337 1278l-12 -119q-193 105 -444 105q-285 0 -465 -162q-178 -163 -178 -420q0 -261 182 -428q185 -164 477 -164q246 0 381 78v457h-473v108h588v-635q-190 -118 -486 -118q-229 -3 -411.5 86.5t-283 251t-97.5 364.5q-3 151 54 281t158.5 221.5t246 143t311.5 50.5
q253 0 452 -100zM842 1839h71l265 -369h-123l-174 256l-179 -256h-122z" />
    <glyph glyph-name="gcircumflex" unicode="&#x11d;" horiz-adv-x="1294" 
d="M989 53v131q-58 -93 -163.5 -148.5t-233.5 -55.5q-211 0 -348 143q-140 146 -140 358q0 209 140 355q139 145 348 145q128 0 233.5 -55t163.5 -148v183h121v-887q0 -102 -33.5 -190.5t-99.5 -157t-172.5 -107.5t-243.5 -39q-87 0 -191 21t-175 57l18 113q165 -82 352 -82
q71 0 133.5 13.5t116 42.5t92 71.5t60.5 103t22 133.5zM598 870q-162 0 -268 -112q-107 -113 -107 -277q0 -165 107 -278t268 -113q170 0 283 113q114 114 114 278q0 163 -114 277q-112 112 -283 112zM559 1454h74l262 -369h-123l-174 256l-178 -256h-123z" />
    <glyph glyph-name="Gbreve" unicode="&#x11e;" horiz-adv-x="1538" 
d="M1337 1278l-12 -119q-193 105 -444 105q-285 0 -465 -162q-178 -163 -178 -420q0 -261 182 -428q185 -164 477 -164q246 0 381 78v457h-473v108h588v-635q-190 -118 -486 -118q-229 -3 -411.5 86.5t-283 251t-97.5 364.5q-3 151 54 281t158.5 221.5t246 143t311.5 50.5
q253 0 452 -100zM592 1749h110q4 -69 48.5 -112.5t107.5 -43.5t107.5 43.5t48.5 112.5h110q-6 -115 -79.5 -185.5t-186.5 -70.5t-186.5 70.5t-79.5 185.5z" />
    <glyph glyph-name="gbreve" unicode="&#x11f;" horiz-adv-x="1294" 
d="M989 53v131q-58 -93 -163.5 -148.5t-233.5 -55.5q-211 0 -348 143q-140 146 -140 358q0 209 140 355q139 145 348 145q128 0 233.5 -55t163.5 -148v183h121v-887q0 -102 -33.5 -190.5t-99.5 -157t-172.5 -107.5t-243.5 -39q-87 0 -191 21t-175 57l18 113q165 -82 352 -82
q71 0 133.5 13.5t116 42.5t92 71.5t60.5 103t22 133.5zM598 870q-162 0 -268 -112q-107 -113 -107 -277q0 -165 107 -278t268 -113q170 0 283 113q114 114 114 278q0 163 -114 277q-112 112 -283 112zM332 1401h110q6 -71 49 -114.5t107 -43.5q66 0 109 43t49 115h110
q-6 -117 -79 -187.5t-189 -70.5q-111 0 -185 71t-81 187z" />
    <glyph glyph-name="Gdotaccent" unicode="&#x120;" horiz-adv-x="1538" 
d="M1337 1278l-12 -119q-193 105 -444 105q-285 0 -465 -162q-178 -163 -178 -420q0 -261 182 -428q185 -164 477 -164q246 0 381 78v457h-473v108h588v-635q-190 -118 -486 -118q-229 -3 -411.5 86.5t-283 251t-97.5 364.5q-3 151 54 281t158.5 221.5t246 143t311.5 50.5
q253 0 452 -100zM932 1563q-20 -23 -52.5 -23t-56.5 21q-20 23 -20 55.5t20 52.5q23 23 56 23t53 -23q23 -20 23 -53t-23 -53z" />
    <glyph glyph-name="gdotaccent" unicode="&#x121;" horiz-adv-x="1294" 
d="M989 53v131q-58 -93 -163.5 -148.5t-233.5 -55.5q-211 0 -348 143q-140 146 -140 358q0 209 140 355q139 145 348 145q128 0 233.5 -55t163.5 -148v183h121v-887q0 -102 -33.5 -190.5t-99.5 -157t-172.5 -107.5t-243.5 -39q-87 0 -191 21t-175 57l18 113q165 -82 352 -82
q71 0 133.5 13.5t116 42.5t92 71.5t60.5 103t22 133.5zM598 870q-162 0 -268 -112q-107 -113 -107 -277q0 -165 107 -278t268 -113q170 0 283 113q114 114 114 278q0 163 -114 277q-112 112 -283 112zM653 1227q-20 -20 -54 -20t-54 20t-20 54t20 54t54 20t54 -20
q23 -20 23 -54t-23 -54z" />
    <glyph glyph-name="Gcommaaccent" unicode="&#x122;" horiz-adv-x="1538" 
d="M1337 1278l-12 -119q-193 105 -444 105q-285 0 -465 -162q-178 -163 -178 -420q0 -261 182 -428q185 -164 477 -164q246 0 381 78v457h-473v108h588v-635q-190 -118 -486 -118q-229 -3 -411.5 86.5t-283 251t-97.5 364.5q-3 151 54 281t158.5 221.5t246 143t311.5 50.5
q253 0 452 -100zM895 -508h-96l12 379h137z" />
    <glyph glyph-name="gcommaaccent" unicode="&#x123;" horiz-adv-x="1294" 
d="M989 53v131q-58 -93 -163.5 -148.5t-233.5 -55.5q-211 0 -348 143q-140 146 -140 358q0 209 140 355q139 145 348 145q128 0 233.5 -55t163.5 -148v183h121v-887q0 -102 -33.5 -190.5t-99.5 -157t-172.5 -107.5t-243.5 -39q-87 0 -191 21t-175 57l18 113q165 -82 352 -82
q71 0 133.5 13.5t116 42.5t92 71.5t60.5 103t22 133.5zM598 870q-162 0 -268 -112q-107 -113 -107 -277q0 -165 107 -278t268 -113q170 0 283 113q114 114 114 278q0 163 -114 277q-112 112 -283 112zM584 1495h98l-14 -381h-136z" />
    <glyph glyph-name="Hcircumflex" unicode="&#x124;" horiz-adv-x="1581" 
d="M1360 0h-121v645h-897v-645h-119v1358h119v-602h897v602h121v-1358zM750 1839h71l264 -369h-122l-175 256l-178 -256h-123z" />
    <glyph glyph-name="hcircumflex" unicode="&#x125;" horiz-adv-x="1226" 
d="M647 981q189 0 298.5 -103.5t109.5 -291.5v-586h-119v551q0 157 -78.5 237t-228.5 80q-141 0 -236 -92q-94 -91 -94 -231v-545h-121v1407h121v-614q54 91 146.5 139.5t201.5 48.5zM209 1860h72l262 -369h-123l-174 256l-178 -256h-123z" />
    <glyph glyph-name="Hbar" unicode="&#x126;" horiz-adv-x="1587" 
d="M350 0h-121v1090h-168v104h168v164h121v-164h895v164h121v-164h160v-104h-160v-1090h-121v645h-895v-645zM1245 1090h-895v-334h895v334z" />
    <glyph glyph-name="hbar" unicode="&#x127;" horiz-adv-x="1202" 
d="M623 981q189 0 298 -103.5t109 -291.5v-586h-119v551q0 317 -307 317q-140 0 -235 -92t-95 -231v-545h-118v1141h-156v104h156v162h118v-162h334v-104h-334v-348q54 91 147 139.5t202 48.5z" />
    <glyph glyph-name="Itilde" unicode="&#x128;" horiz-adv-x="565" 
d="M342 0h-119v1358h119v-1358zM160 1626q-36 0 -64 -18t-67 -60l-68 56q88 125 199 125q53 0 137 -41q79 -39 121 -39q36 0 63 17.5t68 59.5l67 -55q-88 -125 -194 -125q-60 0 -139 39q-84 41 -123 41z" />
    <glyph glyph-name="itilde" unicode="&#x129;" horiz-adv-x="491" 
d="M305 0h-119v961h119v-961zM115 1272q-36 0 -63 -18t-66 -60l-70 55q88 125 201 125q55 0 135 -41q84 -41 123 -41q36 0 63.5 18t65.5 62l67 -55q-88 -125 -192 -125q-62 0 -141 39q-84 41 -123 41z" />
    <glyph glyph-name="Imacron" unicode="&#x12a;" horiz-adv-x="565" 
d="M342 0h-119v1358h119v-1358zM584 1667v-104h-592v104h592z" />
    <glyph glyph-name="imacron" unicode="&#x12b;" horiz-adv-x="491" 
d="M305 0h-119v961h119v-961zM543 1325v-106h-592v106h592z" />
    <glyph glyph-name="Ibreve" unicode="&#x12c;" horiz-adv-x="565" 
d="M342 0h-119v1358h119v-1358zM20 1749h111q6 -69 49.5 -112.5t106.5 -43.5q65 0 108 43t49 113h111q-6 -115 -79.5 -185.5t-186.5 -70.5t-187.5 70.5t-81.5 185.5z" />
    <glyph glyph-name="ibreve" unicode="&#x12d;" horiz-adv-x="491" 
d="M305 0h-119v961h119v-961zM-23 1401h111q6 -69 49.5 -113.5t106.5 -44.5q65 0 108 44t49 114h111q-6 -115 -79.5 -186.5t-186.5 -71.5t-187.5 71.5t-81.5 186.5z" />
    <glyph glyph-name="Iogonek" unicode="&#x12e;" horiz-adv-x="565" 
d="M223 1358h119v-1358q-93 -57 -149 -120.5t-56 -112.5q0 -70 67 -92t173 26l31 -92q-68 -45 -172 -45q-100 0 -155.5 49t-55.5 135q0 74 52 140t146 116v1354z" />
    <glyph glyph-name="iogonek" unicode="&#x12f;" horiz-adv-x="491" 
d="M-12 -252q0 74 52 140t146 116v957h119v-961q-93 -57 -149 -120.5t-56 -112.5q0 -70 67 -92t173 26l31 -92q-68 -45 -172 -45q-100 0 -155.5 49t-55.5 135zM299 1229q-20 -23 -52.5 -23t-56.5 21q-20 23 -20 55.5t20 52.5q23 23 56 23t53 -23q23 -20 23 -53t-23 -53z" />
    <glyph glyph-name="Idot" unicode="&#x130;" horiz-adv-x="565" 
d="M342 0h-119v1358h119v-1358zM338 1563q-20 -23 -52.5 -23t-56.5 21q-20 23 -20 55.5t20 52.5q23 23 56 23t53 -23q23 -20 23 -53t-23 -53z" />
    <glyph glyph-name="dotlessi" unicode="&#x131;" horiz-adv-x="491" 
d="M305 0h-119v961h119v-961z" />
    <glyph glyph-name="IJ" unicode="&#x132;" horiz-adv-x="1658" 
d="M342 0h-119v1358h119v-1358zM633 57l26 107q150 -72 310 -72q181 0 270.5 78t89.5 246v831h-555v111h676v-952q0 -202 -123.5 -314t-349.5 -112q-71 0 -178 22q-97 23 -166 55z" />
    <glyph glyph-name="ij" unicode="&#x133;" horiz-adv-x="919" 
d="M293 0h-121v961h121v-961zM287 1227q-23 -20 -56 -20t-53 20t-20 54t20 54t53.5 20t53.5 -20q23 -20 23 -53.5t-21 -54.5zM745 1227q-20 -20 -52.5 -20t-55.5 20q-20 20 -20 54t20 54q23 20 55.5 20t52.5 -20q23 -20 23 -54t-23 -54zM633 -113v1074h121v-1084
q0 -140 -72 -218.5t-201 -78.5q-86 0 -141 25l14 102q52 -18 121 -18q158 0 158 198z" />
    <glyph glyph-name="Jcircumflex" unicode="&#x134;" horiz-adv-x="1071" 
d="M45 57l27 107q147 -72 309 -72q180 0 270 78t90 246v827h-555v111h676v-948q0 -202 -123.5 -314t-351.5 -112q-69 0 -176 22q-97 23 -166 55zM500 1839h71l265 -369h-123l-174 256l-179 -256h-122z" />
    <glyph glyph-name="jcircumflex" unicode="&#x135;" horiz-adv-x="501" 
d="M197 -113v1074h118v-1084q0 -140 -71.5 -218.5t-198.5 -78.5q-88 0 -143 25l14 102q52 -18 123 -18q158 0 158 198zM219 1454h74l262 -369h-123l-174 256l-178 -256h-123z" />
    <glyph glyph-name="Kcommaaccent" unicode="&#x136;" horiz-adv-x="1306" 
d="M1087 1358h142l-420 -701l504 -657h-152l-456 600h-363v-600h-119v1358h119v-647h363zM682 -508h-96l12 379h137z" />
    <glyph glyph-name="kcommaaccent" unicode="&#x137;" horiz-adv-x="1034" 
d="M305 0h-119v1407h119v-858h234l272 412h135l-315 -472l364 -489h-145l-326 442h-219v-442zM549 -508h-98l14 379h135z" />
    <glyph glyph-name="kgreenlandic" unicode="&#x138;" horiz-adv-x="1007" 
d="M305 0h-119v961h119v-412h234l272 412h135l-315 -472l364 -489h-145l-326 442h-219v-442z" />
    <glyph glyph-name="Lacute" unicode="&#x139;" horiz-adv-x="1206" 
d="M1165 111v-111h-942v1358h119v-1247h823zM399 1806h138l-172 -333h-109z" />
    <glyph glyph-name="lacute" unicode="&#x13a;" horiz-adv-x="491" 
d="M305 0h-119v1407h119v-1407zM340 1827h137l-172 -334h-106z" />
    <glyph glyph-name="Lcommaaccent" unicode="&#x13b;" horiz-adv-x="1206" 
d="M1165 111v-111h-942v1358h119v-1247h823zM672 -508h-99l15 379h135z" />
    <glyph glyph-name="lcommaaccent" unicode="&#x13c;" horiz-adv-x="491" 
d="M305 0h-119v1407h119v-1407zM260 -508h-96l12 379h137z" />
    <glyph glyph-name="Lcaron" unicode="&#x13d;" horiz-adv-x="1210" 
d="M1165 111v-111h-942v1358h119v-1247h823zM868 948h-98l14 379h136z" />
    <glyph glyph-name="lcaron" unicode="&#x13e;" horiz-adv-x="491" 
d="M653 1409l-39 -381h-92v381h131zM305 0h-119v1407h119v-1407z" />
    <glyph glyph-name="Ldot" unicode="&#x13f;" horiz-adv-x="1208" 
d="M1165 111v-111h-942v1358h119v-1247h823zM952 621q-20 -20 -52.5 -20t-55.5 20q-20 20 -20 54t20 54q23 20 55.5 20t52.5 -20q23 -20 23 -54t-23 -54z" />
    <glyph glyph-name="ldot" unicode="&#x140;" horiz-adv-x="681" 
d="M305 0h-119v1407h119v-1407zM670 625q-23 -23 -55.5 -23t-53.5 21q-20 23 -20 55.5t20 52.5q20 23 53.5 23t53.5 -23q23 -20 23 -52.5t-21 -53.5z" />
    <glyph glyph-name="Lslash" unicode="&#x141;" horiz-adv-x="1296" 
d="M1255 111v-111h-942v733l-229 -24v118l229 25v506h121v-494l432 43v-114l-432 -48v-634h821z" />
    <glyph glyph-name="lslash" unicode="&#x142;" horiz-adv-x="491" 
d="M305 0h-119v477l-192 -78v119l192 80v809h119v-760l223 92v-123l-223 -90v-526z" />
    <glyph glyph-name="Nacute" unicode="&#x143;" horiz-adv-x="1683" 
d="M1339 1358h121v-1358h-135l-981 1194v-1194h-121v1358h135l981 -1190v1190zM924 1806h137l-172 -333h-109z" />
    <glyph glyph-name="nacute" unicode="&#x144;" horiz-adv-x="1232" 
d="M653 981q189 0 298.5 -103.5t109.5 -291.5v-586h-119v551q0 317 -307 317q-141 0 -236 -92q-94 -91 -94 -231v-545h-119v961h119v-168q54 91 146.5 139.5t201.5 48.5zM748 1450h139l-174 -336h-107z" />
    <glyph glyph-name="Ncommaaccent" unicode="&#x145;" horiz-adv-x="1683" 
d="M1339 1358h121v-1358h-135l-981 1194v-1194h-121v1358h135l981 -1190v1190zM854 -508h-98l12 379h137z" />
    <glyph glyph-name="ncommaaccent" unicode="&#x146;" horiz-adv-x="1232" 
d="M653 981q189 0 298.5 -103.5t109.5 -291.5v-586h-119v551q0 317 -307 317q-141 0 -236 -92q-94 -91 -94 -231v-545h-119v961h119v-168q54 91 146.5 139.5t201.5 48.5zM657 -508h-98l14 379h138z" />
    <glyph glyph-name="Ncaron" unicode="&#x147;" horiz-adv-x="1683" 
d="M1339 1358h121v-1358h-135l-981 1194v-1194h-121v1358h135l981 -1190v1190zM903 1466h-72l-264 369h123l174 -256l178 256h123z" />
    <glyph glyph-name="ncaron" unicode="&#x148;" horiz-adv-x="1232" 
d="M653 981q189 0 298.5 -103.5t109.5 -291.5v-586h-119v551q0 317 -307 317q-141 0 -236 -92q-94 -91 -94 -231v-545h-119v961h119v-168q54 91 146.5 139.5t201.5 48.5zM678 1087h-72l-264 369h125l172 -256l178 256h123z" />
    <glyph glyph-name="napostrophe" unicode="&#x149;" horiz-adv-x="1429" 
d="M852 981q187 0 296 -103.5t109 -291.5v-586h-116v551q0 158 -78.5 237.5t-231.5 79.5q-138 0 -233 -92q-94 -91 -94 -231v-545h-121v961h121v-168q53 92 145 140t203 48zM31 911l104 435h125l-125 -435h-104z" />
    <glyph glyph-name="Eng" unicode="&#x14a;" horiz-adv-x="1683" 
d="M1339 1358h121v-1481q0 -140 -71.5 -218.5t-200.5 -78.5q-89 0 -144 25l17 102q47 -18 121 -18q157 0 157 198v97l-995 1210v-1194h-121v1358h135l981 -1190v1190z" />
    <glyph glyph-name="eng" unicode="&#x14b;" horiz-adv-x="1234" 
d="M653 981q189 0 298.5 -103.5t109.5 -291.5v-586h2v-133q0 -135 -68.5 -211t-191.5 -76q-81 0 -133 25l14 102q46 -18 111 -18q147 0 147 188v674q0 317 -307 317q-141 0 -236 -92q-94 -91 -94 -231v-545h-119v961h119v-168q54 91 146.5 139.5t201.5 48.5z" />
    <glyph glyph-name="Omacron" unicode="&#x14c;" horiz-adv-x="1660" 
d="M115 672q-3 198 91.5 361.5t259 255.5t361.5 89q199 3 365.5 -89t262 -255.5t91.5 -361.5q0 -201 -93.5 -359.5t-257.5 -245.5t-368 -87q-197 -4 -361.5 85t-259 249.5t-91.5 357.5zM236 672q0 -166 77 -300t212 -209t302 -75q258 0 428 164q170 167 170 420
q0 258 -170 428q-168 168 -428 168q-168 0 -303 -76.5t-211.5 -212.5t-76.5 -307zM1135 1667v-104h-592v104h592z" />
    <glyph glyph-name="omacron" unicode="&#x14d;" horiz-adv-x="1224" 
d="M248 125q-146 146 -146 354q0 211 146 357q145 145 362 145q220 0 365 -145q147 -144 147 -357q0 -212 -147 -356q-143 -143 -365 -143q-217 0 -362 145zM334 758q-113 -113 -113 -279q0 -162 111 -276q113 -113 278 -113q169 0 279 113q112 112 112 276q0 167 -112 279
q-109 112 -279 112q-167 0 -276 -112zM911 1323v-104h-592v104h592z" />
    <glyph glyph-name="Obreve" unicode="&#x14e;" horiz-adv-x="1660" 
d="M115 672q-3 198 91.5 361.5t259 255.5t361.5 89q199 3 365.5 -89t262 -255.5t91.5 -361.5q0 -201 -93.5 -359.5t-257.5 -245.5t-368 -87q-197 -4 -361.5 85t-259 249.5t-91.5 357.5zM236 672q0 -166 77 -300t212 -209t302 -75q258 0 428 164q170 167 170 420
q0 258 -170 428q-168 168 -428 168q-168 0 -303 -76.5t-211.5 -212.5t-76.5 -307zM571 1749h111q4 -69 48.5 -112.5t107.5 -43.5t107 43.5t48 112.5h113q-6 -115 -80.5 -185.5t-187.5 -70.5t-187 70.5t-80 185.5z" />
    <glyph glyph-name="obreve" unicode="&#x14f;" horiz-adv-x="1224" 
d="M248 125q-146 146 -146 354q0 211 146 357q145 145 362 145q220 0 365 -145q147 -144 147 -357q0 -212 -147 -356q-143 -143 -365 -143q-217 0 -362 145zM334 758q-113 -113 -113 -279q0 -162 111 -276q113 -113 278 -113q169 0 279 113q112 112 112 276q0 167 -112 279
q-109 112 -279 112q-167 0 -276 -112zM348 1401h111q6 -72 49 -115t106 -43q66 0 109 43t47 115h113q-6 -116 -81 -187t-188 -71q-111 0 -185.5 71t-80.5 187z" />
    <glyph glyph-name="Ohungarumlaut" unicode="&#x150;" horiz-adv-x="1660" 
d="M115 672q-3 198 91.5 361.5t259 255.5t361.5 89q199 3 365.5 -89t262 -255.5t91.5 -361.5q0 -201 -93.5 -359.5t-257.5 -245.5t-368 -87q-197 -4 -361.5 85t-259 249.5t-91.5 357.5zM236 672q0 -166 77 -300t212 -209t302 -75q258 0 428 164q170 167 170 420
q0 258 -170 428q-168 168 -428 168q-168 0 -303 -76.5t-211.5 -212.5t-76.5 -307zM768 1806h145l-202 -333h-97zM1094 1806h147l-203 -333h-96z" />
    <glyph glyph-name="ohungarumlaut" unicode="&#x151;" horiz-adv-x="1224" 
d="M248 125q-146 146 -146 354q0 211 146 357q145 145 362 145q220 0 365 -145q147 -144 147 -357q0 -212 -147 -356q-143 -143 -365 -143q-217 0 -362 145zM334 758q-113 -113 -113 -279q0 -162 111 -276q113 -113 278 -113q169 0 279 113q112 112 112 276q0 167 -112 279
q-109 112 -279 112q-167 0 -276 -112zM545 1450h145l-203 -336h-96zM870 1450h148l-203 -336h-96z" />
    <glyph glyph-name="OE" unicode="&#x152;" horiz-adv-x="2416" 
d="M117 672q-2 151 45 282t133 225t211 147t272 52q175 0 313.5 -69t227.5 -195v244h960v-109h-839v-495h735v-111h-735v-534h862v-109h-983v236q-88 -124 -226.5 -190t-314.5 -66q-301 0 -481 192t-180 500zM236 672q0 -257 145 -422q146 -162 397 -162q256 0 402 162
q147 164 147 422q0 264 -148.5 430t-400.5 166q-250 0 -397 -166q-145 -168 -145 -430z" />
    <glyph glyph-name="oe" unicode="&#x153;" horiz-adv-x="1982" 
d="M592 981q140 0 251 -65.5t173 -182.5q56 117 164 181.5t254 64.5q118 0 212 -46t148 -122t75 -173.5t3 -201.5h-789q15 -159 129 -250q115 -92 258 -92q102 0 176 18t154 70l25 -106q-152 -96 -342 -96q-158 0 -279 66t-184 185q-61 -119 -171.5 -185t-256.5 -66
q-222 0 -354 141q-134 146 -134 358q0 213 134 359q131 143 354 143zM319 760q-102 -111 -102 -281q0 -169 100 -278q102 -111 273 -111q170 0 272 111q101 110 101 278q0 171 -101 281t-272 110q-170 0 -271 -110zM1087 539h676q-6 151 -91.5 240t-235.5 89
q-149 0 -244 -92q-96 -93 -105 -237z" />
    <glyph glyph-name="Racute" unicode="&#x154;" horiz-adv-x="1402" 
d="M834 436h-25h-467v-436h-119v1358h586q77 0 146 -17.5t129 -55t104 -91t69 -130.5t25 -169q0 -162 -86.5 -277t-232.5 -159l376 -459h-155zM809 1247h-467v-700h467q149 0 250 94q102 95 102 254q0 171 -100 261.5t-252 90.5zM784 1806h140l-174 -333h-107z" />
    <glyph glyph-name="racute" unicode="&#x155;" horiz-adv-x="749" 
d="M186 961h119v-154q38 85 108.5 129.5t159.5 44.5q83 0 142 -27l-13 -110q-68 24 -135 24q-118 0 -189 -86t-71 -239v-543h-121v961zM555 1450h137l-172 -336h-106z" />
    <glyph glyph-name="Rcommaaccent" unicode="&#x156;" horiz-adv-x="1402" 
d="M834 436h-25h-467v-436h-119v1358h586q77 0 146 -17.5t129 -55t104 -91t69 -130.5t25 -169q0 -162 -86.5 -277t-232.5 -159l376 -459h-155zM809 1247h-467v-700h467q149 0 250 94q102 95 102 254q0 171 -100 261.5t-252 90.5zM715 -508h-99l15 379h137z" />
    <glyph glyph-name="rcommaaccent" unicode="&#x157;" horiz-adv-x="749" 
d="M186 961h119v-154q38 85 108.5 129.5t159.5 44.5q83 0 142 -27l-13 -110q-68 24 -135 24q-118 0 -189 -86t-71 -239v-543h-121v961zM256 -508h-98l12 379h137z" />
    <glyph glyph-name="Rcaron" unicode="&#x158;" horiz-adv-x="1402" 
d="M834 436h-25h-467v-436h-119v1358h586q77 0 146 -17.5t129 -55t104 -91t69 -130.5t25 -169q0 -162 -86.5 -277t-232.5 -159l376 -459h-155zM809 1247h-467v-700h467q149 0 250 94q102 95 102 254q0 171 -100 261.5t-252 90.5zM725 1466h-72l-264 369h123l174 -256
l178 256h123z" />
    <glyph glyph-name="rcaron" unicode="&#x159;" horiz-adv-x="749" 
d="M186 961h119v-154q38 85 108.5 129.5t159.5 44.5q83 0 142 -27l-13 -110q-68 24 -135 24q-118 0 -189 -86t-71 -239v-543h-121v961zM504 1087h-74l-262 367h123l174 -256l178 256h123z" />
    <glyph glyph-name="Sacute" unicode="&#x15a;" horiz-adv-x="1153" 
d="M696 596l-239 82q-172 59 -253 137t-81 199q0 170 126 267t349 97q205 0 385 -73l-16 -109q-189 74 -367 74q-165 0 -258.5 -67.5t-93.5 -186.5q0 -78 49 -127q21 -21 57 -41q17 -10 34.5 -18t30 -12.5t36.5 -13.5t41 -16q4 -2 8 -2l227 -77q177 -62 250.5 -145.5
t73.5 -215.5q0 -172 -129.5 -270t-360.5 -98q-216 0 -440 94l14 119q97 -49 210.5 -76t213.5 -27q176 0 275.5 70.5t99.5 193.5q0 85 -56 141.5t-186 100.5zM715 1806h139l-174 -333h-107z" />
    <glyph glyph-name="sacute" unicode="&#x15b;" horiz-adv-x="929" 
d="M465 543l88 -17q139 -26 212 -93t73 -167q0 -133 -100 -209.5t-273 -76.5q-200 0 -354 71l18 115q125 -76 328 -76q123 0 192.5 43t69.5 121q0 72 -57.5 110t-186.5 62l-106 20q-265 50 -265 246q0 135 101.5 212t279.5 77q174 0 293 -49l-18 -107q-127 47 -264 47
q-125 0 -196 -44.5t-71 -122.5q1 -73 56 -106.5t180 -55.5zM557 1450h139l-174 -336h-106z" />
    <glyph glyph-name="Scircumflex" unicode="&#x15c;" horiz-adv-x="1153" 
d="M696 596l-239 82q-172 59 -253 137t-81 199q0 170 126 267t349 97q205 0 385 -73l-16 -109q-189 74 -367 74q-165 0 -258.5 -67.5t-93.5 -186.5q0 -78 49 -127q21 -21 57 -41q17 -10 34.5 -18t30 -12.5t36.5 -13.5t41 -16q4 -2 8 -2l227 -77q177 -62 250.5 -145.5
t73.5 -215.5q0 -172 -129.5 -270t-360.5 -98q-216 0 -440 94l14 119q97 -49 210.5 -76t213.5 -27q176 0 275.5 70.5t99.5 193.5q0 85 -56 141.5t-186 100.5zM580 1839h71l264 -369h-122l-175 256l-178 -256h-123z" />
    <glyph glyph-name="scircumflex" unicode="&#x15d;" horiz-adv-x="929" 
d="M465 543l88 -17q139 -26 212 -93t73 -167q0 -133 -100 -209.5t-273 -76.5q-200 0 -354 71l18 115q125 -76 328 -76q123 0 192.5 43t69.5 121q0 72 -57.5 110t-186.5 62l-106 20q-265 50 -265 246q0 135 101.5 212t279.5 77q174 0 293 -49l-18 -107q-127 47 -264 47
q-125 0 -196 -44.5t-71 -122.5q1 -73 56 -106.5t180 -55.5zM453 1454h71l264 -369h-122l-174 256l-179 -256h-123z" />
    <glyph glyph-name="Scedilla" unicode="&#x15e;" horiz-adv-x="1153" 
d="M514 -182h-49l59 164q-204 9 -399 92l14 119q97 -49 210.5 -76t213.5 -27q176 0 275.5 70.5t99.5 193.5q0 85 -56 141.5t-186 100.5l-239 82q-172 59 -253 137t-81 199q0 170 126 267t349 97q205 0 385 -73l-16 -109q-189 74 -367 74q-165 0 -258.5 -67.5t-93.5 -186.5
q0 -78 49 -127q21 -21 57 -41q17 -10 34.5 -18t30 -12.5t36.5 -13.5t41 -16q4 -2 8 -2l227 -77q177 -62 250.5 -145.5t73.5 -215.5q0 -164 -116.5 -259.5t-326.5 -106.5l-26 -84q91 -6 145.5 -49.5t54.5 -112.5q0 -80 -63.5 -126t-175.5 -46q-73 0 -129 16v101
q56 -21 119 -21q139 0 139 76q0 82 -162 82z" />
    <glyph glyph-name="scedilla" unicode="&#x15f;" horiz-adv-x="929" 
d="M393 -182h-49l59 164q-173 12 -292 69l18 115q125 -76 328 -76q123 0 192.5 43t69.5 121q0 72 -57.5 110t-186.5 62l-106 20q-265 50 -265 246q0 135 101.5 212t279.5 77q174 0 293 -49l-18 -107q-127 47 -264 47q-125 0 -196 -44.5t-71 -122.5q1 -73 56 -106.5
t180 -55.5l88 -17q139 -26 212 -93t73 -167q0 -128 -92 -203t-254 -81l-27 -84q91 -6 146 -49.5t55 -112.5q0 -80 -64 -126t-176 -46q-73 0 -129 16v101q55 -21 119 -21q139 0 139 76q0 82 -162 82z" />
    <glyph glyph-name="Scaron" unicode="&#x160;" horiz-adv-x="1153" 
d="M696 596l-239 82q-172 59 -253 137t-81 199q0 170 126 267t349 97q205 0 385 -73l-16 -109q-189 74 -367 74q-165 0 -258.5 -67.5t-93.5 -186.5q0 -78 49 -127q21 -21 57 -41q17 -10 34.5 -18t30 -12.5t36.5 -13.5t41 -16q4 -2 8 -2l227 -77q177 -62 250.5 -145.5
t73.5 -215.5q0 -172 -129.5 -270t-360.5 -98q-216 0 -440 94l14 119q97 -49 210.5 -76t213.5 -27q176 0 275.5 70.5t99.5 193.5q0 85 -56 141.5t-186 100.5zM645 1466h-72l-264 369h123l174 -256l178 256h123z" />
    <glyph glyph-name="scaron" unicode="&#x161;" horiz-adv-x="929" 
d="M465 543l88 -17q139 -26 212 -93t73 -167q0 -133 -100 -209.5t-273 -76.5q-200 0 -354 71l18 115q125 -76 328 -76q123 0 192.5 43t69.5 121q0 72 -57.5 110t-186.5 62l-106 20q-265 50 -265 246q0 135 101.5 212t279.5 77q174 0 293 -49l-18 -107q-127 47 -264 47
q-125 0 -196 -44.5t-71 -122.5q1 -73 56 -106.5t180 -55.5zM518 1087h-72l-264 367h123l174 -256l178 256h123z" />
    <glyph glyph-name="Tcommaaccent" unicode="&#x162;" horiz-adv-x="1118" 
d="M1079 1358v-111h-461v-1247h-118v1247h-461v111h1040zM580 -508h-99l15 379h135z" />
    <glyph glyph-name="tcommaaccent" unicode="&#x163;" horiz-adv-x="751" 
d="M682 961v-107h-328v-557q0 -103 46 -156t128 -53q105 0 172 31l17 -105q-74 -34 -195 -34q-135 0 -212 74.5t-77 213.5v586h-184v107h182v307h123v-307h328zM473 -508h-96l12 379h137z" />
    <glyph glyph-name="Tcaron" unicode="&#x164;" horiz-adv-x="1118" 
d="M1079 1358v-111h-461v-1247h-118v1247h-461v111h1040zM598 1466h-72l-264 369h123l174 -256l178 256h123z" />
    <glyph glyph-name="tcaron" unicode="&#x165;" horiz-adv-x="751" 
d="M678 1509l-39 -381h-92v381h131zM682 961v-107h-328v-557q0 -103 46 -156t128 -53q105 0 172 31l17 -105q-74 -34 -195 -34q-135 0 -212 74.5t-77 213.5v586h-184v107h182v307h123v-307h328z" />
    <glyph glyph-name="Tbar" unicode="&#x166;" horiz-adv-x="1204" 
d="M1118 1358v-111h-461v-487h400v-109h-400v-651h-118v651h-385v109h385v487h-461v111h1040z" />
    <glyph glyph-name="tbar" unicode="&#x167;" horiz-adv-x="774" 
d="M700 961v-107h-327v-289h336v-106h-336v-162q0 -103 46 -156t128 -53q102 0 172 31l16 -105q-74 -34 -194 -34q-135 0 -212 74.5t-77 213.5v191h-174v106h174v289h-184v107h182v307h123v-307h327z" />
    <glyph glyph-name="Utilde" unicode="&#x168;" horiz-adv-x="1589" 
d="M207 496v862h121v-862q0 -183 125 -293q126 -111 342 -111q214 0 340 111q129 114 129 293v862h118v-862q0 -231 -159 -375q-159 -141 -428 -141q-273 0 -430 139q-158 143 -158 377zM678 1626q-36 0 -64 -18t-67 -60l-68 56q88 125 199 125q55 0 135 -41q79 -39 123 -39
q36 0 63 17.5t68 59.5l68 -55q-88 -125 -195 -125q-60 0 -139 39q-84 41 -123 41z" />
    <glyph glyph-name="utilde" unicode="&#x169;" horiz-adv-x="1206" 
d="M920 410v551h116v-572q0 -182 -116 -295q-114 -114 -316 -114t-317 112q-117 114 -117 291v578h119v-551q0 -153 83.5 -235.5t231.5 -82.5t232 82.5t84 235.5zM475 1272q-36 0 -64 -18t-67 -62l-68 55q88 125 199 125q57 0 137 -41q79 -39 121 -39q36 0 64 18t67 60
l68 -55q-88 -125 -195 -125q-55 0 -139 41t-123 41z" />
    <glyph glyph-name="Umacron" unicode="&#x16a;" horiz-adv-x="1589" 
d="M207 496v862h121v-862q0 -183 125 -293q126 -111 342 -111q214 0 340 111q129 114 129 293v862h118v-862q0 -231 -159 -375q-159 -141 -428 -141q-273 0 -430 139q-158 143 -158 377zM1094 1667v-104h-592v104h592z" />
    <glyph glyph-name="umacron" unicode="&#x16b;" horiz-adv-x="1206" 
d="M920 410v551h116v-572q0 -182 -116 -295q-114 -114 -316 -114t-317 112q-117 114 -117 291v578h119v-551q0 -153 83.5 -235.5t231.5 -82.5t232 82.5t84 235.5zM901 1323v-104h-592v104h592z" />
    <glyph glyph-name="Ubreve" unicode="&#x16c;" horiz-adv-x="1589" 
d="M207 496v862h121v-862q0 -183 125 -293q126 -111 342 -111q214 0 340 111q129 114 129 293v862h118v-862q0 -231 -159 -375q-159 -141 -428 -141q-273 0 -430 139q-158 143 -158 377zM530 1749h111q4 -69 48.5 -112.5t107.5 -43.5t107 43.5t48 112.5h113
q-6 -115 -80.5 -185.5t-187.5 -70.5t-187 70.5t-80 185.5z" />
    <glyph glyph-name="ubreve" unicode="&#x16d;" horiz-adv-x="1206" 
d="M920 410v551h116v-572q0 -182 -116 -295q-114 -114 -316 -114t-317 112q-117 114 -117 291v578h119v-551q0 -153 83.5 -235.5t231.5 -82.5t232 82.5t84 235.5zM336 1401h110q4 -71 48 -114.5t108 -43.5t108 43.5t48 114.5h110q-6 -116 -79.5 -187t-186.5 -71t-186.5 71
t-79.5 187z" />
    <glyph glyph-name="Uring" unicode="&#x16e;" horiz-adv-x="1589" 
d="M207 496v862h121v-862q0 -183 125 -293q126 -111 342 -111q214 0 340 111q129 114 129 293v862h118v-862q0 -231 -159 -375q-159 -141 -428 -141q-273 0 -430 139q-158 143 -158 377zM580 1694q0 88 62.5 147.5t154.5 59.5t155.5 -59.5t63.5 -147.5t-63.5 -147.5
t-155.5 -59.5t-154.5 59.5t-62.5 147.5zM678 1694q0 -52 33 -85.5t86 -33.5t85.5 33.5t32.5 85.5t-32.5 86.5t-85.5 34.5t-86 -34.5t-33 -86.5z" />
    <glyph glyph-name="uring" unicode="&#x16f;" horiz-adv-x="1206" 
d="M920 410v551h116v-572q0 -182 -116 -295q-114 -114 -316 -114t-317 112q-117 114 -117 291v578h119v-551q0 -153 83.5 -235.5t231.5 -82.5t232 82.5t84 235.5zM383 1292q0 88 63.5 147.5t155.5 59.5t154.5 -59.5t62.5 -147.5t-62.5 -147.5t-154.5 -59.5t-155.5 59.5
t-63.5 147.5zM483 1292q0 -52 33 -85t86 -33t86 33t33 85t-33 86.5t-86 34.5t-86 -34.5t-33 -86.5z" />
    <glyph glyph-name="Uhungarumlaut" unicode="&#x170;" horiz-adv-x="1589" 
d="M207 496v862h121v-862q0 -183 125 -293q126 -111 342 -111q214 0 340 111q129 114 129 293v862h118v-862q0 -231 -159 -375q-159 -141 -428 -141q-273 0 -430 139q-158 143 -158 377zM1032 1806h148l-203 -333h-96zM707 1806h147l-205 -333h-94z" />
    <glyph glyph-name="uhungarumlaut" unicode="&#x171;" horiz-adv-x="1206" 
d="M920 410v551h116v-572q0 -182 -116 -295q-114 -114 -316 -114t-317 112q-117 114 -117 291v578h119v-551q0 -153 83.5 -235.5t231.5 -82.5t232 82.5t84 235.5zM524 1450h148l-203 -336h-96zM852 1450h147l-202 -336h-97z" />
    <glyph glyph-name="Uogonek" unicode="&#x172;" horiz-adv-x="1589" 
d="M207 496v862h121v-862q0 -183 125 -293q126 -111 342 -111q214 0 340 111q129 114 129 293v862h118v-862q0 -189 -108.5 -321t-298.5 -175h2q-94 -57 -150.5 -120.5t-56.5 -112.5q0 -70 67 -92t173 26l30 -92q-68 -45 -172 -45q-100 0 -155.5 49t-55.5 135q0 128 158 234
q-3 0 -11 -1t-9 -1q-273 0 -430 139q-158 143 -158 377z" />
    <glyph glyph-name="uogonek" unicode="&#x173;" horiz-adv-x="1206" 
d="M920 410v551h116v-572q0 -144 -74 -247.5t-206 -141.5q-94 -57 -150.5 -120.5t-56.5 -112.5q0 -45 29.5 -72t85.5 -27t124 33l31 -92q-68 -45 -172 -45q-98 0 -154.5 49t-56.5 135q0 126 158 232q-196 3 -309 116q-115 115 -115 287v578h119v-551q0 -153 83.5 -235.5
t231.5 -82.5t232 82.5t84 235.5z" />
    <glyph glyph-name="Wcircumflex" unicode="&#x174;" horiz-adv-x="2031" 
d="M614 0h-145l-426 1358h127l377 -1208l405 1208h127l408 -1206l375 1206h127l-426 -1358h-146l-401 1206zM987 1839h72l264 -369h-125l-174 256l-176 -256h-123z" />
    <glyph glyph-name="wcircumflex" unicode="&#x175;" horiz-adv-x="1613" 
d="M446 111l297 839h127l297 -841l267 852h127l-316 -961h-155l-283 774l-283 -774h-155l-316 961h127zM770 1454h74l262 -367h-123l-174 256l-178 -256h-123z" />
    <glyph glyph-name="Ycircumflex" unicode="&#x176;" horiz-adv-x="1226" 
d="M553 539l-535 819h144l450 -694l453 694h141l-532 -817v-541h-121v539zM580 1839h71l262 -369h-122l-175 256l-178 -256h-123z" />
    <glyph glyph-name="ycircumflex" unicode="&#x177;" horiz-adv-x="1024" 
d="M164 961l354 -852l344 852h133l-446 -1084q-67 -155 -146.5 -226t-191.5 -71t-168 33l14 104q62 -26 146 -26q134 0 235 235l13 33l-416 1002h129zM479 1454h74l262 -367h-123l-174 256l-178 -256h-123z" />
    <glyph glyph-name="Ydieresis" unicode="&#x178;" horiz-adv-x="1226" 
d="M553 539l-535 819h144l450 -694l453 694h141l-532 -817v-541h-121v539zM844 1563q-23 -23 -55.5 -23t-53.5 21q-20 23 -20 55.5t20 52.5q20 23 53.5 23t53.5 -23q23 -20 23 -52.5t-21 -53.5zM494 1563q-23 -23 -55.5 -23t-53.5 21q-20 23 -20 55.5t20 52.5q20 23 53.5 23
t53.5 -23q23 -20 23 -52.5t-21 -53.5z" />
    <glyph glyph-name="Zacute" unicode="&#x179;" horiz-adv-x="1261" 
d="M106 0v100l889 1147h-868v111h1006v-133l-871 -1114h893v-111h-1049zM684 1806h139l-174 -333h-106z" />
    <glyph glyph-name="zacute" unicode="&#x17a;" horiz-adv-x="917" 
d="M827 0h-721v102l549 752h-544v107h690v-105l-549 -750h575v-106zM518 1450h139l-174 -336h-106z" />
    <glyph glyph-name="Zdotaccent" unicode="&#x17b;" horiz-adv-x="1261" 
d="M106 0v100l889 1147h-868v111h1006v-133l-871 -1114h893v-111h-1049zM680 1563q-20 -23 -52.5 -23t-56.5 21q-20 23 -20 55.5t20 52.5q23 23 56 23t53 -23q23 -20 23 -53t-23 -53z" />
    <glyph glyph-name="zdotaccent" unicode="&#x17c;" horiz-adv-x="917" 
d="M827 0h-721v102l549 752h-544v107h690v-105l-549 -750h575v-106zM530 1227q-20 -23 -53.5 -23t-54.5 21q-20 23 -20 55.5t20 52.5q20 23 54 23t54 -23q23 -20 23 -53t-23 -53z" />
    <glyph glyph-name="Zcaron" unicode="&#x17d;" horiz-adv-x="1261" 
d="M106 0v100l889 1147h-868v111h1006v-133l-871 -1114h893v-111h-1049zM676 1466h-74l-262 369h123l174 -256l178 256h123z" />
    <glyph glyph-name="zcaron" unicode="&#x17e;" horiz-adv-x="917" 
d="M827 0h-721v102l549 752h-544v107h690v-105l-549 -750h575v-106zM500 1087h-74l-262 367h123l174 -256l178 256h123z" />
    <glyph glyph-name="Schwa" unicode="&#x18f;" horiz-adv-x="1499" 
d="M117 651q0 4 4 78h1139q-12 236 -173 385q-157 148 -405 148q-139 0 -243 -24.5t-226 -86.5l-29 117q216 110 498 110q315 0 506 -194q192 -192 192 -512q0 -318 -174 -504t-465 -186q-288 0 -456 180t-168 489zM741 88q236 0 375 145q141 144 141 390h-1026
q0 -248 138 -392q137 -143 372 -143z" />
    <glyph glyph-name="florin" unicode="&#x192;" horiz-adv-x="1126" 
d="M455 375l49 399h-197l12 98h199l19 154q17 161 116.5 251.5t257.5 90.5q85 0 140 -25l-23 -94q-49 19 -104 19q-240 0 -275 -250l-18 -146h301l-12 -98h-297l-52 -401q-25 -188 -120.5 -290.5t-245.5 -102.5q-34 0 -76 9.5t-63 20.5l24 94q39 -22 109 -22q107 0 172.5 77
t83.5 216z" />
    <glyph glyph-name="Nhookleft" unicode="&#x19d;" horiz-adv-x="1675" 
d="M1331 1358h121v-1358h-135l-981 1194v-1327q0 -135 -69 -211t-193 -76q-78 0 -133 25l16 102q47 -18 111 -18q72 0 109.5 48t37.5 140v1481h135l981 -1190v1190z" />
    <glyph glyph-name="Gcaron" unicode="&#x1e6;" horiz-adv-x="1538" 
d="M1337 1278l-12 -119q-193 105 -444 105q-285 0 -465 -162q-178 -163 -178 -420q0 -261 182 -428q185 -164 477 -164q246 0 381 78v457h-473v108h588v-635q-190 -118 -486 -118q-229 -3 -411.5 86.5t-283 251t-97.5 364.5q-3 151 54 281t158.5 221.5t246 143t311.5 50.5
q253 0 452 -100zM907 1466h-71l-265 369h123l174 -256l179 256h122z" />
    <glyph glyph-name="gcaron" unicode="&#x1e7;" horiz-adv-x="1294" 
d="M989 53v131q-58 -93 -163.5 -148.5t-233.5 -55.5q-211 0 -348 143q-140 146 -140 358q0 209 140 355q139 145 348 145q128 0 233.5 -55t163.5 -148v183h121v-887q0 -102 -33.5 -190.5t-99.5 -157t-172.5 -107.5t-243.5 -39q-87 0 -191 21t-175 57l18 113q165 -82 352 -82
q71 0 133.5 13.5t116 42.5t92 71.5t60.5 103t22 133.5zM598 870q-162 0 -268 -112q-107 -113 -107 -277q0 -165 107 -278t268 -113q170 0 283 113q114 114 114 278q0 163 -114 277q-112 112 -283 112zM637 1087h-74l-262 367h123l174 -256l178 256h123z" />
    <glyph glyph-name="Oogonek" unicode="&#x1ea;" horiz-adv-x="1660" 
d="M115 672q-3 198 91.5 361.5t259 255.5t361.5 89q199 3 365.5 -89t262 -255.5t91.5 -361.5q0 -255 -147 -436q-143 -180 -383 -236q-94 -57 -149.5 -120t-55.5 -113q0 -70 67 -92t171 26l32 -92q-68 -45 -174 -45q-98 0 -153.5 49t-55.5 135q0 130 156 232h-27
q-197 -4 -361.5 85t-259 249.5t-91.5 357.5zM236 672q0 -166 77 -300t212 -209t302 -75q258 0 428 164q170 167 170 420q0 258 -170 428q-168 168 -428 168q-168 0 -303 -76.5t-211.5 -212.5t-76.5 -307z" />
    <glyph glyph-name="oogonek" unicode="&#x1eb;" horiz-adv-x="1224" 
d="M102 479q0 211 146 357q145 145 362 145q220 0 365 -145q147 -144 147 -357q0 -174 -100 -303q-101 -130 -262 -176q-94 -57 -150.5 -120.5t-56.5 -112.5q0 -70 67 -92t173 26l30 -92q-68 -45 -172 -45q-98 0 -154.5 49t-56.5 135q0 128 158 234q-137 0 -252.5 67
t-181 181.5t-62.5 248.5zM334 758q-113 -113 -113 -279q0 -162 111 -276q113 -113 278 -113q169 0 279 113q112 112 112 276q0 167 -112 279q-109 112 -279 112q-167 0 -276 -112z" />
    <glyph glyph-name="Aringacute" unicode="&#x1fa;" horiz-adv-x="1318" 
d="M584 1358h157l562 -1358h-123l-144 346h-747l-144 -346h-127zM991 455l-329 794l-328 -794h657zM444 1694q0 88 64 147.5t156 59.5t154.5 -59.5t62.5 -147.5t-62.5 -147.5t-154.5 -59.5t-156 59.5t-64 147.5zM545 1694q0 -52 33 -85.5t86 -33.5t85.5 33.5t32.5 85.5
t-32.5 86.5t-85.5 34.5t-86 -34.5t-33 -86.5zM780 2294h140l-175 -334h-106z" />
    <glyph glyph-name="aringacute" unicode="&#x1fb;" horiz-adv-x="1294" 
d="M989 961h121v-961h-121v184q-58 -93 -163.5 -148.5t-233.5 -55.5q-211 0 -348 143q-140 146 -140 358q0 209 140 355q139 145 348 145q128 0 233.5 -55t163.5 -148v183zM598 870q-162 0 -268 -112q-107 -113 -107 -277q0 -165 107 -278t268 -113q170 0 283 113
q114 114 114 278q0 163 -114 277q-112 112 -283 112zM682 1909h137l-174 -334h-106zM373 1292q0 87 63 147t154 60q92 0 155.5 -59.5t63.5 -147.5t-63.5 -147.5t-155.5 -59.5q-91 0 -154 60t-63 147zM471 1292q0 -51 34 -84.5t85 -33.5q54 0 87.5 33.5t33.5 84.5
q0 52 -34 86.5t-87 34.5q-51 0 -85 -35t-34 -86z" />
    <glyph glyph-name="AEacute" unicode="&#x1fc;" horiz-adv-x="1951" 
d="M1837 0h-963v346h-555l-213 -346h-139l836 1358h1014v-109h-822v-495h715v-111h-715v-534h842v-109zM874 455v794l-489 -794h489zM1354 1806h137l-172 -333h-109z" />
    <glyph glyph-name="aeacute" unicode="&#x1fd;" horiz-adv-x="1796" 
d="M1610 182l26 -106q-143 -96 -317 -96q-153 0 -270 67t-179 189q-49 -116 -169 -186t-263 -70q-157 0 -250.5 74t-93.5 202q0 135 118 215t312 80q146 0 295 -35v78q0 130 -85 201t-245 71q-76 0 -166.5 -20.5t-152.5 -52.5l-12 110q68 35 162.5 56.5t175.5 21.5
q146 0 248.5 -51t150.5 -146q62 93 158.5 144t212.5 51q146 1 252 -76.5t149 -199t19 -257.5h-746q10 -109 66 -191t134.5 -121.5t164.5 -39.5q95 0 163 18t142 70zM442 80q137 0 246 80q107 82 131 192v74q-149 31 -299 31q-141 0 -223 -51t-82 -144q0 -84 62 -133t165 -49
zM944 549h629q-6 142 -88 230.5t-215 88.5q-134 0 -226 -92q-91 -91 -100 -227zM963 1450h137l-172 -336h-109z" />
    <glyph glyph-name="Oslashacute" unicode="&#x1fe;" horiz-adv-x="1662" 
d="M117 672q0 201 91.5 361.5t254.5 252.5q164 92 364 92t367 -92l117 166l88 -68l-111 -157q123 -98 190.5 -241.5t67.5 -313.5q0 -151 -54.5 -280t-149.5 -219.5t-228.5 -141.5t-286.5 -51q-196 0 -352 81l-117 -167l-84 69l109 156q-128 94 -197 237.5t-69 315.5z
M236 672q0 -141 56 -259.5t157 -199.5l681 981q-139 74 -303 74q-254 0 -424 -170q-167 -167 -167 -426zM1427 672q0 140 -53.5 259t-150.5 199l-682 -974q133 -68 286 -68q260 0 430 164q170 167 170 420zM956 1806h138l-172 -333h-109z" />
    <glyph glyph-name="oslashacute" unicode="&#x1ff;" horiz-adv-x="1136" 
d="M59 479q0 211 146 357q145 145 364 145q154 0 281 -80l145 180l78 -63l-143 -178q70 -70 109.5 -163.5t39.5 -197.5q0 -212 -147 -356q-143 -143 -363 -143q-155 0 -276 75l-139 -172l-76 62l137 170q-74 68 -115 163.5t-41 200.5zM178 479q0 -160 111 -274l489 606
q-92 59 -209 59q-168 0 -280 -112q-111 -114 -111 -279zM958 479q0 158 -102 269l-491 -605q95 -53 204 -53q167 0 277 113q112 112 112 276zM690 1450h139l-174 -336h-106z" />
    <glyph glyph-name="Scommaaccent" unicode="&#x218;" horiz-adv-x="1153" 
d="M696 596l-239 82q-172 59 -253 137t-81 199q0 170 126 267t349 97q205 0 385 -73l-16 -109q-189 74 -367 74q-165 0 -258.5 -67.5t-93.5 -186.5q0 -78 49 -127q21 -21 57 -41q17 -10 34.5 -18t30 -12.5t36.5 -13.5t41 -16q4 -2 8 -2l227 -77q177 -62 250.5 -145.5
t73.5 -215.5q0 -172 -129.5 -270t-360.5 -98q-216 0 -440 94l14 119q97 -49 210.5 -76t213.5 -27q176 0 275.5 70.5t99.5 193.5q0 85 -56 141.5t-186 100.5zM602 -508h-98l14 379h135z" />
    <glyph glyph-name="scommaaccent" unicode="&#x219;" horiz-adv-x="929" 
d="M465 543l88 -17q139 -26 212 -93t73 -167q0 -133 -100 -209.5t-273 -76.5q-200 0 -354 71l18 115q125 -76 328 -76q123 0 192.5 43t69.5 121q0 72 -57.5 110t-186.5 62l-106 20q-265 50 -265 246q0 135 101.5 212t279.5 77q174 0 293 -49l-18 -107q-127 47 -264 47
q-125 0 -196 -44.5t-71 -122.5q1 -73 56 -106.5t180 -55.5zM500 -508h-99l15 379h137z" />
    <glyph glyph-name="uni021A" unicode="&#x21a;" horiz-adv-x="1118" 
d="M1079 1358v-111h-461v-1247h-16l-35 -102q93 -6 148 -49.5t55 -112.5q0 -80 -65 -126t-177 -46q-70 0 -129 16v101q59 -21 119 -21q139 0 139 76q0 82 -159 82h-49l65 182h-14v1247h-461v111h1040z" />
    <glyph glyph-name="uni021B" unicode="&#x21b;" horiz-adv-x="751" 
d="M397 -182h-49l66 178q-87 25 -134 94t-47 178v586h-184v107h182v307h123v-307h328v-107h-328v-557q0 -103 46 -156t128 -53q105 0 172 31l17 -105q-74 -34 -195 -34q-20 0 -26 2l-27 -84q91 -6 146 -49.5t55 -112.5q0 -80 -63.5 -126t-178.5 -46q-70 0 -129 16v101
q58 -21 121 -21q137 0 137 76q0 82 -160 82z" />
    <glyph glyph-name="dotlessj" unicode="&#x237;" horiz-adv-x="501" 
d="M197 -113v1074h118v-1084q0 -140 -71.5 -218.5t-198.5 -78.5q-88 0 -143 25l14 102q52 -18 123 -18q158 0 158 198z" />
    <glyph glyph-name="schwa" unicode="&#x259;" horiz-adv-x="1169" 
d="M186 778l-24 107q158 96 356 96q244 0 395 -139q152 -140 152 -363q0 -213 -139 -358q-138 -141 -355 -141q-121 -1 -219 45.5t-156 123t-81 175t-2 200.5h823q-15 159 -135 250q-121 92 -269 92q-107 0 -185 -18.5t-161 -69.5zM934 422h-711q8 -148 100 -238t244 -90
q149 0 252 92t115 236z" />
    <glyph glyph-name="nhookleft" unicode="&#x272;" horiz-adv-x="1247" 
d="M670 981q187 0 296 -103.5t109 -291.5v-586h-117v551q0 317 -309 317q-138 0 -233 -92q-94 -91 -94 -231v-545v-133q0 -135 -69.5 -211t-193.5 -76q-78 0 -133 25l17 102q47 -18 110 -18q148 0 148 188v1084h121v-168q54 92 145.5 140t202.5 48z" />
    <glyph glyph-name="circumflex" unicode="&#x2c6;" horiz-adv-x="978" 
d="M453 1839h71l264 -369h-122l-174 256l-179 -256h-123z" />
    <glyph glyph-name="caron" unicode="&#x2c7;" horiz-adv-x="978" 
d="M524 1466h-71l-263 369h123l174 -256l179 256h122z" />
    <glyph glyph-name="breve" unicode="&#x2d8;" horiz-adv-x="888" 
d="M176 1749h113q4 -69 48 -112.5t107 -43.5t107.5 43.5t48.5 112.5h111q-6 -115 -80 -185.5t-187 -70.5t-187 70.5t-81 185.5z" />
    <glyph glyph-name="dotaccent" unicode="&#x2d9;" horiz-adv-x="530" 
d="M319 1563q-20 -23 -53.5 -23t-54.5 21q-20 23 -20 55.5t20 52.5q20 23 54 23t54 -23q23 -20 23 -53t-23 -53z" />
    <glyph glyph-name="ring" unicode="&#x2da;" horiz-adv-x="815" 
d="M190 1694q0 88 63 147.5t155 59.5t155.5 -59.5t63.5 -147.5t-63.5 -147.5t-155.5 -59.5t-155 59.5t-63 147.5zM289 1694q0 -52 33 -85.5t86 -33.5t85.5 33.5t32.5 85.5t-32.5 86.5t-85.5 34.5t-86 -34.5t-33 -86.5z" />
    <glyph glyph-name="ogonek" unicode="&#x2db;" horiz-adv-x="696" 
d="M410 29l73 -29q-93 -57 -148.5 -120t-55.5 -113q0 -70 66.5 -92t170.5 26l33 -92q-68 -45 -172 -45q-100 0 -155.5 49t-55.5 135q0 161 244 281z" />
    <glyph glyph-name="tilde" unicode="&#x2dc;" horiz-adv-x="1034" 
d="M387 1626q-36 0 -63 -18t-66 -60l-68 56q88 125 199 125q55 0 135 -41q79 -39 123 -39q36 0 63 17.5t66 59.5l70 -55q-88 -125 -195 -125q-60 0 -139 39q-84 41 -125 41z" />
    <glyph glyph-name="hungarumlaut" unicode="&#x2dd;" horiz-adv-x="1005" 
d="M342 1806h147l-202 -333h-97zM670 1806h145l-203 -333h-96z" />
    <glyph glyph-name="acutecomb" unicode="&#x301;" horiz-adv-x="659" 
d="M332 2277h137l-172 -333h-107z" />
    <glyph glyph-name="pi" unicode="&#x3c0;" horiz-adv-x="1251" 
d="M59 1104h1061v-117h-186v-639q0 -157 45.5 -214.5t165.5 -47.5v-98q-36 -4 -60 -4q-264 0 -264 315v688h-471v-987h-112v987h-179v117z" />
    <glyph glyph-name="Wgrave" unicode="&#x1e80;" horiz-adv-x="2031" 
d="M614 0h-145l-426 1358h127l377 -1208l405 1208h127l408 -1206l375 1206h127l-426 -1358h-146l-401 1206zM938 1473l-172 333h137l141 -333h-106z" />
    <glyph glyph-name="wgrave" unicode="&#x1e81;" horiz-adv-x="1613" 
d="M446 111l297 839h127l297 -841l267 852h127l-316 -961h-155l-283 774l-283 -774h-155l-316 961h127zM741 1114l-172 336h138l143 -336h-109z" />
    <glyph glyph-name="Wacute" unicode="&#x1e82;" horiz-adv-x="2031" 
d="M614 0h-145l-426 1358h127l377 -1208l405 1208h127l408 -1206l375 1206h127l-426 -1358h-146l-401 1206zM1122 1806h138l-173 -333h-106z" />
    <glyph glyph-name="wacute" unicode="&#x1e83;" horiz-adv-x="1613" 
d="M446 111l297 839h127l297 -841l267 852h127l-316 -961h-155l-283 774l-283 -774h-155l-316 961h127zM895 1450h139l-174 -336h-106z" />
    <glyph glyph-name="Wdieresis" unicode="&#x1e84;" horiz-adv-x="2031" 
d="M614 0h-145l-426 1358h127l377 -1208l405 1208h127l408 -1206l375 1206h127l-426 -1358h-146l-401 1206zM899 1563q-20 -23 -53.5 -23t-54.5 21q-20 23 -20 55.5t20 52.5q20 23 54 23t54 -23q23 -20 23 -53t-23 -53zM1249 1563q-20 -23 -53.5 -23t-54.5 21
q-20 23 -20 55.5t20 52.5q20 23 54 23t54 -23q23 -20 23 -53t-23 -53z" />
    <glyph glyph-name="wdieresis" unicode="&#x1e85;" horiz-adv-x="1613" 
d="M446 111l297 839h127l297 -841l267 852h127l-316 -961h-155l-283 774l-283 -774h-155l-316 961h127zM682 1227q-20 -20 -53.5 -20t-53.5 20t-20 54t20 54t53.5 20t53.5 -20q23 -20 23 -54t-23 -54zM1032 1227q-20 -20 -52.5 -20t-55.5 20q-20 20 -20 54t20 54
q23 20 55.5 20t52.5 -20q23 -20 23 -54t-23 -54z" />
    <glyph glyph-name="uni1E9E" unicode="&#x1e9e;" horiz-adv-x="1415" 
d="M1196 1235v-86l-373 -393q220 -3 351 -107q133 -106 133 -270q0 -181 -119 -291q-120 -108 -320 -108q-165 0 -280 47l12 108q128 -45 262 -45q156 0 242 75t86 204q0 134 -105 210t-286 76q-21 0 -68 -3t-49 -3v105l403 424q-137 90 -344 90q-195 0 -306 -120t-111 -333
v-815h-119v834q0 256 145.5 400t403.5 144q241 0 442 -143z" />
    <glyph glyph-name="Adotbelow" unicode="&#x1ea0;" horiz-adv-x="1318" 
d="M584 1358h157l562 -1358h-123l-144 346h-747l-144 -346h-127zM991 455l-329 794l-328 -794h657zM715 -336q-23 -20 -56 -20t-53 20t-20 53t20 56q20 20 53.5 20t53.5 -20q23 -23 23 -55.5t-21 -53.5z" />
    <glyph glyph-name="adotbelow" unicode="&#x1ea1;" horiz-adv-x="1294" 
d="M989 961h121v-961h-121v184q-58 -93 -163.5 -148.5t-233.5 -55.5q-211 0 -348 143q-140 146 -140 358q0 209 140 355q139 145 348 145q128 0 233.5 -55t163.5 -148v183zM598 870q-162 0 -268 -112q-107 -113 -107 -277q0 -165 107 -278t268 -113q170 0 283 113
q114 114 114 278q0 163 -114 277q-112 112 -283 112zM662 -336q-20 -20 -53 -20t-56 20q-20 20 -20 53t20 56q23 20 56 20t53 -20q23 -23 23 -56t-23 -53z" />
    <glyph glyph-name="Edotbelow" unicode="&#x1eb8;" horiz-adv-x="1320" 
d="M1206 109v-109h-983v1358h961v-109h-842v-495h737v-111h-737v-534h864zM782 -336q-20 -20 -52.5 -20t-55.5 20q-20 20 -20 53t20 56q23 20 55.5 20t52.5 -20q23 -23 23 -56t-23 -53z" />
    <glyph glyph-name="edotbelow" unicode="&#x1eb9;" horiz-adv-x="1169" 
d="M981 182l27 -106q-158 -96 -357 -96q-244 0 -395 139q-152 140 -152 360q0 216 140 359q137 143 354 143q121 1 218.5 -45.5t155.5 -123.5t81 -175t4 -201h-824q15 -160 134 -250q121 -92 270 -92q108 0 185.5 18t158.5 70zM236 539h708q-6 145 -98.5 236t-243.5 91
t-254 -92q-100 -90 -112 -235zM686 -336q-20 -20 -52.5 -20t-55.5 20q-20 20 -20 53t20 56q23 20 55.5 20t52.5 -20q23 -23 23 -56t-23 -53z" />
    <glyph glyph-name="Etilde" unicode="&#x1ebc;" horiz-adv-x="1320" 
d="M1206 109v-109h-983v1358h961v-109h-842v-495h737v-111h-737v-534h864zM582 1626q-36 0 -64 -18t-67 -60l-68 56q88 125 199 125q57 0 137 -41q79 -39 121 -39q36 0 64.5 18t66.5 59l67 -55q-88 -125 -194 -125q-60 0 -139 39q-84 41 -123 41z" />
    <glyph glyph-name="etilde" unicode="&#x1ebd;" horiz-adv-x="1169" 
d="M981 182l27 -106q-158 -96 -357 -96q-244 0 -395 139q-152 140 -152 360q0 216 140 359q137 143 354 143q121 1 218.5 -45.5t155.5 -123.5t81 -175t4 -201h-824q15 -160 134 -250q121 -92 270 -92q108 0 185.5 18t158.5 70zM236 539h708q-6 145 -98.5 236t-243.5 91
t-254 -92q-100 -90 -112 -235zM455 1272q-36 0 -63.5 -18t-65.5 -62l-70 55q88 125 201 125q55 0 135 -41q79 -39 123 -39q36 0 63 18t66 60l67 -55q-88 -125 -192 -125q-57 0 -141 41t-123 41z" />
    <glyph glyph-name="Idotbelow" unicode="&#x1eca;" horiz-adv-x="565" 
d="M342 0h-119v1358h119v-1358zM340 -336q-20 -20 -53 -20t-56 20q-20 20 -20 53t20 56q23 20 56 20t53 -20q23 -23 23 -56t-23 -53z" />
    <glyph glyph-name="idotbelow" unicode="&#x1ecb;" horiz-adv-x="491" 
d="M305 0h-119v961h119v-961zM299 1229q-20 -23 -52.5 -23t-56.5 21q-20 23 -20 55.5t20 52.5q23 23 56 23t53 -23q23 -20 23 -53t-23 -53zM305 -336q-20 -20 -52.5 -20t-55.5 20q-20 20 -20 53t20 56q23 20 55.5 20t52.5 -20q23 -23 23 -56t-23 -53z" />
    <glyph glyph-name="Odotbelow" unicode="&#x1ecc;" horiz-adv-x="1660" 
d="M115 672q-3 198 91.5 361.5t259 255.5t361.5 89q199 3 365.5 -89t262 -255.5t91.5 -361.5q0 -201 -93.5 -359.5t-257.5 -245.5t-368 -87q-197 -4 -361.5 85t-259 249.5t-91.5 357.5zM236 672q0 -166 77 -300t212 -209t302 -75q258 0 428 164q170 167 170 420
q0 258 -170 428q-168 168 -428 168q-168 0 -303 -76.5t-211.5 -212.5t-76.5 -307zM891 -336q-23 -20 -56 -20t-53 20t-20 53t20 56q20 20 53.5 20t53.5 -20q23 -23 23 -55.5t-21 -53.5z" />
    <glyph glyph-name="odotbelow" unicode="&#x1ecd;" horiz-adv-x="1224" 
d="M248 125q-146 146 -146 354q0 211 146 357q145 145 362 145q220 0 365 -145q147 -144 147 -357q0 -212 -147 -356q-143 -143 -365 -143q-217 0 -362 145zM334 758q-113 -113 -113 -279q0 -162 111 -276q113 -113 278 -113q169 0 279 113q112 112 112 276q0 167 -112 279
q-109 112 -279 112q-167 0 -276 -112zM678 -336q-23 -20 -56 -20t-53 20t-20 53t20 56q20 20 53.5 20t53.5 -20q23 -23 23 -55.5t-21 -53.5z" />
    <glyph glyph-name="Udotbelow" unicode="&#x1ee4;" horiz-adv-x="1589" 
d="M207 496v862h121v-862q0 -183 125 -293q126 -111 342 -111q214 0 340 111q129 114 129 293v862h118v-862q0 -231 -159 -375q-159 -141 -428 -141q-273 0 -430 139q-158 143 -158 377zM850 -336q-23 -20 -56 -20t-53 20t-20 53t20 56q20 20 53.5 20t53.5 -20
q23 -23 23 -55.5t-21 -53.5z" />
    <glyph glyph-name="udotbelow" unicode="&#x1ee5;" horiz-adv-x="1206" 
d="M920 410v551h116v-572q0 -182 -116 -295q-114 -114 -316 -114t-317 112q-117 114 -117 291v578h119v-551q0 -153 83.5 -235.5t231.5 -82.5t232 82.5t84 235.5zM668 -336q-23 -20 -56 -20t-53 20t-20 53t20 56q20 20 53.5 20t53.5 -20q23 -23 23 -55.5t-21 -53.5z" />
    <glyph glyph-name="Ygrave" unicode="&#x1ef2;" horiz-adv-x="1226" 
d="M553 539l-535 819h144l450 -694l453 694h141l-532 -817v-541h-121v539zM555 1473l-172 333h137l142 -333h-107z" />
    <glyph glyph-name="ygrave" unicode="&#x1ef3;" horiz-adv-x="1024" 
d="M164 961l354 -852l344 852h133l-446 -1084q-67 -155 -146.5 -226t-191.5 -71t-168 33l14 104q62 -26 146 -26q134 0 235 235l13 33l-416 1002h129zM440 1114l-172 336h138l143 -336h-109z" />
    <glyph glyph-name="Ytilde" unicode="&#x1ef8;" horiz-adv-x="1226" 
d="M553 539l-535 819h144l450 -694l453 694h141l-532 -817v-541h-121v539zM494 1626q-36 0 -65 -18t-67 -60l-67 56q88 125 199 125q57 0 137 -41q79 -39 121 -39q36 0 64.5 18t66.5 59l67 -55q-88 -125 -194 -125q-61 0 -140 39q-84 41 -122 41z" />
    <glyph glyph-name="ytilde" unicode="&#x1ef9;" horiz-adv-x="1024" 
d="M164 961l354 -852l344 852h133l-446 -1084q-67 -155 -146.5 -226t-191.5 -71t-168 33l14 104q62 -26 146 -26q134 0 235 235l13 33l-416 1002h129zM377 1272q-37 0 -65.5 -18.5t-65.5 -61.5l-68 55q88 125 199 125q53 0 137 -41q79 -39 121 -39q36 0 63 17.5t68 60.5
l68 -55q-88 -125 -195 -125q-55 0 -139 41t-123 41z" />
    <glyph glyph-name="uni2000" unicode="&#x2000;" horiz-adv-x="1146" 
 />
    <glyph glyph-name="uni2001" unicode="&#x2001;" horiz-adv-x="2293" 
 />
    <glyph glyph-name="uni2002" unicode="&#x2002;" horiz-adv-x="1146" 
 />
    <glyph glyph-name="uni2003" unicode="&#x2003;" horiz-adv-x="2293" 
 />
    <glyph glyph-name="uni2004" unicode="&#x2004;" horiz-adv-x="763" 
 />
    <glyph glyph-name="uni2005" unicode="&#x2005;" horiz-adv-x="573" 
 />
    <glyph glyph-name="uni2006" unicode="&#x2006;" horiz-adv-x="382" 
 />
    <glyph glyph-name="uni2007" unicode="&#x2007;" horiz-adv-x="382" 
 />
    <glyph glyph-name="uni2008" unicode="&#x2008;" horiz-adv-x="286" 
 />
    <glyph glyph-name="uni2009" unicode="&#x2009;" horiz-adv-x="458" 
 />
    <glyph glyph-name="uni200A" unicode="&#x200a;" horiz-adv-x="126" 
 />
    <glyph glyph-name="uni2010" unicode="&#x2010;" horiz-adv-x="980" 
d="M162 637h655v-119h-655v119z" />
    <glyph glyph-name="uni2011" unicode="&#x2011;" horiz-adv-x="980" 
d="M162 637h655v-119h-655v119z" />
    <glyph glyph-name="figuredash" unicode="&#x2012;" horiz-adv-x="980" 
d="M162 637h655v-119h-655v119z" />
    <glyph glyph-name="endash" unicode="&#x2013;" horiz-adv-x="1310" 
d="M162 637h987v-119h-987v119z" />
    <glyph glyph-name="emdash" unicode="&#x2014;" horiz-adv-x="2351" 
d="M162 637h2027v-119h-2027v119z" />
    <glyph glyph-name="quoteleft" unicode="&#x2018;" horiz-adv-x="409" 
d="M332 1427l-105 -434h-125l125 434h105z" />
    <glyph glyph-name="quoteright" unicode="&#x2019;" horiz-adv-x="399" 
d="M113 993l104 434h125l-125 -434h-104z" />
    <glyph glyph-name="quotesinglbase" unicode="&#x201a;" horiz-adv-x="395" 
d="M25 -256l106 434h125l-125 -434h-106z" />
    <glyph glyph-name="quotedblleft" unicode="&#x201c;" horiz-adv-x="638" 
d="M332 1427l-105 -434h-125l125 434h105zM561 1427l-104 -434h-125l125 434h104z" />
    <glyph glyph-name="quotedblright" unicode="&#x201d;" horiz-adv-x="630" 
d="M342 993l107 434h124l-124 -434h-107zM113 993l104 434h125l-125 -434h-104z" />
    <glyph glyph-name="quotedblbase" unicode="&#x201e;" horiz-adv-x="632" 
d="M256 -256l104 434h125l-125 -434h-104zM27 -256l104 434h125l-125 -434h-104z" />
    <glyph glyph-name="dagger" unicode="&#x2020;" horiz-adv-x="774" 
d="M446 1300h234v-104h-234v-688h-118v688h-234v104h234v308h118v-308z" />
    <glyph glyph-name="daggerdbl" unicode="&#x2021;" horiz-adv-x="854" 
d="M485 1374h236v-104h-236v-424h236v-105h-236v-264h-118v264h-232v105h232v424h-232v104h232v264h118v-264z" />
    <glyph glyph-name="bullet" unicode="&#x2022;" horiz-adv-x="696" 
d="M346 520q-66 0 -108.5 43.5t-42.5 110.5q0 66 42.5 109.5t108.5 43.5q69 0 112.5 -43.5t43.5 -109.5q0 -67 -44 -110.5t-112 -43.5z" />
    <glyph glyph-name="ellipsis" unicode="&#x2026;" horiz-adv-x="1245" 
d="M258 14q-20 -20 -54 -20t-54 20t-20 53.5t20 53.5q20 23 54 23t54 -23q23 -20 23 -53.5t-23 -53.5zM678 14q-23 -20 -56 -20t-53 20t-20 53.5t20 53.5q20 23 53.5 23t53.5 -23q23 -20 23 -53t-21 -54zM1096 14q-20 -20 -53 -20t-56 20q-20 20 -20 53.5t20 53.5
q23 23 56 23t53 -23q23 -20 23 -53.5t-23 -53.5z" />
    <glyph glyph-name="uni202F" unicode="&#x202f;" horiz-adv-x="458" 
 />
    <glyph glyph-name="perthousand" unicode="&#x2030;" horiz-adv-x="2729" 
d="M49 1036q0 146 101 244t247 98q150 0 248 -98q100 -97 100 -244q0 -146 -100 -243q-99 -99 -248 -99q-145 0 -247 99q-101 101 -101 243zM993 322q0 145 101 243q102 99 247 99q149 0 248 -99q101 -98 101 -243q0 -146 -101 -244q-98 -98 -248 -98q-146 0 -247 98
t-101 244zM1790 322q0 146 100 243q102 99 248 99q149 0 248 -99q100 -97 100 -243q0 -147 -100 -244q-98 -98 -248 -98q-147 0 -248 98q-100 97 -100 244zM158 1036q0 -103 68 -172t171 -69q104 0 173 69t69 172t-69 172.5t-173 69.5q-102 0 -170.5 -69.5t-68.5 -172.5z
M1102 322q0 -103 67.5 -172.5t171.5 -69.5t173 69.5t69 172.5t-69 172t-173 69t-171.5 -69t-67.5 -172zM1898 322q0 -103 68.5 -172.5t171.5 -69.5q104 0 173 69.5t69 172.5t-69 172t-173 69q-103 0 -171.5 -69t-68.5 -172zM557 0h-104v27l733 1331h102v-25z" />
    <glyph glyph-name="guilsinglleft" unicode="&#x2039;" horiz-adv-x="604" 
d="M233 479l265 -393h-129l-273 393l273 395h129z" />
    <glyph glyph-name="guilsinglright" unicode="&#x203a;" horiz-adv-x="604" 
d="M510 479l-272 -393h-132l265 393l-265 395h132z" />
    <glyph glyph-name="fraction" unicode="&#x2044;" horiz-adv-x="456" 
d="M-84 0h-104v27l735 1331h102v-25z" />
    <glyph glyph-name="uni205F" unicode="&#x205f;" horiz-adv-x="573" 
 />
    <glyph glyph-name="zerosuperior" unicode="&#x2070;" horiz-adv-x="880" 
d="M438 512q-88 0 -155.5 36t-107.5 97.5t-59.5 137t-19.5 161.5q0 88 19.5 163.5t59 137.5t107 97.5t156.5 35.5q73 0 132.5 -23.5t98.5 -64t65.5 -96.5t38 -118t11.5 -132q0 -69 -11.5 -131t-38.5 -117.5t-66 -96t-98 -64t-132 -23.5zM203 944q0 -142 59 -238t176 -96
q80 0 136 48.5t80 122t24 163.5q0 93 -23 166.5t-79 122.5t-138 49q-78 0 -133 -49t-78.5 -123t-23.5 -166z" />
    <glyph glyph-name="foursuperior" unicode="&#x2074;" horiz-adv-x="757" 
d="M332 1358h121l-269 -529h287v230h107v-230h120v-94h-120v-205h-107v205h-412v76z" />
    <glyph glyph-name="fivesuperior" unicode="&#x2075;" horiz-adv-x="751" 
d="M152 936l-27 37l41 385h459v-96h-371l-23 -215q36 8 97 8q63 0 121.5 -16t108 -47t79 -83.5t29.5 -120.5q0 -75 -27.5 -130.5t-75.5 -86.5t-105.5 -46t-125.5 -15q-143 0 -250 49l10 105q116 -58 225 -58q102 0 169 42t67 130q0 90 -67 136.5t-175 46.5q-73 0 -159 -25z
" />
    <glyph glyph-name="sixsuperior" unicode="&#x2076;" horiz-adv-x="811" 
d="M418 608q92 0 147.5 50.5t55.5 132.5q0 89 -55 137.5t-140 48.5q-88 0 -146.5 -50t-58.5 -134q0 -80 54 -132.5t143 -52.5zM459 1378q109 0 213 -43l-10 -100q-98 49 -201 49q-233 0 -254 -303q90 90 225 90q127 0 212 -74.5t85 -201.5q0 -128 -87 -204.5t-230 -76.5
q-83 0 -145 29.5t-98.5 82.5t-54.5 120t-18 147q0 485 363 485z" />
    <glyph glyph-name="sevensuperior" unicode="&#x2077;" horiz-adv-x="622" 
d="M580 1280l-340 -750h-117l330 727h-394v101h521v-78z" />
    <glyph glyph-name="eightsuperior" unicode="&#x2078;" horiz-adv-x="825" 
d="M414 1378q129 0 212 -64t83 -169q0 -115 -115 -180q135 -65 135 -211q0 -109 -89 -174.5t-226 -65.5q-138 0 -228 66t-90 174q0 144 135 211q-114 65 -114 180q0 104 84 168.5t213 64.5zM205 758q0 -68 58.5 -109t150.5 -41t150.5 41t58.5 109q0 76 -58 119t-153 43
q-93 0 -150 -43t-57 -119zM414 1284q-84 0 -136.5 -38.5t-52.5 -104.5q0 -60 53.5 -95.5t135.5 -35.5q81 0 134.5 36t53.5 95q0 66 -52.5 104.5t-135.5 38.5z" />
    <glyph glyph-name="ninesuperior" unicode="&#x2079;" horiz-adv-x="804" 
d="M393 1284q-93 0 -148 -49t-55 -135q0 -82 53.5 -132t141.5 -50t146.5 51.5t58.5 130.5q0 81 -55 132.5t-142 51.5zM350 514q-110 0 -211 43l11 102q89 -51 200 -51q233 0 254 303q-43 -42 -104.5 -67t-122.5 -25q-127 0 -211 78q-84 81 -84 199q0 129 84.5 205.5
t230.5 76.5q149 0 229.5 -98t80.5 -281q0 -245 -88.5 -365t-268.5 -120z" />
    <glyph glyph-name="zeroinferior" unicode="&#x2080;" horiz-adv-x="880" 
d="M438 -20q-88 0 -155.5 35.5t-107.5 97t-59.5 137t-19.5 162.5q0 88 19.5 163.5t59 137.5t107 97.5t156.5 35.5q73 0 132.5 -24t98.5 -64.5t65.5 -96.5t38 -118t11.5 -131t-11.5 -131t-38.5 -117.5t-66 -96t-98 -64t-132 -23.5zM203 412q0 -142 59 -238t176 -96
q61 0 108 27t75.5 74t42.5 106t14 127q0 93 -23 166.5t-79 122.5t-138 49q-78 0 -133 -49t-78.5 -123t-23.5 -166z" />
    <glyph glyph-name="oneinferior" unicode="&#x2081;" horiz-adv-x="481" 
d="M332 0h-107v733h-180v94h287v-827z" />
    <glyph glyph-name="twoinferior" unicode="&#x2082;" horiz-adv-x="729" 
d="M422 279l-201 -185h426v-94h-561v88l264 252q77 74 111.5 131.5t34.5 116.5q0 73 -47.5 115t-129.5 42q-93 0 -202 -59l-17 98q117 60 232 60q127 0 199.5 -68t72.5 -186q0 -76 -43 -150t-139 -161z" />
    <glyph glyph-name="threeinferior" unicode="&#x2083;" horiz-adv-x="755" 
d="M207 379v88l262 266h-350v94h504v-71l-261 -260h7q139 0 223 -71t84 -181q0 -88 -51 -149.5t-127 -88t-168 -26.5q-149 0 -256 61l16 104q130 -65 229 -65q114 0 179 43t65 113q0 81 -59 123t-154 42q-57 0 -143 -22z" />
    <glyph glyph-name="fourinferior" unicode="&#x2084;" horiz-adv-x="759" 
d="M334 827h121l-269 -528h287v229h107v-229h120v-94h-120v-205h-107v205h-412v78z" />
    <glyph glyph-name="fiveinferior" unicode="&#x2085;" horiz-adv-x="751" 
d="M152 406l-27 36l41 385h459v-96h-371l-23 -215q36 8 97 8q63 0 121.5 -15.5t108 -46t79 -83.5t29.5 -121q0 -73 -27.5 -128.5t-75.5 -87t-106 -47t-125 -15.5q-143 0 -250 49l10 104q116 -55 225 -55q103 0 169.5 41t66.5 131q0 89 -67 134.5t-175 45.5q-77 0 -159 -24z
" />
    <glyph glyph-name="sixinferior" unicode="&#x2086;" horiz-adv-x="811" 
d="M418 74q93 0 148 49t55 133q0 89 -55 137.5t-140 48.5q-88 0 -146.5 -50t-58.5 -134q0 -81 54 -132.5t143 -51.5zM459 844q109 0 213 -43l-10 -103q-98 52 -201 52q-233 0 -254 -304q91 91 225 91q127 0 212 -76t85 -203q0 -128 -86.5 -203t-230.5 -75q-83 0 -145 29
t-98.5 81.5t-54.5 119t-18 146.5q0 488 363 488z" />
    <glyph glyph-name="seveninferior" unicode="&#x2087;" horiz-adv-x="622" 
d="M580 750l-340 -750h-115l330 727h-396v100h521v-77z" />
    <glyph glyph-name="eightinferior" unicode="&#x2088;" horiz-adv-x="825" 
d="M414 844q130 0 212.5 -64.5t82.5 -171.5q0 -113 -115 -178q135 -65 135 -211q0 -108 -89 -173.5t-226 -65.5q-138 0 -228 65.5t-90 173.5q0 143 135 211q-114 64 -114 178q0 107 83.5 171.5t213.5 64.5zM205 223q0 -68 58.5 -108.5t150.5 -40.5t150.5 40.5t58.5 108.5
q0 76 -58 118t-153 42q-93 0 -150 -42t-57 -118zM414 750q-84 0 -136.5 -39t-52.5 -107q0 -59 54 -95t135 -36q80 0 134 37t54 94q0 68 -52.5 107t-135.5 39z" />
    <glyph glyph-name="nineinferior" unicode="&#x2089;" horiz-adv-x="804" 
d="M393 750q-92 0 -147.5 -50t-55.5 -135q0 -84 53.5 -133t141.5 -49t146.5 51t58.5 129q0 82 -55.5 134.5t-141.5 52.5zM350 -20q-110 0 -211 43l11 102q89 -51 200 -51q233 0 254 303q-43 -42 -104.5 -67t-122.5 -25q-128 0 -211 77q-84 81 -84 199q0 130 84.5 206.5
t230.5 76.5q149 0 229.5 -99t80.5 -280q0 -245 -88.5 -365t-268.5 -120z" />
    <glyph glyph-name="Euro" unicode="&#x20ac;" horiz-adv-x="1443" 
d="M1296 176l15 8l22 -116q-3 -2 -67 -31q-150 -55 -318 -55q-254 0 -438 135q-184 138 -240 375h-188l10 88h164q-6 52 -6 102q0 32 2 59h-170l12 86h166q30 174 128 300t238 187.5t306 61.5q218 0 373 -82l-13 -112q-157 80 -362 80t-355 -117q-149 -113 -190 -318h576
l-13 -86h-575q-2 -27 -2 -59q0 -50 8 -102h549l-13 -88h-518q55 -184 207 -291q150 -105 344 -105q217 0 348 80z" />
    <glyph glyph-name="trademark" unicode="&#x2122;" horiz-adv-x="1566" 
d="M803 1255v-452h-103v604h91l249 -256l248 256h90v-604h-100v452l-234 -237h-8zM389 803h-104v510h-199v94h502v-94h-199v-510z" />
    <glyph glyph-name="estimated" unicode="&#x212e;" horiz-adv-x="1753" 
d="M1671 668v-23h-1255q-13 0 -13 -8v-361q0 -22 19 -47q185 -176 477 -176q150 0 280 51.5t220 147.5h112q-106 -127 -267 -199.5t-347 -72.5q-158 -3 -303.5 52.5t-250 150t-165.5 224t-57 269.5q-3 141 59.5 272t168 226t250 151t298.5 53q157 0 301 -57t247 -152.5
t164.5 -226.5t61.5 -274zM1386 725v358q0 25 -16 47q-87 84 -210.5 129.5t-260.5 45.5q-294 0 -475 -175q-21 -24 -21 -53v-352q0 -12 13 -12h964q6 0 6 12z" />
    <glyph glyph-name="onethird" unicode="&#x2153;" horiz-adv-x="1679" 
d="M1126 379v88l263 266h-351v94h502v-71l-260 -260h8q138 0 222.5 -71t84.5 -181q0 -88 -51 -149.5t-127.5 -88t-169.5 -26.5q-146 0 -256 61l19 104q130 -65 227 -65q115 0 180.5 43t65.5 113q0 81 -59 123t-154 42q-58 0 -144 -22zM401 0h-104v27l733 1331h103v-25z
M354 530h-106v734h-178v94h284v-828z" />
    <glyph glyph-name="twothirds" unicode="&#x2154;" horiz-adv-x="1896" 
d="M604 0h-104v27l733 1331h102v-25zM1327 379v88l262 266h-350v94h504v-71l-260 -260h6q138 0 222.5 -71t84.5 -181q0 -88 -51 -149.5t-127 -88t-168 -26.5q-149 0 -256 61l16 104q130 -65 230 -65q114 0 178.5 43t64.5 113q0 81 -59 123t-154 42q-57 0 -143 -22zM383 813
l-199 -182h426v-96h-561v90l264 249q77 74 111.5 131.5t34.5 116.5q0 73 -47 115.5t-129 42.5q-98 0 -203 -57l-17 96q115 59 232 59q127 0 199.5 -68t72.5 -186q0 -76 -43.5 -150t-140.5 -161z" />
    <glyph glyph-name="minus" unicode="&#x2212;" horiz-adv-x="1243" 
d="M170 752h903v-121h-903v121z" />
    <glyph glyph-name="uni2215" unicode="&#x2215;" horiz-adv-x="800" 
d="M88 0h-104v27l735 1331h102v-25z" />
    <glyph glyph-name="uni2219" unicode="&#x2219;" horiz-adv-x="698" 
d="M403 381q-20 -20 -54 -20t-54 20t-20 54t20 54t54 20t54 -20q23 -20 23 -54t-23 -54z" />
    <glyph glyph-name="approxequal" unicode="&#x2248;" horiz-adv-x="1255" 
d="M416 891q-91 0 -191 -100l-78 86q52 62 129 101.5t150 39.5q59 -1 115.5 -18.5t93.5 -38.5t87 -38.5t97 -17.5q93 0 191 101l77 -86q-53 -63 -128 -102.5t-150 -39.5q-58 0 -114 17.5t-93.5 39t-87.5 39t-98 17.5zM436 440q-92 0 -190 -98l-78 84q52 62 128.5 101.5
t149.5 39.5q59 0 115.5 -17t94 -38t87.5 -38t97 -17q92 0 190 98l78 -86q-52 -61 -128.5 -100t-150.5 -39q-59 0 -115.5 17t-93.5 38t-87 38t-97 17z" />
    <glyph glyph-name="notequal" unicode="&#x2260;" 
d="M645 483h535v-123h-588l-148 -329l-77 35l131 294h-328v123h381l172 391h-553v123h606l135 306l82 -35l-119 -271h306v-123h-361z" />
    <glyph glyph-name="lessequal" unicode="&#x2264;" horiz-adv-x="1357" 
d="M299 629h875v-117h-1012v164l1012 487v-135zM162 199h1012v-123h-1012v123z" />
    <glyph glyph-name="greaterequal" unicode="&#x2265;" horiz-adv-x="1361" 
d="M186 512v117h875l-875 399v135l1012 -487v-164h-1012zM186 76v123h1012v-123h-1012z" />
    <glyph glyph-name="uni25FC" unicode="&#x25fc;" horiz-adv-x="960" 
d="M0 0v961h961v-961h-961z" />
    <glyph glyph-name="commaaccent" unicode="&#xf6c3;" horiz-adv-x="530" 
d="M289 -508h-99l15 379h135z" />
    <glyph glyph-name="NULL" horiz-adv-x="0" 
 />
    <glyph glyph-name="CR" horiz-adv-x="681" 
 />
    <glyph glyph-name="_443" horiz-adv-x="0" 
 />
    <glyph glyph-name="A.alt" horiz-adv-x="1531" 
d="M326 815v-242h878v242q0 220 -111.5 331t-326.5 111q-217 0 -328.5 -111t-111.5 -331zM1204 0v463h-878v-463h-121v860q0 243 146.5 378.5t414.5 135.5t413.5 -134.5t145.5 -379.5v-860h-121z" />
    <glyph glyph-name="A.alt.smcp" horiz-adv-x="1191" 
d="M1028 637v-637h-121v332h-624v-332h-119v631q0 179 115.5 284t316.5 105q200 0 316 -104.5t116 -278.5zM283 610v-174h624v174q0 144 -83 221.5t-228 77.5q-148 0 -230.5 -77t-82.5 -222z" />
    <glyph glyph-name="A.smcp" horiz-adv-x="1015" 
d="M989 0h-125l-102 258h-506l-102 -258h-129l405 999h156zM719 365l-211 532l-209 -532h420z" />
    <glyph glyph-name="A.swsh" horiz-adv-x="1542" 
d="M1436 -72l-86 203l-90 215h-748l-143 -346h-127l522 1251h-211q-198 0 -299.5 -85t-101.5 -269q0 -19 4 -59l-103 18q-4 46 -4 66q0 211 130 323.5t372 112.5h414l561 -1358q85 -208 172 -335t201.5 -194.5t263.5 -68.5l-21 -104q-146 6 -246 45t-182 129
q-66 72 -100 122q-42 60 -92 158q-44 84 -86 176zM1214 455l-329 794l-330 -794h659z" />
    <glyph glyph-name="AE.smcp" horiz-adv-x="1519" 
d="M1415 106v-106h-735v250h-404l-153 -250h-141l618 999h801v-104h-600v-328h522v-104h-522v-357h614zM680 354v543l-338 -543h338z" />
    <glyph glyph-name="AEacute.smcp" horiz-adv-x="1519" 
d="M1098 1489h139l-174 -334h-107zM1415 106v-106h-735v250h-404l-153 -250h-141l618 999h801v-104h-600v-328h522v-104h-522v-357h614zM680 354v543l-338 -543h338z" />
    <glyph glyph-name="Aacute.alt" horiz-adv-x="1531" 
d="M326 815v-242h878v242q0 220 -111.5 331t-326.5 111q-217 0 -328.5 -111t-111.5 -331zM1204 0v463h-878v-463h-121v860q0 243 146.5 378.5t414.5 135.5t413.5 -134.5t145.5 -379.5v-860h-121zM844 1806h137l-172 -333h-107z" />
    <glyph glyph-name="Aacute.alt.smcp" horiz-adv-x="1191" 
d="M1028 637v-637h-121v332h-624v-332h-119v631q0 179 115.5 284t316.5 105q200 0 316 -104.5t116 -278.5zM283 610v-174h624v174q0 144 -83 221.5t-228 77.5q-148 0 -230.5 -77t-82.5 -222zM680 1489h137l-174 -334h-106z" />
    <glyph glyph-name="Aacute.smcp" horiz-adv-x="1015" 
d="M606 1489h139l-174 -334h-106zM989 0h-125l-102 258h-506l-102 -258h-129l405 999h156zM719 365l-211 532l-209 -532h420z" />
    <glyph glyph-name="Aacute.swsh" horiz-adv-x="1542" 
d="M987 1806h139l-174 -333h-106zM1436 -72l-86 203l-90 215h-748l-143 -346h-127l522 1251h-211q-198 0 -299.5 -85t-101.5 -269q0 -19 4 -59l-103 18q-4 46 -4 66q0 211 130 323.5t372 112.5h414l561 -1358q85 -208 172 -335t201.5 -194.5t263.5 -68.5l-21 -104
q-146 6 -246 45t-182 129q-66 72 -100 122q-42 60 -92 158q-44 84 -86 176zM1214 455l-329 794l-330 -794h659z" />
    <glyph glyph-name="Abreve.alt" horiz-adv-x="1531" 
d="M1204 0v463h-878v-463h-121v860q0 243 146.5 378.5t414.5 135.5t413.5 -134.5t145.5 -379.5v-860h-121zM326 815v-242h878v242q0 220 -111.5 331t-326.5 111q-217 0 -328.5 -111t-111.5 -331zM487 1749h111q6 -69 49.5 -112.5t106.5 -43.5q65 0 108 43t49 113h111
q-6 -115 -79.5 -185.5t-186.5 -70.5t-187.5 70.5t-81.5 185.5z" />
    <glyph glyph-name="Abreve.alt.smcp" horiz-adv-x="1191" 
d="M1028 637v-637h-121v332h-624v-332h-119v631q0 179 115.5 284t316.5 105q200 0 316 -104.5t116 -278.5zM283 610v-174h624v174q0 144 -83 221.5t-228 77.5q-148 0 -230.5 -77t-82.5 -222zM326 1440h110q6 -71 49 -114.5t107 -43.5q66 0 109 43t49 115h110
q-6 -116 -79.5 -187t-186.5 -71t-187 70.5t-81 187.5z" />
    <glyph glyph-name="Abreve.smcp" horiz-adv-x="1015" 
d="M989 0h-125l-102 258h-506l-102 -258h-129l405 999h156zM719 365l-211 532l-209 -532h420zM242 1440h110q4 -69 48.5 -113.5t107.5 -44.5t107.5 44.5t48.5 113.5h110q-6 -115 -79.5 -186.5t-186.5 -71.5t-186.5 71.5t-79.5 186.5z" />
    <glyph glyph-name="Abreve.swsh" horiz-adv-x="1542" 
d="M629 1749h110q6 -69 49.5 -112.5t106.5 -43.5q65 0 108.5 43t49.5 113h110q-6 -116 -79.5 -186t-188.5 -70q-111 0 -185 70.5t-81 185.5zM1436 -72l-86 203l-90 215h-748l-143 -346h-127l522 1251h-211q-198 0 -299.5 -85t-101.5 -269q0 -19 4 -59l-103 18q-4 46 -4 66
q0 211 130 323.5t372 112.5h414l561 -1358q85 -208 172 -335t201.5 -194.5t263.5 -68.5l-21 -104q-146 6 -246 45t-182 129q-66 72 -100 122q-42 60 -92 158q-44 84 -86 176zM1214 455l-329 794l-330 -794h659z" />
    <glyph glyph-name="Acircumflex.alt" horiz-adv-x="1531" 
d="M326 815v-242h878v242q0 220 -111.5 331t-326.5 111q-217 0 -328.5 -111t-111.5 -331zM1204 0v463h-878v-463h-121v860q0 243 146.5 378.5t414.5 135.5t413.5 -134.5t145.5 -379.5v-860h-121zM717 1839h71l263 -369h-123l-174 256l-179 -256h-122z" />
    <glyph glyph-name="Acircumflex.alt.smcp" horiz-adv-x="1191" 
d="M1028 637v-637h-121v332h-624v-332h-119v631q0 179 115.5 284t316.5 105q200 0 316 -104.5t116 -278.5zM283 610v-174h624v174q0 144 -83 221.5t-228 77.5q-148 0 -230.5 -77t-82.5 -222zM559 1493h74l262 -369h-123l-174 256l-178 -256h-123z" />
    <glyph glyph-name="Acircumflex.smcp" horiz-adv-x="1015" 
d="M471 1495h74l262 -369h-123l-174 256l-178 -256h-123zM989 0h-125l-102 258h-506l-102 -258h-129l405 999h156zM719 365l-211 532l-209 -532h420z" />
    <glyph glyph-name="Acircumflex.swsh" horiz-adv-x="1542" 
d="M862 1839h74l262 -369h-123l-174 256l-178 -256h-123zM1436 -72l-86 203l-90 215h-748l-143 -346h-127l522 1251h-211q-198 0 -299.5 -85t-101.5 -269q0 -19 4 -59l-103 18q-4 46 -4 66q0 211 130 323.5t372 112.5h414l561 -1358q85 -208 172 -335t201.5 -194.5
t263.5 -68.5l-21 -104q-146 6 -246 45t-182 129q-66 72 -100 122q-42 60 -92 158q-44 84 -86 176zM1214 455l-329 794l-330 -794h659z" />
    <glyph glyph-name="Adieresis.alt" horiz-adv-x="1531" 
d="M326 815v-242h878v242q0 220 -111.5 331t-326.5 111q-217 0 -328.5 -111t-111.5 -331zM1204 0v463h-878v-463h-121v860q0 243 146.5 378.5t414.5 135.5t413.5 -134.5t145.5 -379.5v-860h-121zM631 1563q-23 -23 -55.5 -23t-53.5 21q-20 23 -20 55.5t20 52.5
q20 23 53.5 23t53.5 -23q23 -20 23 -52.5t-21 -53.5zM981 1563q-23 -23 -55.5 -23t-53.5 21q-20 23 -20 55.5t20 52.5q20 23 53.5 23t53.5 -23q23 -20 23 -52.5t-21 -53.5z" />
    <glyph glyph-name="Adieresis.alt.smcp" horiz-adv-x="1191" 
d="M1028 637v-637h-121v332h-624v-332h-119v631q0 179 115.5 284t316.5 105q200 0 316 -104.5t116 -278.5zM283 610v-174h624v174q0 144 -83 221.5t-228 77.5q-148 0 -230.5 -77t-82.5 -222zM821 1266q-20 -20 -52.5 -20t-55.5 20q-20 20 -20 54t20 54q23 20 55.5 20
t52.5 -20q23 -20 23 -54t-23 -54zM471 1266q-20 -20 -53 -20t-56 20q-20 20 -20 54t20 54q23 20 56 20t53 -20q23 -20 23 -54t-23 -54z" />
    <glyph glyph-name="Adieresis.smcp" horiz-adv-x="1015" 
d="M385 1268q-20 -23 -52.5 -23t-56.5 21q-20 23 -20 55.5t20 52.5q23 23 56 23t53 -23q23 -20 23 -53t-23 -53zM735 1268q-20 -23 -52 -23t-56 21q-20 23 -20 55.5t20 52.5q23 23 55.5 23t52.5 -23q23 -20 23 -53t-23 -53zM989 0h-125l-102 258h-506l-102 -258h-129
l405 999h156zM719 365l-211 532l-209 -532h420z" />
    <glyph glyph-name="Adieresis.swsh" horiz-adv-x="1542" 
d="M1124 1563q-20 -23 -52 -23t-56 21q-20 23 -20 55.5t20 52.5q23 23 55.5 23t52.5 -23q23 -20 23 -53t-23 -53zM774 1563q-20 -23 -52 -23t-56 21q-20 23 -20 55.5t20 52.5q23 23 55.5 23t52.5 -23q23 -20 23 -53t-23 -53zM1436 -72l-86 203l-90 215h-748l-143 -346h-127
l522 1251h-211q-198 0 -299.5 -85t-101.5 -269q0 -19 4 -59l-103 18q-4 46 -4 66q0 211 130 323.5t372 112.5h414l561 -1358q85 -208 172 -335t201.5 -194.5t263.5 -68.5l-21 -104q-146 6 -246 45t-182 129q-66 72 -100 122q-42 60 -92 158q-44 84 -86 176zM1214 455
l-329 794l-330 -794h659z" />
    <glyph glyph-name="Adotbelow.alt" horiz-adv-x="1531" 
d="M326 815v-242h878v242q0 220 -111.5 331t-326.5 111q-217 0 -328.5 -111t-111.5 -331zM1204 0v463h-878v-463h-121v860q0 243 146.5 378.5t414.5 135.5t413.5 -134.5t145.5 -379.5v-860h-121zM809 -336q-23 -20 -56 -20t-53 20t-20 53t20 56q20 20 53.5 20t53.5 -20
q23 -23 23 -55.5t-21 -53.5z" />
    <glyph glyph-name="Adotbelow.alt.smcp" horiz-adv-x="1191" 
d="M1028 637v-637h-121v332h-624v-332h-119v631q0 179 115.5 284t316.5 105q200 0 316 -104.5t116 -278.5zM283 610v-174h624v174q0 144 -83 221.5t-228 77.5q-148 0 -230.5 -77t-82.5 -222zM651 -336q-20 -20 -52.5 -20t-55.5 20q-20 20 -20 53t20 56q23 20 55.5 20
t52.5 -20q23 -23 23 -56t-23 -53z" />
    <glyph glyph-name="Adotbelow.smcp" horiz-adv-x="1015" 
d="M561 -336q-20 -20 -52.5 -20t-55.5 20q-20 20 -20 53t20 56q23 20 55.5 20t52.5 -20q23 -23 23 -56t-23 -53zM989 0h-125l-102 258h-506l-102 -258h-129l405 999h156zM719 365l-211 532l-209 -532h420z" />
    <glyph glyph-name="Adotbelow.swsh" horiz-adv-x="1542" 
d="M948 -336q-20 -20 -54 -20t-54 20t-20 53t20 56q20 20 54 20t54 -20q23 -23 23 -56t-23 -53zM1436 -72l-86 203l-90 215h-748l-143 -346h-127l522 1251h-211q-198 0 -299.5 -85t-101.5 -269q0 -19 4 -59l-103 18q-4 46 -4 66q0 211 130 323.5t372 112.5h414l561 -1358
q85 -208 172 -335t201.5 -194.5t263.5 -68.5l-21 -104q-146 6 -246 45t-182 129q-66 72 -100 122q-42 60 -92 158q-44 84 -86 176zM1214 455l-329 794l-330 -794h659z" />
    <glyph glyph-name="Agrave.alt" horiz-adv-x="1531" 
d="M326 815v-242h878v242q0 220 -111.5 331t-326.5 111q-217 0 -328.5 -111t-111.5 -331zM1204 0v463h-878v-463h-121v860q0 243 146.5 378.5t414.5 135.5t413.5 -134.5t145.5 -379.5v-860h-121zM702 1473l-172 333h138l143 -333h-109z" />
    <glyph glyph-name="Agrave.alt.smcp" horiz-adv-x="1191" 
d="M1028 637v-637h-121v332h-624v-332h-119v631q0 179 115.5 284t316.5 105q200 0 316 -104.5t116 -278.5zM283 610v-174h624v174q0 144 -83 221.5t-228 77.5q-148 0 -230.5 -77t-82.5 -222zM535 1155l-175 334h140l141 -334h-106z" />
    <glyph glyph-name="Agrave.smcp" horiz-adv-x="1015" 
d="M451 1155l-175 334h140l141 -334h-106zM989 0h-125l-102 258h-506l-102 -258h-129l405 999h156zM719 365l-211 532l-209 -532h420z" />
    <glyph glyph-name="Agrave.swsh" horiz-adv-x="1542" 
d="M766 1473l-174 333h137l143 -333h-106zM1436 -72l-86 203l-90 215h-748l-143 -346h-127l522 1251h-211q-198 0 -299.5 -85t-101.5 -269q0 -19 4 -59l-103 18q-4 46 -4 66q0 211 130 323.5t372 112.5h414l561 -1358q85 -208 172 -335t201.5 -194.5t263.5 -68.5l-21 -104
q-146 6 -246 45t-182 129q-66 72 -100 122q-42 60 -92 158q-44 84 -86 176zM1214 455l-329 794l-330 -794h659z" />
    <glyph glyph-name="Amacron.alt" horiz-adv-x="1531" 
d="M326 815v-242h878v242q0 220 -111.5 331t-326.5 111q-217 0 -328.5 -111t-111.5 -331zM1204 0v463h-878v-463h-121v860q0 243 146.5 378.5t414.5 135.5t413.5 -134.5t145.5 -379.5v-860h-121zM1061 1667v-104h-592v104h592z" />
    <glyph glyph-name="Amacron.alt.smcp" horiz-adv-x="1191" 
d="M1028 637v-637h-121v332h-624v-332h-119v631q0 179 115.5 284t316.5 105q200 0 316 -104.5t116 -278.5zM283 610v-174h624v174q0 144 -83 221.5t-228 77.5q-148 0 -230.5 -77t-82.5 -222zM889 1364v-107h-592v107h592z" />
    <glyph glyph-name="Amacron.smcp" horiz-adv-x="1015" 
d="M805 1364v-107h-592v107h592zM989 0h-125l-102 258h-506l-102 -258h-129l405 999h156zM719 365l-211 532l-209 -532h420z" />
    <glyph glyph-name="Amacron.swsh" horiz-adv-x="1542" 
d="M1192 1667v-104h-594v104h594zM1436 -72l-86 203l-90 215h-748l-143 -346h-127l522 1251h-211q-198 0 -299.5 -85t-101.5 -269q0 -19 4 -59l-103 18q-4 46 -4 66q0 211 130 323.5t372 112.5h414l561 -1358q85 -208 172 -335t201.5 -194.5t263.5 -68.5l-21 -104
q-146 6 -246 45t-182 129q-66 72 -100 122q-42 60 -92 158q-44 84 -86 176zM1214 455l-329 794l-330 -794h659z" />
    <glyph glyph-name="Aogonek.alt" horiz-adv-x="1556" 
d="M1204 4v459h-878v-463h-121v860q0 243 146.5 378.5t414.5 135.5t413.5 -134.5t145.5 -379.5v-860q-93 -57 -149 -120.5t-56 -112.5q0 -70 67 -92t173 26l31 -92q-68 -45 -172 -45q-100 0 -155.5 49t-55.5 135q0 148 196 256zM326 815v-242h878v242q0 220 -111.5 331
t-326.5 111q-217 0 -328.5 -111t-111.5 -331z" />
    <glyph glyph-name="Aogonek.alt.smcp" horiz-adv-x="1191" 
d="M711 -252q0 74 51.5 139.5t144.5 116.5v328h-624v-332h-119v631q0 179 115.5 284t316.5 105q200 0 316 -104.5t116 -278.5v-637q-94 -57 -150.5 -120.5t-56.5 -112.5q0 -70 68 -91.5t172 25.5l33 -92q-68 -45 -174 -45q-98 0 -153.5 49t-55.5 135zM283 610v-174h624v174
q0 144 -83 221.5t-228 77.5q-148 0 -230.5 -77t-82.5 -222z" />
    <glyph glyph-name="Aogonek.smcp" horiz-adv-x="1015" 
d="M672 -252q0 144 190 252l-100 258h-506l-102 -258h-129l405 999h156l403 -999q-94 -57 -149.5 -120t-55.5 -113q0 -70 67 -92t173 26l31 -92q-68 -45 -172 -45q-100 0 -155.5 49t-55.5 135zM719 365l-211 532l-209 -532h420z" />
    <glyph glyph-name="Aring.alt" horiz-adv-x="1531" 
d="M326 815v-242h878v242q0 220 -111.5 331t-326.5 111q-217 0 -328.5 -111t-111.5 -331zM1204 0v463h-878v-463h-121v860q0 243 146.5 378.5t414.5 135.5t413.5 -134.5t145.5 -379.5v-860h-121zM535 1694q0 88 62.5 147.5t154.5 59.5t155.5 -59.5t63.5 -147.5t-63.5 -147.5
t-155.5 -59.5t-154.5 59.5t-62.5 147.5zM633 1694q0 -52 33 -85.5t86 -33.5t85.5 33.5t32.5 85.5t-32.5 86.5t-85.5 34.5t-86 -34.5t-33 -86.5z" />
    <glyph glyph-name="Aring.alt.smcp" horiz-adv-x="1191" 
d="M1028 637v-637h-121v332h-624v-332h-119v631q0 179 115.5 284t316.5 105q200 0 316 -104.5t116 -278.5zM283 610v-174h624v174q0 144 -83 221.5t-228 77.5q-148 0 -230.5 -77t-82.5 -222zM379 1333q0 88 62.5 148.5t154.5 60.5t154.5 -60.5t62.5 -148.5
q0 -86 -62.5 -145.5t-154.5 -59.5t-154.5 59.5t-62.5 145.5zM477 1333q0 -52 33 -85.5t86 -33.5t86 33.5t33 85.5q0 54 -32.5 87.5t-86.5 33.5t-86.5 -33.5t-32.5 -87.5z" />
    <glyph glyph-name="Aring.smcp" horiz-adv-x="1015" 
d="M291 1333q0 88 62.5 148.5t154.5 60.5t154.5 -60.5t62.5 -148.5q0 -86 -62.5 -145.5t-154.5 -59.5t-154.5 59.5t-62.5 145.5zM389 1333q0 -52 33 -85.5t86 -33.5t86 33.5t33 85.5q0 54 -32.5 87.5t-86.5 33.5t-86.5 -33.5t-32.5 -87.5zM989 0h-125l-102 258h-506
l-102 -258h-129l405 999h156zM719 365l-211 532l-209 -532h420z" />
    <glyph glyph-name="Aring.swsh" horiz-adv-x="1542" 
d="M680 1694q0 88 62.5 147.5t154.5 59.5t154.5 -59.5t62.5 -147.5t-62.5 -147.5t-154.5 -59.5t-154.5 59.5t-62.5 147.5zM778 1694q0 -52 33 -85.5t86 -33.5t86 33.5t33 85.5t-33 86.5t-86 34.5t-86 -34.5t-33 -86.5zM1436 -72l-86 203l-90 215h-748l-143 -346h-127
l522 1251h-211q-198 0 -299.5 -85t-101.5 -269q0 -19 4 -59l-103 18q-4 46 -4 66q0 211 130 323.5t372 112.5h414l561 -1358q85 -208 172 -335t201.5 -194.5t263.5 -68.5l-21 -104q-146 6 -246 45t-182 129q-66 72 -100 122q-42 60 -92 158q-44 84 -86 176zM1214 455
l-329 794l-330 -794h659z" />
    <glyph glyph-name="Aringacute.alt" horiz-adv-x="1531" 
d="M326 815v-242h878v242q0 220 -111.5 331t-326.5 111q-217 0 -328.5 -111t-111.5 -331zM1204 0v463h-878v-463h-121v860q0 243 146.5 378.5t414.5 135.5t413.5 -134.5t145.5 -379.5v-860h-121zM868 2294h140l-174 -334h-107zM532 1694q0 88 64 147.5t156 59.5t154.5 -59.5
t62.5 -147.5t-62.5 -147.5t-154.5 -59.5t-156 59.5t-64 147.5zM633 1694q0 -52 33 -85.5t86 -33.5t85.5 33.5t32.5 85.5t-32.5 86.5t-85.5 34.5t-86 -34.5t-33 -86.5z" />
    <glyph glyph-name="Aringacute.alt.smcp" horiz-adv-x="1191" 
d="M1028 637v-637h-121v332h-624v-332h-119v631q0 179 115.5 284t316.5 105q200 0 316 -104.5t116 -278.5zM283 610v-174h624v174q0 144 -83 221.5t-228 77.5q-148 0 -230.5 -77t-82.5 -222zM381 1335q0 87 63 147t154 60q92 0 155.5 -59.5t63.5 -147.5t-63.5 -147.5
t-155.5 -59.5q-91 0 -154 60t-63 147zM479 1335q0 -51 34 -84.5t85 -33.5q54 0 87.5 33.5t33.5 84.5q0 52 -34 86.5t-87 34.5q-51 0 -85 -35t-34 -86zM690 1935h139l-174 -333h-106z" />
    <glyph glyph-name="Aringacute.smcp" horiz-adv-x="1015" 
d="M291 1335q0 88 62.5 147.5t154.5 59.5t154.5 -59.5t62.5 -147.5t-62.5 -147.5t-154.5 -59.5t-154.5 59.5t-62.5 147.5zM389 1335q0 -52 33 -85t86 -33t86 33t33 85t-33 86.5t-86 34.5t-86 -34.5t-33 -86.5zM606 1935h137l-172 -333h-106zM989 0h-125l-102 258h-506
l-102 -258h-129l405 999h156zM719 365l-211 532l-209 -532h420z" />
    <glyph glyph-name="Aringacute.swsh" horiz-adv-x="1542" 
d="M680 1694q0 87 63 147t154 60q92 0 155.5 -59.5t63.5 -147.5t-63.5 -147.5t-155.5 -59.5q-91 0 -154 60t-63 147zM778 1694q0 -51 34 -85t85 -34q53 0 87 33.5t34 85.5t-34 86.5t-87 34.5q-51 0 -85 -35t-34 -86zM1016 2294h137l-172 -334h-107zM1436 -72l-86 203
l-90 215h-748l-143 -346h-127l522 1251h-211q-198 0 -299.5 -85t-101.5 -269q0 -19 4 -59l-103 18q-4 46 -4 66q0 211 130 323.5t372 112.5h414l561 -1358q85 -208 172 -335t201.5 -194.5t263.5 -68.5l-21 -104q-146 6 -246 45t-182 129q-66 72 -100 122q-42 60 -92 158
q-44 84 -86 176zM1214 455l-329 794l-330 -794h659z" />
    <glyph glyph-name="Atilde.alt" horiz-adv-x="1531" 
d="M326 815v-242h878v242q0 220 -111.5 331t-326.5 111q-217 0 -328.5 -111t-111.5 -331zM1204 0v463h-878v-463h-121v860q0 243 146.5 378.5t414.5 135.5t413.5 -134.5t145.5 -379.5v-860h-121zM627 1626q-36 0 -64 -18t-67 -60l-68 56q88 125 199 125q53 0 137 -41
q79 -39 121 -39q36 0 64.5 18t66.5 59l67 -55q-88 -125 -194 -125q-60 0 -139 39q-84 41 -123 41z" />
    <glyph glyph-name="Atilde.alt.smcp" horiz-adv-x="1191" 
d="M1028 637v-637h-121v332h-624v-332h-119v631q0 179 115.5 284t316.5 105q200 0 316 -104.5t116 -278.5zM283 610v-174h624v174q0 144 -83 221.5t-228 77.5q-148 0 -230.5 -77t-82.5 -222zM461 1311q-36 0 -63.5 -18t-65.5 -62l-70 55q88 125 201 125q55 0 135 -41
q79 -39 123 -39q36 0 63 18t66 60l68 -55q-88 -125 -193 -125q-57 0 -141 41t-123 41z" />
    <glyph glyph-name="Atilde.smcp" horiz-adv-x="1015" 
d="M381 1311q-36 0 -64 -18t-67 -60l-68 55q88 125 199 125q55 0 135 -41q84 -41 123 -41q36 0 63.5 18t65.5 62l70 -55q-88 -125 -195 -125q-60 0 -139 39q-84 41 -123 41zM989 0h-125l-102 258h-506l-102 -258h-129l405 999h156zM719 365l-211 532l-209 -532h420z" />
    <glyph glyph-name="Atilde.swsh" horiz-adv-x="1542" 
d="M768 1626q-36 0 -63 -18t-66 -60l-70 56q88 125 199 125q57 0 137 -41q79 -39 121 -39q38 0 65 17t66 60l68 -55q-88 -125 -195 -125q-60 0 -139 39q-84 41 -123 41zM1436 -72l-86 203l-90 215h-748l-143 -346h-127l522 1251h-211q-198 0 -299.5 -85t-101.5 -269
q0 -19 4 -59l-103 18q-4 46 -4 66q0 211 130 323.5t372 112.5h414l561 -1358q85 -208 172 -335t201.5 -194.5t263.5 -68.5l-21 -104q-146 6 -246 45t-182 129q-66 72 -100 122q-42 60 -92 158q-44 84 -86 176zM1214 455l-329 794l-330 -794h659z" />
    <glyph glyph-name="B.smcp" horiz-adv-x="1091" 
d="M872 272q0 88 -53.5 139.5t-146.5 51.5h-375v-357h375q94 0 147 44t53 122zM618 895h-321v-328h317q91 0 143 45t52 123q0 75 -50.5 117.5t-140.5 42.5zM651 0h-475v999h440q149 0 233.5 -69.5t84.5 -192.5q0 -73 -33 -127.5t-90 -77.5q87 -20 136.5 -89.5t49.5 -168.5
q0 -129 -92 -201.5t-254 -72.5z" />
    <glyph glyph-name="B.swsh" horiz-adv-x="1878" 
d="M1309 0h-631v1253h-139q-208 0 -312 -96.5t-88 -318.5l-100 18q-23 242 106.5 373t391.5 131h266v-2h459q188 0 298.5 -93.5t110.5 -267.5q0 -89 -43.5 -161t-126.5 -109q124 -33 193 -123t69 -227q0 -172 -117 -274.5t-337 -102.5zM1645 375q0 126 -79 199t-229 73h-540
v-538h540q140 0 224 69t84 197zM1266 1251h-469v-499h463q128 0 208 66.5t80 176.5q0 119 -72 187.5t-210 68.5z" />
    <glyph glyph-name="C.smcp" horiz-adv-x="1062" 
d="M668 94q138 0 295 66l26 -109q-151 -71 -321 -71q-254 0 -414 145q-158 146 -158 379q0 228 154 373q155 143 403 143q171 0 301 -59l-10 -111q-125 55 -291 55q-194 0 -315 -112t-121 -289q0 -184 125 -297t326 -113z" />
    <glyph glyph-name="Cacute.smcp" horiz-adv-x="1062" 
d="M737 1489h137l-172 -334h-106zM668 94q138 0 295 66l26 -109q-151 -71 -321 -71q-254 0 -414 145q-158 146 -158 379q0 228 154 373q155 143 403 143q171 0 301 -59l-10 -111q-125 55 -291 55q-194 0 -315 -112t-121 -289q0 -184 125 -297t326 -113z" />
    <glyph glyph-name="Ccaron.smcp" horiz-adv-x="1062" 
d="M688 1126h-72l-264 369h123l174 -256l178 256h123zM668 94q138 0 295 66l26 -109q-151 -71 -321 -71q-254 0 -414 145q-158 146 -158 379q0 228 154 373q155 143 403 143q171 0 301 -59l-10 -111q-125 55 -291 55q-194 0 -315 -112t-121 -289q0 -184 125 -297t326 -113z
" />
    <glyph glyph-name="Ccedilla.smcp" horiz-adv-x="1062" 
d="M668 94q138 0 295 66l26 -109q-151 -71 -321 -71h-11l-26 -82q91 -6 145.5 -49.5t54.5 -112.5q0 -80 -63.5 -126t-175.5 -46q-73 0 -129 16v101q55 -21 119 -21q139 0 139 76q0 82 -162 82h-49l61 168q-213 27 -346 166q-129 141 -129 352q0 228 154 373q155 143 403 143
q171 0 301 -59l-10 -111q-125 55 -291 55q-194 0 -315 -112t-121 -289q0 -184 125 -297t326 -113z" />
    <glyph glyph-name="Ccircumflex.smcp" horiz-adv-x="1062" 
d="M598 1493h72l264 -367h-123l-174 256l-178 -256h-123zM668 94q138 0 295 66l26 -109q-151 -71 -321 -71q-254 0 -414 145q-158 146 -158 379q0 228 154 373q155 143 403 143q171 0 301 -59l-10 -111q-125 55 -291 55q-194 0 -315 -112t-121 -289q0 -184 125 -297
t326 -113z" />
    <glyph glyph-name="Cdotaccent.smcp" horiz-adv-x="1062" 
d="M715 1266q-23 -20 -56 -20t-53 20t-20 54t20 54t53.5 20t53.5 -20q23 -20 23 -53.5t-21 -54.5zM668 94q138 0 295 66l26 -109q-151 -71 -321 -71q-254 0 -414 145q-158 146 -158 379q0 228 154 373q155 143 403 143q171 0 301 -59l-10 -111q-125 55 -291 55
q-194 0 -315 -112t-121 -289q0 -184 125 -297t326 -113z" />
    <glyph glyph-name="D.smcp" horiz-adv-x="1202" 
d="M176 0v999h406q244 0 382 -132.5t138 -366.5q0 -235 -138.5 -367.5t-383.5 -132.5h-404zM590 895h-293v-789h293q181 0 284 104t103 288q0 186 -103.5 291.5t-283.5 105.5z" />
    <glyph glyph-name="D.swsh" horiz-adv-x="2023" 
d="M1202 0h-532v1251h-131q-101 0 -176 -21.5t-129.5 -68.5t-78.5 -128.5t-16 -194.5l-100 18q-23 241 106 371.5t392 130.5h669q171 0 304.5 -50t219 -141t129.5 -215t44 -274q0 -326 -179.5 -502t-521.5 -176zM1217 1245h-429v-1132h429q269 0 417 147t148 418
q0 264 -150.5 415.5t-414.5 151.5z" />
    <glyph glyph-name="Dcaron.smcp" horiz-adv-x="1202" 
d="M588 1126h-74l-262 367h123l174 -256l178 256h123zM176 0v999h406q244 0 382 -132.5t138 -366.5q0 -235 -138.5 -367.5t-383.5 -132.5h-404zM590 895h-293v-789h293q181 0 284 104t103 288q0 186 -103.5 291.5t-283.5 105.5z" />
    <glyph glyph-name="Dcaron.swsh" horiz-adv-x="1982" 
d="M537 1358h630q137 0 250 -32.5t195 -92.5t138.5 -144t84 -187.5t27.5 -223.5q0 -326 -178.5 -502t-520.5 -176h-532v1251h-92q-101 0 -176 -21.5t-129.5 -68.5t-78.5 -128.5t-16 -194.5l-100 18q-23 241 106 371.5t392 130.5zM1178 1245h-428v-1132h428q267 0 416 147.5
t149 417.5q0 264 -150.5 415.5t-414.5 151.5zM1194 1466h-72l-264 369h123l174 -256l178 256h123z" />
    <glyph glyph-name="Dcroat.smcp" horiz-adv-x="1202" 
d="M176 565v434h406q244 0 382 -132.5t138 -366.5q0 -235 -138.5 -367.5t-383.5 -132.5h-404v461h-143v104h143zM590 895h-293v-330h393v-104h-393v-355h293q181 0 284 104t103 288q0 186 -103.5 291.5t-283.5 105.5z" />
    <glyph glyph-name="Dcroat.swsh" horiz-adv-x="1982" 
d="M477 633v125h154v493h-92q-101 0 -176 -21.5t-129.5 -68.5t-78.5 -128.5t-16 -194.5l-100 18q-23 241 106 371.5t392 130.5h630q137 0 250 -32.5t195 -92.5t138.5 -144t84 -187.5t27.5 -223.5q0 -326 -178.5 -502t-520.5 -176h-532v633h-154zM1178 1245h-428v-487h493
v-125h-493v-520h428q267 0 416 147.5t149 417.5q0 264 -150.5 415.5t-414.5 151.5z" />
    <glyph glyph-name="E.smcp" horiz-adv-x="1026" 
d="M922 106v-106h-746v999h731v-104h-610v-328h532v-104h-532v-357h625z" />
    <glyph glyph-name="E.swsh" horiz-adv-x="1746" 
d="M1632 0h-983v1251h-110q-101 0 -176 -21.5t-129.5 -68.5t-78.5 -128.5t-16 -194.5l-100 18q-23 241 106 371.5t392 130.5h1075v-109h-842v-495h735v-111h-735v-534h862v-109z" />
    <glyph glyph-name="Eacute.smcp" horiz-adv-x="1026" 
d="M637 1489h137l-172 -334h-106zM922 106v-106h-746v999h731v-104h-610v-328h532v-104h-532v-357h625z" />
    <glyph glyph-name="Ebreve.smcp" horiz-adv-x="1026" 
d="M922 106v-106h-746v999h731v-104h-610v-328h532v-104h-532v-357h625zM289 1440h110q6 -71 49.5 -114.5t106.5 -43.5q66 0 109 43t49 115h110q-6 -117 -79 -187.5t-189 -70.5q-111 0 -185 71t-81 187z" />
    <glyph glyph-name="Ecaron.smcp" horiz-adv-x="1026" 
d="M602 1126h-72l-264 367h123l174 -256l178 256h123zM922 106v-106h-746v999h731v-104h-610v-328h532v-104h-532v-357h625z" />
    <glyph glyph-name="Ecircumflex.smcp" horiz-adv-x="1026" 
d="M510 1493h72l264 -369h-123l-174 256l-178 -256h-123zM922 106v-106h-746v999h731v-104h-610v-328h532v-104h-532v-357h625z" />
    <glyph glyph-name="Edieresis.smcp" horiz-adv-x="1026" 
d="M426 1266q-20 -20 -53 -20t-56 20q-20 20 -20 54t20 54q23 20 56 20t53 -20q23 -20 23 -54t-23 -54zM776 1266q-20 -20 -54 -20t-54 20t-20 54t20 54t54 20t54 -20q23 -20 23 -54t-23 -54zM922 106v-106h-746v999h731v-104h-610v-328h532v-104h-532v-357h625z" />
    <glyph glyph-name="Edotaccent.smcp" horiz-adv-x="1026" 
d="M612 1266q-20 -20 -52.5 -20t-55.5 20q-20 20 -20 54t20 54q23 20 55.5 20t52.5 -20q23 -20 23 -54t-23 -54zM922 106v-106h-746v999h731v-104h-610v-328h532v-104h-532v-357h625z" />
    <glyph glyph-name="Edotbelow.smcp" horiz-adv-x="1026" 
d="M604 -336q-20 -20 -52.5 -20t-55.5 20q-20 20 -20 53t20 56q23 20 55.5 20t52.5 -20q23 -23 23 -56t-23 -53zM922 106v-106h-746v999h731v-104h-610v-328h532v-104h-532v-357h625z" />
    <glyph glyph-name="Egrave.smcp" horiz-adv-x="1026" 
d="M508 1155l-174 334h137l143 -334h-106zM922 106v-106h-746v999h731v-104h-610v-328h532v-104h-532v-357h625z" />
    <glyph glyph-name="Emacron.smcp" horiz-adv-x="1026" 
d="M838 1364v-107h-592v107h592zM922 106v-106h-746v999h731v-104h-610v-328h532v-104h-532v-357h625z" />
    <glyph glyph-name="Eng.smcp" horiz-adv-x="1284" 
d="M989 999h121v-1132q0 -135 -68.5 -211t-191.5 -76q-81 0 -133 25l14 102q47 -18 111 -18q147 0 147 188v96l-692 861v-834h-121v999h141l672 -833v833z" />
    <glyph glyph-name="Eogonek.smcp" horiz-adv-x="1026" 
d="M922 106v-106q-94 -57 -149.5 -120t-55.5 -113q0 -70 66.5 -92t170.5 26l33 -92q-68 -45 -174 -45q-98 0 -153.5 49t-55.5 135q0 144 191 252h-619v999h731v-104h-610v-328h532v-104h-532v-357h625z" />
    <glyph glyph-name="Eth.smcp" horiz-adv-x="1202" 
d="M176 565v434h406q244 0 382 -132.5t138 -366.5q0 -235 -138.5 -367.5t-383.5 -132.5h-404v461h-143v104h143zM590 895h-293v-330h393v-104h-393v-355h293q181 0 284 104t103 288q0 186 -103.5 291.5t-283.5 105.5z" />
    <glyph glyph-name="Etilde.smcp" horiz-adv-x="1026" 
d="M410 1311q-36 0 -64 -18t-67 -60l-68 55q88 125 199 125q57 0 137 -41q84 -41 121 -41t65.5 18.5t65.5 61.5l67 -55q-88 -125 -194 -125q-61 0 -140 39q-84 41 -122 41zM922 106v-106h-746v999h731v-104h-610v-328h532v-104h-532v-357h625z" />
    <glyph glyph-name="Euro.onum" horiz-adv-x="1271" 
d="M354 461h432l-12 -88h-397q50 -130 165.5 -204.5t272.5 -74.5q136 0 295 72l29 -111q-153 -75 -324 -75q-214 0 -365 106t-202 287h-158l12 88h129q-4 46 -4 76v43h-135l12 86h136q40 193 190 307t371 114q175 0 301 -63l-12 -111q-129 60 -289 60q-163 0 -279.5 -82.5
t-154.5 -224.5h452l-12 -86h-457q-2 -18 -2 -43q0 -35 6 -76z" />
    <glyph glyph-name="Euro.onum.tnum" 
d="M416 461h432l-12 -88h-398q47 -130 164 -204.5t275 -74.5q135 0 294 72l27 -111q-150 -75 -321 -75q-214 0 -366 106t-202 287h-157l12 88h129q-4 46 -4 76v43h-135l12 86h135q40 192 191 307q150 114 370 114q176 0 299 -63l-10 -111q-129 60 -291 60
q-160 0 -276.5 -82.5t-157.5 -224.5h455l-13 -86h-456q-2 -18 -2 -43q0 -35 6 -76z" />
    <glyph glyph-name="Euro.tnum" 
d="M1266 176l14 8l20 -116q-3 -2 -67 -31q-150 -55 -315 -55q-254 0 -439 135q-183 137 -239 375h-191l12 88h162q-6 52 -6 102q0 32 2 59h-170l12 86h168q30 174 128 300t237.5 187.5t304.5 61.5q218 0 373 -82l-12 -112q-157 80 -363 80q-204 0 -354 -117
q-150 -114 -191 -318h576l-13 -86h-573q-2 -27 -2 -59q0 -44 6 -102h549l-10 -88h-520q55 -185 206 -291q150 -105 344 -105q208 0 351 80z" />
    <glyph glyph-name="F.smcp" horiz-adv-x="946" 
d="M772 567v-104h-475v-463h-121v999h705v-104h-584v-328h475z" />
    <glyph glyph-name="F.swsh" horiz-adv-x="1570" 
d="M1356 752v-107h-658v-645h-118v1251h-41q-101 0 -176 -21.5t-129.5 -68.5t-78.5 -128.5t-16 -194.5l-100 18q-23 241 106 371.5t392 130.5h968v-109h-807v-497h658z" />
    <glyph glyph-name="G.alt" horiz-adv-x="1521" 
d="M1339 1278l-12 -119q-193 105 -444 105q-285 0 -465 -162q-178 -163 -178 -420q0 -261 182 -428q185 -164 477 -164q246 0 381 78v432h115v-502q-190 -118 -486 -118q-229 -3 -411.5 86.5t-283 251t-97.5 364.5q-3 151 54 281t158.5 221.5t246 143t311.5 50.5
q253 0 452 -100z" />
    <glyph glyph-name="G.alt.smcp" horiz-adv-x="1171" 
d="M1016 942l-10 -111q-165 74 -334 74q-205 0 -330 -110t-125 -293q0 -180 127 -295q128 -113 338 -113q155 0 260 51v314h121v-385q-155 -94 -375 -94q-268 0 -430 143t-162 377q0 231 158 377q155 143 418 143q177 0 344 -78z" />
    <glyph glyph-name="G.smcp" horiz-adv-x="1181" 
d="M1016 942l-10 -111q-165 74 -334 74q-205 0 -330 -110t-125 -293q0 -180 127 -295q128 -113 338 -113q155 0 260 51v310h-344v104h465v-485q-155 -94 -375 -94q-268 0 -430 143t-162 377q0 231 158 377q155 143 418 143q177 0 344 -78z" />
    <glyph glyph-name="Gbreve.alt" horiz-adv-x="1521" 
d="M1339 1278l-12 -119q-193 105 -444 105q-285 0 -465 -162q-178 -163 -178 -420q0 -261 182 -428q185 -164 477 -164q246 0 381 78v432h115v-502q-190 -118 -486 -118q-229 -3 -411.5 86.5t-283 251t-97.5 364.5q-3 151 54 281t158.5 221.5t246 143t311.5 50.5
q253 0 452 -100zM610 1749h113q4 -69 47.5 -112.5t106.5 -43.5q65 0 108 43t49 113h111q-6 -115 -79.5 -185.5t-186.5 -70.5t-187.5 70.5t-81.5 185.5z" />
    <glyph glyph-name="Gbreve.alt.smcp" horiz-adv-x="1171" 
d="M1016 942l-10 -111q-165 74 -334 74q-205 0 -330 -110t-125 -293q0 -180 127 -295q128 -113 338 -113q155 0 260 51v314h121v-385q-155 -94 -375 -94q-268 0 -430 143t-162 377q0 231 158 377q155 143 418 143q177 0 344 -78zM399 1440h113q5 -69 48 -113.5t106 -44.5
q65 0 108 44t49 114h111q-6 -115 -79.5 -186.5t-186.5 -71.5t-187.5 71.5t-81.5 186.5z" />
    <glyph glyph-name="Gbreve.smcp" horiz-adv-x="1181" 
d="M1016 942l-10 -111q-165 74 -334 74q-205 0 -330 -110t-125 -293q0 -180 127 -295q128 -113 338 -113q155 0 260 51v310h-344v104h465v-485q-155 -94 -375 -94q-268 0 -430 143t-162 377q0 231 158 377q155 143 418 143q177 0 344 -78zM393 1440h111q6 -72 49 -115
t106 -43q66 0 109 43t47 115h113q-6 -116 -81 -187t-188 -71q-111 0 -185.5 71t-80.5 187z" />
    <glyph glyph-name="Gcaron.alt" horiz-adv-x="1521" 
d="M1339 1278l-12 -119q-193 105 -444 105q-285 0 -465 -162q-178 -163 -178 -420q0 -261 182 -428q185 -164 477 -164q246 0 381 78v432h115v-502q-190 -118 -486 -118q-229 -3 -411.5 86.5t-283 251t-97.5 364.5q-3 151 54 281t158.5 221.5t246 143t311.5 50.5
q253 0 452 -100zM913 1466h-71l-264 369h122l174 -256l179 256h123z" />
    <glyph glyph-name="Gcaron.alt.smcp" horiz-adv-x="1171" 
d="M707 1124h-72l-262 369h123l174 -256l178 256h123zM1016 942l-10 -111q-165 74 -334 74q-205 0 -330 -110t-125 -293q0 -180 127 -295q128 -113 338 -113q155 0 260 51v314h121v-385q-155 -94 -375 -94q-268 0 -430 143t-162 377q0 231 158 377q155 143 418 143
q177 0 344 -78z" />
    <glyph glyph-name="Gcaron.smcp" horiz-adv-x="1181" 
d="M705 1126h-72l-262 369h123l174 -256l178 256h123zM1016 942l-10 -111q-165 74 -334 74q-205 0 -330 -110t-125 -293q0 -180 127 -295q128 -113 338 -113q155 0 260 51v310h-344v104h465v-485q-155 -94 -375 -94q-268 0 -430 143t-162 377q0 231 158 377q155 143 418 143
q177 0 344 -78z" />
    <glyph glyph-name="Gcircumflex.alt" horiz-adv-x="1521" 
d="M1339 1278l-12 -119q-193 105 -444 105q-285 0 -465 -162q-178 -163 -178 -420q0 -261 182 -428q185 -164 477 -164q246 0 381 78v432h115v-502q-190 -118 -486 -118q-229 -3 -411.5 86.5t-283 251t-97.5 364.5q-3 151 54 281t158.5 221.5t246 143t311.5 50.5
q253 0 452 -100zM831 1839h72l264 -369h-123l-174 256l-178 -256h-123z" />
    <glyph glyph-name="Gcircumflex.alt.smcp" horiz-adv-x="1171" 
d="M614 1493h72l264 -369h-123l-174 256l-178 -256h-123zM1016 942l-10 -111q-165 74 -334 74q-205 0 -330 -110t-125 -293q0 -180 127 -295q128 -113 338 -113q155 0 260 51v314h121v-385q-155 -94 -375 -94q-268 0 -430 143t-162 377q0 231 158 377q155 143 418 143
q177 0 344 -78z" />
    <glyph glyph-name="Gcircumflex.smcp" horiz-adv-x="1181" 
d="M608 1493h74l262 -369h-123l-174 256l-178 -256h-123zM1016 942l-10 -111q-165 74 -334 74q-205 0 -330 -110t-125 -293q0 -180 127 -295q128 -113 338 -113q155 0 260 51v310h-344v104h465v-485q-155 -94 -375 -94q-268 0 -430 143t-162 377q0 231 158 377
q155 143 418 143q177 0 344 -78z" />
    <glyph glyph-name="Gcommaaccent.alt" horiz-adv-x="1521" 
d="M1339 1278l-12 -119q-193 105 -444 105q-285 0 -465 -162q-178 -163 -178 -420q0 -261 182 -428q185 -164 477 -164q246 0 381 78v432h115v-502q-190 -118 -486 -118q-229 -3 -411.5 86.5t-283 251t-97.5 364.5q-3 151 54 281t158.5 221.5t246 143t311.5 50.5
q253 0 452 -100zM944 -508h-96l12 379h137z" />
    <glyph glyph-name="Gcommaaccent.alt.smcp" horiz-adv-x="1171" 
d="M686 -508h-98l14 379h135zM1016 942l-10 -111q-165 74 -334 74q-205 0 -330 -110t-125 -293q0 -180 127 -295q128 -113 338 -113q155 0 260 51v314h121v-385q-155 -94 -375 -94q-268 0 -430 143t-162 377q0 231 158 377q155 143 418 143q177 0 344 -78z" />
    <glyph glyph-name="Gcommaaccent.smcp" horiz-adv-x="1181" 
d="M684 -508h-98l14 379h135zM1016 942l-10 -111q-165 74 -334 74q-205 0 -330 -110t-125 -293q0 -180 127 -295q128 -113 338 -113q155 0 260 51v310h-344v104h465v-485q-155 -94 -375 -94q-268 0 -430 143t-162 377q0 231 158 377q155 143 418 143q177 0 344 -78z" />
    <glyph glyph-name="Gdotaccent.alt" horiz-adv-x="1521" 
d="M1339 1278l-12 -119q-193 105 -444 105q-285 0 -465 -162q-178 -163 -178 -420q0 -261 182 -428q185 -164 477 -164q246 0 381 78v432h115v-502q-190 -118 -486 -118q-229 -3 -411.5 86.5t-283 251t-97.5 364.5q-3 151 54 281t158.5 221.5t246 143t311.5 50.5
q253 0 452 -100zM936 1563q-23 -23 -55.5 -23t-53.5 21q-20 23 -20 55.5t20 52.5q20 23 53.5 23t53.5 -23q23 -20 23 -52.5t-21 -53.5z" />
    <glyph glyph-name="Gdotaccent.alt.smcp" horiz-adv-x="1171" 
d="M717 1266q-20 -20 -53 -20t-56 20q-20 20 -20 54t20 54q23 20 56 20t53 -20q23 -20 23 -54t-23 -54zM1016 942l-10 -111q-165 74 -334 74q-205 0 -330 -110t-125 -293q0 -180 127 -295q128 -113 338 -113q155 0 260 51v314h121v-385q-155 -94 -375 -94q-268 0 -430 143
t-162 377q0 231 158 377q155 143 418 143q177 0 344 -78z" />
    <glyph glyph-name="Gdotaccent.smcp" horiz-adv-x="1181" 
d="M713 1266q-23 -20 -56 -20t-53 20t-20 54t20 54t53.5 20t53.5 -20q23 -20 23 -53.5t-21 -54.5zM1016 942l-10 -111q-165 74 -334 74q-205 0 -330 -110t-125 -293q0 -180 127 -295q128 -113 338 -113q155 0 260 51v310h-344v104h465v-485q-155 -94 -375 -94
q-268 0 -430 143t-162 377q0 231 158 377q155 143 418 143q177 0 344 -78z" />
    <glyph glyph-name="H.smcp" horiz-adv-x="1210" 
d="M1034 0h-121v463h-616v-463h-121v999h121v-432h616v432h121v-999z" />
    <glyph glyph-name="Hbar.smcp" horiz-adv-x="1220" 
d="M1038 0h-118v463h-619v-463h-121v743h-119v107h119v149h121v-149h619v149h118v-149h121v-107h-121v-743zM301 743v-176h619v176h-619z" />
    <glyph glyph-name="Hcircumflex.smcp" horiz-adv-x="1210" 
d="M563 1493h74l262 -367h-123l-174 256l-178 -256h-123zM1034 0h-121v463h-616v-463h-121v999h121v-432h616v432h121v-999z" />
    <glyph glyph-name="I.alt" horiz-adv-x="1050" 
d="M111 1358h829v-113h-356v-1130h356v-115h-829v115h352v1130h-352v113z" />
    <glyph glyph-name="I.alt.smcp" horiz-adv-x="841" 
d="M100 999h641v-104h-260v-789h260v-106h-641v106h260v789h-260v104z" />
    <glyph glyph-name="I.smcp" horiz-adv-x="471" 
d="M297 0h-121v999h121v-999z" />
    <glyph glyph-name="IJ.smcp" horiz-adv-x="1312" 
d="M297 0h-121v999h121v-999zM520 41l25 111q109 -56 237 -56q112 0 178 56t66 163v580h-401v104h522v-690q0 -156 -94 -242.5t-267 -86.5q-73 0 -147 17t-119 44z" />
    <glyph glyph-name="IJacute" horiz-adv-x="1658" 
d="M342 0h-119v1358h119v-1358zM387 1806h139l-174 -333h-106zM633 57l26 107q150 -72 310 -72q181 0 270.5 78t89.5 246v831h-555v111h676v-952q0 -202 -123.5 -314t-349.5 -112q-71 0 -178 22q-97 23 -166 55zM1229 1806h137l-172 -333h-109z" />
    <glyph glyph-name="IJacute.smcp" horiz-adv-x="1306" 
d="M326 1489h139l-174 -334h-107zM297 0h-121v999h121v-999zM518 41l27 111q106 -56 237 -56q110 0 177 56t67 163v580h-401v104h522v-690q0 -156 -95 -242.5t-266 -86.5q-73 0 -146.5 17t-121.5 44zM973 1489h137l-172 -334h-107z" />
    <glyph glyph-name="Iacute.alt" horiz-adv-x="1050" 
d="M111 1358h829v-113h-356v-1130h356v-115h-829v115h352v1130h-352v113zM637 1806h137l-172 -333h-106z" />
    <glyph glyph-name="Iacute.alt.smcp" horiz-adv-x="841" 
d="M512 1489h137l-174 -334h-106zM100 999h641v-104h-260v-789h260v-106h-641v106h260v789h-260v104z" />
    <glyph glyph-name="Iacute.smcp" horiz-adv-x="471" 
d="M326 1489h139l-174 -334h-107zM297 0h-121v999h121v-999z" />
    <glyph glyph-name="Ibreve.alt" horiz-adv-x="1050" 
d="M111 1358h829v-113h-356v-1130h356v-115h-829v115h352v1130h-352v113zM264 1749h111q6 -69 49 -112.5t106 -43.5q66 0 108.5 43.5t47.5 112.5h113q-6 -115 -81 -185.5t-188 -70.5q-111 0 -185.5 70.5t-80.5 185.5z" />
    <glyph glyph-name="Ibreve.alt.smcp" horiz-adv-x="841" 
d="M100 999h641v-104h-260v-789h260v-106h-641v106h260v789h-260v104zM158 1440h110q6 -71 49 -114.5t107 -43.5q66 0 109 43t49 115h110q-6 -116 -79.5 -187t-186.5 -71t-187 70.5t-81 187.5z" />
    <glyph glyph-name="Ibreve.smcp" horiz-adv-x="471" 
d="M297 0h-121v999h121v-999zM-31 1440h111q6 -69 49.5 -113.5t106.5 -44.5t107 44.5t48 113.5h113q-6 -115 -80.5 -186.5t-187.5 -71.5q-111 0 -186 71.5t-81 186.5z" />
    <glyph glyph-name="Icircumflex.alt" horiz-adv-x="1050" 
d="M111 1358h829v-113h-356v-1130h356v-115h-829v115h352v1130h-352v113zM500 1839h71l265 -369h-123l-174 256l-179 -256h-122z" />
    <glyph glyph-name="Icircumflex.alt.smcp" horiz-adv-x="841" 
d="M385 1493h74l262 -369h-123l-174 256l-178 -256h-123zM100 999h641v-104h-260v-789h260v-106h-641v106h260v789h-260v104z" />
    <glyph glyph-name="Icircumflex.smcp" horiz-adv-x="471" 
d="M201 1493h71l263 -369h-123l-174 256l-179 -256h-122zM297 0h-121v999h121v-999z" />
    <glyph glyph-name="Idieresis.alt" horiz-adv-x="1050" 
d="M111 1358h829v-113h-356v-1130h356v-115h-829v115h352v1130h-352v113zM408 1563q-20 -23 -52.5 -23t-56.5 21q-20 23 -20 55.5t20 52.5q23 23 56 23t53 -23q23 -20 23 -53t-23 -53zM758 1563q-20 -23 -52.5 -23t-56.5 21q-20 23 -20 55.5t20 52.5q23 23 56 23t53 -23
q23 -20 23 -53t-23 -53z" />
    <glyph glyph-name="Idieresis.alt.smcp" horiz-adv-x="841" 
d="M299 1266q-23 -20 -56 -20t-53 20t-20 54t20 54t53.5 20t53.5 -20q23 -20 23 -53.5t-21 -54.5zM647 1266q-20 -20 -52.5 -20t-55.5 20q-20 20 -20 54t20 54q23 20 55.5 20t52.5 -20q23 -20 23 -54t-23 -54zM100 999h641v-104h-260v-789h260v-106h-641v106h260v789h-260
v104z" />
    <glyph glyph-name="Idieresis.smcp" horiz-adv-x="471" 
d="M113 1266q-23 -20 -56 -20t-53 20t-20 54t20 54t53.5 20t53.5 -20q23 -20 23 -53.5t-21 -54.5zM463 1266q-23 -20 -56 -20t-53 20t-20 54t20 54t53.5 20t53.5 -20q23 -20 23 -53.5t-21 -54.5zM297 0h-121v999h121v-999z" />
    <glyph glyph-name="Idotaccent.alt" horiz-adv-x="1050" 
d="M111 1358h829v-113h-356v-1130h356v-115h-829v115h352v1130h-352v113zM578 1563q-23 -23 -55.5 -23t-53.5 21q-20 23 -20 55.5t20 52.5q20 23 53 23t53 -23q23 -20 23.5 -53t-20.5 -53z" />
    <glyph glyph-name="Idotaccent.alt.smcp" horiz-adv-x="841" 
d="M477 1266q-20 -20 -52.5 -20t-55.5 20q-20 20 -20 54t20 54q23 20 55.5 20t52.5 -20q23 -20 23 -54t-23 -54zM100 999h641v-104h-260v-789h260v-106h-641v106h260v789h-260v104z" />
    <glyph glyph-name="Idotaccent.smcp" horiz-adv-x="471" 
d="M291 1266q-20 -20 -53 -20t-56 20q-20 20 -20 54t20 54q23 20 56 20t53 -20q23 -20 23 -54t-23 -54zM297 0h-121v999h121v-999z" />
    <glyph glyph-name="Idotbelow.alt" horiz-adv-x="1050" 
d="M111 1358h829v-113h-356v-1130h356v-115h-829v115h352v1130h-352v113zM582 -336q-23 -20 -56 -20t-53 20t-20 53t20 56q20 20 53.5 20t53.5 -20q23 -23 23 -55.5t-21 -53.5z" />
    <glyph glyph-name="Idotbelow.alt.smcp" horiz-adv-x="841" 
d="M475 -336q-20 -20 -52.5 -20t-55.5 20q-20 20 -20 53t20 56q23 20 55.5 20t52.5 -20q23 -23 23 -56t-23 -53zM100 999h641v-104h-260v-789h260v-106h-641v106h260v789h-260v104z" />
    <glyph glyph-name="Idotbelow.smcp" horiz-adv-x="471" 
d="M289 -336q-23 -20 -56 -20t-53 20t-20 53t20 56q20 20 53.5 20t53.5 -20q23 -23 23 -55.5t-21 -53.5zM297 0h-121v999h121v-999z" />
    <glyph glyph-name="Igrave.alt" horiz-adv-x="1050" 
d="M111 1358h829v-113h-356v-1130h356v-115h-829v115h352v1130h-352v113zM434 1473l-172 333h137l144 -333h-109z" />
    <glyph glyph-name="Igrave.alt.smcp" horiz-adv-x="841" 
d="M369 1155l-174 334h139l141 -334h-106zM100 999h641v-104h-260v-789h260v-106h-641v106h260v789h-260v104z" />
    <glyph glyph-name="Igrave.smcp" horiz-adv-x="471" 
d="M184 1155l-172 334h138l143 -334h-109zM297 0h-121v999h121v-999z" />
    <glyph glyph-name="Imacron.alt" horiz-adv-x="1050" 
d="M111 1358h829v-113h-356v-1130h356v-115h-829v115h352v1130h-352v113zM825 1667v-104h-592v104h592z" />
    <glyph glyph-name="Imacron.alt.smcp" horiz-adv-x="841" 
d="M723 1364v-107h-592v107h592zM100 999h641v-104h-260v-789h260v-106h-641v106h260v789h-260v104z" />
    <glyph glyph-name="Imacron.smcp" horiz-adv-x="471" 
d="M532 1364v-107h-591v107h591zM297 0h-121v999h121v-999z" />
    <glyph glyph-name="Iogonek.alt" horiz-adv-x="1050" 
d="M111 1358h829v-113h-356v-1130h356v-115h-342q-94 -57 -150.5 -120.5t-56.5 -112.5q0 -70 68 -91.5t172 25.5l33 -92q-68 -45 -175 -45q-98 0 -153 49t-55 135q0 144 188 252h-358v115h352v1130h-352v113z" />
    <glyph glyph-name="Iogonek.alt.smcp" horiz-adv-x="841" 
d="M100 999h641v-104h-260v-789h260v-106h-262q-94 -57 -150.5 -120.5t-56.5 -112.5q0 -70 68 -91.5t172 25.5l33 -92q-71 -45 -174 -45q-98 0 -153.5 49t-55.5 135q0 144 188 252h-250v106h260v789h-260v104z" />
    <glyph glyph-name="Iogonek.smcp" horiz-adv-x="471" 
d="M-23 -252q0 73 53 139t146 117v995h121v-999q-94 -57 -150.5 -120.5t-56.5 -112.5q0 -70 67 -92t173 26l30 -92q-68 -45 -172 -45q-100 0 -155.5 49t-55.5 135z" />
    <glyph glyph-name="Itilde.alt" horiz-adv-x="1050" 
d="M111 1358h829v-113h-356v-1130h356v-115h-829v115h352v1130h-352v113zM401 1626q-36 0 -63 -18t-66 -60l-67 56q88 125 198 125q56 0 136 -41q79 -39 123 -39q36 0 63 17.5t66 59.5l67 -55q-88 -125 -192 -125q-63 0 -142 39q-84 41 -123 41z" />
    <glyph glyph-name="Itilde.alt.smcp" horiz-adv-x="845" 
d="M289 1311q-36 0 -63.5 -18t-65.5 -62l-70 55q88 125 201 125q55 0 135 -41q79 -39 123 -39q36 0 63 18t66 60l67 -55q-88 -125 -192 -125q-57 0 -141 41t-123 41zM94 999h641v-104h-260v-789h260v-106h-641v106h260v789h-260v104z" />
    <glyph glyph-name="Itilde.smcp" horiz-adv-x="471" 
d="M106 1311q-36 0 -64 -18t-67 -60l-67 55q88 125 198 125q58 0 138 -41q84 -41 121 -41t65.5 18.5t65.5 61.5l67 -55q-88 -125 -194 -125q-61 0 -140 39q-84 41 -123 41zM297 0h-121v999h121v-999z" />
    <glyph glyph-name="J.alt" horiz-adv-x="571" 
d="M354 1358v-1057q0 -116 -16.5 -209t-56.5 -183t-117 -162.5t-189 -123.5l-55 98q170 87 242 216q71 127 71 360v1061h121z" />
    <glyph glyph-name="J.alt.smcp" horiz-adv-x="475" 
d="M178 999h121v-948q0 -199 -66 -303t-233 -168l-49 92q126 57 178 144q49 82 49 235v948z" />
    <glyph glyph-name="J.smcp" horiz-adv-x="845" 
d="M51 41l27 111q106 -56 237 -56q110 0 177 56t67 163v580h-401v104h522v-690q0 -156 -95 -242.5t-266 -86.5q-73 0 -146.5 17t-121.5 44z" />
    <glyph glyph-name="Jcircumflex.alt" horiz-adv-x="571" 
d="M354 1358v-1057q0 -116 -16.5 -209t-56.5 -183t-117 -162.5t-189 -123.5l-55 98q170 87 242 216q71 127 71 360v1061h121zM260 1839h74l262 -369h-123l-174 256l-178 -256h-123z" />
    <glyph glyph-name="Jcircumflex.alt.smcp" horiz-adv-x="479" 
d="M207 1493h72l262 -369h-123l-174 256l-178 -256h-123zM180 999h119v-948q0 -199 -66 -303t-233 -168l-49 92q128 57 180 144q49 82 49 235v948z" />
    <glyph glyph-name="Jcircumflex.smcp" horiz-adv-x="821" 
d="M385 1493h74l262 -369h-123l-174 256l-178 -256h-123zM51 41l27 111q106 -56 237 -56q110 0 177 56t67 163v580h-401v104h522v-690q0 -156 -95 -242.5t-266 -86.5q-73 0 -146.5 17t-121.5 44z" />
    <glyph glyph-name="K.alt" horiz-adv-x="1400" 
d="M1085 1358h144l-420 -705q18 -21 84 -121l98 -149q198 -294 348 -285q26 0 50 6v-114q-31 -8 -72 -8q-84 -1 -166.5 50t-149.5 132t-123 163.5t-109.5 161.5t-86.5 109h-340v-598h-119v1358h119v-647h354z" />
    <glyph glyph-name="K.alt.smcp" horiz-adv-x="1089" 
d="M797 999h143l-313 -516l47 -75q11 -18 27 -46t25.5 -43.5t24 -37.5t31.5 -43q109 -142 228 -142q21 0 49 4v-112q-24 -8 -72 -8q-89 0 -158.5 44.5t-134.5 125.5q-28 36 -65 96q-69 123 -111 184h-221v-430h-121v999h121v-462h219z" />
    <glyph glyph-name="K.alt.swsh" horiz-adv-x="1374" 
d="M1090 1358h141l-424 -711q104 -235 234 -430t268 -328q400 -387 866 -387q241 0 393 64v-121q-66 -29 -176.5 -46t-222.5 -17q-160 0 -320 45t-321 141t-307 237t-281.5 343.5t-241.5 449.5h-356v-598h-119v1358h119v-647h358z" />
    <glyph glyph-name="K.smcp" horiz-adv-x="1024" 
d="M297 0h-121v999h121v-462h238l266 462h137l-297 -514l381 -485h-152l-327 430h-246v-430z" />
    <glyph glyph-name="K.swsh" horiz-adv-x="1779" 
d="M1495 1358h141l-424 -711q104 -235 234 -430t268 -328q400 -387 866 -387q242 0 394 64v-121q-67 -29 -176.5 -46t-223.5 -17q-160 0 -319.5 45t-320.5 141t-307 237t-281.5 343.5t-241.5 449.5h-350v-598h-121v1251h-94q-101 0 -176 -21.5t-129.5 -68.5t-78.5 -128.5
t-16 -194.5l-100 18q-23 241 106 371.5t392 130.5h217v-647h352z" />
    <glyph glyph-name="K.swsh.ss01" horiz-adv-x="1792" 
d="M1477 1358h141l-420 -705q27 -32 86 -121l96 -149q40 -59 76.5 -104.5t82.5 -91t95.5 -69t96.5 -20.5q22 0 49 6v-114q-31 -8 -74 -8q-71 -1 -142 36.5t-126.5 95t-111.5 131t-97.5 139.5t-84.5 127t-73 87h-338v-598h-121v1251h-73q-101 0 -176 -21.5t-129.5 -68.5
t-78.5 -128.5t-16 -194.5l-100 18q-23 241 106 371.5t392 130.5h196v-647h354z" />
    <glyph glyph-name="Kcommaaccent.alt" horiz-adv-x="1400" 
d="M709 -508h-99l15 379h137zM1085 1358h144l-420 -705q18 -21 84 -121l98 -149q198 -294 348 -285q26 0 50 6v-114q-31 -8 -72 -8q-84 -1 -166.5 50t-149.5 132t-123 163.5t-109.5 161.5t-86.5 109h-340v-598h-119v1358h119v-647h354z" />
    <glyph glyph-name="Kcommaaccent.alt.smcp" horiz-adv-x="1089" 
d="M535 -508h-99l15 379h135zM797 999h143l-313 -516l47 -75q11 -18 27 -46t25.5 -43.5t24 -37.5t31.5 -43q109 -142 228 -142q21 0 49 4v-112q-24 -8 -72 -8q-89 0 -158.5 44.5t-134.5 125.5q-28 36 -65 96q-69 123 -111 184h-221v-430h-121v999h121v-462h219z" />
    <glyph glyph-name="Kcommaaccent.alt.swsh" horiz-adv-x="1646" 
d="M1090 1358h141l-424 -711q104 -235 234 -430t268 -328q400 -387 866 -387q241 0 393 64v-121q-66 -29 -176.5 -46t-222.5 -17q-160 0 -320 45t-321 141t-307 237t-281.5 343.5t-241.5 449.5h-356v-598h-119v1358h119v-647h358zM676 -508h-98l14 379h135z" />
    <glyph glyph-name="Kcommaaccent.smcp" horiz-adv-x="1024" 
d="M541 -508h-99l15 379h137zM297 0h-121v999h121v-462h238l266 462h137l-297 -514l381 -485h-152l-327 430h-246v-430z" />
    <glyph glyph-name="Kcommaaccent.swsh" horiz-adv-x="2052" 
d="M1495 1358h141l-424 -711q104 -235 234 -430t268 -328q400 -387 866 -387q242 0 394 64v-121q-67 -29 -176.5 -46t-223.5 -17q-160 0 -319.5 45t-320.5 141t-307 237t-281.5 343.5t-241.5 449.5h-350v-598h-121v1251h-94q-101 0 -176 -21.5t-129.5 -68.5t-78.5 -128.5
t-16 -194.5l-100 18q-23 241 106 371.5t392 130.5h217v-647h352zM1094 -508h-99l15 379h137z" />
    <glyph glyph-name="Kcommaaccent.swsh.ss01" horiz-adv-x="1792" 
d="M1073 -508h-98l14 379h135zM1477 1358h141l-420 -705q27 -32 86 -121l96 -149q40 -59 76.5 -104.5t82.5 -91t95.5 -69t96.5 -20.5q22 0 49 6v-114q-31 -8 -74 -8q-71 -1 -142 36.5t-126.5 95t-111.5 131t-97.5 139.5t-84.5 127t-73 87h-340v-598h-121v1251h-71
q-101 0 -176 -21.5t-129.5 -68.5t-78.5 -128.5t-16 -194.5l-100 18q-23 241 106 371.5t392 130.5h194v-647h356z" />
    <glyph glyph-name="L.smcp" horiz-adv-x="940" 
d="M893 106v-106h-717v999h121v-893h596z" />
    <glyph glyph-name="L.swsh" horiz-adv-x="1675" 
d="M1634 111v-111h-942v1251h-153q-101 0 -176 -21.5t-129.5 -68.5t-78.5 -128.5t-16 -194.5l-100 18q-23 241 106 371.5t392 130.5h276v-1247h821z" />
    <glyph glyph-name="Lacute.smcp" horiz-adv-x="940" 
d="M324 1489h137l-172 -334h-109zM893 106v-106h-717v999h121v-893h596z" />
    <glyph glyph-name="Lacute.swsh" horiz-adv-x="1687" 
d="M1647 111v-111h-942v1251h-166q-101 0 -176 -21.5t-129.5 -68.5t-78.5 -128.5t-16 -194.5l-100 18q-23 241 106 371.5t392 130.5h288v-1247h822zM870 1806h138l-172 -333h-109z" />
    <glyph glyph-name="Lcaron.smcp" horiz-adv-x="944" 
d="M674 600h-99l15 381h135zM893 106v-106h-717v999h121v-893h596z" />
    <glyph glyph-name="Lcaron.swsh" horiz-adv-x="1693" 
d="M1647 111v-111h-942v1251h-166q-101 0 -176 -21.5t-129.5 -68.5t-78.5 -128.5t-16 -194.5l-100 18q-23 241 106 371.5t392 130.5h288v-1247h822zM1350 948h-99l15 379h137z" />
    <glyph glyph-name="Lcommaaccent.smcp" horiz-adv-x="940" 
d="M543 -508h-99l15 379h137zM893 106v-106h-717v999h121v-893h596z" />
    <glyph glyph-name="Lcommaaccent.swsh" horiz-adv-x="1687" 
d="M1647 111v-111h-942v1251h-166q-101 0 -176 -21.5t-129.5 -68.5t-78.5 -128.5t-16 -194.5l-100 18q-23 241 106 371.5t392 130.5h288v-1247h822zM1214 -508h-98l14 379h138z" />
    <glyph glyph-name="Ldot.smcp" horiz-adv-x="944" 
d="M743 442q-20 -20 -54 -20t-54 20q-20 23 -20 56t20 53t54 20t54 -20q23 -20 23 -53t-23 -56zM893 106v-106h-717v999h121v-893h596z" />
    <glyph glyph-name="Ldot.swsh" horiz-adv-x="1691" 
d="M1647 111v-111h-942v1251h-166q-101 0 -176 -21.5t-129.5 -68.5t-78.5 -128.5t-16 -194.5l-100 18q-23 241 106 371.5t392 130.5h288v-1247h822zM1436 621q-23 -20 -56 -20t-53 20t-20 54t20 54t53.5 20t53.5 -20q23 -20 23 -53.5t-21 -54.5z" />
    <glyph glyph-name="Lslash.smcp" horiz-adv-x="978" 
d="M930 106v-106h-717v524l-139 -14v108l139 15v366h121v-356l342 37v-107l-342 -36v-431h596z" />
    <glyph glyph-name="Lslash.swsh" horiz-adv-x="1687" 
d="M1647 111v-111h-942v727l-242 -12v112l242 15v409h-166q-101 0 -176 -21.5t-129.5 -68.5t-78.5 -128.5t-16 -194.5l-100 18q-23 241 106 371.5t392 130.5h288v-510l361 20v-114l-361 -21v-622h822z" />
    <glyph glyph-name="M.smcp" horiz-adv-x="1419" 
d="M1124 823l-393 -471h-43l-391 471v-823h-121v999h125l410 -493l407 493h125v-999h-119v823z" />
    <glyph glyph-name="M.swsh" horiz-adv-x="2320" 
d="M1980 1192l-575 -707h-35l-582 707v-1192h-118v1251h-131q-101 0 -176 -21.5t-129.5 -68.5t-78.5 -128.5t-16 -194.5l-100 18q-23 241 106 371.5t392 130.5h268l581 -709l578 709h133v-1358h-117v1192z" />
    <glyph glyph-name="N.smcp" horiz-adv-x="1284" 
d="M989 999h121v-999h-141l-672 834v-834h-121v999h141l672 -833v833z" />
    <glyph glyph-name="N.swsh" horiz-adv-x="2150" 
d="M1806 1358h121v-1358h-135l-981 1194v-1194h-121v1251h-151q-101 0 -176 -21.5t-129.5 -68.5t-78.5 -128.5t-16 -194.5l-100 18q-23 241 106 371.5t392 130.5h290l979 -1190v1190z" />
    <glyph glyph-name="Nacute.smcp" horiz-adv-x="1284" 
d="M702 1489h140l-174 -334h-107zM989 999h121v-999h-141l-672 834v-834h-121v999h141l672 -833v833z" />
    <glyph glyph-name="Nacute.swsh" horiz-adv-x="2150" 
d="M1806 1358h121v-1358h-135l-981 1194v-1194h-121v1251h-151q-101 0 -176 -21.5t-129.5 -68.5t-78.5 -128.5t-16 -194.5l-100 18q-23 241 106 371.5t392 130.5h290l979 -1190v1190zM1327 1806h139l-174 -333h-106z" />
    <glyph glyph-name="Ncaron.smcp" horiz-adv-x="1284" 
d="M676 1124h-74l-262 369h123l174 -256l178 256h123zM989 999h121v-999h-141l-672 834v-834h-121v999h141l672 -833v833z" />
    <glyph glyph-name="Ncaron.swsh" horiz-adv-x="2150" 
d="M1806 1358h121v-1358h-135l-981 1194v-1194h-121v1251h-151q-101 0 -176 -21.5t-129.5 -68.5t-78.5 -128.5t-16 -194.5l-100 18q-23 241 106 371.5t392 130.5h290l979 -1190v1190zM1311 1466h-74l-262 369h123l174 -256l178 256h123z" />
    <glyph glyph-name="Ncommaaccent.smcp" horiz-adv-x="1284" 
d="M645 -508h-96l12 379h137zM989 999h121v-999h-141l-672 834v-834h-121v999h141l672 -833v833z" />
    <glyph glyph-name="Ncommaaccent.swsh" horiz-adv-x="2150" 
d="M1806 1358h121v-1358h-135l-981 1194v-1194h-121v1251h-151q-101 0 -176 -21.5t-129.5 -68.5t-78.5 -128.5t-16 -194.5l-100 18q-23 241 106 371.5t392 130.5h290l979 -1190v1190zM1290 -508h-98l14 379h135z" />
    <glyph glyph-name="Nhookleft.smcp" horiz-adv-x="1331" 
d="M1034 999h121v-999h-141l-672 834v-834v-133q0 -135 -68.5 -211t-191.5 -76q-81 0 -133 25l14 102q47 -18 111 -18q147 0 147 188v1122h141l672 -833v833z" />
    <glyph glyph-name="Ntilde.smcp" horiz-adv-x="1284" 
d="M506 1311q-37 0 -65.5 -18.5t-65.5 -61.5l-68 55q88 125 199 125q53 0 137 -41q79 -39 121 -39q36 0 63 17.5t68 60.5l68 -55q-88 -125 -195 -125q-55 0 -139 41t-123 41zM989 999h121v-999h-141l-672 834v-834h-121v999h141l672 -833v833z" />
    <glyph glyph-name="Ntilde.swsh" horiz-adv-x="2150" 
d="M1806 1358h121v-1358h-135l-981 1194v-1194h-121v1251h-151q-101 0 -176 -21.5t-129.5 -68.5t-78.5 -128.5t-16 -194.5l-100 18q-23 241 106 371.5t392 130.5h290l979 -1190v1190zM1096 1626q-36 0 -63 -18t-66 -60l-70 56q88 125 201 125q55 0 135 -41q79 -39 123 -39
q36 0 63 17.5t66 59.5l67 -55q-88 -125 -192 -125q-62 0 -141 39q-84 41 -123 41z" />
    <glyph glyph-name="O.smcp" horiz-adv-x="1263" 
d="M248 127q-152 149 -152 373q0 223 152 372q151 148 383 148q234 0 385 -148t151 -372q0 -225 -151 -373q-150 -147 -385 -147q-233 0 -383 147zM217 500q0 -176 117 -293q120 -117 297 -117q180 0 297 117q119 116 119 293q0 180 -119 293q-116 116 -297 116
q-178 0 -297 -116q-117 -114 -117 -293z" />
    <glyph glyph-name="OE.smcp" horiz-adv-x="1841" 
d="M1739 106v-106h-748v141q-73 -74 -173.5 -117.5t-205.5 -43.5q-229 0 -372 143q-144 144 -144 377q0 230 144 374q146 146 372 146q104 0 205.5 -43t173.5 -117v139h731v-104h-610v-328h535v-104h-535v-357h627zM328 797q-111 -114 -111 -297q0 -182 109 -297
q110 -113 284 -113q178 0 285 113q111 114 111 297q0 181 -111 295q-108 114 -285 114q-176 0 -282 -112z" />
    <glyph glyph-name="Oacute.smcp" horiz-adv-x="1263" 
d="M711 1489h137l-172 -334h-109zM248 127q-152 149 -152 373q0 223 152 372q151 148 383 148q234 0 385 -148t151 -372q0 -225 -151 -373q-150 -147 -385 -147q-233 0 -383 147zM217 500q0 -176 117 -293q120 -117 297 -117q180 0 297 117q119 116 119 293q0 180 -119 293
q-116 116 -297 116q-178 0 -297 -116q-117 -114 -117 -293z" />
    <glyph glyph-name="Obreve.smcp" horiz-adv-x="1263" 
d="M248 127q-152 149 -152 373q0 223 152 372q151 148 383 148q234 0 385 -148t151 -372q0 -225 -151 -373q-150 -147 -385 -147q-233 0 -383 147zM217 500q0 -176 117 -293q120 -117 297 -117q180 0 297 117q119 116 119 293q0 180 -119 293q-116 116 -297 116
q-178 0 -297 -116q-117 -114 -117 -293zM365 1440h110q6 -71 49.5 -114.5t106.5 -43.5q66 0 108.5 43t48.5 115h111q-6 -116 -79.5 -187t-186.5 -71t-187 70.5t-81 187.5z" />
    <glyph glyph-name="Ocircumflex.smcp" horiz-adv-x="1263" 
d="M594 1493h72l262 -369h-123l-174 256l-178 -256h-123zM248 127q-152 149 -152 373q0 223 152 372q151 148 383 148q234 0 385 -148t151 -372q0 -225 -151 -373q-150 -147 -385 -147q-233 0 -383 147zM217 500q0 -176 117 -293q120 -117 297 -117q180 0 297 117
q119 116 119 293q0 180 -119 293q-116 116 -297 116q-178 0 -297 -116q-117 -114 -117 -293z" />
    <glyph glyph-name="Odieresis.smcp" horiz-adv-x="1263" 
d="M512 1264q-20 -20 -53 -20t-56 20q-20 20 -20 54t20 54q23 20 56 20t53 -20q23 -20 23 -54t-23 -54zM862 1264q-20 -20 -54 -20t-54 20t-20 54t20 54t54 20t54 -20q23 -20 23 -54t-23 -54zM248 127q-152 149 -152 373q0 223 152 372q151 148 383 148q234 0 385 -148
t151 -372q0 -225 -151 -373q-150 -147 -385 -147q-233 0 -383 147zM217 500q0 -176 117 -293q120 -117 297 -117q180 0 297 117q119 116 119 293q0 180 -119 293q-116 116 -297 116q-178 0 -297 -116q-117 -114 -117 -293z" />
    <glyph glyph-name="Odotbelow.smcp" horiz-adv-x="1263" 
d="M684 -336q-20 -20 -53 -20t-56 20q-20 20 -20 53t20 56q23 20 56 20t53 -20q23 -23 23 -56t-23 -53zM248 127q-152 149 -152 373q0 223 152 372q151 148 383 148q234 0 385 -148t151 -372q0 -225 -151 -373q-150 -147 -385 -147q-233 0 -383 147zM217 500
q0 -176 117 -293q120 -117 297 -117q180 0 297 117q119 116 119 293q0 180 -119 293q-116 116 -297 116q-178 0 -297 -116q-117 -114 -117 -293z" />
    <glyph glyph-name="Ograve.smcp" horiz-adv-x="1263" 
d="M588 1155l-174 334h139l141 -334h-106zM248 127q-152 149 -152 373q0 223 152 372q151 148 383 148q234 0 385 -148t151 -372q0 -225 -151 -373q-150 -147 -385 -147q-233 0 -383 147zM217 500q0 -176 117 -293q120 -117 297 -117q180 0 297 117q119 116 119 293
q0 180 -119 293q-116 116 -297 116q-178 0 -297 -116q-117 -114 -117 -293z" />
    <glyph glyph-name="Ohungarumlaut.smcp" horiz-adv-x="1263" 
d="M553 1489h145l-202 -334h-97zM879 1489h147l-203 -334h-96zM248 127q-152 149 -152 373q0 223 152 372q151 148 383 148q234 0 385 -148t151 -372q0 -225 -151 -373q-150 -147 -385 -147q-233 0 -383 147zM217 500q0 -176 117 -293q120 -117 297 -117q180 0 297 117
q119 116 119 293q0 180 -119 293q-116 116 -297 116q-178 0 -297 -116q-117 -114 -117 -293z" />
    <glyph glyph-name="Omacron.smcp" horiz-adv-x="1263" 
d="M932 1364v-107h-592v107h592zM248 127q-152 149 -152 373q0 223 152 372q151 148 383 148q234 0 385 -148t151 -372q0 -225 -151 -373q-150 -147 -385 -147q-233 0 -383 147zM217 500q0 -176 117 -293q120 -117 297 -117q180 0 297 117q119 116 119 293q0 180 -119 293
q-116 116 -297 116q-178 0 -297 -116q-117 -114 -117 -293z" />
    <glyph glyph-name="Oogonek.smcp" horiz-adv-x="1263" 
d="M96 500q0 223 152 372q151 148 383 148q234 0 385 -148t151 -372q0 -186 -104 -320q-104 -133 -277 -180q-93 -57 -148.5 -120t-55.5 -113q0 -70 66.5 -92t170.5 26l33 -92q-68 -45 -172 -45q-100 0 -155.5 49t-55.5 135q0 126 158 232q-232 3 -381 149
q-150 147 -150 371zM217 500q0 -176 117 -293q120 -117 297 -117q180 0 297 117q119 116 119 293q0 180 -119 293q-116 116 -297 116q-178 0 -297 -116q-117 -114 -117 -293z" />
    <glyph glyph-name="Oslash.smcp" horiz-adv-x="1224" 
d="M78 500q0 224 151 372t383 148q158 0 293 -78l127 158l78 -66l-123 -151q162 -150 162 -383q0 -224 -152 -373q-150 -147 -385 -147q-167 0 -295 79l-127 -157l-75 59l125 156q-162 149 -162 383zM1026 500q0 176 -115 291l-520 -641q102 -60 221 -60q180 0 297 117
t117 293zM199 500q0 -174 114 -291l521 643q-99 57 -222 57q-178 0 -297 -116q-116 -113 -116 -293z" />
    <glyph glyph-name="Oslashacute.smcp" horiz-adv-x="1224" 
d="M78 500q0 224 151 372t383 148q158 0 293 -78l127 158l78 -66l-123 -151q162 -150 162 -383q0 -224 -152 -373q-150 -147 -385 -147q-167 0 -295 79l-127 -157l-75 59l125 156q-162 149 -162 383zM1026 500q0 176 -115 291l-520 -641q102 -60 221 -60q180 0 297 117
t117 293zM199 500q0 -174 114 -291l521 643q-99 57 -222 57q-178 0 -297 -116q-116 -113 -116 -293zM698 1489h138l-172 -334h-109z" />
    <glyph glyph-name="Otilde.smcp" horiz-adv-x="1263" 
d="M506 1311q-37 0 -65.5 -18.5t-65.5 -61.5l-68 55q88 125 199 125q53 0 137 -41q79 -39 121 -39q36 0 63 17.5t68 60.5l68 -55q-88 -125 -195 -125q-55 0 -139 41t-123 41zM248 127q-152 149 -152 373q0 223 152 372q151 148 383 148q234 0 385 -148t151 -372
q0 -225 -151 -373q-150 -147 -385 -147q-233 0 -383 147zM217 500q0 -176 117 -293q120 -117 297 -117q180 0 297 117q119 116 119 293q0 180 -119 293q-116 116 -297 116q-178 0 -297 -116q-117 -114 -117 -293z" />
    <glyph glyph-name="P.smcp" horiz-adv-x="1046" 
d="M618 309h-321v-309h-121v999h442q168 0 264.5 -91.5t96.5 -250.5q0 -158 -98.5 -253t-262.5 -95zM618 895h-321v-479h321q106 0 171 66t65 175q0 110 -63.5 174t-172.5 64z" />
    <glyph glyph-name="P.swsh" horiz-adv-x="1775" 
d="M1223 436h-465v-436h-121v1251h-98q-101 0 -176 -21.5t-129.5 -68.5t-78.5 -128.5t-16 -194.5l-100 18q-23 241 106 371.5t392 130.5h686q78 0 147.5 -17.5t129.5 -55t103.5 -91.5t68 -130.5t24.5 -168.5q0 -209 -137.5 -334t-335.5 -125zM1223 1247h-465v-700h465
q149 0 250 94q104 94 104 254q0 115 -50 196.5t-128.5 118.5t-175.5 37z" />
    <glyph glyph-name="Q.alt" horiz-adv-x="1662" 
d="M115 672q-3 198 91.5 361.5t259 255.5t361.5 89q199 3 365.5 -89t262 -255.5t91.5 -361.5q0 -200 -92.5 -358t-257.5 -246l283 -371l-107 -88l-291 409q-113 -38 -254 -38q-197 -4 -361.5 85t-259 249.5t-91.5 357.5zM236 672q0 -166 77 -300t212 -209t302 -75
q258 0 428 164q170 167 170 420q0 258 -170 428q-168 168 -428 168q-168 0 -303 -76.5t-211.5 -212.5t-76.5 -307z" />
    <glyph glyph-name="Q.alt.smcp" horiz-adv-x="1263" 
d="M1167 500q0 -147 -69 -266t-191 -187l219 -276l-102 -72l-217 305q-83 -24 -174 -24q-235 0 -385 147q-152 149 -152 373q0 223 152 372q151 148 383 148q234 0 385 -148t151 -372zM217 500q0 -176 117 -293q120 -117 297 -117q180 0 297 117q119 116 119 293
q0 180 -119 293q-116 116 -297 116q-178 0 -297 -116q-117 -114 -117 -293z" />
    <glyph glyph-name="Q.smcp" horiz-adv-x="1179" 
d="M96 500q0 223 152 372q151 148 383 148q234 0 385 -148t151 -372q0 -199 -120 -340q-119 -137 -316 -172q156 -138 365 -138q59 0 125 17l8 -105q-61 -20 -156 -20q-138 0 -273 67t-225 175q-212 18 -346 161q-133 145 -133 355zM217 500q0 -176 117 -293
q120 -117 297 -117q180 0 297 117q119 116 119 293q0 180 -119 293q-116 116 -297 116q-178 0 -297 -116q-117 -114 -117 -293z" />
    <glyph glyph-name="Q.swsh" horiz-adv-x="1640" 
d="M115 672q-3 198 91.5 361.5t259 255.5t361.5 89q199 3 365.5 -89t262 -255.5t91.5 -361.5q0 -233 -127 -410q-124 -173 -338 -244q472 -522 1219 -522q157 0 321 31q157 27 263 78v-127q-67 -34 -252 -70q-168 -33 -334 -33q-376 0 -735 154q-355 153 -627 457
q-61 -6 -109 -6q-197 -4 -361.5 85t-259 249.5t-91.5 357.5zM236 672q0 -166 77 -300t212 -209t302 -75q258 0 428 164q170 167 170 420q0 258 -170 428q-168 168 -428 168q-168 0 -303 -76.5t-211.5 -212.5t-76.5 -307z" />
    <glyph glyph-name="R.alt" horiz-adv-x="1452" 
d="M1366 98l-2 -110q-33 -8 -72 -8q-135 0 -254 122q-48 50 -98 111q-58 80 -88 123q-44 67 -74 100h-436v-436h-119v1358h586q77 0 146 -17.5t129 -55t104 -91t69 -130.5t25 -169q0 -173 -98 -291.5t-260 -154.5l53 -80q1 -2 19 -26t32 -44l55 -70l18.5 -18.5l23.5 -23.5
t22.5 -22t25.5 -22t21 -14q72 -37 125 -37q23 0 47 6zM809 1247h-467v-700h467q149 0 250 94q102 95 102 254q0 171 -100 261.5t-252 90.5z" />
    <glyph glyph-name="R.alt.smcp" horiz-adv-x="1126" 
d="M979 653q0 -128 -75 -217.5t-195 -116.5q66 -113 131.5 -170t146.5 -57q21 0 49 4v-108q-21 -8 -69 -8q-102 0 -195 71q-33 27 -78 78q-59 77 -121 180h-276v-309h-121v999h442q167 0 264 -92.5t97 -253.5zM618 895h-321v-479h321q105 0 170.5 64.5t65.5 172.5
q0 112 -63.5 177t-172.5 65z" />
    <glyph glyph-name="R.alt.swsh" horiz-adv-x="1404" 
d="M827 436h-485v-436h-119v1358h586q77 0 146 -17.5t129 -55t104 -91t69 -130.5t25 -169q0 -165 -89 -280.5t-239 -157.5q261 -480 594.5 -718.5t726.5 -238.5q212 0 404 76v-123q-68 -33 -182 -53.5t-230 -20.5q-197 0 -384.5 59.5t-371.5 183.5t-358.5 330t-325.5 484z
M809 1247h-467v-700h467q149 0 250 94q102 95 102 254q0 171 -100 261.5t-252 90.5z" />
    <glyph glyph-name="R.smcp" horiz-adv-x="1095" 
d="M881 0l-252 309h-332v-309h-121v999h442q167 0 264 -92.5t97 -253.5q0 -112 -60 -197.5t-165 -123.5l284 -332h-157zM618 895h-321v-479h321q105 0 170.5 64.5t65.5 172.5q0 112 -63.5 177t-172.5 65z" />
    <glyph glyph-name="R.swsh" horiz-adv-x="1792" 
d="M1214 436h-485v-436h-119v1251h-71q-101 0 -176 -21.5t-129.5 -68.5t-78.5 -128.5t-16 -194.5l-100 18q-23 241 106 371.5t392 130.5h657q98 0 182.5 -28.5t150.5 -84t104 -145.5t38 -205q0 -165 -89 -280.5t-239 -157.5q261 -480 594.5 -718.5t726.5 -238.5
q212 0 404 76v-123q-68 -33 -182 -53.5t-230 -20.5q-197 0 -384.5 59.5t-371.5 183.5t-358.5 330t-325.5 484zM1194 1247h-465v-700h465q151 0 252 94q102 95 102 254q0 172 -99.5 262t-254.5 90z" />
    <glyph glyph-name="R.swsh.ss01" horiz-adv-x="1990" 
d="M1903 98v-110q-33 -8 -72 -8q-135 0 -254 122q-48 50 -98 111l-90 123q-38 57 -72 100h-436v-436h-119v1251h-223q-101 0 -176 -21.5t-129.5 -68.5t-78.5 -128.5t-16 -194.5l-100 18q-23 241 106 371.5t392 130.5h809q98 0 182.5 -28.5t150.5 -84t104 -145.5t38 -205
q0 -173 -98.5 -291.5t-260.5 -154.5q27 -43 54 -80q1 -2 19 -26t32 -44q43 -58 55 -70l18.5 -18.5l23.5 -23.5t22.5 -22t25.5 -22t21 -14q72 -37 122 -37q24 0 48 6zM1346 1247h-465v-700h465q148 0 249 94q105 95 105 254q0 171 -101 261.5t-253 90.5z" />
    <glyph glyph-name="Racute.alt" horiz-adv-x="1452" 
d="M1366 98l-2 -110q-33 -8 -72 -8q-135 0 -254 122q-48 50 -98 111q-58 80 -88 123q-44 67 -74 100h-436v-436h-119v1358h586q77 0 146 -17.5t129 -55t104 -91t69 -130.5t25 -169q0 -173 -98 -291.5t-260 -154.5l53 -80q1 -2 19 -26t32 -44l55 -70l18.5 -18.5l23.5 -23.5
t22.5 -22t25.5 -22t21 -14q72 -37 125 -37q23 0 47 6zM809 1247h-467v-700h467q149 0 250 94q102 95 102 254q0 171 -100 261.5t-252 90.5zM786 1806h138l-172 -333h-109z" />
    <glyph glyph-name="Racute.alt.smcp" horiz-adv-x="1126" 
d="M979 653q0 -128 -75 -217.5t-195 -116.5q66 -113 131.5 -170t146.5 -57q21 0 49 4v-108q-21 -8 -69 -8q-102 0 -195 71q-33 27 -78 78q-59 77 -121 180h-276v-309h-121v999h442q167 0 264 -92.5t97 -253.5zM618 895h-321v-479h321q105 0 170.5 64.5t65.5 172.5
q0 112 -63.5 177t-172.5 65zM614 1489h138l-172 -334h-109z" />
    <glyph glyph-name="Racute.alt.swsh" horiz-adv-x="1404" 
d="M827 436h-485v-436h-119v1358h586q77 0 146 -17.5t129 -55t104 -91t69 -130.5t25 -169q0 -165 -89 -280.5t-239 -157.5q261 -480 594.5 -718.5t726.5 -238.5q212 0 404 76v-123q-68 -33 -182 -53.5t-230 -20.5q-197 0 -384.5 59.5t-371.5 183.5t-358.5 330t-325.5 484z
M809 1247h-467v-700h467q149 0 250 94q102 95 102 254q0 171 -100 261.5t-252 90.5zM784 1806h140l-174 -333h-107z" />
    <glyph glyph-name="Racute.smcp" horiz-adv-x="1095" 
d="M584 1489h137l-172 -334h-109zM881 0l-252 309h-332v-309h-121v999h442q167 0 264 -92.5t97 -253.5q0 -112 -60 -197.5t-165 -123.5l284 -332h-157zM618 895h-321v-479h321q105 0 170.5 64.5t65.5 172.5q0 112 -63.5 177t-172.5 65z" />
    <glyph glyph-name="Racute.swsh" horiz-adv-x="1792" 
d="M1214 436h-485v-436h-119v1251h-71q-101 0 -176 -21.5t-129.5 -68.5t-78.5 -128.5t-16 -194.5l-100 18q-23 241 106 371.5t392 130.5h657q98 0 182.5 -28.5t150.5 -84t104 -145.5t38 -205q0 -165 -89 -280.5t-239 -157.5q261 -480 594.5 -718.5t726.5 -238.5
q212 0 404 76v-123q-68 -33 -182 -53.5t-230 -20.5q-197 0 -384.5 59.5t-371.5 183.5t-358.5 330t-325.5 484zM1194 1247h-465v-700h465q151 0 252 94q102 95 102 254q0 172 -99.5 262t-254.5 90zM1165 1806h138l-173 -333h-106z" />
    <glyph glyph-name="Racute.swsh.ss01" horiz-adv-x="1865" 
d="M1778 98l-2 -110q-31 -8 -72 -8q-135 0 -254 122q-52 58 -96 111l-90 123q-44 67 -74 100h-434v-436h-121v1251h-96q-101 0 -176 -21.5t-129.5 -68.5t-78.5 -128.5t-16 -194.5l-100 18q-23 241 106 371.5t392 130.5h684q78 0 147.5 -17.5t129.5 -55t103.5 -91.5
t68 -130.5t24.5 -168.5q0 -173 -98.5 -291.5t-260.5 -154.5l54 -80q1 -2 19 -26t32 -44l55 -70l18.5 -18.5l23.5 -23.5t22.5 -22t25.5 -22t21 -14q72 -37 125 -37q23 0 47 6zM1221 1247h-465v-700h465q148 0 249 94q105 95 105 254q0 115 -50 196.5t-128.5 118.5t-175.5 37z
M1145 1806h137l-172 -333h-106z" />
    <glyph glyph-name="Rcaron.alt" horiz-adv-x="1452" 
d="M1366 98l-2 -110q-33 -8 -72 -8q-135 0 -254 122q-48 50 -98 111q-58 80 -88 123q-44 67 -74 100h-436v-436h-119v1358h586q77 0 146 -17.5t129 -55t104 -91t69 -130.5t25 -169q0 -173 -98 -291.5t-260 -154.5l53 -80q1 -2 19 -26t32 -44l55 -70l18.5 -18.5l23.5 -23.5
t22.5 -22t25.5 -22t21 -14q72 -37 125 -37q23 0 47 6zM809 1247h-467v-700h467q149 0 250 94q102 95 102 254q0 171 -100 261.5t-252 90.5zM748 1466h-72l-262 369h123l174 -256l178 256h123z" />
    <glyph glyph-name="Rcaron.alt.smcp" horiz-adv-x="1126" 
d="M979 653q0 -128 -75 -217.5t-195 -116.5q66 -113 131.5 -170t146.5 -57q21 0 49 4v-108q-21 -8 -69 -8q-102 0 -195 71q-33 27 -78 78q-59 77 -121 180h-276v-309h-121v999h442q167 0 264 -92.5t97 -253.5zM618 895h-321v-479h321q105 0 170.5 64.5t65.5 172.5
q0 112 -63.5 177t-172.5 65zM553 1126h-72l-264 369h125l172 -256l178 256h123z" />
    <glyph glyph-name="Rcaron.alt.swsh" horiz-adv-x="1404" 
d="M827 436h-485v-436h-119v1358h586q77 0 146 -17.5t129 -55t104 -91t69 -130.5t25 -169q0 -165 -89 -280.5t-239 -157.5q261 -480 594.5 -718.5t726.5 -238.5q212 0 404 76v-123q-68 -33 -182 -53.5t-230 -20.5q-197 0 -384.5 59.5t-371.5 183.5t-358.5 330t-325.5 484z
M809 1247h-467v-700h467q149 0 250 94q102 95 102 254q0 171 -100 261.5t-252 90.5zM719 1466h-74l-262 369h123l174 -256l178 256h123z" />
    <glyph glyph-name="Rcaron.smcp" horiz-adv-x="1095" 
d="M559 1124h-72l-264 369h123l174 -256l178 256h123zM881 0l-252 309h-332v-309h-121v999h442q167 0 264 -92.5t97 -253.5q0 -112 -60 -197.5t-165 -123.5l284 -332h-157zM618 895h-321v-479h321q105 0 170.5 64.5t65.5 172.5q0 112 -63.5 177t-172.5 65z" />
    <glyph glyph-name="Rcaron.swsh" horiz-adv-x="1792" 
d="M1214 436h-485v-436h-119v1251h-71q-101 0 -176 -21.5t-129.5 -68.5t-78.5 -128.5t-16 -194.5l-100 18q-23 241 106 371.5t392 130.5h657q98 0 182.5 -28.5t150.5 -84t104 -145.5t38 -205q0 -165 -89 -280.5t-239 -157.5q261 -480 594.5 -718.5t726.5 -238.5
q212 0 404 76v-123q-68 -33 -182 -53.5t-230 -20.5q-197 0 -384.5 59.5t-371.5 183.5t-358.5 330t-325.5 484zM1194 1247h-465v-700h465q151 0 252 94q102 95 102 254q0 172 -99.5 262t-254.5 90zM1067 1466h-74l-262 369h123l174 -256l178 256h123z" />
    <glyph glyph-name="Rcaron.swsh.ss01" horiz-adv-x="1867" 
d="M1780 98v-110q-33 -8 -74 -8q-133 0 -252 122q-48 50 -98 111l-90 123q-38 57 -72 100h-436v-436h-119v1251h-100q-101 0 -176 -21.5t-129.5 -68.5t-78.5 -128.5t-16 -194.5l-100 18q-23 241 106 371.5t392 130.5h686q98 0 182.5 -28.5t150.5 -84t104 -145.5t38 -205
q0 -173 -98.5 -291.5t-260.5 -154.5l52 -80q1 -2 19 -26t32 -44q54 -67 57 -70l18.5 -18.5l23.5 -23.5t22.5 -22t25.5 -22t21 -14q72 -37 123 -37q23 0 47 6zM1223 1247h-465v-700h465q149 0 250 94q104 94 104 254q0 171 -101 261.5t-253 90.5zM1149 1466h-74l-262 369h123
l174 -256l178 256h123z" />
    <glyph glyph-name="Rcommaaccent.alt" horiz-adv-x="1452" 
d="M1366 98l-2 -110q-33 -8 -72 -8q-135 0 -254 122q-48 50 -98 111q-58 80 -88 123q-44 67 -74 100h-436v-436h-119v1358h586q77 0 146 -17.5t129 -55t104 -91t69 -130.5t25 -169q0 -173 -98 -291.5t-260 -154.5l53 -80q1 -2 19 -26t32 -44l55 -70l18.5 -18.5l23.5 -23.5
t22.5 -22t25.5 -22t21 -14q72 -37 125 -37q23 0 47 6zM809 1247h-467v-700h467q149 0 250 94q102 95 102 254q0 171 -100 261.5t-252 90.5zM741 -508h-98l14 379h138z" />
    <glyph glyph-name="Rcommaaccent.alt.smcp" horiz-adv-x="1126" 
d="M979 653q0 -128 -75 -217.5t-195 -116.5q66 -113 131.5 -170t146.5 -57q21 0 49 4v-108q-21 -8 -69 -8q-102 0 -195 71q-33 27 -78 78q-59 77 -121 180h-276v-309h-121v999h442q167 0 264 -92.5t97 -253.5zM618 895h-321v-479h321q105 0 170.5 64.5t65.5 172.5
q0 112 -63.5 177t-172.5 65zM537 -508h-99l15 379h135z" />
    <glyph glyph-name="Rcommaaccent.alt.swsh" horiz-adv-x="1404" 
d="M827 436h-485v-436h-119v1358h586q77 0 146 -17.5t129 -55t104 -91t69 -130.5t25 -169q0 -165 -89 -280.5t-239 -157.5q261 -480 594.5 -718.5t726.5 -238.5q212 0 404 76v-123q-68 -33 -182 -53.5t-230 -20.5q-197 0 -384.5 59.5t-371.5 183.5t-358.5 330t-325.5 484z
M809 1247h-467v-700h467q149 0 250 94q102 95 102 254q0 171 -100 261.5t-252 90.5zM713 -508h-99l15 379h137z" />
    <glyph glyph-name="Rcommaaccent.smcp" horiz-adv-x="1095" 
d="M557 -508h-98l14 379h135zM881 0l-252 309h-332v-309h-121v999h442q167 0 264 -92.5t97 -253.5q0 -112 -60 -197.5t-165 -123.5l284 -332h-157zM618 895h-321v-479h321q105 0 170.5 64.5t65.5 172.5q0 112 -63.5 177t-172.5 65z" />
    <glyph glyph-name="Rcommaaccent.swsh" horiz-adv-x="1792" 
d="M1214 436h-485v-436h-119v1251h-71q-101 0 -176 -21.5t-129.5 -68.5t-78.5 -128.5t-16 -194.5l-100 18q-23 241 106 371.5t392 130.5h657q98 0 182.5 -28.5t150.5 -84t104 -145.5t38 -205q0 -165 -89 -280.5t-239 -157.5q261 -480 594.5 -718.5t726.5 -238.5
q212 0 404 76v-123q-68 -33 -182 -53.5t-230 -20.5q-197 0 -384.5 59.5t-371.5 183.5t-358.5 330t-325.5 484zM1194 1247h-465v-700h465q151 0 252 94q102 95 102 254q0 172 -99.5 262t-254.5 90zM1071 -508h-96l12 379h137z" />
    <glyph glyph-name="Rcommaaccent.swsh.ss01" horiz-adv-x="1867" 
d="M1780 98v-110q-33 -8 -74 -8q-133 0 -252 122q-48 50 -98 111l-90 123q-38 57 -72 100h-436v-436h-119v1251h-100q-101 0 -176 -21.5t-129.5 -68.5t-78.5 -128.5t-16 -194.5l-100 18q-23 241 106 371.5t392 130.5h686q98 0 182.5 -28.5t150.5 -84t104 -145.5t38 -205
q0 -173 -98.5 -291.5t-260.5 -154.5l52 -80q1 -2 19 -26t32 -44q54 -67 57 -70l18.5 -18.5l23.5 -23.5t22.5 -22t25.5 -22t21 -14q72 -37 123 -37q23 0 47 6zM1223 1247h-465v-700h465q149 0 250 94q104 94 104 254q0 171 -101 261.5t-253 90.5zM1169 -508h-98l14 379h138z
" />
    <glyph glyph-name="S.smcp" horiz-adv-x="901" 
d="M524 426l-178 57q-125 39 -182.5 101.5t-57.5 165.5q0 127 96.5 198.5t264.5 71.5q155 0 295 -55l-14 -113q-133 53 -279 53q-113 0 -177.5 -41t-64.5 -114q0 -66 52 -103q52 -34 116 -53l166 -55q140 -49 197 -111.5t57 -165.5q0 -133 -97.5 -207.5t-271.5 -74.5
q-197 0 -340 67l15 121q154 -74 321 -74q117 0 183.5 45t66.5 123q0 58 -39 96.5t-129 67.5z" />
    <glyph glyph-name="Sacute.smcp" horiz-adv-x="901" 
d="M537 1489h139l-174 -334h-107zM524 426l-178 57q-125 39 -182.5 101.5t-57.5 165.5q0 127 96.5 198.5t264.5 71.5q155 0 295 -55l-14 -113q-133 53 -279 53q-113 0 -177.5 -41t-64.5 -114q0 -66 52 -103q52 -34 116 -53l166 -55q140 -49 197 -111.5t57 -165.5
q0 -133 -97.5 -207.5t-271.5 -74.5q-197 0 -340 67l15 121q154 -74 321 -74q117 0 183.5 45t66.5 123q0 58 -39 96.5t-129 67.5z" />
    <glyph glyph-name="Scaron.smcp" horiz-adv-x="901" 
d="M502 1126h-74l-262 367h123l174 -256l178 256h123zM524 426l-178 57q-125 39 -182.5 101.5t-57.5 165.5q0 127 96.5 198.5t264.5 71.5q155 0 295 -55l-14 -113q-133 53 -279 53q-113 0 -177.5 -41t-64.5 -114q0 -66 52 -103q52 -34 116 -53l166 -55q140 -49 197 -111.5
t57 -165.5q0 -133 -97.5 -207.5t-271.5 -74.5q-197 0 -340 67l15 121q154 -74 321 -74q117 0 183.5 45t66.5 123q0 58 -39 96.5t-129 67.5z" />
    </font>
</defs>
</svg>
