<?xml version="1.0" standalone="no"?>
<!DOCTYPE svg PUBLIC "-//W3C//DTD SVG 1.1//EN" "http://www.w3.org/Graphics/SVG/1.1/DTD/svg11.dtd" >
<svg xmlns="http://www.w3.org/2000/svg" xmlns:xlink="http://www.w3.org/1999/xlink" version="1.1">
<metadata>
Created by FontForge 20170731 at Wed May 31 19:14:18 2023
 By Aleksey,,,
Copyright (c) 2018 by TipoType Team. All rights reserved. |DCNT
</metadata>
<defs>
<font id="Fieldwork-GeoDemibold" horiz-adv-x="1349" >
  <font-face 
    font-family="Fieldwork Geo Demibold"
    font-weight="600"
    font-stretch="normal"
    units-per-em="2048"
    panose-1="0 0 0 0 0 0 0 0 0 0"
    ascent="1407"
    descent="-641"
    x-height="961"
    cap-height="1358"
    bbox="-303 -764 3056 2294"
    underline-thickness="149"
    underline-position="-949"
    unicode-range="U+000D-FB04"
  />
<missing-glyph horiz-adv-x="1417" 
d="M1219 0h-1018v1358h1018v-1358zM711 776l-244 242l-96 -96l241 -240l-243 -246l96 -96l246 242l241 -242l99 96l-244 246l242 240l-99 96z" />
    <glyph glyph-name="ff" unicode="ff" horiz-adv-x="1515" 
d="M1489 961v-213h-268v-748h-256v748h-500v-748h-258v748h-168v213h170v94q0 168 104 270t291 102q87 0 182 -32l-26 -211q-55 24 -127 24q-84 0 -130 -42t-46 -128v-77h510v94q0 168 104 270t291 102q87 0 182 -32l-26 -211q-56 24 -129 24q-82 0 -128.5 -42.5
t-46.5 -127.5v-77h275z" />
    <glyph glyph-name="fi" unicode="fi" horiz-adv-x="1259" 
d="M717 961v-213h-252v-748h-258v748h-168v213h170v104q0 166 99.5 265.5t271.5 99.5q72 0 170 -31l-27 -209q-50 20 -115 20q-151 0 -151 -159v-90h260zM1139 961v-961h-256v961h256zM1116 1163q-43 -41 -107.5 -41t-105.5 41t-41 105.5t41 105.5t105.5 41t105.5 -41
q43 -41 43 -105.5t-41 -105.5z" />
    <glyph glyph-name="fl" unicode="fl" horiz-adv-x="1241" 
d="M717 961v-213h-252v-748h-258v748h-168v213h170v104q0 166 99.5 265.5t271.5 99.5q72 0 170 -31l-27 -209q-53 20 -115 20q-151 0 -151 -159v-90h260zM864 1407h256v-1407h-256v1407z" />
    <glyph glyph-name="ffi" unicode="ffi" horiz-adv-x="2011" 
d="M969 0v748h-504v-748h-258v748h-168v213h170v94q0 168 104 270t291 102q87 0 182 -32l-26 -211q-55 24 -127 24q-84 0 -130 -42t-46 -128v-77h514v104q0 166 99 265.5t271 99.5q72 0 170 -31l-26 -209q-55 18 -105 18q-75 0 -118 -39t-43 -118v-90h270v-213h-262v-748
h-258zM1892 961v-961h-258v961h258zM1870 1163q-41 -41 -106.5 -41t-106.5 41t-41 105.5t41 105.5t106.5 41t106.5 -41t41 -105.5t-41 -105.5z" />
    <glyph glyph-name="ffl" unicode="ffl" horiz-adv-x="2048" 
d="M1489 961v-213h-268v-748h-256v748h-500v-748h-258v748h-168v213h170v94q0 168 104 270t291 102q87 0 182 -32l-26 -211q-55 24 -127 24q-84 0 -130 -42t-46 -128v-77h510v94q0 168 104 270t291 102q87 0 182 -32l-26 -211q-56 24 -129 24q-82 0 -128.5 -42.5
t-46.5 -127.5v-77h275zM1671 1407h256v-1407h-256v1407z" />
    <glyph glyph-name="Th" unicode="Th" horiz-adv-x="2285" 
d="M1796 981q166 0 270 -104q107 -101 107 -275v-602h-256v537q0 96 -54.5 150t-142.5 54q-93 0 -153 -55t-60 -149v-537h-256v1407h256v-549q46 54 121.5 88.5t167.5 34.5zM719 0h-268v1118h-426v240h1073v-240h-379v-1118z" />
    <glyph glyph-name="fj" unicode="fj" horiz-adv-x="1263" 
d="M725 961v-213h-260v-748h-258v748h-168v213h170v104q0 166 99.5 265.5t271.5 99.5q72 0 170 -31l-27 -209q-56 20 -109 20q-72 0 -114.5 -40t-42.5 -119v-90h268zM887 -33v991h256v-1007q0 -176 -95.5 -273.5t-259.5 -97.5q-114 0 -186 35l25 207q65 -19 112 -19
q148 0 148 164zM1120 1163q-41 -41 -106.5 -41t-106.5 41t-41 105.5t41 105.5t106.5 41t106.5 -41q43 -41 43 -105.5t-43 -105.5z" />
    <glyph glyph-name="ft" unicode="ft" horiz-adv-x="1546" 
d="M457 1047v-86h483v307h250v-307h276v-213h-272v-396q0 -143 143 -143q76 0 162 22l25 -213q-89 -38 -232 -38q-167 0 -260.5 86t-93.5 249v433h-473v-748h-258v748h-168v213h170v98q0 169 100.5 270t276.5 101q70 0 168 -31l-27 -209q-53 20 -113 20q-157 0 -157 -163z
" />
    <glyph glyph-name=".notdef" horiz-adv-x="1417" 
d="M1219 0h-1018v1358h1018v-1358zM711 776l-244 242l-96 -96l241 -240l-243 -246l96 -96l246 242l241 -242l99 96l-244 246l242 240l-99 96z" />
    <glyph glyph-name=".null" horiz-adv-x="0" 
 />
    <glyph glyph-name="nonmarkingreturn" horiz-adv-x="682" 
 />
    <glyph glyph-name="CR.001" unicode="&#xd;" horiz-adv-x="483" 
 />
    <glyph glyph-name="CR.001" horiz-adv-x="483" 
 />
    <glyph glyph-name="space" unicode=" " horiz-adv-x="491" 
 />
    <glyph glyph-name="exclam" unicode="!" horiz-adv-x="538" 
d="M369 387h-199l-45 971h291zM162 23q-41 43 -41 104t41 104q43 43 106.5 43t106.5 -43t43 -104t-43 -104t-106.5 -43t-106.5 43z" />
    <glyph glyph-name="quotedbl" unicode="&#x22;" horiz-adv-x="815" 
d="M348 1427l-43 -509h-172l-43 509h258zM725 1427l-43 -509h-172l-43 509h258z" />
    <glyph glyph-name="numbersign" unicode="#" horiz-adv-x="1413" 
d="M963 1358h217l-54 -307h234l-33 -189h-235l-62 -340h236l-35 -190h-234l-59 -332h-219l61 332h-274l-64 -332h-217l62 332h-232l33 190h236l59 340h-233l34 189h232l53 307h215l-49 -307h272zM598 862l-59 -340h278l62 340h-281z" />
    <glyph glyph-name="dollar" unicode="$" horiz-adv-x="1019" 
d="M70 918q0 136 92.5 228.5t255.5 117.5l-15 241h228l-15 -237q170 -12 289 -70l-20 -233q-47 26 -156 53q-104 26 -197 26q-94 0 -148 -29.5t-54 -84.5q0 -44 28 -68q37 -30 129 -51l164 -47q157 -45 234.5 -124t77.5 -204q0 -135 -96.5 -228t-258.5 -116l15 -242h-226
l15 238q-213 18 -338 82l22 233q63 -32 172 -61q126 -29 221 -29q100 0 156.5 29.5t56.5 87.5q0 42 -35.5 68t-115.5 47l-180 49q-301 76 -301 324z" />
    <glyph glyph-name="percent" unicode="%" horiz-adv-x="1888" 
d="M96 999q0 162 109 271q108 108 272 108q167 0 275 -108q110 -107 110 -271q0 -161 -110 -268q-106 -106 -273 -106q-165 0 -274 106q-109 109 -109 268zM1044 354q0 162 109 271q108 108 272 108q167 0 275 -108q110 -107 110 -271q0 -161 -110 -268q-106 -106 -275 -106
q-166 0 -272 106q-109 109 -109 268zM666 0h-156v27l733 1331h156v-25zM297 999q0 -78 51 -131t129 -53q79 0 132 53t53 131q0 80 -53 134.5t-132 54.5q-77 0 -128.5 -54.5t-51.5 -134.5zM1243 354q0 -78 52 -131t130 -53q79 0 131 53t52 131q0 80 -52 134.5t-131 54.5
q-78 0 -130 -54.5t-52 -134.5z" />
    <glyph glyph-name="ampersand" unicode="&#x26;" horiz-adv-x="1443" 
d="M1012 1317l-23 -225q-50 25 -128 42t-154 17q-99 0 -156 -40t-57 -118q0 -69 41 -121q22 -28 43 -49q21 -18 24 -24l55 -49l328 -308q38 47 58 128t14 167h246q4 -124 -33 -247.5t-105 -208.5l293 -281h-330l-127 115q-167 -135 -403 -135q-148 0 -266.5 48.5t-191 147
t-72.5 232.5q0 112 70 210t175 150q-96 110 -96 248q0 91 39.5 162t107.5 114t152 64.5t180 21.5q173 0 316 -61zM827 274l-370 340q-57 -31 -91 -81t-34 -115q0 -94 76.5 -152.5t199.5 -58.5q143 0 219 67z" />
    <glyph glyph-name="quotesingle" unicode="'" horiz-adv-x="438" 
d="M348 1427l-43 -509h-172l-43 509h258z" />
    <glyph glyph-name="parenleft" unicode="(" horiz-adv-x="649" 
d="M383 1561h246q-72 -114 -140 -267q-36 -78 -77 -204q-78 -264 -78 -510q0 -255 80 -510q42 -124 78 -203q62 -145 139 -266h-248q-134 175 -223 436q-86 263 -86 543q0 270 79 508.5t230 472.5z" />
    <glyph glyph-name="parenright" unicode=")" horiz-adv-x="649" 
d="M20 1561h246q309 -455 309 -981q0 -283 -88 -537q-86 -255 -223 -442h-246q75 115 140 266q36 79 78 203q79 252 79 510q0 255 -79 510q-39 118 -78 204q-56 132 -138 267z" />
    <glyph glyph-name="asterisk" unicode="*" horiz-adv-x="876" 
d="M344 1407h188l-12 -254l236 88l57 -170l-244 -74l166 -206l-149 -107l-148 217l-145 -217l-152 107l166 206l-244 74l60 170l233 -88z" />
    <glyph glyph-name="plus" unicode="+" horiz-adv-x="1204" 
d="M735 152h-268v409h-412v242h412v403h268v-403h416v-242h-416v-409z" />
    <glyph glyph-name="comma" unicode="," horiz-adv-x="516" 
d="M29 -262l133 516h260l-178 -516h-215z" />
    <glyph glyph-name="hyphen" unicode="-" horiz-adv-x="901" 
d="M104 668h693v-215h-693v215z" />
    <glyph glyph-name="period" unicode="." horiz-adv-x="464" 
d="M127 23q-43 43 -43 104t43 104t105.5 43t105.5 -43t43 -104t-43 -104t-105.5 -43t-105.5 43z" />
    <glyph glyph-name="slash" unicode="/" horiz-adv-x="1110" 
d="M813 1530h262l-776 -1929h-262z" />
    <glyph glyph-name="zero" unicode="0" horiz-adv-x="1325" 
d="M664 1378q121 0 219 -39t163.5 -105.5t109.5 -157.5t63.5 -191t19.5 -211q0 -175 -48.5 -319t-148.5 -238q-144 -137 -380 -137q-235 0 -379 137q-130 120 -175 335.5t-2 438.5q21 106 64.5 193t110.5 153.5t165 103.5t218 37zM354 680q0 -93 18 -173.5t54 -145.5
t97 -102.5t141 -37.5t141 38.5t97 104.5t53.5 145.5t17.5 170.5q0 94 -17.5 174t-53.5 144.5t-97 101.5t-141 37t-141 -38t-97 -103.5t-54 -145t-18 -170.5z" />
    <glyph glyph-name="one" unicode="1" horiz-adv-x="737" 
d="M590 0h-271v1120h-288v238h559v-1358z" />
    <glyph glyph-name="two" unicode="2" horiz-adv-x="1093" 
d="M569 356l-139 -120h594v-236h-952v205l434 403q100 93 144 169.5t44 160.5q0 203 -243 203q-83 0 -176 -26.5t-156 -65.5l-35 229q184 100 399 100q102 0 188.5 -24.5t156 -74t109.5 -134t40 -195.5q0 -129 -72.5 -245.5t-240.5 -264.5z" />
    <glyph glyph-name="three" unicode="3" horiz-adv-x="1150" 
d="M303 586v182l356 352h-536v238h876v-209l-366 -350q199 -9 319 -117q121 -109 121 -274q0 -90 -29 -162.5t-80.5 -122t-123 -83t-154 -48.5t-176.5 -15q-262 0 -451 103l31 231q189 -98 395 -98q151 0 230.5 50t79.5 143q0 97 -86 148.5t-228 51.5q-102 0 -178 -20z" />
    <glyph glyph-name="four" unicode="4" horiz-adv-x="1196" 
d="M467 1358h287l-418 -817h373v301h258v-301h188v-232h-188v-309h-258v309h-664v209z" />
    <glyph glyph-name="five" unicode="5" horiz-adv-x="1124" 
d="M1053 440q0 -98 -28.5 -176t-78.5 -130.5t-120.5 -87.5t-150.5 -50.5t-173 -15.5q-240 0 -432 88l34 231q170 -84 367 -84q141 0 218 53t77 160q0 223 -317 223q-161 0 -279 -37l-47 45l84 699h782v-238h-571l-29 -264q49 12 131 12q110 0 205 -26.5t169 -78
t116.5 -134.5t42.5 -189z" />
    <glyph glyph-name="six" unicode="6" horiz-adv-x="1228" 
d="M1077 1315l-20 -236q-139 68 -305 68q-169 0 -275.5 -93.5t-116.5 -291.5q109 133 320 133q76 0 144.5 -15t130.5 -49t106.5 -84t71 -125t26.5 -167q0 -223 -147 -349q-144 -126 -385 -126q-141 0 -247 50t-169 139t-94 202.5t-31 249.5q0 360 165.5 558.5t479.5 198.5
q202 0 346 -63zM635 211q113 0 183.5 65t70.5 170q0 108 -69 171t-185 63q-109 0 -179.5 -66.5t-70.5 -164.5q0 -101 70.5 -169.5t179.5 -68.5z" />
    <glyph glyph-name="seven" unicode="7" horiz-adv-x="999" 
d="M965 1151l-537 -1151h-299l537 1112h-623v246h922v-207z" />
    <glyph glyph-name="eight" unicode="8" horiz-adv-x="1247" 
d="M365 403q0 -95 72.5 -147.5t187.5 -52.5t188.5 52.5t73.5 147.5t-72.5 147t-189.5 52q-116 0 -188 -52t-72 -147zM623 1151q-104 0 -167 -46.5t-63 -127.5q0 -86 63.5 -134t168.5 -48q102 0 165.5 48t63.5 134q0 81 -63.5 127.5t-167.5 46.5zM1130 1008q0 -97 -50 -174
t-136 -121q101 -45 158 -132.5t57 -203.5q0 -101 -45 -179t-121.5 -124.5t-170.5 -70t-199 -23.5q-103 0 -196.5 24t-171 70.5t-123.5 124.5t-46 178q0 115 58 203t159 133q-87 44 -136.5 120.5t-49.5 174.5q0 90 43.5 163t115 117.5t162.5 69t185.5 24.5t185.5 -24.5
t162.5 -69t115 -117.5t43.5 -163z" />
    <glyph glyph-name="nine" unicode="9" horiz-adv-x="1228" 
d="M152 43l20 236q139 -68 305 -68q78 0 145 21t122 65.5t87.5 120.5t34.5 178q-106 -133 -317 -133q-76 0 -144.5 15t-130.5 49t-106.5 84t-71 125t-26.5 167q0 221 145 348t385 127q113 0 204.5 -33t154 -91t104.5 -139.5t61 -175.5t19 -202q0 -359 -165.5 -558
t-479.5 -199q-205 0 -346 63zM596 1147q-115 0 -185.5 -65t-70.5 -171q0 -108 69 -170.5t185 -62.5q109 0 178.5 66.5t69.5 164.5q0 100 -69.5 169t-176.5 69z" />
    <glyph glyph-name="colon" unicode=":" horiz-adv-x="507" 
d="M147 23q-43 43 -43 104t43 104t105.5 43t105.5 -43t43 -104t-43 -104t-105.5 -43t-105.5 43zM147 727q-43 43 -43 105.5t43 105.5t105.5 43t105.5 -43t43 -105.5t-43 -105.5t-105.5 -43t-105.5 43z" />
    <glyph glyph-name="semicolon" unicode=";" horiz-adv-x="557" 
d="M45 -262l133 516h260l-176 -516h-217zM199 727q-43 43 -43 105.5t43 105.5t105.5 43t105.5 -43t43 -105.5t-43 -105.5t-105.5 -43t-105.5 43z" />
    <glyph glyph-name="less" unicode="&#x3c;" horiz-adv-x="1138" 
d="M377 680l661 -285v-268l-966 432v238l966 438v-268z" />
    <glyph glyph-name="equal" unicode="=" horiz-adv-x="1288" 
d="M111 561h1069v-244h-1069v244zM111 1038h1069v-241h-1069v241z" />
    <glyph glyph-name="greater" unicode="&#x3e;" horiz-adv-x="1138" 
d="M100 127v268l662 285l-662 287v268l967 -438v-238z" />
    <glyph glyph-name="question" unicode="?" horiz-adv-x="972" 
d="M539 547l-23 -191h-209l-20 283q166 91 200 115q150 102 150 211q0 93 -62 136.5t-172 43.5q-79 0 -168.5 -24.5t-142.5 -57.5l-45 217q174 98 385 98q96 0 180 -22.5t152 -67.5t107.5 -121.5t39.5 -175.5q0 -140 -87.5 -241.5t-284.5 -202.5zM305 23q-41 43 -41 104
t41 104q43 43 106.5 43t106.5 -43t43 -104t-43 -104t-106.5 -43t-106.5 43z" />
    <glyph glyph-name="at" unicode="@" horiz-adv-x="1884" 
d="M1161 950h201v-571q0 -78 33 -119t90 -41q84 0 131 101t47 266q0 141 -53.5 266.5t-146.5 216.5t-225.5 144t-283.5 53q-332 0 -538 -203q-205 -202 -205 -531q-3 -148 54 -283.5t156 -232.5t236 -153t287 -53q212 0 420 108l55 -121q-238 -131 -475 -131
q-176 0 -336.5 64.5t-280 177t-190.5 276.5t-71 351q0 189 70.5 355.5t193.5 278.5q124 114 288 176t347 62q169 0 324 -63t269.5 -171t183 -261.5t68.5 -325.5q0 -237 -93.5 -369.5t-256.5 -132.5q-182 0 -258 176q-36 -71 -120.5 -118.5t-184.5 -47.5q-173 0 -296.5 124.5
t-123.5 311.5q0 192 115 316q114 123 289 123q179 0 270 -119zM686 535q0 -101 66 -171.5t163 -70.5q99 0 166.5 70.5t67.5 171.5q0 103 -67 171t-167 68q-98 0 -163.5 -68t-65.5 -171z" />
    <glyph glyph-name="A" unicode="A" horiz-adv-x="1431" 
d="M1419 0h-286l-101 266h-631l-100 -266h-289l549 1358h309zM954 481l-237 594l-240 -594h477z" />
    <glyph glyph-name="B" unicode="B" horiz-adv-x="1343" 
d="M848 0h-703v1358h633q184 0 301 -105q119 -101 119 -266q0 -185 -164 -287q115 -42 175.5 -126.5t60.5 -196.5q0 -166 -119 -273q-116 -104 -303 -104zM416 1126v-338h325q81 0 130 46.5t49 121.5q0 77 -53 123.5t-136 46.5h-315zM416 575v-344h387q79 0 128.5 46
t49.5 120q0 80 -48.5 129t-129.5 49h-387z" />
    <glyph glyph-name="C" unicode="C" horiz-adv-x="1355" 
d="M1266 322l37 -240q-211 -102 -465 -102q-159 -3 -301 48t-244 142.5t-160.5 224t-56.5 285.5q-2 209 104 371.5t284 246.5t392 80q229 0 426 -90l-20 -241q-166 81 -381 81q-147 0 -265 -50.5t-189 -153.5t-71 -242q0 -208 144 -334q143 -125 374 -125q228 0 392 99z" />
    <glyph glyph-name="D" unicode="D" horiz-adv-x="1495" 
d="M145 0v1358h584q325 0 505.5 -180.5t180.5 -497.5q0 -318 -182 -500q-180 -180 -504 -180h-584zM416 233h284q439 0 439 447q0 444 -439 444h-284v-891z" />
    <glyph glyph-name="E" unicode="E" horiz-adv-x="1239" 
d="M416 233h749v-233h-1020v1358h1006v-234h-735v-313h643v-233h-643v-345z" />
    <glyph glyph-name="F" unicode="F" horiz-adv-x="1155" 
d="M963 571h-547v-571h-271v1358h967v-234h-696v-319h547v-234z" />
    <glyph glyph-name="G" unicode="G" horiz-adv-x="1478" 
d="M1114 266v271h-364v229h632v-664q-102 -56 -240 -89t-268 -33q-183 0 -333.5 52t-252 144.5t-157 221.5t-55.5 282q0 162 62 294.5t171.5 220t257.5 134.5t320 47q237 0 438 -92l-20 -240q-195 86 -404 86q-248 0 -395 -118q-152 -119 -152 -332q0 -204 140 -332
q141 -123 368 -123q165 0 252 41z" />
    <glyph glyph-name="H" unicode="H" horiz-adv-x="1490" 
d="M1077 1358h269v-1358h-269v575h-661v-575h-271v1358h271v-549h661v549z" />
    <glyph glyph-name="I" unicode="I" horiz-adv-x="559" 
d="M145 1358h271v-1358h-271v1358z" />
    <glyph glyph-name="J" unicode="J" horiz-adv-x="1067" 
d="M31 61l30 234q186 -76 312 -76q49 0 88 5t78 19.5t65 38t42 63t16 91.5v686h-480v236h750v-936q0 -92 -28 -167t-75.5 -125t-113 -84.5t-138 -50t-151.5 -15.5q-217 0 -395 81z" />
    <glyph glyph-name="K" unicode="K" horiz-adv-x="1376" 
d="M416 1358v-578h252l327 578h303l-413 -703l501 -655h-335l-404 547h-231v-547h-271v1358h271z" />
    <glyph glyph-name="L" unicode="L" horiz-adv-x="1173" 
d="M416 233h731v-233h-1002v1358h271v-1125z" />
    <glyph glyph-name="M" unicode="M" horiz-adv-x="1783" 
d="M1368 928l-453 -512h-43l-456 512v-928h-271v1358h234l514 -608l512 608h233v-1358h-270v928z" />
    <glyph glyph-name="N" unicode="N" horiz-adv-x="1585" 
d="M1192 0l-776 922v-922h-271v1358h244l782 -932v932h271v-1358h-250z" />
    <glyph glyph-name="O" unicode="O" horiz-adv-x="1587" 
d="M76 676q0 203 91 363.5t255 248.5q166 90 371 90q204 0 370 -90q166 -91 257 -250.5t91 -361.5q3 -199 -89.5 -359.5t-258 -250t-370.5 -86.5q-203 -3 -368.5 86.5t-258.5 250.5t-90 359zM352 678q0 -201 123 -324t320 -123t317 123q123 123 123 324q0 197 -123 323
q-119 125 -317 125q-196 0 -320 -127q-123 -126 -123 -321z" />
    <glyph glyph-name="P" unicode="P" horiz-adv-x="1320" 
d="M774 399h-358v-399h-271v1358h629q102 0 192 -32.5t158 -93t107 -152t39 -203.5q0 -141 -67.5 -251t-180 -168.5t-248.5 -58.5zM743 1124h-327v-491h327q109 0 178.5 68t69.5 176q0 114 -69 180.5t-179 66.5z" />
    <glyph glyph-name="Q" unicode="Q" horiz-adv-x="1572" 
d="M76 676q0 197 93 358.5t255 252.5t360 91q147 2 280 -52t228.5 -148t151 -225.5t53.5 -276.5q0 -238 -133 -418q-133 -177 -348 -244q80 -77 217 -120q137 -46 285 -46q93 0 170 23v-215q-115 -37 -226 -37q-213 0 -405 98q-196 96 -316 265q-185 6 -338.5 98
t-241.5 249.5t-85 346.5zM354 676q0 -197 119 -322t311 -125q197 0 316 125t119 322q0 198 -119 323q-121 127 -316 127q-190 0 -311 -127q-119 -125 -119 -323z" />
    <glyph glyph-name="R" unicode="R" horiz-adv-x="1406" 
d="M1366 0h-326l-311 399h-313v-399h-271v1358h629q213 0 354 -129q144 -129 144 -350q0 -144 -71 -255.5t-195 -172.5zM743 1124h-327v-491h327q111 0 180.5 68t69.5 176q0 115 -69 181t-181 66z" />
    <glyph glyph-name="S" unicode="S" horiz-adv-x="1161" 
d="M594 1378q242 0 434 -86l-22 -239q-49 31 -172 59q-122 29 -222 29q-119 0 -185.5 -40t-66.5 -118q0 -75 56 -109q31 -19 49 -26t65 -21l21 -6l194 -57q89 -27 151 -57.5t109 -74t70 -102.5t23 -137q0 -180 -144 -297q-140 -116 -370 -116q-143 0 -287 30
q-145 30 -217 70l22 242q58 -36 197 -70q135 -33 260 -33q118 0 187 42t69 120q0 62 -37 96.5t-129 59.5l-215 57q-354 94 -354 367q0 188 139 303q138 114 375 114z" />
    <glyph glyph-name="T" unicode="T" horiz-adv-x="1167" 
d="M719 0h-268v1118h-426v240h1118v-240h-424v-1118z" />
    <glyph glyph-name="U" unicode="U" horiz-adv-x="1454" 
d="M133 481v877h270v-858q0 -136 87.5 -207.5t234.5 -71.5q154 0 240 72.5t86 206.5v858h270v-877q0 -102 -32 -186t-88 -142t-132 -97.5t-162.5 -57.5t-181.5 -18q-126 0 -232.5 31t-187.5 91.5t-126.5 157.5t-45.5 221z" />
    <glyph glyph-name="V" unicode="V" horiz-adv-x="1394" 
d="M305 1358l393 -1082l389 1082h289l-508 -1358h-340l-512 1358h289z" />
    <glyph glyph-name="W" unicode="W" horiz-adv-x="2054" 
d="M778 0h-377l-372 1358h270l301 -1090l305 1069h244l305 -1069l301 1090h270l-370 -1358h-379l-250 874z" />
    <glyph glyph-name="X" unicode="X" horiz-adv-x="1366" 
d="M1036 0l-352 498l-350 -498h-326l506 694l-477 664h323l324 -463l324 463h323l-481 -662l510 -696h-324z" />
    <glyph glyph-name="Y" unicode="Y" horiz-adv-x="1406" 
d="M336 1358l371 -572l374 572h312l-553 -846v-512h-271v512l-557 846h324z" />
    <glyph glyph-name="Z" unicode="Z" horiz-adv-x="1204" 
d="M1135 0h-1065v193l710 929h-710v236h1065v-197l-711 -925h711v-236z" />
    <glyph glyph-name="bracketleft" unicode="[" horiz-adv-x="696" 
d="M385 -217h277v-182h-523v1951h523v-182h-277v-1587z" />
    <glyph glyph-name="backslash" unicode="\" horiz-adv-x="1110" 
d="M811 -399l-778 1929h264l776 -1929h-262z" />
    <glyph glyph-name="bracketright" unicode="]" horiz-adv-x="696" 
d="M35 -399v182h276v1587h-276v182h522v-1951h-522z" />
    <glyph glyph-name="asciicircum" unicode="^" horiz-adv-x="1234" 
d="M874 510l-258 532l-256 -532h-305l449 848h227l449 -848h-306z" />
    <glyph glyph-name="underscore" unicode="_" horiz-adv-x="1153" 
d="M1069 -76v-198h-983v198h983z" />
    <glyph glyph-name="grave" unicode="`" horiz-adv-x="694" 
d="M571 1473h-215l-233 333h293z" />
    <glyph glyph-name="a" unicode="a" horiz-adv-x="1222" 
d="M532 -20q-199 0 -331 141q-131 143 -131 360q0 219 131 359q132 141 331 141q207 0 314 -137l4 117h252v-961h-252l-4 117q-107 -137 -314 -137zM844 481q0 118 -73.5 194.5t-188.5 76.5q-112 0 -185 -77t-73 -194t73 -194.5t185 -77.5q115 0 188.5 77t73.5 195z" />
    <glyph glyph-name="b" unicode="b" horiz-adv-x="1222" 
d="M688 -20q-205 0 -311 122l-4 -102h-252v1409h252v-565q107 137 315 137q205 0 334 -141q131 -137 131 -359q0 -220 -131 -360q-129 -141 -334 -141zM897 481q0 118 -72.5 193.5t-187.5 75.5q-113 0 -186 -76q-74 -77 -74 -193q0 -115 74 -192q75 -78 186 -78t186 78
q74 77 74 192z" />
    <glyph glyph-name="c" unicode="c" horiz-adv-x="974" 
d="M68 481q0 231 149 365q150 135 389 135q157 0 301 -66l-20 -223q-121 53 -252 53q-140 0 -224.5 -69.5t-84.5 -194.5q0 -121 83.5 -193.5t217.5 -72.5q130 0 264 64l29 -228q-157 -71 -312 -71q-238 0 -389 139t-151 362z" />
    <glyph glyph-name="d" unicode="d" horiz-adv-x="1224" 
d="M535 -20q-204 0 -336 141q-129 141 -129 360q0 221 129 359q132 141 336 141q207 0 317 -137v565h252v-1409h-252l-6 102q-107 -122 -311 -122zM588 750q-115 0 -187.5 -75.5t-72.5 -193.5q0 -117 72.5 -193.5t187.5 -76.5q109 0 184 78q76 76 76 192q0 117 -73.5 193
t-186.5 76z" />
    <glyph glyph-name="e" unicode="e" horiz-adv-x="1095" 
d="M952 279l35 -209q-159 -90 -360 -90q-256 0 -408 137q-151 139 -151 362q0 222 139 361q138 141 354 141q110 0 203.5 -41.5t158 -115t91 -183.5t4.5 -238h-694q18 -97 98 -147.5t205 -50.5q171 0 325 74zM328 575h458q-5 83 -64.5 136t-154.5 53q-99 0 -165 -53
t-74 -136z" />
    <glyph glyph-name="f" unicode="f" horiz-adv-x="759" 
d="M731 961v-213h-266v-748h-258v748h-168v213h170v94q0 168 104 270t291 102q87 0 182 -32l-26 -211q-55 24 -127 24q-84 0 -130 -42t-46 -128v-77h274z" />
    <glyph glyph-name="g" unicode="g" horiz-adv-x="1222" 
d="M535 -20q-204 0 -336 141q-129 141 -129 360q0 221 129 359q132 141 336 141q207 0 317 -137l4 117h246v-926q0 -112 -45 -200t-123 -143t-177 -83.5t-212 -28.5q-110 0 -212 22t-171 58l28 219q59 -30 153.5 -51t182.5 -21q84 0 155 24.5t118 79t47 130.5v68
q-43 -60 -125 -94.5t-186 -34.5zM588 750q-115 0 -187.5 -75.5t-72.5 -193.5q0 -117 72.5 -193.5t187.5 -76.5q109 0 184 78q76 76 76 192q0 117 -73.5 193t-186.5 76z" />
    <glyph glyph-name="h" unicode="h" horiz-adv-x="1155" 
d="M666 981q168 0 272 -104t104 -275v-602h-256v537q0 96 -54 150t-142 54q-91 0 -151 -55t-60 -149v-537h-258v1407h258v-549q44 54 119.5 88.5t167.5 34.5z" />
    <glyph glyph-name="i" unicode="i" horiz-adv-x="499" 
d="M379 961v-961h-258v961h258zM397 1268q0 -66 -41.5 -107t-107.5 -41q-64 0 -105 41t-41 107q0 65 41 106t105 41q66 0 107.5 -40.5t41.5 -106.5z" />
    <glyph glyph-name="j" unicode="j" horiz-adv-x="505" 
d="M127 -33v991h258v-1007q0 -176 -95.5 -273.5t-258.5 -97.5q-115 0 -187 35l25 207q59 -21 121 -21q137 0 137 166zM403 1268q0 -66 -40.5 -107t-106.5 -41t-106.5 41t-40.5 107t40.5 106.5t106.5 40.5t106.5 -40.5t40.5 -106.5z" />
    <glyph glyph-name="k" unicode="k" horiz-adv-x="1099" 
d="M121 1407h256v-799h149l217 353h285l-299 -465l361 -496h-302l-270 387h-141v-387h-256v1407z" />
    <glyph glyph-name="l" unicode="l" horiz-adv-x="497" 
d="M121 1407h256v-1407h-256v1407z" />
    <glyph glyph-name="m" unicode="m" horiz-adv-x="1808" 
d="M664 981q110 0 195 -45t126 -125q55 79 143 124.5t191 45.5q168 0 272.5 -103.5t104.5 -275.5v-602h-256v537q0 96 -53 150t-140 54q-91 0 -151 -53.5t-60 -144.5v-543h-258v537q0 97 -52 150.5t-138 53.5q-91 0 -150 -55t-59 -149v-537h-258v961h244l6 -111
q40 57 119 94t174 37z" />
    <glyph glyph-name="n" unicode="n" horiz-adv-x="1157" 
d="M666 981q168 0 272 -104q106 -100 106 -275v-602h-256v537q0 96 -54 150t-144 54q-91 0 -152 -55t-61 -149v-537h-256v961h244l6 -111q43 58 121 94.5t174 36.5z" />
    <glyph glyph-name="o" unicode="o" horiz-adv-x="1159" 
d="M1094 479q0 -211 -147.5 -355t-366.5 -144q-221 0 -367 143q-145 145 -145 356q0 212 145 357q148 145 367 145q221 0 366 -145q148 -145 148 -357zM322 479q0 -115 73.5 -190.5t184.5 -75.5q112 0 185 75t73 191q0 117 -73 193t-185 76q-111 0 -184.5 -76t-73.5 -193z
" />
    <glyph glyph-name="p" unicode="p" horiz-adv-x="1222" 
d="M688 981q206 0 334 -143q131 -143 131 -363q0 -219 -131 -356q-130 -139 -334 -139q-203 0 -311 120v-499h-256v1360h248l4 -117q107 137 315 137zM377 477q0 -115 73.5 -190.5t186.5 -75.5t186.5 75.5t73.5 190.5q0 118 -72.5 195.5t-187.5 77.5q-112 0 -186 -78
t-74 -195z" />
    <glyph glyph-name="q" unicode="q" horiz-adv-x="1224" 
d="M535 981q207 0 317 -137l4 117h248v-1360h-258v499q-108 -120 -311 -120t-336 139q-129 138 -129 356q0 219 129 363q131 143 336 143zM848 477q0 117 -74.5 195t-185.5 78q-115 0 -187.5 -77.5t-72.5 -195.5q0 -116 72.5 -191t187.5 -75q113 0 186.5 75.5t73.5 190.5z
" />
    <glyph glyph-name="r" unicode="r" horiz-adv-x="778" 
d="M121 961h248l6 -132q35 73 100 112.5t150 39.5q54 0 125 -23l-21 -229q-71 23 -119 23q-46 0 -85 -13t-73 -41.5t-53.5 -81t-19.5 -124.5v-492h-258v961z" />
    <glyph glyph-name="s" unicode="s" horiz-adv-x="921" 
d="M473 586l102 -19q147 -26 216 -95t69 -191q0 -141 -109 -221t-296 -80q-236 0 -371 69l27 209q72 -29 161 -47t162 -18q93 0 135.5 19t42.5 62q0 39 -34.5 61.5t-118.5 35.5l-115 22q-274 47 -274 285q0 136 114.5 219.5t304.5 83.5q192 0 326 -61l-22 -209
q-54 23 -137.5 39t-151.5 16q-189 0 -189 -88q0 -35 34.5 -55t123.5 -37z" />
    <glyph glyph-name="t" unicode="t" horiz-adv-x="802" 
d="M723 961v-213h-272v-396q0 -143 143 -143q76 0 162 22l24 -213q-93 -38 -231 -38q-167 0 -260.5 86t-93.5 249v433h-162v213h164v307h247v-307h279z" />
    <glyph glyph-name="u" unicode="u" horiz-adv-x="1124" 
d="M758 422v539h256v-566q0 -181 -127 -299q-125 -116 -328 -116q-200 0 -326 114q-122 113 -122 295v572h258v-539q0 -92 52.5 -149.5t137.5 -57.5q90 0 144.5 57t54.5 150z" />
    <glyph glyph-name="v" unicode="v" horiz-adv-x="1099" 
d="M299 961l252 -709l248 709h272l-364 -961h-314l-364 961h270z" />
    <glyph glyph-name="w" unicode="w" horiz-adv-x="1617" 
d="M694 944h230l204 -684l191 701h264l-283 -961h-319l-172 582l-172 -582h-320l-282 961h264l190 -701z" />
    <glyph glyph-name="x" unicode="x" horiz-adv-x="1062" 
d="M322 961l208 -297l207 297h295l-348 -472l356 -489h-288l-222 319l-219 -319h-288l354 489l-350 472h295z" />
    <glyph glyph-name="y" unicode="y" horiz-adv-x="1110" 
d="M307 961l250 -701l250 701h285l-453 -1092q-63 -146 -159.5 -217.5t-241.5 -71.5q-101 0 -185 41l33 207q61 -25 121 -25q79 0 134.5 52t78.5 145l-397 961h284z" />
    <glyph glyph-name="z" unicode="z" horiz-adv-x="905" 
d="M846 0h-776v184l452 561h-448v216h741v-187l-453 -561h484v-213z" />
    <glyph glyph-name="braceleft" unicode="{" horiz-adv-x="749" 
d="M340 575q123 -64 123 -233v-328q0 -135 43.5 -184t159.5 -49h39v-197q-78 -4 -101 -4q-190 0 -279 88t-100 262q-2 35 -2 80v322q0 78 -34 111.5t-123 33.5h-37v199h37q81 0 119 32t38 111v334q0 47 2 82q11 171 99.5 254.5t279.5 83.5q39 0 101 -4v-197h-31
q-124 0 -169.5 -45t-45.5 -176v-340q0 -175 -119 -236z" />
    <glyph glyph-name="bar" unicode="|" horiz-adv-x="518" 
d="M139 1757h240v-2156h-240v2156z" />
    <glyph glyph-name="braceright" unicode="}" horiz-adv-x="749" 
d="M401 575q-118 60 -118 236v340q0 131 -45.5 176t-169.5 45h-31v197q62 4 100 4q192 0 280.5 -84t96.5 -254q2 -35 2 -82v-334q0 -79 39 -111t121 -32h37v-199h-37q-90 0 -125 -34t-35 -111v-322q0 -45 -2 -80q-8 -173 -97 -261.5t-280 -88.5q-22 0 -100 4v197h39
q116 0 159.5 49t43.5 184v328q0 169 122 233z" />
    <glyph glyph-name="asciitilde" unicode="~" horiz-adv-x="1288" 
d="M227 412l-137 188q86 87 177 133.5t173 46.5q58 0 115.5 -17t97.5 -42q93 -59 195 -59q42 0 80 14q15 5 26 10t24.5 14l21 14t28.5 21t33 25l135 -189q-86 -87 -176 -133.5t-170 -46.5q-60 0 -116.5 19t-94 41.5t-90.5 41.5t-107 19q-94 0 -215 -100z" />
    <glyph glyph-name="uni00A0" unicode="&#xa0;" horiz-adv-x="483" 
 />
    <glyph glyph-name="exclamdown" unicode="&#xa1;" horiz-adv-x="516" 
d="M113 -397l45 968h198l50 -968h-293zM150 727q-41 43 -41 105.5t41 105.5q43 43 106 43t106 -43t43 -105.5t-43 -105.5t-106 -43t-106 43z" />
    <glyph glyph-name="cent" unicode="&#xa2;" horiz-adv-x="989" 
d="M66 680q0 196 113.5 326t305.5 163l-14 238h225l-14 -233q113 -11 223 -60l-22 -221q-117 51 -252 51q-138 0 -223.5 -70t-85.5 -192t84 -194t219 -72q131 0 262 61l31 -227q-125 -58 -240 -70l14 -233h-225l12 243q-187 34 -301 166q-112 130 -112 324z" />
    <glyph glyph-name="sterling" unicode="&#xa3;" horiz-adv-x="1187" 
d="M954 795v-195h-370q16 -75 16 -119q0 -81 -33.5 -141.5t-103.5 -112.5h659v-227h-1020v195q220 96 220 272q0 50 -25 133h-225v195h161q-22 93 -22 161q0 200 143 310q141 112 369 112q210 0 358 -65l-24 -236q-136 62 -303 62q-267 0 -267 -203q0 -59 33 -141h434z" />
    <glyph glyph-name="currency" unicode="&#xa4;" horiz-adv-x="1230" 
d="M1032 662q0 -114 -59 -209l174 -172l-156 -156l-174 176q-92 -51 -205 -51q-104 0 -196 51l-176 -176l-156 156l172 172q-57 92 -57 209q0 111 55 202l-170 168l156 156l166 -168q98 55 206 55q113 0 211 -55l168 168l156 -156l-170 -168q55 -94 55 -202zM612 463
q87 0 148 57.5t61 141.5q0 85 -61.5 144.5t-147.5 59.5q-84 0 -142 -59.5t-58 -144.5t57.5 -142t142.5 -57z" />
    <glyph glyph-name="yen" unicode="&#xa5;" horiz-adv-x="1456" 
d="M1171 639v-143h-309v-113h297v-143h-297v-240h-268v240h-299v143h299v113h-311v143h245l-489 719h319l373 -565l375 565h311l-487 -719h241z" />
    <glyph glyph-name="brokenbar" unicode="&#xa6;" horiz-adv-x="518" 
d="M139 1757h240v-848h-240v848zM139 449h240v-848h-240v848z" />
    <glyph glyph-name="section" unicode="&#xa7;" horiz-adv-x="1157" 
d="M963 727q139 -103 139 -281q0 -167 -154 -303q37 -64 37 -145q0 -106 -65.5 -184t-166 -115t-218.5 -37q-204 0 -371 78l20 199q176 -72 338 -72q105 0 170.5 37t65.5 94q0 41 -26.5 64t-96.5 49q-224 81 -291 112q-90 42 -149 88q-142 109 -142 283q0 162 160 301
q-35 72 -35 141q0 82 36.5 148.5t98 108t140 63.5t165.5 22q98 0 199.5 -21.5t175.5 -56.5l-20 -198q-176 72 -340 72q-111 0 -172.5 -35.5t-61.5 -96.5q0 -43 26 -65.5t97 -48.5q235 -87 291 -115q89 -39 150 -86zM649 643q-30 11 -89 34t-110 42.5t-98 36.5
q-78 -72 -78 -150q0 -66 52 -111.5t182 -97.5q143 -58 297 -112q74 65 74 149q0 67 -51 111.5t-179 97.5z" />
    <glyph glyph-name="dieresis" unicode="&#xa8;" horiz-adv-x="884" 
d="M258 1493q-60 0 -97.5 37t-37.5 98t37.5 99t97.5 38q62 0 99.5 -37.5t37.5 -99.5q0 -61 -37.5 -98t-99.5 -37zM723 1530q-38 -37 -99.5 -37t-99.5 37q-37 37 -37 98t37 98q38 38 99.5 38t99.5 -38q38 -37 38 -98t-38 -98z" />
    <glyph glyph-name="copyright" unicode="&#xa9;" horiz-adv-x="1601" 
d="M801 1378q142 0 275 -54t233 -145.5t160.5 -222.5t60.5 -276q3 -143 -58 -275.5t-162.5 -226t-235.5 -148t-273 -50.5q-145 0 -278.5 54t-232 146.5t-157.5 223t-59 276.5q0 145 60 276t159.5 223t232.5 146t275 53zM231 680q-3 -112 44 -216.5t125.5 -178.5
t183.5 -117.5t215 -40.5q111 -3 217 41t185 118.5t126 178.5t45 215q4 147 -76.5 277t-214.5 205.5t-280 72.5q-151 0 -282 -74t-209.5 -202.5t-78.5 -278.5zM387 680q-1 170 125.5 287t292.5 112q125 0 233 -51l-14 -139q-109 41 -207 41q-106 0 -184 -72q-74 -71 -74 -176
q0 -111 74 -182q76 -70 188 -70q114 0 217 53l17 -141q-133 -59 -250 -59q-109 0 -204 49t-154.5 141.5t-59.5 206.5z" />
    <glyph glyph-name="ordfeminine" unicode="&#xaa;" horiz-adv-x="798" 
d="M680 756h-168l-4 69q-31 -38 -82.5 -60t-112.5 -22q-91 0 -146.5 49.5t-55.5 133.5q0 90 73 138t199 48q72 0 121 -14v26q0 101 -146 101q-49 0 -105 -13.5t-93 -33.5l-17 145q38 24 104.5 39.5t137.5 15.5q295 0 295 -241v-381zM680 645v-147h-565v147h565zM367 874
q58 0 95.5 30t37.5 79v8q-49 17 -105 17q-112 0 -112 -70q0 -30 23 -47t61 -17z" />
    <glyph glyph-name="guillemotleft" unicode="&#xab;" horiz-adv-x="1048" 
d="M315 479l254 -393h-233l-273 393l273 395h233zM725 479l254 -393h-236l-272 393l272 395h236z" />
    <glyph glyph-name="logicalnot" unicode="&#xac;" horiz-adv-x="1286" 
d="M1184 385h-266v360h-842v240h1108v-600z" />
    <glyph glyph-name="uni00AD" unicode="&#xad;" horiz-adv-x="817" 
d="M104 668h609v-215h-609v215z" />
    <glyph glyph-name="registered" unicode="&#xae;" horiz-adv-x="1204" 
d="M63 1047q0 221 156 368q157 148 379 148q106 2 207 -38.5t176 -110t119.5 -166.5t42.5 -201q0 -148 -73 -267.5t-197.5 -185.5t-274.5 -66q-141 -3 -264.5 63.5t-198 188t-72.5 267.5zM195 1047q0 -173 114 -281q118 -109 289 -109q174 0 295 109t121 281q0 169 -123 280
q-120 111 -293 111q-170 0 -287 -111q-116 -110 -116 -280zM594 936h-90v-150h-131v529h250q87 0 143.5 -53.5t56.5 -137.5q0 -49 -25.5 -92.5t-68.5 -68.5l135 -177h-157zM608 1200h-104v-151h104q35 0 56.5 21t21.5 54q0 35 -21.5 55.5t-56.5 20.5z" />
    <glyph glyph-name="overscore" unicode="&#xaf;" horiz-adv-x="837" 
d="M123 1690h592v-174h-592v174z" />
    <glyph glyph-name="degree" unicode="&#xb0;" horiz-adv-x="854" 
d="M70 1026q0 154 98 252q100 100 258 100q156 0 256 -100q102 -99 102 -252q0 -151 -102 -250q-101 -98 -256 -98q-157 0 -258 98q-98 98 -98 250zM254 1024q0 -74 48.5 -123t121.5 -49q75 0 122.5 48.5t47.5 123.5q0 79 -47.5 129.5t-122.5 50.5q-74 0 -122 -50.5
t-48 -129.5z" />
    <glyph glyph-name="plusminus" unicode="&#xb1;" horiz-adv-x="1261" 
d="M764 430h-266v348h-394v240h394v340h266v-340h393v-240h-393v-348zM96 258h1069v-235h-1069v235z" />
    <glyph glyph-name="twosuperior" unicode="&#xb2;" horiz-adv-x="696" 
d="M434 813l-123 -106h330v-160h-584v135l260 242q107 98 107 186q0 107 -131 107q-45 0 -104.5 -18t-100.5 -44l-25 160q117 63 250 63q136 0 218.5 -66.5t82.5 -195.5q0 -83 -44.5 -153.5t-135.5 -149.5z" />
    <glyph glyph-name="threesuperior" unicode="&#xb3;" horiz-adv-x="722" 
d="M193 883v123l192 192h-299v160h541v-137l-201 -193q110 -10 177 -76.5t67 -163.5q0 -90 -46.5 -150t-122 -86t-175.5 -26q-156 0 -279 66l23 160q126 -66 241 -66q170 0 170 102q0 53 -49.5 80t-128.5 27q-51 0 -110 -12z" />
    <glyph glyph-name="acute" unicode="&#xb4;" horiz-adv-x="694" 
d="M281 1806h290l-231 -333h-217z" />
    <glyph glyph-name="mu" unicode="&#xb5;" horiz-adv-x="1189" 
d="M389 -399h-256v1360h256v-553q4 -89 58.5 -140t138.5 -51q93 0 154 56.5t61 148.5v539h256v-961h-246l-4 111q-37 -57 -102 -91t-148 -34q-108 0 -168 51v-436z" />
    <glyph glyph-name="paragraph" unicode="&#xb6;" horiz-adv-x="1314" 
d="M541 1358h682v-168h-394v-1589h-184v827h-104q-214 0 -355 129q-139 133 -139 336q0 206 139 336q141 129 355 129zM1139 1065v-1464h-176v1464h176z" />
    <glyph glyph-name="middot" unicode="&#xb7;" horiz-adv-x="499" 
d="M143 383q-43 43 -43 105.5t43 105.5t105.5 43t105.5 -43t43 -105.5t-43 -105.5q-43 -41 -105.5 -41t-105.5 41z" />
    <glyph glyph-name="cedilla" unicode="&#xb8;" horiz-adv-x="665" 
d="M227 -184h-71l84 211h141l-37 -113q102 -12 156.5 -60t54.5 -122q0 -91 -81.5 -145t-217.5 -54q-94 0 -152 27v141q62 -18 132 -18q116 0 116 65q0 68 -125 68z" />
    <glyph glyph-name="onesuperior" unicode="&#xb9;" horiz-adv-x="481" 
d="M383 539h-184v659h-168v160h352v-819z" />
    <glyph glyph-name="ordmasculine" unicode="&#xba;" horiz-adv-x="870" 
d="M748 645v-147h-625v147h625zM109 1059q0 138 92 227q92 92 233 92q142 0 234 -92q94 -88 94 -227q0 -140 -94 -228q-91 -88 -234 -88q-142 0 -233 88q-92 89 -92 228zM285 1059q0 -66 41.5 -108t107.5 -42t107 42t41 108t-41 108.5t-107 42.5t-107.5 -42.5t-41.5 -108.5z
" />
    <glyph glyph-name="guillemotright" unicode="&#xbb;" horiz-adv-x="1048" 
d="M985 479l-272 -393h-236l254 393l-254 395h236zM578 479l-273 -393h-235l254 393l-254 395h235z" />
    <glyph glyph-name="onequarter" unicode="&#xbc;" horiz-adv-x="1517" 
d="M1122 819h193l-248 -479h197v176h174v-176h110v-158h-110v-182h-178v182h-390v135zM469 0h-158v27l736 1331h153v-25zM422 539h-184v659h-170v160h354v-819z" />
    <glyph glyph-name="onehalf" unicode="&#xbd;" horiz-adv-x="1638" 
d="M1401 266l-123 -106h330v-160h-586v135l260 242q107 94 107 184q0 109 -132 109q-44 0 -102.5 -18t-101.5 -44l-25 160q120 63 250 63q136 0 218.5 -66.5t82.5 -195.5q0 -82 -44 -152.5t-134 -150.5zM469 0h-158v27l736 1331h153v-25zM422 539h-184v659h-170v160h354
v-819z" />
    <glyph glyph-name="threequarters" unicode="&#xbe;" horiz-adv-x="1722" 
d="M221 883v123l197 192h-301v160h540v-137l-202 -193q112 -10 178.5 -76.5t66.5 -163.5q0 -132 -96 -197t-248 -65q-155 0 -278 66l20 160q129 -66 244 -66q170 0 170 102q0 53 -49.5 80t-128.5 27q-54 0 -113 -12zM1307 819h192l-246 -479h195v176h174v-176h111v-158h-111
v-182h-178v182h-389v135zM651 0h-155v27l733 1331h155v-25z" />
    <glyph glyph-name="questiondown" unicode="&#xbf;" horiz-adv-x="962" 
d="M428 414l23 190h208l21 -282q-148 -81 -197 -113q-153 -102 -153 -215q0 -93 65.5 -136.5t167.5 -43.5q81 0 169 25t142 59l46 -220q-178 -96 -385 -96q-97 0 -181 22t-152 67t-107.5 121t-39.5 175q0 142 87.5 243t285.5 204zM451 727q-41 43 -41 105.5t41 105.5
q43 43 106.5 43t106.5 -43t43 -105.5t-43 -105.5t-106.5 -43t-106.5 43z" />
    <glyph glyph-name="Agrave" unicode="&#xc0;" horiz-adv-x="1431" 
d="M1419 0h-286l-101 266h-631l-100 -266h-289l549 1358h309zM954 481l-237 594l-240 -594h477zM825 1473h-217l-231 333h291z" />
    <glyph glyph-name="Aacute" unicode="&#xc1;" horiz-adv-x="1431" 
d="M1419 0h-286l-101 266h-631l-100 -266h-289l549 1358h309zM954 481l-237 594l-240 -594h477zM778 1806h291l-231 -333h-217z" />
    <glyph glyph-name="Acircumflex" unicode="&#xc2;" horiz-adv-x="1431" 
d="M1419 0h-286l-101 266h-631l-100 -266h-289l549 1358h309zM954 481l-237 594l-240 -594h477zM784 1841l287 -371h-225l-129 179l-127 -179h-228l287 371h135z" />
    <glyph glyph-name="Atilde" unicode="&#xc3;" horiz-adv-x="1431" 
d="M1419 0h-286l-101 266h-631l-100 -266h-289l549 1358h309zM954 481l-237 594l-240 -594h477zM469 1505l-109 97q102 184 238 184q44 0 132.5 -45t115.5 -45q36 0 64 19.5t59 64.5l104 -99q-97 -178 -244 -178q-48 0 -118 37q-68 38 -93 41q-26 8 -53 4q-40 -6 -96 -80z
" />
    <glyph glyph-name="Adieresis" unicode="&#xc4;" horiz-adv-x="1431" 
d="M1419 0h-286l-101 266h-631l-100 -266h-289l549 1358h309zM954 481l-237 594l-240 -594h477zM532 1493q-61 0 -98 36.5t-37 96.5q0 62 37 99.5t98 37.5q62 0 100 -38t38 -99q0 -60 -38 -96.5t-100 -36.5zM897 1493q-60 0 -97.5 36.5t-37.5 96.5q0 61 37.5 99t97.5 38
q61 0 99 -37.5t38 -99.5q0 -60 -37.5 -96.5t-99.5 -36.5z" />
    <glyph glyph-name="Aring" unicode="&#xc5;" horiz-adv-x="1431" 
d="M1419 0h-286l-101 266h-631l-100 -266h-289l549 1358h309zM954 481l-237 594l-240 -594h477zM504 1692q0 92 59.5 150.5t153.5 58.5t154.5 -58.5t60.5 -150.5q0 -91 -60.5 -149t-154.5 -58t-153.5 58t-59.5 149zM643 1692q-4 -43 35 -61t78 0t35 61q0 46 -37 65t-74 0
t-37 -65z" />
    <glyph glyph-name="AE" unicode="&#xc6;" horiz-adv-x="2009" 
d="M1204 233h731v-233h-1001v266h-516l-162 -266h-307l829 1358h1141v-234h-715v-313h625v-233h-625v-345zM934 481v643l-387 -643h387z" />
    <glyph glyph-name="Ccedilla" unicode="&#xc7;" horiz-adv-x="1355" 
d="M743 -184h-71l65 170q-293 30 -477 219t-184 475q-2 209 104 371.5t284 246.5t392 80q229 0 426 -90l-20 -241q-166 81 -381 81q-147 0 -265 -50.5t-189 -153.5t-71 -242q0 -208 144 -334q143 -125 374 -125q228 0 392 99l37 -240q-195 -94 -420 -100l-23 -68
q102 -12 156.5 -60t54.5 -122q0 -91 -81.5 -145t-217.5 -54q-92 0 -151 27v141q61 -18 131 -18q116 0 116 65q0 68 -125 68z" />
    <glyph glyph-name="Egrave" unicode="&#xc8;" horiz-adv-x="1239" 
d="M416 233h749v-233h-1020v1358h1006v-234h-735v-313h643v-233h-643v-345zM782 1473h-217l-231 333h291z" />
    <glyph glyph-name="Eacute" unicode="&#xc9;" horiz-adv-x="1239" 
d="M416 233h749v-233h-1020v1358h1006v-234h-735v-313h643v-233h-643v-345zM735 1806h291l-231 -333h-217z" />
    <glyph glyph-name="Ecircumflex" unicode="&#xca;" horiz-adv-x="1239" 
d="M416 233h749v-233h-1020v1358h1006v-234h-735v-313h643v-233h-643v-345zM723 1841l287 -371h-228l-129 179l-127 -179h-227l289 371h135z" />
    <glyph glyph-name="Edieresis" unicode="&#xcb;" horiz-adv-x="1239" 
d="M416 233h749v-233h-1020v1358h1006v-234h-735v-313h643v-233h-643v-345zM469 1493q-60 0 -97.5 36.5t-37.5 96.5q0 61 37.5 99t97.5 38q61 0 99 -37.5t38 -99.5q0 -60 -37.5 -96.5t-99.5 -36.5zM836 1493q-62 0 -100 36.5t-38 96.5q0 61 38 99t100 38q60 0 98.5 -38
t38.5 -99q0 -60 -38.5 -96.5t-98.5 -36.5z" />
    <glyph glyph-name="Igrave" unicode="&#xcc;" horiz-adv-x="559" 
d="M145 1358h271v-1358h-271v1358zM399 1473h-217l-231 333h291z" />
    <glyph glyph-name="Iacute" unicode="&#xcd;" horiz-adv-x="559" 
d="M145 1358h271v-1358h-271v1358zM336 1806h293l-234 -333h-217z" />
    <glyph glyph-name="Icircumflex" unicode="&#xce;" horiz-adv-x="559" 
d="M145 1358h271v-1358h-271v1358zM348 1841l287 -371h-225l-129 179l-127 -179h-228l287 371h135z" />
    <glyph glyph-name="Idieresis" unicode="&#xcf;" horiz-adv-x="559" 
d="M145 1358h271v-1358h-271v1358zM98 1493q-60 0 -98.5 36.5t-38.5 96.5q0 62 37.5 99.5t99.5 37.5t100 -38t38 -99q0 -60 -38 -96.5t-100 -36.5zM463 1493q-60 0 -97.5 36.5t-37.5 96.5q0 61 37.5 99t97.5 38q61 0 99 -37.5t38 -99.5q0 -60 -37.5 -96.5t-99.5 -36.5z" />
    <glyph glyph-name="Eth" unicode="&#xd0;" horiz-adv-x="1529" 
d="M180 788v570h586q325 0 504 -182q180 -180 180 -496q0 -318 -182 -500q-180 -180 -502 -180h-586v604h-135v184h135zM449 233h286q439 0 439 447q0 444 -439 444h-286v-336h405v-184h-405v-371z" />
    <glyph glyph-name="Ntilde" unicode="&#xd1;" horiz-adv-x="1585" 
d="M1192 0l-776 922v-922h-271v1358h244l782 -932v932h271v-1358h-250zM530 1505l-108 97q102 184 237 184q44 0 132.5 -45t115.5 -45q65 0 123 84l105 -99q-54 -93 -112 -135.5t-132 -42.5q-49 0 -119 37q-69 38 -92 41q-29 7 -53 4q-41 -6 -97 -80z" />
    <glyph glyph-name="Ograve" unicode="&#xd2;" horiz-adv-x="1587" 
d="M76 676q0 203 91 363.5t255 248.5q166 90 371 90q204 0 370 -90q166 -91 257 -250.5t91 -361.5q3 -199 -89.5 -359.5t-258 -250t-370.5 -86.5q-203 -3 -368.5 86.5t-258.5 250.5t-90 359zM352 678q0 -201 123 -324t320 -123t317 123q123 123 123 324q0 197 -123 323
q-119 125 -317 125q-196 0 -320 -127q-123 -126 -123 -321zM922 1473h-217l-234 333h293z" />
    <glyph glyph-name="Oacute" unicode="&#xd3;" horiz-adv-x="1587" 
d="M76 676q0 203 91 363.5t255 248.5q166 90 371 90q204 0 370 -90q166 -91 257 -250.5t91 -361.5q3 -199 -89.5 -359.5t-258 -250t-370.5 -86.5q-203 -3 -368.5 86.5t-258.5 250.5t-90 359zM352 678q0 -201 123 -324t320 -123t317 123q123 123 123 324q0 197 -123 323
q-119 125 -317 125q-196 0 -320 -127q-123 -126 -123 -321zM874 1806h291l-231 -333h-217z" />
    <glyph glyph-name="Ocircumflex" unicode="&#xd4;" horiz-adv-x="1587" 
d="M76 676q0 203 91 363.5t255 248.5q166 90 371 90q204 0 370 -90q166 -91 257 -250.5t91 -361.5q3 -199 -89.5 -359.5t-258 -250t-370.5 -86.5q-203 -3 -368.5 86.5t-258.5 250.5t-90 359zM352 678q0 -201 123 -324t320 -123t317 123q123 123 123 324q0 197 -123 323
q-119 125 -317 125q-196 0 -320 -127q-123 -126 -123 -321zM860 1841l289 -371h-227l-129 179l-127 -179h-228l287 371h135z" />
    <glyph glyph-name="Otilde" unicode="&#xd5;" horiz-adv-x="1587" 
d="M76 676q0 203 91 363.5t255 248.5q166 90 371 90q204 0 370 -90q166 -91 257 -250.5t91 -361.5q3 -199 -89.5 -359.5t-258 -250t-370.5 -86.5q-203 -3 -368.5 86.5t-258.5 250.5t-90 359zM352 678q0 -201 123 -324t320 -123t317 123q123 123 123 324q0 197 -123 323
q-119 125 -317 125q-196 0 -320 -127q-123 -126 -123 -321zM545 1505l-109 97q102 184 238 184q43 0 132.5 -45t115.5 -45q36 0 63 19.5t59 64.5l107 -99q-54 -93 -113 -135.5t-133 -42.5q-50 0 -117 37q-69 38 -94 41q-26 8 -53 4q-40 -6 -96 -80z" />
    <glyph glyph-name="Odieresis" unicode="&#xd6;" horiz-adv-x="1587" 
d="M76 676q0 203 91 363.5t255 248.5q166 90 371 90q204 0 370 -90q166 -91 257 -250.5t91 -361.5q3 -199 -89.5 -359.5t-258 -250t-370.5 -86.5q-203 -3 -368.5 86.5t-258.5 250.5t-90 359zM352 678q0 -201 123 -324t320 -123t317 123q123 123 123 324q0 197 -123 323
q-119 125 -317 125q-196 0 -320 -127q-123 -126 -123 -321zM608 1493q-60 0 -97.5 36.5t-37.5 96.5q0 61 37.5 99t97.5 38q62 0 99.5 -37.5t37.5 -99.5q0 -60 -37.5 -96.5t-99.5 -36.5zM975 1493q-62 0 -99.5 36.5t-37.5 96.5q0 62 38 99.5t99 37.5q60 0 97.5 -38t37.5 -99
q0 -60 -37.5 -96.5t-97.5 -36.5z" />
    <glyph glyph-name="multiply" unicode="&#xd7;" horiz-adv-x="1208" 
d="M260 158l-178 178l344 344l-344 342l180 178l342 -342l342 342l180 -178l-344 -342l344 -344l-180 -178l-342 342z" />
    <glyph glyph-name="Oslash" unicode="&#xd8;" horiz-adv-x="1589" 
d="M76 676q0 203 92 363.5t256 249.5t371 89q180 0 327 -69l131 188l160 -106l-129 -187q110 -94 169.5 -230.5t59.5 -297.5q2 -149 -52 -279.5t-149.5 -222.5t-230 -144t-286.5 -50q-179 0 -320 63l-129 -184l-158 106l123 178q-113 94 -174 231.5t-61 301.5zM354 678
q0 -191 113 -313l506 729q-77 32 -176 32q-196 0 -320 -127q-123 -126 -123 -321zM1237 678q0 181 -109 305l-503 -725q77 -27 172 -27q197 0 317 123q123 123 123 324z" />
    <glyph glyph-name="Ugrave" unicode="&#xd9;" horiz-adv-x="1454" 
d="M133 481v877h270v-858q0 -136 87.5 -207.5t234.5 -71.5q154 0 240 72.5t86 206.5v858h270v-877q0 -102 -32 -186t-88 -142t-132 -97.5t-162.5 -57.5t-181.5 -18q-126 0 -232.5 31t-187.5 91.5t-126.5 157.5t-45.5 221zM852 1473h-215l-234 333h291z" />
    <glyph glyph-name="Uacute" unicode="&#xda;" horiz-adv-x="1454" 
d="M133 481v877h270v-858q0 -136 87.5 -207.5t234.5 -71.5q154 0 240 72.5t86 206.5v858h270v-877q0 -102 -32 -186t-88 -142t-132 -97.5t-162.5 -57.5t-181.5 -18q-126 0 -232.5 31t-187.5 91.5t-126.5 157.5t-45.5 221zM768 1806h293l-234 -333h-215z" />
    <glyph glyph-name="Ucircumflex" unicode="&#xdb;" horiz-adv-x="1454" 
d="M133 481v877h270v-858q0 -136 87.5 -207.5t234.5 -71.5q154 0 240 72.5t86 206.5v858h270v-877q0 -102 -32 -186t-88 -142t-132 -97.5t-162.5 -57.5t-181.5 -18q-126 0 -232.5 31t-187.5 91.5t-126.5 157.5t-45.5 221zM791 1841l286 -371h-225l-127 179l-129 -179h-227
l286 371h136z" />
    <glyph glyph-name="Udieresis" unicode="&#xdc;" horiz-adv-x="1454" 
d="M133 481v877h270v-858q0 -136 87.5 -207.5t234.5 -71.5q154 0 240 72.5t86 206.5v858h270v-877q0 -102 -32 -186t-88 -142t-132 -97.5t-162.5 -57.5t-181.5 -18q-126 0 -232.5 31t-187.5 91.5t-126.5 157.5t-45.5 221zM539 1493q-60 0 -98 36.5t-38 96.5q0 62 37.5 99.5
t98.5 37.5t99 -37.5t38 -99.5q0 -60 -37.5 -96.5t-99.5 -36.5zM903 1493q-60 0 -97.5 36.5t-37.5 96.5q0 61 37.5 99t97.5 38q61 0 99 -37.5t38 -99.5q0 -60 -37.5 -96.5t-99.5 -36.5z" />
    <glyph glyph-name="Yacute" unicode="&#xdd;" horiz-adv-x="1406" 
d="M336 1358l371 -572l374 572h312l-553 -846v-512h-271v512l-557 846h324zM748 1806h292l-233 -333h-215z" />
    <glyph glyph-name="Thorn" unicode="&#xde;" horiz-adv-x="1366" 
d="M414 0h-269v1358h269v-191h377q225 0 364 -126.5t139 -358.5q1 -219 -143 -353.5t-360 -129.5h-377v-199zM745 934h-331v-502h331q124 0 198.5 67t74.5 183q0 121 -73 186.5t-200 65.5z" />
    <glyph glyph-name="germandbls" unicode="&#xdf;" horiz-adv-x="1314" 
d="M678 590l-94 -6v204q52 2 101 15.5t92 39.5t69 71t26 102q0 87 -62.5 133.5t-172.5 46.5q-117 0 -188.5 -65t-71.5 -179v-952h-256v979q0 204 143 326t379 122q238 0 374 -107t136 -292q0 -100 -50 -175.5t-138 -119.5q133 -35 207.5 -128t74.5 -224q0 -82 -29.5 -153.5
t-87 -127.5t-150 -88t-210.5 -32q-134 0 -252 36l29 217q92 -32 201 -32q105 0 165 48t60 132q0 73 -45 122t-108.5 68t-141.5 19z" />
    <glyph glyph-name="agrave" unicode="&#xe0;" horiz-adv-x="1222" 
d="M532 -20q-199 0 -331 141q-131 143 -131 360q0 219 131 359q132 141 331 141q207 0 314 -137l4 117h252v-961h-252l-4 117q-107 -137 -314 -137zM844 481q0 118 -73.5 194.5t-188.5 76.5q-112 0 -185 -77t-73 -194t73 -194.5t185 -77.5q115 0 188.5 77t73.5 195z
M682 1096h-215l-234 334h291z" />
    <glyph glyph-name="aacute" unicode="&#xe1;" horiz-adv-x="1222" 
d="M532 -20q-199 0 -331 141q-131 143 -131 360q0 219 131 359q132 141 331 141q207 0 314 -137l4 117h252v-961h-252l-4 117q-107 -137 -314 -137zM844 481q0 118 -73.5 194.5t-188.5 76.5q-112 0 -185 -77t-73 -194t73 -194.5t185 -77.5q115 0 188.5 77t73.5 195z
M635 1430h293l-234 -334h-217z" />
    <glyph glyph-name="acircumflex" unicode="&#xe2;" horiz-adv-x="1222" 
d="M532 -20q-199 0 -331 141q-131 143 -131 360q0 219 131 359q132 141 331 141q207 0 314 -137l4 117h252v-961h-252l-4 117q-107 -137 -314 -137zM844 481q0 118 -73.5 194.5t-188.5 76.5q-112 0 -185 -77t-73 -194t73 -194.5t185 -77.5q115 0 188.5 77t73.5 195z
M637 1450l287 -371h-228l-127 178l-129 -178h-225l287 371h135z" />
    <glyph glyph-name="atilde" unicode="&#xe3;" horiz-adv-x="1222" 
d="M532 -20q-199 0 -331 141q-131 143 -131 360q0 219 131 359q132 141 331 141q207 0 314 -137l4 117h252v-961h-252l-4 117q-107 -137 -314 -137zM844 481q0 118 -73.5 194.5t-188.5 76.5q-112 0 -185 -77t-73 -194t73 -194.5t185 -77.5q115 0 188.5 77t73.5 195z
M317 1126l-108 97q102 184 237 184q43 0 132.5 -45t115.5 -45q36 0 64.5 19.5t58.5 64.5l107 -101q-54 -92 -113.5 -135t-132.5 -43q-47 0 -117 37q-65 36 -92 43q-30 7 -55 4q-38 -6 -97 -80z" />
    <glyph glyph-name="adieresis" unicode="&#xe4;" horiz-adv-x="1222" 
d="M532 -20q-199 0 -331 141q-131 143 -131 360q0 219 131 359q132 141 331 141q207 0 314 -137l4 117h252v-961h-252l-4 117q-107 -137 -314 -137zM844 481q0 118 -73.5 194.5t-188.5 76.5q-112 0 -185 -77t-73 -194t73 -194.5t185 -77.5q115 0 188.5 77t73.5 195z
M383 1124q-60 0 -96.5 38t-36.5 98q0 62 36.5 99.5t96.5 37.5q62 0 100.5 -38t38.5 -99q0 -60 -39 -98t-100 -38zM750 1124q-61 0 -98.5 38t-37.5 98q0 62 37.5 99.5t98.5 37.5q62 0 99.5 -37.5t37.5 -99.5q0 -60 -38 -98t-99 -38z" />
    <glyph glyph-name="aring" unicode="&#xe5;" horiz-adv-x="1222" 
d="M532 -20q-199 0 -331 141q-131 143 -131 360q0 219 131 359q132 141 331 141q207 0 314 -137l4 117h252v-961h-252l-4 117q-107 -137 -314 -137zM844 481q0 118 -73.5 194.5t-188.5 76.5q-112 0 -185 -77t-73 -194t73 -194.5t185 -77.5q115 0 188.5 77t73.5 195z
M354 1288q0 92 60.5 150.5t154.5 58.5t154.5 -58.5t60.5 -150.5q0 -91 -60.5 -149t-154.5 -58t-154.5 58t-60.5 149zM496 1286q-4 -43 34.5 -61t77 0t33.5 61q5 48 -33.5 68t-77 0t-34.5 -68z" />
    <glyph glyph-name="ae" unicode="&#xe6;" horiz-adv-x="1677" 
d="M1534 279l37 -209q-156 -90 -352 -90q-281 0 -422 184q-129 -184 -383 -184q-157 0 -255 76.5t-98 207.5q0 144 116.5 219.5t322.5 75.5q108 0 198 -22v45q0 172 -243 172q-81 0 -170 -21.5t-144 -52.5l-26 217q65 35 167 59.5t205 24.5q248 0 357 -127q127 127 311 127
q107 0 199 -41.5t154.5 -115t88 -183.5t0.5 -238h-667q17 -97 93.5 -147.5t197.5 -50.5q165 0 313 74zM469 178q88 0 158 49q71 53 71 129v31q-84 23 -176 23q-94 0 -147 -31t-53 -90q0 -53 39.5 -82t107.5 -29zM934 575h434q-5 83 -60.5 136t-146.5 53q-97 0 -159 -52
t-68 -137z" />
    <glyph glyph-name="ccedilla" unicode="&#xe7;" horiz-adv-x="974" 
d="M481 -184h-69l67 176q-186 37 -299 168q-112 130 -112 321q0 231 149 365q150 135 389 135q157 0 301 -66l-20 -223q-121 53 -252 53q-140 0 -224.5 -69.5t-84.5 -194.5q0 -121 83.5 -193.5t217.5 -72.5q130 0 264 64l29 -228q-157 -68 -299 -71l-21 -66
q102 -12 156.5 -60t54.5 -122q0 -91 -82 -145t-217 -54q-94 0 -152 27v141q58 -18 129 -18q119 0 119 65q0 68 -127 68z" />
    <glyph glyph-name="egrave" unicode="&#xe8;" horiz-adv-x="1095" 
d="M952 279l35 -209q-159 -90 -360 -90q-256 0 -408 137q-151 139 -151 362q0 222 139 361q138 141 354 141q110 0 203.5 -41.5t158 -115t91 -183.5t4.5 -238h-694q18 -97 98 -147.5t205 -50.5q171 0 325 74zM328 575h458q-5 83 -64.5 136t-154.5 53q-99 0 -165 -53
t-74 -136zM672 1096h-215l-234 334h291z" />
    <glyph glyph-name="eacute" unicode="&#xe9;" horiz-adv-x="1095" 
d="M952 279l35 -209q-159 -90 -360 -90q-256 0 -408 137q-151 139 -151 362q0 222 139 361q138 141 354 141q110 0 203.5 -41.5t158 -115t91 -183.5t4.5 -238h-694q18 -97 98 -147.5t205 -50.5q171 0 325 74zM328 575h458q-5 83 -64.5 136t-154.5 53q-99 0 -165 -53
t-74 -136zM625 1430h290l-233 -334h-215z" />
    <glyph glyph-name="ecircumflex" unicode="&#xea;" horiz-adv-x="1095" 
d="M952 279l35 -209q-159 -90 -360 -90q-256 0 -408 137q-151 139 -151 362q0 222 139 361q138 141 354 141q110 0 203.5 -41.5t158 -115t91 -183.5t4.5 -238h-694q18 -97 98 -147.5t205 -50.5q171 0 325 74zM637 1450l287 -371h-228l-127 178l-129 -178h-227l289 371h135z
M328 575h458q-5 83 -64.5 136t-154.5 53q-99 0 -165 -53t-74 -136z" />
    <glyph glyph-name="edieresis" unicode="&#xeb;" horiz-adv-x="1095" 
d="M952 279l35 -209q-159 -90 -360 -90q-256 0 -408 137q-151 139 -151 362q0 222 139 361q138 141 354 141q110 0 203.5 -41.5t158 -115t91 -183.5t4.5 -238h-694q18 -97 98 -147.5t205 -50.5q171 0 325 74zM328 575h458q-5 83 -64.5 136t-154.5 53q-99 0 -165 -53
t-74 -136zM385 1124q-60 0 -97.5 38t-37.5 98q0 62 37 99.5t98 37.5t99 -37.5t38 -99.5q0 -60 -38 -98t-99 -38zM750 1124q-60 0 -98 38t-38 98q0 61 38 99t98 38q62 0 99.5 -37.5t37.5 -99.5q0 -60 -38 -98t-99 -38z" />
    <glyph glyph-name="igrave" unicode="&#xec;" horiz-adv-x="499" 
d="M379 961v-961h-258v961h258zM356 1096h-217l-231 334h291z" />
    <glyph glyph-name="iacute" unicode="&#xed;" horiz-adv-x="499" 
d="M379 961v-961h-258v961h258zM299 1430h293l-234 -334h-215z" />
    <glyph glyph-name="icircumflex" unicode="&#xee;" horiz-adv-x="499" 
d="M379 961v-961h-258v961h258zM317 1450l287 -371h-225l-129 178l-127 -178h-227l286 371h135z" />
    <glyph glyph-name="idieresis" unicode="&#xef;" horiz-adv-x="499" 
d="M379 961v-961h-258v961h258zM68 1126q-62 0 -100 37.5t-38 98.5t38 99t98 38q62 0 100.5 -38t38.5 -99t-38.5 -98.5t-98.5 -37.5zM432 1126q-60 0 -97.5 37.5t-37.5 98.5t37.5 99t97.5 38q62 0 99.5 -37.5t37.5 -99.5q0 -61 -37.5 -98.5t-99.5 -37.5z" />
    <glyph glyph-name="eth" unicode="&#xf0;" horiz-adv-x="1142" 
d="M805 1518l92 -138l-154 -114q318 -280 318 -727q0 -247 -139 -404q-137 -155 -361 -155q-216 0 -354 129q-137 128 -137 335q0 205 127 332q126 129 329 129q82 0 155.5 -32t106.5 -78q-40 186 -231 333l-205 -153l-96 135l150 113q-74 39 -156 67l121 191
q109 -40 231 -113zM559 213q103 0 167.5 64t64.5 167q0 108 -64.5 175t-167.5 67t-166 -66.5t-63 -175.5q0 -103 63 -167t166 -64z" />
    <glyph glyph-name="ntilde" unicode="&#xf1;" horiz-adv-x="1157" 
d="M666 981q168 0 272 -104q106 -100 106 -275v-602h-256v537q0 96 -54 150t-144 54q-91 0 -152 -55t-61 -149v-537h-256v961h244l6 -111q43 58 121 94.5t174 36.5zM342 1126l-109 97q105 184 238 184q44 0 132.5 -45t115.5 -45q36 0 64 19.5t59 64.5l104 -101
q-98 -178 -244 -178q-46 0 -116 37q-65 36 -92 43q-31 7 -56 4q-37 -5 -96 -80z" />
    <glyph glyph-name="ograve" unicode="&#xf2;" horiz-adv-x="1159" 
d="M1094 479q0 -211 -147.5 -355t-366.5 -144q-221 0 -367 143q-145 145 -145 356q0 212 145 357q148 145 367 145q221 0 366 -145q148 -145 148 -357zM322 479q0 -115 73.5 -190.5t184.5 -75.5q112 0 185 75t73 191q0 117 -73 193t-185 76q-111 0 -184.5 -76t-73.5 -193z
M659 1096h-215l-233 334h293z" />
    <glyph glyph-name="oacute" unicode="&#xf3;" horiz-adv-x="1159" 
d="M1094 479q0 -211 -147.5 -355t-366.5 -144q-221 0 -367 143q-145 145 -145 356q0 212 145 357q148 145 367 145q221 0 366 -145q148 -145 148 -357zM322 479q0 -115 73.5 -190.5t184.5 -75.5q112 0 185 75t73 191q0 117 -73 193t-185 76q-111 0 -184.5 -76t-73.5 -193z
M612 1430h291l-231 -334h-217z" />
    <glyph glyph-name="ocircumflex" unicode="&#xf4;" horiz-adv-x="1159" 
d="M1094 479q0 -211 -147.5 -355t-366.5 -144q-221 0 -367 143q-145 145 -145 356q0 212 145 357q148 145 367 145q221 0 366 -145q148 -145 148 -357zM322 479q0 -115 73.5 -190.5t184.5 -75.5q112 0 185 75t73 191q0 117 -73 193t-185 76q-111 0 -184.5 -76t-73.5 -193z
M651 1450l287 -371h-225l-129 178l-127 -178h-228l287 371h135z" />
    <glyph glyph-name="otilde" unicode="&#xf5;" horiz-adv-x="1159" 
d="M1094 479q0 -211 -147.5 -355t-366.5 -144q-221 0 -367 143q-145 145 -145 356q0 212 145 357q148 145 367 145q221 0 366 -145q148 -145 148 -357zM322 479q0 -115 73.5 -190.5t184.5 -75.5q112 0 185 75t73 191q0 117 -73 193t-185 76q-111 0 -184.5 -76t-73.5 -193z
M336 1126l-109 97q102 184 238 184q44 0 132.5 -45t115.5 -45q36 0 64.5 19.5t58.5 64.5l104 -101q-98 -178 -244 -178q-49 0 -116 37q-66 36 -95 43q-30 7 -53 4q-37 -5 -96 -80z" />
    <glyph glyph-name="odieresis" unicode="&#xf6;" horiz-adv-x="1159" 
d="M1094 479q0 -211 -147.5 -355t-366.5 -144q-221 0 -367 143q-145 145 -145 356q0 212 145 357q148 145 367 145q221 0 366 -145q148 -145 148 -357zM322 479q0 -115 73.5 -190.5t184.5 -75.5q112 0 185 75t73 191q0 117 -73 193t-185 76q-111 0 -184.5 -76t-73.5 -193z
M397 1124q-60 0 -98.5 38t-38.5 98q0 62 38 99.5t99 37.5q62 0 100 -38t38 -99q0 -60 -38.5 -98t-99.5 -38zM762 1124q-60 0 -97.5 38t-37.5 98q0 61 37.5 99t97.5 38q62 0 99.5 -37.5t37.5 -99.5q0 -60 -38 -98t-99 -38z" />
    <glyph glyph-name="divide" unicode="&#xf7;" horiz-adv-x="1255" 
d="M82 799h1092v-240h-1092v240zM629 948q-63 0 -106.5 42.5t-43.5 103.5q0 63 43.5 105t106.5 42t105 -42.5t42 -104.5q0 -63 -42.5 -104.5t-104.5 -41.5zM629 119q-63 0 -106.5 42t-43.5 103q0 65 43 107.5t107 42.5q63 0 105 -43.5t42 -106.5q0 -61 -42.5 -103
t-104.5 -42z" />
    <glyph glyph-name="oslash" unicode="&#xf8;" horiz-adv-x="1148" 
d="M61 479q0 211 146 357q148 145 366 145q139 0 256 -63l154 190l127 -102l-154 -187q131 -137 131 -340q0 -211 -147.5 -355t-366.5 -144q-145 0 -256 63l-155 -190l-123 104l149 184q-127 142 -127 338zM831 479q0 82 -36 144l-324 -392q47 -18 102 -18q112 0 185 75
t73 191zM315 479q0 -78 37 -139l322 389q-49 19 -101 19q-111 0 -184.5 -76t-73.5 -193z" />
    <glyph glyph-name="ugrave" unicode="&#xf9;" horiz-adv-x="1124" 
d="M758 422v539h256v-566q0 -181 -127 -299q-125 -116 -328 -116q-200 0 -326 114q-122 113 -122 295v572h258v-539q0 -92 52.5 -149.5t137.5 -57.5q90 0 144.5 57t54.5 150zM686 1096h-217l-231 334h290z" />
    <glyph glyph-name="uacute" unicode="&#xfa;" horiz-adv-x="1124" 
d="M758 422v539h256v-566q0 -181 -127 -299q-125 -116 -328 -116q-200 0 -326 114q-122 113 -122 295v572h258v-539q0 -92 52.5 -149.5t137.5 -57.5q90 0 144.5 57t54.5 150zM614 1430h291l-231 -334h-217z" />
    <glyph glyph-name="ucircumflex" unicode="&#xfb;" horiz-adv-x="1124" 
d="M758 422v539h256v-566q0 -181 -127 -299q-125 -116 -328 -116q-200 0 -326 114q-122 113 -122 295v572h258v-539q0 -92 52.5 -149.5t137.5 -57.5q90 0 144.5 57t54.5 150zM627 1450l286 -371h-227l-129 178l-127 -178h-225l287 371h135z" />
    <glyph glyph-name="udieresis" unicode="&#xfc;" horiz-adv-x="1124" 
d="M758 422v539h256v-566q0 -181 -127 -299q-125 -116 -328 -116q-200 0 -326 114q-122 113 -122 295v572h258v-539q0 -92 52.5 -149.5t137.5 -57.5q90 0 144.5 57t54.5 150zM379 1124q-61 0 -98 38t-37 98q0 62 37 99.5t98 37.5q60 0 98.5 -38t38.5 -99q0 -60 -38.5 -98
t-98.5 -38zM743 1124q-61 0 -98 38t-37 98q0 62 37 99.5t98 37.5q62 0 100 -38t38 -99q0 -60 -38.5 -98t-99.5 -38z" />
    <glyph glyph-name="yacute" unicode="&#xfd;" horiz-adv-x="1110" 
d="M608 1430h293l-233 -334h-215zM307 961l250 -701l250 701h285l-453 -1092q-63 -146 -159.5 -217.5t-241.5 -71.5q-101 0 -185 41l33 207q61 -25 121 -25q79 0 134.5 52t78.5 145l-397 961h284z" />
    <glyph glyph-name="thorn" unicode="&#xfe;" horiz-adv-x="1224" 
d="M690 -20q-206 0 -311 120v-499h-258v1808h252v-563q108 135 317 135q205 0 334 -141q131 -137 131 -359q0 -220 -131 -360q-129 -141 -334 -141zM637 211q111 0 186 78q74 77 74 192q0 118 -72.5 193.5t-187.5 75.5q-113 0 -186.5 -76t-73.5 -193q0 -115 74 -192
q75 -78 186 -78z" />
    <glyph glyph-name="ydieresis" unicode="&#xff;" horiz-adv-x="1110" 
d="M362 1124q-60 0 -97.5 38t-37.5 98q0 61 37.5 99t97.5 38q62 0 101 -38t39 -99q0 -60 -39 -98t-101 -38zM729 1124q-61 0 -98 38t-37 98q0 62 37 99.5t98 37.5q60 0 98.5 -38t38.5 -99q0 -60 -38.5 -98t-98.5 -38zM307 961l250 -701l250 701h285l-453 -1092
q-63 -146 -159.5 -217.5t-241.5 -71.5q-101 0 -185 41l33 207q61 -25 121 -25q79 0 134.5 52t78.5 145l-397 961h284z" />
    <glyph glyph-name="Amacron" unicode="&#x100;" horiz-adv-x="1431" 
d="M1419 0h-286l-101 266h-631l-100 -266h-289l549 1358h309zM954 481l-237 594l-240 -594h477zM422 1690h590v-174h-590v174z" />
    <glyph glyph-name="amacron" unicode="&#x101;" horiz-adv-x="1222" 
d="M532 -20q-199 0 -331 141q-131 143 -131 360q0 219 131 359q132 141 331 141q207 0 314 -137l4 117h252v-961h-252l-4 117q-107 -137 -314 -137zM844 481q0 118 -73.5 194.5t-188.5 76.5q-112 0 -185 -77t-73 -194t73 -194.5t185 -77.5q115 0 188.5 77t73.5 195z
M272 1325h592v-174h-592v174z" />
    <glyph glyph-name="Abreve" unicode="&#x102;" horiz-adv-x="1431" 
d="M1419 0h-286l-101 266h-631l-100 -266h-289l549 1358h309zM954 481l-237 594l-240 -594h477zM418 1782h184q4 -60 36 -95.5t79 -35.5q51 0 81.5 35.5t32.5 95.5h187q-6 -139 -88 -220t-213 -81q-130 0 -211.5 81t-87.5 220z" />
    <glyph glyph-name="abreve" unicode="&#x103;" horiz-adv-x="1222" 
d="M532 -20q-199 0 -331 141q-131 143 -131 360q0 219 131 359q132 141 331 141q207 0 314 -137l4 117h252v-961h-252l-4 117q-107 -137 -314 -137zM844 481q0 118 -73.5 194.5t-188.5 76.5q-112 0 -185 -77t-73 -194t73 -194.5t185 -77.5q115 0 188.5 77t73.5 195z
M264 1403h185q6 -58 36.5 -93.5t77.5 -35.5q51 0 83.5 35t33.5 94h184q-6 -139 -88 -220t-213 -81q-129 0 -211 82.5t-88 218.5z" />
    <glyph glyph-name="Aogonek" unicode="&#x104;" horiz-adv-x="1400" 
d="M1133 0l-101 266h-631l-100 -266h-289l549 1358h309l549 -1358h-90q-186 -119 -186 -203q0 -35 25.5 -55.5t68.5 -20.5q61 0 113 27l55 -158q-83 -53 -205 -53q-115 0 -182.5 54.5t-67.5 148.5q0 142 183 260zM954 481l-237 594l-240 -594h477z" />
    <glyph glyph-name="aogonek" unicode="&#x105;" horiz-adv-x="1200" 
d="M532 -20q-199 0 -331 141q-131 143 -131 360q0 219 131 359q132 141 331 141q207 0 314 -137l4 117h252v-961h-55q-193 -123 -193 -207q0 -36 25 -57t69 -21q53 0 113 29l53 -160q-80 -51 -203 -51q-116 0 -182.5 54t-66.5 147q0 146 188 266l-4 117q-107 -137 -314 -137
zM844 481q0 118 -73.5 194.5t-188.5 76.5q-112 0 -185 -77t-73 -194t73 -194.5t185 -77.5q115 0 188.5 77t73.5 195z" />
    <glyph glyph-name="Cacute" unicode="&#x106;" horiz-adv-x="1355" 
d="M1266 322l37 -240q-211 -102 -465 -102q-159 -3 -301 48t-244 142.5t-160.5 224t-56.5 285.5q-2 209 104 371.5t284 246.5t392 80q229 0 426 -90l-20 -241q-166 81 -381 81q-147 0 -265 -50.5t-189 -153.5t-71 -242q0 -208 144 -334q143 -125 374 -125q228 0 392 99z
M887 1806h293l-234 -333h-217z" />
    <glyph glyph-name="cacute" unicode="&#x107;" horiz-adv-x="974" 
d="M68 481q0 231 149 365q150 135 389 135q157 0 301 -66l-20 -223q-121 53 -252 53q-140 0 -224.5 -69.5t-84.5 -194.5q0 -121 83.5 -193.5t217.5 -72.5q130 0 264 64l29 -228q-157 -71 -312 -71q-238 0 -389 139t-151 362zM616 1430h293l-233 -334h-215z" />
    <glyph glyph-name="Ccircumflex" unicode="&#x108;" horiz-adv-x="1355" 
d="M1266 322l37 -240q-211 -102 -465 -102q-159 -3 -301 48t-244 142.5t-160.5 224t-56.5 285.5q-2 209 104 371.5t284 246.5t392 80q229 0 426 -90l-20 -241q-166 81 -381 81q-147 0 -265 -50.5t-189 -153.5t-71 -242q0 -208 144 -334q143 -125 374 -125q228 0 392 99z
M850 1841l287 -371h-226l-129 179l-127 -179h-227l287 371h135z" />
    <glyph glyph-name="ccircumflex" unicode="&#x109;" horiz-adv-x="974" 
d="M68 481q0 231 149 365q150 135 389 135q157 0 301 -66l-20 -223q-121 53 -252 53q-140 0 -224.5 -69.5t-84.5 -194.5q0 -121 83.5 -193.5t217.5 -72.5q130 0 264 64l29 -228q-157 -71 -312 -71q-238 0 -389 139t-151 362zM629 1450l286 -371h-225l-129 178l-127 -178
h-227l287 371h135z" />
    <glyph glyph-name="Cdotaccent" unicode="&#x10a;" horiz-adv-x="1355" 
d="M1266 322l37 -240q-211 -102 -465 -102q-159 -3 -301 48t-244 142.5t-160.5 224t-56.5 285.5q-2 209 104 371.5t284 246.5t392 80q229 0 426 -90l-20 -241q-166 81 -381 81q-147 0 -265 -50.5t-189 -153.5t-71 -242q0 -208 144 -334q143 -125 374 -125q228 0 392 99z
M1001 1626q0 -63 -41.5 -104t-107.5 -41q-63 0 -104 41t-41 104q0 66 41 108t104 42q66 0 107.5 -41.5t41.5 -108.5z" />
    <glyph glyph-name="cdotaccent" unicode="&#x10b;" horiz-adv-x="974" 
d="M68 481q0 231 149 365q150 135 389 135q157 0 301 -66l-20 -223q-121 53 -252 53q-140 0 -224.5 -69.5t-84.5 -194.5q0 -121 83.5 -193.5t217.5 -72.5q130 0 264 64l29 -228q-157 -71 -312 -71q-238 0 -389 139t-151 362zM725 1262q0 -66 -42 -107t-108 -41
q-63 0 -104 41.5t-41 104.5q0 66 41 107.5t104 41.5q66 0 108 -40.5t42 -106.5z" />
    <glyph glyph-name="Ccaron" unicode="&#x10c;" horiz-adv-x="1355" 
d="M1266 322l37 -240q-211 -102 -465 -102q-159 -3 -301 48t-244 142.5t-160.5 224t-56.5 285.5q-2 209 104 371.5t284 246.5t392 80q229 0 426 -90l-20 -241q-166 81 -381 81q-147 0 -265 -50.5t-189 -153.5t-71 -242q0 -208 144 -334q143 -125 374 -125q228 0 392 99z
M483 1851h228l127 -178l129 178h227l-289 -370h-135z" />
    <glyph glyph-name="ccaron" unicode="&#x10d;" horiz-adv-x="974" 
d="M68 481q0 231 149 365q150 135 389 135q157 0 301 -66l-20 -223q-121 53 -252 53q-140 0 -224.5 -69.5t-84.5 -194.5q0 -121 83.5 -193.5t217.5 -72.5q130 0 264 64l29 -228q-157 -71 -312 -71q-238 0 -389 139t-151 362zM209 1454h225l127 -176l129 176h228l-287 -369
h-135z" />
    <glyph glyph-name="Dcaron" unicode="&#x10e;" horiz-adv-x="1495" 
d="M145 0v1358h584q325 0 505.5 -180.5t180.5 -497.5q0 -318 -182 -500q-180 -180 -504 -180h-584zM416 233h284q439 0 439 447q0 444 -439 444h-284v-891zM301 1851h227l129 -178l127 178h228l-287 -370h-135z" />
    <glyph glyph-name="dcaron" unicode="&#x10f;" horiz-adv-x="1292" 
d="M1497 1409l-55 -422h-197v422h252zM535 -20q-204 0 -336 141q-129 141 -129 360q0 221 129 359q132 141 336 141q207 0 317 -137v565h252v-1409h-252l-6 102q-48 -58 -128.5 -90t-182.5 -32zM588 750q-115 0 -187.5 -75.5t-72.5 -193.5q0 -117 72.5 -193.5t187.5 -76.5
q109 0 184 78q76 76 76 192q0 117 -73.5 193t-186.5 76z" />
    <glyph glyph-name="Dcroat" unicode="&#x110;" horiz-adv-x="1529" 
d="M180 788v570h586q325 0 504 -182q180 -180 180 -496q0 -318 -182 -500q-180 -180 -502 -180h-586v604h-135v184h135zM449 233h286q439 0 439 447q0 444 -439 444h-286v-336h405v-184h-405v-371z" />
    <glyph glyph-name="dslash" unicode="&#x111;" horiz-adv-x="1236" 
d="M535 -20q-204 0 -336 141q-129 141 -129 360q0 221 129 359q132 141 336 141q207 0 317 -137v252h-320v176h320v137h252v-137h119v-176h-119v-1096h-252l-6 102q-107 -122 -311 -122zM588 750q-115 0 -187.5 -75.5t-72.5 -193.5q0 -117 72.5 -193.5t187.5 -76.5
q109 0 184 78q76 76 76 192q0 117 -73.5 193t-186.5 76z" />
    <glyph glyph-name="Emacron" unicode="&#x112;" horiz-adv-x="1239" 
d="M416 233h749v-233h-1020v1358h1006v-234h-735v-313h643v-233h-643v-345zM358 1690h590v-174h-590v174z" />
    <glyph glyph-name="emacron" unicode="&#x113;" horiz-adv-x="1095" 
d="M952 279l35 -209q-159 -90 -360 -90q-256 0 -408 137q-151 139 -151 362q0 222 139 361q138 141 354 141q110 0 203.5 -41.5t158 -115t91 -183.5t4.5 -238h-694q18 -97 98 -147.5t205 -50.5q171 0 325 74zM328 575h458q-5 83 -64.5 136t-154.5 53q-99 0 -165 -53
t-74 -136zM266 1325h592v-174h-592v174z" />
    <glyph glyph-name="Ebreve" unicode="&#x114;" horiz-adv-x="1239" 
d="M416 233h749v-233h-1020v1358h1006v-234h-735v-313h643v-233h-643v-345zM354 1782h185q6 -60 36.5 -95.5t77.5 -35.5q51 0 83 35.5t32 95.5h186q-6 -139 -88 -220t-213 -81q-130 0 -211.5 81t-87.5 220z" />
    <glyph glyph-name="ebreve" unicode="&#x115;" horiz-adv-x="1095" 
d="M952 279l35 -209q-159 -90 -360 -90q-256 0 -408 137q-151 139 -151 362q0 222 139 361q138 141 354 141q110 0 203.5 -41.5t158 -115t91 -183.5t4.5 -238h-694q18 -97 98 -147.5t205 -50.5q171 0 325 74zM328 575h458q-5 83 -64.5 136t-154.5 53q-99 0 -165 -53
t-74 -136zM268 1403h187q5 -58 35 -93.5t79 -35.5q51 0 82.5 34.5t32.5 94.5h184q-6 -136 -88 -218.5t-211 -82.5q-130 0 -212.5 81.5t-88.5 219.5z" />
    <glyph glyph-name="Edotaccent" unicode="&#x116;" horiz-adv-x="1239" 
d="M416 233h749v-233h-1020v1358h1006v-234h-735v-313h643v-233h-643v-345zM680 1776q66 0 106.5 -41.5t40.5 -108.5q0 -64 -43 -104q-41 -41 -105.5 -41t-105.5 41q-32 30 -38.5 76.5t8.5 87t52 67.5t85 23z" />
    <glyph glyph-name="edotaccent" unicode="&#x117;" horiz-adv-x="1095" 
d="M952 279l35 -209q-159 -90 -360 -90q-256 0 -408 137q-151 139 -151 362q0 222 139 361q138 141 354 141q110 0 203.5 -41.5t158 -115t91 -183.5t4.5 -238h-694q18 -97 98 -147.5t205 -50.5q171 0 325 74zM328 575h458q-5 83 -64.5 136t-154.5 53q-99 0 -165 -53
t-74 -136zM563 1409q67 0 108.5 -40.5t41.5 -106.5q4 -48 -23 -85t-67.5 -52t-87 -8.5t-76.5 38.5q-41 41 -41 105q0 66 41 107.5t104 41.5z" />
    <glyph glyph-name="Eogonek" unicode="&#x118;" horiz-adv-x="1253" 
d="M416 233h749v-233q-192 -122 -192 -207q0 -35 25.5 -56.5t68.5 -21.5q57 0 113 29l55 -160q-80 -51 -205 -51q-115 0 -182.5 54.5t-67.5 146.5q0 145 189 266h-824v1358h1006v-234h-735v-313h643v-233h-643v-345z" />
    <glyph glyph-name="eogonek" unicode="&#x119;" horiz-adv-x="1095" 
d="M952 279l35 -209q-90 -51 -184 -70q-195 -124 -195 -207q0 -35 27 -56.5t70 -21.5q54 0 110 29l55 -160q-80 -51 -202 -51q-115 0 -182.5 54.5t-67.5 146.5q0 135 162 248q-237 15 -375 147q-137 134 -137 350q0 222 139 361q138 141 354 141q110 0 203.5 -41.5t158 -115
t91 -183.5t4.5 -238h-694q18 -97 98 -147.5t205 -50.5q171 0 325 74zM328 575h458q-5 83 -64.5 136t-154.5 53q-99 0 -165 -53t-74 -136z" />
    <glyph glyph-name="Ecaron" unicode="&#x11a;" horiz-adv-x="1239" 
d="M416 233h749v-233h-1020v1358h1006v-234h-735v-313h643v-233h-643v-345zM309 1851h228l129 -178l127 178h227l-289 -370h-133z" />
    <glyph glyph-name="ecaron" unicode="&#x11b;" horiz-adv-x="1095" 
d="M952 279l35 -209q-159 -90 -360 -90q-256 0 -408 137q-151 139 -151 362q0 222 139 361q138 141 354 141q110 0 203.5 -41.5t158 -115t91 -183.5t4.5 -238h-694q18 -97 98 -147.5t205 -50.5q171 0 325 74zM328 575h458q-5 83 -64.5 136t-154.5 53q-99 0 -165 -53
t-74 -136zM215 1454h227l127 -178l129 178h226l-287 -371h-135z" />
    <glyph glyph-name="Gcircumflex" unicode="&#x11c;" horiz-adv-x="1478" 
d="M1114 266v271h-364v229h632v-664q-102 -56 -240 -89t-270 -33q-181 0 -330.5 52t-252 144t-159 221.5t-56.5 282.5q0 162 62.5 294.5t172 220t257 134.5t319.5 47q237 0 438 -92l-20 -240q-195 86 -404 86q-247 0 -395 -118q-150 -117 -150 -332q0 -204 140 -332
q138 -123 368 -123q162 0 252 41zM870 1841l287 -371h-225l-129 179l-127 -179h-227l286 371h135z" />
    <glyph glyph-name="gcircumflex" unicode="&#x11d;" horiz-adv-x="1222" 
d="M535 -20q-204 0 -336 141q-129 141 -129 360q0 221 129 359q132 141 336 141q207 0 317 -137l4 117h246v-926q0 -112 -45 -200t-123 -143t-177 -83.5t-212 -28.5q-110 0 -212 22t-171 58l28 219q59 -30 153.5 -51t182.5 -21q84 0 155 24.5t118 79t47 130.5v68
q-43 -60 -125 -94.5t-186 -34.5zM588 750q-115 0 -187.5 -75.5t-72.5 -193.5q0 -117 72.5 -193.5t187.5 -76.5q109 0 184 78q76 76 76 192q0 117 -73.5 193t-186.5 76zM606 1450l289 -371h-227l-129 178l-127 -178h-228l287 371h135z" />
    <glyph glyph-name="Gbreve" unicode="&#x11e;" horiz-adv-x="1478" 
d="M1114 266v271h-364v229h632v-664q-102 -56 -240 -89t-270 -33q-181 0 -330.5 52t-252 144t-159 221.5t-56.5 282.5q0 162 62.5 294.5t172 220t257 134.5t319.5 47q237 0 438 -92l-20 -240q-195 86 -404 86q-247 0 -395 -118q-150 -117 -150 -332q0 -204 140 -332
q138 -123 368 -123q162 0 252 41zM487 1782h187q5 -61 35 -96t79 -35q50 0 80 35t35 96h184q-6 -139 -87.5 -220t-211.5 -81t-212.5 81.5t-88.5 219.5z" />
    <glyph glyph-name="gbreve" unicode="&#x11f;" horiz-adv-x="1222" 
d="M535 -20q-204 0 -336 141q-129 141 -129 360q0 221 129 359q132 141 336 141q207 0 317 -137l4 117h246v-926q0 -112 -45 -200t-123 -143t-177 -83.5t-212 -28.5q-110 0 -212 22t-171 58l28 219q59 -30 153.5 -51t182.5 -21q84 0 155 24.5t118 79t47 130.5v68
q-43 -60 -125 -94.5t-186 -34.5zM588 750q-115 0 -187.5 -75.5t-72.5 -193.5q0 -117 72.5 -193.5t187.5 -76.5q109 0 184 78q76 76 76 192q0 117 -73.5 193t-186.5 76zM240 1403h186q5 -58 35.5 -93.5t79.5 -35.5q51 0 82 34.5t32 94.5h187q-6 -137 -88 -219t-213 -82
q-130 0 -212 81t-89 220z" />
    <glyph glyph-name="Gdotaccent" unicode="&#x120;" horiz-adv-x="1478" 
d="M1114 266v271h-364v229h632v-664q-102 -56 -240 -89t-270 -33q-181 0 -330.5 52t-252 144t-159 221.5t-56.5 282.5q0 162 62.5 294.5t172 220t257 134.5t319.5 47q237 0 438 -92l-20 -240q-195 86 -404 86q-247 0 -395 -118q-150 -117 -150 -332q0 -204 140 -332
q138 -123 368 -123q162 0 252 41zM977 1626q0 -63 -42 -104t-108 -41q-63 0 -104 41t-41 104q0 66 41 108t104 42q66 0 108 -41.5t42 -108.5z" />
    <glyph glyph-name="gdotaccent" unicode="&#x121;" horiz-adv-x="1222" 
d="M535 -20q-204 0 -336 141q-129 141 -129 360q0 221 129 359q132 141 336 141q207 0 317 -137l4 117h246v-926q0 -112 -45 -200t-123 -143t-177 -83.5t-212 -28.5q-110 0 -212 22t-171 58l28 219q59 -30 153.5 -51t182.5 -21q84 0 155 24.5t118 79t47 130.5v68
q-43 -60 -125 -94.5t-186 -34.5zM588 750q-115 0 -187.5 -75.5t-72.5 -193.5q0 -117 72.5 -193.5t187.5 -76.5q109 0 184 78q76 76 76 192q0 117 -73.5 193t-186.5 76zM684 1262q0 -66 -41.5 -107t-107.5 -41q-63 0 -104.5 41.5t-41.5 104.5q0 66 41.5 107.5t104.5 41.5
q66 0 107.5 -40.5t41.5 -106.5z" />
    <glyph glyph-name="Gcommaaccent" unicode="&#x122;" horiz-adv-x="1478" 
d="M1114 266v271h-364v229h632v-664q-102 -56 -240 -89t-270 -33q-181 0 -330.5 52t-252 144t-159 221.5t-56.5 282.5q0 162 62.5 294.5t172 220t257 134.5t319.5 47q237 0 438 -92l-20 -240q-195 86 -404 86q-247 0 -395 -118q-150 -117 -150 -332q0 -204 140 -332
q138 -123 368 -123q162 0 252 41zM895 -528h-197l7 422h251z" />
    <glyph glyph-name="gcommaaccent" unicode="&#x123;" horiz-adv-x="1222" 
d="M535 -20q-204 0 -336 141q-129 141 -129 360q0 221 129 359q132 141 336 141q207 0 317 -137l4 117h246v-926q0 -112 -45 -200t-123 -143t-177 -83.5t-212 -28.5q-110 0 -212 22t-171 58l28 219q59 -30 153.5 -51t182.5 -21q84 0 155 24.5t118 79t47 130.5v68
q-43 -60 -125 -94.5t-186 -34.5zM588 750q-115 0 -187.5 -75.5t-72.5 -193.5q0 -117 72.5 -193.5t187.5 -76.5q109 0 184 78q76 76 76 192q0 117 -73.5 193t-186.5 76zM541 1522h194l-6 -422h-252z" />
    <glyph glyph-name="Hcircumflex" unicode="&#x124;" horiz-adv-x="1490" 
d="M1077 1358h269v-1358h-269v575h-661v-575h-271v1358h271v-549h661v549zM813 1841l287 -371h-228l-127 179l-129 -179h-225l287 371h135z" />
    <glyph glyph-name="hcircumflex" unicode="&#x125;" horiz-adv-x="1167" 
d="M680 981q168 0 272.5 -104t104.5 -275v-602h-256v537q0 96 -54.5 150t-142.5 54q-93 0 -153 -55t-60 -149v-537h-258v1407h258v-549q46 54 121.5 88.5t167.5 34.5zM336 1862l287 -371h-228l-129 178l-127 -178h-225l287 371h135z" />
    <glyph glyph-name="Hbar" unicode="&#x126;" horiz-adv-x="1587" 
d="M1124 1358h271v-164h151v-182h-151v-1012h-271v575h-661v-575h-270v1012h-152v182h152v164h270v-164h661v164zM463 1012v-203h661v203h-661z" />
    <glyph glyph-name="hbar" unicode="&#x127;" horiz-adv-x="1163" 
d="M676 981q167 0 271 -104t104 -275v-602h-256v537q0 96 -54.5 150t-142.5 54q-91 0 -152 -55t-61 -149v-537h-256v1096h-129v176h129v135h256v-135h326v-176h-326v-238q46 54 121.5 88.5t169.5 34.5z" />
    <glyph glyph-name="Itilde" unicode="&#x128;" horiz-adv-x="559" 
d="M145 1358h271v-1358h-271v1358zM33 1505l-109 97q102 184 238 184q44 0 132.5 -45t115.5 -45q36 0 63 19.5t59 64.5l105 -99q-97 -178 -244 -178q-49 0 -119 37q-69 38 -92 41q-29 8 -55 4q-38 -6 -94 -80z" />
    <glyph glyph-name="itilde" unicode="&#x129;" horiz-adv-x="499" 
d="M379 961v-961h-258v961h258zM2 1126l-108 97q102 184 235 184q44 0 133.5 -45t116.5 -45q36 0 63 19t60 65l104 -101q-98 -178 -244 -178q-48 0 -118 37q-65 36 -92 43q-31 7 -56 4q-35 -6 -94 -80z" />
    <glyph glyph-name="Imacron" unicode="&#x12a;" horiz-adv-x="559" 
d="M145 1358h271v-1358h-271v1358zM-14 1690h589v-174h-589v174z" />
    <glyph glyph-name="imacron" unicode="&#x12b;" horiz-adv-x="499" 
d="M379 961v-961h-258v961h258zM-45 1325h592v-174h-592v174z" />
    <glyph glyph-name="Ibreve" unicode="&#x12c;" horiz-adv-x="559" 
d="M145 1358h271v-1358h-271v1358zM-20 1782h186q5 -60 35.5 -95.5t79.5 -35.5q51 0 81.5 35.5t32.5 95.5h187q-7 -139 -89 -220t-212 -81t-212 81t-89 220z" />
    <glyph glyph-name="ibreve" unicode="&#x12d;" horiz-adv-x="499" 
d="M379 961v-961h-258v961h258zM-51 1403h186q5 -60 35.5 -95.5t79.5 -35.5q51 0 82.5 35.5t32.5 95.5h186q-6 -139 -88 -220t-213 -81q-130 0 -212 81t-89 220z" />
    <glyph glyph-name="Iogonek" unicode="&#x12e;" horiz-adv-x="559" 
d="M145 1358h271v-1358h-39q-193 -123 -193 -207q0 -35 26 -56.5t69 -21.5q56 0 112 29l53 -160q-77 -51 -202 -51q-115 0 -182.5 54.5t-67.5 146.5q0 146 188 266h-35v1358z" />
    <glyph glyph-name="iogonek" unicode="&#x12f;" horiz-adv-x="499" 
d="M379 961v-961h-33q-194 -120 -194 -207q0 -35 26.5 -56.5t69.5 -21.5q54 0 110 29l56 -160q-80 -51 -203 -51q-116 0 -183 54t-67 147q0 147 186 266h-26v961h258zM397 1268q0 -66 -41.5 -107t-107.5 -41q-64 0 -105 41t-41 107q0 65 41 106t105 41q66 0 107.5 -40.5
t41.5 -106.5z" />
    <glyph glyph-name="Idot" unicode="&#x130;" horiz-adv-x="559" 
d="M145 1358h271v-1358h-271v1358zM428 1626q0 -64 -41 -104.5t-106 -40.5q-66 0 -107 41t-41 104q0 66 41 108t107 42t106.5 -41.5t40.5 -108.5z" />
    <glyph glyph-name="dotlessi" unicode="&#x131;" horiz-adv-x="499" 
d="M379 961v-961h-258v961h258z" />
    <glyph glyph-name="IJ" unicode="&#x132;" horiz-adv-x="1681" 
d="M145 1358h271v-1358h-271v1358zM643 61l33 234q186 -76 311 -76q49 0 88 5t78 19.5t65 38t42 63t16 91.5v686h-479v236h747v-936q0 -92 -28 -167t-75 -125t-112 -84.5t-137.5 -50t-151.5 -15.5q-219 0 -397 81z" />
    <glyph glyph-name="ij" unicode="&#x133;" horiz-adv-x="1034" 
d="M893 1163q-41 -41 -105.5 -41t-107.5 41q-41 41 -41 105.5t41 105.5q43 41 107.5 41t105.5 -41q43 -41 43 -105.5t-43 -105.5zM379 961v-961h-258v961h258zM657 -33v991h256v-1007q0 -176 -95.5 -273.5t-258.5 -97.5q-116 0 -184 35l22 207q64 -21 121 -21q139 0 139 166
zM354 1163q-41 -41 -105.5 -41t-105.5 41t-41 105.5t41 105.5t105.5 41t105.5 -41q43 -41 43 -105.5t-43 -105.5z" />
    <glyph glyph-name="Jcircumflex" unicode="&#x134;" horiz-adv-x="1067" 
d="M618 1841l287 -371h-225l-127 179l-129 -179h-227l286 371h135zM31 61l30 234q186 -76 312 -76q49 0 88 5t78 19.5t65 38t42 63t16 91.5v686h-480v236h750v-936q0 -92 -28 -167t-75.5 -125t-113 -84.5t-138 -50t-151.5 -15.5q-217 0 -395 81z" />
    <glyph glyph-name="jcircumflex" unicode="&#x135;" horiz-adv-x="505" 
d="M127 -33v991h258v-1007q0 -176 -95.5 -273.5t-258.5 -97.5q-115 0 -187 35l25 207q65 -21 121 -21q137 0 137 166zM322 1450l286 -371h-227l-127 178l-129 -178h-225l286 371h136z" />
    <glyph glyph-name="Kcommaaccent" unicode="&#x136;" horiz-adv-x="1376" 
d="M416 1358v-578h252l327 578h303l-413 -703l501 -655h-335l-404 547h-231v-547h-271v1358h271zM754 -528h-197l8 422h252z" />
    <glyph glyph-name="kcommaaccent" unicode="&#x137;" horiz-adv-x="1099" 
d="M121 1407h256v-799h149l217 353h285l-299 -465l361 -496h-302l-270 387h-141v-387h-256v1407zM618 -528h-196l6 422h254z" />
    <glyph glyph-name="kgreenlandic" unicode="&#x138;" horiz-adv-x="1099" 
d="M121 961h256v-349h149l217 349h285l-299 -465l361 -496h-302l-270 383h-141v-383h-256v961z" />
    <glyph glyph-name="Lacute" unicode="&#x139;" horiz-adv-x="1173" 
d="M416 233h731v-233h-1002v1358h271v-1125zM371 1806h293l-234 -333h-217z" />
    <glyph glyph-name="lacute" unicode="&#x13a;" horiz-adv-x="497" 
d="M121 1407h256v-1407h-256v1407zM299 1827h291l-234 -334h-215z" />
    <glyph glyph-name="Lcommaaccent" unicode="&#x13b;" horiz-adv-x="1173" 
d="M416 233h731v-233h-1002v1358h271v-1125zM705 -528h-195l6 422h252z" />
    <glyph glyph-name="lcommaaccent" unicode="&#x13c;" horiz-adv-x="497" 
d="M121 1407h256v-1407h-256v1407zM315 -528h-196l8 422h252z" />
    <glyph glyph-name="Lcaron" unicode="&#x13d;" horiz-adv-x="1177" 
d="M416 233h731v-233h-1002v1358h271v-1125zM918 928h-197l6 422h254z" />
    <glyph glyph-name="lcaron" unicode="&#x13e;" horiz-adv-x="497" 
d="M772 1409l-55 -422h-197v422h252zM121 1407h256v-1407h-256v1407z" />
    <glyph glyph-name="Ldot" unicode="&#x13f;" horiz-adv-x="1175" 
d="M416 233h731v-233h-1002v1358h271v-1125zM1024 686q0 -66 -42 -106.5t-108 -40.5q-64 0 -105.5 41t-41.5 106t41.5 106.5t105.5 41.5q66 0 108 -41t42 -107z" />
    <glyph glyph-name="ldot" unicode="&#x140;" horiz-adv-x="751" 
d="M121 1407h256v-1407h-256v1407zM721 571q-41 -41 -106.5 -41t-106.5 41t-41 106.5t41 106.5t106.5 41t106.5 -41q43 -41 43 -106.5t-43 -106.5z" />
    <glyph glyph-name="Lslash" unicode="&#x141;" horiz-adv-x="1294" 
d="M537 233h731v-233h-1002v678l-211 -14v180l211 12v502h271v-484l333 23v-178l-333 -23v-463z" />
    <glyph glyph-name="lslash" unicode="&#x142;" horiz-adv-x="497" 
d="M121 1407h256v-686l180 74v-181l-180 -71v-543h-256v442l-182 -71v174l182 73v789z" />
    <glyph glyph-name="Nacute" unicode="&#x143;" horiz-adv-x="1585" 
d="M1192 0l-776 922v-922h-271v1358h244l782 -932v932h271v-1358h-250zM850 1806h291l-234 -333h-215z" />
    <glyph glyph-name="nacute" unicode="&#x144;" horiz-adv-x="1157" 
d="M666 981q168 0 272 -104q106 -100 106 -275v-602h-256v537q0 96 -54 150t-144 54q-91 0 -152 -55t-61 -149v-537h-256v961h244l6 -111q43 58 121 94.5t174 36.5zM655 1427h293l-233 -333h-215z" />
    <glyph glyph-name="Ncommaaccent" unicode="&#x145;" horiz-adv-x="1585" 
d="M1192 0l-776 922v-922h-271v1358h244l782 -932v932h271v-1358h-250zM870 -528h-196l8 422h252z" />
    <glyph glyph-name="ncommaaccent" unicode="&#x146;" horiz-adv-x="1157" 
d="M666 981q168 0 272 -104q106 -100 106 -275v-602h-256v537q0 96 -54 150t-144 54q-91 0 -152 -55t-61 -149v-537h-256v961h244l6 -111q43 58 121 94.5t174 36.5zM639 -528h-197l7 422h251z" />
    <glyph glyph-name="Ncaron" unicode="&#x147;" horiz-adv-x="1585" 
d="M1192 0l-776 922v-922h-271v1358h244l782 -932v932h271v-1358h-250zM428 1851h227l129 -178l127 178h228l-287 -370h-135z" />
    <glyph glyph-name="ncaron" unicode="&#x148;" horiz-adv-x="1157" 
d="M666 981q168 0 272 -104q106 -100 106 -275v-602h-256v537q0 96 -54 150t-144 54q-91 0 -152 -55t-61 -149v-537h-256v961h244l6 -111q43 58 121 94.5t174 36.5zM248 1454h225l127 -176l129 176h227l-286 -369h-135z" />
    <glyph glyph-name="napostrophe" unicode="&#x149;" horiz-adv-x="1433" 
d="M942 981q168 0 272 -104q107 -101 107 -275v-602h-256v537q0 96 -54.5 150t-144.5 54q-93 0 -153 -55t-60 -149v-537h-256v961h244l4 -111q44 57 123 94t174 37zM20 911l138 516h272l-203 -516h-207z" />
    <glyph glyph-name="Eng" unicode="&#x14a;" horiz-adv-x="1585" 
d="M1178 -39v70l-764 891v-922h-269v1358h244l782 -938v938h271v-1432q0 -162 -82 -248t-242 -86q-82 0 -137 25l18 201q36 -8 66 -8q113 0 113 151z" />
    <glyph glyph-name="eng" unicode="&#x14b;" horiz-adv-x="1157" 
d="M666 981q184 0 281 -112.5t97 -313.5v-641q0 -159 -84 -246.5t-231 -87.5q-101 0 -164 29l23 215q41 -14 94 -14q106 3 106 135v592q0 96 -54 150t-144 54q-91 0 -152 -55t-61 -149v-537h-256v961h244l6 -111q43 58 121 94.5t174 36.5z" />
    <glyph glyph-name="Omacron" unicode="&#x14c;" horiz-adv-x="1587" 
d="M76 676q0 203 91 363.5t255 248.5q166 90 371 90q204 0 370 -90q166 -91 257 -250.5t91 -361.5q3 -199 -89.5 -359.5t-258 -250t-370.5 -86.5q-203 -3 -368.5 86.5t-258.5 250.5t-90 359zM352 678q0 -201 123 -324t320 -123t317 123q123 123 123 324q0 197 -123 323
q-119 125 -317 125q-196 0 -320 -127q-123 -126 -123 -321zM498 1690h589v-174h-589v174z" />
    <glyph glyph-name="omacron" unicode="&#x14d;" horiz-adv-x="1159" 
d="M1094 479q0 -211 -147.5 -355t-366.5 -144q-221 0 -367 143q-145 145 -145 356q0 212 145 357q148 145 367 145q221 0 366 -145q148 -145 148 -357zM322 479q0 -115 73.5 -190.5t184.5 -75.5q112 0 185 75t73 191q0 117 -73 193t-185 76q-111 0 -184.5 -76t-73.5 -193z
M287 1325h590v-174h-590v174z" />
    <glyph glyph-name="Obreve" unicode="&#x14e;" horiz-adv-x="1587" 
d="M76 676q0 203 91 363.5t255 248.5q166 90 371 90q204 0 370 -90q166 -91 257 -250.5t91 -361.5q3 -199 -89.5 -359.5t-258 -250t-370.5 -86.5q-203 -3 -368.5 86.5t-258.5 250.5t-90 359zM352 678q0 -201 123 -324t320 -123t317 123q123 123 123 324q0 197 -123 323
q-119 125 -317 125q-196 0 -320 -127q-123 -126 -123 -321zM494 1782h184q4 -60 36 -95.5t79 -35.5q51 0 81.5 35.5t32.5 95.5h187q-6 -139 -88 -220t-213 -81q-130 0 -211.5 81t-87.5 220z" />
    <glyph glyph-name="obreve" unicode="&#x14f;" horiz-adv-x="1159" 
d="M1094 479q0 -211 -147.5 -355t-366.5 -144q-221 0 -367 143q-145 145 -145 356q0 212 145 357q148 145 367 145q221 0 366 -145q148 -145 148 -357zM322 479q0 -115 73.5 -190.5t184.5 -75.5q112 0 185 75t73 191q0 117 -73 193t-185 76q-111 0 -184.5 -76t-73.5 -193z
M281 1403h186q5 -58 35.5 -93.5t79.5 -35.5q51 0 82 34.5t32 94.5h187q-6 -137 -88.5 -219t-212.5 -82t-212 81t-89 220z" />
    <glyph glyph-name="Ohungarumlaut" unicode="&#x150;" horiz-adv-x="1587" 
d="M76 676q0 203 91 363.5t255 248.5q166 90 371 90q204 0 370 -90q166 -91 257 -250.5t91 -361.5q3 -199 -89.5 -359.5t-258 -250t-370.5 -86.5q-203 -3 -368.5 86.5t-258.5 250.5t-90 359zM352 678q0 -201 123 -324t320 -123t317 123q123 123 123 324q0 197 -123 323
q-119 125 -317 125q-196 0 -320 -127q-123 -126 -123 -321zM637 1806h272l-219 -333h-211zM1004 1806h280l-237 -333h-211z" />
    <glyph glyph-name="ohungarumlaut" unicode="&#x151;" horiz-adv-x="1161" 
d="M1094 479q0 -211 -147.5 -355t-366.5 -144q-221 0 -367 143q-145 145 -145 356q0 212 145 357q148 145 367 145q221 0 366 -145q148 -145 148 -357zM322 479q0 -115 73.5 -190.5t184.5 -75.5q112 0 185 75t73 191q0 117 -73 193t-185 76q-111 0 -184.5 -76t-73.5 -193z
M446 1430h273l-219 -334h-211zM811 1430h283l-238 -334h-211z" />
    <glyph glyph-name="OE" unicode="&#x152;" horiz-adv-x="2304" 
d="M1473 233h755v-233h-1024v123q-177 -143 -424 -143q-144 -3 -274.5 49.5t-226 145t-150.5 223t-53 276.5q-3 197 91.5 360.5t257.5 255.5t355 88q241 0 424 -145v125h1014v-234h-745v-313h600v-233h-600v-345zM356 676q0 -196 117 -322q119 -125 307 -125q192 0 305 125
q115 127 115 322q0 196 -115 323t-305 127q-186 0 -307 -127q-117 -126 -117 -323z" />
    <glyph glyph-name="oe" unicode="&#x153;" horiz-adv-x="1794" 
d="M571 981q216 0 357 -160q133 160 346 160q107 0 198 -41.5t153 -115t87.5 -183.5t3.5 -238h-669q18 -97 94.5 -147.5t195.5 -50.5q169 0 314 74l37 -209q-153 -90 -351 -90q-263 0 -405 161q-142 -161 -361 -161q-217 0 -360 143t-143 356q0 214 143 357q145 145 360 145
zM324 479q0 -116 69.5 -191t177.5 -75q109 0 178.5 75t69.5 191q0 117 -69.5 193t-178.5 76q-108 0 -177.5 -76t-69.5 -193zM1051 575h436q-5 83 -61.5 136t-145.5 53q-96 0 -158.5 -52t-70.5 -137z" />
    <glyph glyph-name="Racute" unicode="&#x154;" horiz-adv-x="1406" 
d="M1366 0h-326l-311 399h-313v-399h-271v1358h629q213 0 354 -129q144 -129 144 -350q0 -144 -71 -255.5t-195 -172.5zM743 1124h-327v-491h327q111 0 180.5 68t69.5 176q0 115 -69 181t-181 66zM719 1806h291l-234 -333h-215z" />
    <glyph glyph-name="racute" unicode="&#x155;" horiz-adv-x="778" 
d="M389 1430h293l-233 -334h-218zM121 961h248l6 -132q35 73 100 112.5t150 39.5q54 0 125 -23l-21 -229q-71 23 -119 23q-46 0 -85 -13t-73 -41.5t-53.5 -81t-19.5 -124.5v-492h-258v961z" />
    <glyph glyph-name="Rcommaaccent" unicode="&#x156;" horiz-adv-x="1406" 
d="M1366 0h-326l-311 399h-313v-399h-271v1358h629q213 0 354 -129q144 -129 144 -350q0 -144 -71 -255.5t-195 -172.5zM743 1124h-327v-491h327q111 0 180.5 68t69.5 176q0 115 -69 181t-181 66zM760 -528h-197l6 422h252z" />
    <glyph glyph-name="rcommaaccent" unicode="&#x157;" horiz-adv-x="778" 
d="M319 -528h-194l6 422h252zM121 961h248l6 -132q35 73 100 112.5t150 39.5q54 0 125 -23l-21 -229q-71 23 -119 23q-46 0 -85 -13t-73 -41.5t-53.5 -81t-19.5 -124.5v-492h-258v961z" />
    <glyph glyph-name="Rcaron" unicode="&#x158;" horiz-adv-x="1406" 
d="M1366 0h-326l-311 399h-313v-399h-271v1358h629q213 0 354 -129q144 -129 144 -350q0 -144 -71 -255.5t-195 -172.5zM743 1124h-327v-491h327q111 0 180.5 68t69.5 176q0 115 -69 181t-181 66zM299 1851h225l129 -178l127 178h228l-287 -370h-135z" />
    <glyph glyph-name="rcaron" unicode="&#x159;" horiz-adv-x="778" 
d="M63 1454h228l129 -176l127 176h225l-287 -369h-135zM121 961h248l6 -132q35 73 100 112.5t150 39.5q54 0 125 -23l-21 -229q-71 23 -119 23q-46 0 -85 -13t-73 -41.5t-53.5 -81t-19.5 -124.5v-492h-258v961z" />
    <glyph glyph-name="Sacute" unicode="&#x15a;" horiz-adv-x="1161" 
d="M653 1806h293l-233 -333h-215zM594 1378q242 0 434 -86l-22 -239q-49 31 -172 59q-122 29 -222 29q-119 0 -185.5 -40t-66.5 -118q0 -75 56 -109q31 -19 49 -26t65 -21l21 -6l194 -57q89 -27 151 -57.5t109 -74t70 -102.5t23 -137q0 -180 -144 -297q-140 -116 -370 -116
q-143 0 -287 30q-145 30 -217 70l22 242q58 -36 197 -70q135 -33 260 -33q118 0 187 42t69 120q0 62 -37 96.5t-129 59.5l-215 57q-354 94 -354 367q0 188 139 303q138 114 375 114z" />
    <glyph glyph-name="sacute" unicode="&#x15b;" horiz-adv-x="921" 
d="M473 586l102 -19q147 -26 216 -95t69 -191q0 -141 -109 -221t-296 -80q-236 0 -371 69l27 209q72 -29 161 -47t162 -18q93 0 135.5 19t42.5 62q0 39 -34.5 61.5t-118.5 35.5l-115 22q-274 47 -274 285q0 136 114.5 219.5t304.5 83.5q192 0 326 -61l-22 -209
q-54 23 -137.5 39t-151.5 16q-189 0 -189 -88q0 -35 34.5 -55t123.5 -37zM510 1430h291l-234 -334h-215z" />
    <glyph glyph-name="Scircumflex" unicode="&#x15c;" horiz-adv-x="1161" 
d="M655 1841l287 -371h-225l-127 179l-129 -179h-228l287 371h135zM594 1378q242 0 434 -86l-22 -239q-49 31 -172 59q-122 29 -222 29q-119 0 -185.5 -40t-66.5 -118q0 -75 56 -109q31 -19 49 -26t65 -21l21 -6l194 -57q89 -27 151 -57.5t109 -74t70 -102.5t23 -137
q0 -180 -144 -297q-140 -116 -370 -116q-143 0 -287 30q-145 30 -217 70l22 242q58 -36 197 -70q135 -33 260 -33q118 0 187 42t69 120q0 62 -37 96.5t-129 59.5l-215 57q-354 94 -354 367q0 188 139 303q138 114 375 114z" />
    <glyph glyph-name="scircumflex" unicode="&#x15d;" horiz-adv-x="921" 
d="M473 586l102 -19q147 -26 216 -95t69 -191q0 -141 -109 -221t-296 -80q-236 0 -371 69l27 209q72 -29 161 -47t162 -18q93 0 135.5 19t42.5 62q0 39 -34.5 61.5t-118.5 35.5l-115 22q-274 47 -274 285q0 136 114.5 219.5t304.5 83.5q192 0 326 -61l-22 -209
q-54 23 -137.5 39t-151.5 16q-189 0 -189 -88q0 -35 34.5 -55t123.5 -37zM547 1450l287 -371h-228l-129 178l-127 -178h-225l287 371h135z" />
    <glyph glyph-name="Scedilla" unicode="&#x15e;" horiz-adv-x="1161" 
d="M594 1378q242 0 434 -86l-22 -239q-49 31 -172 59q-122 29 -222 29q-119 0 -185.5 -40t-66.5 -118q0 -75 56 -109q31 -19 49 -26t65 -21l21 -6l194 -57q89 -27 151 -57.5t109 -74t70 -102.5t23 -137q0 -169 -125 -282q-124 -112 -332 -127l-20 -70q102 -12 156 -60
t54 -122q0 -91 -81.5 -145t-217.5 -54q-92 0 -151 27v141q58 -18 131 -18q117 0 117 65q0 32 -32.5 50t-92.5 18h-74l68 168q-125 8 -241 34.5t-177 61.5l22 242q58 -36 197 -70q135 -33 260 -33q118 0 187 42t69 120q0 62 -37 96.5t-129 59.5l-215 57q-354 94 -354 367
q0 188 139 303q138 114 375 114z" />
    <glyph glyph-name="scedilla" unicode="&#x15f;" horiz-adv-x="921" 
d="M383 -184h-72l66 166q-180 12 -293 67l27 209q72 -29 161 -47t162 -18q93 0 135.5 19t42.5 62q0 39 -34.5 61.5t-118.5 35.5l-115 22q-274 47 -274 285q0 136 114.5 219.5t304.5 83.5q192 0 326 -61l-22 -209q-54 23 -137.5 39t-151.5 16q-189 0 -189 -88q0 -35 34.5 -55
t123.5 -37l102 -19q147 -26 216 -95t69 -191q0 -128 -89.5 -205.5t-248.5 -91.5l-20 -70q102 -12 156.5 -60t54.5 -122q0 -91 -81.5 -145t-217.5 -54q-96 0 -154 27v141q62 -18 131 -18q119 0 119 65q0 32 -33 50t-94 18z" />
    <glyph glyph-name="Scaron" unicode="&#x160;" horiz-adv-x="1161" 
d="M229 1851h228l127 -178l129 178h225l-287 -370h-135zM594 1378q242 0 434 -86l-22 -239q-49 31 -172 59q-122 29 -222 29q-119 0 -185.5 -40t-66.5 -118q0 -75 56 -109q31 -19 49 -26t65 -21l21 -6l194 -57q89 -27 151 -57.5t109 -74t70 -102.5t23 -137q0 -180 -144 -297
q-140 -116 -370 -116q-143 0 -287 30q-145 30 -217 70l22 242q58 -36 197 -70q135 -33 260 -33q118 0 187 42t69 120q0 62 -37 96.5t-129 59.5l-215 57q-354 94 -354 367q0 188 139 303q138 114 375 114z" />
    <glyph glyph-name="scaron" unicode="&#x161;" horiz-adv-x="921" 
d="M473 586l102 -19q147 -26 216 -95t69 -191q0 -141 -109 -221t-296 -80q-236 0 -371 69l27 209q72 -29 161 -47t162 -18q93 0 135.5 19t42.5 62q0 39 -34.5 61.5t-118.5 35.5l-115 22q-274 47 -274 285q0 136 114.5 219.5t304.5 83.5q192 0 326 -61l-22 -209
q-54 23 -137.5 39t-151.5 16q-189 0 -189 -88q0 -35 34.5 -55t123.5 -37zM119 1454h227l127 -178l129 178h225l-286 -371h-135z" />
    <glyph glyph-name="Tcommaaccent" unicode="&#x162;" horiz-adv-x="1167" 
d="M719 0h-268v1118h-426v240h1118v-240h-424v-1118zM647 -528h-194l6 422h252z" />
    <glyph glyph-name="tcommaaccent" unicode="&#x163;" horiz-adv-x="802" 
d="M532 -528h-194l6 422h252zM723 961v-213h-272v-396q0 -143 143 -143q76 0 162 22l24 -213q-93 -38 -231 -38q-167 0 -260.5 86t-93.5 249v433h-162v213h164v307h247v-307h279z" />
    <glyph glyph-name="Tcaron" unicode="&#x164;" horiz-adv-x="1167" 
d="M719 0h-268v1118h-426v240h1118v-240h-424v-1118zM229 1851h226l129 -178l127 178h227l-287 -370h-135z" />
    <glyph glyph-name="tcaron" unicode="&#x165;" horiz-adv-x="829" 
d="M807 1509l-57 -422h-195v422h252zM723 961v-213h-272v-396q0 -143 143 -143q76 0 162 22l24 -213q-93 -38 -231 -38q-167 0 -260.5 86t-93.5 249v433h-162v213h164v307h247v-307h279z" />
    <glyph glyph-name="Tbar" unicode="&#x166;" horiz-adv-x="1224" 
d="M745 0h-268v612h-317v181h317v325h-426v240h1118v-240h-424v-325h324v-181h-324v-612z" />
    <glyph glyph-name="tbar" unicode="&#x167;" horiz-adv-x="819" 
d="M735 961v-213h-272v-156h268v-176h-268v-64q0 -143 141 -143q78 0 164 22l25 -213q-93 -38 -234 -38q-164 0 -258 86t-94 249v101h-137v176h137v156h-162v213h164v307h248v-307h278z" />
    <glyph glyph-name="Utilde" unicode="&#x168;" horiz-adv-x="1454" 
d="M133 481v877h270v-858q0 -136 87.5 -207.5t234.5 -71.5q154 0 240 72.5t86 206.5v858h270v-877q0 -102 -32 -186t-88 -142t-132 -97.5t-162.5 -57.5t-181.5 -18q-126 0 -232.5 31t-187.5 91.5t-126.5 157.5t-45.5 221zM481 1505l-108 97q102 184 235 184q44 0 134 -45
t114 -45q37 0 64.5 19t60.5 65l104 -99q-54 -94 -111.5 -136t-131.5 -42q-49 0 -119 37q-69 38 -92 41q-30 8 -56 4q-38 -6 -94 -80z" />
    <glyph glyph-name="utilde" unicode="&#x169;" horiz-adv-x="1124" 
d="M758 422v539h256v-566q0 -181 -127 -299q-125 -116 -328 -116q-200 0 -326 114q-122 113 -122 295v572h258v-539q0 -92 52.5 -149.5t137.5 -57.5q90 0 144.5 57t54.5 150zM315 1126l-108 97q102 184 237 184q44 0 132.5 -45t115.5 -45q65 0 123 84l105 -101
q-54 -93 -112.5 -135.5t-131.5 -42.5q-50 0 -117 37q-66 37 -94 43q-30 7 -53 4q-38 -6 -97 -80z" />
    <glyph glyph-name="Umacron" unicode="&#x16a;" horiz-adv-x="1454" 
d="M133 481v877h270v-858q0 -136 87.5 -207.5t234.5 -71.5q154 0 240 72.5t86 206.5v858h270v-877q0 -102 -32 -186t-88 -142t-132 -97.5t-162.5 -57.5t-181.5 -18q-126 0 -232.5 31t-187.5 91.5t-126.5 157.5t-45.5 221zM428 1690h592v-174h-592v174z" />
    <glyph glyph-name="umacron" unicode="&#x16b;" horiz-adv-x="1124" 
d="M758 422v539h256v-566q0 -181 -127 -299q-125 -116 -328 -116q-200 0 -326 114q-122 113 -122 295v572h258v-539q0 -92 52.5 -149.5t137.5 -57.5q90 0 144.5 57t54.5 150zM266 1325h592v-174h-592v174z" />
    <glyph glyph-name="Ubreve" unicode="&#x16c;" horiz-adv-x="1454" 
d="M133 481v877h270v-858q0 -136 87.5 -207.5t234.5 -71.5q154 0 240 72.5t86 206.5v858h270v-877q0 -102 -32 -186t-88 -142t-132 -97.5t-162.5 -57.5t-181.5 -18q-126 0 -232.5 31t-187.5 91.5t-126.5 157.5t-45.5 221zM424 1782h184q5 -60 36.5 -95.5t80.5 -35.5
t79.5 35.5t35.5 95.5h184q-6 -139 -87.5 -220t-211.5 -81t-212.5 81.5t-88.5 219.5z" />
    <glyph glyph-name="ubreve" unicode="&#x16d;" horiz-adv-x="1124" 
d="M758 422v539h256v-566q0 -181 -127 -299q-125 -116 -328 -116q-200 0 -326 114q-122 113 -122 295v572h258v-539q0 -92 52.5 -149.5t137.5 -57.5q90 0 144.5 57t54.5 150zM260 1403h186q5 -58 35.5 -93.5t79.5 -35.5q51 0 81.5 34.5t35.5 94.5h184q-6 -137 -88 -219
t-213 -82q-130 0 -212 81t-89 220z" />
    <glyph glyph-name="Uring" unicode="&#x16e;" horiz-adv-x="1454" 
d="M133 481v877h270v-858q0 -136 87.5 -207.5t234.5 -71.5q154 0 240 72.5t86 206.5v858h270v-877q0 -102 -32 -186t-88 -142t-132 -97.5t-162.5 -57.5t-181.5 -18q-126 0 -232.5 31t-187.5 91.5t-126.5 157.5t-45.5 221zM510 1692q0 93 59.5 151t155.5 58q93 0 153 -58.5
t60 -150.5q0 -90 -60 -148.5t-153 -58.5q-96 0 -155.5 58t-59.5 149zM649 1692q0 -31 20.5 -51.5t55.5 -20.5q31 0 51.5 20.5t20.5 51.5q0 32 -20.5 53.5t-51.5 21.5q-35 0 -55.5 -21t-20.5 -54z" />
    <glyph glyph-name="uring" unicode="&#x16f;" horiz-adv-x="1124" 
d="M758 422v539h256v-566q0 -181 -127 -299q-125 -116 -328 -116q-200 0 -326 114q-122 113 -122 295v572h258v-539q0 -92 52.5 -149.5t137.5 -57.5q90 0 144.5 57t54.5 150zM346 1288q0 92 60.5 150.5t154.5 58.5t154.5 -58.5t60.5 -150.5q0 -91 -60.5 -149t-154.5 -58
t-154.5 58t-60.5 149zM487 1286q0 -31 21 -51.5t53 -20.5t53 20.5t21 51.5q0 35 -20.5 56.5t-53.5 21.5t-53.5 -21.5t-20.5 -56.5z" />
    <glyph glyph-name="Uhungarumlaut" unicode="&#x170;" horiz-adv-x="1454" 
d="M133 481v877h270v-858q0 -136 87.5 -207.5t234.5 -71.5q154 0 240 72.5t86 206.5v858h270v-877q0 -102 -32 -186t-88 -142t-132 -97.5t-162.5 -57.5t-181.5 -18q-126 0 -232.5 31t-187.5 91.5t-126.5 157.5t-45.5 221zM573 1806h273l-219 -333h-211zM938 1806h283
l-238 -333h-211z" />
    <glyph glyph-name="uhungarumlaut" unicode="&#x171;" horiz-adv-x="1124" 
d="M758 422v539h256v-566q0 -181 -127 -299q-125 -116 -328 -116q-200 0 -326 114q-122 113 -122 295v572h258v-539q0 -92 52.5 -149.5t137.5 -57.5q90 0 144.5 57t54.5 150zM426 1430h272l-217 -334h-211zM793 1430h282l-237 -334h-211z" />
    <glyph glyph-name="Uogonek" unicode="&#x172;" horiz-adv-x="1454" 
d="M133 481v877h270v-858q0 -136 87.5 -207.5t234.5 -71.5q154 0 240 72.5t86 206.5v858h270v-877q0 -193 -108.5 -315.5t-297.5 -165.5q-194 -120 -194 -207q0 -35 26 -56.5t70 -21.5q55 0 111 29l55 -160q-80 -51 -203 -51q-116 0 -183 54t-67 147q0 136 158 248
q-250 9 -403 135q-152 131 -152 364z" />
    <glyph glyph-name="uogonek" unicode="&#x173;" horiz-adv-x="1124" 
d="M758 422v539h256v-566q0 -146 -81 -251.5t-222 -143.5h2q-195 -121 -195 -207q0 -35 26 -56.5t70 -21.5q55 0 111 29l55 -160q-80 -51 -202 -51q-116 0 -183 54t-67 147q0 136 164 250q-174 18 -279 129q-102 114 -102 276v572h258v-539q0 -92 52.5 -149.5t137.5 -57.5
q90 0 144.5 57t54.5 150z" />
    <glyph glyph-name="Wcircumflex" unicode="&#x174;" horiz-adv-x="2054" 
d="M778 0h-377l-372 1358h270l301 -1090l305 1069h244l305 -1069l301 1090h270l-370 -1358h-379l-250 874zM1102 1841l287 -371h-226l-129 179l-127 -179h-227l287 371h135z" />
    <glyph glyph-name="wcircumflex" unicode="&#x175;" horiz-adv-x="1617" 
d="M694 944h230l204 -684l191 701h264l-283 -961h-319l-172 582l-172 -582h-320l-282 961h264l190 -701zM877 1450l286 -371h-225l-129 178l-127 -178h-227l286 371h136z" />
    <glyph glyph-name="Ycircumflex" unicode="&#x176;" horiz-adv-x="1406" 
d="M336 1358l371 -572l374 572h312l-553 -846v-512h-271v512l-557 846h324zM774 1841l289 -371h-227l-129 179l-127 -179h-228l287 371h135z" />
    <glyph glyph-name="ycircumflex" unicode="&#x177;" horiz-adv-x="1110" 
d="M616 1450l287 -371h-227l-127 178l-129 -178h-225l286 371h135zM307 961l250 -701l250 701h285l-453 -1092q-63 -146 -159.5 -217.5t-241.5 -71.5q-101 0 -185 41l33 207q61 -25 121 -25q79 0 134.5 52t78.5 145l-397 961h284z" />
    <glyph glyph-name="Ydieresis" unicode="&#x178;" horiz-adv-x="1406" 
d="M336 1358l371 -572l374 572h312l-553 -846v-512h-271v512l-557 846h324zM522 1493q-60 0 -97.5 36.5t-37.5 96.5q0 61 37.5 99t97.5 38q62 0 99.5 -37.5t37.5 -99.5q0 -60 -37.5 -96.5t-99.5 -36.5zM889 1493q-62 0 -99.5 36.5t-37.5 96.5q0 62 38 99.5t99 37.5
q60 0 97.5 -38t37.5 -99q0 -60 -37.5 -96.5t-97.5 -36.5z" />
    <glyph glyph-name="Zacute" unicode="&#x179;" horiz-adv-x="1204" 
d="M1135 0h-1065v193l710 929h-710v236h1065v-197l-711 -925h711v-236zM645 1806h293l-233 -333h-218z" />
    <glyph glyph-name="zacute" unicode="&#x17a;" horiz-adv-x="905" 
d="M846 0h-776v184l452 561h-448v216h741v-187l-453 -561h484v-213zM485 1430h291l-231 -334h-217z" />
    <glyph glyph-name="Zdotaccent" unicode="&#x17b;" horiz-adv-x="1204" 
d="M1135 0h-1065v193l710 929h-710v236h1065v-197l-711 -925h711v-236zM768 1626q0 -63 -42 -104t-108 -41q-63 0 -104 41t-41 104q0 66 41 108t104 42q66 0 108 -41.5t42 -108.5z" />
    <glyph glyph-name="zdotaccent" unicode="&#x17c;" horiz-adv-x="905" 
d="M846 0h-776v184l452 561h-448v216h741v-187l-453 -561h484v-213zM457 1409q66 0 107.5 -40.5t41.5 -106.5q4 -48 -23.5 -85t-68.5 -52t-87.5 -8.5t-76.5 38.5q-32 30 -38.5 76.5t8.5 87t52 67.5t85 23z" />
    <glyph glyph-name="Zcaron" unicode="&#x17d;" horiz-adv-x="1204" 
d="M1135 0h-1065v193l710 929h-710v236h1065v-197l-711 -925h711v-236zM266 1851h226l129 -178l127 178h227l-287 -370h-135z" />
    <glyph glyph-name="zcaron" unicode="&#x17e;" horiz-adv-x="905" 
d="M846 0h-776v184l452 561h-448v216h741v-187l-453 -561h484v-213zM94 1454h228l129 -176l127 176h227l-289 -369h-133z" />
    <glyph glyph-name="Schwa" unicode="&#x18f;" horiz-adv-x="1439" 
d="M86 795h989q-19 155 -127.5 243t-290.5 88q-128 0 -259.5 -30.5t-227.5 -77.5l-45 242q95 52 237.5 85t294.5 33q329 0 517 -188t188 -510q0 -317 -172 -510q-172 -190 -479 -190q-130 0 -243 42.5t-201.5 123t-139.5 210t-51 291.5q0 83 10 148zM711 227
q165 0 258.5 94.5t111.5 258.5h-741q0 -151 98 -252q101 -101 273 -101z" />
    <glyph glyph-name="florin" unicode="&#x192;" horiz-adv-x="1167" 
d="M43 14l37 207q61 -22 125 -22q86 0 142.5 43.5t66.5 130.5l39 311h-170l28 217h172l13 100q24 175 137.5 276t300.5 101q96 0 184 -32l-43 -216q-58 25 -137 25q-172 -3 -193 -172l-10 -82h275l-29 -217h-268l-43 -326q-24 -175 -137.5 -275.5t-299.5 -100.5
q-102 0 -190 32z" />
    <glyph glyph-name="Nhookleft" unicode="&#x19d;" horiz-adv-x="1536" 
d="M1145 0l-778 922v-996q0 -162 -82 -248t-242 -86q-82 0 -137 25l18 201q36 -8 66 -8q57 0 82.5 36.5t25.5 114.5v1397h244l782 -932v932h269v-1358h-248z" />
    <glyph glyph-name="Gcaron" unicode="&#x1e6;" horiz-adv-x="1478" 
d="M1114 266v271h-364v229h632v-664q-102 -56 -240 -89t-270 -33q-181 0 -330.5 52t-252 144t-159 221.5t-56.5 282.5q0 162 62.5 294.5t172 220t257 134.5t319.5 47q237 0 438 -92l-20 -240q-195 86 -404 86q-247 0 -395 -118q-150 -117 -150 -332q0 -204 140 -332
q138 -123 368 -123q162 0 252 41zM465 1851h225l127 -178l129 178h228l-287 -370h-135z" />
    <glyph glyph-name="gcaron" unicode="&#x1e7;" horiz-adv-x="1222" 
d="M535 -20q-204 0 -336 141q-129 141 -129 360q0 221 129 359q132 141 336 141q207 0 317 -137l4 117h246v-926q0 -112 -45 -200t-123 -143t-177 -83.5t-212 -28.5q-110 0 -212 22t-171 58l28 219q59 -30 153.5 -51t182.5 -21q84 0 155 24.5t118 79t47 130.5v68
q-43 -60 -125 -94.5t-186 -34.5zM588 750q-115 0 -187.5 -75.5t-72.5 -193.5q0 -117 72.5 -193.5t187.5 -76.5q109 0 184 78q76 76 76 192q0 117 -73.5 193t-186.5 76zM186 1454h226l129 -176l127 176h227l-287 -369h-135z" />
    <glyph glyph-name="Oogonek" unicode="&#x1ea;" horiz-adv-x="1587" 
d="M76 676q-3 200 90 362t258.5 252.5t368.5 87.5q204 3 370 -88t259 -253t89 -361q0 -265 -149 -445q-146 -181 -395 -233q-191 -120 -191 -205q0 -35 26.5 -56.5t69.5 -21.5q55 0 111 29l55 -160q-80 -51 -202 -51q-115 0 -182.5 54.5t-67.5 146.5q0 134 159 248
q-194 11 -346 101t-237.5 244.5t-85.5 348.5zM352 678q0 -201 123 -324t320 -123t317 123q123 123 123 324q0 197 -123 323q-119 125 -317 125q-196 0 -320 -127q-123 -126 -123 -321z" />
    <glyph glyph-name="oogonek" unicode="&#x1eb;" horiz-adv-x="1159" 
d="M68 479q0 212 145 357q148 145 367 145q221 0 366 -145q148 -145 148 -357q0 -172 -101 -303q-100 -129 -264 -176q-192 -122 -192 -207q0 -35 26 -56.5t70 -21.5q54 0 110 29l56 -160q-80 -51 -203 -51q-117 0 -184.5 54t-67.5 147q0 138 166 252q-194 21 -320 159
q-122 137 -122 334zM322 479q0 -115 73.5 -190.5t184.5 -75.5q112 0 185 75t73 191q0 117 -73 193t-185 76q-111 0 -184.5 -76t-73.5 -193z" />
    <glyph glyph-name="Aringacute" unicode="&#x1fa;" horiz-adv-x="1431" 
d="M1419 0h-286l-101 266h-631l-100 -266h-289l549 1358h309zM954 481l-237 594l-240 -594h477zM504 1692q0 92 59.5 150.5t153.5 58.5t154.5 -58.5t60.5 -150.5q0 -91 -60.5 -149t-154.5 -58t-153.5 58t-59.5 149zM643 1692q-4 -43 35 -61t78 0t35 61q0 46 -37 65t-74 0
t-37 -65zM786 2294h293l-233 -334h-215z" />
    <glyph glyph-name="aringacute" unicode="&#x1fb;" horiz-adv-x="1222" 
d="M532 -20q-199 0 -331 141q-131 143 -131 360q0 219 131 359q132 141 331 141q207 0 314 -137l4 117h252v-961h-252l-4 117q-107 -137 -314 -137zM844 481q0 118 -73.5 194.5t-188.5 76.5q-112 0 -185 -77t-73 -194t73 -194.5t185 -77.5q115 0 188.5 77t73.5 195z
M616 1880h291l-231 -334h-217zM354 1288q0 92 60.5 150.5t154.5 58.5t154.5 -58.5t60.5 -150.5q0 -91 -60.5 -149t-154.5 -58t-154.5 58t-60.5 149zM496 1286q-4 -43 34.5 -61t77 0t33.5 61q5 48 -33.5 68t-77 0t-34.5 -68z" />
    <glyph glyph-name="AEacute" unicode="&#x1fc;" horiz-adv-x="2009" 
d="M1413 1806h293l-233 -333h-216zM1204 233h731v-233h-1001v266h-516l-162 -266h-307l829 1358h1141v-234h-715v-313h625v-233h-625v-345zM934 481v643l-387 -643h387z" />
    <glyph glyph-name="aeacute" unicode="&#x1fd;" horiz-adv-x="1677" 
d="M1534 279l37 -209q-156 -90 -352 -90q-281 0 -422 184q-129 -184 -383 -184q-157 0 -255 76.5t-98 207.5q0 144 116.5 219.5t322.5 75.5q108 0 198 -22v45q0 172 -243 172q-81 0 -170 -21.5t-144 -52.5l-26 217q65 35 167 59.5t205 24.5q248 0 357 -127q127 127 311 127
q107 0 199 -41.5t154.5 -115t88 -183.5t0.5 -238h-667q17 -97 93.5 -147.5t197.5 -50.5q165 0 313 74zM469 178q88 0 158 49q71 53 71 129v31q-84 23 -176 23q-94 0 -147 -31t-53 -90q0 -53 39.5 -82t107.5 -29zM934 575h434q-5 83 -60.5 136t-146.5 53q-97 0 -159 -52
t-68 -137zM862 1430h293l-233 -334h-215z" />
    <glyph glyph-name="Oslashacute" unicode="&#x1fe;" horiz-adv-x="1589" 
d="M76 676q0 203 92 363.5t256 249.5t371 89q177 0 323 -67l129 186l160 -106l-127 -183q113 -97 173 -233t60 -299q2 -149 -52 -279.5t-149.5 -222.5t-230 -144t-286.5 -50q-173 0 -324 65l-129 -186l-158 106l125 180q-111 95 -172 231.5t-61 299.5zM354 678
q0 -189 111 -309l504 727q-79 30 -172 30q-196 0 -320 -127q-123 -126 -123 -321zM1237 678q0 186 -111 309l-505 -727q85 -29 176 -29q197 0 317 123q123 123 123 324zM862 1806h291l-231 -333h-217z" />
    <glyph glyph-name="oslashacute" unicode="&#x1ff;" horiz-adv-x="1148" 
d="M61 479q0 211 146 357q148 145 366 145q139 0 256 -63l154 190l127 -102l-154 -187q131 -137 131 -340q0 -211 -147.5 -355t-366.5 -144q-145 0 -256 63l-155 -190l-123 104l149 184q-127 142 -127 338zM315 479q0 -78 37 -139l322 389q-49 19 -101 19q-111 0 -184.5 -76
t-73.5 -193zM831 479q0 82 -36 144l-324 -392q47 -18 102 -18q112 0 185 75t73 191zM606 1430h291l-231 -334h-217z" />
    <glyph glyph-name="Scommaaccent" unicode="&#x218;" horiz-adv-x="1161" 
d="M702 -528h-194l6 422h252zM594 1378q242 0 434 -86l-22 -239q-49 31 -172 59q-122 29 -222 29q-119 0 -185.5 -40t-66.5 -118q0 -75 56 -109q31 -19 49 -26t65 -21l21 -6l194 -57q89 -27 151 -57.5t109 -74t70 -102.5t23 -137q0 -180 -144 -297q-140 -116 -370 -116
q-143 0 -287 30q-145 30 -217 70l22 242q58 -36 197 -70q135 -33 260 -33q118 0 187 42t69 120q0 62 -37 96.5t-129 59.5l-215 57q-354 94 -354 367q0 188 139 303q138 114 375 114z" />
    <glyph glyph-name="scommaaccent" unicode="&#x219;" horiz-adv-x="921" 
d="M473 586l102 -19q147 -26 216 -95t69 -191q0 -141 -109 -221t-296 -80q-236 0 -371 69l27 209q72 -29 161 -47t162 -18q93 0 135.5 19t42.5 62q0 39 -34.5 61.5t-118.5 35.5l-115 22q-274 47 -274 285q0 136 114.5 219.5t304.5 83.5q192 0 326 -61l-22 -209
q-54 23 -137.5 39t-151.5 16q-189 0 -189 -88q0 -35 34.5 -55t123.5 -37zM537 -528h-195l6 422h252z" />
    <glyph glyph-name="uni021A" unicode="&#x21a;" horiz-adv-x="1167" 
d="M512 0h-61v1118h-426v240h1118v-240h-424v-1118h-64l-26 -86q102 -12 156.5 -60t54.5 -122q0 -91 -81.5 -145t-217.5 -54q-93 0 -152 27v141q59 -18 129 -18q119 0 119 65q0 68 -125 68h-72z" />
    <glyph glyph-name="uni021B" unicode="&#x21b;" horiz-adv-x="802" 
d="M723 961v-213h-272v-396q0 -143 143 -143q76 0 162 22l24 -213q-93 -38 -231 -38q-21 0 -27 2l2 -2l-20 -66q102 -12 156.5 -60t54.5 -122q0 -91 -81.5 -145t-217.5 -54q-93 0 -152 27v141q58 -18 129 -18q119 0 119 65q0 68 -127 68h-70l74 188q-194 74 -194 311v433
h-162v213h164v307h247v-307h279z" />
    <glyph glyph-name="dotlessj" unicode="&#x237;" horiz-adv-x="505" 
d="M127 -33v991h258v-1007q0 -176 -95.5 -273.5t-258.5 -97.5q-115 0 -187 35l25 207q52 -21 121 -21q137 0 137 166z" />
    <glyph glyph-name="schwa" unicode="&#x259;" horiz-adv-x="1095" 
d="M143 682l-37 209q159 90 363 90q254 0 405 -139q152 -140 152 -363q0 -218 -139 -360q-139 -139 -352 -139q-110 0 -204 41t-159 114t-91 182.5t-1 237.5h692q-19 97 -98.5 149t-204.5 52q-172 0 -326 -74zM768 385h-459q5 -86 64 -138t155 -52q102 0 167 52.5t73 137.5z
" />
    <glyph glyph-name="nhookleft" unicode="&#x272;" horiz-adv-x="1144" 
d="M653 981q184 0 281.5 -112.5t97.5 -317.5v-551h-258v537q0 96 -54 150t-142 54q-93 0 -153 -55t-60 -149v-623q0 -158 -85 -246t-233 -88q-98 0 -164 29l25 215q43 -14 94 -14q107 3 107 135v1016h243l4 -111q45 58 123 94.5t174 36.5z" />
    <glyph glyph-name="circumflex" unicode="&#x2c6;" horiz-adv-x="954" 
d="M545 1841l286 -371h-227l-127 179l-129 -179h-225l287 371h135z" />
    <glyph glyph-name="caron" unicode="&#x2c7;" horiz-adv-x="954" 
d="M123 1851h225l129 -178l127 178h227l-286 -370h-135z" />
    <glyph glyph-name="breve" unicode="&#x2d8;" horiz-adv-x="831" 
d="M115 1782h184q6 -61 37 -96t80 -35q51 0 81.5 35.5t32.5 95.5h187q-7 -139 -89 -220t-212 -81t-212 81t-89 220z" />
    <glyph glyph-name="dotaccent" unicode="&#x2d9;" horiz-adv-x="540" 
d="M418 1626q0 -63 -41 -104t-107 -41t-106.5 40.5t-40.5 104.5q0 66 40.5 108t106.5 42t107 -41.5t41 -108.5z" />
    <glyph glyph-name="ring" unicode="&#x2da;" horiz-adv-x="675" 
d="M123 1692q0 92 60 150.5t153 58.5q94 0 155.5 -58.5t61.5 -150.5q0 -90 -61.5 -148.5t-155.5 -58.5q-93 0 -153 58.5t-60 148.5zM262 1692q-5 -43 35 -61t79.5 0t33.5 61q6 46 -33.5 65.5t-79.5 0t-35 -65.5z" />
    <glyph glyph-name="ogonek" unicode="&#x2db;" horiz-adv-x="657" 
d="M367 39l127 -39q-195 -124 -195 -207q0 -35 26 -56.5t70 -21.5q53 0 113 29l53 -160q-80 -51 -203 -51q-116 0 -182.5 54t-66.5 147q0 92 70.5 169.5t187.5 135.5z" />
    <glyph glyph-name="tilde" unicode="&#x2dc;" horiz-adv-x="958" 
d="M231 1505l-108 97q102 184 237 184q44 0 132.5 -45t115.5 -45q36 0 64 19.5t59 64.5l105 -99q-97 -178 -244 -178q-49 0 -119 37q-68 38 -90 41q-29 8 -55 4q-41 -6 -97 -80z" />
    <glyph glyph-name="hungarumlaut" unicode="&#x2dd;" horiz-adv-x="1050" 
d="M281 1806h272l-219 -333h-211zM645 1806h283l-238 -333h-211z" />
    <glyph glyph-name="acutecomb" unicode="&#x301;" horiz-adv-x="694" 
d="M281 2277h290l-231 -333h-217z" />
    <glyph glyph-name="pi" unicode="&#x3c0;" horiz-adv-x="1378" 
d="M852 293v569h-377v-862h-254v862h-182v242h1241v-242h-174v-536q0 -63 35 -90t114 -27q26 0 54 4v-217q-41 -12 -129 -12q-65 0 -123 19t-104.5 55.5t-73.5 97t-27 137.5z" />
    <glyph glyph-name="Wgrave" unicode="&#x1e80;" horiz-adv-x="2054" 
d="M778 0h-377l-372 1358h270l301 -1090l305 1069h244l305 -1069l301 1090h270l-370 -1358h-379l-250 874zM1149 1473h-217l-234 333h293z" />
    <glyph glyph-name="wgrave" unicode="&#x1e81;" horiz-adv-x="1617" 
d="M694 944h230l204 -684l191 701h264l-283 -961h-319l-172 582l-172 -582h-320l-282 961h264l190 -701zM918 1096h-218l-231 334h291z" />
    <glyph glyph-name="Wacute" unicode="&#x1e82;" horiz-adv-x="2054" 
d="M778 0h-377l-372 1358h270l301 -1090l305 1069h244l305 -1069l301 1090h270l-370 -1358h-379l-250 874zM1100 1806h293l-234 -333h-217z" />
    <glyph glyph-name="wacute" unicode="&#x1e83;" horiz-adv-x="1617" 
d="M694 944h230l204 -684l191 701h264l-283 -961h-319l-172 582l-172 -582h-320l-282 961h264l190 -701zM891 1430h291l-234 -334h-215z" />
    <glyph glyph-name="Wdieresis" unicode="&#x1e84;" horiz-adv-x="2054" 
d="M778 0h-377l-372 1358h270l301 -1090l305 1069h244l305 -1069l301 1090h270l-370 -1358h-379l-250 874zM850 1493q-60 0 -97.5 36.5t-37.5 96.5q0 62 37 99.5t98 37.5q62 0 99.5 -37.5t37.5 -99.5q0 -60 -37.5 -96.5t-99.5 -36.5zM1214 1493q-60 0 -97.5 36.5t-37.5 96.5
q0 61 37.5 99t97.5 38q62 0 100 -38t38 -99q0 -60 -38 -96.5t-100 -36.5z" />
    <glyph glyph-name="wdieresis" unicode="&#x1e85;" horiz-adv-x="1617" 
d="M694 944h230l204 -684l191 701h264l-283 -961h-319l-172 582l-172 -582h-320l-282 961h264l190 -701zM625 1124q-61 0 -98.5 38t-37.5 98q0 62 37.5 99.5t98.5 37.5q60 0 98.5 -38t38.5 -99q0 -60 -38.5 -98t-98.5 -38zM989 1124q-60 0 -97.5 38t-37.5 98q0 61 37.5 99
t97.5 38q61 0 99 -37.5t38 -99.5q0 -60 -38 -98t-99 -38z" />
    <glyph glyph-name="uni1E9E" unicode="&#x1e9e;" horiz-adv-x="1400" 
d="M1229 1231v-193l-271 -262q167 -25 269 -130.5t102 -258.5q0 -83 -29 -155.5t-85 -129t-148 -89.5t-209 -33q-158 0 -270 36l28 238q90 -37 220 -37q98 0 155.5 49.5t57.5 130.5q0 92 -74.5 144.5t-208.5 52.5q-50 0 -102 -8v182l319 313q-88 49 -217 49
q-363 0 -363 -354v-776h-270v762q0 302 158.5 459t466.5 157q135 0 256.5 -40.5t214.5 -106.5z" />
    <glyph glyph-name="Adotbelow" unicode="&#x1ea0;" horiz-adv-x="1431" 
d="M1419 0h-286l-101 266h-631l-100 -266h-289l549 1358h309zM954 481l-237 594l-240 -594h477zM715 -430q-63 0 -105.5 41.5t-42.5 103.5q0 65 43 107.5t105 42.5q63 0 106 -43.5t43 -106.5q0 -61 -43.5 -103t-105.5 -42z" />
    <glyph glyph-name="adotbelow" unicode="&#x1ea1;" horiz-adv-x="1222" 
d="M532 -20q-199 0 -331 141q-131 143 -131 360q0 219 131 359q132 141 331 141q207 0 314 -137l4 117h252v-961h-252l-4 117q-107 -137 -314 -137zM844 481q0 118 -73.5 194.5t-188.5 76.5q-112 0 -185 -77t-73 -194t73 -194.5t185 -77.5q115 0 188.5 77t73.5 195z
M555 -430q-62 0 -104.5 42t-42.5 103q0 65 42.5 107.5t104.5 42.5q65 0 107.5 -43t42.5 -107q0 -61 -43.5 -103t-106.5 -42z" />
    <glyph glyph-name="Edotbelow" unicode="&#x1eb8;" horiz-adv-x="1239" 
d="M416 233h749v-233h-1020v1358h1006v-234h-735v-313h643v-233h-643v-345zM678 -430q-63 0 -105.5 41.5t-42.5 103.5q0 65 42 107.5t106 42.5q63 0 106 -43.5t43 -106.5q0 -61 -43.5 -103t-105.5 -42z" />
    <glyph glyph-name="edotbelow" unicode="&#x1eb9;" horiz-adv-x="1095" 
d="M952 279l35 -209q-159 -90 -360 -90q-256 0 -408 137q-151 139 -151 362q0 222 139 361q138 141 354 141q110 0 203.5 -41.5t158 -115t91 -183.5t4.5 -238h-694q18 -97 98 -147.5t205 -50.5q171 0 325 74zM328 575h458q-5 83 -64.5 136t-154.5 53q-99 0 -165 -53
t-74 -136zM578 -430q-63 0 -106.5 42t-43.5 103q0 65 42.5 107.5t104.5 42.5q63 0 106.5 -43.5t43.5 -106.5q0 -61 -42.5 -103t-104.5 -42z" />
    <glyph glyph-name="Etilde" unicode="&#x1ebc;" horiz-adv-x="1239" 
d="M416 233h749v-233h-1020v1358h1006v-234h-735v-313h643v-233h-643v-345zM412 1505l-111 97q105 184 240 184q44 0 132 -45t115 -45q65 0 123 84l105 -99q-54 -94 -112.5 -136t-133.5 -42q-47 0 -117 37q-69 38 -92 41q-29 7 -53 4q-40 -6 -96 -80z" />
    <glyph glyph-name="etilde" unicode="&#x1ebd;" horiz-adv-x="1095" 
d="M952 279l35 -209q-159 -90 -360 -90q-256 0 -408 137q-151 139 -151 362q0 222 139 361q138 141 354 141q110 0 203.5 -41.5t158 -115t91 -183.5t4.5 -238h-694q18 -97 98 -147.5t205 -50.5q171 0 325 74zM328 575h458q-5 83 -64.5 136t-154.5 53q-99 0 -165 -53
t-74 -136zM313 1126l-108 97q102 184 235 184q44 0 134 -45t114 -45q36 0 64 19.5t59 64.5l107 -101q-54 -93 -112.5 -135.5t-131.5 -42.5q-49 0 -119 37q-65 36 -92 43q-30 7 -55 4q-36 -6 -95 -80z" />
    <glyph glyph-name="Idotbelow" unicode="&#x1eca;" horiz-adv-x="559" 
d="M145 1358h271v-1358h-271v1358zM279 -430q-63 0 -105.5 41.5t-42.5 103.5q0 65 42.5 107.5t105.5 42.5t106 -43.5t43 -106.5q0 -61 -43 -103t-106 -42z" />
    <glyph glyph-name="idotbelow" unicode="&#x1ecb;" horiz-adv-x="499" 
d="M379 961v-961h-258v961h258zM252 1415q66 0 107.5 -40.5t41.5 -106.5q4 -48 -23.5 -85t-68.5 -52t-87.5 -8.5t-76.5 38.5q-41 41 -41 107t41 106.5t107 40.5zM248 -430q-63 0 -105.5 41.5t-42.5 103.5q0 65 42 107.5t106 42.5q63 0 106 -43.5t43 -106.5q0 -61 -43.5 -103
t-105.5 -42z" />
    <glyph glyph-name="Odotbelow" unicode="&#x1ecc;" horiz-adv-x="1587" 
d="M76 676q0 203 91 363.5t255 248.5q166 90 371 90q204 0 370 -90q166 -91 257 -250.5t91 -361.5q3 -199 -89.5 -359.5t-258 -250t-370.5 -86.5q-203 -3 -368.5 86.5t-258.5 250.5t-90 359zM352 678q0 -201 123 -324t320 -123t317 123q123 123 123 324q0 197 -123 323
q-119 125 -317 125q-196 0 -320 -127q-123 -126 -123 -321zM791 -430q-63 0 -105.5 41.5t-42.5 103.5q0 65 43 107.5t105 42.5q63 0 106 -43.5t43 -106.5q0 -61 -43 -103t-106 -42z" />
    <glyph glyph-name="odotbelow" unicode="&#x1ecd;" horiz-adv-x="1159" 
d="M1094 479q0 -211 -147.5 -355t-366.5 -144q-221 0 -367 143q-145 145 -145 356q0 212 145 357q148 145 367 145q221 0 366 -145q148 -145 148 -357zM322 479q0 -115 73.5 -190.5t184.5 -75.5q112 0 185 75t73 191q0 117 -73 193t-185 76q-111 0 -184.5 -76t-73.5 -193z
M580 -430q-63 0 -105.5 41.5t-42.5 103.5q0 65 42 107.5t106 42.5q63 0 106 -43.5t43 -106.5q0 -61 -43.5 -103t-105.5 -42z" />
    <glyph glyph-name="Udotbelow" unicode="&#x1ee4;" horiz-adv-x="1454" 
d="M133 481v877h270v-858q0 -136 87.5 -207.5t234.5 -71.5q154 0 240 72.5t86 206.5v858h270v-877q0 -102 -32 -186t-88 -142t-132 -97.5t-162.5 -57.5t-181.5 -18q-126 0 -232.5 31t-187.5 91.5t-126.5 157.5t-45.5 221zM723 -430q-63 0 -106.5 42t-43.5 103q0 65 43 107.5
t107 42.5q63 0 105 -43.5t42 -106.5q0 -61 -42.5 -103t-104.5 -42z" />
    <glyph glyph-name="udotbelow" unicode="&#x1ee5;" horiz-adv-x="1124" 
d="M758 422v539h256v-566q0 -181 -127 -299q-125 -116 -328 -116q-200 0 -326 114q-122 113 -122 295v572h258v-539q0 -92 52.5 -149.5t137.5 -57.5q90 0 144.5 57t54.5 150zM561 -430q-63 0 -105 41.5t-42 103.5q0 65 42.5 107.5t104.5 42.5q63 0 106.5 -43.5t43.5 -106.5
q0 -61 -44 -103t-106 -42z" />
    <glyph glyph-name="Ygrave" unicode="&#x1ef2;" horiz-adv-x="1406" 
d="M336 1358l371 -572l374 572h312l-553 -846v-512h-271v512l-557 846h324zM825 1473h-217l-231 333h291z" />
    <glyph glyph-name="ygrave" unicode="&#x1ef3;" horiz-adv-x="1110" 
d="M676 1096h-215l-234 334h291zM307 961l250 -701l250 701h285l-453 -1092q-63 -146 -159.5 -217.5t-241.5 -71.5q-101 0 -185 41l33 207q61 -25 121 -25q79 0 134.5 52t78.5 145l-397 961h284z" />
    <glyph glyph-name="Ytilde" unicode="&#x1ef8;" horiz-adv-x="1406" 
d="M336 1358l371 -572l374 572h312l-553 -846v-512h-271v512l-557 846h324zM457 1505l-111 97q105 184 240 184q44 0 132.5 -45t115.5 -45q35 0 63 19.5t59 64.5l105 -99q-54 -94 -112.5 -136t-133.5 -42q-47 0 -117 37q-69 38 -92 41q-29 7 -53 4q-40 -6 -96 -80z" />
    <glyph glyph-name="ytilde" unicode="&#x1ef9;" horiz-adv-x="1110" 
d="M305 1126l-108 97q102 184 237 184q44 0 132.5 -45t115.5 -45q36 0 64 19.5t59 64.5l104 -101q-54 -93 -112 -135.5t-131 -42.5q-50 0 -117 37q-66 37 -94 43q-30 7 -54 4q-37 -5 -96 -80zM307 961l250 -701l250 701h285l-453 -1092q-63 -146 -159.5 -217.5t-241.5 -71.5
q-101 0 -185 41l33 207q61 -25 121 -25q79 0 134.5 52t78.5 145l-397 961h284z" />
    <glyph glyph-name="uni2000" unicode="&#x2000;" horiz-adv-x="1146" 
 />
    <glyph glyph-name="uni2001" unicode="&#x2001;" horiz-adv-x="2293" 
 />
    <glyph glyph-name="uni2002" unicode="&#x2002;" horiz-adv-x="1146" 
 />
    <glyph glyph-name="uni2003" unicode="&#x2003;" horiz-adv-x="2293" 
 />
    <glyph glyph-name="uni2004" unicode="&#x2004;" horiz-adv-x="763" 
 />
    <glyph glyph-name="uni2005" unicode="&#x2005;" horiz-adv-x="573" 
 />
    <glyph glyph-name="uni2006" unicode="&#x2006;" horiz-adv-x="382" 
 />
    <glyph glyph-name="uni2007" unicode="&#x2007;" horiz-adv-x="382" 
 />
    <glyph glyph-name="uni2008" unicode="&#x2008;" horiz-adv-x="286" 
 />
    <glyph glyph-name="uni2009" unicode="&#x2009;" horiz-adv-x="458" 
 />
    <glyph glyph-name="uni200A" unicode="&#x200a;" horiz-adv-x="126" 
 />
    <glyph glyph-name="uni2010" unicode="&#x2010;" horiz-adv-x="901" 
d="M104 668h693v-215h-693v215z" />
    <glyph glyph-name="uni2011" unicode="&#x2011;" horiz-adv-x="901" 
d="M104 668h693v-215h-693v215z" />
    <glyph glyph-name="figuredash" unicode="&#x2012;" horiz-adv-x="901" 
d="M104 668h693v-215h-693v215z" />
    <glyph glyph-name="endash" unicode="&#x2013;" horiz-adv-x="1214" 
d="M104 668h1006v-215h-1006v215z" />
    <glyph glyph-name="emdash" unicode="&#x2014;" horiz-adv-x="2248" 
d="M104 668h2038v-215h-2038v215z" />
    <glyph glyph-name="quoteleft" unicode="&#x2018;" horiz-adv-x="526" 
d="M475 1427l-135 -516h-272l202 516h205z" />
    <glyph glyph-name="quoteright" unicode="&#x2019;" horiz-adv-x="518" 
d="M74 911l137 516h270l-202 -516h-205z" />
    <glyph glyph-name="quotesinglbase" unicode="&#x201a;" horiz-adv-x="518" 
d="M16 -283l138 516h272l-188 -516h-222z" />
    <glyph glyph-name="quotedblleft" unicode="&#x201c;" horiz-adv-x="954" 
d="M475 1427l-135 -516h-272l202 516h205zM903 1427l-135 -516h-272l202 516h205z" />
    <glyph glyph-name="quotedblright" unicode="&#x201d;" horiz-adv-x="940" 
d="M496 911l137 516h270l-203 -516h-204zM74 911l137 516h270l-202 -516h-205z" />
    <glyph glyph-name="quotedblbase" unicode="&#x201e;" horiz-adv-x="946" 
d="M440 -287l138 516h272l-203 -516h-207zM18 -287l138 516h270l-203 -516h-205z" />
    <glyph glyph-name="dagger" unicode="&#x2020;" horiz-adv-x="786" 
d="M494 1339h231v-180h-231v-651h-203v651h-230v180h230v269h203v-269z" />
    <glyph glyph-name="daggerdbl" unicode="&#x2021;" horiz-adv-x="839" 
d="M520 1411h232v-180h-232v-348h232v-181h-232v-225h-203v225h-229v181h229v348h-229v180h229v227h203v-227z" />
    <glyph glyph-name="bullet" unicode="&#x2022;" horiz-adv-x="739" 
d="M369 430q-102 0 -172 70t-70 170q0 103 69.5 172t172.5 69t173 -69t70 -172q0 -99 -71 -170q-70 -70 -172 -70z" />
    <glyph glyph-name="ellipsis" unicode="&#x2026;" horiz-adv-x="1406" 
d="M84 127q0 61 43 104t104 43q63 0 106.5 -43.5t43.5 -103.5q0 -62 -44 -104.5t-106 -42.5q-61 0 -104 43t-43 104zM555 127q0 62 42 104.5t105 42.5t106.5 -43.5t43.5 -103.5q0 -63 -44 -105t-108 -42q-61 0 -103 42.5t-42 104.5zM1026 127q0 61 43 104t105 43t105.5 -43
t43.5 -104q0 -63 -43 -105t-106 -42q-62 0 -105 43t-43 104z" />
    <glyph glyph-name="uni202F" unicode="&#x202f;" horiz-adv-x="458" 
 />
    <glyph glyph-name="perthousand" unicode="&#x2030;" horiz-adv-x="2729" 
d="M1044 354q0 162 109 271q108 108 272 108q167 0 275 -108q110 -107 110 -271q0 -161 -110 -268q-106 -106 -275 -106q-166 0 -272 106q-109 109 -109 268zM1901 354q0 163 108 271t272 108q167 0 275 -108q110 -107 110 -271q0 -161 -110 -268q-106 -106 -275 -106
q-166 0 -272 106q-108 108 -108 268zM96 999q0 162 109 271q108 108 272 108q167 0 275 -108q110 -107 110 -271q0 -161 -110 -268q-106 -106 -273 -106q-165 0 -274 106q-109 109 -109 268zM666 0h-156v27l733 1331h156v-25zM297 999q0 -78 51 -131t129 -53q79 0 132 53
t53 131q0 80 -53 134.5t-132 54.5q-77 0 -128.5 -54.5t-51.5 -134.5zM1243 354q0 -78 52 -131t130 -53q79 0 131 53t52 131q0 80 -52 134.5t-131 54.5q-78 0 -130 -54.5t-52 -134.5zM2099 354q0 -78 52 -131t130 -53q79 0 131 53t52 131q0 80 -52 134.5t-131 54.5
q-78 0 -130 -54.5t-52 -134.5z" />
    <glyph glyph-name="guilsinglleft" unicode="&#x2039;" horiz-adv-x="638" 
d="M315 479l254 -393h-233l-273 393l273 395h233z" />
    <glyph glyph-name="guilsinglright" unicode="&#x203a;" horiz-adv-x="638" 
d="M578 479l-273 -393h-235l254 393l-254 395h235z" />
    <glyph glyph-name="fraction" unicode="&#x2044;" horiz-adv-x="276" 
d="M-145 0h-158v27l733 1331h156v-25z" />
    <glyph glyph-name="uni205F" unicode="&#x205f;" horiz-adv-x="573" 
 />
    <glyph glyph-name="zerosuperior" unicode="&#x2070;" horiz-adv-x="829" 
d="M63 952q0 88 20 163t61 135t110.5 94t161.5 34q73 0 132.5 -23.5t99.5 -63.5t67 -95t39 -115.5t12 -128.5q0 -86 -20.5 -159.5t-61.5 -132t-110 -92t-160 -33.5q-90 0 -159 33.5t-110 92t-61.5 132t-20.5 159.5zM246 956q0 -115 43.5 -186.5t126.5 -71.5q86 0 127 73.5
t41 184.5q0 115 -43.5 186.5t-126.5 71.5q-82 0 -125 -71.5t-43 -186.5z" />
    <glyph glyph-name="foursuperior" unicode="&#x2074;" horiz-adv-x="759" 
d="M293 1358h192l-245 -479h194v176h174v-176h111v-158h-111v-182h-178v182h-389v135z" />
    <glyph glyph-name="fivesuperior" unicode="&#x2075;" horiz-adv-x="712" 
d="M657 811q0 -145 -93 -215t-242 -70q-144 0 -269 58l25 161q112 -59 225 -59q162 0 162 115q0 121 -174 121q-90 0 -170 -25l-35 37l51 424h484v-160h-336l-15 -131q36 4 62 4q143 0 234 -69.5t91 -190.5z" />
    <glyph glyph-name="sixsuperior" unicode="&#x2076;" horiz-adv-x="774" 
d="M674 1337l-17 -161q-94 49 -186 49q-89 0 -147 -49.5t-70 -143.5q72 60 178 60q117 0 203 -69.5t86 -197.5q0 -134 -89.5 -212t-238.5 -78q-86 0 -151 30t-103 84t-57 122.5t-19 150.5q0 218 100.5 337t293.5 119q117 0 217 -41zM397 692q61 0 100.5 35.5t39.5 91.5
q0 59 -38 93t-102 34q-56 0 -94.5 -36.5t-38.5 -88.5q0 -54 38 -91.5t95 -37.5z" />
    <glyph glyph-name="sevensuperior" unicode="&#x2077;" horiz-adv-x="634" 
d="M604 1225l-317 -686h-205l315 655h-358v164h565v-133z" />
    <glyph glyph-name="eightsuperior" unicode="&#x2078;" horiz-adv-x="786" 
d="M254 795q-6 -70 67 -98.5t146.5 1t67.5 97.5q7 65 -67 92.5t-147.5 0t-66.5 -92.5zM393 1225q-54 0 -88.5 -26t-34.5 -69q-7 -60 58.5 -85t130.5 0t57 85q0 43 -34.5 69t-88.5 26zM606 975q55 -30 86 -81t31 -116q0 -82 -49.5 -139.5t-122 -82t-158.5 -24.5t-158.5 24.5
t-122 82t-49.5 139.5q0 65 31 116t86 81q-96 66 -96 174q0 111 90.5 170t218.5 59q125 0 217 -59q95 -59 95 -170q0 -109 -99 -174z" />
    <glyph glyph-name="ninesuperior" unicode="&#x2079;" horiz-adv-x="774" 
d="M102 578l15 159q96 -47 186 -47q88 0 146.5 49.5t70.5 143.5q-72 -60 -178 -60q-118 0 -203.5 69t-85.5 198q0 134 89.5 211t238.5 77q162 0 246 -104.5t84 -282.5q0 -217 -100.5 -336.5t-293.5 -119.5q-117 0 -215 43zM377 1223q-61 0 -100 -36t-39 -93q0 -59 37.5 -92
t101.5 -33q57 0 95 35.5t38 89.5t-38 91.5t-95 37.5z" />
    <glyph glyph-name="zeroinferior" unicode="&#x2080;" horiz-adv-x="829" 
d="M63 397q0 88 20 163t61 135t110.5 94t161.5 34q73 0 132.5 -23.5t99.5 -63.5t67 -95t39 -115.5t12 -128.5q0 -86 -20.5 -159.5t-61.5 -132t-110 -92t-160 -33.5q-90 0 -159 33.5t-110 92t-61.5 132t-20.5 159.5zM246 401q0 -115 43.5 -186.5t126.5 -71.5q86 0 127 73.5
t41 184.5q0 115 -43.5 186.5t-126.5 71.5q-82 0 -125 -71.5t-43 -186.5z" />
    <glyph glyph-name="oneinferior" unicode="&#x2081;" horiz-adv-x="481" 
d="M383 0h-182v659h-170v160h352v-819z" />
    <glyph glyph-name="twoinferior" unicode="&#x2082;" horiz-adv-x="696" 
d="M434 266l-123 -106h330v-160h-586v135l260 242q109 98 109 184q0 109 -131 109q-47 0 -105.5 -17.5t-101.5 -44.5l-25 160q120 63 250 63q137 0 220 -66.5t83 -195.5q0 -82 -45 -152t-135 -151z" />
    <glyph glyph-name="threeinferior" unicode="&#x2083;" horiz-adv-x="722" 
d="M193 336v123l192 192h-299v160h541v-137l-201 -193q110 -12 177 -77t67 -162q0 -90 -46.5 -150t-122 -86t-175.5 -26q-162 0 -279 63l23 162q126 -66 241 -66q170 0 170 103q0 53 -49 79.5t-129 26.5q-51 0 -110 -12z" />
    <glyph glyph-name="fourinferior" unicode="&#x2084;" horiz-adv-x="759" 
d="M295 819h190l-245 -479h194v176h174v-176h113v-158h-113v-182h-178v182h-389v135z" />
    <glyph glyph-name="fiveinferior" unicode="&#x2085;" horiz-adv-x="712" 
d="M657 262q0 -139 -90.5 -210.5t-244.5 -71.5q-146 0 -269 57l25 160q107 -58 225 -58q162 0 162 115q0 121 -174 121q-87 0 -170 -25l-35 35l51 426h484v-160h-336l-15 -131q32 4 62 4q144 0 234.5 -69t90.5 -193z" />
    <glyph glyph-name="sixinferior" unicode="&#x2086;" horiz-adv-x="774" 
d="M674 780l-17 -159q-96 47 -186 47q-89 0 -147 -48.5t-70 -142.5q70 58 178 58q124 0 206.5 -71t82.5 -196q0 -133 -89.5 -210.5t-238.5 -77.5q-86 0 -151 30t-103 84t-57 122.5t-19 150.5q0 217 100.5 336.5t293.5 119.5q124 0 217 -43zM397 135q62 0 101 36t39 93
q0 59 -38 93t-102 34q-57 0 -95 -36.5t-38 -90.5q0 -52 38.5 -90.5t94.5 -38.5z" />
    <glyph glyph-name="seveninferior" unicode="&#x2087;" horiz-adv-x="634" 
d="M606 684l-319 -684h-203l313 655h-356v164h565v-135z" />
    <glyph glyph-name="eightinferior" unicode="&#x2088;" horiz-adv-x="786" 
d="M254 242q-6 -67 67 -95t146.5 0t67.5 95q7 66 -67 94t-147.5 0t-66.5 -94zM393 674q-55 0 -89 -26t-34 -70q-7 -58 58.5 -83t130.5 -1t57 84q0 44 -33.5 69t-89.5 27zM705 598q0 -110 -99 -174q117 -64 117 -199q0 -82 -49.5 -139t-122 -81.5t-158.5 -24.5t-158.5 24.5
t-122 81.5t-49.5 139q0 132 117 199q-96 62 -96 174q0 74 45.5 127t113.5 76.5t150 23.5q125 0 217 -59q95 -59 95 -168z" />
    <glyph glyph-name="nineinferior" unicode="&#x2089;" horiz-adv-x="774" 
d="M102 23l15 159q96 -47 186 -47q88 0 146.5 49.5t70.5 143.5q-72 -60 -178 -60q-118 0 -203.5 69t-85.5 198q0 134 89.5 211t238.5 77q162 0 246 -104.5t84 -282.5q0 -217 -100.5 -336.5t-293.5 -119.5q-117 0 -215 43zM377 668q-61 0 -100 -36t-39 -93q0 -59 37.5 -92
t101.5 -33q57 0 95 35.5t38 89.5t-38 91.5t-95 37.5z" />
    <glyph glyph-name="Euro" unicode="&#x20ac;" horiz-adv-x="1429" 
d="M219 717h-166l8 139h179q55 246 245 383q192 137 461 137q200 0 377 -80l-27 -239q-149 67 -327 67q-157 0 -272.5 -70t-164.5 -198h498l-22 -139h-506q-2 -10 -2 -47q1 -12 1.5 -27t1 -25t1.5 -16h491l-18 -141h-428q55 -115 165 -176.5t257 -61.5q190 0 354 92l33 -237
q-186 -98 -424 -98q-254 0 -438 129q-182 130 -246 352h-197l8 141h162q-4 36 -4 62v53z" />
    <glyph glyph-name="trademark" unicode="&#x2122;" horiz-adv-x="1546" 
d="M866 1151v-358h-172v614h160l207 -248l205 248h157v-614h-170v358l-184 -213h-16zM426 793h-190v460h-181v154h549v-154h-178v-460z" />
    <glyph glyph-name="estimated" unicode="&#x212e;" horiz-adv-x="1683" 
d="M1630 668v-23h-1257q-11 0 -11 -8v-361q0 -20 17 -47q185 -176 477 -176q152 0 280.5 51t219.5 148h112q-106 -127 -266.5 -199.5t-347.5 -72.5q-157 -3 -302 52.5t-249.5 150t-165.5 224.5t-57 269q-4 141 58 272t167 226t250 151t299 53q158 0 302 -57t247.5 -152.5
t165 -226.5t61.5 -274zM1346 725v358q0 25 -19 47q-85 84 -209 129.5t-262 45.5q-292 0 -473 -175q-21 -24 -21 -53v-352q0 -12 11 -12h966q7 0 7 12z" />
    <glyph glyph-name="onethird" unicode="&#x2153;" horiz-adv-x="1679" 
d="M1163 336v123l195 192h-301v160h540v-137l-200 -193q110 -12 176.5 -77t66.5 -162q0 -90 -46.5 -150t-122 -86t-175.5 -26q-159 0 -276 63l20 162q126 -66 242 -66q170 0 170 103q0 53 -49 79.5t-127 26.5q-54 0 -113 -12zM469 0h-158v27l736 1331h153v-25zM422 539h-184
v659h-170v160h354v-819z" />
    <glyph glyph-name="twothirds" unicode="&#x2154;" horiz-adv-x="1896" 
d="M1386 336v123l195 192h-301v160h541v-137l-201 -193q111 -12 178.5 -77.5t67.5 -161.5q0 -132 -96.5 -197t-249.5 -65q-162 0 -279 63l23 162q126 -66 241 -66q170 0 170 103q0 53 -49 79.5t-129 26.5q-53 0 -111 -12zM477 813l-121 -106h330v-160h-586v135l260 242
q107 94 107 186q0 107 -129 107q-47 0 -106.5 -18t-100.5 -44l-25 160q117 63 250 63q136 0 218.5 -66.5t82.5 -195.5q0 -82 -44 -152.5t-136 -150.5zM692 0h-157v27l735 1331h153v-25z" />
    <glyph glyph-name="minus" unicode="&#x2212;" horiz-adv-x="1175" 
d="M1065 801v-240h-954v240h954z" />
    <glyph glyph-name="uni2215" unicode="&#x2215;" horiz-adv-x="833" 
d="M133 0h-158v27l736 1331h153v-25z" />
    <glyph glyph-name="uni2219" unicode="&#x2219;" horiz-adv-x="653" 
d="M219 383q-41 43 -41 105.5t41 105.5q43 43 106.5 43t106.5 -43t43 -105.5t-43 -105.5q-43 -41 -106.5 -41t-106.5 41z" />
    <glyph glyph-name="approxequal" unicode="&#x2248;" horiz-adv-x="1298" 
d="M225 281l-129 184q183 174 348 174q57 0 103.5 -12.5t78.5 -29.5t63.5 -34.5t72.5 -30t90 -12.5q62 0 110.5 20t110.5 70l129 -180q-183 -174 -348 -174q-55 0 -100.5 12.5t-78 30t-64 34.5t-73.5 29.5t-92 12.5q-105 0 -221 -94zM225 735l-129 185q183 174 348 174
q57 0 104 -12.5t79 -30t63 -34.5t72 -29.5t90 -12.5q63 0 112 20t109 70l129 -180q-183 -174 -348 -174q-66 0 -121.5 18.5t-88 40.5t-85 40.5t-113.5 18.5q-105 0 -221 -94z" />
    <glyph glyph-name="notequal" unicode="&#x2260;" horiz-adv-x="1288" 
d="M897 1038h283v-241h-392l-106 -236h498v-244h-609l-165 -366l-154 63l137 303h-278v244h387l104 236h-491v241h602l166 369l159 -59z" />
    <glyph glyph-name="lessequal" unicode="&#x2264;" horiz-adv-x="1308" 
d="M430 713h760v-244h-1077v336l1061 502v-283zM104 274h1086v-237h-1086v237z" />
    <glyph glyph-name="greaterequal" unicode="&#x2265;" horiz-adv-x="1312" 
d="M125 469v244h760l-746 311v283l1061 -502v-336h-1075zM121 37v237h1085v-237h-1085z" />
    <glyph glyph-name="uni25FC" unicode="&#x25fc;" horiz-adv-x="960" 
d="M0 0v961h961v-961h-961z" />
    <glyph glyph-name="commaaccent" unicode="&#xf6c3;" horiz-adv-x="505" 
d="M319 -528h-196l6 422h254z" />
    <glyph glyph-name="_1" horiz-adv-x="0" 
 />
    <glyph glyph-name="CR" horiz-adv-x="681" 
 />
    <glyph glyph-name="NULL" horiz-adv-x="0" 
 />
    <glyph glyph-name="A.alt" horiz-adv-x="1452" 
d="M403 608h646v195q0 159 -81.5 243t-238.5 84q-163 0 -244.5 -84t-81.5 -245v-193zM403 0h-270v829q0 256 153.5 401.5t442.5 145.5q279 0 434 -149q156 -150 156 -398v-829h-270v377h-646v-377z" />
    <glyph glyph-name="A.alt.smcp" horiz-adv-x="1138" 
d="M1032 623v-623h-258v252h-412v-252h-256v623q0 184 132 292q133 109 331 109q204 0 334 -109q129 -108 129 -292zM362 604v-139h412v139q0 89 -55.5 139t-149.5 50t-150.5 -51t-56.5 -138z" />
    <glyph glyph-name="A.smcp" horiz-adv-x="1134" 
d="M1116 0h-270l-68 178h-424l-65 -178h-273l402 1006h297zM707 381l-140 371l-139 -371h279z" />
    <glyph glyph-name="A.swsh" horiz-adv-x="1744" 
d="M1450 0l-102 266h-631l-101 -266h-288l460 1139h-88q-450 0 -450 -363q0 -19 4 -59l-217 51q-4 62 -4 80q0 230 160 369q163 141 452 141h541l540 -1350q69 -159 144 -266t163 -168.5t182.5 -88t217.5 -28.5l-43 -221h-16q-121 0 -219.5 19t-200 70t-186 135.5
t-166.5 220t-152 319.5zM1270 481l-238 594l-239 -594h477z" />
    <glyph glyph-name="AE.smcp" horiz-adv-x="1544" 
d="M958 213h519v-213h-775v178h-364l-105 -178h-262l594 1006h903v-213h-510v-181h451v-202h-451v-197zM702 381v426l-249 -426h249z" />
    <glyph glyph-name="AEacute.smcp" horiz-adv-x="1544" 
d="M958 213h519v-213h-775v178h-364l-105 -178h-262l594 1006h903v-213h-510v-181h451v-202h-451v-197zM702 381v426l-249 -426h249zM1042 1458h291l-231 -334h-217z" />
    <glyph glyph-name="Aacute.alt" horiz-adv-x="1452" 
d="M403 608h646v195q0 159 -81.5 243t-238.5 84q-163 0 -244.5 -84t-81.5 -245v-193zM403 0h-270v829q0 256 153.5 401.5t442.5 145.5q279 0 434 -149q156 -150 156 -398v-829h-270v377h-646v-377zM778 1806h293l-233 -333h-215z" />
    <glyph glyph-name="Aacute.alt.smcp" horiz-adv-x="1138" 
d="M1032 623v-623h-258v252h-412v-252h-256v623q0 184 132 292q133 109 331 109q204 0 334 -109q129 -108 129 -292zM362 604v-139h412v139q0 89 -55.5 139t-149.5 50t-150.5 -51t-56.5 -138zM623 1458h292l-233 -334h-215z" />
    <glyph glyph-name="Aacute.smcp" horiz-adv-x="1134" 
d="M629 1458h291l-234 -334h-215zM1116 0h-270l-68 178h-424l-65 -178h-273l402 1006h297zM707 381l-140 371l-139 -371h279z" />
    <glyph glyph-name="Aacute.swsh" horiz-adv-x="1744" 
d="M1450 0l-102 266h-631l-101 -266h-288l460 1139h-88q-450 0 -450 -363q0 -19 4 -59l-217 51q-4 62 -4 80q0 230 160 369q163 141 452 141h541l540 -1350q69 -159 144 -266t163 -168.5t182.5 -88t217.5 -28.5l-43 -221h-16q-121 0 -219.5 19t-200 70t-186 135.5
t-166.5 220t-152 319.5zM1270 481l-238 594l-239 -594h477zM1090 1806h292l-233 -333h-215z" />
    <glyph glyph-name="Abreve.alt" horiz-adv-x="1452" 
d="M403 0h-270v829q0 256 153.5 401.5t442.5 145.5q279 0 434 -149q156 -150 156 -398v-829h-270v377h-646v-377zM403 608h646v195q0 159 -81.5 243t-238.5 84q-163 0 -244.5 -84t-81.5 -245v-193zM428 1782h184q6 -60 37 -95.5t78 -35.5q51 0 83.5 35.5t33.5 95.5h184
q-6 -139 -88 -220t-213 -81q-130 0 -211.5 81t-87.5 220z" />
    <glyph glyph-name="Abreve.alt.smcp" horiz-adv-x="1138" 
d="M1032 623v-623h-258v252h-412v-252h-256v623q0 184 132 292q133 109 331 109q204 0 334 -109q129 -108 129 -292zM362 604v-139h412v139q0 89 -55.5 139t-149.5 50t-150.5 -51t-56.5 -138zM268 1432h187q5 -58 35 -93.5t79 -35.5q51 0 82.5 34.5t32.5 94.5h186
q-7 -139 -89 -220.5t-212 -81.5q-129 0 -211 82.5t-90 219.5z" />
    <glyph glyph-name="Abreve.smcp" horiz-adv-x="1134" 
d="M1116 0h-270l-68 178h-424l-65 -178h-273l402 1006h297zM266 1432h187q5 -58 35 -93.5t79 -35.5q51 0 82.5 34.5t32.5 94.5h186q-6 -137 -88.5 -219.5t-212.5 -82.5t-212 81.5t-89 220.5zM707 381l-140 371l-139 -371h279z" />
    <glyph glyph-name="Abreve.swsh" horiz-adv-x="1744" 
d="M1450 0l-102 266h-631l-101 -266h-288l460 1139h-88q-450 0 -450 -363q0 -19 4 -59l-217 51q-4 62 -4 80q0 230 160 369q163 141 452 141h541l540 -1350q69 -159 144 -266t163 -168.5t182.5 -88t217.5 -28.5l-43 -221h-16q-121 0 -219.5 19t-200 70t-186 135.5
t-166.5 220t-152 319.5zM1270 481l-238 594l-239 -594h477zM729 1782h186q5 -60 35.5 -95.5t79.5 -35.5q51 0 82.5 35.5t32.5 95.5h186q-7 -139 -89 -220t-212 -81t-212 81t-89 220z" />
    <glyph glyph-name="Acircumflex.alt" horiz-adv-x="1452" 
d="M403 0h-270v829q0 256 153.5 401.5t442.5 145.5q279 0 434 -149q156 -150 156 -398v-829h-270v377h-646v-377zM403 608h646v195q0 159 -81.5 243t-238.5 84q-163 0 -244.5 -84t-81.5 -245v-193zM788 1841l287 -371h-227l-127 179l-129 -179h-225l286 371h135z" />
    <glyph glyph-name="Acircumflex.alt.smcp" horiz-adv-x="1138" 
d="M1032 623v-623h-258v252h-412v-252h-256v623q0 184 132 292q133 109 331 109q204 0 334 -109q129 -108 129 -292zM362 604v-139h412v139q0 89 -55.5 139t-149.5 50t-150.5 -51t-56.5 -138zM641 1481l287 -371h-226l-129 178l-127 -178h-227l287 371h135z" />
    <glyph glyph-name="Acircumflex.smcp" horiz-adv-x="1134" 
d="M1116 0h-270l-68 178h-424l-65 -178h-273l402 1006h297zM635 1481l287 -371h-228l-129 178l-127 -178h-225l287 371h135zM707 381l-140 371l-139 -371h279z" />
    <glyph glyph-name="Acircumflex.swsh" horiz-adv-x="1744" 
d="M1450 0l-102 266h-631l-101 -266h-288l460 1139h-88q-450 0 -450 -363q0 -19 4 -59l-217 51q-4 62 -4 80q0 230 160 369q163 141 452 141h541l540 -1350q69 -159 144 -266t163 -168.5t182.5 -88t217.5 -28.5l-43 -221h-16q-121 0 -219.5 19t-200 70t-186 135.5
t-166.5 220t-152 319.5zM1270 481l-238 594l-239 -594h477zM1100 1841l286 -371h-225l-129 179l-127 -179h-227l287 371h135z" />
    <glyph glyph-name="Adieresis.alt" horiz-adv-x="1452" 
d="M403 608h646v195q0 159 -81.5 243t-238.5 84q-163 0 -244.5 -84t-81.5 -245v-193zM403 0h-270v829q0 256 153.5 401.5t442.5 145.5q279 0 434 -149q156 -150 156 -398v-829h-270v377h-646v-377zM537 1493q-60 0 -98 36.5t-38 96.5q0 61 38 99t98 38q62 0 100.5 -38
t38.5 -99q0 -60 -38.5 -96.5t-100.5 -36.5zM903 1493q-61 0 -98 36.5t-37 96.5q0 62 37 99.5t98 37.5q60 0 98.5 -38t38.5 -99q0 -60 -38.5 -96.5t-98.5 -36.5z" />
    <glyph glyph-name="Adieresis.alt.smcp" horiz-adv-x="1138" 
d="M1032 623v-623h-258v252h-412v-252h-256v623q0 184 132 292q133 109 331 109q204 0 334 -109q129 -108 129 -292zM362 604v-139h412v139q0 89 -55.5 139t-149.5 50t-150.5 -51t-56.5 -138zM385 1153q-60 0 -97.5 38t-37.5 99q0 59 37 96q37 38 98 39t98 -36
q39 -36 39 -99q0 -62 -38 -99.5t-99 -37.5zM750 1153q-60 0 -98 38t-38 99q0 60 38 97.5t98 37.5q62 0 99.5 -37t37.5 -98q0 -62 -37.5 -99.5t-99.5 -37.5z" />
    <glyph glyph-name="Adieresis.smcp" horiz-adv-x="1134" 
d="M383 1155q-61 0 -98 37.5t-37 97.5q0 62 37 99.5t98 37.5q60 0 98.5 -38t38.5 -99q0 -60 -38.5 -97.5t-98.5 -37.5zM748 1155q-61 0 -98.5 37.5t-37.5 97.5q0 62 37.5 99.5t98.5 37.5q62 0 99.5 -37.5t37.5 -99.5q0 -60 -38 -97.5t-99 -37.5zM1116 0h-270l-68 178h-424
l-65 -178h-273l402 1006h297zM707 381l-140 371l-139 -371h279z" />
    <glyph glyph-name="Adieresis.swsh" horiz-adv-x="1744" 
d="M1450 0l-102 266h-631l-101 -266h-288l460 1139h-88q-450 0 -450 -363q0 -19 4 -59l-217 51q-4 62 -4 80q0 230 160 369q163 141 452 141h541l540 -1350q69 -159 144 -266t163 -168.5t182.5 -88t217.5 -28.5l-43 -221h-16q-121 0 -219.5 19t-200 70t-186 135.5
t-166.5 220t-152 319.5zM1270 481l-238 594l-239 -594h477zM844 1493q-62 0 -99.5 36.5t-37.5 96.5q0 61 37.5 99t97.5 38q62 0 100.5 -38t38.5 -99q0 -60 -38.5 -96.5t-98.5 -36.5zM1208 1493q-60 0 -98.5 36.5t-38.5 96.5q0 61 38.5 99t98.5 38q62 0 100 -38t38 -99
q0 -60 -38 -96.5t-100 -36.5z" />
    <glyph glyph-name="Adotbelow.alt" horiz-adv-x="1452" 
d="M403 608h646v195q0 159 -81.5 243t-238.5 84q-163 0 -244.5 -84t-81.5 -245v-193zM403 0h-270v829q0 256 153.5 401.5t442.5 145.5q279 0 434 -149q156 -150 156 -398v-829h-270v377h-646v-377zM723 -430q-63 0 -105.5 41.5t-42.5 103.5q0 65 42.5 107.5t105.5 42.5
t106 -43.5t43 -106.5q0 -61 -43.5 -103t-105.5 -42z" />
    <glyph glyph-name="Adotbelow.alt.smcp" horiz-adv-x="1138" 
d="M1032 623v-623h-258v252h-412v-252h-256v623q0 184 132 292q133 109 331 109q204 0 334 -109q129 -108 129 -292zM362 604v-139h412v139q0 89 -55.5 139t-149.5 50t-150.5 -51t-56.5 -138zM571 -430q-63 0 -105 41.5t-42 103.5q0 65 42.5 107.5t104.5 42.5
q63 0 106.5 -43.5t43.5 -106.5q0 -61 -44 -103t-106 -42z" />
    <glyph glyph-name="Adotbelow.smcp" horiz-adv-x="1134" 
d="M567 -430q-63 0 -105 41.5t-42 103.5q0 66 42 108t105 42t106.5 -43.5t43.5 -106.5q0 -61 -44 -103t-106 -42zM1116 0h-270l-68 178h-424l-65 -178h-273l402 1006h297zM707 381l-140 371l-139 -371h279z" />
    <glyph glyph-name="Adotbelow.swsh" horiz-adv-x="1744" 
d="M1450 0l-102 266h-631l-101 -266h-288l460 1139h-88q-450 0 -450 -363q0 -19 4 -59l-217 51q-4 62 -4 80q0 230 160 369q163 141 452 141h541l540 -1350q69 -159 144 -266t163 -168.5t182.5 -88t217.5 -28.5l-43 -221h-16q-121 0 -219.5 19t-200 70t-186 135.5
t-166.5 220t-152 319.5zM1270 481l-238 594l-239 -594h477zM1028 -430q-62 0 -103.5 42t-41.5 103q0 65 41.5 107.5t103.5 42.5q66 0 109 -43.5t43 -106.5q0 -61 -44.5 -103t-107.5 -42z" />
    <glyph glyph-name="Agrave.alt" horiz-adv-x="1452" 
d="M403 608h646v195q0 159 -81.5 243t-238.5 84q-163 0 -244.5 -84t-81.5 -245v-193zM403 0h-270v829q0 256 153.5 401.5t442.5 145.5q279 0 434 -149q156 -150 156 -398v-829h-270v377h-646v-377zM854 1473h-215l-233 333h290z" />
    <glyph glyph-name="Agrave.alt.smcp" horiz-adv-x="1138" 
d="M1032 623v-623h-258v252h-412v-252h-256v623q0 184 132 292q133 109 331 109q204 0 334 -109q129 -108 129 -292zM362 604v-139h412v139q0 89 -55.5 139t-149.5 50t-150.5 -51t-56.5 -138zM686 1124h-217l-231 334h290z" />
    <glyph glyph-name="Agrave.smcp" horiz-adv-x="1134" 
d="M672 1124h-215l-234 334h291zM1116 0h-270l-68 178h-424l-65 -178h-273l402 1006h297zM707 381l-140 371l-139 -371h279z" />
    <glyph glyph-name="Agrave.swsh" horiz-adv-x="1744" 
d="M1450 0l-102 266h-631l-101 -266h-288l460 1139h-88q-450 0 -450 -363q0 -19 4 -59l-217 51q-4 62 -4 80q0 230 160 369q163 141 452 141h541l540 -1350q69 -159 144 -266t163 -168.5t182.5 -88t217.5 -28.5l-43 -221h-16q-121 0 -219.5 19t-200 70t-186 135.5
t-166.5 220t-152 319.5zM1270 481l-238 594l-239 -594h477zM1143 1473h-217l-234 333h293z" />
    <glyph glyph-name="Amacron.alt" horiz-adv-x="1452" 
d="M403 608h646v195q0 159 -81.5 243t-238.5 84q-163 0 -244.5 -84t-81.5 -245v-193zM403 0h-270v829q0 256 153.5 401.5t442.5 145.5q279 0 434 -149q156 -150 156 -398v-829h-270v377h-646v-377zM426 1690h592v-174h-592v174z" />
    <glyph glyph-name="Amacron.alt.smcp" horiz-adv-x="1138" 
d="M1032 623v-623h-258v252h-412v-252h-256v623q0 184 132 292q133 109 331 109q204 0 334 -109q129 -108 129 -292zM362 604v-139h412v139q0 89 -55.5 139t-149.5 50t-150.5 -51t-56.5 -138zM274 1354h592v-174h-592v174z" />
    <glyph glyph-name="Amacron.smcp" horiz-adv-x="1134" 
d="M272 1356h590v-174h-590v174zM1116 0h-270l-68 178h-424l-65 -178h-273l402 1006h297zM707 381l-140 371l-139 -371h279z" />
    <glyph glyph-name="Amacron.swsh" horiz-adv-x="1744" 
d="M1450 0l-102 266h-631l-101 -266h-288l460 1139h-88q-450 0 -450 -363q0 -19 4 -59l-217 51q-4 62 -4 80q0 230 160 369q163 141 452 141h541l540 -1350q69 -159 144 -266t163 -168.5t182.5 -88t217.5 -28.5l-43 -221h-16q-121 0 -219.5 19t-200 70t-186 135.5
t-166.5 220t-152 319.5zM1270 481l-238 594l-239 -594h477zM731 1690h592v-174h-592v174z" />
    <glyph glyph-name="Aogonek.alt" horiz-adv-x="1452" 
d="M403 0h-270v829q0 256 153.5 401.5t442.5 145.5q279 0 434 -149q156 -150 156 -398v-829h-74q-192 -122 -192 -207q0 -35 26 -56.5t70 -21.5q55 0 111 29l55 -160q-80 -51 -205 -51q-115 0 -182.5 54.5t-67.5 146.5q0 145 189 266v377h-646v-377zM403 608h646v195
q0 159 -81.5 243t-238.5 84q-163 0 -244.5 -84t-81.5 -245v-193z" />
    <glyph glyph-name="Aogonek.alt.smcp" horiz-adv-x="1138" 
d="M1032 623v-623h-61q-195 -121 -195 -207q0 -35 26.5 -56.5t69.5 -21.5q55 0 111 29l55 -160q-80 -51 -202 -51q-115 0 -182.5 54.5t-67.5 146.5q0 146 188 266v252h-412v-252h-256v623q0 184 132 292q133 109 331 109q204 0 334 -109q129 -108 129 -292zM362 604v-139
h412v139q0 89 -55.5 139t-149.5 50t-150.5 -51t-56.5 -138z" />
    <glyph glyph-name="Aogonek.smcp" horiz-adv-x="1134" 
d="M846 0l-68 178h-424l-65 -178h-273l402 1006h297l401 -1006h-74q-192 -122 -192 -207q0 -36 25 -57t69 -21q53 0 113 29l53 -160q-80 -51 -203 -51q-116 0 -183 54t-67 147q0 145 189 266zM707 381l-140 371l-139 -371h279z" />
    <glyph glyph-name="Aring.alt" horiz-adv-x="1452" 
d="M403 608h646v195q0 159 -81.5 243t-238.5 84q-163 0 -244.5 -84t-81.5 -245v-193zM403 0h-270v829q0 256 153.5 401.5t442.5 145.5q279 0 434 -149q156 -150 156 -398v-829h-270v377h-646v-377zM506 1692q0 92 60 150.5t153 58.5q94 0 155.5 -58.5t61.5 -150.5
q0 -90 -61.5 -148.5t-155.5 -58.5q-93 0 -153 58.5t-60 148.5zM645 1692q-5 -43 35 -61t79.5 0t33.5 61q6 46 -33.5 65.5t-79.5 0t-35 -65.5z" />
    <glyph glyph-name="Aring.alt.smcp" horiz-adv-x="1138" 
d="M1032 623v-623h-258v252h-412v-252h-256v623q0 184 132 292q133 109 331 109q204 0 334 -109q129 -108 129 -292zM362 604v-139h412v139q0 89 -55.5 139t-149.5 50t-150.5 -51t-56.5 -138zM352 1319q0 92 59.5 150.5t155.5 58.5q93 0 153 -59t60 -150t-59.5 -149
t-153.5 -58q-96 0 -155.5 58t-59.5 149zM494 1319q0 -32 20.5 -53t52.5 -21q31 0 51.5 21t20.5 53t-20.5 54t-51.5 22q-32 0 -52.5 -21.5t-20.5 -54.5z" />
    <glyph glyph-name="Aring.smcp" horiz-adv-x="1134" 
d="M352 1319q0 91 60 150t153 59q94 0 154.5 -59t60.5 -150t-60.5 -149t-154.5 -58t-153.5 58t-59.5 149zM492 1317q-4 -43 35 -61t77.5 0t34.5 61q4 47 -34.5 66.5t-77.5 0t-35 -66.5zM1116 0h-270l-68 178h-424l-65 -178h-273l402 1006h297zM707 381l-140 371l-139 -371
h279z" />
    <glyph glyph-name="Aring.swsh" horiz-adv-x="1744" 
d="M1450 0l-102 266h-631l-101 -266h-288l460 1139h-88q-450 0 -450 -363q0 -19 4 -59l-217 51q-4 62 -4 80q0 230 160 369q163 141 452 141h541l540 -1350q69 -159 144 -266t163 -168.5t182.5 -88t217.5 -28.5l-43 -221h-16q-121 0 -219.5 19t-200 70t-186 135.5
t-166.5 220t-152 319.5zM813 1692q0 92 60.5 150.5t154.5 58.5t154.5 -58.5t60.5 -150.5q0 -91 -60.5 -149t-154.5 -58t-154.5 58t-60.5 149zM1270 481l-238 594l-239 -594h477zM954 1692q0 -31 21 -51.5t53 -20.5t53 20.5t21 51.5q0 32 -21 53.5t-53 21.5t-53 -21.5
t-21 -53.5z" />
    <glyph glyph-name="Aringacute.alt" horiz-adv-x="1452" 
d="M403 608h646v195q0 159 -81.5 243t-238.5 84q-163 0 -244.5 -84t-81.5 -245v-193zM403 0h-270v829q0 256 153.5 401.5t442.5 145.5q279 0 434 -149q156 -150 156 -398v-829h-270v377h-646v-377zM793 2294h290l-231 -334h-217zM508 1692q0 92 60 150.5t153 58.5
q94 0 155.5 -58.5t61.5 -150.5q0 -90 -61.5 -148.5t-155.5 -58.5q-93 0 -153 58.5t-60 148.5zM647 1692q-5 -43 35 -61t79.5 0t33.5 61q6 46 -33.5 65.5t-79.5 0t-35 -65.5z" />
    <glyph glyph-name="Aringacute.alt.smcp" horiz-adv-x="1138" 
d="M1032 623v-623h-258v252h-412v-252h-256v623q0 184 132 292q133 109 331 109q204 0 334 -109q129 -108 129 -292zM362 604v-139h412v139q0 89 -55.5 139t-149.5 50t-150.5 -51t-56.5 -138zM352 1319q0 91 60 150t153 59q94 0 154.5 -59t60.5 -150t-60.5 -149t-154.5 -58
t-153.5 58t-59.5 149zM621 1919h290l-231 -334h-217zM492 1319q0 -34 23 -53.5t50.5 -19.5t50.5 19.5t23 53.5q0 46 -36.5 65t-73.5 0t-37 -65z" />
    <glyph glyph-name="Aringacute.smcp" horiz-adv-x="1134" 
d="M352 1319q0 92 59.5 150.5t155.5 58.5q93 0 153 -59t60 -150t-59.5 -149t-153.5 -58q-96 0 -155.5 58t-59.5 149zM494 1319q0 -32 20.5 -53t52.5 -21q31 0 51.5 21t20.5 53t-20.5 54t-51.5 22q-32 0 -52.5 -21.5t-20.5 -54.5zM614 1919h293l-233 -334h-215zM1116 0h-270
l-68 178h-424l-65 -178h-273l402 1006h297zM707 381l-140 371l-139 -371h279z" />
    <glyph glyph-name="Aringacute.swsh" horiz-adv-x="1744" 
d="M1450 0l-102 266h-631l-101 -266h-288l460 1139h-88q-450 0 -450 -363q0 -19 4 -59l-217 51q-4 62 -4 80q0 230 160 369q163 141 452 141h541l540 -1350q69 -159 144 -266t163 -168.5t182.5 -88t217.5 -28.5l-43 -221h-16q-121 0 -219.5 19t-200 70t-186 135.5
t-166.5 220t-152 319.5zM809 1692q0 92 59.5 150.5t153.5 58.5t154.5 -58.5t60.5 -150.5q0 -91 -60.5 -149t-154.5 -58t-153.5 58t-59.5 149zM1270 481l-238 594l-239 -594h477zM1092 2294h292l-233 -334h-215zM948 1692q-4 -43 35 -61t78 0t35 61q0 46 -37 65t-74 0
t-37 -65z" />
    <glyph glyph-name="Atilde.alt" horiz-adv-x="1452" 
d="M403 608h646v195q0 159 -81.5 243t-238.5 84q-163 0 -244.5 -84t-81.5 -245v-193zM403 0h-270v829q0 256 153.5 401.5t442.5 145.5q279 0 434 -149q156 -150 156 -398v-829h-270v377h-646v-377zM485 1505l-108 97q102 184 237 184q43 0 132.5 -45t115.5 -45q36 0 64 19.5
t59 64.5l107 -99q-54 -93 -113 -135.5t-133 -42.5q-47 0 -117 37q-69 38 -92 41q-29 8 -55 4q-41 -6 -97 -80z" />
    <glyph glyph-name="Atilde.alt.smcp" horiz-adv-x="1138" 
d="M1032 623v-623h-258v252h-412v-252h-256v623q0 184 132 292q133 109 331 109q204 0 334 -109q129 -108 129 -292zM362 604v-139h412v139q0 89 -55.5 139t-149.5 50t-150.5 -51t-56.5 -138zM319 1157l-108 96q103 183 238 183q44 0 132 -44t115 -44q36 0 64 19.5t59 64.5
l105 -101q-98 -178 -244 -178q-49 0 -119 37q-66 40 -92 43q-37 6 -53 4q-41 -9 -97 -80z" />
    <glyph glyph-name="Atilde.smcp" horiz-adv-x="1134" 
d="M317 1157l-108 96q103 183 237 183q43 0 132.5 -44t115.5 -44q36 0 64 19.5t59 64.5l107 -101q-54 -92 -113.5 -135t-132.5 -43q-47 0 -117 37q-66 40 -92 43q-37 7 -55 4q-41 -9 -97 -80zM1116 0h-270l-68 178h-424l-65 -178h-273l402 1006h297zM707 381l-140 371
l-139 -371h279z" />
    <glyph glyph-name="Atilde.swsh" horiz-adv-x="1744" 
d="M1450 0l-102 266h-631l-101 -266h-288l460 1139h-88q-450 0 -450 -363q0 -19 4 -59l-217 51q-4 62 -4 80q0 230 160 369q163 141 452 141h541l540 -1350q69 -159 144 -266t163 -168.5t182.5 -88t217.5 -28.5l-43 -221h-16q-121 0 -219.5 19t-200 70t-186 135.5
t-166.5 220t-152 319.5zM1270 481l-238 594l-239 -594h477zM778 1505l-108 97q102 184 237 184q44 0 132.5 -45t115.5 -45q36 0 64 19.5t59 64.5l104 -99q-54 -94 -111.5 -136t-131.5 -42q-49 0 -119 37q-69 38 -92 41q-29 8 -54 4q-40 -6 -96 -80z" />
    <glyph glyph-name="B.smcp" horiz-adv-x="1042" 
d="M666 0h-551v1006h499q137 0 226.5 -75.5t89.5 -197.5q0 -141 -123 -215q85 -29 129.5 -92t44.5 -147q0 -124 -87.5 -201.5t-227.5 -77.5zM362 801v-197h209q49 0 77 26.5t28 71.5q0 99 -131 99h-183zM362 412v-207h252q49 0 80 28.5t31 71.5q0 49 -30 78t-81 29h-252z
" />
    <glyph glyph-name="B.swsh" horiz-adv-x="1878" 
d="M1382 0h-702v1139q-78 -4 -139 -15t-119 -36.5t-96 -64t-61 -99.5t-23 -142q0 -25 4 -65l-217 51q-6 46 -6 92q0 106 35 190t94.5 140t144.5 94t179.5 55t203.5 19h633q184 0 301 -105q119 -101 119 -266q0 -186 -162 -287q114 -42 173.5 -126.5t59.5 -196.5
q0 -166 -116 -273q-116 -104 -306 -104zM950 1126v-338h328q81 0 128.5 46t47.5 122q0 77 -51.5 123.5t-134.5 46.5h-318zM950 575v-344h387q80 0 130.5 46.5t50.5 119.5q0 80 -49.5 129t-131.5 49h-387z" />
    <glyph glyph-name="C.smcp" horiz-adv-x="1044" 
d="M958 281l37 -222q-152 -79 -354 -79q-258 0 -418 145t-160 379q0 231 164 375q165 145 428 145q185 0 322 -61l-21 -226q-118 56 -288 56q-155 0 -250.5 -80t-95.5 -209t95.5 -210t250.5 -81q163 0 290 68z" />
    <glyph glyph-name="Cacute.smcp" horiz-adv-x="1044" 
d="M672 1458h291l-234 -334h-215zM958 281l37 -222q-152 -79 -354 -79q-258 0 -418 145t-160 379q0 231 164 375q165 145 428 145q185 0 322 -61l-21 -226q-118 56 -288 56q-155 0 -250.5 -80t-95.5 -209t95.5 -210t250.5 -81q163 0 290 68z" />
    <glyph glyph-name="Ccaron.smcp" horiz-adv-x="1044" 
d="M283 1485h227l127 -178l129 178h225l-286 -371h-136zM958 281l37 -222q-152 -79 -354 -79q-258 0 -418 145t-160 379q0 231 164 375q165 145 428 145q185 0 322 -61l-21 -226q-118 56 -288 56q-155 0 -250.5 -80t-95.5 -209t95.5 -210t250.5 -81q163 0 290 68z" />
    <glyph glyph-name="Ccedilla.smcp" horiz-adv-x="1044" 
d="M958 281l37 -222q-143 -73 -323 -79l-21 -66q102 -12 156.5 -60t54.5 -122q0 -91 -82 -145t-217 -54q-95 0 -153 27v141q58 -18 131 -18q118 0 118 65q0 32 -33 50t-94 18h-71l67 172q-210 30 -338 170q-127 142 -127 346q0 231 164 375q165 145 428 145q185 0 322 -61
l-21 -226q-118 56 -288 56q-155 0 -250.5 -80t-95.5 -209t95.5 -210t250.5 -81q163 0 290 68z" />
    <glyph glyph-name="Ccircumflex.smcp" horiz-adv-x="1044" 
d="M958 281l37 -222q-152 -79 -354 -79q-258 0 -418 145t-160 379q0 231 164 375q165 145 428 145q185 0 322 -61l-21 -226q-118 56 -288 56q-155 0 -250.5 -80t-95.5 -209t95.5 -210t250.5 -81q163 0 290 68zM698 1481l287 -371h-225l-127 178l-129 -178h-228l287 371h135z
" />
    <glyph glyph-name="Cdotaccent.smcp" horiz-adv-x="1044" 
d="M639 1440q67 0 108 -41t41 -109q0 -64 -43 -104q-41 -41 -105 -41t-105 41t-41 104q0 66 41 108t104 42zM958 281l37 -222q-152 -79 -354 -79q-258 0 -418 145t-160 379q0 231 164 375q165 145 428 145q185 0 322 -61l-21 -226q-118 56 -288 56q-155 0 -250.5 -80
t-95.5 -209t95.5 -210t250.5 -81q163 0 290 68z" />
    <glyph glyph-name="D.smcp" horiz-adv-x="1157" 
d="M115 0v1006h454q245 0 384 -134t139 -368q0 -235 -139 -369.5t-384 -134.5h-454zM371 793v-580h178q140 0 213.5 75.5t73.5 215.5q0 138 -73.5 213.5t-213.5 75.5h-178z" />
    <glyph glyph-name="D.swsh" horiz-adv-x="2029" 
d="M639 1358h627q324 0 503 -182q181 -181 181 -496q0 -317 -183 -500q-180 -180 -501 -180h-586v1139q-95 0 -172 -20t-138 -61t-94.5 -112.5t-33.5 -167.5q0 -25 2 -45v-16l-215 51q-6 46 -6 80q0 233 161 369q164 141 455 141zM948 233h287q438 0 438 447q0 444 -438 444
h-287v-891z" />
    <glyph glyph-name="Dcaron.smcp" horiz-adv-x="1157" 
d="M176 1485h227l127 -178l129 178h228l-289 -371h-133zM115 0v1006h454q245 0 384 -134t139 -368q0 -235 -139 -369.5t-384 -134.5h-454zM371 793v-580h178q140 0 213.5 75.5t73.5 215.5q0 138 -73.5 213.5t-213.5 75.5h-178z" />
    <glyph glyph-name="Dcaron.swsh" horiz-adv-x="2029" 
d="M885 1851h225l127 -178l129 178h227l-286 -370h-136zM639 1358h627q324 0 503 -182q181 -181 181 -496q0 -317 -183 -500q-180 -180 -501 -180h-586v1139q-95 0 -172 -20t-138 -61t-94.5 -112.5t-33.5 -167.5q0 -25 2 -45v-16l-215 51q-6 46 -6 80q0 233 161 369
q164 141 455 141zM948 233h287q438 0 438 447q0 444 -438 444h-287v-891z" />
    <glyph glyph-name="Dcroat.smcp" horiz-adv-x="1157" 
d="M115 592v414h454q247 0 386 -134t139 -368q0 -235 -139.5 -369.5t-385.5 -134.5h-454v434h-115v158h115zM371 434v-221h180q139 0 212 75.5t73 215.5q0 138 -73.5 213.5t-211.5 75.5h-180v-201h245v-158h-245z" />
    <glyph glyph-name="Dcroat.swsh" horiz-adv-x="2029" 
d="M639 1358h627q324 0 503 -182q181 -181 181 -496q0 -317 -183 -500q-180 -180 -501 -180h-586v592h-150v209h150v338q-95 0 -172 -20t-138 -61t-94.5 -112.5t-33.5 -167.5q0 -25 2 -45v-16l-215 51q-6 46 -6 80q0 233 161 369q164 141 455 141zM948 233h287
q438 0 438 447q0 444 -438 444h-287v-323h389v-209h-389v-359z" />
    <glyph glyph-name="E.smcp" horiz-adv-x="966" 
d="M371 213h526v-213h-782v1006h776v-213h-520v-181h460v-202h-460v-197z" />
    <glyph glyph-name="E.swsh" horiz-adv-x="1773" 
d="M948 233h752v-233h-1022v1139q-78 -4 -139.5 -15t-119 -36.5t-95 -64t-60 -99.5t-22.5 -142q0 -25 4 -65l-217 51q-6 46 -6 92q0 130 52.5 228t144.5 156t207 86t251 28h1005v-234h-735v-313h643v-233h-643v-345z" />
    <glyph glyph-name="Eacute.smcp" horiz-adv-x="966" 
d="M553 1458h291l-234 -334h-215zM371 213h526v-213h-782v1006h776v-213h-520v-181h460v-202h-460v-197z" />
    <glyph glyph-name="Ebreve.smcp" horiz-adv-x="966" 
d="M371 213h526v-213h-782v1006h776v-213h-520v-181h460v-202h-460v-197zM211 1432h184q6 -61 37 -96.5t80 -35.5q50 0 82 36t33 96h184q-6 -139 -87.5 -220.5t-211.5 -81.5q-129 0 -212 83t-89 219z" />
    <glyph glyph-name="Ecaron.smcp" horiz-adv-x="966" 
d="M156 1485h225l129 -178l127 178h227l-286 -371h-136zM371 213h526v-213h-782v1006h776v-213h-520v-181h460v-202h-460v-197z" />
    <glyph glyph-name="Ecircumflex.smcp" horiz-adv-x="966" 
d="M371 213h526v-213h-782v1006h776v-213h-520v-181h460v-202h-460v-197zM578 1481l286 -371h-225l-129 178l-127 -178h-227l286 371h136z" />
    <glyph glyph-name="Edieresis.smcp" horiz-adv-x="966" 
d="M330 1153q-61 0 -98 37.5t-37 99.5q0 60 37 97.5t98 37.5t99 -37t38 -98t-38.5 -99t-98.5 -38zM694 1153q-60 0 -97.5 38t-37.5 99q0 60 37.5 97.5t97.5 37.5q61 0 99 -37.5t38 -97.5t-38 -98.5t-99 -38.5zM371 213h526v-213h-782v1006h776v-213h-520v-181h460v-202h-460
v-197z" />
    <glyph glyph-name="Edotaccent.smcp" horiz-adv-x="966" 
d="M618 1186q-43 -41 -107 -41t-105 41t-41 105.5t41 105.5t105 41t105 -41q43 -41 43 -105.5t-41 -105.5zM371 213h526v-213h-782v1006h776v-213h-520v-181h460v-202h-460v-197z" />
    <glyph glyph-name="Edotbelow.smcp" horiz-adv-x="966" 
d="M512 -430q-62 0 -104.5 42t-42.5 103q0 65 42.5 107.5t104.5 42.5q63 0 106.5 -43.5t43.5 -106.5q0 -61 -43.5 -103t-106.5 -42zM371 213h526v-213h-782v1006h776v-213h-520v-181h460v-202h-460v-197z" />
    <glyph glyph-name="Egrave.smcp" horiz-adv-x="966" 
d="M647 1124h-217l-231 334h290zM371 213h526v-213h-782v1006h776v-213h-520v-181h460v-202h-460v-197z" />
    <glyph glyph-name="Emacron.smcp" horiz-adv-x="966" 
d="M209 1354h590v-174h-590v174zM371 213h526v-213h-782v1006h776v-213h-520v-181h460v-202h-460v-197z" />
    <glyph glyph-name="Eng.smcp" horiz-adv-x="1218" 
d="M1104 1006v-1096q0 -157 -81 -243.5t-220 -86.5q-93 0 -156 29l23 213q30 -12 90 -12q48 0 68 33t20 102v98l-477 559v-602h-256v1006h217l516 -603v603h256z" />
    <glyph glyph-name="Eogonek.smcp" horiz-adv-x="966" 
d="M371 213h526v-213q-192 -122 -192 -207q0 -35 26 -56.5t70 -21.5q54 0 110 29l56 -160q-80 -51 -203 -51q-117 0 -184.5 54t-67.5 147q0 146 188 266h-585v1006h776v-213h-520v-181h460v-202h-460v-197z" />
    <glyph glyph-name="Eth.smcp" horiz-adv-x="1157" 
d="M115 592v414h454q247 0 386 -134t139 -368q0 -235 -139.5 -369.5t-385.5 -134.5h-454v434h-115v158h115zM371 434v-221h180q139 0 212 75.5t73 215.5q0 138 -73.5 213.5t-211.5 75.5h-180v-201h245v-158h-245z" />
    <glyph glyph-name="Etilde.smcp" horiz-adv-x="966" 
d="M262 1157l-108 96q102 185 235 185q44 0 133.5 -45t116.5 -45q36 0 63 19t60 65l104 -101q-54 -93 -112 -135.5t-131 -42.5q-49 0 -119 37q-66 40 -92 43q-31 7 -56 4q-35 -6 -94 -80zM371 213h526v-213h-782v1006h776v-213h-520v-181h460v-202h-460v-197z" />
    <glyph glyph-name="Euro.onum" horiz-adv-x="1224" 
d="M438 479h373l-14 -114h-314q44 -72 127 -112t191 -40q168 0 299 70l39 -217q-157 -86 -367 -86q-214 0 -366.5 103t-206.5 282h-140l17 114h102q-4 36 -4 56q0 4 1 18t1 18h-115l15 111h117q50 186 208.5 295.5t384.5 109.5q193 0 332 -65l-20 -223q-119 55 -295 55
q-118 0 -204.5 -45t-129.5 -127h375l-19 -111h-391v-36q0 -28 4 -56z" />
    <glyph glyph-name="Euro.onum.tnum" 
d="M512 479h375l-17 -114h-313q48 -72 130 -112t187 -40q172 0 300 70l38 -217q-157 -86 -364 -86q-214 0 -367 103t-207 282h-139l15 114h104q-4 36 -4 56q0 4 1 18t1 18h-117l17 111h116q46 183 207 295q158 110 387 110q193 0 332 -65l-23 -223q-116 55 -294 55
q-117 0 -203 -45t-129 -127h373l-17 -111h-391v-36q0 -42 2 -56z" />
    <glyph glyph-name="Euro.tnum" 
d="M188 717h-165l8 139h178q52 242 244 381q195 139 460 139q200 0 377 -80l-26 -239q-149 67 -326 67q-159 0 -274 -70t-164 -198h497l-20 -139h-508q-3 -33 0 -47q0 -18 4 -68h490l-19 -141h-428q55 -114 166.5 -176t255.5 -62q192 0 356 92l33 -237q-189 -98 -426 -98
q-251 0 -436 129q-185 131 -248 352h-194l6 141h164q-5 45 -5 62v53z" />
    <glyph glyph-name="F.smcp" horiz-adv-x="907" 
d="M758 403h-387v-403h-256v1006h747v-213h-491v-185h387v-205z" />
    <glyph glyph-name="F.swsh" horiz-adv-x="1683" 
d="M1491 571h-547v-571h-270v1139q-77 -4 -137.5 -15.5t-117.5 -37t-94.5 -64t-60 -99.5t-22.5 -141q0 -25 4 -65l-217 51q-6 46 -6 92q0 130 52 228t143 156t205.5 86t250.5 28h966v-234h-696v-319h547v-234z" />
    <glyph glyph-name="G.alt" horiz-adv-x="1433" 
d="M1085 262v340h265v-498q-99 -57 -237 -89.5t-273 -32.5q-163 -2 -305.5 49t-244 143t-159 223.5t-55.5 284.5q0 138 41.5 253t114 196t171.5 137.5t213 83t240 26.5q225 0 432 -92l-20 -237q-197 90 -402 90q-107 0 -196.5 -26t-161 -79t-112 -143t-40.5 -209
q0 -140 65.5 -246.5t175.5 -161.5t247 -55q140 0 241 43z" />
    <glyph glyph-name="G.alt.smcp" horiz-adv-x="1140" 
d="M827 229v236h242v-383q-175 -102 -410 -102q-267 0 -432 145q-164 144 -164 379q0 232 168 375q171 145 441 145q202 0 348 -70l-21 -219q-139 62 -305 62t-269 -81t-103 -212q0 -133 92.5 -215t242.5 -82q102 0 170 22z" />
    <glyph glyph-name="G.smcp" horiz-adv-x="1146" 
d="M827 229v158h-241v197h483v-502q-175 -102 -410 -102q-267 0 -432 145q-164 144 -164 379q0 232 168 375q171 145 441 145q202 0 348 -70l-21 -219q-139 62 -305 62t-269 -81t-103 -212q0 -133 92.5 -215t242.5 -82q102 0 170 22z" />
    <glyph glyph-name="Gbreve.alt" horiz-adv-x="1433" 
d="M518 1782h187q5 -61 35 -96t79 -35q51 0 81.5 35t35.5 96h184q-6 -139 -88 -220t-213 -81q-130 0 -212 81t-89 220zM1085 262v340h265v-498q-99 -57 -237 -89.5t-273 -32.5q-163 -2 -305.5 49t-244 143t-159 223.5t-55.5 284.5q0 138 41.5 253t114 196t171.5 137.5
t213 83t240 26.5q225 0 432 -92l-20 -237q-197 90 -402 90q-107 0 -196.5 -26t-161 -79t-112 -143t-40.5 -209q0 -140 65.5 -246.5t175.5 -161.5t247 -55q140 0 241 43z" />
    <glyph glyph-name="Gbreve.alt.smcp" horiz-adv-x="1140" 
d="M827 229v236h242v-383q-175 -102 -410 -102q-267 0 -432 145q-164 144 -164 379q0 232 168 375q171 145 441 145q202 0 348 -70l-21 -219q-139 62 -305 62t-269 -81t-103 -212q0 -133 92.5 -215t242.5 -82q102 0 170 22zM367 1432h186q5 -61 35.5 -96.5t79.5 -35.5
q51 0 81.5 36t32.5 96h187q-7 -139 -89 -220.5t-212 -81.5q-129 0 -211 82.5t-90 219.5z" />
    <glyph glyph-name="Gbreve.smcp" horiz-adv-x="1146" 
d="M827 229v158h-241v197h483v-502q-175 -102 -410 -102q-267 0 -432 145q-164 144 -164 379q0 232 168 375q171 145 441 145q202 0 348 -70l-21 -219q-139 62 -305 62t-269 -81t-103 -212q0 -133 92.5 -215t242.5 -82q102 0 170 22zM346 1432h186q5 -61 35.5 -96.5
t79.5 -35.5q51 0 82 36t33 96h184q-6 -139 -87.5 -220.5t-211.5 -81.5t-212.5 82t-88.5 220z" />
    <glyph glyph-name="Gcaron.alt" horiz-adv-x="1433" 
d="M471 1851h227l127 -178l129 178h228l-287 -370h-135zM1085 262v340h265v-498q-99 -57 -237 -89.5t-273 -32.5q-163 -2 -305.5 49t-244 143t-159 223.5t-55.5 284.5q0 138 41.5 253t114 196t171.5 137.5t213 83t240 26.5q225 0 432 -92l-20 -237q-197 90 -402 90
q-107 0 -196.5 -26t-161 -79t-112 -143t-40.5 -209q0 -140 65.5 -246.5t175.5 -161.5t247 -55q140 0 241 43z" />
    <glyph glyph-name="Gcaron.alt.smcp" horiz-adv-x="1140" 
d="M305 1485h227l130 -178l126 178h228l-289 -371h-133zM827 229v236h242v-383q-175 -102 -410 -102q-267 0 -432 145q-164 144 -164 379q0 232 168 375q171 145 441 145q202 0 348 -70l-21 -219q-139 62 -305 62t-269 -81t-103 -212q0 -133 92.5 -215t242.5 -82
q102 0 170 22z" />
    <glyph glyph-name="Gcaron.smcp" horiz-adv-x="1146" 
d="M303 1485h227l127 -178l129 178h226l-287 -371h-135zM827 229v158h-241v197h483v-502q-175 -102 -410 -102q-267 0 -432 145q-164 144 -164 379q0 232 168 375q171 145 441 145q202 0 348 -70l-21 -219q-139 62 -305 62t-269 -81t-103 -212q0 -133 92.5 -215t242.5 -82
q102 0 170 22z" />
    <glyph glyph-name="Gcircumflex.alt" horiz-adv-x="1433" 
d="M883 1841l286 -371h-227l-127 179l-129 -179h-225l287 371h135zM1085 262v340h265v-498q-99 -57 -237 -89.5t-273 -32.5q-163 -2 -305.5 49t-244 143t-159 223.5t-55.5 284.5q0 138 41.5 253t114 196t171.5 137.5t213 83t240 26.5q225 0 432 -92l-20 -237
q-197 90 -402 90q-107 0 -196.5 -26t-161 -79t-112 -143t-40.5 -209q0 -140 65.5 -246.5t175.5 -161.5t247 -55q140 0 241 43z" />
    <glyph glyph-name="Gcircumflex.alt.smcp" horiz-adv-x="1140" 
d="M827 229v236h242v-383q-175 -102 -410 -102q-267 0 -432 145q-164 144 -164 379q0 232 168 375q171 145 441 145q202 0 348 -70l-21 -219q-139 62 -305 62t-269 -81t-103 -212q0 -133 92.5 -215t242.5 -82q102 0 170 22zM721 1481l287 -371h-228l-127 178l-129 -178h-225
l287 371h135z" />
    <glyph glyph-name="Gcircumflex.smcp" horiz-adv-x="1146" 
d="M827 229v158h-241v197h483v-502q-175 -102 -410 -102q-267 0 -432 145q-164 144 -164 379q0 232 168 375q171 145 441 145q202 0 348 -70l-21 -219q-139 62 -305 62t-269 -81t-103 -212q0 -133 92.5 -215t242.5 -82q102 0 170 22zM713 1481l286 -371h-225l-129 178
l-127 -178h-227l287 371h135z" />
    <glyph glyph-name="Gcommaaccent.alt" horiz-adv-x="1433" 
d="M881 -528h-197l6 422h252zM1085 262v340h265v-498q-99 -57 -237 -89.5t-273 -32.5q-163 -2 -305.5 49t-244 143t-159 223.5t-55.5 284.5q0 138 41.5 253t114 196t171.5 137.5t213 83t240 26.5q225 0 432 -92l-20 -237q-197 90 -402 90q-107 0 -196.5 -26t-161 -79
t-112 -143t-40.5 -209q0 -140 65.5 -246.5t175.5 -161.5t247 -55q140 0 241 43z" />
    <glyph glyph-name="Gcommaaccent.alt.smcp" horiz-adv-x="1140" 
d="M717 -528h-197l6 422h252zM827 229v236h242v-383q-175 -102 -410 -102q-267 0 -432 145q-164 144 -164 379q0 232 168 375q171 145 441 145q202 0 348 -70l-21 -219q-139 62 -305 62t-269 -81t-103 -212q0 -133 92.5 -215t242.5 -82q102 0 170 22z" />
    <glyph glyph-name="Gcommaaccent.smcp" horiz-adv-x="1146" 
d="M725 -528h-197l7 422h251zM827 229v158h-241v197h483v-502q-175 -102 -410 -102q-267 0 -432 145q-164 144 -164 379q0 232 168 375q171 145 441 145q202 0 348 -70l-21 -219q-139 62 -305 62t-269 -81t-103 -212q0 -133 92.5 -215t242.5 -82q102 0 170 22z" />
    <glyph glyph-name="Gdotaccent.alt" horiz-adv-x="1433" 
d="M981 1626q0 -63 -42 -104t-108 -41q-63 0 -104 41t-41 104q0 66 41 108t104 42q66 0 108 -41.5t42 -108.5zM1085 262v340h265v-498q-99 -57 -237 -89.5t-273 -32.5q-163 -2 -305.5 49t-244 143t-159 223.5t-55.5 284.5q0 138 41.5 253t114 196t171.5 137.5t213 83
t240 26.5q225 0 432 -92l-20 -237q-197 90 -402 90q-107 0 -196.5 -26t-161 -79t-112 -143t-40.5 -209q0 -140 65.5 -246.5t175.5 -161.5t247 -55q140 0 241 43z" />
    <glyph glyph-name="Gdotaccent.alt.smcp" horiz-adv-x="1140" 
d="M664 1440q66 0 106.5 -41.5t40.5 -108.5q0 -64 -43 -104q-41 -41 -105.5 -41t-105.5 41q-32 30 -38.5 76.5t8.5 87t52 67.5t85 23zM827 229v236h242v-383q-175 -102 -410 -102q-267 0 -432 145q-164 144 -164 379q0 232 168 375q171 145 441 145q202 0 348 -70l-21 -219
q-139 62 -305 62t-269 -81t-103 -212q0 -133 92.5 -215t242.5 -82q102 0 170 22z" />
    <glyph glyph-name="Gdotaccent.smcp" horiz-adv-x="1146" 
d="M811 1290q0 -63 -41.5 -104t-107.5 -41q-63 0 -105.5 41t-42.5 104q0 66 42 108t106 42q66 0 107.5 -41.5t41.5 -108.5zM827 229v158h-241v197h483v-502q-175 -102 -410 -102q-267 0 -432 145q-164 144 -164 379q0 232 168 375q171 145 441 145q202 0 348 -70l-21 -219
q-139 62 -305 62t-269 -81t-103 -212q0 -133 92.5 -215t242.5 -82q102 0 170 22z" />
    <glyph glyph-name="H.smcp" horiz-adv-x="1175" 
d="M805 1006h256v-1006h-256v406h-434v-406h-256v1006h256v-388h434v388z" />
    <glyph glyph-name="Hbar.smcp" horiz-adv-x="1269" 
d="M852 1006h256v-113h121v-154h-121v-739h-256v406h-434v-406h-256v739h-121v154h121v113h256v-113h434v113zM418 739v-121h434v121h-434z" />
    <glyph glyph-name="Hcircumflex.smcp" horiz-adv-x="1175" 
d="M805 1006h256v-1006h-256v406h-434v-406h-256v1006h256v-388h434v388zM655 1481l287 -371h-225l-129 178l-127 -178h-228l287 371h135z" />
    <glyph glyph-name="I.alt" horiz-adv-x="1044" 
d="M74 1358h897v-238h-316v-882h316v-238h-897v238h311v882h-311v238z" />
    <glyph glyph-name="I.alt.smcp" horiz-adv-x="835" 
d="M66 1006h702v-213h-221v-580h221v-213h-702v213h225v580h-225v213z" />
    <glyph glyph-name="I.smcp" horiz-adv-x="483" 
d="M115 1006h256v-1006h-256v1006z" />
    <glyph glyph-name="IJ.smcp" horiz-adv-x="1384" 
d="M115 1006h256v-1006h-256v1006zM557 47l29 221q124 -59 268 -59q170 0 170 151v433h-348v213h602v-695q0 -85 -34.5 -150.5t-92 -104t-126.5 -57.5t-144 -19q-175 0 -324 67z" />
    <glyph glyph-name="IJacute" horiz-adv-x="1683" 
d="M145 1358h271v-1358h-271v1358zM332 1806h291l-234 -333h-215zM1255 1806h293l-233 -333h-215zM643 61l33 234q186 -76 311 -76q49 0 88 5t78 19.5t65 38t42 63t16 91.5v686h-479v236h747v-936q0 -92 -28 -167t-75 -125t-112 -84.5t-137.5 -50t-151.5 -15.5
q-219 0 -397 81z" />
    <glyph glyph-name="IJacute.smcp" horiz-adv-x="1421" 
d="M115 1006h256v-1006h-256v1006zM557 47l29 221q124 -59 268 -59q170 0 170 151v433h-348v213h602v-695q0 -85 -34.5 -150.5t-92 -104t-126.5 -57.5t-144 -19q-175 0 -324 67zM291 1458h293l-234 -334h-217zM1024 1458h293l-234 -334h-217z" />
    <glyph glyph-name="Iacute.alt" horiz-adv-x="1044" 
d="M74 1358h897v-238h-316v-882h316v-238h-897v238h311v882h-311v238zM580 1806h292l-233 -333h-215z" />
    <glyph glyph-name="Iacute.alt.smcp" horiz-adv-x="835" 
d="M469 1458h291l-234 -334h-215zM66 1006h702v-213h-221v-580h221v-213h-702v213h225v580h-225v213z" />
    <glyph glyph-name="Iacute.smcp" horiz-adv-x="483" 
d="M291 1458h293l-234 -334h-217zM115 1006h256v-1006h-256v1006z" />
    <glyph glyph-name="Ibreve.alt" horiz-adv-x="1044" 
d="M74 1358h897v-238h-316v-882h316v-238h-897v238h311v882h-311v238zM207 1782h184q6 -61 37 -96t80 -35q50 0 82 35.5t33 95.5h186q-7 -139 -89 -220t-212 -81t-212.5 81.5t-88.5 219.5z" />
    <glyph glyph-name="Ibreve.alt.smcp" horiz-adv-x="835" 
d="M66 1006h702v-213h-221v-580h221v-213h-702v213h225v580h-225v213zM117 1432h184q4 -60 36 -96t79 -36q51 0 81.5 36t32.5 96h187q-6 -139 -88 -220.5t-213 -81.5q-129 0 -211 83t-88 219z" />
    <glyph glyph-name="Ibreve.smcp" horiz-adv-x="483" 
d="M115 1006h256v-1006h-256v1006zM-55 1432h184q5 -57 36.5 -93t78.5 -36q51 0 82 34.5t32 94.5h187q-6 -139 -88 -220.5t-213 -81.5q-129 0 -211 83t-88 219z" />
    <glyph glyph-name="Icircumflex.alt" horiz-adv-x="1044" 
d="M74 1358h897v-238h-316v-882h316v-238h-897v238h311v882h-311v238zM586 1841l286 -371h-227l-129 179l-127 -179h-225l287 371h135z" />
    <glyph glyph-name="Icircumflex.alt.smcp" horiz-adv-x="841" 
d="M68 1006h702v-213h-223v-580h223v-213h-702v213h223v580h-223v213zM487 1481l287 -371h-225l-127 178l-129 -178h-227l286 371h135z" />
    <glyph glyph-name="Icircumflex.smcp" horiz-adv-x="483" 
d="M115 1006h256v-1006h-256v1006zM311 1481l287 -371h-225l-129 178l-127 -178h-228l287 371h135z" />
    <glyph glyph-name="Idieresis.alt" horiz-adv-x="1044" 
d="M74 1358h897v-238h-316v-882h316v-238h-897v238h311v882h-311v238zM338 1493q-60 0 -97.5 36.5t-37.5 96.5q0 61 37.5 99t97.5 38q62 0 99.5 -37.5t37.5 -99.5q0 -60 -37.5 -96.5t-99.5 -36.5zM705 1493q-62 0 -100 36.5t-38 96.5q0 61 38 99t100 38q60 0 98.5 -38
t38.5 -99q0 -60 -38.5 -96.5t-98.5 -36.5z" />
    <glyph glyph-name="Idieresis.alt.smcp" horiz-adv-x="835" 
d="M236 1153q-60 0 -98 38t-38 99q0 60 38 97.5t98 37.5q62 0 100.5 -37t38.5 -98t-38.5 -99t-100.5 -38zM602 1153q-61 0 -98 37.5t-37 99.5q0 60 37 97.5t98 37.5q60 0 98.5 -37.5t38.5 -97.5t-38.5 -98.5t-98.5 -38.5zM66 1006h702v-213h-221v-580h221v-213h-702v213h225
v580h-225v213z" />
    <glyph glyph-name="Idieresis.smcp" horiz-adv-x="483" 
d="M59 1153q-60 0 -97.5 38t-37.5 99q0 60 37.5 97.5t97.5 37.5q62 0 101 -37t39 -98t-39 -99t-101 -38zM426 1153q-61 0 -98 37.5t-37 99.5q0 60 37 97.5t98 37.5q60 0 98.5 -37.5t38.5 -97.5t-38.5 -98.5t-98.5 -38.5zM115 1006h256v-1006h-256v1006z" />
    <glyph glyph-name="Idotaccent.alt" horiz-adv-x="1044" 
d="M74 1358h897v-238h-316v-882h316v-238h-897v238h311v882h-311v238zM514 1776q66 0 108 -41.5t42 -108.5q4 -47 -23.5 -83.5t-68.5 -51.5t-87.5 -8t-76.5 39q-32 30 -39 76.5t8.5 87t52 67.5t84.5 23z" />
    <glyph glyph-name="Idotaccent.alt.smcp" horiz-adv-x="835" 
d="M569 1290q0 -63 -41.5 -104t-107.5 -41q-63 0 -104.5 41t-41.5 104q0 66 41.5 108t104.5 42q66 0 107.5 -41.5t41.5 -108.5zM66 1006h702v-213h-221v-580h221v-213h-702v213h225v580h-225v213z" />
    <glyph glyph-name="Idotaccent.smcp" horiz-adv-x="483" 
d="M350 1186q-41 -41 -106.5 -41t-106.5 41t-41 105.5t41 105.5t106.5 41t106.5 -41t41 -105.5t-41 -105.5zM115 1006h256v-1006h-256v1006z" />
    <glyph glyph-name="Idotbelow.alt" horiz-adv-x="1044" 
d="M74 1358h897v-238h-316v-882h316v-238h-897v238h311v882h-311v238zM508 -430q-63 0 -105.5 41.5t-42.5 103.5q0 65 43 107.5t105 42.5q63 0 106 -43.5t43 -106.5q0 -61 -43.5 -103t-105.5 -42z" />
    <glyph glyph-name="Idotbelow.alt.smcp" horiz-adv-x="835" 
d="M416 -430q-63 0 -105.5 41.5t-42.5 103.5q0 65 42 107.5t106 42.5q63 0 106 -43.5t43 -106.5q0 -61 -43.5 -103t-105.5 -42zM66 1006h702v-213h-221v-580h221v-213h-702v213h225v580h-225v213z" />
    <glyph glyph-name="Idotbelow.smcp" horiz-adv-x="483" 
d="M242 -430q-63 0 -105.5 41.5t-42.5 103.5q0 65 42 107.5t106 42.5q63 0 106 -43.5t43 -106.5q0 -61 -43.5 -103t-105.5 -42zM115 1006h256v-1006h-256v1006z" />
    <glyph glyph-name="Igrave.alt" horiz-adv-x="1044" 
d="M74 1358h897v-238h-316v-882h316v-238h-897v238h311v882h-311v238zM649 1473h-217l-231 333h291z" />
    <glyph glyph-name="Igrave.alt.smcp" horiz-adv-x="835" 
d="M530 1124h-217l-231 334h291zM66 1006h702v-213h-221v-580h221v-213h-702v213h225v580h-225v213z" />
    <glyph glyph-name="Igrave.smcp" horiz-adv-x="483" 
d="M350 1124h-215l-233 334h293zM115 1006h256v-1006h-256v1006z" />
    <glyph glyph-name="Imacron.alt" horiz-adv-x="1044" 
d="M74 1358h897v-238h-316v-882h316v-238h-897v238h311v882h-311v238zM213 1690h592v-174h-592v174z" />
    <glyph glyph-name="Imacron.alt.smcp" horiz-adv-x="835" 
d="M125 1356h590v-174h-590v174zM66 1006h702v-213h-221v-580h221v-213h-702v213h225v580h-225v213z" />
    <glyph glyph-name="Imacron.smcp" horiz-adv-x="483" 
d="M-49 1356h590v-174h-590v174zM115 1006h256v-1006h-256v1006z" />
    <glyph glyph-name="Iogonek.alt" horiz-adv-x="1044" 
d="M74 1358h897v-238h-316v-882h316v-238h-393q-195 -121 -195 -207q0 -35 26.5 -55.5t69.5 -20.5q57 0 113 27l53 -158q-83 -53 -203 -53q-115 0 -182 54.5t-67 146.5q0 149 188 266h-307v238h311v882h-311v238z" />
    <glyph glyph-name="Iogonek.alt.smcp" horiz-adv-x="835" 
d="M66 1006h702v-213h-221v-580h221v-213h-256q-190 -120 -190 -207q0 -35 25.5 -55.5t68.5 -20.5q57 0 112 27l54 -158q-83 -53 -203 -53q-116 0 -183 54t-67 147q0 147 186 266h-249v213h225v580h-225v213z" />
    <glyph glyph-name="Iogonek.smcp" horiz-adv-x="483" 
d="M115 1006h256v-1006h-29q-195 -124 -195 -207q0 -35 26.5 -56.5t70.5 -21.5q54 0 110 29l56 -160q-80 -51 -203 -51q-116 0 -183 54t-67 147q0 147 186 266h-28v1006z" />
    <glyph glyph-name="Itilde.alt" horiz-adv-x="1044" 
d="M74 1358h897v-238h-316v-882h316v-238h-897v238h311v882h-311v238zM270 1505l-108 97q102 184 237 184q44 0 132.5 -45t115.5 -45q65 0 123 84l104 -99q-54 -94 -111.5 -136t-131.5 -42q-49 0 -119 37q-69 38 -92 41q-29 7 -53 4q-41 -6 -97 -80z" />
    <glyph glyph-name="Itilde.alt.smcp" horiz-adv-x="839" 
d="M170 1155l-111 96q105 185 240 185q42 0 131 -45t117 -45q65 0 123 84l104 -99q-54 -93 -113 -135.5t-133 -42.5q-46 0 -116 37q-65 36 -93 43q-31 5 -55 2q-41 -6 -94 -80zM63 1006h705v-213h-223v-580h223v-213h-705v213h226v580h-226v213z" />
    <glyph glyph-name="Itilde.smcp" horiz-adv-x="483" 
d="M-2 1157l-111 96q106 183 238 183q44 0 132.5 -44t115.5 -44q36 0 64 19.5t59 64.5l104 -101q-98 -178 -244 -178q-48 0 -118 37q-66 39 -91 43q-37 7 -55 4q-41 -9 -94 -80zM115 1006h256v-1006h-256v1006z" />
    <glyph glyph-name="J.alt" horiz-adv-x="573" 
d="M430 1358v-1063q0 -67 -4 -122t-16 -116t-33 -110.5t-56 -101t-82.5 -93t-115 -79t-152.5 -66.5l-98 198q123 65 184 128.5t83 143t22 214.5v1067h268z" />
    <glyph glyph-name="J.alt.smcp" horiz-adv-x="497" 
d="M383 1004v-916q0 -82 -6 -131t-27 -107q-33 -93 -115 -161.5t-231 -110.5l-84 195q71 33 109.5 58.5t61 62.5t29 78t7.5 114v918h256z" />
    <glyph glyph-name="J.smcp" horiz-adv-x="860" 
d="M35 47l26 221q124 -59 271 -59q170 0 170 151v433h-350v213h602v-695q0 -85 -34.5 -150.5t-92.5 -104t-127 -57.5t-144 -19q-175 0 -321 67z" />
    <glyph glyph-name="Jcircumflex.alt" horiz-adv-x="573" 
d="M430 1358v-1063q0 -67 -4 -122t-16 -116t-33 -110.5t-56 -101t-82.5 -93t-115 -79t-152.5 -66.5l-98 198q123 65 184 128.5t83 143t22 214.5v1067h268zM365 1841l286 -371h-225l-129 179l-127 -179h-227l286 371h136z" />
    <glyph glyph-name="Jcircumflex.alt.smcp" horiz-adv-x="518" 
d="M391 1004v-916q0 -82 -6 -131t-27 -107q-30 -93 -111 -158.5t-235 -113.5l-84 195q71 33 110 58.5t61.5 63t28.5 78t7 113.5v918h256zM330 1481l286 -371h-227l-127 178l-129 -178h-225l287 371h135z" />
    <glyph glyph-name="Jcircumflex.smcp" horiz-adv-x="876" 
d="M35 47l26 221q124 -59 271 -59q170 0 170 151v433h-350v213h602v-695q0 -85 -34.5 -150.5t-92.5 -104t-127 -57.5t-144 -19q-175 0 -321 67zM524 1481l287 -371h-225l-129 178l-127 -178h-228l287 371h135z" />
    <glyph glyph-name="K.alt" horiz-adv-x="1417" 
d="M993 1358h305l-424 -713q9 -9 21 -25t29 -42t28 -43t34 -53t30 -48q37 -52 68.5 -89t73.5 -76.5t88 -60t93 -20.5q35 0 70 7v-205q-65 -17 -143 -17q-63 0 -123 21.5t-109 56.5t-96 81.5t-83.5 96t-71.5 100.5t-61.5 93t-51.5 76.5t-43 48.5h-211v-547h-271v1358h271
v-578h246z" />
    <glyph glyph-name="K.alt.smcp" horiz-adv-x="1122" 
d="M371 1006v-410h155l232 410h280l-313 -525l39 -61q39 -61 88 -127q86 -103 184 -103q34 0 66 7v-203q-35 -14 -109 -14q-65 0 -119.5 18t-88.5 41.5t-80 64.5q-37 39 -99 129l-98 150h-137v-383h-256v1006h256z" />
    <glyph glyph-name="K.alt.swsh" horiz-adv-x="1267" 
d="M991 1358h303l-413 -699q145 -282 284.5 -474t296.5 -320q158 -132 336.5 -194t394.5 -62q176 0 322 47v-254q-127 -47 -336 -47q-502 0 -884.5 308t-639.5 884h-241v-547h-269v1358h269v-578h252z" />
    <glyph glyph-name="K.smcp" horiz-adv-x="1110" 
d="M371 1006v-410h151l232 410h284l-311 -519l381 -487h-309l-289 383h-139v-383h-256v1006h256z" />
    <glyph glyph-name="K.swsh" horiz-adv-x="1806" 
d="M1532 1358h303l-414 -699q142 -279 283 -472t299 -322q159 -133 336.5 -194.5t394.5 -61.5q176 0 322 47v-254q-130 -47 -336 -47q-986 0 -1526 1192h-242v-547h-268v1139q-77 -2 -140 -13t-120.5 -36t-96.5 -64t-62 -100.5t-23 -141.5q0 -21 4 -67l-217 51q-6 50 -6 92
q0 109 36.5 195t99.5 142t151.5 93t186.5 52.5t212 15.5h243v-578h254z" />
    <glyph glyph-name="K.swsh.ss01" horiz-adv-x="1941" 
d="M1518 1358h305l-426 -713q9 -9 21 -25.5t28 -41t28.5 -44t33 -52t30.5 -48.5q37 -52 68.5 -89t73.5 -76.5t88.5 -60t93.5 -20.5q34 0 69 7v-205q-63 -17 -141 -17q-123 0 -221 68.5t-191 185.5q-42 55 -91 129t-82.5 123.5t-53.5 67.5h-213v-547h-270v1139
q-75 -3 -136 -15t-116.5 -37.5t-92.5 -64.5t-59 -99.5t-22 -138.5q0 -21 4 -67l-217 51q-6 50 -6 92q0 105 34 189t92.5 141t141 95.5t176.5 55.5t201 17h270v-578h248z" />
    <glyph glyph-name="Kcommaaccent.alt" horiz-adv-x="1417" 
d="M993 1358h305l-424 -713q9 -9 21 -25t29 -42t28 -43t34 -53t30 -48q37 -52 68.5 -89t73 -76.5t87 -60t92.5 -20.5q32 0 72 7v-205q-67 -17 -143 -17q-95 0 -186.5 49t-161.5 130q-72 82 -121 153q-24 35 -65 98t-65.5 97.5t-39.5 46.5h-213v-547h-269v1358h269v-578h248z
M766 -528h-197l9 422h251z" />
    <glyph glyph-name="Kcommaaccent.alt.smcp" horiz-adv-x="1122" 
d="M371 1006v-410h155l232 410h280l-313 -525l39 -61q39 -61 88 -127q86 -103 184 -103q34 0 66 7v-203q-35 -14 -109 -14q-65 0 -119.5 18t-88.5 41.5t-80 64.5q-37 39 -99 129l-98 150h-137v-383h-256v1006h256zM618 -528h-194l6 422h252z" />
    <glyph glyph-name="Kcommaaccent.alt.swsh" horiz-adv-x="1267" 
d="M735 -528h-196l8 422h252zM991 1358h303l-413 -699q145 -282 284.5 -474t296.5 -320q158 -132 336.5 -194t394.5 -62q176 0 322 47v-254q-127 -47 -336 -47q-502 0 -884.5 308t-639.5 884h-241v-547h-269v1358h269v-578h252z" />
    <glyph glyph-name="Kcommaaccent.smcp" horiz-adv-x="1110" 
d="M604 -528h-196l8 422h252zM371 1006v-410h151l232 410h284l-311 -519l381 -487h-309l-289 383h-139v-383h-256v1006h256z" />
    <glyph glyph-name="Kcommaaccent.swsh" horiz-adv-x="1806" 
d="M1268 -528h-197l8 422h252zM1532 1358h303l-414 -699q142 -279 283 -472t299 -322q159 -133 336.5 -194.5t394.5 -61.5q176 0 322 47v-254q-130 -47 -336 -47q-986 0 -1526 1192h-242v-547h-268v1139q-77 -2 -140 -13t-120.5 -36t-96.5 -64t-62 -100.5t-23 -141.5
q0 -21 4 -67l-217 51q-6 50 -6 92q0 109 36.5 195t99.5 142t151.5 93t186.5 52.5t212 15.5h243v-578h254z" />
    <glyph glyph-name="Kcommaaccent.swsh.ss01" horiz-adv-x="1941" 
d="M1264 -528h-197l6 422h252zM1518 1358h305l-426 -713q9 -9 21 -25.5t28 -41t28.5 -44t33 -52t30.5 -48.5q37 -52 68.5 -89t73.5 -76.5t88.5 -60t93.5 -20.5q34 0 69 7v-205q-63 -17 -141 -17q-123 0 -221 68.5t-191 185.5q-42 55 -91 129t-82.5 123.5t-53.5 67.5h-213
v-547h-270v1139q-75 -3 -136 -15t-116.5 -37.5t-92.5 -64.5t-59 -99.5t-22 -138.5q0 -21 4 -67l-217 51q-6 50 -6 92q0 105 34 189t92.5 141t141 95.5t176.5 55.5t201 17h270v-578h248z" />
    <glyph glyph-name="L.smcp" horiz-adv-x="919" 
d="M371 213h516v-213h-772v1006h256v-793z" />
    <glyph glyph-name="L.swsh" horiz-adv-x="1705" 
d="M946 233h731v-233h-999v1139q-78 -4 -139.5 -15.5t-119 -37t-95 -64t-60 -99.5t-22.5 -141q0 -25 4 -65l-217 51q-6 46 -6 92q0 105 34.5 189.5t94.5 141.5t143.5 95t179 55t203.5 17h268v-1125z" />
    <glyph glyph-name="Lacute.smcp" horiz-adv-x="919" 
d="M289 1458h291l-234 -334h-215zM371 213h516v-213h-772v1006h256v-793z" />
    <glyph glyph-name="Lacute.swsh" horiz-adv-x="1705" 
d="M850 1806h291l-234 -333h-215zM946 233h731v-233h-999v1139q-78 -4 -139.5 -15.5t-119 -37t-95 -64t-60 -99.5t-22.5 -141q0 -25 4 -65l-217 51q-6 46 -6 92q0 105 34.5 189.5t94.5 141.5t143.5 95t179 55t203.5 17h268v-1125z" />
    <glyph glyph-name="Lcaron.smcp" horiz-adv-x="921" 
d="M731 625h-186l2 376h244zM371 213h516v-213h-772v1006h256v-793z" />
    <glyph glyph-name="Lcaron.swsh" horiz-adv-x="1708" 
d="M1432 928h-195l6 422h252zM946 233h731v-233h-999v1139q-78 -4 -139.5 -15.5t-119 -37t-95 -64t-60 -99.5t-22.5 -141q0 -25 4 -65l-217 51q-6 46 -6 92q0 105 34.5 189.5t94.5 141.5t143.5 95t179 55t203.5 17h268v-1125z" />
    <glyph glyph-name="Lcommaaccent.smcp" horiz-adv-x="919" 
d="M582 -528h-197l8 422h252zM371 213h516v-213h-772v1006h256v-793z" />
    <glyph glyph-name="Lcommaaccent.swsh" horiz-adv-x="1705" 
d="M1282 -528h-197l9 422h252zM946 233h731v-233h-999v1139q-78 -4 -139.5 -15.5t-119 -37t-95 -64t-60 -99.5t-22.5 -141q0 -25 4 -65l-217 51q-6 46 -6 92q0 105 34.5 189.5t94.5 141.5t143.5 95t179 55t203.5 17h268v-1125z" />
    <glyph glyph-name="Ldot.smcp" horiz-adv-x="921" 
d="M786 410q-41 -41 -106.5 -41t-106.5 41t-41 106.5t41 106.5t106.5 41t106.5 -41t41 -106.5t-41 -106.5zM371 213h516v-213h-772v1006h256v-793z" />
    <glyph glyph-name="Ldot.swsh" horiz-adv-x="1705" 
d="M1391 834q66 0 106.5 -41t40.5 -107q4 -48 -23 -84.5t-67.5 -52t-87 -8.5t-76.5 39q-41 41 -41 106q0 66 41 107t107 41zM946 233h731v-233h-999v1139q-78 -4 -139.5 -15.5t-119 -37t-95 -64t-60 -99.5t-22.5 -141q0 -25 4 -65l-217 51q-6 46 -6 92q0 105 34.5 189.5
t94.5 141.5t143.5 95t179 55t203.5 17h268v-1125z" />
    <glyph glyph-name="Lslash.smcp" horiz-adv-x="999" 
d="M451 213h516v-213h-772v489l-148 -10v154l148 10v363h256v-347l247 17v-154l-247 -16v-293z" />
    <glyph glyph-name="Lslash.swsh" horiz-adv-x="1705" 
d="M946 233h731v-233h-999v672l-211 -13v209l211 13v258q-78 -4 -139.5 -15.5t-119 -37t-95 -64t-60 -99.5t-22.5 -141q0 -25 4 -65l-217 51q-6 46 -6 92q0 105 34.5 189.5t94.5 141.5t143.5 95t179 55t203.5 17h268v-461l344 21v-209l-344 -21v-455z" />
    <glyph glyph-name="M.smcp" horiz-adv-x="1376" 
d="M1006 623l-299 -338h-37l-299 338v-623h-256v1006h215l358 -416l359 416h217v-1006h-258v623z" />
    <glyph glyph-name="M.swsh" horiz-adv-x="2316" 
d="M946 0h-268v1139q-97 -2 -172 -20.5t-136.5 -57.5t-94.5 -109t-33 -168q0 -21 4 -67l-217 51q-6 50 -6 92q0 109 36.5 195t99.5 142t151.5 93t186.5 52.5t212 15.5h202l514 -608l512 608h234v-1358h-270v928l-453 -512h-43l-459 512v-928z" />
    <glyph glyph-name="N.smcp" horiz-adv-x="1218" 
d="M887 0l-516 602v-602h-256v1006h217l516 -603v603h256v-1006h-217z" />
    <glyph glyph-name="N.swsh" horiz-adv-x="2117" 
d="M242 784q0 -21 4 -67l-217 51q-6 50 -6 92q0 109 36.5 195t99.5 142t151.5 93t186.5 52.5t212 15.5h213l782 -932v932h268v-1358h-248l-778 922v-922h-268v1139q-97 -2 -172 -20.5t-136.5 -58t-94.5 -109.5t-33 -167z" />
    <glyph glyph-name="Nacute.smcp" horiz-adv-x="1218" 
d="M651 1458h293l-233 -334h-215zM887 0l-516 602v-602h-256v1006h217l516 -603v603h256v-1006h-217z" />
    <glyph glyph-name="Nacute.swsh" horiz-adv-x="2117" 
d="M1354 1806h291l-234 -333h-215zM242 784q0 -21 4 -67l-217 51q-6 50 -6 92q0 109 36.5 195t99.5 142t151.5 93t186.5 52.5t212 15.5h213l782 -932v932h268v-1358h-248l-778 922v-922h-268v1139q-97 -2 -172 -20.5t-136.5 -58t-94.5 -109.5t-33 -167z" />
    <glyph glyph-name="Ncaron.smcp" horiz-adv-x="1218" 
d="M260 1485h225l129 -178l127 178h228l-287 -371h-135zM887 0l-516 602v-602h-256v1006h217l516 -603v603h256v-1006h-217z" />
    <glyph glyph-name="Ncaron.swsh" horiz-adv-x="2117" 
d="M969 1851h225l129 -178l127 178h227l-286 -370h-136zM242 784q0 -21 4 -67l-217 51q-6 50 -6 92q0 109 36.5 195t99.5 142t151.5 93t186.5 52.5t212 15.5h213l782 -932v932h268v-1358h-248l-778 922v-922h-268v1139q-97 -2 -172 -20.5t-136.5 -58t-94.5 -109.5t-33 -167z
" />
    <glyph glyph-name="Ncommaaccent.smcp" horiz-adv-x="1218" 
d="M713 -528h-197l8 422h252zM887 0l-516 602v-602h-256v1006h217l516 -603v603h256v-1006h-217z" />
    <glyph glyph-name="Ncommaaccent.swsh" horiz-adv-x="2117" 
d="M1395 -528h-197l8 422h252zM242 784q0 -21 4 -67l-217 51q-6 50 -6 92q0 109 36.5 195t99.5 142t151.5 93t186.5 52.5t212 15.5h213l782 -932v932h268v-1358h-248l-778 922v-922h-268v1139q-97 -2 -172 -20.5t-136.5 -58t-94.5 -109.5t-33 -167z" />
    <glyph glyph-name="Nhookleft.smcp" horiz-adv-x="1222" 
d="M375 602v-688q-1 -158 -82 -246t-219 -88q-96 0 -156 29l23 213q27 -12 88 -12q48 0 68 32.5t20 102.5v1061h219l516 -603v603h256v-1006h-217z" />
    <glyph glyph-name="Ntilde.smcp" horiz-adv-x="1218" 
d="M367 1157l-111 96q106 183 238 183q44 0 133.5 -44t113.5 -44q36 0 64 19.5t59 64.5l107 -101q-54 -93 -112.5 -135.5t-133.5 -42.5q-47 0 -117 37q-66 40 -92 43q-37 7 -55 4q-38 -8 -94 -80zM887 0l-516 602v-602h-256v1006h217l516 -603v603h256v-1006h-217z" />
    <glyph glyph-name="Ntilde.swsh" horiz-adv-x="2117" 
d="M1040 1505l-108 97q102 184 235 184q44 0 134 -45t114 -45q36 0 64 19.5t59 64.5l107 -99q-54 -93 -112 -135.5t-132 -42.5q-49 0 -119 37q-69 38 -92 41q-29 8 -55 4q-39 -6 -95 -80zM242 784q0 -21 4 -67l-217 51q-6 50 -6 92q0 109 36.5 195t99.5 142t151.5 93
t186.5 52.5t212 15.5h213l782 -932v932h268v-1358h-248l-778 922v-922h-268v1139q-97 -2 -172 -20.5t-136.5 -58t-94.5 -109.5t-33 -167z" />
    <glyph glyph-name="O.smcp" horiz-adv-x="1202" 
d="M600 1024q236 0 387 -145q152 -146 152 -377q0 -228 -152 -377q-151 -145 -387 -145t-387 145q-150 147 -150 377q0 233 150 377q151 145 387 145zM602 213q123 0 202 81t79 210q0 127 -80 207q-76 82 -203 82q-124 0 -201 -80t-77 -209t78 -210t202 -81z" />
    <glyph glyph-name="OE.smcp" horiz-adv-x="1716" 
d="M600 1024q160 0 285 -90v72h755v-213h-499v-181h440v-202h-440v-197h508v-213h-764v72q-121 -92 -285 -92q-236 0 -387 145q-150 147 -150 377q0 233 150 377q151 145 387 145zM606 213q123 0 201 80t78 205q0 131 -77.5 213t-201.5 82q-127 0 -205.5 -80t-78.5 -209
t78.5 -210t205.5 -81z" />
    <glyph glyph-name="Oacute.smcp" horiz-adv-x="1202" 
d="M651 1458h291l-231 -334h-217zM600 1024q236 0 387 -145q152 -146 152 -377q0 -228 -152 -377q-151 -145 -387 -145t-387 145q-150 147 -150 377q0 233 150 377q151 145 387 145zM602 213q123 0 202 81t79 210q0 127 -80 207q-76 82 -203 82q-124 0 -201 -80t-77 -209
t78 -210t202 -81z" />
    <glyph glyph-name="Obreve.smcp" horiz-adv-x="1202" 
d="M600 1024q236 0 387 -145q152 -146 152 -377q0 -228 -152 -377q-151 -145 -387 -145t-387 145q-150 147 -150 377q0 233 150 377q151 145 387 145zM602 213q123 0 202 81t79 210q0 127 -80 207q-76 82 -203 82q-124 0 -201 -80t-77 -209t78 -210t202 -81zM301 1432h186
q5 -58 35.5 -93.5t79.5 -35.5q51 0 82.5 34.5t32.5 94.5h184q-6 -136 -88 -219t-211 -83q-130 0 -212.5 82t-88.5 220z" />
    <glyph glyph-name="Ocircumflex.smcp" horiz-adv-x="1202" 
d="M600 1024q236 0 387 -145q152 -146 152 -377q0 -228 -152 -377q-151 -145 -387 -145t-387 145q-150 147 -150 377q0 233 150 377q151 145 387 145zM602 213q123 0 202 81t79 210q0 127 -80 207q-76 82 -203 82q-124 0 -201 -80t-77 -209t78 -210t202 -81zM668 1481
l286 -371h-227l-127 178l-129 -178h-225l286 371h136z" />
    <glyph glyph-name="Odieresis.smcp" horiz-adv-x="1202" 
d="M420 1153q-60 0 -97.5 38t-37.5 99q0 59 37 96q37 38 98 39t98 -36q39 -36 39 -99q0 -62 -37.5 -99.5t-99.5 -37.5zM784 1153q-60 0 -97.5 38t-37.5 99q0 60 37.5 97.5t97.5 37.5q62 0 100 -37t38 -98t-38 -99t-100 -38zM600 1024q236 0 387 -145q152 -146 152 -377
q0 -228 -152 -377q-151 -145 -387 -145t-387 145q-150 147 -150 377q0 233 150 377q151 145 387 145zM602 213q123 0 202 81t79 210q0 127 -80 207q-76 82 -203 82q-124 0 -201 -80t-77 -209t78 -210t202 -81z" />
    <glyph glyph-name="Odotbelow.smcp" horiz-adv-x="1202" 
d="M600 -430q-63 0 -105 41.5t-42 103.5q0 66 42 108t105 42t106.5 -43.5t43.5 -106.5q0 -61 -44 -103t-106 -42zM600 1024q236 0 387 -145q152 -146 152 -377q0 -228 -152 -377q-151 -145 -387 -145t-387 145q-150 147 -150 377q0 233 150 377q151 145 387 145zM602 213
q123 0 202 81t79 210q0 127 -80 207q-76 82 -203 82q-124 0 -201 -80t-77 -209t78 -210t202 -81z" />
    <glyph glyph-name="Ograve.smcp" horiz-adv-x="1202" 
d="M709 1124h-217l-234 334h293zM600 1024q236 0 387 -145q152 -146 152 -377q0 -228 -152 -377q-151 -145 -387 -145t-387 145q-150 147 -150 377q0 233 150 377q151 145 387 145zM602 213q123 0 202 81t79 210q0 127 -80 207q-76 82 -203 82q-124 0 -201 -80t-77 -209
t78 -210t202 -81z" />
    <glyph glyph-name="Ohungarumlaut.smcp" horiz-adv-x="1202" 
d="M473 1458h272l-217 -334h-211zM840 1458h282l-237 -334h-211zM600 1024q236 0 387 -145q152 -146 152 -377q0 -228 -152 -377q-151 -145 -387 -145t-387 145q-150 147 -150 377q0 233 150 377q151 145 387 145zM602 213q123 0 202 81t79 210q0 127 -80 207
q-76 82 -203 82q-124 0 -201 -80t-77 -209t78 -210t202 -81z" />
    <glyph glyph-name="Omacron.smcp" horiz-adv-x="1202" 
d="M305 1356h592v-174h-592v174zM600 1024q236 0 387 -145q152 -146 152 -377q0 -228 -152 -377q-151 -145 -387 -145t-387 145q-150 147 -150 377q0 233 150 377q151 145 387 145zM602 213q123 0 202 81t79 210q0 127 -80 207q-76 82 -203 82q-124 0 -201 -80t-77 -209
t78 -210t202 -81z" />
    <glyph glyph-name="Oogonek.smcp" horiz-adv-x="1202" 
d="M63 504q0 231 150 375q151 145 387 145t387 -145q152 -146 152 -375q0 -190 -103 -325.5t-280 -178.5q-191 -123 -191 -207q0 -35 25.5 -56.5t68.5 -21.5q57 0 113 29l53 -160q-77 -51 -202 -51q-115 0 -182.5 54.5t-67.5 146.5q0 136 164 250q-211 18 -342 161
q-132 144 -132 359zM602 213q123 0 202 81t79 210q0 127 -80 207q-76 82 -203 82q-124 0 -201 -80t-77 -209t78 -210t202 -81z" />
    <glyph glyph-name="Oslash.smcp" horiz-adv-x="1230" 
d="M78 504q0 232 149 375q151 145 389 145q153 0 273 -63l166 202l125 -102l-162 -197q135 -144 135 -360q0 -230 -152 -379q-151 -145 -385 -145q-157 0 -274 63l-166 -201l-125 103l162 196q-135 144 -135 363zM336 504q0 -93 41 -164l354 430q-54 23 -115 23
q-125 0 -202.5 -80t-77.5 -209zM895 504q0 91 -41 162l-354 -433q53 -20 116 -20q123 0 201 81t78 210z" />
    <glyph glyph-name="Oslashacute.smcp" horiz-adv-x="1230" 
d="M78 504q0 232 149 375q151 145 389 145q153 0 273 -63l166 202l125 -102l-162 -197q135 -144 135 -360q0 -230 -152 -379q-151 -145 -385 -145q-157 0 -274 63l-166 -201l-125 103l162 196q-135 144 -135 363zM336 504q0 -93 41 -164l354 430q-54 23 -115 23
q-125 0 -202.5 -80t-77.5 -209zM895 504q0 91 -41 162l-354 -433q53 -20 116 -20q123 0 201 81t78 210zM666 1458h292l-233 -334h-215z" />
    <glyph glyph-name="Otilde.smcp" horiz-adv-x="1202" 
d="M356 1157l-108 96q103 183 237 183q44 0 132.5 -44t115.5 -44q36 0 64 19.5t59 64.5l105 -101q-98 -178 -244 -178q-49 0 -119 37q-66 40 -90 43q-37 7 -55 4q-41 -9 -97 -80zM600 1024q236 0 387 -145q152 -146 152 -377q0 -228 -152 -377q-151 -145 -387 -145t-387 145
q-150 147 -150 377q0 233 150 377q151 145 387 145zM602 213q123 0 202 81t79 210q0 127 -80 207q-76 82 -203 82q-124 0 -201 -80t-77 -209t78 -210t202 -81z" />
    <glyph glyph-name="P.smcp" horiz-adv-x="1036" 
d="M606 281h-235v-281h-256v1006h491q170 0 277 -101q108 -99 108 -264q0 -160 -108 -262q-107 -98 -277 -98zM571 793h-200v-306h200q70 0 116 42.5t46 109.5q0 68 -46 111t-116 43z" />
    <glyph glyph-name="P.swsh" horiz-adv-x="1855" 
d="M1309 399h-361v-399h-268v1139q-97 0 -174.5 -20t-138 -62t-93 -114t-32.5 -171q0 -43 2 -55l-215 51q-6 44 -6 78q0 230 163 371q167 141 453 141h670q138 0 249 -55.5t178.5 -166.5t67.5 -259q1 -210 -144 -346.5t-351 -131.5zM1278 1124h-330v-491h330q109 0 178.5 68
t69.5 176q0 115 -68.5 181t-179.5 66z" />
    <glyph glyph-name="Q.alt" horiz-adv-x="1574" 
d="M76 676q-4 194 90.5 357t258.5 255.5t359 89.5q150 0 282.5 -53.5t227 -146.5t149 -223.5t54.5 -278.5q0 -183 -79 -332t-222 -242l297 -348l-227 -184l-314 428q-82 -18 -168 -18q-199 0 -361 89.5t-254.5 249.5t-92.5 357zM354 676q0 -195 119 -320t311 -125
q196 0 316 123q119 125 119 322q0 198 -119 323q-121 127 -316 127q-190 0 -311 -127q-119 -125 -119 -323z" />
    <glyph glyph-name="Q.alt.smcp" horiz-adv-x="1206" 
d="M600 1024q236 0 387 -145q152 -146 152 -375q0 -135 -56 -246.5t-157 -181.5l217 -248l-203 -154l-225 316q-68 -10 -115 -10q-236 0 -387 145q-150 147 -150 377q0 233 150 377q151 145 387 145zM602 213q123 0 202 81t79 210q0 127 -80 207q-76 82 -203 82
q-124 0 -201 -80t-77 -209t78 -210t202 -81z" />
    <glyph glyph-name="Q.smcp" horiz-adv-x="1241" 
d="M63 504q0 231 150 375q151 145 387 145t387 -145q152 -146 152 -375q0 -173 -88.5 -303.5t-241.5 -186.5q138 -102 348 -102q85 0 162 18v-198q-77 -27 -186 -27q-169 0 -326 74.5t-250 202.5q-220 15 -356 157q-138 144 -138 365zM602 213q123 0 202 81t79 210
q0 127 -80 207q-76 82 -203 82q-124 0 -201 -80t-77 -209t78 -210t202 -81z" />
    <glyph glyph-name="Q.swsh" horiz-adv-x="1599" 
d="M76 676q0 197 93 358.5t255 252.5t360 91q147 2 280 -52t228.5 -148t151 -225.5t53.5 -276.5q0 -193 -89.5 -348t-246.5 -242q242 -250 536 -363.5t603 -113.5q310 0 543 112v-249q-69 -42 -242 -80q-167 -37 -313 -37q-380 0 -752 174q-376 176 -629 463
q-53 -12 -123 -12q-198 0 -360 89.5t-255 249.5t-93 357zM354 676q0 -195 119 -320t313 -125q202 0 317.5 121t115.5 324q0 198 -119 323q-121 127 -316 127q-190 0 -311 -127q-119 -125 -119 -323z" />
    <glyph glyph-name="R.alt" horiz-adv-x="1400" 
d="M1210 -20q-108 0 -189 45.5t-159 126.5q-38 42 -106.5 130.5t-98.5 116.5h-241v-399h-271v1358h629q213 0 354 -129q144 -129 144 -350q0 -158 -84 -276.5t-227 -170.5q14 -14 55.5 -64.5t56.5 -66.5q111 -115 207 -108q40 0 61 6v-203q-53 -16 -131 -16zM743 1124h-327
v-491h327q111 0 180.5 68t69.5 176q0 115 -69 181t-181 66z" />
    <glyph glyph-name="R.alt.smcp" horiz-adv-x="1087" 
d="M924 -20q-159 0 -265 106q-34 37 -55 64q-49 76 -94 137h-139v-287h-256v1006h493q172 0 277.5 -100t105.5 -261q0 -115 -59 -203.5t-162 -126.5q54 -67 98.5 -98t100.5 -31q24 0 59 7v-199q-32 -14 -104 -14zM569 793h-198v-299h198q74 0 118 40t44 107q0 72 -43.5 112
t-118.5 40z" />
    <glyph glyph-name="R.alt.swsh" 
d="M2251 -631q-515 0 -884 255t-615 775h-338v-399h-269v1358h629q216 0 356 -129t140 -350q0 -141 -70.5 -253t-193.5 -173q123 -229 256.5 -389t283.5 -257t312.5 -140.5t357.5 -43.5q215 0 364 55v-251q-137 -55 -329 -58zM743 1124h-329v-491h329q109 0 178.5 68
t69.5 176q0 114 -68 180.5t-180 66.5z" />
    <glyph glyph-name="R.smcp" horiz-adv-x="1103" 
d="M1067 0h-301l-213 281h-182v-281h-256v1006h493q170 0 277 -101q108 -99 108 -262q0 -99 -51.5 -182t-136.5 -125zM571 793h-200v-306h200q72 0 117 42t45 110q0 69 -45 111.5t-117 42.5z" />
    <glyph glyph-name="R.swsh" horiz-adv-x="1886" 
d="M1806 879q0 -141 -71 -253.5t-195 -174.5q147 -303 311.5 -483t375 -265t499.5 -88q171 0 323 47v-252q-125 -49 -339 -49q-354 4 -616 116.5t-454 336t-348 585.5h-342v-399h-270v1139q-10 2 -43 2q-393 0 -393 -389v-35l-215 51q-6 46 -6 80q0 233 161 369
q164 141 457 141h670q213 0 354 -129t141 -350zM1280 1124h-330v-491h330q109 0 178.5 68t69.5 176q0 115 -68.5 181t-179.5 66z" />
    <glyph glyph-name="R.swsh.ss01" horiz-adv-x="1933" 
d="M1743 -20q-73 0 -139.5 24t-114 61t-94 86t-78 92.5t-66.5 88.5t-59 67h-244v-399h-270v1139q-97 -2 -172 -20.5t-136.5 -57.5t-94.5 -109t-33 -168q0 -21 4 -67l-217 51q-6 50 -6 92q0 131 52.5 229t145 155.5t208 85.5t253.5 28h627q213 0 354 -129t141 -350
q0 -158 -84 -276.5t-227 -170.5q14 -14 56.5 -65t56.5 -66q111 -115 209 -108q34 0 61 6v-203q-1 -1 -17 -5t-48.5 -7.5t-67.5 -3.5zM1278 1124h-330v-491h330q109 0 178.5 68t69.5 176q0 115 -68.5 181t-179.5 66z" />
    <glyph glyph-name="Racute.alt" horiz-adv-x="1400" 
d="M1210 -20q-172 0 -297 118q-43 41 -98 107q-15 20 -53.5 70.5t-62.5 79.5t-42 44h-243v-399h-269v1358h629q213 0 354 -129q144 -129 144 -350q0 -157 -84.5 -276t-226.5 -171q41 -47 53 -63l59 -68q97 -108 207 -108q40 0 61 6v-203q-53 -16 -131 -16zM743 1124h-329
v-491h329q109 0 178.5 68t69.5 176q0 114 -68 180.5t-180 66.5zM702 1806h291l-231 -333h-217z" />
    <glyph glyph-name="Racute.alt.smcp" horiz-adv-x="1087" 
d="M532 1458h293l-233 -334h-215zM924 -20q-159 0 -265 106q-34 37 -55 64q-49 76 -94 137h-139v-287h-256v1006h493q172 0 277.5 -100t105.5 -261q0 -115 -59 -203.5t-162 -126.5q54 -67 98.5 -98t100.5 -31q24 0 59 7v-199q-32 -14 -104 -14zM569 793h-198v-299h198
q74 0 118 40t44 107q0 72 -43.5 112t-118.5 40z" />
    <glyph glyph-name="Racute.alt.swsh" 
d="M725 1806h293l-234 -333h-217zM2251 -631q-515 0 -884 255t-615 775h-338v-399h-269v1358h629q216 0 356 -129t140 -350q0 -141 -70.5 -253t-193.5 -173q123 -229 256.5 -389t283.5 -257t312.5 -140.5t357.5 -43.5q215 0 364 55v-251q-137 -55 -329 -58zM743 1124h-329
v-491h329q109 0 178.5 68t69.5 176q0 114 -68 180.5t-180 66.5z" />
    <glyph glyph-name="Racute.smcp" horiz-adv-x="1103" 
d="M549 1458h291l-234 -334h-215zM1067 0h-301l-213 281h-182v-281h-256v1006h493q170 0 277 -101q108 -99 108 -262q0 -99 -51.5 -182t-136.5 -125zM571 793h-200v-306h200q72 0 117 42t45 110q0 69 -45 111.5t-117 42.5z" />
    <glyph glyph-name="Racute.swsh" horiz-adv-x="1886" 
d="M1264 1806h292l-233 -333h-215zM1806 879q0 -141 -71 -253.5t-195 -174.5q147 -303 311.5 -483t375 -265t499.5 -88q171 0 323 47v-252q-125 -49 -339 -49q-354 4 -616 116.5t-454 336t-348 585.5h-342v-399h-270v1139q-10 2 -43 2q-393 0 -393 -389v-35l-215 51
q-6 46 -6 80q0 233 161 369q164 141 457 141h670q213 0 354 -129t141 -350zM1280 1124h-330v-491h330q109 0 178.5 68t69.5 176q0 115 -68.5 181t-179.5 66z" />
    <glyph glyph-name="Racute.swsh.ss01" horiz-adv-x="1933" 
d="M1212 1806h291l-231 -333h-217zM1743 -20q-73 0 -139.5 24t-114 61t-94 86t-78 92.5t-66.5 88.5t-59 67h-244v-399h-270v1139q-97 -2 -172 -20.5t-136.5 -57.5t-94.5 -109t-33 -168q0 -21 4 -67l-217 51q-6 50 -6 92q0 131 52.5 229t145 155.5t208 85.5t253.5 28h627
q213 0 354 -129t141 -350q0 -158 -84 -276.5t-227 -170.5q14 -14 56.5 -65t56.5 -66q111 -115 209 -108q34 0 61 6v-203q-1 -1 -17 -5t-48.5 -7.5t-67.5 -3.5zM1278 1124h-330v-491h330q109 0 178.5 68t69.5 176q0 115 -68.5 181t-179.5 66z" />
    <glyph glyph-name="Rcaron.alt" horiz-adv-x="1400" 
d="M1210 -20q-172 0 -297 118q-43 41 -98 107q-15 20 -53.5 70.5t-62.5 79.5t-42 44h-243v-399h-269v1358h629q213 0 354 -129q144 -129 144 -350q0 -157 -84.5 -276t-226.5 -171q41 -47 53 -63l59 -68q97 -108 207 -108q40 0 61 6v-203q-53 -16 -131 -16zM743 1124h-329
v-491h329q109 0 178.5 68t69.5 176q0 114 -68 180.5t-180 66.5zM295 1851h225l129 -178l127 178h228l-287 -370h-135z" />
    <glyph glyph-name="Rcaron.alt.smcp" horiz-adv-x="1087" 
d="M139 1485h228l129 -178l127 178h227l-289 -371h-135zM924 -20q-159 0 -265 106q-34 37 -55 64q-49 76 -94 137h-139v-287h-256v1006h493q172 0 277.5 -100t105.5 -261q0 -115 -59 -203.5t-162 -126.5q54 -67 98.5 -98t100.5 -31q24 0 59 7v-199q-32 -14 -104 -14z
M569 793h-198v-299h198q74 0 118 40t44 107q0 72 -43.5 112t-118.5 40z" />
    <glyph glyph-name="Rcaron.alt.swsh" 
d="M319 1851h226l129 -178l127 178h227l-287 -370h-135zM2251 -631q-515 0 -884 255t-615 775h-338v-399h-269v1358h629q216 0 356 -129t140 -350q0 -141 -70.5 -253t-193.5 -173q123 -229 256.5 -389t283.5 -257t312.5 -140.5t357.5 -43.5q215 0 364 55v-251
q-137 -55 -329 -58zM743 1124h-329v-491h329q109 0 178.5 68t69.5 176q0 114 -68 180.5t-180 66.5z" />
    <glyph glyph-name="Rcaron.smcp" horiz-adv-x="1103" 
d="M156 1485h227l127 -178l129 178h225l-286 -371h-136zM1067 0h-301l-213 281h-182v-281h-256v1006h493q170 0 277 -101q108 -99 108 -262q0 -99 -51.5 -182t-136.5 -125zM571 793h-200v-306h200q72 0 117 42t45 110q0 69 -45 111.5t-117 42.5z" />
    <glyph glyph-name="Rcaron.swsh" horiz-adv-x="1886" 
d="M815 1851h227l127 -178l129 178h226l-287 -370h-135zM1806 879q0 -141 -71 -253.5t-195 -174.5q147 -303 311.5 -483t375 -265t499.5 -88q171 0 323 47v-252q-125 -49 -339 -49q-354 4 -616 116.5t-454 336t-348 585.5h-342v-399h-270v1139q-10 2 -43 2q-393 0 -393 -389
v-35l-215 51q-6 46 -6 80q0 233 161 369q164 141 457 141h670q213 0 354 -129t141 -350zM1280 1124h-330v-491h330q109 0 178.5 68t69.5 176q0 115 -68.5 181t-179.5 66z" />
    <glyph glyph-name="Rcaron.swsh.ss01" horiz-adv-x="1933" 
d="M827 1851h228l127 -178l129 178h225l-287 -370h-135zM1743 -20q-73 0 -139.5 24t-114 61t-94 86t-78 92.5t-66.5 88.5t-59 67h-244v-399h-270v1139q-97 -2 -172 -20.5t-136.5 -57.5t-94.5 -109t-33 -168q0 -21 4 -67l-217 51q-6 50 -6 92q0 131 52.5 229t145 155.5
t208 85.5t253.5 28h627q213 0 354 -129t141 -350q0 -158 -84 -276.5t-227 -170.5q14 -14 56.5 -65t56.5 -66q111 -115 209 -108q34 0 61 6v-203q-1 -1 -17 -5t-48.5 -7.5t-67.5 -3.5zM1278 1124h-330v-491h330q109 0 178.5 68t69.5 176q0 115 -68.5 181t-179.5 66z" />
    <glyph glyph-name="Rcommaaccent.alt" horiz-adv-x="1400" 
d="M1210 -20q-172 0 -297 118q-43 41 -98 107q-15 20 -53.5 70.5t-62.5 79.5t-42 44h-243v-399h-269v1358h629q213 0 354 -129q144 -129 144 -350q0 -157 -84.5 -276t-226.5 -171q41 -47 53 -63l59 -68q97 -108 207 -108q40 0 61 6v-203q-53 -16 -131 -16zM743 1124h-329
v-491h329q109 0 178.5 68t69.5 176q0 114 -68 180.5t-180 66.5zM760 -528h-197l8 422h252z" />
    <glyph glyph-name="Rcommaaccent.alt.smcp" horiz-adv-x="1087" 
d="M594 -528h-197l9 422h251zM924 -20q-159 0 -265 106q-34 37 -55 64q-49 76 -94 137h-139v-287h-256v1006h493q172 0 277.5 -100t105.5 -261q0 -115 -59 -203.5t-162 -126.5q54 -67 98.5 -98t100.5 -31q24 0 59 7v-199q-32 -14 -104 -14zM569 793h-198v-299h198
q74 0 118 40t44 107q0 72 -43.5 112t-118.5 40z" />
    <glyph glyph-name="Rcommaaccent.alt.swsh" 
d="M760 -528h-197l8 422h252zM2251 -631q-515 0 -884 255t-615 775h-338v-399h-269v1358h629q216 0 356 -129t140 -350q0 -141 -70.5 -253t-193.5 -173q123 -229 256.5 -389t283.5 -257t312.5 -140.5t357.5 -43.5q215 0 364 55v-251q-137 -55 -329 -58zM743 1124h-329v-491
h329q109 0 178.5 68t69.5 176q0 114 -68 180.5t-180 66.5z" />
    <glyph glyph-name="Rcommaaccent.smcp" horiz-adv-x="1103" 
d="M604 -528h-194l6 422h252zM1067 0h-301l-213 281h-182v-281h-256v1006h493q170 0 277 -101q108 -99 108 -262q0 -99 -51.5 -182t-136.5 -125zM571 793h-200v-306h200q72 0 117 42t45 110q0 69 -45 111.5t-117 42.5z" />
    <glyph glyph-name="Rcommaaccent.swsh" horiz-adv-x="1886" 
d="M1268 -528h-197l6 422h252zM1806 879q0 -141 -71 -253.5t-195 -174.5q147 -303 311.5 -483t375 -265t499.5 -88q171 0 323 47v-252q-125 -49 -339 -49q-354 4 -616 116.5t-454 336t-348 585.5h-342v-399h-270v1139q-10 2 -43 2q-393 0 -393 -389v-35l-215 51q-6 46 -6 80
q0 233 161 369q164 141 457 141h670q213 0 354 -129t141 -350zM1280 1124h-330v-491h330q109 0 178.5 68t69.5 176q0 115 -68.5 181t-179.5 66z" />
    <glyph glyph-name="Rcommaaccent.swsh.ss01" horiz-adv-x="1933" 
d="M1280 -528h-195l7 422h251zM1743 -20q-73 0 -139.5 24t-114 61t-94 86t-78 92.5t-66.5 88.5t-59 67h-244v-399h-270v1139q-97 -2 -172 -20.5t-136.5 -57.5t-94.5 -109t-33 -168q0 -21 4 -67l-217 51q-6 50 -6 92q0 131 52.5 229t145 155.5t208 85.5t253.5 28h627
q213 0 354 -129t141 -350q0 -158 -84 -276.5t-227 -170.5q14 -14 56.5 -65t56.5 -66q111 -115 209 -108q34 0 61 6v-203q-1 -1 -17 -5t-48.5 -7.5t-67.5 -3.5zM1278 1124h-330v-491h330q109 0 178.5 68t69.5 176q0 115 -68.5 181t-179.5 66z" />
    <glyph glyph-name="S.smcp" horiz-adv-x="929" 
d="M483 1024q197 0 336 -68l-20 -227q-45 24 -140 47q-97 23 -165 23q-84 0 -125 -19.5t-41 -62.5q0 -48 61 -72l66 -18l153 -43q140 -38 202 -105.5t62 -183.5q0 -140 -112 -227q-113 -88 -297 -88q-222 0 -393 83l22 224q66 -35 161.5 -58.5t188.5 -23.5q80 0 126 22
t46 64q0 31 -25.5 50t-90.5 38l-160 43q-268 68 -268 287q0 146 111 230.5t302 84.5z" />
    <glyph glyph-name="Sacute.smcp" horiz-adv-x="929" 
d="M522 1458h291l-231 -334h-217zM483 1024q197 0 336 -68l-20 -227q-45 24 -140 47q-97 23 -165 23q-84 0 -125 -19.5t-41 -62.5q0 -48 61 -72l66 -18l153 -43q140 -38 202 -105.5t62 -183.5q0 -140 -112 -227q-113 -88 -297 -88q-222 0 -393 83l22 224q66 -35 161.5 -58.5
t188.5 -23.5q80 0 126 22t46 64q0 31 -25.5 50t-90.5 38l-160 43q-268 68 -268 287q0 146 111 230.5t302 84.5z" />
    <glyph glyph-name="Scaron.smcp" horiz-adv-x="929" 
d="M125 1485h227l127 -178l129 178h226l-287 -371h-135zM483 1024q197 0 336 -68l-20 -227q-45 24 -140 47q-97 23 -165 23q-84 0 -125 -19.5t-41 -62.5q0 -48 61 -72l66 -18l153 -43q140 -38 202 -105.5t62 -183.5q0 -140 -112 -227q-113 -88 -297 -88q-222 0 -393 83
l22 224q66 -35 161.5 -58.5t188.5 -23.5q80 0 126 22t46 64q0 31 -25.5 50t-90.5 38l-160 43q-268 68 -268 287q0 146 111 230.5t302 84.5z" />
    <glyph glyph-name="Scedilla.smcp" horiz-adv-x="929" 
d="M483 1024q197 0 336 -68l-20 -227q-45 24 -140 47q-97 23 -165 23q-84 0 -125 -19.5t-41 -62.5q0 -48 61 -72l66 -18l153 -43q140 -38 202 -105.5t62 -183.5q0 -126 -94.5 -212t-251.5 -99l-20 -70q100 -12 155.5 -60t55.5 -122q0 -91 -82 -145t-217 -54q-95 0 -154 27
v141q61 -18 131 -18q117 0 117 65q0 68 -125 68h-72l66 168q-174 12 -311 79l22 224q66 -35 161.5 -58.5t188.5 -23.5q80 0 126 22t46 64q0 35 -28 52.5t-117 41.5l-131 37q-268 68 -268 287q0 146 111 230.5t302 84.5z" />
    <glyph glyph-name="Schwa.smcp" horiz-adv-x="1130" 
d="M143 717l-39 215q71 40 176.5 66t217.5 26q258 0 413 -143q156 -144 156 -379q0 -229 -145 -377q-145 -145 -367 -145q-121 0 -220.5 42.5t-166 119t-93 190.5t-1.5 250h725q-18 103 -102.5 157t-215.5 54q-91 0 -182.5 -21.5t-155.5 -54.5zM797 403h-478
q5 -89 66 -143.5t164 -54.5q105 0 172.5 55t75.5 143z" />
    <glyph glyph-name="Scircumflex.smcp" horiz-adv-x="929" 
d="M483 1024q197 0 336 -68l-20 -227q-45 24 -140 47q-97 23 -165 23q-84 0 -125 -19.5t-41 -62.5q0 -48 61 -72l66 -18l153 -43q140 -38 202 -105.5t62 -183.5q0 -140 -112 -227q-113 -88 -297 -88q-222 0 -393 83l22 224q66 -35 161.5 -58.5t188.5 -23.5q80 0 126 22
t46 64q0 31 -25.5 50t-90.5 38l-160 43q-268 68 -268 287q0 146 111 230.5t302 84.5zM555 1481l287 -371h-226l-129 178l-127 -178h-227l287 371h135z" />
    <glyph glyph-name="Scommaaccent.smcp" horiz-adv-x="929" 
d="M545 -528h-197l6 422h252zM483 1024q197 0 336 -68l-20 -227q-45 24 -140 47q-97 23 -165 23q-84 0 -125 -19.5t-41 -62.5q0 -48 61 -72l66 -18l153 -43q140 -38 202 -105.5t62 -183.5q0 -140 -112 -227q-113 -88 -297 -88q-222 0 -393 83l22 224q66 -35 161.5 -58.5
t188.5 -23.5q80 0 126 22t46 64q0 31 -25.5 50t-90.5 38l-160 43q-268 68 -268 287q0 146 111 230.5t302 84.5z" />
    <glyph glyph-name="T.smcp" horiz-adv-x="929" 
d="M594 0h-256v791h-307v215h868v-215h-305v-791z" />
    <glyph glyph-name="Tbar.smcp" horiz-adv-x="962" 
d="M610 0h-256v438h-225v156h225v197h-307v215h868v-215h-305v-197h224v-156h-224v-438z" />
    <glyph glyph-name="Tcaron.smcp" horiz-adv-x="929" 
d="M109 1485h227l127 -178l129 178h225l-287 -371h-135zM594 0h-256v791h-307v215h868v-215h-305v-791z" />
    </font>
</defs>
</svg>
