<svg xmlns="http://www.w3.org/2000/svg" xmlns:xlink="http://www.w3.org/1999/xlink" viewBox="0 0 112.26 112.39"><defs><style>.cls-1{fill:none;}.cls-2{clip-path:url(#clip-path);}.cls-3{fill:#efc307;}.cls-4{isolation:isolate;}.cls-5{fill:#0c071e;}</style><clipPath id="clip-path" transform="translate(-13.19 -13.13)"><rect class="cls-1" x="12.74" y="12.71" width="113.06" height="113.28" transform="translate(-15.6 20.3) rotate(-15.01)"/></clipPath></defs><g id="Layer_2" data-name="Layer 2"><g id="Layer_1-2" data-name="Layer 1"><g id="Artwork_4" data-name="Artwork 4"><g class="cls-2"><g id="Group_150" data-name="Group 150"><path id="Path_32" data-name="Path 32" class="cls-3" d="M120.68,50.54a11.25,11.25,0,0,1-5.16-10.45,7.07,7.07,0,0,0-6-7.87,11.33,11.33,0,0,1-8.71-7.7,7,7,0,0,0-8.46-5,11.39,11.39,0,0,1-11-3.69,7,7,0,0,0-9.81-1.24,11.07,11.07,0,0,1-11.63.77,6.81,6.81,0,0,0-9.35,2.32,2.53,2.53,0,0,0-.13.22A11.23,11.23,0,0,1,40,23.06a7.07,7.07,0,0,0-7.87,6,11.33,11.33,0,0,1-7.7,8.71,6.89,6.89,0,0,0-4.87,8.43.56.56,0,0,0,0,.12,11.41,11.41,0,0,1-3.69,11,7,7,0,0,0-1.24,9.81,11.07,11.07,0,0,1,.76,11.63,6.82,6.82,0,0,0,2.32,9.36l.23.13A11.24,11.24,0,0,1,23.11,98.7a7.08,7.08,0,0,0,6,7.87,11.31,11.31,0,0,1,8.71,7.7,6.87,6.87,0,0,0,8.43,4.86h0a11.41,11.41,0,0,1,11,3.69,7,7,0,0,0,9.81,1.24,11.1,11.1,0,0,1,11.63-.76A6.81,6.81,0,0,0,88,121a2.53,2.53,0,0,0,.13-.22,11.22,11.22,0,0,1,10.45-5.15,7.08,7.08,0,0,0,7.87-6,11.32,11.32,0,0,1,7.7-8.7,6.89,6.89,0,0,0,4.87-8.43h0a11.58,11.58,0,0,1,3.68-11A7,7,0,0,0,124,71.65,11.08,11.08,0,0,1,123.22,60a7.08,7.08,0,0,0-2.54-9.49" transform="translate(-13.19 -13.13)"/></g></g></g><g id="Group_154" data-name="Group 154"><g id="News-" class="cls-4"><g class="cls-4"><path class="cls-5" d="M33.42,75.28,29.74,63.23,33.69,62l6.1,9.78.28-.08L36.81,61.07l2-.63,3.68,12-3.94,1.2-6.1-9.78-.29.09,3.26,10.65Z" transform="translate(-13.19 -13.13)"/><path class="cls-5" d="M44.92,71.76,41.23,59.71l7.68-2.34.57,1.87L43.89,61l1,3.17L50,62.56l.57,1.87L45.43,66l1,3.26,5.68-1.74.58,1.87Z" transform="translate(-13.19 -13.13)"/><path class="cls-5" d="M55.52,68.52,50.16,57l2.05-.63,4.55,10.22.3-.09L55.5,55.35l3.59-1.1L64,64.35l.29-.09-2-11,2.06-.63,2,12.56-3.6,1.1-5-10.3-.29.09,1.59,11.34Z" transform="translate(-13.19 -13.13)"/><path class="cls-5" d="M74.05,63.11a6,6,0,0,1-2.58.25,4,4,0,0,1-2.1-.91,4.25,4.25,0,0,1-1.29-2.09l-.14-.45,2-.62.13.45a2.29,2.29,0,0,0,1.27,1.55,3.11,3.11,0,0,0,2.11,0,3,3,0,0,0,1.68-1.06,1.63,1.63,0,0,0,.23-1.48,1.33,1.33,0,0,0-.56-.78,2.12,2.12,0,0,0-1-.28,12.39,12.39,0,0,0-1.47,0l-.55,0a9.8,9.8,0,0,1-2.27-.07A3.46,3.46,0,0,1,67.88,57a3.13,3.13,0,0,1-1-1.61,3.41,3.41,0,0,1-.05-2,3.47,3.47,0,0,1,1.1-1.64,6.44,6.44,0,0,1,4.5-1.35,3.65,3.65,0,0,1,2,.81,3.89,3.89,0,0,1,1.23,2l.17.57-2,.63-.18-.57a2.26,2.26,0,0,0-.65-1.1,1.77,1.77,0,0,0-1-.4,3.55,3.55,0,0,0-1.32.18,2.78,2.78,0,0,0-1.49.9,1.44,1.44,0,0,0-.19,1.34,1.37,1.37,0,0,0,.5.74,1.73,1.73,0,0,0,.91.33,6.7,6.7,0,0,0,1.34,0l.55,0a11.57,11.57,0,0,1,2.38,0,3.88,3.88,0,0,1,1.8.66,3,3,0,0,1,1.07,1.63,3.52,3.52,0,0,1,0,2.08,3.88,3.88,0,0,1-1.18,1.77A5.9,5.9,0,0,1,74.05,63.11Z" transform="translate(-13.19 -13.13)"/><path class="cls-5" d="M79.26,57.41l-.55-1.77,5.1-1.56.54,1.77Z" transform="translate(-13.19 -13.13)"/></g></g><g id="letter" class="cls-4"><g class="cls-4"><path class="cls-5" d="M51,90.21,48.41,77.89l2.13-.46,2.21,10.41,5.78-1.23.41,1.92Z" transform="translate(-13.19 -13.13)"/><path class="cls-5" d="M60.59,88.18,58,75.85l7.85-1.67.41,1.92-5.72,1.22.69,3.24,5.23-1.11.41,1.92-5.23,1.11.71,3.33,5.81-1.24.4,1.92Z" transform="translate(-13.19 -13.13)"/><path class="cls-5" d="M73.29,85.48,71.07,75.07l-3.68.79L67,73.94l9.47-2,.41,1.92-3.68.78L75.4,85Z" transform="translate(-13.19 -13.13)"/><path class="cls-5" d="M83.64,83.28,81.43,72.87l-3.68.78-.41-1.92,9.47-2,.41,1.92-3.68.78,2.22,10.41Z" transform="translate(-13.19 -13.13)"/><path class="cls-5" d="M91.09,81.69,88.47,69.37l7.85-1.67.41,1.92L91,70.83l.69,3.24L96.93,73l.4,1.92L92.1,76l.71,3.33,5.81-1.24L99,80Z" transform="translate(-13.19 -13.13)"/><path class="cls-5" d="M100.88,79.61,98.26,67.28l5.26-1.12a4.85,4.85,0,0,1,2.11,0,3.23,3.23,0,0,1,1.59.85,3.2,3.2,0,0,1,.86,1.65l0,.19a2.93,2.93,0,0,1-.16,2,3.26,3.26,0,0,1-1.1,1.28l.06.28a1.53,1.53,0,0,1,1.18.25,1.75,1.75,0,0,1,.65,1.1l.86,4.06-2.11.45-.8-3.77a1.06,1.06,0,0,0-.39-.66,1,1,0,0,0-.82-.11L102,74.4l1,4.76Zm.71-7.13,2.92-.62a2.08,2.08,0,0,0,1.34-.79,1.72,1.72,0,0,0,.24-1.4l0-.16a1.76,1.76,0,0,0-.79-1.2,2.08,2.08,0,0,0-1.55-.18l-2.92.62Z" transform="translate(-13.19 -13.13)"/></g></g></g></g></g></svg>